<svg xmlns="http://www.w3.org/2000/svg" height="512pt" version="1.1" viewBox="0 0 512.00191 512" width="512pt">
<g id="surface1">
<path d="M 511.84375 226.28125 C 511.007812 218.304688 506.875 210.949219 500.503906 206.082031 L 471.367188 183.394531 L 482.320312 147.253906 C 484.65625 139.539062 483.6875 131.113281 479.65625 124.132812 C 475.628906 117.152344 468.816406 112.101562 460.96875 110.265625 L 424.308594 101.707031 L 419.625 64.359375 C 418.625 56.355469 414.308594 49.050781 407.796875 44.324219 C 401.273438 39.578125 392.988281 37.730469 385.078125 39.253906 L 348.105469 46.34375 L 328.632812 14.121094 C 320.882812 1.296875 304.605469 -3.550781 290.769531 2.851562 C 289.8125 3.292969 288.886719 3.828125 288.058594 4.410156 L 255.972656 26.761719 L 225.078125 5.242188 C 218.464844 0.640625 210.152344 -1.039062 202.273438 0.632812 C 194.386719 2.308594 187.476562 7.226562 183.308594 14.125 L 163.839844 46.347656 L 126.863281 39.253906 C 118.949219 37.738281 110.671875 39.585938 104.15625 44.320312 C 97.632812 49.058594 93.316406 56.363281 92.320312 64.355469 L 87.640625 101.710938 L 48.859375 110.761719 L 47.046875 111.355469 L 46.375 111.648438 C 32.285156 117.808594 25.242188 132.78125 29.625 147.253906 L 40.574219 183.390625 L 10.183594 207.035156 L 8.425781 208.566406 L 7.929688 209.109375 C -2.273438 220.25 -2.671875 237.101562 6.976562 248.367188 L 30.769531 276.820312 L 11.796875 311.246094 L 11.464844 311.863281 L 10.714844 313.5625 L 10.492188 314.21875 C 5.683594 328.589844 12.234375 344.203125 25.726562 350.539062 L 59.804688 366.53125 L 56.613281 404.035156 C 55.929688 412.070312 58.632812 420.113281 64.023438 426.097656 C 69.414062 432.089844 77.128906 435.617188 85.191406 435.777344 L 122.828125 436.53125 L 135.171875 472.085938 C 137.8125 479.707031 143.554688 485.953125 150.910156 489.230469 C 158.269531 492.503906 166.753906 492.59375 174.1875 489.464844 L 208.878906 474.839844 L 236.09375 503.882812 L 237.511719 505.152344 L 238.085938 505.578125 C 243.464844 509.550781 249.753906 511.5 255.980469 511.5 C 263.859375 511.5 271.636719 508.378906 277.328125 502.308594 L 303.070312 474.839844 L 337.765625 489.464844 C 345.1875 492.589844 353.667969 492.503906 361.023438 489.230469 C 368.390625 485.953125 374.132812 479.703125 376.773438 472.089844 L 389.117188 436.527344 L 428.933594 435.734375 L 430.820312 435.527344 L 431.5 435.390625 C 446.347656 432.363281 456.589844 418.886719 455.332031 404.039062 L 452.140625 366.53125 L 486.222656 350.535156 C 493.515625 347.113281 499.128906 340.753906 501.621094 333.085938 C 504.109375 325.421875 503.308594 316.976562 499.417969 309.917969 L 481.175781 276.816406 L 504.96875 248.367188 C 510.175781 242.292969 512.679688 234.25 511.84375 226.28125 Z M 452.808594 263.945312 C 448.085938 269.515625 447.28125 277.519531 450.808594 283.917969 L 472.738281 323.707031 L 431.605469 343.007812 C 424.9375 346.140625 420.878906 353.175781 421.5 360.515625 L 425.347656 405.78125 L 379.925781 406.6875 C 372.558594 406.835938 365.984375 411.613281 363.574219 418.570312 L 348.675781 461.488281 L 306.8125 443.84375 C 300.023438 440.980469 292.074219 442.667969 287.039062 448.046875 L 255.976562 481.195312 L 224.902344 448.039062 C 221.5 444.410156 216.773438 442.464844 211.96875 442.464844 C 209.660156 442.464844 207.339844 442.914062 205.136719 443.84375 L 163.269531 461.488281 L 148.375 418.574219 C 145.960938 411.613281 139.390625 406.839844 132.019531 406.6875 L 86.597656 405.78125 L 90.441406 360.523438 C 91.070312 353.179688 87.011719 346.144531 80.335938 343.007812 L 39.210938 323.707031 L 61.136719 283.921875 C 64.667969 277.519531 63.859375 269.519531 59.140625 263.949219 L 30.28125 229.4375 L 65.628906 201.9375 C 71.421875 197.476562 73.886719 189.804688 71.765625 182.796875 L 58.589844 139.320312 L 102.839844 128.992188 C 110.011719 127.3125 115.445312 121.277344 116.359375 113.96875 L 122.007812 68.890625 L 166.636719 77.449219 C 173.871094 78.828125 181.285156 75.527344 185.09375 69.226562 L 208.585938 30.34375 L 245.863281 56.304688 C 251.910156 60.519531 260.035156 60.519531 266.082031 56.304688 L 303.359375 30.339844 L 326.851562 69.222656 C 330.660156 75.523438 338.074219 78.832031 345.324219 77.445312 L 389.9375 68.886719 L 395.585938 113.960938 C 396.5 121.269531 401.933594 127.308594 409.113281 128.992188 L 453.355469 139.320312 L 440.179688 182.796875 C 438.058594 189.804688 440.519531 197.472656 446.308594 201.933594 L 481.65625 229.453125 Z M 452.808594 263.945312 " style=" stroke:none;fill-rule:nonzero;fill:#fff;fill-opacity:1;" />
<path d="M 257.566406 128.28125 C 187.265625 128.28125 130.070312 185.476562 130.070312 255.777344 C 130.070312 326.082031 187.265625 383.277344 257.566406 383.277344 C 327.867188 383.277344 385.0625 326.082031 385.0625 255.777344 C 385.0625 185.476562 327.867188 128.28125 257.566406 128.28125 Z M 257.566406 353.253906 C 203.816406 353.253906 160.089844 309.527344 160.089844 255.777344 C 160.089844 202.03125 203.816406 158.304688 257.566406 158.304688 C 311.316406 158.304688 355.042969 202.03125 355.042969 255.777344 C 355.042969 309.527344 311.316406 353.253906 257.566406 353.253906 Z M 257.566406 353.253906 " style=" stroke:none;fill-rule:nonzero;fill:#fff;fill-opacity:1;" />
<path d="M 303.097656 210.25 C 297.234375 204.386719 287.730469 204.386719 281.871094 210.25 L 257.566406 234.550781 L 233.261719 210.25 C 227.402344 204.386719 217.898438 204.386719 212.035156 210.25 C 206.171875 216.109375 206.171875 225.613281 212.035156 231.476562 L 236.339844 255.777344 L 212.035156 280.082031 C 206.171875 285.941406 206.171875 295.449219 212.035156 301.308594 C 214.964844 304.242188 218.808594 305.707031 222.648438 305.707031 C 226.488281 305.707031 230.332031 304.242188 233.261719 301.308594 L 257.566406 277.007812 L 281.867188 301.308594 C 284.800781 304.242188 288.640625 305.707031 292.480469 305.707031 C 296.320312 305.707031 300.164062 304.242188 303.09375 301.308594 C 308.957031 295.449219 308.957031 285.945312 303.09375 280.082031 L 278.792969 255.777344 L 303.09375 231.476562 C 308.960938 225.617188 308.960938 216.109375 303.097656 210.25 Z M 303.097656 210.25 " style=" stroke:none;fill-rule:nonzero;fill:#fff;fill-opacity:1;" />
</g>
</svg>