<?xml version="1.0" encoding="iso-8859-1"?>
<!-- Generator: Adobe Illustrator 19.0.0, SVG Export Plug-In . SVG Version: 6.00 Build 0)  -->
<svg version="1.1" id="Capa_1" xmlns="http://www.w3.org/2000/svg" xmlns:xlink="http://www.w3.org/1999/xlink" x="0px" y="0px"
	 viewBox="0 0 512 512" style="enable-background:new 0 0 512 512;" xml:space="preserve">
<g>
	<g>
		<path d="M496,208h-22.944C436.992,143.2,375.328,99.04,304,85.152V32c0-8.832-7.168-16-16-16h-64c-8.832,0-16,7.168-16,16v53.152
			C136.672,99.04,75.008,143.2,38.944,208H16c-8.832,0-16,7.168-16,16c0,8.832,7.168,16,16,16h16v176c0,44.128,35.872,80,80,80h288
			c44.128,0,80-35.872,80-80V240h16c8.832,0,16-7.168,16-16C512,215.168,504.832,208,496,208z M240,48h32v33.12
			c-5.344-0.352-10.592-1.12-16-1.12c-5.408,0-10.656,0.768-16,1.12V48z M256,112c73.248,0,139.904,36.288,179.904,96H76.096
			C116.096,148.288,182.752,112,256,112z M448,416c0,26.464-21.536,48-48,48H112c-26.464,0-48-21.536-48-48V240h384V416z" style="fill:#fff"/>
	</g>
</g>
<g>
</g>
<g>
</g>
<g>
</g>
<g>
</g>
<g>
</g>
<g>
</g>
<g>
</g>
<g>
</g>
<g>
</g>
<g>
</g>
<g>
</g>
<g>
</g>
<g>
</g>
<g>
</g>
<g>
</g>
</svg>
