<svg width="261" height="42" viewBox="0 0 261 42" fill="none" xmlns="http://www.w3.org/2000/svg">
<g clip-path="url(#clip0)">
<path d="M37.052 0H32.9332C32.7995 0.00294521 32.6683 0.0378113 32.5505 0.101746C32.4326 0.165681 32.3315 0.256867 32.2552 0.367846C32.0787 0.579951 31.979 0.846507 31.9727 1.1235V37.794H7.11322C6.66123 37.794 6.36461 37.6971 6.22053 37.5089C6.07646 37.3207 6.00019 36.8901 6.00019 36.2371V30.6567C6.00019 30.0037 6.07364 29.5788 6.22053 29.3849C6.36743 29.191 6.66123 29.0997 7.11322 29.0997H20.9216V32.4246C20.9198 32.5521 20.9439 32.6786 20.9925 32.7964C21.0411 32.9141 21.1131 33.0205 21.2041 33.109C21.2923 33.2 21.3979 33.2721 21.5143 33.3211C21.6308 33.3701 21.7559 33.3949 21.882 33.3941H25.9613C26.2157 33.3869 26.4578 33.2815 26.6375 33.0995C26.8172 32.9175 26.921 32.6729 26.9274 32.4161V21.6715C26.9541 20.5482 26.8325 19.4262 26.5658 18.3353C26.3663 17.5367 25.9653 16.8038 25.4019 16.208C24.8069 15.6407 24.0709 15.2466 23.2719 15.0674C22.2174 14.8196 21.1369 14.7019 20.0543 14.7167H1.74017C1.48665 14.7181 1.24396 14.8206 1.06501 15.0018C0.973459 15.0844 0.900783 15.1861 0.852006 15.2998C0.80323 15.4136 0.779517 15.5366 0.78251 15.6605V17.9104C0.773525 18.1802 0.868738 18.4429 1.04806 18.6432C1.1372 18.7394 1.24609 18.8148 1.3671 18.864C1.48812 18.9133 1.61834 18.9352 1.74864 18.9284H19.8283C20.2803 18.9284 20.5797 19.0253 20.7238 19.2135C20.8679 19.4017 20.9413 19.7838 20.9413 20.3855V23.3226C20.9413 23.9756 20.8707 24.3976 20.7238 24.5943C20.5769 24.7911 20.2803 24.8795 19.8283 24.8795H6.8731C5.79527 24.8645 4.7196 24.9813 3.66961 25.2274C2.86878 25.4038 2.13113 25.7982 1.53677 26.368C0.963686 26.9666 0.557324 27.7073 0.358768 28.5152C0.0954441 29.599 -0.0261207 30.713 -0.00282473 31.8286V35.0566C-0.0271109 36.1761 0.094461 37.2939 0.358768 38.3814C0.557671 39.1795 0.958757 39.9115 1.52265 40.5058C2.11802 41.0741 2.85525 41.4684 3.65548 41.6464C4.71007 41.8932 5.79072 42.0081 6.8731 41.9886H37.052C37.3074 41.9827 37.5506 41.8773 37.7307 41.6945C37.9108 41.5116 38.0138 41.2655 38.0181 41.0077V1.1235C38.0123 0.846419 37.9126 0.579715 37.7356 0.367846C37.6589 0.256094 37.5568 0.164431 37.4379 0.100459C37.319 0.0364859 37.1867 0.00204765 37.052 0V0ZM48.6343 0.367846C48.5572 0.255705 48.4547 0.163802 48.3353 0.0998101C48.2159 0.0358183 48.083 0.00159568 47.9478 0L43.8291 0C43.6958 0.00339082 43.5652 0.0384692 43.4479 0.102385C43.3306 0.166301 43.2298 0.257251 43.1539 0.367846C42.9761 0.579236 42.8763 0.84624 42.8714 1.1235V41.0191C42.8771 41.2765 42.9805 41.5218 43.1603 41.7043C43.3402 41.8869 43.5826 41.9928 43.8375 42H47.9563C48.0825 42.0008 48.2075 41.976 48.324 41.927C48.4405 41.878 48.546 41.8059 48.6343 41.7149C48.7253 41.6258 48.7973 41.5189 48.8459 41.4007C48.8945 41.2825 48.9186 41.1556 48.9168 41.0276V1.1235C48.9095 0.845177 48.8067 0.578051 48.6258 0.367846H48.6343Z" fill="#76AF61"/>
<path d="M79.4575 16.1596C78.8629 15.5917 78.1267 15.1974 77.3275 15.0189C76.2719 14.7724 75.1903 14.6574 74.107 14.6768H60.0586V1.1235C60.0537 0.84624 59.9539 0.579236 59.7761 0.367846C59.699 0.255705 59.5965 0.163802 59.4771 0.0998101C59.3577 0.0358183 59.2248 0.00159568 59.0896 0L54.9737 0C54.8399 0.00294521 54.7088 0.0378113 54.5909 0.101746C54.4731 0.165681 54.3719 0.256867 54.2957 0.367846C54.1191 0.579951 54.0194 0.846507 54.0132 1.1235V32.4161C54.0196 32.6734 54.1238 32.9184 54.3041 33.1005C54.4845 33.2825 54.7272 33.3876 54.9821 33.3941H59.0981C59.353 33.3876 59.5958 33.2825 59.7761 33.1005C59.9564 32.9184 60.0606 32.6734 60.067 32.4161V18.8742H73.8725C74.3245 18.8742 74.6212 18.9711 74.7681 19.1593C74.915 19.3475 74.9856 19.7753 74.9856 20.4283V36.1715C74.9856 36.8245 74.915 37.2494 74.7681 37.4433C74.6212 37.6372 74.3245 37.7284 73.8725 37.7284H54.7222V37.7684C54.5658 37.8151 54.4238 37.9014 54.3098 38.0193C54.2189 38.1078 54.1469 38.2142 54.0983 38.3319C54.0497 38.4496 54.0255 38.5761 54.0273 38.7037V40.9506C54.0322 41.1792 54.1145 41.3992 54.2604 41.5741C54.4064 41.7489 54.6072 41.868 54.8296 41.9116V41.9316H74.1127C75.1958 41.9503 76.2772 41.8363 77.3331 41.5922C78.132 41.4129 78.868 41.0188 79.4631 40.4516C80.0266 39.8575 80.4268 39.1253 80.6242 38.3273C80.8924 37.2394 81.0159 36.1203 80.9914 34.9995V21.5974C81.0157 20.4776 80.8922 19.3595 80.6242 18.2725C80.4235 17.4779 80.0214 16.7498 79.4575 16.1596ZM90.9126 14.7167H86.7938C86.6606 14.7201 86.53 14.7552 86.4127 14.8191C86.2953 14.883 86.1946 14.9739 86.1187 15.0845C85.9399 15.2964 85.8399 15.5647 85.8362 15.843V41.0191C85.8419 41.2765 85.9453 41.5218 86.1251 41.7043C86.305 41.8869 86.5474 41.9928 86.8023 42H90.9211C91.0473 42.0008 91.1723 41.976 91.2888 41.927C91.4053 41.878 91.5108 41.8059 91.5991 41.7149C91.6901 41.6258 91.7621 41.5189 91.8107 41.4007C91.8593 41.2825 91.8834 41.1556 91.8816 41.0276V15.843C91.8778 15.5647 91.7779 15.2964 91.5991 15.0845C91.522 14.9724 91.4195 14.8805 91.3001 14.8165C91.1807 14.7525 91.0478 14.7183 90.9126 14.7167ZM86.7938 6.0167H90.8618C91.1177 6.0109 91.3615 5.90568 91.5425 5.72297C91.7236 5.54025 91.8278 5.29411 91.8335 5.03578V0.978071C91.8343 0.850705 91.8097 0.72448 91.7612 0.606909C91.7127 0.489338 91.6412 0.382824 91.551 0.293706C91.4624 0.20236 91.3565 0.130018 91.2395 0.0810193C91.1225 0.0320202 90.9969 0.0073726 90.8702 0.00855455H86.8023C86.6765 0.00748598 86.5518 0.0322082 86.4358 0.0812233C86.3197 0.130238 86.2147 0.202526 86.1272 0.293706C86.0365 0.382423 85.9647 0.488861 85.9161 0.606525C85.8675 0.724189 85.8432 0.85061 85.8447 0.978071V5.03578C85.8504 5.29315 85.9538 5.53848 86.1336 5.72104C86.3134 5.90361 86.5559 6.00945 86.8108 6.0167H86.7938ZM121.592 38.0877C121.427 37.9175 121.205 37.8157 120.97 37.8026H104.806L121.419 16.3392C121.555 16.2006 121.646 16.0238 121.681 15.8321C121.716 15.6403 121.692 15.4424 121.614 15.2642C121.535 15.0889 121.404 14.9428 121.239 14.8462C121.074 14.7496 120.883 14.7074 120.693 14.7252H96.4834C96.2283 14.727 95.984 14.8293 95.8026 15.0104C95.711 15.093 95.6384 15.1947 95.5896 15.3084C95.5408 15.4221 95.5171 15.5452 95.5201 15.6691V17.9189C95.5117 18.1883 95.608 18.4503 95.7885 18.6489C95.8784 18.7449 95.9878 18.82 96.1092 18.8693C96.2307 18.9185 96.3612 18.9406 96.4919 18.9341H112.475L95.8082 40.4003C95.6728 40.5391 95.5818 40.7159 95.547 40.9076C95.5122 41.0992 95.5354 41.2971 95.6133 41.4753C95.6929 41.6506 95.8247 41.7964 95.9903 41.8925C96.1559 41.9886 96.347 42.0301 96.5371 42.0114H120.976C121.211 41.9972 121.432 41.8956 121.597 41.7263C121.687 41.6371 121.759 41.5306 121.807 41.4131C121.856 41.2955 121.88 41.1693 121.88 41.0419V38.7806C121.882 38.6513 121.857 38.523 121.807 38.4038C121.758 38.2845 121.684 38.1769 121.592 38.0877Z" fill="#171B1A"/>
</g>
<path d="M151.111 24V16.4238H148.281V15.4102H155.09V16.4238H152.248V24H151.111ZM156.127 24V15.4102H157.182V18.4922C157.674 17.9219 158.295 17.6367 159.045 17.6367C159.506 17.6367 159.906 17.7285 160.246 17.9121C160.586 18.0918 160.828 18.3418 160.973 18.6621C161.121 18.9824 161.195 19.4473 161.195 20.0566V24H160.141V20.0566C160.141 19.5293 160.025 19.1465 159.795 18.9082C159.568 18.666 159.246 18.5449 158.828 18.5449C158.516 18.5449 158.221 18.627 157.943 18.791C157.67 18.9512 157.475 19.1699 157.357 19.4473C157.24 19.7246 157.182 20.1074 157.182 20.5957V24H156.127ZM167.066 21.9961L168.156 22.1309C167.984 22.7676 167.666 23.2617 167.201 23.6133C166.736 23.9648 166.143 24.1406 165.42 24.1406C164.51 24.1406 163.787 23.8613 163.252 23.3027C162.721 22.7402 162.455 21.9531 162.455 20.9414C162.455 19.8945 162.725 19.082 163.264 18.5039C163.803 17.9258 164.502 17.6367 165.361 17.6367C166.193 17.6367 166.873 17.9199 167.4 18.4863C167.928 19.0527 168.191 19.8496 168.191 20.877C168.191 20.9395 168.189 21.0332 168.186 21.1582H163.545C163.584 21.8418 163.777 22.3652 164.125 22.7285C164.473 23.0918 164.906 23.2734 165.426 23.2734C165.812 23.2734 166.143 23.1719 166.416 22.9688C166.689 22.7656 166.906 22.4414 167.066 21.9961ZM163.604 20.291H167.078C167.031 19.7676 166.898 19.375 166.68 19.1133C166.344 18.707 165.908 18.5039 165.373 18.5039C164.889 18.5039 164.48 18.666 164.148 18.9902C163.82 19.3145 163.639 19.748 163.604 20.291ZM172.914 24V15.4102H176.137C176.793 15.4102 177.318 15.498 177.713 15.6738C178.111 15.8457 178.422 16.1133 178.645 16.4766C178.871 16.8359 178.984 17.2129 178.984 17.6074C178.984 17.9746 178.885 18.3203 178.686 18.6445C178.486 18.9688 178.186 19.2305 177.783 19.4297C178.303 19.582 178.701 19.8418 178.979 20.209C179.26 20.5762 179.4 21.0098 179.4 21.5098C179.4 21.9121 179.314 22.2871 179.143 22.6348C178.975 22.9785 178.766 23.2441 178.516 23.4316C178.266 23.6191 177.951 23.7617 177.572 23.8594C177.197 23.9531 176.736 24 176.189 24H172.914ZM174.051 19.0195H175.908C176.412 19.0195 176.773 18.9863 176.992 18.9199C177.281 18.834 177.498 18.6914 177.643 18.4922C177.791 18.293 177.865 18.043 177.865 17.7422C177.865 17.457 177.797 17.207 177.66 16.9922C177.523 16.7734 177.328 16.625 177.074 16.5469C176.82 16.4648 176.385 16.4238 175.768 16.4238H174.051V19.0195ZM174.051 22.9863H176.189C176.557 22.9863 176.814 22.9727 176.963 22.9453C177.225 22.8984 177.443 22.8203 177.619 22.7109C177.795 22.6016 177.939 22.4434 178.053 22.2363C178.166 22.0254 178.223 21.7832 178.223 21.5098C178.223 21.1895 178.141 20.9121 177.977 20.6777C177.812 20.4395 177.584 20.2734 177.291 20.1797C177.002 20.082 176.584 20.0332 176.037 20.0332H174.051V22.9863ZM185.09 21.9961L186.18 22.1309C186.008 22.7676 185.689 23.2617 185.225 23.6133C184.76 23.9648 184.166 24.1406 183.443 24.1406C182.533 24.1406 181.811 23.8613 181.275 23.3027C180.744 22.7402 180.479 21.9531 180.479 20.9414C180.479 19.8945 180.748 19.082 181.287 18.5039C181.826 17.9258 182.525 17.6367 183.385 17.6367C184.217 17.6367 184.896 17.9199 185.424 18.4863C185.951 19.0527 186.215 19.8496 186.215 20.877C186.215 20.9395 186.213 21.0332 186.209 21.1582H181.568C181.607 21.8418 181.801 22.3652 182.148 22.7285C182.496 23.0918 182.93 23.2734 183.449 23.2734C183.836 23.2734 184.166 23.1719 184.439 22.9688C184.713 22.7656 184.93 22.4414 185.09 21.9961ZM181.627 20.291H185.102C185.055 19.7676 184.922 19.375 184.703 19.1133C184.367 18.707 183.932 18.5039 183.396 18.5039C182.912 18.5039 182.504 18.666 182.172 18.9902C181.844 19.3145 181.662 19.748 181.627 20.291ZM187.486 24V15.4102H188.541V24H187.486ZM190.158 24V15.4102H191.213V24H190.158ZM200.254 23.2324C199.863 23.5645 199.486 23.7988 199.123 23.9355C198.764 24.0723 198.377 24.1406 197.963 24.1406C197.279 24.1406 196.754 23.9746 196.387 23.6426C196.02 23.3066 195.836 22.8789 195.836 22.3594C195.836 22.0547 195.904 21.7773 196.041 21.5273C196.182 21.2734 196.363 21.0703 196.586 20.918C196.812 20.7656 197.066 20.6504 197.348 20.5723C197.555 20.5176 197.867 20.4648 198.285 20.4141C199.137 20.3125 199.764 20.1914 200.166 20.0508C200.17 19.9062 200.172 19.8145 200.172 19.7754C200.172 19.3457 200.072 19.043 199.873 18.8672C199.604 18.6289 199.203 18.5098 198.672 18.5098C198.176 18.5098 197.809 18.5977 197.57 18.7734C197.336 18.9453 197.162 19.252 197.049 19.6934L196.018 19.5527C196.111 19.1113 196.266 18.7559 196.48 18.4863C196.695 18.2129 197.006 18.0039 197.412 17.8594C197.818 17.7109 198.289 17.6367 198.824 17.6367C199.355 17.6367 199.787 17.6992 200.119 17.8242C200.451 17.9492 200.695 18.1074 200.852 18.2988C201.008 18.4863 201.117 18.7246 201.18 19.0137C201.215 19.1934 201.232 19.5176 201.232 19.9863V21.3926C201.232 22.373 201.254 22.9941 201.297 23.2559C201.344 23.5137 201.434 23.7617 201.566 24H200.465C200.355 23.7812 200.285 23.5254 200.254 23.2324ZM200.166 20.877C199.783 21.0332 199.209 21.166 198.443 21.2754C198.01 21.3379 197.703 21.4082 197.523 21.4863C197.344 21.5645 197.205 21.6797 197.107 21.832C197.01 21.9805 196.961 22.1465 196.961 22.3301C196.961 22.6113 197.066 22.8457 197.277 23.0332C197.492 23.2207 197.805 23.3145 198.215 23.3145C198.621 23.3145 198.982 23.2266 199.299 23.0508C199.615 22.8711 199.848 22.627 199.996 22.3184C200.109 22.0801 200.166 21.7285 200.166 21.2637V20.877ZM202.873 24V17.7773H203.822V18.6621C204.279 17.9785 204.939 17.6367 205.803 17.6367C206.178 17.6367 206.521 17.7051 206.834 17.8418C207.15 17.9746 207.387 18.1504 207.543 18.3691C207.699 18.5879 207.809 18.8477 207.871 19.1484C207.91 19.3438 207.93 19.6855 207.93 20.1738V24H206.875V20.2148C206.875 19.7852 206.834 19.4648 206.752 19.2539C206.67 19.0391 206.523 18.8691 206.312 18.7441C206.105 18.6152 205.861 18.5508 205.58 18.5508C205.131 18.5508 204.742 18.6934 204.414 18.9785C204.09 19.2637 203.928 19.8047 203.928 20.6016V24H202.873ZM213.59 24V23.2148C213.195 23.832 212.615 24.1406 211.85 24.1406C211.354 24.1406 210.896 24.0039 210.479 23.7305C210.064 23.457 209.742 23.0762 209.512 22.5879C209.285 22.0957 209.172 21.5312 209.172 20.8945C209.172 20.2734 209.275 19.7109 209.482 19.207C209.689 18.6992 210 18.3105 210.414 18.041C210.828 17.7715 211.291 17.6367 211.803 17.6367C212.178 17.6367 212.512 17.7168 212.805 17.877C213.098 18.0332 213.336 18.2383 213.52 18.4922V15.4102H214.568V24H213.59ZM210.256 20.8945C210.256 21.6914 210.424 22.2871 210.76 22.6816C211.096 23.0762 211.492 23.2734 211.949 23.2734C212.41 23.2734 212.801 23.0859 213.121 22.7109C213.445 22.332 213.607 21.7559 213.607 20.9824C213.607 20.1309 213.443 19.5059 213.115 19.1074C212.787 18.709 212.383 18.5098 211.902 18.5098C211.434 18.5098 211.041 18.7012 210.725 19.084C210.412 19.4668 210.256 20.0703 210.256 20.8945ZM219.725 24V15.4102H223.533C224.299 15.4102 224.881 15.4883 225.279 15.6445C225.678 15.7969 225.996 16.0684 226.234 16.459C226.473 16.8496 226.592 17.2812 226.592 17.7539C226.592 18.3633 226.395 18.877 226 19.2949C225.605 19.7129 224.996 19.9785 224.172 20.0918C224.473 20.2363 224.701 20.3789 224.857 20.5195C225.189 20.8242 225.504 21.2051 225.801 21.6621L227.295 24H225.865L224.729 22.2129C224.396 21.6973 224.123 21.3027 223.908 21.0293C223.693 20.7559 223.5 20.5645 223.328 20.4551C223.16 20.3457 222.988 20.2695 222.812 20.2266C222.684 20.1992 222.473 20.1855 222.18 20.1855H220.861V24H219.725ZM220.861 19.2012H223.305C223.824 19.2012 224.23 19.1484 224.523 19.043C224.816 18.9336 225.039 18.7617 225.191 18.5273C225.344 18.2891 225.42 18.0312 225.42 17.7539C225.42 17.3477 225.271 17.0137 224.975 16.752C224.682 16.4902 224.217 16.3594 223.58 16.3594H220.861V19.2012ZM227.852 20.8887C227.852 19.7363 228.172 18.8828 228.812 18.3281C229.348 17.8672 230 17.6367 230.77 17.6367C231.625 17.6367 232.324 17.918 232.867 18.4805C233.41 19.0391 233.682 19.8125 233.682 20.8008C233.682 21.6016 233.561 22.2324 233.318 22.6934C233.08 23.1504 232.73 23.5059 232.27 23.7598C231.812 24.0137 231.312 24.1406 230.77 24.1406C229.898 24.1406 229.193 23.8613 228.654 23.3027C228.119 22.7441 227.852 21.9395 227.852 20.8887ZM228.936 20.8887C228.936 21.6855 229.109 22.2832 229.457 22.6816C229.805 23.0762 230.242 23.2734 230.77 23.2734C231.293 23.2734 231.729 23.0742 232.076 22.6758C232.424 22.2773 232.598 21.6699 232.598 20.8535C232.598 20.084 232.422 19.502 232.07 19.1074C231.723 18.709 231.289 18.5098 230.77 18.5098C230.242 18.5098 229.805 18.707 229.457 19.1016C229.109 19.4961 228.936 20.0918 228.936 20.8887ZM238.984 23.2324C238.594 23.5645 238.217 23.7988 237.854 23.9355C237.494 24.0723 237.107 24.1406 236.693 24.1406C236.01 24.1406 235.484 23.9746 235.117 23.6426C234.75 23.3066 234.566 22.8789 234.566 22.3594C234.566 22.0547 234.635 21.7773 234.771 21.5273C234.912 21.2734 235.094 21.0703 235.316 20.918C235.543 20.7656 235.797 20.6504 236.078 20.5723C236.285 20.5176 236.598 20.4648 237.016 20.4141C237.867 20.3125 238.494 20.1914 238.896 20.0508C238.9 19.9062 238.902 19.8145 238.902 19.7754C238.902 19.3457 238.803 19.043 238.604 18.8672C238.334 18.6289 237.934 18.5098 237.402 18.5098C236.906 18.5098 236.539 18.5977 236.301 18.7734C236.066 18.9453 235.893 19.252 235.779 19.6934L234.748 19.5527C234.842 19.1113 234.996 18.7559 235.211 18.4863C235.426 18.2129 235.736 18.0039 236.143 17.8594C236.549 17.7109 237.02 17.6367 237.555 17.6367C238.086 17.6367 238.518 17.6992 238.85 17.8242C239.182 17.9492 239.426 18.1074 239.582 18.2988C239.738 18.4863 239.848 18.7246 239.91 19.0137C239.945 19.1934 239.963 19.5176 239.963 19.9863V21.3926C239.963 22.373 239.984 22.9941 240.027 23.2559C240.074 23.5137 240.164 23.7617 240.297 24H239.195C239.086 23.7812 239.016 23.5254 238.984 23.2324ZM238.896 20.877C238.514 21.0332 237.939 21.166 237.174 21.2754C236.74 21.3379 236.434 21.4082 236.254 21.4863C236.074 21.5645 235.936 21.6797 235.838 21.832C235.74 21.9805 235.691 22.1465 235.691 22.3301C235.691 22.6113 235.797 22.8457 236.008 23.0332C236.223 23.2207 236.535 23.3145 236.945 23.3145C237.352 23.3145 237.713 23.2266 238.029 23.0508C238.346 22.8711 238.578 22.627 238.727 22.3184C238.84 22.0801 238.896 21.7285 238.896 21.2637V20.877ZM245.641 24V23.2148C245.246 23.832 244.666 24.1406 243.9 24.1406C243.404 24.1406 242.947 24.0039 242.529 23.7305C242.115 23.457 241.793 23.0762 241.562 22.5879C241.336 22.0957 241.223 21.5312 241.223 20.8945C241.223 20.2734 241.326 19.7109 241.533 19.207C241.74 18.6992 242.051 18.3105 242.465 18.041C242.879 17.7715 243.342 17.6367 243.854 17.6367C244.229 17.6367 244.562 17.7168 244.855 17.877C245.148 18.0332 245.387 18.2383 245.57 18.4922V15.4102H246.619V24H245.641ZM242.307 20.8945C242.307 21.6914 242.475 22.2871 242.811 22.6816C243.146 23.0762 243.543 23.2734 244 23.2734C244.461 23.2734 244.852 23.0859 245.172 22.7109C245.496 22.332 245.658 21.7559 245.658 20.9824C245.658 20.1309 245.494 19.5059 245.166 19.1074C244.838 18.709 244.434 18.5098 243.953 18.5098C243.484 18.5098 243.092 18.7012 242.775 19.084C242.463 19.4668 242.307 20.0703 242.307 20.8945ZM148.797 30.623V29.4102H149.852V30.623H148.797ZM148.797 38V31.7773H149.852V38H148.797ZM151.463 38V31.7773H152.412V32.6621C152.869 31.9785 153.529 31.6367 154.393 31.6367C154.768 31.6367 155.111 31.7051 155.424 31.8418C155.74 31.9746 155.977 32.1504 156.133 32.3691C156.289 32.5879 156.398 32.8477 156.461 33.1484C156.5 33.3438 156.52 33.6855 156.52 34.1738V38H155.465V34.2148C155.465 33.7852 155.424 33.4648 155.342 33.2539C155.26 33.0391 155.113 32.8691 154.902 32.7441C154.695 32.6152 154.451 32.5508 154.17 32.5508C153.721 32.5508 153.332 32.6934 153.004 32.9785C152.68 33.2637 152.518 33.8047 152.518 34.6016V38H151.463ZM158.148 30.623V29.4102H159.203V30.623H158.148ZM158.148 38V31.7773H159.203V38H158.148ZM163.117 37.0566L163.27 37.9883C162.973 38.0508 162.707 38.082 162.473 38.082C162.09 38.082 161.793 38.0215 161.582 37.9004C161.371 37.7793 161.223 37.6211 161.137 37.4258C161.051 37.2266 161.008 36.8105 161.008 36.1777V32.5977H160.234V31.7773H161.008V30.2363L162.057 29.6035V31.7773H163.117V32.5977H162.057V36.2363C162.057 36.5371 162.074 36.7305 162.109 36.8164C162.148 36.9023 162.209 36.9707 162.291 37.0215C162.377 37.0723 162.498 37.0977 162.654 37.0977C162.771 37.0977 162.926 37.084 163.117 37.0566ZM164.16 30.623V29.4102H165.215V30.623H164.16ZM164.16 38V31.7773H165.215V38H164.16ZM170.887 37.2324C170.496 37.5645 170.119 37.7988 169.756 37.9355C169.396 38.0723 169.01 38.1406 168.596 38.1406C167.912 38.1406 167.387 37.9746 167.02 37.6426C166.652 37.3066 166.469 36.8789 166.469 36.3594C166.469 36.0547 166.537 35.7773 166.674 35.5273C166.814 35.2734 166.996 35.0703 167.219 34.918C167.445 34.7656 167.699 34.6504 167.98 34.5723C168.188 34.5176 168.5 34.4648 168.918 34.4141C169.77 34.3125 170.396 34.1914 170.799 34.0508C170.803 33.9062 170.805 33.8145 170.805 33.7754C170.805 33.3457 170.705 33.043 170.506 32.8672C170.236 32.6289 169.836 32.5098 169.305 32.5098C168.809 32.5098 168.441 32.5977 168.203 32.7734C167.969 32.9453 167.795 33.252 167.682 33.6934L166.65 33.5527C166.744 33.1113 166.898 32.7559 167.113 32.4863C167.328 32.2129 167.639 32.0039 168.045 31.8594C168.451 31.7109 168.922 31.6367 169.457 31.6367C169.988 31.6367 170.42 31.6992 170.752 31.8242C171.084 31.9492 171.328 32.1074 171.484 32.2988C171.641 32.4863 171.75 32.7246 171.812 33.0137C171.848 33.1934 171.865 33.5176 171.865 33.9863V35.3926C171.865 36.373 171.887 36.9941 171.93 37.2559C171.977 37.5137 172.066 37.7617 172.199 38H171.098C170.988 37.7812 170.918 37.5254 170.887 37.2324ZM170.799 34.877C170.416 35.0332 169.842 35.166 169.076 35.2754C168.643 35.3379 168.336 35.4082 168.156 35.4863C167.977 35.5645 167.838 35.6797 167.74 35.832C167.643 35.9805 167.594 36.1465 167.594 36.3301C167.594 36.6113 167.699 36.8457 167.91 37.0332C168.125 37.2207 168.438 37.3145 168.848 37.3145C169.254 37.3145 169.615 37.2266 169.932 37.0508C170.248 36.8711 170.48 36.627 170.629 36.3184C170.742 36.0801 170.799 35.7285 170.799 35.2637V34.877ZM175.809 37.0566L175.961 37.9883C175.664 38.0508 175.398 38.082 175.164 38.082C174.781 38.082 174.484 38.0215 174.273 37.9004C174.062 37.7793 173.914 37.6211 173.828 37.4258C173.742 37.2266 173.699 36.8105 173.699 36.1777V32.5977H172.926V31.7773H173.699V30.2363L174.748 29.6035V31.7773H175.809V32.5977H174.748V36.2363C174.748 36.5371 174.766 36.7305 174.801 36.8164C174.84 36.9023 174.9 36.9707 174.982 37.0215C175.068 37.0723 175.189 37.0977 175.346 37.0977C175.463 37.0977 175.617 37.084 175.809 37.0566ZM176.852 30.623V29.4102H177.906V30.623H176.852ZM176.852 38V31.7773H177.906V38H176.852ZM181.246 38L178.879 31.7773H179.992L181.328 35.5039C181.473 35.9062 181.605 36.3242 181.727 36.7578C181.82 36.4297 181.951 36.0352 182.119 35.5742L183.502 31.7773H184.586L182.23 38H181.246ZM189.777 35.9961L190.867 36.1309C190.695 36.7676 190.377 37.2617 189.912 37.6133C189.447 37.9648 188.854 38.1406 188.131 38.1406C187.221 38.1406 186.498 37.8613 185.963 37.3027C185.432 36.7402 185.166 35.9531 185.166 34.9414C185.166 33.8945 185.436 33.082 185.975 32.5039C186.514 31.9258 187.213 31.6367 188.072 31.6367C188.904 31.6367 189.584 31.9199 190.111 32.4863C190.639 33.0527 190.902 33.8496 190.902 34.877C190.902 34.9395 190.9 35.0332 190.896 35.1582H186.256C186.295 35.8418 186.488 36.3652 186.836 36.7285C187.184 37.0918 187.617 37.2734 188.137 37.2734C188.523 37.2734 188.854 37.1719 189.127 36.9688C189.4 36.7656 189.617 36.4414 189.777 35.9961ZM186.314 34.291H189.789C189.742 33.7676 189.609 33.375 189.391 33.1133C189.055 32.707 188.619 32.5039 188.084 32.5039C187.6 32.5039 187.191 32.666 186.859 32.9902C186.531 33.3145 186.35 33.748 186.314 34.291ZM195.637 38V29.4102H197.348L199.381 35.4922C199.568 36.0586 199.705 36.4824 199.791 36.7637C199.889 36.4512 200.041 35.9922 200.248 35.3867L202.305 29.4102H203.834V38H202.738V30.8105L200.242 38H199.217L196.732 30.6875V38H195.637ZM209.594 37.2324C209.203 37.5645 208.826 37.7988 208.463 37.9355C208.104 38.0723 207.717 38.1406 207.303 38.1406C206.619 38.1406 206.094 37.9746 205.727 37.6426C205.359 37.3066 205.176 36.8789 205.176 36.3594C205.176 36.0547 205.244 35.7773 205.381 35.5273C205.521 35.2734 205.703 35.0703 205.926 34.918C206.152 34.7656 206.406 34.6504 206.688 34.5723C206.895 34.5176 207.207 34.4648 207.625 34.4141C208.477 34.3125 209.104 34.1914 209.506 34.0508C209.51 33.9062 209.512 33.8145 209.512 33.7754C209.512 33.3457 209.412 33.043 209.213 32.8672C208.943 32.6289 208.543 32.5098 208.012 32.5098C207.516 32.5098 207.148 32.5977 206.91 32.7734C206.676 32.9453 206.502 33.252 206.389 33.6934L205.357 33.5527C205.451 33.1113 205.605 32.7559 205.82 32.4863C206.035 32.2129 206.346 32.0039 206.752 31.8594C207.158 31.7109 207.629 31.6367 208.164 31.6367C208.695 31.6367 209.127 31.6992 209.459 31.8242C209.791 31.9492 210.035 32.1074 210.191 32.2988C210.348 32.4863 210.457 32.7246 210.52 33.0137C210.555 33.1934 210.572 33.5176 210.572 33.9863V35.3926C210.572 36.373 210.594 36.9941 210.637 37.2559C210.684 37.5137 210.773 37.7617 210.906 38H209.805C209.695 37.7812 209.625 37.5254 209.594 37.2324ZM209.506 34.877C209.123 35.0332 208.549 35.166 207.783 35.2754C207.35 35.3379 207.043 35.4082 206.863 35.4863C206.684 35.5645 206.545 35.6797 206.447 35.832C206.35 35.9805 206.301 36.1465 206.301 36.3301C206.301 36.6113 206.406 36.8457 206.617 37.0332C206.832 37.2207 207.145 37.3145 207.555 37.3145C207.961 37.3145 208.322 37.2266 208.639 37.0508C208.955 36.8711 209.188 36.627 209.336 36.3184C209.449 36.0801 209.506 35.7285 209.506 35.2637V34.877ZM212.201 38V31.7773H213.15V32.7207C213.393 32.2793 213.615 31.9883 213.818 31.8477C214.025 31.707 214.252 31.6367 214.498 31.6367C214.854 31.6367 215.215 31.75 215.582 31.9766L215.219 32.9551C214.961 32.8027 214.703 32.7266 214.445 32.7266C214.215 32.7266 214.008 32.7969 213.824 32.9375C213.641 33.0742 213.51 33.2656 213.432 33.5117C213.314 33.8867 213.256 34.2969 213.256 34.7422V38H212.201ZM216.215 38V29.4102H217.27V34.3086L219.766 31.7773H221.131L218.752 34.0859L221.371 38H220.07L218.014 34.8184L217.27 35.5332V38H216.215ZM226.469 35.9961L227.559 36.1309C227.387 36.7676 227.068 37.2617 226.604 37.6133C226.139 37.9648 225.545 38.1406 224.822 38.1406C223.912 38.1406 223.189 37.8613 222.654 37.3027C222.123 36.7402 221.857 35.9531 221.857 34.9414C221.857 33.8945 222.127 33.082 222.666 32.5039C223.205 31.9258 223.904 31.6367 224.764 31.6367C225.596 31.6367 226.275 31.9199 226.803 32.4863C227.33 33.0527 227.594 33.8496 227.594 34.877C227.594 34.9395 227.592 35.0332 227.588 35.1582H222.947C222.986 35.8418 223.18 36.3652 223.527 36.7285C223.875 37.0918 224.309 37.2734 224.828 37.2734C225.215 37.2734 225.545 37.1719 225.818 36.9688C226.092 36.7656 226.309 36.4414 226.469 35.9961ZM223.006 34.291H226.48C226.434 33.7676 226.301 33.375 226.082 33.1133C225.746 32.707 225.311 32.5039 224.775 32.5039C224.291 32.5039 223.883 32.666 223.551 32.9902C223.223 33.3145 223.041 33.748 223.006 34.291ZM231.191 37.0566L231.344 37.9883C231.047 38.0508 230.781 38.082 230.547 38.082C230.164 38.082 229.867 38.0215 229.656 37.9004C229.445 37.7793 229.297 37.6211 229.211 37.4258C229.125 37.2266 229.082 36.8105 229.082 36.1777V32.5977H228.309V31.7773H229.082V30.2363L230.131 29.6035V31.7773H231.191V32.5977H230.131V36.2363C230.131 36.5371 230.148 36.7305 230.184 36.8164C230.223 36.9023 230.283 36.9707 230.365 37.0215C230.451 37.0723 230.572 37.0977 230.729 37.0977C230.846 37.0977 231 37.084 231.191 37.0566ZM232.229 40.3848V31.7773H233.189V32.5859C233.416 32.2695 233.672 32.0332 233.957 31.877C234.242 31.7168 234.588 31.6367 234.994 31.6367C235.525 31.6367 235.994 31.7734 236.4 32.0469C236.807 32.3203 237.113 32.707 237.32 33.207C237.527 33.7031 237.631 34.248 237.631 34.8418C237.631 35.4785 237.516 36.0527 237.285 36.5645C237.059 37.0723 236.727 37.4629 236.289 37.7363C235.855 38.0059 235.398 38.1406 234.918 38.1406C234.566 38.1406 234.25 38.0664 233.969 37.918C233.691 37.7695 233.463 37.582 233.283 37.3555V40.3848H232.229ZM233.184 34.9238C233.184 35.7246 233.346 36.3164 233.67 36.6992C233.994 37.082 234.387 37.2734 234.848 37.2734C235.316 37.2734 235.717 37.0762 236.049 36.6816C236.385 36.2832 236.553 35.668 236.553 34.8359C236.553 34.043 236.389 33.4492 236.061 33.0547C235.736 32.6602 235.348 32.4629 234.895 32.4629C234.445 32.4629 234.047 32.6738 233.699 33.0957C233.355 33.5137 233.184 34.123 233.184 34.9238ZM238.885 38V29.4102H239.939V38H238.885ZM245.641 37.2324C245.25 37.5645 244.873 37.7988 244.51 37.9355C244.15 38.0723 243.764 38.1406 243.35 38.1406C242.666 38.1406 242.141 37.9746 241.773 37.6426C241.406 37.3066 241.223 36.8789 241.223 36.3594C241.223 36.0547 241.291 35.7773 241.428 35.5273C241.568 35.2734 241.75 35.0703 241.973 34.918C242.199 34.7656 242.453 34.6504 242.734 34.5723C242.941 34.5176 243.254 34.4648 243.672 34.4141C244.523 34.3125 245.15 34.1914 245.553 34.0508C245.557 33.9062 245.559 33.8145 245.559 33.7754C245.559 33.3457 245.459 33.043 245.26 32.8672C244.99 32.6289 244.59 32.5098 244.059 32.5098C243.562 32.5098 243.195 32.5977 242.957 32.7734C242.723 32.9453 242.549 33.252 242.436 33.6934L241.404 33.5527C241.498 33.1113 241.652 32.7559 241.867 32.4863C242.082 32.2129 242.393 32.0039 242.799 31.8594C243.205 31.7109 243.676 31.6367 244.211 31.6367C244.742 31.6367 245.174 31.6992 245.506 31.8242C245.838 31.9492 246.082 32.1074 246.238 32.2988C246.395 32.4863 246.504 32.7246 246.566 33.0137C246.602 33.1934 246.619 33.5176 246.619 33.9863V35.3926C246.619 36.373 246.641 36.9941 246.684 37.2559C246.73 37.5137 246.82 37.7617 246.953 38H245.852C245.742 37.7812 245.672 37.5254 245.641 37.2324ZM245.553 34.877C245.17 35.0332 244.596 35.166 243.83 35.2754C243.396 35.3379 243.09 35.4082 242.91 35.4863C242.73 35.5645 242.592 35.6797 242.494 35.832C242.396 35.9805 242.348 36.1465 242.348 36.3301C242.348 36.6113 242.453 36.8457 242.664 37.0332C242.879 37.2207 243.191 37.3145 243.602 37.3145C244.008 37.3145 244.369 37.2266 244.686 37.0508C245.002 36.8711 245.234 36.627 245.383 36.3184C245.496 36.0801 245.553 35.7285 245.553 35.2637V34.877ZM252.32 35.7207L253.357 35.8555C253.244 36.5703 252.953 37.1309 252.484 37.5371C252.02 37.9395 251.447 38.1406 250.768 38.1406C249.916 38.1406 249.23 37.8633 248.711 37.3086C248.195 36.75 247.938 35.9512 247.938 34.9121C247.938 34.2402 248.049 33.6523 248.271 33.1484C248.494 32.6445 248.832 32.2676 249.285 32.0176C249.742 31.7637 250.238 31.6367 250.773 31.6367C251.449 31.6367 252.002 31.8086 252.432 32.1523C252.861 32.4922 253.137 32.9766 253.258 33.6055L252.232 33.7637C252.135 33.3457 251.961 33.0312 251.711 32.8203C251.465 32.6094 251.166 32.5039 250.814 32.5039C250.283 32.5039 249.852 32.6953 249.52 33.0781C249.188 33.457 249.021 34.0586 249.021 34.8828C249.021 35.7188 249.182 36.3262 249.502 36.7051C249.822 37.084 250.24 37.2734 250.756 37.2734C251.17 37.2734 251.516 37.1465 251.793 36.8926C252.07 36.6387 252.246 36.248 252.32 35.7207ZM258.52 35.9961L259.609 36.1309C259.438 36.7676 259.119 37.2617 258.654 37.6133C258.189 37.9648 257.596 38.1406 256.873 38.1406C255.963 38.1406 255.24 37.8613 254.705 37.3027C254.174 36.7402 253.908 35.9531 253.908 34.9414C253.908 33.8945 254.178 33.082 254.717 32.5039C255.256 31.9258 255.955 31.6367 256.814 31.6367C257.646 31.6367 258.326 31.9199 258.854 32.4863C259.381 33.0527 259.645 33.8496 259.645 34.877C259.645 34.9395 259.643 35.0332 259.639 35.1582H254.998C255.037 35.8418 255.23 36.3652 255.578 36.7285C255.926 37.0918 256.359 37.2734 256.879 37.2734C257.266 37.2734 257.596 37.1719 257.869 36.9688C258.143 36.7656 258.359 36.4414 258.52 35.9961ZM255.057 34.291H258.531C258.484 33.7676 258.352 33.375 258.133 33.1133C257.797 32.707 257.361 32.5039 256.826 32.5039C256.342 32.5039 255.934 32.666 255.602 32.9902C255.273 33.3145 255.092 33.748 255.057 34.291Z" fill="#212121"/>
<defs>
<clipPath id="clip0">
<rect width="121.882" height="42" fill="white"/>
</clipPath>
</defs>
</svg>
