<svg width="17" height="17" viewBox="0 0 17 17" fill="none" xmlns="http://www.w3.org/2000/svg">
<g clip-path="url(#clip0)">
<path d="M13.6362 16.9999H10.8029C10.5097 16.9999 10.2717 16.762 10.2717 16.4687V11.8646C10.2717 11.7668 10.1923 11.6876 10.0945 11.6876H6.90708C6.80942 11.6876 6.73005 11.7668 6.73005 11.8646V16.4687C6.73005 16.762 6.49205 16.9999 6.19881 16.9999H3.36558C2.68207 16.9999 2.12593 16.4439 2.12593 15.7603V9.2084H0.886418C0.398368 9.2084 0.000976562 8.81101 0.000976562 8.32296C0.000976562 8.08859 0.0966929 7.85903 0.263094 7.69263L8.13324 0.147635C8.33868 -0.0493745 8.66305 -0.0493745 8.86849 0.147635L16.7309 7.68407C16.905 7.85903 17.0006 8.08859 17.0006 8.32296C17.0006 8.81101 16.6034 9.2084 16.1153 9.2084H14.8757V15.7603C14.8757 16.4439 14.3197 16.9999 13.6362 16.9999ZM11.3342 15.9375H13.6362C13.7325 15.9375 13.8132 15.8567 13.8132 15.7603V8.67716C13.8132 8.38391 14.0512 8.14592 14.3444 8.14592H15.6768L8.5008 1.26744L1.32492 8.14592H2.65717C2.95042 8.14592 3.18841 8.38391 3.18841 8.67716V15.7603C3.18841 15.8567 3.26921 15.9375 3.36558 15.9375H5.66757V11.8646C5.66757 11.1811 6.22358 10.6251 6.90708 10.6251H10.0945C10.7781 10.6251 11.3342 11.1811 11.3342 11.8646V15.9375Z" fill="#454B50"/>
</g>
<defs>
<clipPath id="clip0">
<rect width="17" height="17" fill="white"/>
</clipPath>
</defs>
</svg>
