<svg width="16" height="16" viewBox="0 0 16 16" fill="none" xmlns="http://www.w3.org/2000/svg">
<path d="M12.3249 10.4219L14.278 11.6375C14.378 11.6938 14.403 11.7969 14.3593 11.875L13.5186 13.3438C13.0499 14.1625 12.0311 14.675 11.1905 14.3C6.21864 12.0875 3.75614 9.65626 1.69989 4.80939C1.34052 3.96251 1.83739 2.95001 2.65614 2.48126L4.12489 1.64064C4.17489 1.61251 4.29989 1.58126 4.34989 1.70314L5.58739 3.69376C5.61864 3.75001 5.59677 3.85001 5.52177 3.89689L5.09052 4.17189C4.50302 4.54689 4.26552 5.28439 4.52489 5.92189C5.09677 7.33126 6.78739 9.10939 6.85927 9.18439C6.95302 9.27501 8.68427 10.9188 10.0811 11.4781C10.7186 11.7344 11.4499 11.4938 11.8249 10.9094L12.0999 10.475C12.1343 10.425 12.2343 10.3656 12.3249 10.4219ZM11.7343 15.6563C12.8936 15.6563 14.0218 15.0313 14.6249 13.9781L15.4655 12.5094C15.8593 11.8188 15.6218 10.9375 14.9311 10.5406L12.978 9.32501C12.2905 8.93126 11.4405 9.13751 11.0249 9.79064L10.7499 10.225C10.7061 10.2906 10.6249 10.3219 10.5593 10.2938C9.39364 9.82814 7.78114 8.29689 7.76552 8.28439C7.76552 8.28439 6.19052 6.62501 5.71239 5.44376C5.68427 5.37501 5.71552 5.29376 5.78114 5.25001L6.21239 4.97501C6.86239 4.55939 7.07177 3.71251 6.68739 3.04064L5.44989 1.04689C5.26864 0.734389 4.50614 1.35601e-05 3.49052 0.531264L2.02177 1.37189C0.693641 2.13439 0.0436401 3.73439 0.478015 5.17501C1.19364 7.55314 2.54052 9.68439 4.48114 11.5156C6.31239 13.4531 8.44364 14.8 10.8218 15.5188C11.1218 15.6125 11.428 15.6563 11.7343 15.6563Z" fill="#272A2F"/>
<path d="M14.5187 6.85314C14.8719 6.85314 15.1562 6.56876 15.1562 6.21564C15.1562 3.25314 12.7469 0.840637 9.78438 0.840637C9.43125 0.840637 9.14687 1.12501 9.14687 1.47814C9.14687 1.83126 9.43125 2.11564 9.78438 2.11564C12.0438 2.11564 13.8812 3.95314 13.8812 6.21251C13.8812 6.56876 14.1656 6.85314 14.5187 6.85314Z" fill="#272A2F"/>
<path d="M11.7717 6.85314C12.1248 6.85314 12.4092 6.56876 12.4092 6.21564C12.4092 4.76876 11.2311 3.59064 9.78418 3.59064C9.43105 3.59064 9.14668 3.87501 9.14668 4.22814C9.14668 4.58126 9.43105 4.86564 9.78418 4.86564C10.5279 4.86564 11.1342 5.47189 11.1342 6.21564C11.1342 6.56876 11.4186 6.85314 11.7717 6.85314Z" fill="#272A2F"/>
</svg>
