<svg width="20" height="19" viewBox="0 0 20 19" fill="none" xmlns="http://www.w3.org/2000/svg">
<path d="M9.11596 0.816986C9.48277 0.0737407 10.5426 0.0737401 10.9094 0.816986L13.0128 5.07896C13.1585 5.37411 13.4401 5.57868 13.7658 5.62601L18.4692 6.30945C19.2894 6.42863 19.6169 7.4366 19.0234 8.01514L15.62 11.3326C15.3843 11.5624 15.2767 11.8934 15.3324 12.2178L16.1358 16.9021C16.2759 17.719 15.4185 18.342 14.6849 17.9563L10.478 15.7446C10.1867 15.5915 9.83868 15.5915 9.54735 15.7446L5.34053 17.9563C4.6069 18.342 3.74947 17.719 3.88958 16.9021L4.69301 12.2178C4.74865 11.8934 4.6411 11.5624 4.40542 11.3326L1.00202 8.01514C0.408507 7.4366 0.736016 6.42863 1.55624 6.30945L6.25961 5.62601C6.58532 5.57868 6.86689 5.37411 7.01255 5.07896L9.11596 0.816986Z" fill="#D2D2D2"/>
</svg>
