<svg width="19" height="19" viewBox="0 0 19 19" fill="none" xmlns="http://www.w3.org/2000/svg">
<g clip-path="url(#clip0)">
<path d="M14.1292 7.82214C14.1292 7.82214 14.8976 7.23786 14.3127 6.65358C13.7278 6.0693 13.1592 6.82329 13.1592 6.82329L7.27947 12.7043C7.27947 12.7043 5.90238 14.4815 4.85532 13.4069C3.8095 12.331 5.55733 10.9821 5.55733 10.9821L13.2669 3.27316C13.2669 3.27316 15.0661 1.29112 16.7576 2.98133C18.4465 4.67217 16.4588 6.4751 16.4588 6.4751L7.79612 15.1378C7.79612 15.1378 5.0244 18.3398 2.45871 15.7735C-0.106978 13.2071 3.12628 10.4667 3.12628 10.4667L9.70301 3.88812C9.70301 3.88812 10.4395 3.27316 9.88775 2.71957C9.33353 2.1666 8.71982 2.90431 8.71982 2.90431L1.17305 10.4511C1.17305 10.4511 -1.6757 13.5754 1.50558 16.756C4.68686 19.9386 7.81303 17.0898 7.81303 17.0898L18.1854 6.71621C18.1854 6.71621 20.2607 4.42731 17.7865 1.9518C15.3122 -0.523708 13.0227 1.55164 13.0227 1.55164L4.09757 10.4755C4.09757 10.4755 1.81181 12.3348 3.8859 14.4076C5.96 16.483 7.78547 14.1634 7.78547 14.1634L14.1292 7.82214Z" fill="#FFC000"/>
</g>
<defs>
<clipPath id="clip0">
<rect width="19" height="19" fill="white"/>
</clipPath>
</defs>
</svg>
