<svg width="14" height="15" viewBox="0 0 14 15" fill="none" xmlns="http://www.w3.org/2000/svg">
<g clip-path="url(#clip0)">
<path d="M7 0.0517578C4.96456 0.0517578 3.30859 1.70772 3.30859 3.74316C3.30859 5.77861 4.96456 7.43457 7 7.43457C9.03544 7.43457 10.6914 5.77861 10.6914 3.74316C10.6914 1.70772 9.03544 0.0517578 7 0.0517578ZM7 6.61426C5.41688 6.61426 4.12891 5.32629 4.12891 3.74316C4.12891 2.16004 5.41688 0.87207 7 0.87207C8.58312 0.87207 9.87109 2.16004 9.87109 3.74316C9.87109 5.32629 8.58312 6.61426 7 6.61426Z" fill="#FFC000"/>
<path d="M8.14387 8.28223H5.8561C3.96386 8.28223 2.09642 9.15589 0.847656 11.0291V14.0518H13.1523V11.0291C11.9054 9.15859 10.0385 8.28223 8.14387 8.28223ZM12.3321 13.2314H12.332H1.66797V11.2801C2.62585 9.91418 4.18228 9.10254 5.85613 9.10254H8.1439C9.81775 9.10254 11.3742 9.91418 12.3321 11.2801V13.2314Z" fill="#FFC000"/>
</g>
<defs>
<clipPath id="clip0">
<rect width="14" height="14" fill="white" transform="translate(0 0.0517578)"/>
</clipPath>
</defs>
</svg>
