<svg width="64" height="79" viewBox="0 0 64 79" fill="none" xmlns="http://www.w3.org/2000/svg">
<path d="M61.1959 58.0212C59.481 55.359 57.1244 53.2437 54.3638 51.8776C54.131 51.6608 53.8316 51.5155 53.4987 51.4784C51.502 50.6283 49.3972 50.197 47.2344 50.197H42.6641V46.166C45.3089 43.8901 47.2103 40.8756 48.1323 37.5156H48.7578C52.1179 37.5156 54.8516 34.774 54.8516 31.4041C54.8516 29.8072 54.237 28.352 53.2334 27.2621C53.3292 27.1805 53.4227 27.0955 53.5126 27.0055C54.3761 26.1395 54.8516 24.9886 54.8516 23.7648C54.8516 21.7536 53.5527 20.0419 51.7524 19.4262C51.2142 12.4004 46.2976 6.39651 39.5282 4.51478C39.1271 2.41365 37.3981 0.388306 35.0469 0.388306H28.9531C26.6019 0.388306 24.8729 2.41365 24.4718 4.51478C17.703 6.39636 12.7869 12.3992 12.2477 19.4241C11.5923 19.647 10.9913 20.0187 10.4874 20.524C9.6239 21.39 9.14844 22.5409 9.14844 23.7648C9.14844 25.1647 9.77823 26.4194 10.7679 27.2608C9.7636 28.3508 9.14844 29.8066 9.14844 31.4041C9.14844 34.774 11.8821 37.5156 15.2422 37.5156H15.8634C16.6331 40.3203 18.0924 42.8953 20.1282 45.0222C20.5107 45.4222 20.9162 45.8033 21.3359 46.1647V50.197H16.7656C14.6026 50.197 12.4979 50.6283 10.5012 51.4782C10.1685 51.5155 9.86902 51.6607 9.63639 51.8775C6.87547 53.2437 4.51902 55.359 2.80408 58.021C0.974739 60.8609 0.0078125 64.1255 0.0078125 67.4619V77.0875C0.0078125 77.9312 0.689856 78.6154 1.53125 78.6154H62.4688C63.3101 78.6154 63.9922 77.9312 63.9922 77.0875V67.4619C63.9922 64.1255 63.0253 60.8609 61.1959 58.0212ZM9.14844 75.5596H3.05469V67.4619C3.05469 62.8146 5.42851 58.3602 9.14844 55.7159V75.5596ZM48.7578 34.4599H48.6883C48.7337 33.9515 48.7578 33.4414 48.7578 32.932V28.3484C50.4379 28.3484 51.8047 29.7192 51.8047 31.4041C51.8047 33.0891 50.4379 34.4599 48.7578 34.4599ZM24.3828 7.74333V14.5975C24.3828 15.4414 25.0649 16.1254 25.9062 16.1254C26.7476 16.1254 27.4297 15.4414 27.4297 14.5975V5.74549C27.4297 5.74151 27.4297 5.73754 27.4297 5.73357V5.43029C27.4297 4.48362 28.2271 3.44405 28.9531 3.44405H35.0469C35.7729 3.44405 36.5703 4.48362 36.5703 5.43029V5.73357C36.5703 5.73754 36.5703 5.74151 36.5703 5.74549V14.5975C36.5703 15.4414 37.2524 16.1254 38.0938 16.1254C38.9351 16.1254 39.6172 15.4414 39.6172 14.5975V7.74333C44.5364 9.48923 48.0875 13.9537 48.6727 19.1811H15.3273C15.9125 13.9537 19.4636 9.48923 24.3828 7.74333ZM15.2422 34.4599C13.5621 34.4599 12.1953 33.0891 12.1953 31.4041C12.1953 29.7192 13.5621 28.3484 15.2422 28.3484V32.932C15.2422 33.4414 15.2663 33.9517 15.3117 34.4599H15.2422ZM15.2422 25.2926H13.7188C12.8787 25.2926 12.1953 24.6072 12.1953 23.7648C12.1953 23.3571 12.3539 22.9735 12.6418 22.6849C12.9299 22.3959 13.3123 22.2369 13.7188 22.2369H50.2812C51.1213 22.2369 51.8047 22.9223 51.8047 23.7648C51.8047 24.1724 51.6461 24.556 51.3582 24.8447C51.0702 25.1336 50.6877 25.2926 50.2812 25.2926H48.7578H47.2344H16.7656H15.2422ZM18.5659 35.7101C18.5628 35.6935 18.5599 35.677 18.5563 35.6606C18.3794 34.7639 18.2891 33.8461 18.2891 32.932V28.3484H45.7109V32.932C45.7109 33.8454 45.6206 34.7625 45.4437 35.66C45.4401 35.6765 45.4372 35.6932 45.4341 35.7098C44.7533 39.118 42.8691 42.1689 40.1254 44.3027C37.7418 46.1597 34.9322 47.1412 32 47.1412C29.0678 47.1412 26.2582 46.1597 23.8723 44.301C23.3262 43.8772 22.8064 43.4083 22.3268 42.9067C20.405 40.8988 19.1052 38.4113 18.5659 35.7101ZM30.4766 75.5596H18.2891V72.0455C18.2891 71.2017 17.607 70.5177 16.7656 70.5177C15.9242 70.5177 15.2422 71.2017 15.2422 72.0455V75.5596H12.1953V54.0891C13.184 53.7152 14.2026 53.466 15.2422 53.3432V62.8783C15.2422 63.7221 15.9242 64.4062 16.7656 64.4062C17.607 64.4062 18.2891 63.7221 18.2891 62.8783V53.2527H22.2066L30.4766 61.9616V75.5596ZM24.3828 51.1137V48.2679C26.7336 49.5352 29.3229 50.197 32 50.197C34.6773 50.197 37.2667 49.5351 39.6172 48.268V51.1137L32 59.135L24.3828 51.1137ZM51.8047 75.5596H48.7578V72.0455C48.7578 71.2017 48.0758 70.5177 47.2344 70.5177C46.393 70.5177 45.7109 71.2017 45.7109 72.0455V75.5596H33.5234V61.9616L41.7934 53.2527H45.7109V62.8783C45.7109 63.7221 46.393 64.4062 47.2344 64.4062C48.0758 64.4062 48.7578 63.7221 48.7578 62.8783V53.3432C49.7974 53.466 50.8158 53.7153 51.8047 54.0892V75.5596ZM60.9453 75.5596H54.8516V55.7158C58.5715 58.3601 60.9453 62.8144 60.9453 67.4619V75.5596Z" fill="white"/>
</svg>
