<svg width="83" height="84" viewBox="0 0 83 84" fill="none" xmlns="http://www.w3.org/2000/svg">
<g opacity="0.2" clip-path="url(#clip0)">
<path d="M57.3581 28.082L71.4625 42.1865L57.3581 56.2909C55.8026 57.8464 55.8026 60.3772 57.3581 61.9327C58.9135 63.4882 61.4444 63.4882 62.9998 61.9327L81.8057 43.1268C82.325 42.6075 82.3256 41.766 81.8057 41.2461L62.9998 22.4402C61.4444 20.8847 58.9136 20.8847 57.3581 22.4402C55.8026 23.9957 55.8026 26.5265 57.3581 28.082ZM61.1193 24.3208L78.985 42.1865L61.1193 60.0522C60.6007 60.5707 59.7575 60.571 59.2386 60.0522C58.7198 59.5333 58.72 58.6901 59.2386 58.1715L74.2834 43.1267C74.8027 42.6074 74.8032 41.7658 74.2834 41.246L59.2388 26.2013C58.7199 25.6825 58.7202 24.8392 59.2388 24.3206C59.7573 23.8021 60.6004 23.8019 61.1193 24.3208Z" fill="black"/>
<path d="M38.5522 28.0819L52.6566 42.1864L38.5522 56.2908C36.9967 57.8463 36.9967 60.3771 38.5522 61.9326C40.1076 63.4881 42.6385 63.4881 44.1939 61.9326L62.9998 43.1267C63.5191 42.6074 63.5197 41.7658 62.9998 41.246L44.1939 22.4401C42.6385 20.8846 40.1076 20.8846 38.5522 22.4401C36.9967 23.9956 36.9967 26.5264 38.5522 28.0819ZM42.3133 24.3208L60.1789 42.1865L42.3134 60.052C41.7948 60.5706 40.9516 60.5709 40.4327 60.052C39.9138 59.5332 39.9141 58.6899 40.4327 58.1714L55.4775 43.1266C55.9968 42.6073 55.9973 41.7657 55.4775 41.2459L40.4327 26.2011C39.9138 25.6822 39.9141 24.839 40.4327 24.3204C40.9513 23.8018 41.7945 23.8021 42.3133 24.3208Z" fill="black"/>
<path d="M19.7462 28.082L33.8507 42.1865L19.7462 56.2909C18.1908 57.8464 18.1908 60.3772 19.7462 61.9327C21.3017 63.4882 23.8325 63.4882 25.388 61.9327L44.1939 43.1268C44.7132 42.6075 44.7137 41.766 44.1939 41.2461L25.388 22.4402C23.8325 20.8848 21.3017 20.8848 19.7462 22.4402C18.1908 23.9957 18.1908 26.5265 19.7462 28.082ZM23.5075 24.3208L41.373 42.1863L23.5073 60.052C22.9888 60.5706 22.1455 60.5709 21.6267 60.052C21.1078 59.5332 21.1081 58.6899 21.6267 58.1713L36.6714 43.1265C37.1907 42.6073 37.1913 41.7657 36.6715 41.2459L21.6267 26.2011C21.1078 25.6822 21.1081 24.839 21.6267 24.3204C22.1452 23.8018 22.9886 23.8019 23.5075 24.3208Z" fill="black"/>
</g>
<defs>
<clipPath id="clip0">
<rect width="58.5103" height="58.5103" fill="white" transform="translate(41.373 83.5595) rotate(-135)"/>
</clipPath>
</defs>
</svg>
