<svg width="75" height="76" viewBox="0 0 75 76" fill="none" xmlns="http://www.w3.org/2000/svg">
<path d="M66.9643 8.44741H58.9286V3.07473C58.9286 1.59103 57.7293 0.388306 56.25 0.388306C54.7706 0.388306 53.5713 1.59103 53.5713 3.07473V8.44741H21.4285V3.07473C21.4285 1.59103 20.2293 0.388306 18.75 0.388306C17.2708 0.388306 16.0714 1.59103 16.0714 3.07473V8.44741H8.03571C3.59771 8.44741 0 12.0556 0 16.5065V67.5476C0 71.9985 3.59771 75.6067 8.03571 75.6067H66.9643C71.4023 75.6067 75 71.9985 75 67.5476V16.5065C75 12.0556 71.4023 8.44741 66.9643 8.44741ZM69.6428 67.5476C69.6428 69.0312 68.4435 70.234 66.9641 70.234H8.03571C6.55632 70.234 5.35709 69.0312 5.35709 67.5476V32.6247H69.6428V67.5476ZM69.6428 27.252H5.35709V16.5065C5.35709 15.0228 6.55632 13.8201 8.03571 13.8201H16.0714V19.1928C16.0714 20.6765 17.2707 21.8792 18.75 21.8792C20.2294 21.8792 21.4287 20.6765 21.4287 19.1928V13.8201H53.5715V19.1928C53.5715 20.6765 54.7707 21.8792 56.2501 21.8792C57.7295 21.8792 58.9287 20.6765 58.9287 19.1928V13.8201H66.9644C68.4438 13.8201 69.6431 15.0228 69.6431 16.5065V27.252H69.6428Z" fill="white"/>
<path d="M51.3667 41.6372C50.5625 40.8582 49.2877 40.8582 48.4836 41.6372L33.35 56.8148L26.5167 49.9616C25.6923 49.1631 24.3787 49.1861 23.5825 50.0127C22.8058 50.8192 22.8058 52.0978 23.5825 52.9043L31.8829 61.2288C32.6933 62.0412 34.0068 62.0412 34.817 61.2288L51.4176 44.5799C52.2138 43.7531 52.1909 42.4357 51.3667 41.6372Z" fill="#FFC000"/>
</svg>
