<svg width="68" height="77" viewBox="0 0 68 77" fill="none" xmlns="http://www.w3.org/2000/svg">
<path d="M34 0.385498L0 9.95782V29.8021C0 40.2081 3.23451 50.1675 9.35752 58.5935C15.3451 66.8409 23.6044 72.9743 33.2478 76.3388L34 76.6068L34.7522 76.3388C44.3805 72.9743 52.6398 66.826 58.6425 58.5935C64.7655 50.1675 68 40.2081 68 29.8021V9.95782L34 0.385498ZM63.4867 29.8021C63.4867 47.726 52.6699 63.8784 36.2566 70.9646H31.7434C15.3301 63.8784 4.51327 47.726 4.51327 29.8021V13.3223L31.7434 5.65548H36.2566L63.4867 13.3223V29.8021Z" fill="white"/>
<path d="M31.7434 10.3002L9.02661 16.7016V29.8021C9.02661 38.3323 11.6744 46.4755 16.6841 53.3681C20.5956 58.7572 25.7859 63.1042 31.7434 66.0221H36.2567C42.2142 63.1042 47.3894 58.7572 51.316 53.3681C56.3257 46.4755 58.9735 38.3174 58.9735 29.8021V16.7016L36.2567 10.3002H31.7434ZM47.6452 50.7629C44.0948 55.631 39.4009 59.5611 34.0001 62.1515C28.5992 59.5611 23.8903 55.631 20.3549 50.7629C16.7142 45.7609 14.4726 39.9997 13.7806 33.9258L34.0001 28.239L54.2195 33.9258C53.5275 40.0145 51.2859 45.7609 47.6452 50.7629ZM54.4602 20.066V29.3555L34.0001 23.5942L13.5399 29.3555V20.066L34.0001 14.3048L54.4602 20.066Z" fill="#FFC000"/>
</svg>
