<svg width="68" height="68" viewBox="0 0 68 68" fill="none" xmlns="http://www.w3.org/2000/svg">
<path d="M33.9999 0C15.2223 0 0 15.2223 0 33.9999C0 52.7776 15.2223 67.9999 33.9999 67.9999C52.7776 67.9999 67.9999 52.7776 67.9999 33.9999C67.9799 15.2307 52.7693 0.0200642 33.9999 0ZM48.3186 35.0832C48.0833 35.5554 47.7006 35.9382 47.2283 36.1735V36.1856L27.7998 45.9C26.6 46.4995 25.1414 46.013 24.5417 44.8131C24.3713 44.472 24.2835 44.0955 24.2856 43.7143V24.2857C24.285 22.9444 25.3718 21.8567 26.7131 21.856C27.0903 21.8558 27.4624 21.9435 27.7998 22.1121L47.2283 31.8265C48.4288 32.4247 48.917 33.8828 48.3186 35.0832Z" fill="white"/>
</svg>
