<svg width="11" height="11" viewBox="0 0 11 11" fill="none" xmlns="http://www.w3.org/2000/svg">
<path d="M1.41797 0.859375H2.40625V0.34375C2.40625 0.153914 2.56014 0 2.75 0C2.93986 0 3.09375 0.153914 3.09375 0.34375V0.859375H7.90625V0.34375C7.90625 0.153914 8.06014 0 8.25 0C8.43986 0 8.59375 0.153914 8.59375 0.34375V0.859375H9.58203C10.3639 0.859375 11 1.49546 11 2.27734V9.58203C11 10.3639 10.3639 11 9.58203 11H1.41797C0.636087 11 0 10.3639 0 9.58203V2.27734C0 1.49546 0.636087 0.859375 1.41797 0.859375ZM9.58203 1.54688H8.59375V1.89062C8.59375 2.08046 8.43986 2.23438 8.25 2.23438C8.06014 2.23438 7.90625 2.08046 7.90625 1.89062V1.54688H3.09375V1.89062C3.09375 2.08046 2.93986 2.23438 2.75 2.23438C2.56014 2.23438 2.40625 2.08046 2.40625 1.89062V1.54688H1.41797C1.01518 1.54688 0.6875 1.87455 0.6875 2.27734V3.09375H10.3125V2.27734C10.3125 1.87455 9.98482 1.54688 9.58203 1.54688ZM1.41797 10.3125H9.58203C9.98482 10.3125 10.3125 9.98482 10.3125 9.58203V3.78125H0.6875V9.58203C0.6875 9.98482 1.01518 10.3125 1.41797 10.3125Z" fill="black"/>
</svg>
