<svg width="122" height="70" viewBox="0 0 122 70" fill="none" xmlns="http://www.w3.org/2000/svg">
<path d="M43.2267 51.5211C43.2267 44.8565 40.2062 39.8302 36.1996 39.8302C32.1929 39.8302 29.1735 44.8565 29.1735 51.5211C29.1735 58.1856 32.1939 63.2109 36.1996 63.2109C36.6709 63.2109 37.123 63.0236 37.4563 62.6903C37.7896 62.357 37.9769 61.9049 37.9769 61.4336C37.9769 60.9622 37.7896 60.5101 37.4563 60.1768C37.123 59.8435 36.6709 59.6562 36.1996 59.6562C34.7838 59.6562 32.7281 56.4875 32.7281 51.5211C32.7281 46.5547 34.7838 43.3849 36.1996 43.3849C37.6153 43.3849 39.672 46.5536 39.672 51.5211C39.672 51.9924 39.8592 52.4445 40.1925 52.7778C40.5259 53.1112 40.9779 53.2984 41.4493 53.2984C41.9207 53.2984 42.3728 53.1112 42.7061 52.7778C43.0394 52.4445 43.2267 51.9924 43.2267 51.5211Z" fill="#FFC000"/>
<path d="M17.2266 61.6976C17.3967 61.5376 17.5336 61.3456 17.6295 61.1326C17.7255 60.9197 17.7785 60.6899 17.7856 60.4564C17.7927 60.223 17.7538 59.9904 17.671 59.772C17.5883 59.5535 17.4633 59.3536 17.3033 59.1834C17.1432 59.0133 16.9512 58.8764 16.7382 58.7805C16.5253 58.6846 16.2955 58.6315 16.062 58.6244C15.8286 58.6173 15.596 58.6562 15.3776 58.739C15.1592 58.8217 14.9592 58.9467 14.7891 59.1068C14.4999 59.4251 14.1005 59.6215 13.6719 59.6562C12.2561 59.6562 10.1995 56.4875 10.1995 51.5211C10.1995 46.5547 12.2561 43.3849 13.6719 43.3849C14.1433 43.3849 14.5953 43.1976 14.9287 42.8643C15.262 42.531 15.4492 42.0789 15.4492 41.6075C15.4492 41.1362 15.262 40.6841 14.9287 40.3508C14.5953 40.0175 14.1433 39.8302 13.6719 39.8302C9.66626 39.8302 6.64478 44.8565 6.64478 51.5211C6.64478 58.1856 9.66626 63.2109 13.6719 63.2109C15.0076 63.1838 16.2812 62.6416 17.2266 61.6976Z" fill="#FFC000"/>
<path d="M18.3438 56.4063C18.4464 56.4244 18.5504 56.4336 18.6546 56.4337C19.072 56.4331 19.4759 56.2857 19.7955 56.0171C20.1151 55.7486 20.33 55.3762 20.4025 54.9651C20.6014 53.8279 20.7003 52.6755 20.698 51.5211C20.698 51.0497 20.5108 50.5977 20.1774 50.2643C19.8441 49.931 19.3921 49.7438 18.9207 49.7438C18.4493 49.7438 17.9972 49.931 17.6639 50.2643C17.3306 50.5977 17.1433 51.0497 17.1433 51.5211C17.1451 52.4681 17.0645 53.4135 16.9026 54.3466C16.862 54.5765 16.867 54.8121 16.9175 55.04C16.9679 55.2679 17.0627 55.4837 17.1966 55.675C17.3304 55.8662 17.5006 56.0292 17.6974 56.1547C17.8943 56.2802 18.1139 56.3657 18.3438 56.4063Z" fill="#FFC000"/>
<path d="M30.125 16.7014C29.6537 16.7014 29.2016 16.8887 28.8683 17.222C28.535 17.5553 28.3477 18.0074 28.3477 18.4788C28.3477 23.1354 26.3266 26.1082 24.9352 26.1082C23.5438 26.1082 21.5227 23.1354 21.5227 18.4788C21.5227 13.8221 23.5438 10.8514 24.9352 10.8514C25.4066 10.8514 25.8587 10.6642 26.192 10.3309C26.5253 9.99755 26.7125 9.54548 26.7125 9.0741C26.7125 8.60272 26.5253 8.15064 26.192 7.81732C25.8587 7.48401 25.4066 7.29675 24.9352 7.29675C20.9641 7.29675 17.968 12.1037 17.968 18.4788C17.968 24.8539 20.9641 29.6628 24.9352 29.6628C28.9063 29.6628 31.9024 24.8549 31.9024 18.4788C31.9021 18.0075 31.7148 17.5556 31.3815 17.2223C31.0483 16.8891 30.5963 16.7017 30.125 16.7014Z" fill="#FFC000"/>
<path d="M121.371 51.5739C121.371 51.5557 121.371 51.5384 121.371 51.5211C121.371 41.2907 115.658 33.2531 108.358 33.2226H104.849C108.052 29.9178 110.106 24.5989 110.106 18.4788C110.106 8.2494 104.393 0.211743 97.0923 0.181274H24.9362C17.7446 0.181274 11.8936 8.38956 11.8936 18.4788C11.8936 24.5309 14.0071 29.8893 17.2439 33.2226H13.6719C6.48029 33.2226 0.629272 41.4309 0.629272 51.5211C0.629272 61.6114 6.47927 69.8186 13.6719 69.8186H36.2015H108.366C115.633 69.7912 121.327 61.8104 121.366 51.6328C121.366 51.6196 121.366 51.6074 121.366 51.5942L121.371 51.5739ZM103.42 7.56995H63.1237C62.6524 7.56995 62.2003 7.7572 61.867 8.09052C61.5336 8.42384 61.3464 8.87591 61.3464 9.34729C61.3464 9.81867 61.5336 10.2707 61.867 10.6041C62.2003 10.9374 62.6524 11.1246 63.1237 11.1246H105.272C106.132 13.4806 106.565 15.9709 106.552 18.4788C106.563 20.8403 106.184 23.1874 105.428 25.4246H50.3197C49.8484 25.4246 49.3963 25.6119 49.063 25.9452C48.7297 26.2785 48.5424 26.7306 48.5424 27.202C48.5424 27.6734 48.7297 28.1254 49.063 28.4588C49.3963 28.7921 49.8484 28.9793 50.3197 28.9793H103.708C102 31.5895 99.6629 33.2114 97.0862 33.2226H32.6286C35.8411 29.6443 37.7098 25.0606 37.9149 20.2561H73.8985C74.3699 20.2561 74.822 20.0689 75.1553 19.7355C75.4886 19.4022 75.6758 18.9502 75.6758 18.4788C75.6758 18.0074 75.4886 17.5553 75.1553 17.222C74.822 16.8887 74.3699 16.7014 73.8985 16.7014H37.9149C37.7104 11.8981 35.8436 7.31505 32.6336 3.73596H97.0903C99.5227 3.74713 101.74 5.20557 103.42 7.56995ZM28.5092 36.7773C26.9801 38.3923 25.7681 40.2803 24.9362 42.3429C24.1052 40.2799 22.8931 38.3918 21.3633 36.7773H28.5092ZM15.4483 18.4788C15.4483 10.4878 19.7931 3.73596 24.9362 3.73596C30.0793 3.73596 34.4242 10.4878 34.4242 18.4788C34.4242 26.4697 30.0793 33.2226 24.9362 33.2226C19.7931 33.2226 15.4483 26.4687 15.4483 18.4788ZM4.18294 51.5211C4.18294 43.5292 8.52779 36.7773 13.6709 36.7773C18.814 36.7773 23.1589 43.5292 23.1589 51.5211C23.1589 59.5131 18.814 66.2639 13.6719 66.2639C8.52982 66.2639 4.18294 59.5121 4.18294 51.5211ZM24.9362 60.6953C25.7681 62.7579 26.9801 64.6459 28.5092 66.2609H21.3633C22.8931 64.6464 24.1052 62.7583 24.9362 60.6953ZM26.7136 51.5181C26.7136 43.5261 31.0594 36.7743 36.2015 36.7743C41.3437 36.7743 45.6905 43.5261 45.6905 51.5181C45.6905 59.51 41.3447 66.2609 36.2015 66.2609C31.0584 66.2609 26.7136 59.5121 26.7136 51.5211V51.5181ZM108.359 66.2639H43.8949C47.0926 62.7037 48.9588 58.146 49.1762 53.3655H61.4764C61.9478 53.3655 62.3998 53.1782 62.7332 52.8449C63.0665 52.5116 63.2537 52.0595 63.2537 51.5882C63.2537 51.1168 63.0665 50.6647 62.7332 50.3314C62.3998 49.9981 61.9478 49.8108 61.4764 49.8108H49.1873C49.0629 47.8794 48.7069 45.9699 48.127 44.1233H88.2523C88.7237 44.1233 89.1758 43.9361 89.5091 43.6027C89.8424 43.2694 90.0297 42.8174 90.0297 42.346C90.0297 41.8746 89.8424 41.4225 89.5091 41.0892C89.1758 40.7559 88.7237 40.5686 88.2523 40.5686H46.6269C45.8975 39.1827 44.9779 37.9056 43.8949 36.7743H108.353C113.2 36.7935 117.202 42.5014 117.748 49.8098H76.273C75.8016 49.8098 75.3496 49.9971 75.0163 50.3304C74.6829 50.6637 74.4957 51.1158 74.4957 51.5871C74.4957 52.0585 74.6829 52.5106 75.0163 52.8439C75.3496 53.1772 75.8016 53.3645 76.273 53.3645H117.734C117.146 60.6089 113.168 66.2436 108.359 66.2639Z" fill="#FFC000"/>
<path d="M96.5684 44.1263H101.646C102.118 44.1263 102.57 43.9391 102.903 43.6058C103.237 43.2725 103.424 42.8204 103.424 42.349C103.424 41.8776 103.237 41.4255 102.903 41.0922C102.57 40.7589 102.118 40.5717 101.646 40.5717H96.5684C96.097 40.5717 95.6449 40.7589 95.3116 41.0922C94.9783 41.4255 94.791 41.8776 94.791 42.349C94.791 42.8204 94.9783 43.2725 95.3116 43.6058C95.6449 43.9391 96.097 44.1263 96.5684 44.1263Z" fill="#FFC000"/>
<path d="M79.586 58.275H57.4921C57.0207 58.275 56.5686 58.4623 56.2353 58.7956C55.902 59.1289 55.7147 59.581 55.7147 60.0524C55.7147 60.5237 55.902 60.9758 56.2353 61.3091C56.5686 61.6425 57.0207 61.8297 57.4921 61.8297H79.586C80.0574 61.8297 80.5094 61.6425 80.8428 61.3091C81.1761 60.9758 81.3633 60.5237 81.3633 60.0524C81.3633 59.581 81.1761 59.1289 80.8428 58.7956C80.5094 58.4623 80.0574 58.275 79.586 58.275Z" fill="#FFC000"/>
<path d="M107.596 58.275H94.0708C93.5994 58.275 93.1473 58.4623 92.814 58.7956C92.4807 59.1289 92.2935 59.581 92.2935 60.0524C92.2935 60.5237 92.4807 60.9758 92.814 61.3091C93.1473 61.6425 93.5994 61.8297 94.0708 61.8297H107.596C108.067 61.8297 108.519 61.6425 108.853 61.3091C109.186 60.9758 109.373 60.5237 109.373 60.0524C109.373 59.581 109.186 59.1289 108.853 58.7956C108.519 58.4623 108.067 58.275 107.596 58.275Z" fill="#FFC000"/>
<path d="M45.5737 11.1246H51.5547C52.0261 11.1246 52.4782 10.9374 52.8115 10.6041C53.1448 10.2707 53.3321 9.81867 53.3321 9.34729C53.3321 8.87591 53.1448 8.42383 52.8115 8.09052C52.4782 7.7572 52.0261 7.56995 51.5547 7.56995H45.5737C45.1023 7.56995 44.6503 7.7572 44.317 8.09052C43.9836 8.42383 43.7964 8.87591 43.7964 9.34729C43.7964 9.81867 43.9836 10.2707 44.317 10.6041C44.6503 10.9374 45.1023 11.1246 45.5737 11.1246Z" fill="#FFC000"/>
<path d="M83.7969 20.2561H90.7275C91.1989 20.2561 91.651 20.0688 91.9843 19.7355C92.3176 19.4022 92.5048 18.9501 92.5048 18.4788C92.5048 18.0074 92.3176 17.5553 91.9843 17.222C91.651 16.8887 91.1989 16.7014 90.7275 16.7014H83.7969C83.3255 16.7014 82.8734 16.8887 82.5401 17.222C82.2068 17.5553 82.0195 18.0074 82.0195 18.4788C82.0195 18.9501 82.2068 19.4022 82.5401 19.7355C82.8734 20.0688 83.3255 20.2561 83.7969 20.2561Z" fill="#FFC000"/>
</svg>
