<svg width="78" height="78" viewBox="0 0 78 78" fill="none" xmlns="http://www.w3.org/2000/svg">
<g clip-path="url(#clip0)">
<path d="M0.246063 7.20656L5.42874 16.2865C5.60651 16.5873 5.89368 16.8198 6.23554 16.9019L11.0764 18.1189L27.6773 34.7199L29.5097 32.8875L12.6489 16.013C12.4848 15.8489 12.2797 15.7258 12.0473 15.6711L7.39788 14.5088L2.98098 6.76897L6.76885 2.9811L14.5087 7.398L15.671 12.0474C15.7257 12.2798 15.8488 12.485 16.0129 12.6491L32.8737 29.5099L34.7061 27.6775L18.1188 11.0901L16.9017 6.24934C16.8197 5.90747 16.5872 5.60663 16.2864 5.44253L7.20644 0.24618C6.70048 -0.0409865 6.05777 0.0410612 5.64753 0.4513L0.464856 5.64765C0.0409434 6.05789 -0.0411043 6.7006 0.246063 7.20656Z" fill="#FFC000" stroke="#FFC000" stroke-miterlimit="10"/>
<path d="M54.1789 25.6399L25.64 54.1788L23.7939 52.3464L52.3329 23.8075L54.1789 25.6399Z" fill="#FFC000" stroke="#FFC000" stroke-miterlimit="10"/>
<path d="M20.6349 55.1908C20.4024 54.7942 19.9785 54.5618 19.5273 54.5618H11.7464C11.2951 54.5618 10.8712 54.7942 10.6388 55.1908L6.74149 61.6726C6.49535 62.0828 6.49535 62.6024 6.74149 63.0127L10.6388 69.4944C10.8712 69.891 11.2951 70.1235 11.7464 70.1235H19.5273C19.9785 70.1235 20.4024 69.891 20.6349 69.4944L24.5322 63.0127C24.7783 62.6024 24.7783 62.0828 24.5322 61.6726L20.6349 55.1908ZM18.7888 67.5253H12.4712L9.35334 62.3426L12.4712 57.1599H18.7888L21.9066 62.3426L18.7888 67.5253Z" fill="#FFC000" stroke="#FFC000" stroke-miterlimit="10"/>
<path d="M62.3289 31.2055C70.9029 31.2328 77.8632 24.3135 77.8906 15.7395C77.8906 14.4404 77.7402 13.1413 77.412 11.8696C77.2342 11.1722 76.5368 10.7483 75.8394 10.926C75.6069 10.9807 75.4018 11.1038 75.2377 11.2679L67.156 19.3359L60.7426 17.2027L58.6367 10.803L66.7184 2.72128C67.2244 2.21531 67.2244 1.39484 66.7184 0.888877C66.5543 0.724782 66.3355 0.60171 66.1167 0.547012C57.8026 -1.55888 49.3653 3.47338 47.2595 11.7875C46.9449 13.0456 46.7808 14.3447 46.7808 15.6438C46.7808 16.6694 46.8902 17.6813 47.0954 18.6796L18.6795 47.0817C17.6813 46.8766 16.6557 46.7672 15.6437 46.7672C7.04241 46.7672 0.0683594 53.7413 0.0683594 62.3426C0.0683594 70.9439 7.04241 77.9043 15.6301 77.9043C24.2314 77.9043 31.1918 70.9303 31.1918 62.3426C31.1918 61.317 31.0824 60.3051 30.8773 59.3068L37.6735 52.5105L40.6546 55.4916C41.1606 55.9976 41.9811 55.9976 42.487 55.4916L43.1297 54.8489C43.7041 54.2882 44.6203 54.2882 45.1809 54.8489C45.7552 55.4096 45.7552 56.3394 45.1809 56.9001L44.5382 57.5428C44.0322 58.0488 44.0322 58.8692 44.5382 59.3752L60.0315 74.8412C64.1066 78.9436 70.7251 78.9846 74.8411 74.9096C78.9435 70.8345 78.9846 64.216 74.9095 60.1C74.8822 60.0726 74.8685 60.0589 74.8411 60.0316L59.3615 44.5519C58.8555 44.046 58.035 44.046 57.5291 44.5519L56.8864 45.1946C56.312 45.7553 55.3958 45.7553 54.8352 45.1946C54.2609 44.634 54.2609 43.7041 54.8352 43.1434L55.4779 42.5007C55.9839 41.9948 55.9839 41.1743 55.4779 40.6683L52.4968 37.6873L59.2931 30.891C60.2914 31.0961 61.317 31.2055 62.3289 31.2055ZM67.4295 75.3061C66.486 75.3061 65.5561 75.1283 64.6672 74.8002L74.8001 64.681C76.3317 68.7423 74.2668 73.2823 70.2055 74.8138C69.3166 75.142 68.3867 75.3061 67.4295 75.3061ZM52.743 41.5982C51.3071 43.3075 51.5259 45.8647 53.2489 47.3005C54.7531 48.5586 56.9548 48.5586 58.459 47.3005L73.0224 61.8777C73.1865 62.0418 73.3233 62.2058 73.4737 62.3699L62.3562 73.4464C62.1921 73.3096 62.0144 73.1592 61.8639 72.9951L47.3005 58.4317C48.7363 56.7223 48.5175 54.1652 46.7945 52.7293C45.2903 51.4713 43.0887 51.4713 41.5845 52.7293L39.5059 50.6508L50.6508 39.5197L52.743 41.5982ZM57.9804 28.5526L28.5526 57.9667C28.2244 58.2949 28.1013 58.7598 28.2107 59.1974C29.9884 66.1852 25.763 73.296 18.7752 75.0737C11.7875 76.8514 4.6767 72.6259 2.899 65.6382C1.10763 58.6641 5.33309 51.5533 12.3208 49.7756C14.4404 49.2423 16.6557 49.2423 18.7616 49.7756C19.1991 49.885 19.6641 49.7483 19.9923 49.4338L49.42 20.006C49.7482 19.6778 49.8713 19.2129 49.7619 18.7753C47.9979 11.8696 52.1686 4.82717 59.0743 3.06314C60.3734 2.73495 61.7272 2.5982 63.081 2.68025L56.2437 9.53123C55.9018 9.8731 55.7787 10.3927 55.9292 10.8577L58.5273 18.6385C58.6504 19.0214 58.9649 19.3359 59.3478 19.459L67.1287 22.0572C67.5936 22.2076 68.1132 22.0845 68.4551 21.7427L75.2924 14.9054C75.3061 15.1515 75.3198 15.3976 75.3198 15.6438C75.3608 22.7683 69.6038 28.58 62.4793 28.621C61.3717 28.621 60.2777 28.4842 59.2111 28.2108C58.7598 28.1014 58.2949 28.2244 57.9804 28.5526Z" fill="#FFC000" stroke="#FFC000" stroke-miterlimit="10"/>
<path d="M67.1423 65.31L65.31 67.1424L52.3328 54.1652L54.1652 52.3328L67.1423 65.31Z" fill="#FFC000" stroke="#FFC000" stroke-miterlimit="10"/>
</g>
<defs>
<clipPath id="clip0">
<rect width="78" height="78" fill="white"/>
</clipPath>
</defs>
</svg>
