<svg width="97" height="97" viewBox="0 0 97 97" fill="none" xmlns="http://www.w3.org/2000/svg">
<path d="M37.5397 25.8253C25.4529 25.8253 15.6383 35.659 15.6383 47.7267C15.6383 59.8135 25.472 69.6281 37.5397 69.6281C49.6265 69.6281 59.441 59.7944 59.441 47.7267C59.4601 35.659 49.6265 25.8253 37.5397 25.8253ZM37.5397 66.4966C27.1905 66.4966 18.7698 58.0759 18.7698 47.7267C18.7698 37.3775 27.1905 28.9568 37.5397 28.9568C47.8889 28.9568 56.3095 37.3775 56.3095 47.7267C56.3095 58.0759 47.908 66.4966 37.5397 66.4966Z" fill="#FFC000"/>
<path d="M75.0986 69.6472V69.6281V63.3651H77.4472C81.7435 63.155 82.5646 59.1452 82.0299 57.6558L80.2923 49.8271C79.1657 45.4926 74.9459 46.1418 74.9459 46.1418C73.3419 26.8946 57.188 11.7145 37.5398 11.7145C16.8413 11.7336 0 28.594 0 49.2924V72.7596C0 77.0749 3.51339 80.5883 7.82874 80.5883H86.0589V85.2855H97V69.6472H75.0986ZM75.0986 49.2924C75.0986 49.2924 76.7026 48.9105 77.2372 50.5145L78.9748 58.3432C79.0703 58.8015 78.9748 60.0235 77.4472 60.2527H75.0986V49.2924ZM71.9862 72.7596C71.9862 75.3564 69.8858 77.4568 67.289 77.4568H7.82874C5.23189 77.4568 3.1315 75.3564 3.1315 72.7596V49.2924C3.1315 30.3125 18.5789 14.8651 37.5589 14.8651C56.5388 14.8651 71.9862 30.3125 71.9862 49.2924V72.7596ZM89.1713 82.154V77.4568H73.4947C74.4876 76.1393 75.0986 74.5353 75.0986 72.7596H93.8685V82.154H89.1713Z" fill="#FFC000"/>
<path d="M39.1247 46.1609H35.9932V49.2924H39.1247V46.1609Z" fill="#FFC000"/>
<path d="M45.3684 46.1609H42.2369V49.2924H45.3684V46.1609Z" fill="#FFC000"/>
<path d="M32.8616 46.1609H29.7301V49.2924H32.8616V46.1609Z" fill="#FFC000"/>
</svg>
