<svg width="73" height="73" viewBox="0 0 73 73" fill="none" xmlns="http://www.w3.org/2000/svg">
<g clip-path="url(#clip0)">
<path d="M66.6854 6.15083C58.4839 -2.05044 45.1394 -2.05044 36.9378 6.15083C33.5372 9.55141 31.4538 13.8697 30.9126 18.6388C30.4519 22.698 31.1939 26.8347 33.0093 30.4606L0.163574 63.3064L9.52979 72.6727L13.3451 68.8574L17.4876 72.9999L26.3774 64.1102L22.2348 59.9676L25.2831 56.9194L29.4256 61.062L38.3154 52.1722L34.1728 48.0296L42.3755 39.8268C46.0016 41.642 50.1383 42.3843 54.1973 41.9235C58.9664 41.3823 63.2848 39.2989 66.6853 35.8983C74.8868 27.697 74.8868 14.3522 66.6854 6.15083ZM63.6603 32.8733C58.1773 38.3565 49.7276 39.3747 43.1124 35.3494L41.6765 34.4757L28.1226 48.0296L32.2652 52.1722L29.4256 55.0118L25.2831 50.8692L16.1845 59.9676L20.3271 64.1102L17.4876 66.9497L13.3451 62.8072L9.52979 66.6225L6.21392 63.3064L38.3606 31.1598L37.4868 29.7239C33.4615 23.1087 34.4799 14.6591 39.9629 9.17593C46.4963 2.64272 57.1268 2.64272 63.6603 9.17593C70.1937 15.7094 70.1937 26.34 63.6603 32.8733Z" fill="#FFC000"/>
<path d="M50.9204 12.0061C48.1883 14.7382 48.1883 19.1836 50.9204 21.916C52.2865 23.2818 54.0808 23.9649 55.8752 23.9649C57.6696 23.9649 59.464 23.2818 60.8301 21.9158H60.8302C63.5621 19.1836 63.5621 14.7382 60.8301 12.0061C58.098 9.27409 53.6524 9.27423 50.9204 12.0061ZM57.8051 18.8907C56.7408 19.955 55.0095 19.9547 53.9458 18.8907C52.8816 17.8266 52.8816 16.0952 53.9456 15.0314C54.4777 14.4993 55.1764 14.2332 55.8754 14.2332C56.5741 14.2332 57.2732 14.4992 57.8051 15.0312C58.8689 16.0954 58.8689 17.8266 57.8051 18.8907Z" fill="#FFC000"/>
</g>
<defs>
<clipPath id="clip0">
<rect width="73" height="73" fill="white"/>
</clipPath>
</defs>
</svg>
