<svg width="47" height="47" viewBox="0 0 47 47" fill="none" xmlns="http://www.w3.org/2000/svg">
<path d="M25.0416 42.8442L36.9752 30.6046C37.286 30.2859 37.286 29.7695 36.9752 29.4508C36.6644 29.1321 36.1609 29.1321 35.8502 29.4508L25.2746 40.2975V4.73262C25.2746 4.28159 24.9188 3.91663 24.479 3.91663C24.0393 3.91663 23.6834 4.28159 23.6834 4.73262V40.2975L13.108 29.4508C12.7972 29.1321 12.2937 29.1321 11.983 29.4508C11.8276 29.6102 11.7499 29.819 11.7499 30.0278C11.7499 30.2365 11.8276 30.4453 11.983 30.6047L23.9166 42.8443C24.2273 43.163 24.7308 43.163 25.0416 42.8442Z" fill="white"/>
</svg>
