<svg xmlns="http://www.w3.org/2000/svg" width="18" height="26" viewBox="0 0 18 26" fill="none">
<path d="M9 0.5C4.17522 0.5 0.25 4.56162 0.25 9.554C0.25 15.7497 8.08039 24.8454 8.41378 25.2295C8.72692 25.5904 9.27365 25.5898 9.58622 25.2295C9.91961 24.8454 17.75 15.7497 17.75 9.554C17.7499 4.56162 13.8247 0.5 9 0.5ZM9 14.1093C6.57254 14.1093 4.5977 12.0658 4.5977 9.554C4.5977 7.04219 6.57258 4.99873 9 4.99873C11.4274 4.99873 13.4023 7.04224 13.4023 9.55405C13.4023 12.0659 11.4274 14.1093 9 14.1093Z" fill="#C22328"/>
</svg>