<svg width="32" height="32" viewBox="0 0 32 32" fill="none" xmlns="http://www.w3.org/2000/svg">
<path d="M27.1934 20.1702C25.5608 20.1702 23.9578 19.9149 22.4387 19.4129C21.6943 19.159 20.7792 19.3919 20.3249 19.8585L17.3265 22.122C13.8492 20.2658 11.7073 18.1245 9.87643 14.6734L12.0733 11.7531C12.6441 11.1831 12.8488 10.3504 12.6035 9.5692C12.0994 8.04211 11.8432 6.43982 11.8432 4.80649C11.8433 3.62656 10.8834 2.66663 9.70352 2.66663H4.8063C3.62643 2.66663 2.6665 3.62656 2.6665 4.80642C2.6665 18.3307 13.6691 29.3333 27.1934 29.3333C28.3733 29.3333 29.3332 28.3734 29.3332 27.1935V22.31C29.3332 21.1302 28.3732 20.1702 27.1934 20.1702Z" fill="#C22328"/>
</svg>
