<svg width="93" height="93" viewBox="0 0 93 93" fill="none" xmlns="http://www.w3.org/2000/svg">
<path fill-rule="evenodd" clip-rule="evenodd" d="M0.900146 15.81C0.900146 7.07831 7.97868 0 16.7101 0H76.2301C84.9616 0 92.0401 7.07831 92.0401 15.81V77.19C92.0401 85.9217 84.9616 93 76.2301 93H19.7894C20.0392 87.6189 21.5922 84.0726 23.4604 81.84H72.5101C77.1329 81.84 80.8801 78.0925 80.8801 73.47V19.53C80.8801 14.9075 77.1329 11.16 72.5101 11.16H20.4301C15.8074 11.16 12.0601 14.9075 12.0601 19.53V67.7917C8.30654 69.5895 4.12699 70.497 0.900146 70.8909V15.81Z" fill="url(#paint0_linear)"/>
<path d="M25.0803 42.8954C25.0803 42.8214 25.1097 42.7505 25.162 42.6982L29.254 38.6061C29.4298 38.4304 29.7303 38.5549 29.7303 38.8034V62.0309C29.7303 62.185 29.6054 62.3099 29.4513 62.3099H25.3593C25.2052 62.3099 25.0803 62.185 25.0803 62.0309V42.8954Z" fill="#3C3A39"/>
<path d="M43.6803 27.1042C43.6803 27.0195 43.7188 26.9393 43.785 26.8864L47.877 23.6127C48.0597 23.4665 48.3303 23.5966 48.3303 23.8305V62.0312C48.3303 62.1852 48.2054 62.3102 48.0513 62.3102H43.9593C43.8052 62.3102 43.6803 62.1852 43.6803 62.0312V27.1042Z" fill="#3C3A39"/>
<path d="M34.3803 34.5256C34.3803 34.4517 34.4097 34.3807 34.462 34.3284L38.554 30.2361C38.7298 30.0604 39.0303 30.1849 39.0303 30.4334V62.0311C39.0303 62.1852 38.9054 62.3101 38.7513 62.3101H34.6593C34.5052 62.3101 34.3803 62.1852 34.3803 62.0311V34.5256Z" fill="#3C3A39"/>
<path d="M52.9803 20.5754C52.9803 20.5014 53.0097 20.4305 53.062 20.3781L57.154 16.2861C57.3298 16.1104 57.6303 16.2349 57.6303 16.4834V62.0309C57.6303 62.1849 57.5054 62.3099 57.3513 62.3099H53.2593C53.1052 62.3099 52.9803 62.1849 52.9803 62.0309V20.5754Z" fill="#3C3A39"/>
<path d="M62.2803 22.0634C62.2803 21.8149 62.5808 21.6904 62.7566 21.8661L66.8486 25.9581C66.9009 26.0105 66.9303 26.0814 66.9303 26.1554V62.0316C66.9303 62.1857 66.8054 62.3106 66.6513 62.3106H62.5593C62.4052 62.3106 62.2803 62.1857 62.2803 62.0316V22.0634Z" fill="#3C3A39"/>
<path d="M34.1421 67.622C34.1421 67.9171 34.038 68.1688 33.8297 68.3772C33.63 68.5768 33.3783 68.6766 33.0745 68.6766H27.8535V69.7833H32.749C33.1136 69.7833 33.426 69.9135 33.6864 70.1739C33.9468 70.4256 34.077 70.7338 34.077 71.0983V74.0409C34.077 74.4054 33.9512 74.7136 33.6995 74.9653C33.4477 75.2083 33.1396 75.3298 32.775 75.3298H26.7598C26.4473 75.3298 26.1869 75.2344 25.9786 75.0434C25.7703 74.8438 25.6661 74.5877 25.6661 74.2752C25.6661 73.9627 25.7703 73.698 25.9786 73.481C26.1869 73.2553 26.4473 73.1425 26.7598 73.1425H31.8767V71.8405H26.9681C26.5862 71.8405 26.2737 71.7233 26.0307 71.4889C25.7876 71.2459 25.6661 70.9334 25.6661 70.5515V67.8043C25.6661 67.4571 25.792 67.1533 26.0437 66.8929C26.2954 66.6238 26.5949 66.4893 26.9421 66.4893H33.0485C33.3523 66.4893 33.6083 66.6021 33.8166 66.8278C34.0336 67.0535 34.1421 67.3182 34.1421 67.622Z" fill="#3C3A39"/>
<path d="M44.7888 74.1971C44.7888 74.5183 44.6846 74.796 44.4763 75.0304C44.268 75.2561 44.0032 75.3689 43.6821 75.3689C43.4998 75.3689 43.2437 75.2647 42.9139 75.0564L38.1486 72.0618V74.2882C38.1486 74.5834 38.0401 74.8394 37.8231 75.0564C37.6148 75.2734 37.3587 75.3819 37.0549 75.3819C36.7511 75.3819 36.4907 75.2778 36.2737 75.0694C36.0654 74.8524 35.9612 74.5964 35.9612 74.3013V67.5439C35.9612 67.2314 36.0654 66.971 36.2737 66.7627C36.482 66.5544 36.7424 66.4502 37.0549 66.4502C37.3587 66.4502 37.6148 66.5587 37.8231 66.7757C38.0401 66.984 38.1486 67.2401 38.1486 67.5439V69.5229L42.9139 66.8408C43.2871 66.6325 43.5389 66.5283 43.6691 66.5283C43.9642 66.5283 44.2159 66.6368 44.4242 66.8538C44.6325 67.0708 44.7367 67.3269 44.7367 67.622C44.7367 68.0213 44.6325 68.2773 44.4242 68.3902L39.7761 70.9161L44.4763 73.494C44.6846 73.6069 44.7888 73.8412 44.7888 74.1971Z" fill="#3C3A39"/>
<path d="M48.3786 74.2882C48.3786 74.5834 48.2701 74.8394 48.0531 75.0564C47.8448 75.2734 47.5887 75.3819 47.2849 75.3819C46.9811 75.3819 46.7207 75.2778 46.5037 75.0694C46.2954 74.8524 46.1912 74.592 46.1912 74.2882V67.5439C46.1912 67.2314 46.2954 66.971 46.5037 66.7627C46.712 66.5544 46.9724 66.4502 47.2849 66.4502C47.5887 66.4502 47.8448 66.5587 48.0531 66.7757C48.2701 66.984 48.3786 67.2401 48.3786 67.5439V74.2882Z" fill="#3C3A39"/>
<path d="M57.7362 67.5829C57.7362 67.8867 57.6277 68.1471 57.4107 68.3641C57.1937 68.5725 56.9333 68.6766 56.6295 68.6766H52.0986V69.7833H56.1478C56.4342 69.7833 56.6773 69.8831 56.8769 70.0828C57.0852 70.2824 57.1894 70.5255 57.1894 70.8119C57.1894 71.0983 57.0852 71.3414 56.8769 71.541C56.6773 71.7407 56.4342 71.8405 56.1478 71.8405H52.0986V74.2882C52.0986 74.5834 51.9901 74.8394 51.7731 75.0564C51.5648 75.2734 51.3087 75.3819 51.0049 75.3819C50.7011 75.3819 50.4407 75.2778 50.2237 75.0694C50.0154 74.8524 49.9112 74.592 49.9112 74.2882V66.4893H56.6295C56.942 66.4893 57.2024 66.5934 57.4107 66.8017C57.6277 67.0101 57.7362 67.2705 57.7362 67.5829Z" fill="#3C3A39"/>
<path d="M67.0362 67.5829C67.0362 67.8867 66.9277 68.1471 66.7107 68.3641C66.4937 68.5725 66.2333 68.6766 65.9295 68.6766H61.3986V69.7833H65.4478C65.7342 69.7833 65.9773 69.8831 66.1769 70.0828C66.3852 70.2824 66.4894 70.5255 66.4894 70.8119C66.4894 71.0983 66.3852 71.3414 66.1769 71.541C65.9773 71.7407 65.7342 71.8405 65.4478 71.8405H61.3986V74.2882C61.3986 74.5834 61.2901 74.8394 61.0731 75.0564C60.8648 75.2734 60.6087 75.3819 60.3049 75.3819C60.0011 75.3819 59.7407 75.2778 59.5237 75.0694C59.3154 74.8524 59.2112 74.592 59.2112 74.2882V66.4893H65.9295C66.242 66.4893 66.5024 66.5934 66.7107 66.8017C66.9277 67.0101 67.0362 67.2705 67.0362 67.5829Z" fill="#3C3A39"/>
<defs>
<linearGradient id="paint0_linear" x1="9.73515" y1="-10.23" x2="46.4701" y2="93" gradientUnits="userSpaceOnUse">
<stop stop-color="#B0B0B0"/>
<stop offset="1" stop-color="#3C3A39"/>
</linearGradient>
</defs>
</svg>
