<svg width="26" height="19" viewBox="0 0 26 19" fill="none" xmlns="http://www.w3.org/2000/svg">
<path d="M1.02187 1.52129C4.45302 4.4271 10.4736 9.5393 12.2432 11.1333C12.4807 11.3484 12.7355 11.4578 13 11.4578C13.264 11.4578 13.5183 11.3495 13.7553 11.1353C15.5264 9.53979 21.547 4.4271 24.9782 1.52129C25.1918 1.34072 25.2244 1.02334 25.0514 0.802587C24.6516 0.29248 24.0555 0 23.4166 0H2.58335C1.94453 0 1.34838 0.29248 0.948629 0.802637C0.77568 1.02334 0.808248 1.34072 1.02187 1.52129Z" fill="#C22328"/>
<path d="M25.1979 3.096C25.0133 3.01007 24.7961 3.04005 24.6425 3.1713C20.8374 6.39698 15.9811 10.5316 14.4531 11.9085C13.5956 12.6826 12.4054 12.6826 11.5458 11.9074C9.91719 10.44 4.46367 5.80391 1.35752 3.17125C1.20288 3.04 0.985205 3.01104 0.8021 3.09596C0.618018 3.18145 0.5 3.36558 0.5 3.56851V16.6667C0.5 17.8157 1.43433 18.75 2.58335 18.75H23.4167C24.5657 18.75 25.5 17.8157 25.5 16.6667V3.56851C25.5 3.36558 25.382 3.18097 25.1979 3.096Z" fill="#C22328"/>
</svg>
