<svg width="152" height="152" viewBox="0 0 152 152" fill="none" xmlns="http://www.w3.org/2000/svg">
<path d="M75.5226 7.64798C87.4665 7.64798 99.4294 11.0597 110.118 17.5151C116.898 21.6199 122.989 26.7787 128.165 32.8027L110.308 32.21C108.211 32.1395 106.455 33.7945 106.386 35.9061C106.317 38.0165 107.96 39.7851 110.059 39.8532L134.765 40.6741C136.184 41.2621 137.815 40.9334 138.901 39.84C139.985 38.7466 140.309 37.1047 139.722 35.6767L138.909 10.8207C138.862 8.70914 137.122 7.03615 135.024 7.08275C132.926 7.13055 131.262 8.88122 131.309 10.9916C131.309 11.0203 131.309 11.0466 131.311 11.074L131.782 25.414C126.554 19.7927 120.58 14.9255 114.029 10.9545C102.159 3.78814 88.844 0 75.5226 0C54.2426 0 34.6228 8.82984 20.2849 24.8619C7.58338 39.0645 0 58.1808 0 75.9995C0 78.111 1.7005 79.8234 3.8 79.8234C5.8995 79.8234 7.6 78.111 7.6 75.9995C7.6 60.0188 14.4531 42.8144 25.9338 29.9789C38.8134 15.5804 56.4229 7.64798 75.5226 7.64798Z" fill="#E0E0E0"/>
<path d="M148.2 72.1754C146.1 72.1754 144.4 73.8866 144.4 75.9994C144.4 91.9789 137.547 109.184 126.066 122.021C113.187 136.42 95.5771 144.35 76.4774 144.35C64.5335 144.35 52.5706 140.94 41.8819 134.485C35.1025 130.379 29.0106 125.22 23.8355 119.197L41.6919 119.79C43.789 119.858 45.5454 118.203 45.6142 116.093C45.6831 113.982 44.0396 112.215 41.9413 112.144L17.2354 111.325C15.8163 110.737 14.1847 111.067 13.0993 112.159C12.0151 113.252 11.6909 114.893 12.2775 116.321L13.091 141.177C13.1385 143.29 14.8782 144.964 16.9765 144.916C19.0736 144.869 20.7385 143.119 20.691 141.007C20.691 140.98 20.691 140.953 20.6886 140.925L20.2184 126.585C25.4457 132.207 31.42 137.072 37.9715 141.045C49.8405 148.213 63.156 152 76.4774 152C97.7574 152 117.377 143.171 131.715 127.139C144.417 112.936 152 93.8192 152 75.9994C152 73.8866 150.299 72.1754 148.2 72.1754Z" fill="#E0E0E0"/>
</svg>
