<svg width="24" height="24" viewBox="0 0 24 24" fill="none" xmlns="http://www.w3.org/2000/svg">
<path d="M22 21.1162L15.2217 14.338C16.3288 13.0307 17 11.3433 17 9.50001C17 5.36425 13.6357 2 9.50001 2C5.36429 2 2 5.36425 2 9.50001C2 13.6358 5.36425 17 9.50001 17C11.3433 17 13.0307 16.3288 14.338 15.2217L21.1162 22L22 21.1162ZM9.50001 15.75C6.05396 15.75 3.25001 12.9461 3.25001 9.50001C3.25001 6.05396 6.05396 3.25001 9.50001 3.25001C12.9461 3.25001 15.75 6.05396 15.75 9.50001C15.75 12.9461 12.9461 15.75 9.50001 15.75Z" fill="white"/>
</svg>
