<svg width="110" height="110" viewBox="0 0 110 110" fill="none" xmlns="http://www.w3.org/2000/svg">
<path d="M45.5828 56.8842L60.9203 28.6307H63.6111L79.0384 49.0808L79.6662 52.3098L46.6591 59.3956L45.5828 56.8842Z" fill="#C22328"/>
<path d="M10.6949 100.832H84.028C84.8721 100.832 85.5561 100.148 85.5561 99.3042V85.5541H96.2501C97.0942 85.5541 97.7782 84.8701 97.7782 84.0266V68.7484C97.7782 67.9049 97.0942 67.2209 96.2501 67.2209H85.5561V53.4708C85.5561 52.6266 84.8721 51.9427 84.028 51.9427H81.2242C81.4396 50.944 81.2117 49.9005 80.5997 49.0823L73.6963 39.88L76.884 37.4889C78.3002 36.4287 79.0912 34.7292 78.9912 32.9626L78.838 30.2113C78.7961 29.4651 79.1303 28.7476 79.7283 28.2993L82.9153 25.9089L84.2567 27.6964C84.4994 28.0202 84.8609 28.2349 85.2624 28.2923C85.3337 28.3021 85.4057 28.3077 85.4785 28.307C85.8093 28.3077 86.131 28.2 86.3953 28.0014L99.0007 18.5453C101.025 17.0269 101.435 14.1547 99.9168 12.13L99.0678 10.997C97.5474 8.97518 94.6765 8.56605 92.6511 10.0823L80.0472 19.5377C79.3723 20.044 79.2353 21.0021 79.7416 21.677L81.0823 23.4646L77.8953 25.8557C76.4791 26.9159 75.6874 28.6147 75.7881 30.3813L75.9406 33.1326C75.9832 33.8788 75.6489 34.5971 75.051 35.0446L71.864 37.4358L64.9599 28.2335C64.2374 27.2551 63.0639 26.7159 61.8505 26.8047C60.693 26.8887 59.6587 27.5601 59.1097 28.5832L46.5561 51.9427H10.6949C9.85073 51.9427 9.16675 52.6266 9.16675 53.4708V68.7484C9.16675 69.5925 9.85073 70.2765 10.6949 70.2765H21.3888V82.4985H10.6949C9.85073 82.4985 9.16675 83.1825 9.16675 84.0266V99.3042C9.16675 100.148 9.85073 100.832 10.6949 100.832ZM94.4849 12.5258C95.159 12.0195 96.1165 12.1559 96.6235 12.8308L97.4725 13.9637C97.9782 14.6386 97.8411 15.5954 97.1669 16.1017L85.7834 24.6416L83.1013 21.0651L94.4849 12.5258ZM36.6671 85.5541H58.0557V97.7761H36.6671V85.5541ZM48.8892 70.2765H70.2778V82.4985H48.8892V70.2765ZM82.5006 97.7761H61.1113V85.5541H82.5006V97.7761ZM94.7227 82.4985H73.3333V70.2765H94.7227V82.4985ZM82.5006 67.2209H61.1113V58.3244L76.749 54.9982H82.5006V67.2209ZM61.8022 30.0309C61.854 29.9239 61.9617 29.8554 62.0806 29.8519L62.1106 29.8505C62.2729 29.8533 62.4233 29.9337 62.5156 30.0666L69.4183 39.2688L63.1156 43.9972C62.4407 44.5035 62.3037 45.461 62.81 46.1365C63.3163 46.8114 64.2738 46.9478 64.9494 46.4422L71.252 41.7138L78.1554 50.916C78.2652 51.0503 78.2974 51.2314 78.2394 51.3944C78.203 51.5077 78.1072 51.5909 77.9897 51.6119L47.68 58.0572C47.4919 58.0866 47.303 58.0061 47.1946 57.8495C47.0729 57.7026 47.0485 57.4984 47.1317 57.3264L61.8022 30.0309ZM44.751 59.6832C45.5651 60.8029 46.9624 61.3365 48.3157 61.0456L58.0557 58.9741V67.2209H36.6671V54.9982H44.9133L44.4398 55.8794C43.7852 57.0984 43.9076 58.5873 44.751 59.6832ZM12.2223 61.1099L11.5885 63.9699C12.4326 63.9699 12.2223 60.4191 12.2223 59.575C12.2223 58.7315 12.4326 55.9872 11.5885 55.9872L12.2223 58.0544V54.9982H33.6116V67.2209H12.2223V61.1099ZM24.4443 70.2765H45.8337V82.4985H24.4443V70.2765ZM12.2223 85.5541H33.6116V97.7761H12.2223V85.5541Z" fill="black"/>
</svg>
