<svg width="110" height="110" viewBox="0 0 110 110" fill="none" xmlns="http://www.w3.org/2000/svg">
<path fill-rule="evenodd" clip-rule="evenodd" d="M39.3345 71.1131L58.939 51.4191C58.5212 43.5415 61.7856 29.8989 78.1854 38.3494C80.4532 39.9608 84.7202 44.4904 83.646 49.7183L65.4738 62.7879C63.5044 62.9371 59.6909 64.4172 60.1922 69.1437L55.5373 71.1131L53.8364 75.231L49.0024 77.4689L47.1226 82.1239H37.4546L39.3345 71.1131ZM73.2619 49.6286C75.3384 49.6286 77.0217 47.9453 77.0217 45.8689C77.0217 43.7924 75.3384 42.1091 73.2619 42.1091C71.1855 42.1091 69.5022 43.7924 69.5022 45.8689C69.5022 47.9453 71.1855 49.6286 73.2619 49.6286Z" fill="#C22328"/>
<path d="M99.5776 60.9462L85.3876 50.6276C89.5492 47.6118 90.8876 41.0805 90.1619 36.9815C89.8617 34.5094 88.3467 32.3507 86.124 31.2279C83.7199 30.2345 80.9899 30.421 78.7433 31.732L46.7058 9.44024C46.1814 9.0755 45.4854 9.0755 44.9611 9.44024L9.82216 33.8847C9.41154 34.1703 9.16672 34.6388 9.16675 35.139V44.3057C9.16729 44.8742 9.48354 45.3955 9.98759 45.6586C10.4916 45.9217 11.1001 45.8831 11.5669 45.5584L13.7501 44.0398V80.9723C13.7501 81.8161 14.4341 82.5001 15.2779 82.5001H35.139C35.1481 82.5733 35.1624 82.6458 35.1817 82.717C35.1994 82.9282 35.2756 83.1304 35.4018 83.3007C35.4261 83.3584 35.4541 83.4146 35.4858 83.4687C35.5011 83.487 35.5255 83.4947 35.5408 83.513C35.5561 83.5313 35.5667 83.5604 35.5866 83.5802C35.7395 83.6819 35.8923 83.7838 36.0449 83.8858C36.24 83.9761 36.4518 84.0245 36.6667 84.0279H46.2154C47.3064 84.0273 48.3144 83.445 48.8599 82.5001H64.1667V97.7779C64.1667 99.4654 65.5348 100.833 67.2223 100.833H97.7779C99.4654 100.833 100.833 99.4654 100.833 97.7779V63.4181C100.832 62.4414 100.365 61.5237 99.5776 60.9462ZM84.8361 33.9993C86.1483 34.7085 87.0184 36.0276 87.1537 37.5132C87.6276 40.7894 86.8325 44.123 84.9308 46.8326C84.7756 44.8644 84.1988 42.9527 83.2395 41.2272C82.8898 40.5961 82.4897 39.9943 82.0433 39.4275C80.9559 38.0711 79.6267 36.9279 78.123 36.0557C78.6464 35.4639 79.2587 34.9572 79.938 34.5538C81.3861 33.591 83.2093 33.3845 84.8361 33.9993ZM72.3205 44.683C72.5934 44.4057 72.9689 44.2536 73.3579 44.2629C73.4236 44.2629 73.4893 44.2629 73.5565 44.2736C73.8969 44.2894 74.2199 44.4284 74.4655 44.6647C74.6647 44.873 74.8017 45.1328 74.8612 45.4148V46.1909C74.7949 46.4347 74.6677 46.6577 74.4915 46.8387C74.2045 47.1284 73.8137 47.2914 73.406 47.2914C72.9982 47.2914 72.6074 47.1284 72.3205 46.8387C72.0301 46.5537 71.8665 46.1639 71.8665 45.757C71.8665 45.3502 72.0301 44.9604 72.3205 44.6754V44.683ZM12.2223 35.9365L45.8334 12.5615L76.1873 33.6769C75.9368 33.9305 75.6709 34.1612 75.4417 34.4408C75.3531 34.5508 75.2783 34.6745 75.1927 34.7876C73.416 34.244 71.547 34.0693 69.7004 34.2743C69.5751 34.288 69.4513 34.314 69.3261 34.3323L46.7058 18.6069C46.1814 18.2422 45.4854 18.2422 44.9611 18.6069L12.2223 41.3784V35.9365ZM16.8056 48.889H24.4445C25.2883 48.889 25.9723 49.573 25.9723 50.4168V65.6945C25.9723 66.5383 25.2883 67.2223 24.4445 67.2223H16.8056V48.889ZM16.8056 70.2779H24.4445C26.9758 70.2779 29.0279 68.2258 29.0279 65.6945V50.4168C29.0279 47.8855 26.9758 45.8334 24.4445 45.8334H16.8056V41.9147L45.8334 21.722L65.5418 35.4308C61.0564 37.4493 58.0088 41.7304 57.5698 46.6294C56.8128 46.1115 55.9172 45.8341 55.0001 45.8334H36.6667C34.1354 45.8334 32.0834 47.8855 32.0834 50.4168V79.4445H16.8056V70.2779ZM37.3237 71.4008L35.718 79.4445H35.139V50.4168C35.139 49.573 35.823 48.889 36.6667 48.889H55.0001C55.8438 48.889 56.5279 49.573 56.5279 50.4168V51.8452L37.7362 70.6186C37.5241 70.8326 37.3806 71.1049 37.3237 71.4008ZM40.3548 80.9723L56.1108 65.2163C56.7073 64.6194 56.707 63.6518 56.11 63.0553C55.513 62.4588 54.5455 62.4591 53.949 63.0561L39.1524 77.8541L40.2295 72.4519L59.1251 53.5625L59.1327 53.5548L60.5199 52.1691C60.9082 51.7807 61.0581 51.2137 60.9126 50.6841C59.935 47.0746 60.9222 43.2168 63.5134 40.5205C66.1046 37.8242 69.9201 36.6844 73.5656 37.5177C73.4129 37.8676 73.2479 38.2175 73.1211 38.5673C72.7891 39.469 72.5296 40.3958 72.3449 41.3387C71.5108 41.5204 70.7456 41.9359 70.1388 42.5365C69.2818 43.3962 68.8018 44.5615 68.8047 45.7755C68.8075 46.9894 69.293 48.1524 70.1541 49.0082C71.0123 49.8645 72.1761 50.3439 73.3884 50.3404C74.6051 50.3416 75.773 49.8623 76.638 49.0066C77.2767 48.3684 77.7103 47.5539 77.8831 46.6676C77.8831 46.6355 77.8954 46.6019 77.8984 46.5683C78.0127 46.0366 78.0127 45.4867 77.8984 44.955C77.7398 44.0279 77.296 43.1734 76.6288 42.5105C76.2694 42.1635 75.8568 41.8762 75.4066 41.6595C75.5579 40.9716 75.7559 40.2947 75.9994 39.6337C76.1262 39.2854 76.2759 38.9401 76.4379 38.5979C77.6776 39.2914 78.7713 40.2186 79.6584 41.328C80.0002 41.766 80.3067 42.2304 80.5751 42.7168C81.6389 44.6556 82.0755 46.8766 81.8248 49.0738C81.749 49.1043 81.676 49.1411 81.6063 49.1838L65.4394 60.934C65.0616 61.2042 64.7528 61.5596 64.538 61.9713L62.2173 62.4404C61.0044 62.678 60.0541 63.6229 59.8095 64.8344L59.1251 68.2444L55.7105 68.9182C54.5049 69.1656 53.5654 70.1123 53.3272 71.3198L52.6534 74.7222L49.2327 75.3975C48.0281 75.6453 47.0895 76.5911 46.8509 77.7976L46.2154 80.9723H40.3548ZM49.6345 79.4445L49.8423 78.3919L53.2523 77.7197C54.4677 77.4887 55.417 76.5358 55.6433 75.3195L56.3155 71.9172L56.5279 71.8729V79.4445H49.6345ZM59.5834 79.4445V71.2694L59.7362 71.2404C60.9529 71 61.9036 70.0481 62.1424 68.8311L62.8254 65.4348L64.1667 65.1629V79.4445H59.5834ZM97.7779 63.4181V97.7779H67.2223V63.4151L82.5001 52.3051L97.7779 63.4136V63.4181Z" fill="black"/>
<path d="M81.4197 66.1423L73.7808 73.7811L70.7253 76.8367C70.1463 77.4362 70.1545 78.3891 70.7439 78.9784C71.3332 79.5677 72.2861 79.576 72.8855 78.997L73.3332 78.5493V90.1391C73.3332 90.9828 74.0172 91.6668 74.8609 91.6668H90.1387C90.9825 91.6668 91.6665 90.9828 91.6665 90.1391V78.5493L92.1141 78.997C92.7136 79.576 93.6665 79.5677 94.2558 78.9784C94.8451 78.3891 94.8534 77.4362 94.2744 76.8367L91.2189 73.7811L83.58 66.1423C82.9834 65.5458 82.0163 65.5458 81.4197 66.1423ZM88.611 88.6113H84.0276V85.5557C84.0276 84.712 83.3436 84.028 82.4998 84.028C81.6561 84.028 80.9721 84.712 80.9721 85.5557V88.6113H76.3887V75.4938L82.4998 69.3827L88.611 75.4938V88.6113Z" fill="black"/>
</svg>
