<svg width="110" height="110" viewBox="0 0 110 110" fill="none" xmlns="http://www.w3.org/2000/svg">
<path d="M12.6777 23.582C12.6777 22.9696 13.1742 22.4732 13.7866 22.4732H51.8578C52.4703 22.4732 52.9667 22.9696 52.9667 23.582V27.0935C52.9667 27.7059 52.4703 28.2023 51.8578 28.2023H13.7866C13.1742 28.2023 12.6777 27.7059 12.6777 27.0935V23.582Z" fill="#C22328"/>
<path d="M25.3373 10.5528C16.836 11.4399 14.7107 19.4238 14.7107 23.3048H50.8414C50.6935 15.5427 44.3114 11.5693 41.1388 10.5528C39.4138 10.1832 33.8387 9.6657 25.3373 10.5528Z" fill="#C22328"/>
<path d="M83.0913 74.2206V77.392C81.3836 77.9331 80.1343 79.5136 80.1343 81.3972C80.1343 83.0043 81.0273 84.4503 82.4673 85.1718L85.3504 86.6133C85.7807 86.8277 86.0483 87.2609 86.0483 87.7429C86.0483 88.4378 85.482 89.0055 84.7856 89.0055H84.3539C83.6575 89.0055 83.0913 88.4378 83.0913 87.7429V86.0485H80.1343V87.7429C80.1343 89.628 81.3836 91.2085 83.0913 91.7481V94.9195H86.0483V91.7481C87.7559 91.207 89.0052 89.6265 89.0052 87.7429C89.0052 86.1358 88.1122 84.6898 86.6722 83.9683L83.7891 82.5268C83.3589 82.3124 83.0913 81.8792 83.0913 81.3972C83.0913 80.7023 83.6575 80.1346 84.3539 80.1346H84.7856C85.482 80.1346 86.0483 80.7023 86.0483 81.3972V83.0915H89.0052V81.3972C89.0052 79.5121 87.7559 77.9316 86.0483 77.392V74.2206H83.0913Z" fill="black"/>
<path d="M96.3977 41.6936C98.8431 41.6936 100.833 39.7035 100.833 37.2581V13.6022C100.833 11.1567 98.8431 9.16669 96.3977 9.16669H72.7418C70.2963 9.16669 68.3063 11.1567 68.3063 13.6022V23.9516H54.9998C54.9998 22.3209 53.6736 20.9946 52.0428 20.9946H51.9556C51.2164 14.3518 45.573 9.16669 38.7364 9.16669H26.9084C20.0719 9.16669 14.427 14.3518 13.6892 20.9946H13.602C11.9712 20.9946 10.645 22.3209 10.645 23.9516V26.9086C10.645 28.5394 11.9712 29.8656 13.602 29.8656V37.3616C13.602 44.1035 17.8423 50.2215 24.1555 52.5901L25.4299 53.0676V56.857C15.799 59.9914 9.1665 69.0398 9.1665 79.2503C9.1665 87.8891 16.1953 94.9194 24.8356 94.9194H38.7364V96.3979C38.7364 98.8433 40.7264 100.833 43.1719 100.833H60.9138C63.3592 100.833 65.3493 98.8433 65.3493 96.3979V86.0484H68.3817C69.1313 94.325 76.1009 100.833 84.5697 100.833C93.5368 100.833 100.833 93.537 100.833 84.5699C100.833 76.1011 94.3248 69.1315 86.0482 68.3819V59.1635C87.7647 58.5514 89.0052 56.925 89.0052 55C89.0052 53.075 87.7647 51.4487 86.0482 50.8366V41.6936H96.3977ZM80.1342 12.1237H89.0052V18.0377H80.1342V12.1237ZM71.2633 13.6022C71.2633 12.786 71.9271 12.1237 72.7418 12.1237H77.1773V20.9946H91.9622V12.1237H96.3977C97.2123 12.1237 97.8762 12.786 97.8762 13.6022V37.2581C97.8762 38.0742 97.2123 38.7366 96.3977 38.7366H72.7418C71.9271 38.7366 71.2633 38.0742 71.2633 37.2581V13.6022ZM26.9084 12.1237H38.7364C43.9392 12.1237 48.2461 15.9885 48.9676 20.9946H16.6773C17.3988 15.9885 21.7056 12.1237 26.9084 12.1237ZM13.602 23.9516H52.0428V26.9086L13.602 26.9101V23.9516ZM48.8242 37.3113C48.9942 37.5686 49.0859 37.8687 49.0859 38.1792C49.0859 38.8711 48.7014 39.4936 48.082 39.8041L46.1289 40.7799V46.1291C46.1289 48.5745 44.1388 50.5645 41.6934 50.5645H34.3009V57.4647L31.3439 61.4063L28.3869 57.4647V45.3898L23.8539 41.9893C22.9889 41.3417 22.473 40.3082 22.473 39.2289C22.473 37.3276 24.0209 35.7796 25.9223 35.7796H28.3869V29.8656H46.1289V33.2706L48.8242 37.3113ZM36.4418 59.5375L36.9031 59.5981L36.1283 66.5633L33.2955 63.732L36.4418 59.5375ZM26.3555 59.6839L29.3923 63.7335L26.5595 66.5648L25.8144 59.8569C25.9918 59.7918 26.1751 59.7415 26.3555 59.6839ZM25.1934 49.8209C20.029 47.8855 16.559 42.8778 16.559 37.3616V29.8656H25.4299V32.8418C22.127 33.0946 19.516 35.8624 19.516 39.2289C19.516 41.2338 20.474 43.1499 22.0782 44.3549L25.4299 46.8683V49.9096L25.1934 49.8209ZM12.1235 79.2488C12.1235 71.571 16.4215 64.6546 22.9801 61.1225L24.3004 73.0066L31.3439 65.9616L38.3875 73.0066L39.829 60.0313C46.2264 61.2747 51.5949 65.4323 54.4114 71.2635H43.1719C40.7264 71.2635 38.7364 73.2535 38.7364 75.6989V80.1699C37.2949 80.2571 35.945 80.8367 34.913 81.8672L33.6888 83.0914H27.0873C25.4846 83.0914 23.9145 82.4409 22.779 81.3069C21.6287 80.1566 20.9945 78.6264 20.9945 76.9985V72.742H18.0375V76.9985C18.0375 79.4174 18.9793 81.6898 20.6884 83.3975C22.399 85.1066 24.6715 86.0484 27.0873 86.0484H32.8224V91.9624H24.8356C17.826 91.9624 12.1235 86.2598 12.1235 79.2488ZM35.7794 85.182L37.0036 83.9578C37.5639 83.3989 38.3062 83.0914 39.0957 83.0914H41.6934C43.3242 83.0914 44.6504 84.4176 44.6504 86.0484V89.0054C44.6504 90.6362 43.3242 91.9624 41.6934 91.9624H35.7794V85.182ZM62.3923 96.3979C62.3923 97.214 61.7285 97.8764 60.9138 97.8764H43.1719C42.3572 97.8764 41.6934 97.214 41.6934 96.3979V94.9194C44.9549 94.9194 47.6074 92.267 47.6074 89.0054V86.0484C47.6074 82.7868 44.9549 80.1344 41.6934 80.1344V75.6989C41.6934 74.8828 42.3572 74.2204 43.1719 74.2204H60.9138C61.7285 74.2204 62.3923 74.8828 62.3923 75.6989V96.3979ZM97.8762 84.5699C97.8762 91.9077 91.906 97.8764 84.5697 97.8764C77.2334 97.8764 71.2633 91.9077 71.2633 84.5699C71.2633 77.2321 77.2334 71.2635 84.5697 71.2635C91.906 71.2635 97.8762 77.2321 97.8762 84.5699ZM84.5697 56.4785C83.7551 56.4785 83.0912 55.8161 83.0912 55C83.0912 54.1839 83.7551 53.5215 84.5697 53.5215C85.3844 53.5215 86.0482 54.1839 86.0482 55C86.0482 55.8161 85.3844 56.4785 84.5697 56.4785ZM83.0912 50.8366C81.3747 51.4487 80.1342 53.075 80.1342 55C80.1342 56.925 81.3747 58.5514 83.0912 59.1635V68.3819C75.3025 69.0886 69.0869 75.3027 68.3817 83.0914H65.3493V75.6989C65.3493 73.2535 63.3592 71.2635 60.9138 71.2635H57.6478C54.4454 63.4866 47.3959 58.0147 38.9981 56.894L37.2579 56.6618V53.5215H41.6934C45.7696 53.5215 49.0859 50.2053 49.0859 46.1291V42.6073L49.4052 42.4491C51.0316 41.6329 52.0428 39.9992 52.0428 38.1792C52.0428 37.2847 51.7812 36.4168 51.2844 35.6717L49.0859 32.3746V29.8656H52.0428C53.6736 29.8656 54.9998 28.5394 54.9998 26.9086H68.3063V37.2581C68.3063 39.7035 70.2963 41.6936 72.7418 41.6936H83.0912V50.8366Z" fill="black"/>
<path d="M47.6069 77.1776H56.4779V80.1346H47.6069V77.1776Z" fill="black"/>
</svg>
