<svg width="110" height="110" viewBox="0 0 110 110" fill="none" xmlns="http://www.w3.org/2000/svg">
<path d="M65.584 16.0934H44.5061C43.932 20.3189 38.5265 24.7144 35.8955 26.3839C36.4337 29.4498 38.4607 37.2208 42.2637 43.7775C46.0667 50.3343 52.6981 54.4019 55.5384 55.6161C63.5031 51.7549 69.1419 42.0473 70.9656 37.6761L73.477 26.3839C70.2481 25.364 66.8696 19.0986 65.584 16.0934Z" fill="#C22328"/>
<path d="M53.4523 41.5643C54.0496 42.1402 55.0427 42.0237 55.4965 41.3286L64.4337 27.6342C64.8435 27.0065 64.6743 26.1602 64.056 25.7441C63.4385 25.3287 62.6049 25.5005 62.195 26.1275L54.1412 38.4684L49.666 34.1541C49.1282 33.6357 48.2784 33.6584 47.7672 34.2045C47.2567 34.7505 47.279 35.6132 47.8169 36.1316C47.8162 36.1316 53.4474 41.56 53.4523 41.5643Z" fill="black"/>
<path d="M54.3696 62.3576C54.6262 62.4769 54.9102 62.5401 55.1927 62.5401H55.2039C55.4914 62.5387 55.7795 62.4719 56.0369 62.347C76.4554 52.4877 79.9158 31.2156 80.4893 24.9308C80.6208 23.4958 79.8249 22.1594 78.5094 21.6056C74.4447 19.8922 71.6816 16.0607 71.2983 11.6065C71.1801 10.2353 70.0262 9.16669 68.6666 9.16669H68.6505L41.1419 9.33071C39.755 9.33852 38.6284 10.4086 38.5221 11.8195C38.1836 16.2751 35.4609 20.1343 31.4165 21.891C30.1143 22.4563 29.338 23.7997 29.4863 25.234C30.1325 31.5117 33.8384 52.7419 54.3696 62.3576ZM32.4726 24.3976C37.4317 22.2447 40.7726 17.5178 41.1971 12.0566L68.6268 11.8933C69.1142 17.3424 72.5026 22.026 77.48 24.1235C77.7024 24.2179 77.8373 24.4409 77.8157 24.6795C77.2772 30.5695 74.0552 50.4292 55.1878 59.7361C36.2121 50.6558 32.7635 30.8343 32.1565 24.9507C32.132 24.7128 32.2593 24.4906 32.4726 24.3976Z" fill="black"/>
<path d="M37.9584 38.1312C38.1206 38.7376 38.7544 37.9707 39.4832 37.7669C40.1979 37.5667 40.3952 37.2184 40.2007 36.492C39.8587 35.2125 37.7875 28.6631 37.5616 27.3778C41.2094 24.9643 43.9167 21.3622 45.2447 17.155L64.6366 17.0393C66.013 21.2294 68.7615 24.8003 72.4373 27.1698C72.2268 28.4586 70.0379 35.6628 69.7099 36.9473C69.5238 37.6766 70.3377 37.8513 71.0553 38.0401C71.7742 38.229 72.1249 38.314 72.311 37.5848C72.6956 36.0766 74.9242 28.6893 75.1564 27.1783C75.2865 26.334 74.9061 25.504 74.1885 25.0637C70.7644 22.9641 68.2334 19.6701 67.062 15.7889C66.7984 14.9162 65.9878 14.3098 65.0884 14.3098H65.0758L44.7734 14.4305C43.8684 14.4362 43.0585 15.0547 42.8047 15.9337C41.6787 19.8284 39.1855 23.1522 35.7859 25.2931C35.0732 25.7411 34.7033 26.5755 34.8424 27.419C35.0928 28.9265 37.3305 36.6741 37.9584 38.1312Z" fill="black"/>
<path d="M71.5115 35.9985C70.8261 35.7102 70.0414 36.0425 69.7582 36.7384C66.6551 44.3744 61.7428 50.1799 55.1534 54.0008C48.513 50.2538 43.5293 44.4973 40.3388 36.8854C40.0479 36.1931 39.259 35.8707 38.5771 36.1654C37.8946 36.4601 37.577 37.261 37.8673 37.9533C41.3494 46.2597 46.8352 52.5217 54.1722 56.5641C54.4813 56.7352 54.8198 56.8197 55.1576 56.8197C55.5038 56.8197 55.8493 56.731 56.164 56.5528C63.4457 52.428 68.8546 46.1113 72.2409 37.7779C72.5241 37.0821 72.1975 36.2854 71.5115 35.9985Z" fill="black"/>
<path d="M17.782 78.928C15.1629 78.928 13.0312 81.0915 13.0312 83.7514C13.0312 86.4114 15.1629 88.5749 17.782 88.5749C20.4018 88.5749 22.5335 86.4114 22.5335 83.7514C22.5335 81.0915 20.4025 78.928 17.782 78.928ZM17.782 85.8483C16.6435 85.8483 15.7168 84.9081 15.7168 83.7514C15.7168 82.5955 16.6435 81.6546 17.782 81.6546C18.9213 81.6546 19.8479 82.5955 19.8479 83.7514C19.8479 84.9081 18.9213 85.8483 17.782 85.8483Z" fill="black"/>
<path d="M99.8701 65.5811C98.149 63.0135 94.6837 62.3333 92.1457 64.0644L74.5917 75.9928L70.8446 75.7791L70.7487 74.8048C70.3753 70.9897 67.503 67.9499 63.7642 67.4131C63.7405 67.4095 63.7174 67.4067 63.6936 67.4046L44.7787 65.7217C44.1388 65.6202 42.0903 65.023 36.4619 61.7453C33.5364 60.0419 30.2404 59.0805 26.8918 58.9498V55.3832C26.8918 53.5931 25.4581 52.1375 23.695 52.1375H12.3633C10.6009 52.1375 9.1665 53.5938 9.1665 55.3832V90.5108C9.1665 92.3001 10.6009 93.7565 12.3633 93.7565H23.695C25.4574 93.7565 26.8918 92.3001 26.8918 90.5108V89.5429L43.4261 95.9002C43.4625 95.9144 44.8052 96.4242 47.274 96.1877C47.281 96.187 74.747 92.1666 74.747 92.1666C74.754 92.1659 74.7603 92.1645 74.7673 92.1631C77.1143 91.7832 79.3278 90.7756 81.1692 89.2511C81.186 89.2369 81.2021 89.2227 81.2182 89.2085L98.9617 73.0055C101.053 71.1203 101.444 67.9286 99.8701 65.5811ZM97.172 70.9726L79.4474 87.1586C77.9801 88.3664 76.2192 89.1652 74.3533 89.4691L46.9005 93.4874C46.8942 93.4881 46.8851 93.4895 46.8768 93.4909C46.8726 93.4916 46.8677 93.4923 46.8635 93.493C46.0424 93.6244 45.1871 93.569 44.3206 93.3283L26.8918 86.6274V71.0578C26.8918 70.3045 26.2904 69.6945 25.549 69.6945C24.807 69.6945 24.2063 70.3045 24.2063 71.0578V90.5108C24.2063 90.7969 23.9769 91.0298 23.695 91.0298H12.3633C12.0814 91.0298 11.8521 90.7969 11.8521 90.5108V55.3832C11.8521 55.097 12.0814 54.8641 12.3633 54.8641H23.695C23.9769 54.8641 24.2063 55.097 24.2063 55.3832V71.1893C24.2063 71.9426 24.57 72.0089 25.3113 72.0089C26.0533 72.0089 26.8918 71.9419 26.8918 71.1893V61.6793C29.7725 61.8085 32.6063 62.6436 35.1254 64.1113C41.9141 68.0642 43.8101 68.3369 44.4332 68.4263C44.457 68.4299 44.48 68.432 44.5038 68.4349L63.4208 70.1177C65.9148 70.4919 67.8268 72.5255 68.0765 75.0747L68.1478 75.8011L42.8219 77.3888C42.8044 77.3874 42.7869 77.3859 42.7715 77.3845C41.9505 77.3092 41.2091 76.9152 40.6825 76.2747C40.2076 75.696 39.3607 75.6179 38.7914 76.1007C38.2215 76.5828 38.1445 77.4427 38.6201 78.0207C39.6055 79.2207 40.9958 79.9386 42.5323 80.1005C43.3618 80.1886 69.6249 78.4404 69.6249 78.4404L74.8897 78.7407C75.1806 78.7578 75.4694 78.6768 75.7114 78.5121L93.6416 66.3288C94.9585 65.4306 96.7566 65.7828 97.6497 67.1148C98.4658 68.3333 98.263 69.9892 97.172 70.9726Z" fill="black"/>
</svg>
