<?xml version="1.0" encoding="utf-8"?>
<!-- Generator: Adobe Illustrator 18.0.0, SVG Export Plug-In . SVG Version: 6.00 Build 0)  -->
<!DOCTYPE svg PUBLIC "-//W3C//DTD SVG 1.1//EN" "http://www.w3.org/Graphics/SVG/1.1/DTD/svg11.dtd">
<svg version="1.1" id="Слой_1" xmlns="http://www.w3.org/2000/svg" xmlns:xlink="http://www.w3.org/1999/xlink" x="0px" y="0px"
	 viewBox="0 0 21.3 15" enable-background="new 0 0 21.3 15" xml:space="preserve">
<path fill="#689BD7" d="M1.9,0h17.6c1,0,1.9,0.8,1.9,1.9v11.3c0,1-0.8,1.9-1.9,1.9H1.9c-1,0-1.9-0.8-1.9-1.9V1.9C0,0.8,0.8,0,1.9,0z
	 M2.1,1.3c0.4,0.4,7,6.9,7.2,7.2C9.7,8.8,10.2,9,10.7,9s1-0.2,1.3-0.6c0.2-0.2,6.7-6.6,7.2-7.2H2.1z M20.1,12.9V2.1l-5.4,5.4
	L20.1,12.9z M19.2,13.8l-5.4-5.4l-0.9,0.9c-0.6,0.6-1.4,0.9-2.2,0.9c-0.8,0-1.6-0.3-2.2-0.9L7.5,8.4l-5.4,5.4H19.2z M1.2,12.9
	l5.4-5.4L1.2,2.1V12.9z"/>
</svg>
