<svg width="39" height="39" viewBox="0 0 39 39" fill="none" xmlns="http://www.w3.org/2000/svg">
<g clip-path="url(#clip0)">
<path d="M2.72095 30.9677H9.99548V29.1829H4.82351V25.1452H9.66864V23.3877H4.82351V19.886H9.99548V18.1093H2.72095V30.9677Z" fill="#66BF01"/>
<path d="M18.2449 19.7277C18.777 19.7277 19.2878 19.8051 19.7691 19.9596C20.2539 20.1155 20.7118 20.2959 21.1454 20.5008L21.9032 18.7503C20.7881 18.1989 19.5757 17.924 18.2606 17.924C17.0107 17.924 15.9258 18.1905 14.9982 18.7241C14.072 19.2579 13.3654 20.0272 12.8746 21.0294C12.3856 22.0317 12.1404 23.2017 12.1404 24.5385C12.1404 26.6617 12.6441 28.2935 13.6527 29.4334C14.6612 30.5736 16.1052 31.1443 17.9899 31.1443C19.2678 31.1443 20.4115 30.9548 21.4183 30.5722V28.7695C20.867 28.9398 20.3366 29.0789 19.8258 29.1864C19.3151 29.2947 18.7879 29.3486 18.2438 29.3486C16.9827 29.3486 16.018 28.9433 15.3541 28.1341C14.6871 27.3259 14.3543 26.1321 14.3543 24.5543C14.3543 23.0472 14.7022 21.8663 15.393 21.0105C16.0866 20.1558 17.0367 19.7277 18.2449 19.7277Z" fill="#66BF01"/>
<path d="M41.4933 8.26451C41.3493 8.21301 41.1212 8.10442 40.8533 8.04452C40.5825 7.98041 40.2178 7.86901 39.8486 7.85325C39.4765 7.83118 39.0558 7.83608 38.5969 7.87602C38.1513 7.93137 37.7001 8.04697 37.2181 8.192C36.7389 8.33878 36.2999 8.56613 35.8347 8.81415C35.3793 9.06952 34.9691 9.38235 34.5592 9.7225C34.1732 10.0714 33.8064 10.4529 33.4729 10.8596C33.1685 11.2733 32.8616 11.7018 32.6336 12.1526C32.3961 12.6003 32.1922 13.0606 32.0521 13.5283C31.7491 14.4555 31.6506 15.4003 31.6709 16.2376C31.6902 16.6625 31.7333 17.0552 31.7991 17.4146C31.8615 17.766 31.9599 18.089 32.0402 18.3503C31.4061 18.1243 30.7121 17.9825 29.9267 17.9499C29.9351 17.9436 29.9425 17.938 29.9495 17.9317C29.8318 17.9264 29.7288 17.904 29.6076 17.904C27.6679 17.904 26.1742 18.4729 25.1264 19.6107C24.0811 20.7489 23.5581 22.3781 23.5581 24.5C23.5581 24.5084 23.5581 24.5157 23.5581 24.5227C23.5581 24.5297 23.5581 24.5371 23.5581 24.5445C23.5581 24.9606 23.5945 25.3453 23.6352 25.724L23.6376 25.7229C23.8065 27.2559 24.2896 28.4956 25.1191 29.4127C26.0926 30.4917 27.477 31.0441 29.237 31.1135C29.2296 31.1198 29.2226 31.1254 29.2153 31.1317C29.333 31.1366 29.436 31.159 29.5572 31.159C31.4968 31.159 32.9906 30.5898 34.0383 29.452C35.0837 28.3145 35.6067 26.6852 35.6067 24.5634C35.6067 24.555 35.6067 24.5476 35.6067 24.5406C35.6067 24.5336 35.6067 24.5262 35.6067 24.5189C35.6067 24.1027 35.5706 23.7181 35.5285 23.3394L35.5261 23.3408C35.3583 21.8075 34.8752 20.5691 34.0446 19.6499C33.7626 19.334 33.4305 19.0775 33.0795 18.8523L33.5244 18.8512C33.7209 18.7787 33.9343 18.7013 34.1501 18.6018C34.4678 18.4652 34.8045 18.3058 35.1439 18.1254C35.489 17.9474 35.8246 17.7411 36.1703 17.5253C36.5108 17.3092 36.8366 17.065 37.1533 16.8145C37.4651 16.5546 37.774 16.2933 38.0501 16.0043C38.3258 15.7114 38.6039 15.4336 38.8414 15.1173C39.3305 14.507 39.7407 13.8611 40.0693 13.1825C40.2416 12.862 40.381 12.4913 40.5173 12.1565C40.6588 11.8237 40.7737 11.4562 40.8893 11.1188C41.0042 10.7874 41.1097 10.4522 41.2032 10.1268C41.3062 9.79046 41.3948 9.4962 41.4695 9.25624C41.5556 9.01698 41.6082 8.7665 41.6562 8.61902C41.6996 8.45228 41.7213 8.3654 41.7213 8.3654C41.7213 8.3654 41.6369 8.32336 41.4933 8.26451ZM33.2498 26.0014L33.2473 26.0025C33.1923 26.3394 33.1132 26.6463 33.0186 26.9364C32.973 27.0695 32.931 27.2037 32.8785 27.3259C32.8473 27.3963 32.8147 27.4646 32.7828 27.5319C32.6725 27.7491 32.5513 27.9554 32.4101 28.1351C32.0755 28.5622 31.651 28.869 31.1455 29.0729C30.6946 29.2516 30.179 29.3497 29.5908 29.3497C28.3381 29.3497 27.3898 28.9409 26.7508 28.1222C26.1119 27.3046 25.792 26.1044 25.792 24.521C25.792 23.9864 25.8425 23.5128 25.9164 23.0669C25.9164 23.0669 25.9164 23.0658 25.9188 23.0658C25.9738 22.7288 26.0534 22.4219 26.1476 22.1319C26.1921 21.9988 26.2327 21.8642 26.2877 21.7423C26.3164 21.6716 26.3515 21.6033 26.3837 21.536C26.4937 21.3192 26.6149 21.1128 26.7554 20.9328C27.091 20.5061 27.5156 20.1992 28.0214 19.9953C28.4719 19.816 28.9851 19.7179 29.5761 19.7179C30.8288 19.7179 31.7767 20.1271 32.4157 20.9461C33.0547 21.7637 33.3748 22.9639 33.3748 24.5473C33.3734 25.0818 33.323 25.5551 33.2498 26.0014ZM36.9809 12.0776C36.8776 12.1621 36.7434 12.2454 36.6163 12.3778C36.4845 12.5054 36.3346 12.6479 36.1752 12.8038C36.0263 12.9723 35.8659 13.1576 35.6981 13.351C35.5426 13.5559 35.3779 13.7724 35.2091 13.9949C34.8952 14.4587 34.5785 14.9659 34.2979 15.4921C33.7297 16.5441 33.2715 17.6486 32.9695 18.4897C32.9359 18.5794 32.9072 18.6631 32.8785 18.7451C32.6865 18.6358 32.5022 18.5156 32.2934 18.4288C32.3197 18.3674 32.3439 18.3117 32.3726 18.2469C32.7516 17.4118 33.3079 16.3234 33.9697 15.2966C34.2983 14.7848 34.6615 14.2937 35.0174 13.8495C35.2091 13.6351 35.3912 13.4288 35.5664 13.2323C35.7506 13.0504 35.9283 12.876 36.0911 12.7191C36.2663 12.573 36.4295 12.4416 36.5707 12.3246C36.7098 12.2009 36.8538 12.1256 36.9613 12.0524C37.1845 11.9063 37.3092 11.8254 37.3092 11.8254C37.3092 11.8254 37.1915 11.9175 36.9809 12.0776Z" fill="#66BF01"/>
</g>
<defs>
<clipPath id="clip0">
<rect width="39" height="39" fill="white"/>
</clipPath>
</defs>
</svg>
