<svg width="18" height="18" viewBox="0 0 18 18" fill="none" xmlns="http://www.w3.org/2000/svg">
<path d="M16.8961 6.31406H14.9977C14.959 3.0375 12.2836 0.386719 9.00005 0.386719C5.71646 0.386719 3.04107 3.0375 3.00591 6.31406H1.10747C0.435987 6.3668 0.365675 6.94336 0.400831 7.15078L2.07427 17.0156C2.13403 17.3602 2.43286 17.6133 2.78091 17.6133H15.2192C15.5708 17.6133 15.8696 17.3602 15.9258 17.0156L17.6028 7.15078C17.6379 6.94336 17.5536 6.36328 16.8961 6.31406ZM9.00005 1.82109C11.4926 1.82109 13.5211 3.82852 13.5598 6.31055H4.44028C4.47896 3.82852 6.50747 1.82109 9.00005 1.82109ZM14.6145 16.1789H3.38911L1.95474 7.74844H16.0454L14.6145 16.1789Z" fill="white"/>
<path d="M6.0082 10.8879H11.9883C12.3855 10.8879 12.7055 10.568 12.7055 10.1707C12.7055 9.77344 12.3855 9.45352 11.9883 9.45352H6.0082C5.61094 9.45352 5.29102 9.77344 5.29102 10.1707C5.29102 10.568 5.61445 10.8879 6.0082 10.8879Z" fill="white"/>
<path d="M6.0082 14.4738H11.9883C12.3855 14.4738 12.7055 14.1539 12.7055 13.7566C12.7055 13.3594 12.3855 13.0395 11.9883 13.0395H6.0082C5.61094 13.0395 5.29102 13.3594 5.29102 13.7566C5.29102 14.1539 5.61445 14.4738 6.0082 14.4738Z" fill="white"/>
</svg>
