<svg width="188" height="150" viewBox="0 0 188 150" fill="none" xmlns="http://www.w3.org/2000/svg">
<path d="M84.375 18.75H103.125C104.851 18.75 106.25 17.3509 106.25 15.625C106.25 13.8991 104.851 12.5 103.125 12.5H84.375C82.6491 12.5 81.25 13.8991 81.25 15.625C81.25 17.3509 82.6491 18.75 84.375 18.75Z" fill="#FDFAFC"/>
<path d="M137.5 18.75H171.875C173.601 18.75 175 17.3509 175 15.625C175 13.8991 173.601 12.5 171.875 12.5H137.5C135.774 12.5 134.375 13.8991 134.375 15.625C134.375 17.3509 135.774 18.75 137.5 18.75Z" fill="#FDFAFC"/>
<path d="M171.875 0H15.625C6.99983 0.0103316 0.0103316 6.99983 0 15.625V134.375C0.0103316 143 6.99983 149.99 15.625 150H171.875C180.5 149.99 187.49 143 187.5 134.375V15.625C187.49 6.99983 180.5 0.0103316 171.875 0ZM15.625 6.25H171.875C177.053 6.25 181.25 10.4473 181.25 15.625V25H6.25V15.625C6.25 10.4473 10.4473 6.25 15.625 6.25ZM171.875 143.75H15.625C10.4473 143.75 6.25 139.553 6.25 134.375V31.25H181.25V134.375C181.25 139.553 177.053 143.75 171.875 143.75Z" fill="#FDFAFC"/>
<path d="M15.625 18.75C17.3509 18.75 18.75 17.3509 18.75 15.625C18.75 13.8991 17.3509 12.5 15.625 12.5C13.8991 12.5 12.5 13.8991 12.5 15.625C12.5 17.3509 13.8991 18.75 15.625 18.75Z" fill="#FDFAFC"/>
<path d="M28.125 18.75C29.8509 18.75 31.25 17.3509 31.25 15.625C31.25 13.8991 29.8509 12.5 28.125 12.5C26.3991 12.5 25 13.8991 25 15.625C25 17.3509 26.3991 18.75 28.125 18.75Z" fill="#FDFAFC"/>
<path d="M40.625 18.75C42.3509 18.75 43.75 17.3509 43.75 15.625C43.75 13.8991 42.3509 12.5 40.625 12.5C38.8991 12.5 37.5 13.8991 37.5 15.625C37.5 17.3509 38.8991 18.75 40.625 18.75Z" fill="#FDFAFC"/>
<path d="M56.2498 100C56.2498 101.726 57.649 103.125 59.3748 103.125C61.1007 103.125 62.4998 101.726 62.4998 100V93.75H68.7498C70.4757 93.75 71.8748 92.3509 71.8748 90.625C71.8748 88.8991 70.4757 87.5 68.7498 87.5H62.4998V81.25C62.4998 79.5241 61.1007 78.125 59.3748 78.125C57.649 78.125 56.2498 79.5241 56.2498 81.25V87.5H39.9655L62.0373 51.6375C62.8309 50.1792 62.3456 48.355 60.9323 47.4837C59.5191 46.6125 57.6712 46.9984 56.7248 48.3625L34.6436 84.2281C33.4587 86.1567 33.409 88.5751 34.5138 90.5506C35.6186 92.5261 37.7051 93.75 39.9686 93.75H56.2498V100Z" fill="#FDFAFC"/>
<path d="M150 87.5H143.75V81.25C143.75 79.5241 142.351 78.125 140.625 78.125C138.899 78.125 137.5 79.5241 137.5 81.25V87.5H121.215L143.287 51.6375C143.947 50.687 144.027 49.45 143.496 48.4222C142.966 47.3943 141.91 46.7438 140.754 46.7313C139.597 46.7188 138.528 47.3464 137.975 48.3625L115.894 84.2281C114.709 86.1566 114.659 88.5751 115.764 90.5506C116.869 92.5261 118.955 93.7499 121.219 93.75H137.5V100C137.5 101.726 138.899 103.125 140.625 103.125C142.351 103.125 143.75 101.726 143.75 100V93.75H150C151.726 93.75 153.125 92.3509 153.125 90.625C153.125 88.8991 151.726 87.5 150 87.5Z" fill="#FDFAFC"/>
<path d="M90.625 103.125H96.875C103.779 103.125 109.375 97.5286 109.375 90.625V59.375C109.375 52.4714 103.779 46.875 96.875 46.875H90.625C83.7214 46.875 78.125 52.4714 78.125 59.375V90.625C78.125 97.5286 83.7214 103.125 90.625 103.125ZM84.375 59.375C84.375 55.9232 87.1732 53.125 90.625 53.125H96.875C100.327 53.125 103.125 55.9232 103.125 59.375V90.625C103.125 94.0768 100.327 96.875 96.875 96.875H90.625C87.1732 96.875 84.375 94.0768 84.375 90.625V59.375Z" fill="#FDFAFC"/>
<path d="M131.25 118.75H56.25C54.5241 118.75 53.125 120.149 53.125 121.875C53.125 123.601 54.5241 125 56.25 125H131.25C132.976 125 134.375 123.601 134.375 121.875C134.375 120.149 132.976 118.75 131.25 118.75Z" fill="#FDFAFC"/>
<path d="M103.125 131.25H84.375C82.6491 131.25 81.25 132.649 81.25 134.375C81.25 136.101 82.6491 137.5 84.375 137.5H103.125C104.851 137.5 106.25 136.101 106.25 134.375C106.25 132.649 104.851 131.25 103.125 131.25Z" fill="#FDFAFC"/>
</svg>
