<svg width="147" height="169" viewBox="0 0 147 169" fill="none" xmlns="http://www.w3.org/2000/svg">
<path d="M111.567 38.0219C98.1761 26.9921 80.6621 22.3076 63.5529 25.1801C61.6011 25.5068 59.6766 25.9423 57.7792 26.4568C57.2348 26.6038 56.6904 26.7644 56.1459 26.925C44.8364 30.3403 34.7909 37.0263 27.2747 46.1408C6.22689 71.6546 9.84737 109.4 35.3608 130.448C46.096 139.303 59.5803 144.144 73.497 144.139C77.93 144.14 82.3495 143.652 86.675 142.682C88.0796 142.367 89.4625 141.983 90.8372 141.569C102.149 138.157 112.199 131.474 119.719 122.361C140.758 96.8203 137.108 59.0605 111.567 38.0219ZM33.5247 47.2705C34.7416 45.9584 36.021 44.7198 37.3358 43.5438C37.4365 43.454 37.5345 43.356 37.6379 43.2716C38.9146 42.1528 40.2485 41.1102 41.615 40.1221C41.792 39.9941 41.9634 39.8499 42.1431 39.7355C43.4824 38.7937 44.8615 37.9161 46.2808 37.1032C46.5013 36.9753 46.7218 36.831 46.945 36.7194C48.3534 35.9316 49.7941 35.2103 51.2678 34.5553L52.0001 34.234C52.9338 33.8339 53.9056 33.5045 54.8529 33.1452C49.8336 38.5875 45.9875 45.0043 43.5532 51.9962C40.0593 50.7504 36.6916 49.1763 33.4948 47.295L33.5247 47.2705ZM30.0404 51.5143C33.7735 53.7928 37.7315 55.6799 41.8518 57.1465C39.5816 65.0813 38.3498 73.2774 38.1878 81.5289H19.1735C19.722 70.6644 23.5065 60.212 30.0404 51.5143ZM30.0404 116.988C23.5068 108.29 19.7224 97.8377 19.1735 86.9732H38.1878C38.3494 95.2248 39.5812 103.421 41.8518 111.356C37.7322 112.823 33.7742 114.711 30.0404 116.988ZM51.9946 134.26C51.7632 134.167 51.5264 134.067 51.2923 133.958C49.8114 133.296 48.3578 132.572 46.9368 131.78C46.7245 131.663 46.5176 131.538 46.3053 131.418C44.8789 130.601 43.4824 129.714 42.1295 128.758C41.9689 128.644 41.811 128.524 41.6504 128.407C40.2675 127.411 38.9282 126.355 37.6298 125.225C37.5427 125.146 37.4583 125.062 37.3575 124.986C36.0155 123.793 34.7198 122.536 33.4894 121.213C36.6882 119.33 40.0579 117.754 43.5532 116.506C45.9892 123.495 49.8363 129.909 54.8556 135.349C53.8974 135 52.931 134.671 51.9946 134.26ZM70.7748 138.444C61.6393 136.939 53.6742 127.958 48.7607 114.881C55.9367 112.896 63.3311 111.81 70.7748 111.647V138.444ZM70.7748 106.208C62.7502 106.373 54.7787 107.55 47.0485 109.709C44.9452 102.307 43.7962 94.6664 43.6294 86.9732H70.7748V106.208ZM70.7748 81.5289H43.6294C43.7951 73.8378 44.9432 66.199 47.0457 58.7988C54.7729 60.9868 62.7462 62.1876 70.7748 62.373V81.5289ZM70.7748 56.8607C63.3318 56.6953 55.938 55.6074 48.7627 53.622C53.6626 40.5583 61.6406 31.5772 70.7748 30.0637V56.8607ZM116.954 51.5143C123.487 60.212 127.272 70.6644 127.82 81.5289H108.806C108.645 73.2774 107.413 65.0813 105.142 57.1465C109.262 55.6789 113.22 53.7914 116.954 51.5143ZM94.9912 34.2395L95.7098 34.5471C97.1853 35.2059 98.6334 35.9272 100.044 36.7248C100.261 36.8473 100.476 36.9753 100.694 37.1005C102.115 37.9171 103.503 38.7964 104.848 39.7437C105.02 39.8635 105.186 39.9941 105.354 40.1166C106.716 41.1075 108.077 42.1555 109.353 43.2798C109.449 43.3642 109.538 43.454 109.626 43.5384C110.962 44.7253 112.252 45.972 113.48 47.2977C110.289 49.176 106.928 50.7491 103.441 51.9962C101.004 45.0056 97.1563 38.5909 92.1357 33.1506C93.0938 33.4991 94.0575 33.8284 94.9912 34.2395ZM76.2192 30.0582C85.3547 31.5636 93.3198 40.544 98.2333 53.6213C91.0573 55.6061 83.6629 56.6922 76.2192 56.8552V30.0582ZM76.2192 62.373C84.2478 62.1873 92.2211 60.9861 99.9483 58.7988C102.051 66.199 103.199 73.8378 103.365 81.5289H76.2192V62.373ZM76.2192 86.9732H103.365C103.198 94.6674 102.049 102.309 99.9455 109.711C92.2156 107.55 84.2438 106.374 76.2192 106.211V86.9732ZM76.2192 138.447V111.647C83.6626 111.811 91.0573 112.897 98.2333 114.881V114.884C93.3198 127.95 85.3547 136.933 76.2192 138.447ZM113.458 121.232C112.239 122.549 110.954 123.79 109.623 124.969C109.528 125.056 109.438 125.146 109.351 125.241C108.066 126.366 106.726 127.419 105.352 128.407C105.183 128.53 105.02 128.655 104.848 128.775C103.503 129.725 102.112 130.604 100.691 131.423C100.476 131.546 100.261 131.674 100.046 131.794C98.6345 132.583 97.188 133.309 95.7071 133.971L94.9885 134.287C94.0548 134.687 93.083 135.017 92.1329 135.376C97.1574 129.929 101.007 123.505 103.441 116.506C106.939 117.751 110.312 119.325 113.513 121.207L113.458 121.232ZM116.954 116.988H116.943C113.21 114.709 109.252 112.822 105.131 111.356C107.405 103.421 108.641 95.2255 108.806 86.9732H127.82C127.272 97.8377 123.487 108.29 116.954 116.988Z" fill="#FDFAFC"/>
<path d="M141.556 84.251C141.514 121.819 111.069 152.263 73.5014 152.305H36.5181L43.4188 145.402L39.5696 141.553L26.0977 155.027L39.5696 168.502L43.4188 164.653L36.5181 157.749H73.5014C114.075 157.704 146.955 124.824 147 84.251H141.556Z" fill="#FDFAFC"/>
<path d="M101.986 0L98.1367 3.84914L105.037 10.7525H73.4984C32.9249 10.7975 0.0449157 43.6775 0 84.251H5.44433C5.48618 46.6831 35.9305 16.2387 73.4984 16.1969H105.037L98.1367 23.1003L101.986 26.9494L115.458 13.4747L101.986 0Z" fill="#FDFAFC"/>
</svg>
