<svg width="13" height="17" viewBox="0 0 13 17" fill="none" xmlns="http://www.w3.org/2000/svg">
<path d="M12.081 14.3223L11.2165 4.83138C11.1932 4.56991 10.9743 4.37026 10.7119 4.37026H9.19168V3.35681C9.19168 2.542 8.87548 1.77786 8.30288 1.20526C7.7394 0.640767 6.955 0.316463 6.15133 0.316463C4.47508 0.316463 3.11098 1.68057 3.11098 3.35681V4.37026H1.59081C1.32832 4.37026 1.10942 4.56991 1.08611 4.83138L0.223665 14.3213C0.171979 14.8878 0.362508 15.4523 0.745592 15.8719C1.12868 16.2915 1.67391 16.5317 2.24246 16.5317H10.0612C10.6287 16.5317 11.174 16.2915 11.5571 15.8729C11.9412 15.4533 12.1307 14.8878 12.081 14.3223ZM8.17823 4.37026H4.12443V3.35681C4.12443 2.23898 5.0335 1.32991 6.15133 1.32991C6.68846 1.32991 7.2114 1.54476 7.58637 1.92075C7.96844 2.30282 8.17823 2.81259 8.17823 3.35681V4.37026Z" fill="#0B0B0B"/>
</svg>
