<svg width="17" height="17" viewBox="0 0 17 17" fill="none" xmlns="http://www.w3.org/2000/svg">
<path d="M12.6779 8.93603C12.6428 8.90731 12.606 8.88265 12.5668 8.86205C12.0097 8.49349 11.4047 8.19283 10.7632 7.96987C11.8158 7.16655 12.4992 5.90345 12.4992 4.48023C12.4992 2.05876 10.5291 0.0886154 8.10759 0.0886154C5.68613 0.0886154 3.71598 2.05876 3.71598 4.48023C3.71598 5.90345 4.39938 7.16655 5.45168 7.96954C4.81017 8.19249 4.20514 8.49349 3.64808 8.86171C3.60923 8.88231 3.57207 8.90698 3.53694 8.93569C1.40329 10.3978 0 12.8517 0 15.6282C0 16.0011 0.302684 16.3038 0.675633 16.3038C1.04858 16.3038 1.35127 16.0011 1.35127 15.6282C1.35127 13.4928 2.34985 11.5892 3.9011 10.3501L7.62992 14.0789C7.7566 14.2056 7.92855 14.2769 8.10759 14.2769C8.28664 14.2769 8.45859 14.2056 8.58527 14.0789L12.3141 10.3501C13.8653 11.5892 14.8639 13.4928 14.8639 15.6282C14.8639 16.0011 15.1666 16.3038 15.5396 16.3038C15.9125 16.3038 16.2152 16.0011 16.2152 15.6282C16.2152 12.8517 14.8119 10.3978 12.6779 8.93603ZM5.06725 4.48023C5.06725 2.80398 6.43101 1.43988 8.10759 1.43988C9.78418 1.43988 11.1479 2.80398 11.1479 4.48023C11.1479 6.15647 9.78418 7.52058 8.10759 7.52058C6.43101 7.52058 5.06725 6.15647 5.06725 4.48023ZM8.10759 12.6456L5.06556 9.60355C5.98104 9.13939 7.01273 8.87184 8.10759 8.87184C9.20246 8.87184 10.2341 9.13939 11.1496 9.60355L8.10759 12.6456Z" fill="#0B0B0B"/>
</svg>
