<svg width="19" height="19" viewBox="0 0 19 19" fill="none" xmlns="http://www.w3.org/2000/svg">
<path d="M18.2295 14.2436L14.4404 11.7513C13.9595 11.4375 13.315 11.5408 12.9595 11.9885L11.8557 13.3882C11.7139 13.5727 11.456 13.6262 11.2508 13.5138L11.0409 13.3996C10.3449 13.0254 9.47887 12.5596 7.73404 10.838C5.98921 9.1165 5.51595 8.26172 5.13659 7.57651L5.02146 7.36943C4.9059 7.16707 4.95913 6.91167 5.14624 6.77065L6.56442 5.68236C7.01819 5.33169 7.123 4.69614 6.80527 4.22173L4.27834 0.484475C3.95271 0.00137232 3.2994 -0.143652 2.7953 0.155231L1.21081 1.094C0.712955 1.38268 0.347697 1.8502 0.191629 2.39861C-0.378942 4.44907 0.0502925 7.98786 5.33565 13.2014C9.54004 17.3479 12.67 18.463 14.8213 18.463C15.3164 18.4651 15.8096 18.4015 16.2876 18.2741C16.8437 18.1203 17.3178 17.76 17.6103 17.2689L18.5631 15.707C18.8665 15.2097 18.7196 14.5649 18.2295 14.2436ZM18.0255 15.3913L17.075 16.9541C16.8649 17.3086 16.5239 17.5693 16.1234 17.6815C14.2042 18.2012 10.8512 17.7707 5.77706 12.7661C0.702901 7.76142 0.266501 4.45462 0.79342 2.56141C0.907337 2.16592 1.17195 1.82918 1.53183 1.6217L3.11632 0.684163C3.33505 0.554355 3.6186 0.617276 3.7599 0.826916L5.13256 2.85953L6.28467 4.56384C6.42265 4.76962 6.37731 5.04543 6.18048 5.1977L4.76197 6.286C4.33029 6.61157 4.20701 7.20064 4.47279 7.66817L4.58543 7.87002C4.98414 8.59125 5.47983 9.48848 7.28956 11.2731C9.09929 13.0577 10.0087 13.5467 10.7396 13.9399L10.9445 14.0513C11.4185 14.3134 12.0158 14.1918 12.3459 13.7661L13.4493 12.367C13.6037 12.1729 13.8833 12.1283 14.092 12.2642L17.8808 14.7565C18.0935 14.8958 18.1573 15.1756 18.0255 15.3913Z" fill="#B68299"/>
<path d="M10.6079 3.07823C13.5355 3.08144 15.908 5.42148 15.9113 8.30903C15.9113 8.47897 16.051 8.61671 16.2233 8.61671C16.3956 8.61671 16.5352 8.47897 16.5352 8.30903C16.5316 5.08175 13.88 2.4664 10.6079 2.46287C10.4356 2.46287 10.2959 2.60061 10.2959 2.77055C10.2959 2.94049 10.4356 3.07823 10.6079 3.07823Z" fill="#B68299"/>
<path d="M10.6079 4.9244C12.5022 4.9266 14.0373 6.44067 14.0395 8.30904C14.0395 8.47898 14.1792 8.61672 14.3515 8.61672C14.5238 8.61672 14.6634 8.47898 14.6634 8.30904C14.6608 6.10093 12.8466 4.31156 10.6079 4.30904C10.4356 4.30904 10.2959 4.44678 10.2959 4.61672C10.2959 4.78666 10.4356 4.9244 10.6079 4.9244Z" fill="#B68299"/>
<path d="M10.6079 6.77056C11.4689 6.77157 12.1666 7.45977 12.1677 8.30904C12.1677 8.47898 12.3074 8.61672 12.4797 8.61672C12.6519 8.61672 12.7916 8.47898 12.7916 8.30904C12.7902 7.12007 11.8133 6.15653 10.6079 6.1552C10.4356 6.1552 10.2959 6.29294 10.2959 6.46288C10.2959 6.63282 10.4356 6.77056 10.6079 6.77056Z" fill="#B68299"/>
</svg>
