<svg width="23" height="23" viewBox="0 0 23 23" fill="none" xmlns="http://www.w3.org/2000/svg">
<path d="M11.5 23C17.8513 23 23 17.8513 23 11.5C23 5.14873 17.8513 0 11.5 0C5.14873 0 0 5.14873 0 11.5C0 17.8513 5.14873 23 11.5 23Z" fill="url(#paint0_linear)"/>
<path d="M11.8541 4.25309C8.88296 4.25309 6.06154 3.98899 4.98387 6.75258C4.53873 7.89399 4.60337 9.37635 4.60337 11.4989C4.60337 13.3615 4.54364 15.112 4.98387 16.2444C6.05909 19.0097 8.90342 18.7448 11.8525 18.7448C14.6976 18.7448 17.6312 19.0407 18.7219 16.2444C19.1679 15.0916 19.1024 13.6313 19.1024 11.4989C19.1024 8.66829 19.2587 6.84088 17.8848 5.4689C16.4938 4.07893 14.6125 4.25309 11.8509 4.25309H11.8541ZM11.2044 5.55884C17.402 5.54903 18.1909 4.86059 17.7555 14.4244C17.6009 17.8069 15.0233 17.4357 11.8549 17.4357C6.07791 17.4357 5.9118 17.2706 5.9118 11.4956C5.9118 5.65369 6.37003 5.56211 11.2044 5.55721V5.55884ZM15.7246 6.76157C15.2442 6.76157 14.8547 7.15076 14.8547 7.63071C14.8547 8.11066 15.2442 8.49985 15.7246 8.49985C16.2049 8.49985 16.5944 8.11066 16.5944 7.63071C16.5944 7.15076 16.2049 6.76157 15.7246 6.76157ZM11.8541 7.77789C9.79779 7.77789 8.13096 9.44422 8.13096 11.4989C8.13096 13.5536 9.79779 15.2191 11.8541 15.2191C13.9105 15.2191 15.5765 13.5536 15.5765 11.4989C15.5765 9.44422 13.9105 7.77789 11.8541 7.77789ZM11.8541 9.08364C15.0495 9.08364 15.0536 13.9142 11.8541 13.9142C8.65957 13.9142 8.65466 9.08364 11.8541 9.08364Z" fill="white"/>
<defs>
<linearGradient id="paint0_linear" x1="18.7538" y1="2.83077" x2="4.06923" y2="20.7" gradientUnits="userSpaceOnUse">
<stop stop-color="#C937AA"/>
<stop offset="0.479167" stop-color="#FD5343"/>
<stop offset="1" stop-color="#FFDB54"/>
</linearGradient>
</defs>
</svg>
