<svg width="140" height="139" viewBox="0 0 140 139" fill="none" xmlns="http://www.w3.org/2000/svg">
<path d="M139.742 32.8881C139.26 31.1117 138.084 29.5973 136.476 28.6791C134.866 27.7565 132.953 27.5069 131.157 27.9846C129.364 28.4634 127.837 29.6277 126.911 31.2223L125.744 33.2348C124.636 32.6035 123.22 32.975 122.572 34.0682L116.646 44.0818L114.616 42.9254C114.078 42.6171 113.438 42.5335 112.839 42.6939C112.239 42.8554 111.728 43.2461 111.42 43.7814C110.787 44.887 111.172 46.2919 112.283 46.9266L114.313 48.083L94.4829 82.151L89.5835 95.1268L87.2506 99.4509C85.8847 101.807 86.0306 104.735 87.6242 106.945L82.3751 113.328L80.9056 109.675C80.2426 108.046 78.7082 106.93 76.9437 106.794C75.178 106.656 73.4864 107.521 72.5763 109.026L71.7367 110.437L70.9439 101.186C70.7616 98.9969 69.0518 97.2375 66.8532 96.9732C64.6536 96.7101 62.5712 98.0167 61.8684 100.099L56.1294 117.168C55.7285 118.375 56.3846 119.676 57.5989 120.082C57.8268 120.187 58.0717 120.251 58.3223 120.266C59.3247 120.27 60.2178 119.636 60.539 118.694L66.2541 101.626L67.0708 111.015C67.2394 113.018 68.6918 114.684 70.6671 115.138C72.6423 115.592 74.6859 114.729 75.726 113.005L76.5894 111.593L78.0361 115.225C78.6501 116.755 80.0387 117.847 81.6825 118.09C83.3263 118.333 84.9757 117.69 86.0146 116.404L91.4505 109.582C92.052 109.738 92.6717 109.816 93.2937 109.813C95.7941 109.833 98.1156 108.527 99.3823 106.389L101.715 102.527L110.604 91.819L130.644 57.3343L132.674 58.4907C133.215 58.7979 133.609 59.305 133.769 59.9024C133.931 60.4953 133.847 61.1277 133.537 61.6596L124.205 77.6879C123.853 78.2142 123.734 78.8601 123.875 79.4768C124.016 80.0922 124.405 80.6241 124.951 80.9482C125.489 81.2577 126.129 81.3413 126.728 81.1809C127.329 81.0194 127.839 80.6287 128.148 80.0934L137.479 64.065C138.41 62.4693 138.662 60.5721 138.179 58.7923C137.696 57.0147 136.521 55.5003 134.913 54.5822L132.883 53.4258L138.715 43.411C139.352 42.3122 138.977 40.9096 137.876 40.2659L139.042 38.2534C139.998 36.6329 140.251 34.6972 139.742 32.8881ZM130.947 33.5352C131.255 32.9999 131.768 32.608 132.37 32.4488C132.97 32.302 133.603 32.3844 134.143 32.6803C134.684 32.9863 135.078 33.4945 135.24 34.0908C135.388 34.6848 135.305 35.3127 135.006 35.848L133.84 37.8604L129.78 35.5476L130.947 33.5352ZM99.1488 98.1104L97.9823 97.4396L94.5296 95.4498L97.8422 86.6614L105.191 90.8704L99.1488 98.1104ZM92.15 104.794C91.1646 104.113 90.8616 102.803 91.4505 101.764L92.617 99.7524L96.6758 102.065L95.5093 104.054C95.1824 104.616 94.6333 105.016 93.9942 105.157C93.3552 105.297 92.6865 105.166 92.15 104.794ZM107.851 87.0782L99.7788 82.4525L118.442 50.3958L126.514 55.0215L107.851 87.0782ZM128.847 51.0203L120.775 46.3947L125.441 38.3923L133.513 43.018L128.847 51.0203Z" fill="#FDFAFC"/>
<path d="M36.8127 103.637L28.5552 111.802L23.609 106.899C22.6989 106.002 21.2294 106.002 20.3192 106.899C19.8772 107.333 19.6289 107.924 19.6289 108.541C19.6289 109.157 19.8772 109.749 20.3192 110.183L25.2653 115.086C26.1402 115.947 27.3226 116.429 28.5552 116.428C29.7945 116.435 30.9872 115.952 31.8678 115.086L40.1026 106.899C40.8954 105.981 40.8419 104.613 39.9807 103.759C39.1183 102.904 37.7389 102.851 36.8127 103.637Z" fill="#FDFAFC"/>
<path d="M9.33203 109.859C9.33203 120.717 18.2104 129.518 29.1621 129.518C40.1137 129.518 48.9921 120.717 48.9921 109.859C48.9921 108.581 47.9475 107.546 46.6591 107.546C45.3708 107.546 44.3262 108.581 44.3262 109.859C44.3262 118.161 37.537 124.892 29.1621 124.892C20.7872 124.892 13.9979 118.161 13.9979 109.859C13.9979 101.556 20.7872 94.8252 29.1621 94.8252C32.445 94.8162 35.6403 95.8721 38.2603 97.8326C39.2912 98.5994 40.7539 98.3916 41.5262 97.3695C42.2997 96.3475 42.0912 94.8986 41.0603 94.1318C35.0514 89.6642 27.0114 88.946 20.2939 92.2752C13.5753 95.6056 9.33203 102.413 9.33203 109.859Z" fill="#FDFAFC"/>
<path d="M83.9856 18.5017C85.274 18.5017 86.3186 17.4673 86.3186 16.1889C86.3186 14.9116 85.274 13.8761 83.9856 13.8761H23.329C22.0407 13.8761 20.9961 14.9116 20.9961 16.1889V25.4402C20.9961 26.7186 22.0407 27.7531 23.329 27.7531H83.9856C85.274 27.7531 86.3186 26.7186 86.3186 25.4402C86.3186 24.163 85.274 23.1274 83.9856 23.1274H25.662V18.5017H83.9856Z" fill="#FDFAFC"/>
<path d="M30.3271 32.3787C29.0387 32.3787 27.9941 33.4142 27.9941 34.6915C27.9941 35.9699 29.0387 37.0043 30.3271 37.0043H76.986C78.2743 37.0043 79.3189 35.9699 79.3189 34.6915C79.3189 33.4142 78.2743 32.3787 76.986 32.3787H30.3271Z" fill="#FDFAFC"/>
<path d="M90.9839 48.5686H39.6591C38.3708 48.5686 37.3262 49.6042 37.3262 50.8814C37.3262 52.1598 38.3708 53.1942 39.6591 53.1942H90.9839C92.2723 53.1942 93.3169 52.1598 93.3169 50.8814C93.3169 49.6042 92.2723 48.5686 90.9839 48.5686Z" fill="#FDFAFC"/>
<path d="M67.6549 64.7583C67.6549 63.4811 66.6103 62.4455 65.3219 62.4455H18.663C17.3747 62.4455 16.3301 63.4811 16.3301 64.7583C16.3301 66.0367 17.3747 67.0712 18.663 67.0712H65.3219C66.6103 67.0712 67.6549 66.0367 67.6549 64.7583Z" fill="#FDFAFC"/>
<path d="M90.9858 62.4455H74.6552C73.3668 62.4455 72.3223 63.4811 72.3223 64.7583C72.3223 66.0367 73.3668 67.0712 74.6552 67.0712H90.9858C92.2742 67.0712 93.3188 66.0367 93.3188 64.7583C93.3188 63.4811 92.2742 62.4455 90.9858 62.4455Z" fill="#FDFAFC"/>
<path d="M41.9925 78.6354C43.2808 78.6354 44.3254 77.6009 44.3254 76.3225C44.3254 75.0453 43.2808 74.0097 41.9925 74.0097H18.663C17.3747 74.0097 16.3301 75.0453 16.3301 76.3225C16.3301 77.6009 17.3747 78.6354 18.663 78.6354H41.9925Z" fill="#FDFAFC"/>
<path d="M51.3251 78.6354H67.6557C68.9441 78.6354 69.9887 77.6009 69.9887 76.3225C69.9887 75.0453 68.9441 74.0097 67.6557 74.0097H51.3251C50.0368 74.0097 48.9922 75.0453 48.9922 76.3225C48.9922 77.6009 50.0368 78.6354 51.3251 78.6354Z" fill="#FDFAFC"/>
<path d="M104.983 106.39C103.694 106.39 102.65 107.426 102.65 108.703V131.831C102.65 133.11 101.605 134.144 100.317 134.144H6.99883C5.71047 134.144 4.66589 133.11 4.66589 131.831V6.9385C4.66589 5.66125 5.71047 4.62567 6.99883 4.62567H100.317C101.605 4.62567 102.65 5.66125 102.65 6.9385V50.3741C102.65 51.6514 103.694 52.687 104.983 52.687C106.271 52.687 107.315 51.6514 107.315 50.3741V6.9385C107.315 3.10674 104.182 0 100.317 0H6.99883C3.13376 0 0 3.10674 0 6.9385V131.831C0 135.664 3.13376 138.77 6.99883 138.77H100.317C104.182 138.77 107.315 135.664 107.315 131.831V108.703C107.315 107.426 106.271 106.39 104.983 106.39Z" fill="#FDFAFC"/>
</svg>
