<svg width="119" height="145" viewBox="0 0 119 145" fill="none" xmlns="http://www.w3.org/2000/svg">
<path d="M34.2009 70.293C40.4719 70.293 45.5735 65.1911 45.5735 58.9202C45.5735 52.6492 40.4716 47.5474 34.2009 47.5474C27.9297 47.5474 22.8281 52.6492 22.8281 58.9202C22.8281 65.1911 27.9297 70.293 34.2009 70.293ZM34.2009 51.7954C38.1295 51.7954 41.3254 54.9916 41.3254 58.9202C41.3254 62.8487 38.1295 66.045 34.2009 66.045C30.2724 66.045 27.0761 62.8487 27.0761 58.9202C27.0761 54.9916 30.2724 51.7954 34.2009 51.7954Z" fill="#FDFAFC"/>
<path d="M59.2412 58.3899C65.3595 58.3899 70.3376 53.4121 70.3376 47.2935C70.3376 41.1749 65.3598 36.1971 59.2412 36.1971C53.1226 36.1971 48.1445 41.1749 48.1445 47.2935C48.1445 53.4121 53.1226 58.3899 59.2412 58.3899ZM59.2412 40.4451C63.0174 40.4451 66.0896 43.5173 66.0896 47.2935C66.0896 51.0697 63.0174 54.1419 59.2412 54.1419C55.465 54.1419 52.3926 51.0697 52.3926 47.2935C52.3926 43.5173 55.465 40.4451 59.2412 40.4451Z" fill="#FDFAFC"/>
<path d="M38.7647 124.178C44.8829 124.178 49.8611 119.2 49.8611 113.081C49.8611 106.963 44.8832 101.985 38.7647 101.985C32.6461 101.985 27.668 106.963 27.668 113.081C27.668 119.2 32.6461 124.178 38.7647 124.178ZM38.7647 106.233C42.5409 106.233 45.613 109.305 45.613 113.082C45.613 116.858 42.5409 119.93 38.7647 119.93C34.9884 119.93 31.916 116.858 31.916 113.082C31.916 109.305 34.9884 106.233 38.7647 106.233Z" fill="#FDFAFC"/>
<path d="M64.8975 132.563C71.0158 132.563 75.9939 127.585 75.9939 121.466C75.9939 115.348 71.016 110.37 64.8975 110.37C58.7789 110.37 53.8008 115.348 53.8008 121.466C53.8008 127.585 58.7786 132.563 64.8975 132.563ZM64.8975 114.618C68.6737 114.618 71.7459 117.69 71.7459 121.466C71.7459 125.242 68.6737 128.315 64.8975 128.315C61.1213 128.315 58.0488 125.242 58.0488 121.466C58.0488 117.69 61.1213 114.618 64.8975 114.618Z" fill="#FDFAFC"/>
<path d="M10.9922 86.9213C10.9922 94.0616 16.8011 99.8705 23.9414 99.8705C31.0817 99.8705 36.8907 94.0616 36.8907 86.9213C36.8907 79.781 31.0817 73.9721 23.9414 73.9721C16.8011 73.9721 10.9922 79.781 10.9922 86.9213ZM23.9414 78.22C28.7391 78.22 32.6427 82.1234 32.6427 86.9213C32.6427 91.7192 28.7394 95.6226 23.9414 95.6226C19.1435 95.6226 15.2402 91.7192 15.2402 86.9213C15.2402 82.1234 19.1435 78.22 23.9414 78.22Z" fill="#FDFAFC"/>
<path d="M0 84.6942C0 116.735 27.6025 141.09 59.8123 143.052C59.8562 143.054 59.9001 143.056 59.9434 143.056C61.0575 143.056 61.9929 142.188 62.0615 141.061C62.1328 139.89 61.2413 138.883 60.0706 138.812C28.7681 136.905 4.24797 113.134 4.24797 84.6942C4.24797 52.4722 34.9277 27.6094 69.9873 30.7852C71.5823 32.4473 73.5449 33.7794 75.5986 34.7545C75.4301 35.5307 75.4596 36.3588 75.6635 37.1073L79.8673 52.569C78.8886 53.7129 78.5484 55.2702 78.939 56.704L79.9395 60.385C80.5481 62.6271 82.7885 64.0612 85.0784 63.6642L87.0625 72.2561C79.888 75.5245 75.9648 79.9014 75.9648 84.6945C75.9648 89.5046 79.9743 93.9542 87.2548 97.2229C89.8438 98.3851 92.0842 99.9781 93.9218 101.961C96.2582 112.218 96.9767 115.472 98.6892 120.628C97.1039 127.543 92.3637 132.844 85.6091 135.222C80.4555 137.037 75.0917 138.2 69.6671 138.678C68.4986 138.781 67.6345 139.811 67.7376 140.98C67.8404 142.149 68.8749 143.011 70.0397 142.909C75.8181 142.4 81.5314 141.162 87.02 139.229C93.2682 137.029 98.2015 132.571 100.984 126.824C103.824 133.793 106.413 138.099 108.82 142.296C110.037 144.419 112.536 145.453 114.897 144.811C117.258 144.169 118.889 142.012 118.865 139.566C118.791 132.45 118.979 121.755 113.98 105.819C113.629 104.7 112.437 104.077 111.318 104.428C110.198 104.779 109.576 105.971 109.927 107.091C114.619 122.048 114.538 131.972 114.617 139.609C114.623 140.123 114.28 140.577 113.783 140.712C113.288 140.847 112.761 140.63 112.505 140.183C103.569 124.599 102.443 119.976 97.9376 100.47C97.9376 100.47 89.1856 62.5685 89.1856 62.5682L95.427 60.8713L98.5904 70.9543V70.9546L106.959 97.6296C107.31 98.7488 108.501 99.3715 109.621 99.0204C110.74 98.6692 111.363 97.4772 111.012 96.358L103.266 71.6679C114.969 66.9263 118.242 51.2094 108.224 42.4606C104.118 38.8756 99.5159 35.8176 94.5418 33.3461L94.1943 32.0683C93.9822 31.2873 93.5899 30.5869 93.0561 30.0089C95.2002 26.843 97.3395 21.9465 95.7816 16.2163C94.286 10.7163 90.6093 8.59431 86.717 6.34798C84.3563 4.98552 81.9151 3.57661 79.56 1.23258C77.2715 -1.04406 73.4914 -0.0214264 72.6698 3.10565C71.8259 6.31966 70.4337 8.77075 69.0879 11.1411C66.8441 15.0926 64.1115 19.6912 67.0058 26.3341C30.9507 24.7819 0 50.9333 0 84.6942ZM92.3524 95.1657C91.2935 94.4869 90.1751 93.8775 88.9948 93.3476C83.4135 90.8416 80.2125 87.6876 80.2125 84.6942C80.2125 81.8447 83.0326 78.9172 88.0395 76.4885L92.3524 95.1657ZM105.429 45.6607C112.948 52.2267 110.523 63.938 101.991 67.6055C99.7974 60.6127 100.392 62.5087 99.5227 59.7365C101.744 58.8861 102.891 56.5052 102.293 54.307L101.293 50.626C100.901 49.1848 99.8124 48.0178 98.3984 47.5304L96.0727 38.9769C99.4213 40.9132 102.555 43.1507 105.429 45.6607ZM96.8439 51.5402L96.8447 51.5399C96.9812 51.5031 97.1495 51.5779 97.1934 51.7404L98.1939 55.4211C98.2352 55.5729 98.1452 55.7298 97.9937 55.7709C95.1515 56.5437 86.9792 58.7654 84.388 59.47C84.2396 59.5114 84.0804 59.4241 84.0382 59.2698L83.0377 55.5888C82.9938 55.4265 83.1051 55.275 83.2379 55.239L96.8439 51.5402ZM94.0926 47.8861L83.7601 50.6951L79.7628 35.9923C79.6594 35.6143 79.8964 35.2203 80.2618 35.1206L89.2239 32.684C89.5719 32.5886 89.9854 32.7786 90.0953 33.183C91.4099 38.0186 90.4878 34.627 94.0926 47.8861ZM72.7819 13.2393C74.1645 10.805 75.7272 8.05255 76.7221 4.40071C79.4193 7.04154 82.1657 8.62632 84.5939 10.0279C88.1078 12.0558 90.6467 13.5208 91.6826 17.3315C92.9488 21.9879 90.769 26.0478 88.9633 28.4315C88.6898 28.4561 88.3695 28.5145 88.1089 28.5853L79.1468 31.0219C78.8735 31.0961 78.5603 31.2142 78.3332 31.3215C74.576 29.7795 71.4416 27.0792 70.3671 23.1269C69.3312 19.3162 70.7786 16.7671 72.7819 13.2393Z" fill="#FDFAFC"/>
</svg>
