<svg width="156" height="140" viewBox="0 0 156 140" fill="none" xmlns="http://www.w3.org/2000/svg">
<path d="M123.881 109.328C122.5 108.37 120.603 108.714 119.646 110.096C118.718 111.435 117.667 112.737 116.52 113.966C115.751 114.79 114.694 115.784 113.544 116.763C112.264 117.853 112.109 119.774 113.198 121.054C113.8 121.761 114.656 122.125 115.518 122.125C116.215 122.125 116.916 121.886 117.489 121.399C118.831 120.256 120.036 119.122 120.972 118.117C122.317 116.675 123.555 115.143 124.649 113.562C125.607 112.181 125.263 110.285 123.881 109.328Z" fill="#FDFAFC"/>
<path d="M110.622 122.974C109.908 121.452 108.097 120.797 106.575 121.511L106.479 121.554C104.941 122.232 104.245 124.029 104.924 125.567C105.426 126.705 106.541 127.383 107.71 127.383C108.12 127.383 108.538 127.299 108.937 127.123C109.011 127.09 109.085 127.057 109.159 127.022C110.681 126.308 111.336 124.496 110.622 122.974Z" fill="#FDFAFC"/>
<path d="M146.734 0H9.09241C4.07857 0 0 4.07918 0 9.09241V94.3867C0 99.3996 4.07857 103.478 9.09241 103.478H73.1839C75.9009 114.974 82.0447 123.115 87.4144 128.331C95.2519 135.945 104.236 140 107.709 140C111.181 140 120.165 135.945 128.003 128.331C133.373 123.115 139.517 114.974 142.233 103.479H146.734C151.748 103.479 155.827 99.3999 155.827 94.387V9.09241C155.827 4.07918 151.748 0 146.734 0ZM137.566 91.0057C137.566 107.041 130.164 117.678 123.954 123.777C116.588 131.013 109.032 133.827 107.709 133.912C106.385 133.827 98.829 131.013 91.4628 123.777C85.2535 117.678 77.8514 107.041 77.8514 91.0057V76.0177C88.3302 72.9873 98.135 68.84 107.71 63.3897C117.068 68.7015 127.313 73.0333 137.566 76.0159V91.0057ZM149.74 94.3867C149.74 96.0436 148.391 97.3915 146.734 97.3915H143.292C143.525 95.3521 143.653 93.2253 143.653 91.0057V73.7102C143.653 72.3363 142.732 71.1332 141.407 70.7732C130.355 67.772 119.234 63.0954 109.246 57.2492C108.296 56.6934 107.121 56.694 106.171 57.2498C95.8996 63.2619 85.3798 67.685 74.0102 70.7732C72.6848 71.1335 71.7645 72.3366 71.7645 73.7102V91.0057C71.7645 93.2253 71.892 95.3521 72.1254 97.3915H9.09241C7.43523 97.3915 6.08697 96.0433 6.08697 94.3867V42.6082H149.74V94.3867ZM149.74 36.5215H6.08697V24.3482H149.74V36.5215ZM149.74 18.2609H6.08697V9.09241C6.08697 7.43523 7.43523 6.08697 9.09241 6.08697H146.734C148.391 6.08697 149.74 7.43523 149.74 9.09241V18.2609Z" fill="#FDFAFC"/>
<path d="M36.5224 63.9138C34.6875 63.9138 32.8757 64.2848 31.1988 64.9921C29.5605 64.2978 27.7599 63.9138 25.8718 63.9138C18.32 63.9138 12.1758 70.0573 12.1758 77.6088C12.1758 85.1603 18.3197 91.3045 25.8718 91.3045C27.7599 91.3045 29.5605 90.9204 31.1985 90.2262C32.8757 90.9335 34.6875 91.3045 36.5224 91.3045C44.0745 91.3045 50.2187 85.1603 50.2187 77.6088C50.2187 70.0573 44.0745 63.9138 36.5224 63.9138ZM25.8718 85.2176C21.676 85.2176 18.2627 81.8046 18.2627 77.6088C18.2627 73.4134 21.676 70.0007 25.8718 70.0007C30.0669 70.0007 33.4802 73.4134 33.4802 77.6088C33.4802 81.8043 30.0669 85.2176 25.8718 85.2176ZM37.2769 85.1804C38.7226 83.0101 39.5671 80.4064 39.5671 77.6091C39.5671 74.8119 38.7226 72.2088 37.2772 70.0385C41.1196 70.4183 44.1315 73.6687 44.1315 77.6091C44.1315 81.5496 41.1196 84.8003 37.2769 85.1804Z" fill="#FDFAFC"/>
<path d="M30.874 50.2175H15.2193C13.5383 50.2175 12.1758 51.5801 12.1758 53.261C12.1758 54.9416 13.5383 56.3045 15.2193 56.3045H30.874C32.555 56.3045 33.9175 54.9413 33.9175 53.261C33.9175 51.5801 32.555 50.2175 30.874 50.2175Z" fill="#FDFAFC"/>
<path d="M39.8674 50.2175H39.7232C38.0423 50.2175 36.6797 51.5801 36.6797 53.261C36.6797 54.9416 38.0423 56.3045 39.7232 56.3045H39.8674C41.548 56.3045 42.9109 54.9413 42.9109 53.261C42.9109 51.5801 41.548 50.2175 39.8674 50.2175Z" fill="#FDFAFC"/>
<path d="M124.415 84.0077C123.228 82.8198 121.301 82.8192 120.112 84.0074L103.836 100.282L95.3072 91.7524C94.1184 90.5649 92.1913 90.5643 91.0028 91.7524C89.8143 92.9412 89.814 94.8684 91.0028 96.0568L101.684 106.738C102.278 107.333 103.057 107.63 103.836 107.63C104.615 107.63 105.394 107.333 105.988 106.738L124.415 88.3121C125.604 87.1239 125.604 85.1968 124.415 84.0077Z" fill="#FDFAFC"/>
</svg>
