<svg width="142" height="148" viewBox="0 0 142 148" fill="none" xmlns="http://www.w3.org/2000/svg">
<path d="M142 77.1349C141.992 116.178 110.334 147.823 71.2893 147.815C32.2458 147.807 0.601482 116.148 0.609376 77.1045C0.616143 46.3499 20.5038 19.1285 49.8013 9.77393C50.081 9.68597 50.372 9.64085 50.6641 9.64198C51.2212 9.64311 51.767 9.79198 52.2463 10.075C52.8699 10.4438 53.3357 11.0302 53.5545 11.7215L71.4077 68.307C76.2886 68.3318 80.2244 72.3093 80.1984 77.189C80.1736 82.0699 76.1972 86.0057 71.3164 85.9809C70.0037 85.9753 68.7079 85.673 67.5283 85.0967L43.9427 108.686C42.7722 109.816 40.908 109.783 39.778 108.613C38.6751 107.471 38.6751 105.662 39.778 104.52L63.3511 80.9196C61.5422 77.2274 62.5764 72.7706 65.8288 70.2534L48.818 16.334C15.2001 28.7177 -2.01374 66.0086 10.37 99.6265C22.7537 133.244 60.0446 150.458 93.6625 138.075C127.28 125.691 144.494 88.3988 132.111 54.782C126.06 38.3576 113.629 25.0751 97.6412 17.9512L95.8029 26.6088C95.4669 28.2001 93.9027 29.2173 92.3115 28.8801C91.8096 28.7729 91.3439 28.5373 90.9604 28.1955L73.2369 12.3722C72.0212 11.2907 71.9129 9.42885 72.9956 8.21313C73.3474 7.81844 73.7985 7.52522 74.3037 7.36395L96.9318 0.141907C98.4802 -0.355423 100.139 0.496017 100.636 2.04553C100.794 2.53497 100.82 3.05598 100.714 3.55896L98.9076 12.0542C125.072 23.0846 142.061 48.7407 142 77.1349ZM71.3051 80.0806C72.9313 80.0806 74.2507 78.7611 74.2507 77.1349C74.2507 75.5076 72.9313 74.1893 71.3051 74.1893C69.6777 74.1893 68.3594 75.5076 68.3594 77.1349C68.3594 78.7611 69.6777 80.0806 71.3051 80.0806ZM81.007 11.4204L91.0958 20.4198L93.8802 7.29967L81.007 11.4204Z" fill="#FDFAFC"/>
<path d="M68.3555 133.102V127.211C68.3555 125.584 69.6738 124.265 71.3011 124.265C72.9273 124.265 74.2468 125.584 74.2468 127.211V133.102C74.2468 134.729 72.9273 136.048 71.3011 136.048C69.6738 136.048 68.3555 134.729 68.3555 133.102Z" fill="#FDFAFC"/>
<path d="M15.3382 80.0807C13.7109 80.0807 12.3926 78.7612 12.3926 77.135C12.3926 75.5077 13.7109 74.1894 15.3382 74.1894H21.2295C22.8569 74.1894 24.1752 75.5077 24.1752 77.135C24.1752 78.7612 22.8569 80.0807 21.2295 80.0807H15.3382Z" fill="#FDFAFC"/>
<path d="M127.273 74.1894C128.9 74.1894 130.218 75.5077 130.218 77.135C130.218 78.7612 128.9 80.0807 127.273 80.0807H121.381C119.755 80.0807 118.436 78.7612 118.436 77.135C118.436 75.5077 119.755 74.1894 121.381 74.1894H127.273Z" fill="#FDFAFC"/>
</svg>
