<svg width="140" height="140" viewBox="0 0 140 140" fill="none" xmlns="http://www.w3.org/2000/svg">
<path d="M138.582 30.2777L84.0564 0.337258C83.2372 -0.112419 82.2438 -0.112419 81.4246 0.337258L60.8729 11.6219C60.4393 11.7362 60.0345 11.9541 59.6991 12.2671L26.9004 30.2777C26.0256 30.7572 25.4819 31.6758 25.4819 32.6745V68.8858C19.9491 70.6162 14.8787 73.6678 10.6629 77.8847C-0.325906 88.8724 -3.12758 105.631 3.69128 119.586C4.35352 120.943 5.99094 121.506 7.34745 120.842C8.70503 120.179 9.26686 118.542 8.60462 117.185C2.81115 105.328 5.19199 91.0888 14.5295 81.7513C20.3689 75.9119 28.1319 72.6958 36.3896 72.6958C44.6472 72.6958 52.4103 75.9119 58.2496 81.7513C64.088 87.5896 67.3041 95.3527 67.3041 103.61C67.3041 111.868 64.088 119.631 58.2486 125.47C48.9111 134.808 34.672 137.189 22.8149 131.395C21.4583 130.732 19.8209 131.295 19.1587 132.651C18.4954 134.009 19.0572 135.646 20.4148 136.309C25.498 138.793 30.9518 140 36.3661 140C45.8114 139.999 55.1307 136.322 62.1162 129.337C65.3195 126.134 67.851 122.438 69.6422 118.421L81.4246 124.89C81.8347 125.116 82.2876 125.228 82.7405 125.228C83.1934 125.228 83.6473 125.116 84.0564 124.89L138.582 94.9511C139.456 94.4704 140 93.5519 140 92.5542V73.5514C140 72.041 138.776 70.817 137.266 70.817C135.755 70.817 134.531 72.041 134.531 73.5514V90.936L85.4834 117.869V64.2278L101.671 55.3389V69.4295C101.671 70.3972 102.181 71.2923 103.013 71.7836C103.443 72.0368 103.923 72.1639 104.405 72.1639C104.858 72.1639 105.312 72.0517 105.723 71.8253L117.407 65.3941C118.281 64.9135 118.823 63.996 118.823 62.9994V45.9202L134.531 37.2952V51.6774C134.531 53.1877 135.755 54.4118 137.266 54.4118C138.776 54.4118 140 53.1877 140 51.6774V32.6745C140 31.6769 139.456 30.7572 138.582 30.2777ZM82.7405 5.85302L131.584 32.6745L116.177 41.1351L67.3329 14.3136L82.7405 5.85302ZM82.7405 59.4949L33.8966 32.6745L49.8692 23.9031L98.7142 50.7236L82.7405 59.4949ZM104.394 47.6047L55.5505 20.7842L61.6516 17.4335L110.497 44.254L104.394 47.6047ZM62.1162 77.8847C55.244 71.0124 46.1073 67.2281 36.3896 67.2281C34.5513 67.2281 32.7355 67.3638 30.9507 67.6297V37.2952L80.0157 64.2374V117.878L71.4996 113.202C72.3381 110.115 72.7718 106.896 72.7718 103.61C72.7718 93.8926 68.9874 84.7559 62.1162 77.8847ZM113.355 61.3834L107.14 64.8046V52.3364L113.355 48.9238V61.3834Z" fill="#FDFAFC"/>
<path d="M137.266 59.8659C136.547 59.8659 135.841 60.1585 135.332 60.667C134.824 61.1754 134.531 61.8803 134.531 62.6003C134.531 63.3191 134.824 64.0241 135.332 64.5325C135.841 65.042 136.547 65.3336 137.266 65.3336C137.984 65.3336 138.691 65.042 139.199 64.5325C139.707 64.0241 140 63.3191 140 62.6003C140 61.8803 139.707 61.1754 139.199 60.667C138.691 60.1585 137.984 59.8659 137.266 59.8659Z" fill="#FDFAFC"/>
<path d="M27.1965 106.344C27.8961 106.344 28.5968 106.077 29.1298 105.544C30.1979 104.476 30.1979 102.744 29.1298 101.676L27.236 99.7815H43.3966C47.3166 99.7815 50.506 102.971 50.506 106.891C50.506 110.811 47.3166 114 43.3966 114H33.8209C32.3106 114 31.0866 115.224 31.0866 116.735C31.0866 118.244 32.3106 119.468 33.8209 119.468H43.3966C50.3319 119.468 55.9748 113.826 55.9748 106.891C55.9748 99.9556 50.3319 94.3138 43.3966 94.3138H27.236L29.1298 92.4189C30.1979 91.3508 30.1979 89.6194 29.1298 88.5513C28.0627 87.4842 26.3313 87.4842 25.2632 88.5513L18.7007 95.1138C17.6336 96.1819 17.6336 97.9133 18.7007 98.9814L25.2632 105.543C25.7972 106.077 26.4969 106.344 27.1965 106.344Z" fill="#FDFAFC"/>
<path d="M12.5974 130.142C11.8198 130.142 11.0476 129.811 10.5082 129.169L10.5028 129.162C9.53085 128.007 9.68038 126.283 10.8361 125.311C11.9918 124.338 13.7168 124.487 14.6888 125.643C15.6597 126.8 15.5134 128.527 14.3577 129.499C13.8439 129.93 13.2191 130.142 12.5974 130.142Z" fill="#FDFAFC"/>
</svg>
