<svg width="33" height="37" viewBox="0 0 33 37" fill="none" xmlns="http://www.w3.org/2000/svg">
<path d="M24.4981 8.34895C21.5578 5.92699 17.712 4.89836 13.9551 5.52912C13.5266 5.60085 13.104 5.69649 12.6873 5.80946C12.5678 5.84174 12.4482 5.877 12.3287 5.91227C9.84531 6.66221 7.63951 8.13033 5.98908 10.1317C1.36737 15.7341 2.16236 24.0223 7.76466 28.644C10.1219 30.5885 13.0828 31.6515 16.1387 31.6503C17.1121 31.6507 18.0825 31.5434 19.0323 31.3305C19.3408 31.2612 19.6444 31.1769 19.9463 31.086C22.4302 30.3369 24.6369 28.8694 26.2883 26.8684C30.908 21.26 30.1065 12.9686 24.4981 8.34895ZM7.36148 10.3798C7.62867 10.0917 7.90961 9.81968 8.19832 9.56146C8.22043 9.54174 8.24195 9.52022 8.26467 9.50169C8.54501 9.25602 8.8379 9.02708 9.13796 8.8101C9.17682 8.78201 9.21447 8.75033 9.25392 8.72523C9.54801 8.51841 9.85084 8.32571 10.1625 8.14721C10.2109 8.11912 10.2593 8.08744 10.3083 8.06293C10.6176 7.88996 10.9339 7.73156 11.2575 7.58773L11.4183 7.5172C11.6234 7.42933 11.8367 7.357 12.0448 7.2781C10.9426 8.47313 10.0981 9.88215 9.56355 11.4174C8.79635 11.1439 8.05688 10.7983 7.35491 10.3851L7.36148 10.3798ZM6.59638 11.3116C7.4161 11.8119 8.28521 12.2263 9.18997 12.5484C8.69145 14.2907 8.42097 16.0904 8.38541 17.9023H4.21021C4.33065 15.5167 5.16166 13.2215 6.59638 11.3116ZM6.59638 25.6884C5.16173 23.7786 4.33073 21.4834 4.21021 19.0978H8.38541C8.4209 20.9097 8.69138 22.7094 9.18997 24.4517C8.28536 24.774 7.41625 25.1884 6.59638 25.6884ZM11.4171 29.4811C11.3663 29.4608 11.3143 29.4386 11.2629 29.4147C10.9378 29.2695 10.6186 29.1105 10.3065 28.9365C10.2599 28.9108 10.2145 28.8833 10.1679 28.857C9.85465 28.6777 9.54801 28.4829 9.25093 28.2731C9.21567 28.248 9.181 28.2217 9.14573 28.1959C8.84208 27.9772 8.54799 27.7453 8.26287 27.4972C8.24375 27.4799 8.22521 27.4613 8.2031 27.4446C7.90841 27.1828 7.62389 26.9066 7.35371 26.6161C8.05613 26.2028 8.79606 25.8568 9.56355 25.5826C10.0985 27.1173 10.9432 28.5257 12.0454 29.7202C11.835 29.6437 11.6228 29.5713 11.4171 29.4811ZM15.5409 30.3998C13.5349 30.0693 11.7859 28.0973 10.707 25.2258C12.2827 24.79 13.9064 24.5515 15.5409 24.5157V30.3998ZM15.5409 23.3214C13.7789 23.3577 12.0285 23.616 10.331 24.0901C9.86922 22.4648 9.6169 20.7871 9.58029 19.0978H15.5409V23.3214ZM15.5409 17.9023H9.58029C9.61668 16.2135 9.86877 14.5361 10.3304 12.9112C12.0272 13.3916 13.778 13.6553 15.5409 13.696V17.9023ZM15.5409 12.4856C13.9066 12.4493 12.283 12.2104 10.7075 11.7744C11.7834 8.90589 13.5352 6.9338 15.5409 6.60146V12.4856ZM25.681 11.3116C27.1156 13.2215 27.9466 15.5167 28.0671 17.9023H23.8919C23.8564 16.0904 23.586 14.2907 23.0874 12.5484C23.992 12.2261 24.8611 11.8116 25.681 11.3116ZM20.8584 7.51839L21.0162 7.58594C21.3402 7.73059 21.6582 7.88899 21.9678 8.06413C22.0156 8.09103 22.0629 8.11912 22.1107 8.14661C22.4227 8.32594 22.7275 8.51901 23.0228 8.72702C23.0605 8.75332 23.0969 8.78201 23.134 8.80891C23.4329 9.02649 23.7317 9.25661 24.0121 9.50348C24.033 9.52201 24.0527 9.54174 24.0719 9.56027C24.3653 9.82088 24.6487 10.0946 24.9183 10.3857C24.2175 10.7982 23.4794 11.1436 22.7138 11.4174C22.1788 9.88245 21.3338 8.47388 20.2314 7.2793C20.4418 7.35581 20.6534 7.42813 20.8584 7.51839ZM16.7364 6.60027C18.7424 6.93082 20.4914 8.90275 21.5703 11.7743C19.9946 12.2101 18.3709 12.4486 16.7364 12.4844V6.60027ZM16.7364 13.696C18.4994 13.6552 20.2501 13.3915 21.9469 12.9112C22.4086 14.5361 22.6607 16.2135 22.6971 17.9023H16.7364V13.696ZM16.7364 19.0978H22.6971C22.6604 20.7873 22.4081 22.4651 21.9463 24.0907C20.2489 23.6162 18.4985 23.3579 16.7364 23.322V19.0978ZM16.7364 30.4004V24.5157C18.3709 24.5516 19.9946 24.7901 21.5703 25.2258V25.2264C20.4914 28.0955 18.7424 30.0681 16.7364 30.4004ZM24.9135 26.6203C24.6457 26.9096 24.3636 27.1822 24.0713 27.441C24.0503 27.4601 24.0306 27.4799 24.0115 27.5008C23.7293 27.7476 23.4353 27.979 23.1334 28.1959C23.0963 28.2228 23.0605 28.2503 23.0228 28.2766C22.7275 28.4853 22.4221 28.6783 22.1101 28.8582C22.0629 28.8851 22.0156 28.9132 21.9684 28.9395C21.6584 29.1129 21.3408 29.2723 21.0156 29.4177L20.8578 29.4871C20.6528 29.5749 20.4394 29.6473 20.2308 29.7262C21.3341 28.53 22.1793 27.1196 22.7138 25.5826C23.482 25.856 24.2226 26.2017 24.9254 26.6149L24.9135 26.6203ZM25.681 25.6884H25.6786C24.8589 25.1881 23.9897 24.7737 23.085 24.4517C23.5843 22.7095 23.8556 20.9098 23.8919 19.0978H28.0671C27.9467 21.4834 27.1157 23.7786 25.681 25.6884Z" fill="#3E4746"/>
<path d="M31.082 18.5C31.0728 26.7492 24.3877 33.4343 16.1385 33.4435H8.01763L9.5329 31.9276L8.6877 31.0824L5.72949 34.0412L8.6877 37L9.5329 36.1548L8.01763 34.6389H16.1385C25.0477 34.6291 32.2676 27.4092 32.2774 18.5H31.082Z" fill="#3E4746"/>
<path d="M22.3943 0L21.5491 0.845202L23.0643 2.36107H16.1389C7.22972 2.37093 0.00986268 9.59078 0 18.5H1.19548C1.20467 10.2508 7.8897 3.56573 16.1389 3.55654H23.0643L21.5491 5.07241L22.3943 5.91761L25.3525 2.9588L22.3943 0Z" fill="#3E4746"/>
</svg>
