<svg width="20" height="20" viewBox="0 0 20 20" fill="none" xmlns="http://www.w3.org/2000/svg">
<path fill-rule="evenodd" clip-rule="evenodd" d="M0 10C0 4.49275 4.49275 0 10 0C15.5072 0 20 4.49275 20 10C20 15.5072 15.5072 20 10 20C4.49275 20 0 15.5072 0 10ZM18.6957 10C18.6957 5.21739 14.7826 1.30435 10 1.30435C5.21739 1.30435 1.30435 5.21739 1.30435 10C1.30435 14.7826 5.21739 18.6957 10 18.6957C14.7826 18.6957 18.6957 14.7826 18.6957 10Z" fill="#3E4746"/>
<path fill-rule="evenodd" clip-rule="evenodd" d="M5.50684 8.69561L6.52133 7.82605L9.99959 11.3043L13.4778 7.82605L14.3474 8.69561L10.8692 12.1739L9.99959 13.0434L9.13002 12.1739L5.50684 8.69561Z" fill="#3E4746"/>
</svg>
