<svg width="31" height="32" viewBox="0 0 31 32" fill="none" xmlns="http://www.w3.org/2000/svg">
<path d="M30.6092 16.6987C30.6075 25.1511 23.7539 32.0017 15.3013 32C6.84889 31.9983 -0.00170867 25.1445 3.19681e-07 16.6921C0.00146517 10.0342 4.30689 4.14108 10.6494 2.11593C10.71 2.09688 10.773 2.08712 10.8362 2.08736C10.9568 2.08761 11.075 2.11983 11.1787 2.18111C11.3137 2.26095 11.4146 2.3879 11.4619 2.53756L15.3269 14.7876C16.3836 14.7929 17.2356 15.654 17.23 16.7104C17.2246 17.7671 16.3638 18.6191 15.3071 18.6138C15.023 18.6125 14.7424 18.5471 14.4871 18.4223L9.38111 23.529C9.1277 23.7737 8.72413 23.7666 8.4795 23.5134C8.24073 23.2661 8.24073 22.8745 8.4795 22.6272L13.5828 17.518C13.1912 16.7187 13.4151 15.7539 14.1192 15.209L10.4365 3.53609C3.1587 6.21701 -0.567872 14.29 2.11304 21.5679C4.79395 28.8457 12.867 32.5723 20.1448 29.8914C27.4226 27.2104 31.1492 19.1372 28.4683 11.8596C27.1585 8.30392 24.4673 5.42843 21.0061 3.88619L20.6082 5.76046C20.5354 6.10495 20.1968 6.32516 19.8523 6.25216C19.7437 6.22897 19.6428 6.17794 19.5598 6.10397L15.7229 2.67843C15.4597 2.4443 15.4363 2.04122 15.6707 1.77804C15.7468 1.69259 15.8445 1.62911 15.9539 1.5942L20.8526 0.0307198C21.1878 -0.0769463 21.5469 0.10738 21.6546 0.442829C21.6887 0.548786 21.6944 0.661579 21.6714 0.770468L21.2803 2.60958C26.9446 4.99752 30.6224 10.5517 30.6092 16.6987ZM15.3047 17.3364C15.6568 17.3364 15.9424 17.0508 15.9424 16.6987C15.9424 16.3464 15.6568 16.061 15.3047 16.061C14.9524 16.061 14.667 16.3464 14.667 16.6987C14.667 17.0508 14.9524 17.3364 15.3047 17.3364ZM17.4051 2.47237L19.5891 4.42062L20.1919 1.58028L17.4051 2.47237Z" fill="#3E4746"/>
<path d="M14.667 28.8149V27.5395C14.667 27.1873 14.9524 26.9019 15.3047 26.9019C15.6567 26.9019 15.9424 27.1873 15.9424 27.5395V28.8149C15.9424 29.167 15.6567 29.4526 15.3047 29.4526C14.9524 29.4526 14.667 29.167 14.667 28.8149Z" fill="#3E4746"/>
<path d="M3.18848 17.3364C2.83618 17.3364 2.55078 17.0508 2.55078 16.6987C2.55078 16.3464 2.83618 16.061 3.18848 16.061H4.46387C4.81617 16.061 5.10157 16.3464 5.10157 16.6987C5.10157 17.0508 4.81617 17.3364 4.46387 17.3364H3.18848Z" fill="#3E4746"/>
<path d="M27.4209 16.061C27.7732 16.061 28.0586 16.3464 28.0586 16.6987C28.0586 17.0508 27.7732 17.3364 27.4209 17.3364H26.1455C25.7935 17.3364 25.5078 17.0508 25.5078 16.6987C25.5078 16.3464 25.7935 16.061 26.1455 16.061H27.4209Z" fill="#3E4746"/>
</svg>
