<svg width="146" height="166" viewBox="0 0 146 166" fill="none" xmlns="http://www.w3.org/2000/svg">
<path d="M110.445 37.438C97.26 26.5776 80.015 21.9651 63.1686 24.7935C61.2468 25.1151 59.3518 25.544 57.4836 26.0506C56.9476 26.1953 56.4115 26.3535 55.8754 26.5116C44.7396 29.8744 34.8484 36.4577 27.4476 45.4322C6.72317 70.5541 10.288 107.72 35.4096 128.444C45.9799 137.164 59.257 141.93 72.96 141.925C77.3249 141.926 81.6764 141.446 85.9355 140.491C87.3186 140.18 88.6802 139.802 90.0338 139.394C101.172 136.035 111.067 129.455 118.472 120.482C139.188 95.3332 135.594 58.1535 110.445 37.438ZM33.6017 46.5445C34.7998 45.2526 36.0596 44.033 37.3542 42.8751C37.4534 42.7867 37.5499 42.6902 37.6517 42.6071C38.9088 41.5055 40.2222 40.4789 41.5677 39.5059C41.7419 39.38 41.9108 39.2379 42.0877 39.1253C43.4064 38.1979 44.7644 37.3338 46.1618 36.5334C46.3789 36.4074 46.596 36.2654 46.8158 36.1555C48.2026 35.3799 49.6212 34.6696 51.0722 34.0246L51.7932 33.7083C52.7126 33.3143 53.6695 32.99 54.6022 32.6362C49.66 37.9949 45.873 44.3131 43.4761 51.1976C40.0359 49.971 36.72 48.4211 33.5722 46.5687L33.6017 46.5445ZM30.1709 50.7232C33.8466 52.9666 37.7439 54.8248 41.8009 56.2688C39.5655 64.0817 38.3526 72.1519 38.1931 80.2767H19.4709C20.011 69.5791 23.7374 59.2872 30.1709 50.7232ZM30.1709 115.191C23.7377 106.627 20.0113 96.335 19.4709 85.6374H38.1931C38.3523 93.7622 39.5652 101.832 41.8009 109.645C37.7445 111.09 33.8473 112.949 30.1709 115.191ZM51.7879 132.198C51.56 132.107 51.3269 132.007 51.0963 131.9C49.6382 131.249 48.2069 130.536 46.8078 129.756C46.5987 129.641 46.395 129.517 46.1859 129.399C44.7814 128.595 43.4064 127.722 42.0743 126.781C41.9162 126.668 41.7607 126.55 41.6025 126.435C40.2409 125.454 38.9222 124.414 37.6437 123.302C37.5579 123.224 37.4748 123.141 37.3756 123.066C36.0542 121.892 34.7784 120.653 33.5669 119.351C36.7166 117.497 40.0345 115.946 43.4761 114.717C45.8747 121.598 49.6627 127.914 54.6049 133.27C53.6614 132.927 52.7099 132.602 51.7879 132.198ZM70.2796 136.317C61.2844 134.835 53.4417 125.993 48.6036 113.116C55.6694 111.162 62.9502 110.093 70.2796 109.932V136.317ZM70.2796 104.577C62.3783 104.74 54.5292 105.898 46.9177 108.024C44.8468 100.735 43.7153 93.2124 43.5512 85.6374H70.2796V104.577ZM70.2796 80.2767H43.5512C43.7143 72.7037 44.8448 65.1823 46.915 57.8958C54.5235 60.0501 62.3743 61.2325 70.2796 61.4151V80.2767ZM70.2796 55.9874C62.9509 55.8246 55.6707 54.7534 48.6056 52.7985C53.4303 39.9355 61.2857 31.0923 70.2796 29.602V55.9874ZM115.749 50.7232C122.182 59.2872 125.909 69.5791 126.449 80.2767H107.727C107.568 72.1519 106.355 64.0817 104.119 56.2688C108.175 54.8238 112.073 52.9653 115.749 50.7232ZM94.124 33.7137L94.8316 34.0166C96.2843 34.6652 97.7103 35.3755 99.0987 36.1609C99.3131 36.2815 99.5249 36.4074 99.7393 36.5307C101.138 37.3348 102.505 38.2006 103.83 39.1334C103.998 39.2513 104.162 39.38 104.328 39.5006C105.668 40.4762 107.008 41.5082 108.266 42.6151C108.359 42.6982 108.448 42.7867 108.534 42.8698C109.85 44.0384 111.12 45.266 112.329 46.5713C109.187 48.4208 105.877 49.9697 102.444 51.1976C100.045 44.3145 96.2559 37.9982 91.3123 32.6416C92.2558 32.9846 93.2046 33.309 94.124 33.7137ZM75.6403 29.5967C84.6356 31.0789 92.4782 39.9214 97.3163 52.7978C90.2505 54.7521 82.9697 55.8215 75.6403 55.982V29.5967ZM75.6403 61.4151C83.5457 61.2322 91.3964 60.0495 99.0049 57.8958C101.075 65.1823 102.206 72.7037 102.369 80.2767H75.6403V61.4151ZM75.6403 85.6374H102.369C102.205 93.2134 101.073 100.737 99.0022 108.026C91.391 105.899 83.5416 104.741 75.6403 104.579V85.6374ZM75.6403 136.32V109.932C82.9694 110.093 90.2505 111.163 97.3163 113.116V113.119C92.4782 125.985 84.6356 134.83 75.6403 136.32ZM112.307 119.37C111.107 120.667 109.842 121.889 108.531 123.05C108.437 123.135 108.349 123.224 108.263 123.318C106.998 124.425 105.679 125.462 104.325 126.435C104.159 126.556 103.998 126.679 103.83 126.797C102.505 127.732 101.136 128.598 99.7366 129.405C99.5249 129.525 99.3131 129.651 99.1014 129.769C97.7113 130.547 96.287 131.261 94.8289 131.914L94.1213 132.225C93.202 132.619 92.2451 132.943 91.3096 133.297C96.2569 127.933 100.047 121.608 102.444 114.717C105.888 115.942 109.209 117.492 112.361 119.345L112.307 119.37ZM115.749 115.191H115.738C112.063 112.947 108.165 111.089 104.108 109.645C106.347 101.833 107.564 93.7629 107.727 85.6374H126.449C125.909 96.335 122.183 106.627 115.749 115.191Z" fill="#D04B86"/>
<path d="M139.968 82.9568C139.927 119.948 109.951 149.924 72.9598 149.966H36.5446L43.3392 143.168L39.5492 139.378L26.2842 152.646L39.5492 165.914L43.3392 162.124L36.5446 155.326H72.9598C112.91 155.282 145.285 122.907 145.329 82.9568H139.968Z" fill="#D04B86"/>
<path d="M101.01 0L97.2201 3.79001L104.015 10.5874H72.9602C33.01 10.6316 0.635046 43.0065 0.59082 82.9568H5.95152C5.99273 45.966 35.9694 15.9893 72.9602 15.9481H104.015L97.2201 22.7454L101.01 26.5355L114.275 13.2677L101.01 0Z" fill="#D04B86"/>
</svg>
