<svg width="178" height="62" viewBox="0 0 178 62" fill="none" xmlns="http://www.w3.org/2000/svg">
<path d="M89.0947 4.65308L97.5156 21.7156L116.345 24.4517L102.72 37.733L105.936 56.4866L89.0947 47.6324L72.253 56.4866L75.4695 37.733L61.8443 24.4517L80.6739 21.7156L89.0947 4.65308Z" fill="#D04B86"/>
<path d="M158.681 0L164.134 11.05L176.329 12.822L167.505 21.4232L169.588 33.5684L158.681 27.8342L147.774 33.5684L149.857 21.4232L141.033 12.822L153.227 11.05L158.681 0Z" fill="#D04B86"/>
<path d="M19.5093 0.000244141L24.9628 11.0503L37.1572 12.8222L28.3332 21.4235L30.4163 33.5686L19.5093 27.8344L8.60224 33.5686L10.6853 21.4235L1.86133 12.8222L14.0557 11.0503L19.5093 0.000244141Z" fill="#D04B86"/>
</svg>
