<svg width="178" height="58" viewBox="0 0 178 58" fill="none" xmlns="http://www.w3.org/2000/svg">
<path d="M89.0957 1.12978L97.0682 17.2838L97.1846 17.5195L97.4447 17.5573L115.272 20.1478L102.372 32.7219L102.184 32.9054L102.228 33.1645L105.273 50.9195L89.3284 42.5367L89.0957 42.4144L88.8631 42.5367L72.9181 50.9195L75.9633 33.1645L76.0077 32.9054L75.8195 32.7219L62.9197 20.1478L80.7468 17.5573L81.0069 17.5195L81.1232 17.2838L89.0957 1.12978Z" fill="#D04B86" stroke="#D04B86"/>
<path d="M158.682 20.1934L164.135 31.2434L176.33 33.0153L167.506 41.6166L169.589 53.7617L158.682 48.0276L147.775 53.7617L149.858 41.6166L141.034 33.0153L153.228 31.2434L158.682 20.1934Z" fill="#D04B86"/>
<path d="M19.5102 20.1934L24.9637 31.2434L37.1582 33.0153L28.3342 41.6166L30.4173 53.7617L19.5102 48.0276L8.60321 53.7617L10.6863 41.6166L1.8623 33.0153L14.0567 31.2434L19.5102 20.1934Z" fill="#D04B86"/>
</svg>
