<svg width="23" height="23" viewBox="0 0 23 23" fill="none" xmlns="http://www.w3.org/2000/svg">
<path d="M11.5 23C17.8513 23 23 17.8513 23 11.5C23 5.14873 17.8513 0 11.5 0C5.14873 0 0 5.14873 0 11.5C0 17.8513 5.14873 23 11.5 23Z" fill="#D42428"/>
<path d="M15.6134 14.1662H14.8714L14.8751 13.7355C14.8751 13.5439 15.0322 13.3876 15.2244 13.3876H15.272C15.4643 13.3876 15.6221 13.544 15.6221 13.7355L15.6134 14.1662ZM12.8317 13.2432C12.6441 13.2432 12.4901 13.3698 12.4901 13.5245V15.6191C12.4901 15.7738 12.6441 15.8996 12.8317 15.8996C13.0207 15.8996 13.1747 15.7738 13.1747 15.6191V13.5243C13.1747 13.3698 13.0207 13.2432 12.8317 13.2432ZM17.3483 12.0718V16.0562C17.3483 17.0121 16.5196 17.794 15.5061 17.794H7.93205C6.9184 17.794 6.08984 17.0119 6.08984 16.0562V12.0718C6.08984 11.1159 6.91845 10.3336 7.93205 10.3336H15.5063C16.5195 10.3336 17.3483 11.1161 17.3483 12.0718ZM8.43705 16.4889L8.43671 12.2917L9.37553 12.292V11.6699L6.87268 11.6661V12.2773L7.65407 12.2797V16.4887H8.43705V16.4889ZM11.2517 12.9171H10.4688V15.1582C10.4688 15.4826 10.4882 15.6447 10.4678 15.7017C10.4038 15.8755 10.1177 16.06 10.0063 15.7206C9.98745 15.6611 10.0041 15.4816 10.0038 15.1735L10.0002 12.9169H9.22169L9.2246 15.1379C9.22494 15.4783 9.21679 15.7322 9.22713 15.8477C9.2462 16.0514 9.23911 16.2891 9.42853 16.4244C9.78047 16.6785 10.4556 16.3867 10.6245 16.024L10.623 16.4867L11.2515 16.4876V12.9171H11.2517ZM13.756 15.4834L13.7545 13.618C13.7538 12.9069 13.2221 12.4811 12.4997 13.0563L12.503 11.6694L11.7208 11.6706L11.717 16.4575L12.36 16.448L12.4185 16.1497C13.2406 16.9044 13.7574 16.3876 13.756 15.4834ZM16.2063 15.2363L15.619 15.2394C15.619 15.2629 15.618 15.2896 15.6176 15.319V15.6465C15.6176 15.8218 15.4729 15.9645 15.2969 15.9645H15.1819C15.0056 15.9645 14.8609 15.8218 14.8609 15.6465V15.6102V15.2496V14.7847H16.205V14.2788C16.205 13.9093 16.1954 13.5398 16.1649 13.3284C16.0689 12.6596 15.1304 12.5536 14.6561 12.8959C14.5072 13.0028 14.3937 13.1459 14.3273 13.3384C14.2606 13.5307 14.2276 13.7931 14.2276 14.1269V15.2391C14.2281 17.088 16.4737 16.8267 16.2063 15.2363ZM13.1952 9.19742C13.2353 9.29584 13.298 9.37519 13.3835 9.43546C13.4672 9.49428 13.5751 9.52427 13.7038 9.52427C13.8166 9.52427 13.9166 9.49375 14.0034 9.43076C14.0904 9.3681 14.1638 9.27478 14.2233 9.14986L14.2084 9.45711H15.0809V5.74615H14.394V8.63433C14.394 8.7905 14.2649 8.91852 14.1074 8.91852C13.9511 8.91852 13.8216 8.7905 13.8216 8.63433V5.74615H13.1048V8.249C13.1048 8.56789 13.1105 8.7805 13.1201 8.88838C13.1304 8.99549 13.1549 9.09808 13.1952 9.19742ZM10.5509 7.10155C10.5509 6.74529 10.5807 6.46726 10.6395 6.26678C10.6988 6.06684 10.8059 5.90615 10.9602 5.78522C11.1146 5.66336 11.3122 5.60255 11.5519 5.60255C11.7536 5.60255 11.9267 5.6423 12.0714 5.71985C12.2161 5.79793 12.3285 5.89907 12.4059 6.02418C12.4854 6.14968 12.5388 6.27877 12.5677 6.41077C12.5971 6.54442 12.6112 6.74655 12.6112 7.01837V7.95699C12.6112 8.30126 12.5974 8.5544 12.5708 8.71532C12.5444 8.87659 12.4874 9.02601 12.3992 9.16602C12.312 9.30477 12.1994 9.40843 12.0628 9.47453C11.9252 9.54155 11.7678 9.57421 11.5894 9.57421C11.3908 9.57421 11.223 9.54679 11.0852 9.48923C10.9468 9.43221 10.8396 9.34612 10.7635 9.23193C10.6862 9.11754 10.6323 8.97826 10.5998 8.81593C10.5667 8.6534 10.5511 8.40953 10.5511 8.08414V7.10155H10.5509ZM11.234 8.57585C11.234 8.78574 11.3907 8.95734 11.5812 8.95734C11.7717 8.95734 11.9273 8.78594 11.9273 8.57585V6.60018C11.9273 6.39029 11.7717 6.21869 11.5812 6.21869C11.3907 6.21869 11.234 6.3901 11.234 6.60018V8.57585ZM8.81908 9.57329H9.64259L9.64332 6.72709L10.6161 4.28889H9.71563L9.19844 6.10023L8.67383 4.28418H7.78296L8.81782 6.72874L8.81908 9.57329Z" fill="white"/>
</svg>
