<svg width="20" height="20" viewBox="0 0 20 20" fill="none" xmlns="http://www.w3.org/2000/svg">
<path fill-rule="evenodd" clip-rule="evenodd" d="M0 10C0 4.49275 4.49275 0 10 0C15.5072 0 20 4.49275 20 10C20 15.5072 15.5072 20 10 20C4.49275 20 0 15.5072 0 10ZM18.6957 10C18.6957 5.21739 14.7826 1.30435 10 1.30435C5.21739 1.30435 1.30435 5.21739 1.30435 10C1.30435 14.7826 5.21739 18.6957 10 18.6957C14.7826 18.6957 18.6957 14.7826 18.6957 10Z" fill="#00A9FF"/>
<path fill-rule="evenodd" clip-rule="evenodd" d="M5.50726 8.69549L6.52176 7.82593L10 11.3042L13.4783 7.82593L14.3478 8.69549L10.8696 12.1738L10 13.0433L9.13045 12.1738L5.50726 8.69549Z" fill="#00A9FF"/>
</svg>
