<svg width="36" height="36" viewBox="0 0 36 36" fill="none" xmlns="http://www.w3.org/2000/svg">
<path d="M0.213852 17.9644C0.213852 8.08768 8.19801 0.0717773 18.0356 0.0717773C27.8733 0.0717773 35.8574 8.08768 35.8574 17.9644C35.8574 27.8412 27.8733 35.8571 18.0356 35.8571C8.12672 35.8571 0.213852 27.8412 0.213852 17.9644Z" fill="url(#paint0_linear)"/>
<path d="M18.0356 5.86887C13.1168 5.86887 8.41189 5.43945 6.62971 10.02C5.91684 11.9524 5.98813 14.3858 5.98813 17.9643C5.98813 21.0418 5.91684 23.9762 6.62971 25.9086C8.41189 30.4892 13.1168 30.0597 18.0356 30.0597C22.7406 30.0597 27.6594 30.5607 29.4416 25.9086C30.1545 23.9762 30.0832 21.5428 30.0832 17.9643C30.0832 13.2406 30.3683 10.1631 28.0871 7.87285C25.7347 5.58259 22.598 5.86887 18.0356 5.86887ZM16.8951 8.08756C27.2317 8.01599 28.5149 6.87086 27.802 22.8311C27.5168 28.4852 23.2396 27.841 17.9644 27.841C8.3406 27.841 8.05545 27.5548 8.05545 17.8927C8.12674 8.2307 8.9109 8.08756 16.8951 8.08756ZM24.4515 10.0915C23.6673 10.0915 23.0257 10.7357 23.0257 11.5229C23.0257 12.3102 23.6673 12.9544 24.4515 12.9544C25.2356 12.9544 25.8772 12.3102 25.8772 11.5229C25.8772 10.7357 25.2356 10.0915 24.4515 10.0915ZM18.0356 11.7377C14.6139 11.7377 11.8337 14.5289 11.8337 17.9643C11.8337 21.3997 14.6139 24.1909 18.0356 24.1909C21.4574 24.1909 24.2376 21.3997 24.2376 17.9643C24.2376 14.5289 21.3861 11.7377 18.0356 11.7377ZM18.0356 13.9563C23.3109 13.9563 23.3822 22.0438 18.0356 22.0438C12.6891 22.0438 12.6891 13.9563 18.0356 13.9563Z" fill="white"/>
<defs>
<linearGradient id="paint0_linear" x1="6.44649" y1="31.6063" x2="29.6599" y2="4.44929" gradientUnits="userSpaceOnUse">
<stop stop-color="#FFDE46"/>
<stop offset="0.4781" stop-color="#FF533A"/>
<stop offset="1" stop-color="#E834B0"/>
</linearGradient>
</defs>
</svg>
