<svg width="23" height="23" viewBox="0 0 23 23" fill="none" xmlns="http://www.w3.org/2000/svg">
<path fill-rule="evenodd" clip-rule="evenodd" d="M11.5 23C17.8169 23 23 17.8169 23 11.5C23 5.1831 17.8169 0 11.5 0C5.1831 0 0 5.1831 0 11.5C0 17.8169 5.1831 23 11.5 23Z" fill="#00A9FF"/>
<path fill-rule="evenodd" clip-rule="evenodd" d="M8.90846 7.93663C8.90846 5.1831 12.7958 4.0493 14.0916 6.80282C14.5775 7.93663 14.2535 9.07043 13.4437 9.71832C12.9578 10.2042 12.4718 10.5282 11.662 10.6901C10.3662 10.6901 8.90846 9.55634 8.90846 7.93663ZM5.18311 16.6831C5.18311 16.8451 5.18311 16.8451 5.18311 17.007C5.83099 17.169 5.83099 17.169 6.15494 16.5211C7.61268 14.2535 10.5282 13.1197 13.4437 13.9296C14.0916 14.4155 14.5775 14.5775 15.0634 14.9014C15.5493 15.2254 16.0352 15.5493 16.3592 16.0352C17.169 17.007 17.0071 17.331 17.6549 17.331C17.9789 17.331 17.9789 17.169 17.9789 16.8451C17.9789 16.0352 15.2254 12.9578 11.9859 12.9578C10.2042 12.9578 8.90846 13.2817 7.45071 14.2535C6.9648 14.4155 6.47888 14.7394 6.15494 15.2254C5.99296 15.5493 5.18311 16.3592 5.18311 16.6831ZM7.93663 7.77465C7.93663 10.0423 9.39437 11.662 11.824 11.662C13.7676 11.662 15.3873 10.0423 15.3873 7.77465C15.3873 5.83099 13.7676 4.21127 11.5 4.21127C9.55635 4.21127 7.93663 5.99296 7.93663 7.77465Z" fill="white"/>
</svg>
