<svg width="35" height="35" viewBox="0 0 35 35" fill="none" xmlns="http://www.w3.org/2000/svg">
<path fill-rule="evenodd" clip-rule="evenodd" d="M17.5 0C7.85714 0 0 7.85714 0 17.5C0 27.1429 7.85714 35 17.5 35C27.1429 35 35 27.1429 35 17.5C35 7.85714 27.1429 0 17.5 0ZM17.5 32.6786C9.10714 32.6786 2.14286 25.8929 2.14286 17.3214C2.14286 8.92857 8.92857 1.96429 17.5 1.96429C26.0714 1.96429 32.8571 8.75 32.8571 17.3214C32.6786 25.8929 25.8929 32.6786 17.5 32.6786Z" fill="#00A9FF"/>
<path fill-rule="evenodd" clip-rule="evenodd" d="M15.1786 9.82129L13.75 11.2499L19.8214 17.4999L13.75 23.5713L15.1786 25.1784L21.4286 18.9284L22.8571 17.4999L21.4286 15.8927L15.1786 9.82129Z" fill="#00A9FF"/>
</svg>
