<svg width="35" height="35" viewBox="0 0 35 35" fill="none" xmlns="http://www.w3.org/2000/svg">
<g clip-path="url(#clip0)">
<path fill-rule="evenodd" clip-rule="evenodd" d="M17.5 35C27.1429 35 35 27.1429 35 17.5C35 7.85714 27.1429 -6.86893e-07 17.5 -1.5299e-06C7.85715 -2.3729e-06 2.3729e-06 7.85714 1.5299e-06 17.5C6.86893e-07 27.1429 7.85714 35 17.5 35ZM17.5 2.32143C25.8929 2.32143 32.8571 9.10714 32.8571 17.6786C32.8571 26.0714 26.0714 33.0357 17.5 33.0357C8.92857 33.0357 2.14286 26.25 2.14286 17.6786C2.32143 9.10714 9.10715 2.32143 17.5 2.32143Z" fill="#00A9FF"/>
<path fill-rule="evenodd" clip-rule="evenodd" d="M19.8214 25.1787L21.25 23.7501L15.1786 17.5001L21.25 11.4287L19.8214 9.82157L13.5714 16.0716L12.1429 17.5001L13.5714 19.1073L19.8214 25.1787Z" fill="#00A9FF"/>
</g>
<defs>
<clipPath id="clip0">
<rect width="35" height="35" fill="white" transform="translate(35 35) rotate(-180)"/>
</clipPath>
</defs>
</svg>
