<svg width="24" height="24" viewBox="0 0 24 24" fill="none" xmlns="http://www.w3.org/2000/svg">
<path fill-rule="evenodd" clip-rule="evenodd" d="M12 24C18.5915 24 24 18.5915 24 12C24 5.40845 18.5915 0 12 0C5.40845 0 0 5.40845 0 12C0 18.5915 5.40845 24 12 24Z" fill="#00A9FF"/>
<path fill-rule="evenodd" clip-rule="evenodd" d="M9.8028 5.23944C8.95773 5.40846 7.94365 5.74648 7.77463 6.42254C6.92956 8.28169 8.95773 12 9.8028 13.5211C10.6479 14.8732 10.8169 15.0423 11.662 16.0563L12.676 17.0704C13.1831 17.5775 13.8591 18.0845 14.3662 18.4225C15.0422 18.9296 16.0563 19.0986 16.7324 18.4225C17.0704 18.0845 17.7465 17.5775 17.7465 17.0704C17.7465 16.7324 17.5775 16.7324 17.4084 16.5634C17.2394 16.3944 17.2394 16.2254 17.0704 16.2254L16.7324 15.8873C16.3944 15.5493 16.2253 15.2113 15.8873 15.0423C15.7183 14.7042 15.3803 14.3662 14.8732 14.7042C13.1831 15.2113 13.1831 15.2113 12 13.3521C11.4929 12.6761 11.1549 12 10.8169 11.3239C10.6479 11.1549 10.3098 10.6479 10.3098 10.1409C10.3098 9.29578 11.662 8.78874 11.4929 8.11268L10.6479 5.9155C10.3098 5.40846 10.4789 5.23944 9.8028 5.23944Z" fill="white"/>
</svg>
