<svg width="36" height="36" viewBox="0 0 36 36" fill="none" xmlns="http://www.w3.org/2000/svg">
<path d="M18 0C27.936 0 36 8.064 36 18C36 27.936 27.936 36 18 36C8.064 36 0 27.936 0 18C0 8.064 8.064 0 18 0Z" fill="#00B6D9"/>
<path d="M36 17.9998C36 17.5678 36 17.1358 35.928 16.7038L28.512 9.21582L7.48799 17.4958L15.552 25.5598L15.624 25.9198L15.768 25.7758L15.624 25.9198L24.48 34.7758C31.248 32.1838 36 25.6318 36 17.9998Z" fill="#0094BD"/>
<path d="M16.272 20.5918L24.408 26.7838L28.512 9.21582L7.48799 17.4958L13.896 19.5838L25.56 11.8078L16.272 20.5918Z" fill="white"/>
<path d="M13.896 19.5841L15.624 25.9201L16.272 20.5921L25.56 11.8081L13.896 19.5841Z" fill="#C5C3CB"/>
<path d="M18.864 22.6078L15.624 25.9198L16.272 20.5918L18.864 22.6078Z" fill="#ABAEB5"/>
</svg>
