<svg width="48" height="48" viewBox="0 0 48 48" fill="none" xmlns="http://www.w3.org/2000/svg">
<g clip-path="url(#clip0)">
<path fill-rule="evenodd" clip-rule="evenodd" d="M44.9293 44.9293H3.07071V3.07071H26.9899V0H0V48H48V21.0101H44.9293V44.9293Z" fill="#BEBCB8"/>
<path fill-rule="evenodd" clip-rule="evenodd" d="M14.2222 27.1515L13.899 28.7677L11.9596 35.8788L19.0707 33.9394H19.2323L20.8485 33.4545L21.8182 32.4848L46.5455 7.75757C48.3232 5.9798 48.3232 3.07071 46.5455 1.29293C44.7677 -0.48485 41.8586 -0.48485 40.0808 1.29293L15.3535 26.0202L14.2222 27.1515ZM42.3434 3.55555C42.9899 2.90909 43.9596 2.90909 44.4444 3.55555C44.9293 4.20202 45.0909 5.17172 44.4444 5.65656L42.3434 7.75757L40.2424 5.65656L42.3434 3.55555ZM16.9697 29.2525L17.1313 28.6061L38.1414 7.59596L40.2424 9.69697L19.2323 30.8687L18.5859 31.0303H18.2626L16.3232 31.5151L16.9697 29.2525Z" fill="#BEBCB8"/>
</g>
<defs>
<clipPath id="clip0">
<rect width="48" height="48" fill="white"/>
</clipPath>
</defs>
</svg>
