<svg width="50" height="44" viewBox="0 0 50 44" fill="none" xmlns="http://www.w3.org/2000/svg">
<g clip-path="url(#clip0)">
<path fill-rule="evenodd" clip-rule="evenodd" d="M24.9326 2.69542C34.3666 2.69542 42.3181 9.56873 43.8005 18.5984C43.9353 19.1375 44.7439 18.8679 44.7439 19.2722L45.9569 19.8113C45.9569 19.1375 46.6307 18.7332 46.496 18.0593C44.7439 7.81671 35.8491 0 24.9326 0C13.4771 0 4.04313 8.89488 3.09973 20.0809H5.79515C6.87332 10.3774 14.9596 2.69542 24.9326 2.69542ZM44.0701 23.7197C43.1267 33.4232 34.9057 41.1051 24.9326 41.1051C15.3639 41.1051 7.4124 34.097 5.92992 24.9326C5.92992 24.5283 5.12129 24.5283 4.98652 24.124L4.04313 23.9892C4.04313 24.3935 3.09973 24.6631 3.2345 25.2022C4.71698 35.8491 13.8814 44.0701 24.9326 44.0701C36.3881 44.0701 45.8221 35.1752 46.7655 23.9892H44.0701V23.7197Z" fill="#00A9FF"/>
<path fill-rule="evenodd" clip-rule="evenodd" d="M40.1617 13.8814L45.0135 17.5202L47.5741 11.8599L50 13.0728L46.0917 21.5634L38.5445 16.0378L40.1617 13.8814Z" fill="#00A9FF"/>
<path fill-rule="evenodd" clip-rule="evenodd" d="M2.29111 31.5364L5.12129 26.2803L9.83828 30.1887L11.5903 28.1671L4.44744 22.1024L0 30.3234L2.29111 31.5364Z" fill="#00A9FF"/>
<path d="M24.9326 28.5714V30.9973H13.7466V29.1105L19.8113 23.4501C21.2938 22.1024 21.5633 21.159 21.5633 20.3504C21.5633 19.0027 20.6199 18.1941 18.7331 18.1941C17.2506 18.1941 16.0377 18.7331 15.2291 19.8113L13.2075 18.3288C14.4205 16.7116 16.442 15.7682 19.0027 15.7682C22.2372 15.7682 24.3935 17.3854 24.3935 20.0809C24.3935 21.5633 23.9892 22.911 21.8329 24.7978L17.7897 28.7062H24.9326V28.5714Z" fill="#00A9FF"/>
<path d="M39.6226 27.4933H36.9272V30.9973H34.2318V27.4933H25.876V25.6065L33.2884 15.903H36.3881L29.38 25.2021H34.3665V22.1024H37.062V25.2021H39.7574V27.4933H39.6226Z" fill="#00A9FF"/>
</g>
<defs>
<clipPath id="clip0">
<rect width="50" height="43.8005" fill="white"/>
</clipPath>
</defs>
</svg>
