<svg width="48" height="48" viewBox="0 0 48 48" fill="none" xmlns="http://www.w3.org/2000/svg">
<path fill-rule="evenodd" clip-rule="evenodd" d="M24 0C10.7485 0 0 10.7485 0 24C0 37.2515 10.7485 48 24 48C37.2515 48 48 37.2515 48 24C48 10.7485 37.2515 0 24 0ZM24 44.908C12.3681 44.908 2.94479 35.4847 2.94479 24C2.94479 12.3681 12.3681 2.94479 24 2.94479C35.6319 2.94479 44.908 12.3681 44.908 23.8528C44.908 35.4847 35.4847 44.908 24 44.908Z" fill="#00C66A"/>
<path fill-rule="evenodd" clip-rule="evenodd" d="M22.6749 28.27L14.135 19.7301L11.9264 21.7914L22.5276 32.3927H22.6749L37.3988 17.6687L35.3374 15.4601L22.6749 28.27Z" fill="#00C66A"/>
</svg>
