<svg width="36" height="36" viewBox="0 0 36 36" fill="none" xmlns="http://www.w3.org/2000/svg">
<path d="M36 18C36 27.936 27.936 36 18 36C8.064 36 0 27.936 0 18C0 8.064 8.064 0 18 0C27.936 0 36 8.064 36 18Z" fill="#7D3DAD"/>
<path d="M25.776 9.86374C21.384 8.78374 16.992 7.55974 12.528 9.14374C9.64799 10.2237 9.64799 13.3917 9.71999 16.0557C9.71999 16.7757 8.85599 17.7837 9.21599 18.5757C9.93599 21.0237 10.584 23.3997 13.104 24.6237C13.464 24.8397 13.104 25.3437 13.32 25.7037C13.176 25.7037 12.96 25.8477 12.96 25.9197C12.96 26.4957 13.248 27.3597 13.032 27.9357L20.88 35.7837C28.8 34.4877 35.064 28.0797 35.928 19.9437L25.776 9.86374Z" fill="#5B2986"/>
<path d="M27.504 12.6722C27 10.7282 24.84 8.64017 22.824 8.20817C19.584 7.56017 16.344 7.56017 13.104 8.20817C11.088 8.64017 8.92796 10.7282 8.49596 12.6722C7.91996 15.4082 7.91996 18.1442 8.49596 20.8802C8.92796 22.7522 10.944 24.6962 12.888 25.2722V27.4322C12.888 28.2242 13.824 28.5842 14.4 28.0082L16.632 25.7042C17.136 25.7042 17.568 25.7762 18.072 25.7762C19.728 25.7762 21.312 25.6322 22.896 25.3442C24.912 24.9122 27.072 22.8242 27.504 20.8802C28.152 18.1442 28.152 15.3362 27.504 12.6722ZM25.776 20.4482C25.488 21.7442 23.832 23.3282 22.536 23.6162C20.808 23.9762 19.08 24.0482 17.352 24.0482C17.352 24.0482 17.28 24.0482 17.28 24.1202C17.064 24.3362 15.696 25.7762 15.696 25.7762L13.968 27.5042C13.824 27.6482 13.608 27.5762 13.608 27.3602V23.7602C13.608 23.6882 13.536 23.6162 13.536 23.6162C12.24 23.3282 10.584 21.7442 10.296 20.4482C9.79196 18.0002 9.79196 15.4802 10.296 13.0322C10.584 11.7362 12.24 10.1522 13.536 9.86417C16.56 9.28817 19.584 9.28817 22.536 9.86417C23.832 10.1522 25.488 11.7362 25.776 13.0322C26.352 15.4802 26.352 18.0002 25.776 20.4482Z" fill="white"/>
<path d="M20.88 22.104C20.664 22.032 20.52 22.032 20.304 21.96C18.432 21.168 16.776 20.232 15.408 18.72C14.616 17.856 14.04 16.92 13.536 15.84C13.32 15.336 13.104 14.832 12.888 14.328C12.672 13.896 12.96 13.392 13.248 13.032C13.536 12.672 13.896 12.456 14.256 12.24C14.544 12.096 14.832 12.168 15.048 12.456C15.552 13.032 15.984 13.608 16.272 14.184C16.488 14.544 16.416 15.048 16.056 15.336C15.984 15.408 15.84 15.48 15.768 15.552C15.696 15.624 15.624 15.696 15.552 15.768C15.48 15.912 15.48 16.128 15.48 16.272C15.984 17.568 16.776 18.648 18.072 19.152C18.288 19.224 18.504 19.368 18.72 19.296C19.152 19.224 19.296 18.792 19.584 18.576C19.872 18.36 20.232 18.36 20.52 18.504C20.808 18.72 21.096 18.936 21.384 19.08C21.672 19.296 21.96 19.512 22.248 19.728C22.536 19.944 22.608 20.232 22.464 20.52C22.176 21.096 21.816 21.528 21.24 21.816C21.24 22.032 21.024 22.032 20.88 22.104C20.664 22.032 21.024 22.032 20.88 22.104Z" fill="white"/>
<path d="M18 11.6641C20.448 11.7361 22.392 13.3201 22.824 15.6961C22.896 16.1281 22.896 16.4881 22.968 16.9201C22.968 17.0641 22.896 17.2801 22.68 17.2801C22.464 17.2801 22.392 17.1361 22.392 16.9201C22.392 16.5601 22.32 16.2001 22.32 15.9121C22.104 14.1121 20.664 12.6001 18.864 12.3121C18.576 12.2401 18.288 12.2401 18 12.2401C17.856 12.2401 17.568 12.2401 17.568 12.0241C17.568 11.8801 17.712 11.7361 17.856 11.6641C17.928 11.6641 17.928 11.6641 18 11.6641C20.448 11.6641 17.928 11.6641 18 11.6641Z" fill="white"/>
<path d="M21.672 16.4162C21.672 16.4162 21.672 16.4882 21.672 16.5602C21.6 16.7762 21.24 16.8482 21.168 16.5602C21.168 16.4882 21.168 16.4162 21.168 16.3442C21.168 15.8402 21.024 15.3362 20.808 14.9042C20.52 14.4722 20.16 14.0402 19.656 13.8242C19.368 13.6802 19.08 13.6082 18.72 13.5362C18.576 13.5362 18.432 13.4642 18.288 13.4642C18.144 13.4642 18 13.3202 18.072 13.1762C18.072 13.0322 18.216 12.8882 18.36 12.8882C18.936 12.8882 19.44 13.0322 19.944 13.3202C20.952 13.8242 21.528 14.6882 21.672 15.7682C21.672 15.8402 21.672 15.8402 21.672 15.9122C21.672 16.1282 21.672 16.2002 21.672 16.4162C21.672 16.4162 21.672 16.2002 21.672 16.4162Z" fill="white"/>
<path d="M20.16 16.3441C19.944 16.3441 19.872 16.2001 19.8 16.0561C19.8 15.9121 19.8 15.7681 19.728 15.6961C19.656 15.4801 19.512 15.1921 19.296 15.0481C19.224 14.9761 19.08 14.9041 18.936 14.9041C18.792 14.8321 18.648 14.9041 18.504 14.8321C18.36 14.7601 18.288 14.6881 18.288 14.5441C18.288 14.4001 18.432 14.3281 18.576 14.3281C19.512 14.4001 20.16 14.9041 20.304 15.9841C20.304 16.0561 20.304 16.1281 20.304 16.2001C20.376 16.2721 20.232 16.3441 20.16 16.3441C19.944 16.3441 20.232 16.3441 20.16 16.3441Z" fill="white"/>
<path d="M27.504 12.6722C27.216 11.5922 26.424 10.4402 25.416 9.57617L24.048 10.8002C24.84 11.4482 25.56 12.3122 25.704 13.1042C26.208 15.5522 26.208 18.0722 25.704 20.5202C25.416 21.8162 23.76 23.4002 22.464 23.6882C20.736 24.0482 19.008 24.1202 17.28 24.1202C17.28 24.1202 17.208 24.1202 17.208 24.1922C16.992 24.4082 15.624 25.8482 15.624 25.8482L13.896 27.5762C13.752 27.7202 13.536 27.6482 13.536 27.4322V23.8322C13.536 23.7602 13.464 23.6882 13.464 23.6882C12.744 23.5442 11.88 22.9682 11.232 22.2482L9.86401 23.4002C10.728 24.3362 11.808 25.0562 12.816 25.3442V27.5042C12.816 28.2962 13.752 28.6562 14.328 28.0802L16.56 25.7762C17.064 25.7762 17.496 25.8482 18 25.8482C19.656 25.8482 21.24 25.7042 22.824 25.4162C24.84 24.9842 27 22.8962 27.432 20.9522C28.152 18.1442 28.152 15.3362 27.504 12.6722Z" fill="#D1D1D1"/>
<path d="M20.88 22.1038C21.024 22.0318 20.664 22.0318 20.88 22.1038V22.1038Z" fill="white"/>
<path d="M22.32 19.7999C22.032 19.5839 21.744 19.3679 21.456 19.1519C21.168 18.9359 20.88 18.7199 20.592 18.5759C20.304 18.3599 19.944 18.3599 19.656 18.6479C19.368 18.8639 19.224 19.3679 18.792 19.3679C18.576 19.3679 18.36 19.2959 18.144 19.2239C17.352 18.8639 16.704 18.3599 16.272 17.7119L15.264 18.5759C15.264 18.6479 15.336 18.6479 15.336 18.7199C16.704 20.2319 18.36 21.2399 20.232 21.9599C20.376 22.0319 20.592 22.1039 20.808 22.1039C20.592 22.0319 20.952 22.0319 20.808 22.1039C20.952 22.0319 21.168 22.0319 21.312 21.9599C21.888 21.6719 22.248 21.1679 22.536 20.6639C22.68 20.3039 22.608 20.0159 22.32 19.7999Z" fill="#D1D1D1"/>
<path d="M21.456 13.0322L21.024 13.3922C21.672 14.0402 22.176 14.9042 22.248 15.8402C22.32 16.2002 22.32 16.5602 22.32 16.8482C22.32 16.9922 22.392 17.2082 22.608 17.2082C22.824 17.2082 22.896 17.0642 22.896 16.8482C22.896 16.4162 22.824 16.0562 22.752 15.6242C22.608 14.6162 22.176 13.7522 21.456 13.0322Z" fill="#D1D1D1"/>
<path d="M21.6 15.8402C21.456 15.0482 21.168 14.3282 20.592 13.8242L20.16 14.1842C20.376 14.4002 20.592 14.6162 20.736 14.8322C21.024 15.2642 21.096 15.7682 21.096 16.2722C21.096 16.3442 21.096 16.4162 21.096 16.4882C21.168 16.7042 21.528 16.7042 21.6 16.4882C21.6 16.4162 21.6 16.3442 21.6 16.3442C21.6 16.3442 21.6 16.2002 21.6 16.3442C21.6 16.2002 21.6 16.0562 21.6 15.9122C21.672 15.9122 21.6 15.8402 21.6 15.8402Z" fill="#D1D1D1"/>
<path d="M19.728 14.6162L19.296 14.9762C19.296 14.9762 19.368 14.9762 19.368 15.0482C19.584 15.1922 19.728 15.4082 19.8 15.6962C19.8 15.8402 19.872 15.9842 19.872 16.0562C19.872 16.2002 20.016 16.3442 20.16 16.3442C20.232 16.3442 20.304 16.2722 20.376 16.1282C20.376 16.0562 20.376 15.9842 20.376 15.9122C20.304 15.2642 20.088 14.8322 19.728 14.6162Z" fill="#D1D1D1"/>
</svg>
