<svg width="19" height="19" viewBox="0 0 19 19" fill="none" xmlns="http://www.w3.org/2000/svg">
<rect width="19" height="19" rx="9.5" fill="#FDF2DF"/>
<path d="M12.0008 9.22686L8.88569 6.11183C8.81364 6.03972 8.71747 6 8.61491 6C8.51236 6 8.41618 6.03972 8.34414 6.11183L8.11473 6.34118C7.96546 6.49062 7.96546 6.73351 8.11473 6.88273L10.7305 9.49855L8.11183 12.1173C8.03978 12.1894 8 12.2855 8 12.388C8 12.4906 8.03978 12.5867 8.11183 12.6589L8.34123 12.8882C8.41334 12.9603 8.50946 13 8.61201 13C8.71456 13 8.81074 12.9603 8.88279 12.8882L12.0008 9.77029C12.073 9.69796 12.1127 9.60139 12.1124 9.49872C12.1127 9.39566 12.073 9.29914 12.0008 9.22686Z" fill="#E59022"/>
</svg>
