<svg width="45" height="45" viewBox="0 0 45 45" fill="none" xmlns="http://www.w3.org/2000/svg">
<path d="M18.2726 7.75C17.9086 7.75 17.6135 8.04505 17.6135 8.40918V9.11371C17.6135 9.47784 17.9086 9.77289 18.2726 9.77289C18.6367 9.77289 18.9318 9.47784 18.9318 9.11371V8.40918C18.9318 8.04505 18.6368 7.75 18.2726 7.75Z" fill="#F09319"/>
<path d="M26.7272 7.74988C26.3631 7.74988 26.068 8.04493 26.068 8.40906V9.11359C26.068 9.47772 26.3631 9.77277 26.7272 9.77277C27.0912 9.77277 27.3864 9.47772 27.3864 9.11359V8.40906C27.3864 8.04493 27.0912 7.74988 26.7272 7.74988Z" fill="#F09319"/>
<path d="M37.7343 25.8819L32.4728 18.229C31.8518 17.3257 30.9989 16.6006 30.0175 16.1262C31.4524 14.4188 32.3182 12.2179 32.3182 9.81835C32.3182 4.40446 27.9137 0 22.4999 0C17.0861 0 12.6817 4.40446 12.6817 9.81826C12.6817 13.1606 14.3609 16.1176 16.9195 17.8916C16.9987 19.2838 17.5859 20.5812 18.5879 21.5626C19.6391 22.5922 21.0284 23.1592 22.4999 23.1592C25.4852 23.1592 27.9117 20.8554 28.08 17.8919C28.4143 17.6601 28.7336 17.4082 29.0361 17.1378C29.984 17.4951 30.811 18.1389 31.3864 18.9758L35.1006 24.3782L33.7199 25.4115L30.7426 22.0621C30.5607 21.8575 30.2714 21.7867 30.0156 21.8839C29.7598 21.9812 29.5907 22.2264 29.5907 22.5001V28.9878C29.0638 29.1603 28.7317 29.5204 28.4711 29.8044C28.1586 30.1449 28.006 30.2955 27.6636 30.2955C27.3211 30.2955 27.1686 30.1449 26.856 29.8044C26.5005 29.417 26.0135 28.8864 25.0772 28.8864C24.1415 28.8864 23.6552 29.4173 23.3001 29.8049C22.9883 30.1452 22.8361 30.2955 22.495 30.2955C22.1541 30.2955 22.0019 30.1452 21.6903 29.8049C21.3352 29.4173 20.8489 28.8865 19.9134 28.8865C18.978 28.8865 18.4917 29.4173 18.1367 29.805C17.8251 30.1453 17.673 30.2956 17.3321 30.2956C16.9911 30.2956 16.8389 30.1453 16.5271 29.805C16.267 29.5211 15.9354 29.161 15.4093 28.9883V22.5C15.4093 22.2263 15.2402 21.9811 14.9845 21.8838C14.7286 21.7867 14.4394 21.8574 14.2575 22.062L11.2802 25.4114L9.89947 24.3781L13.6136 18.9757C13.7891 18.7206 13.9892 18.4808 14.2087 18.263C14.4671 18.0065 14.4686 17.5891 14.2121 17.3308C13.9556 17.0725 13.5382 17.0709 13.2799 17.3274C13.0023 17.603 12.7491 17.9063 12.5273 18.2289L7.26583 25.8819C6.7152 26.6826 6.77619 27.7552 7.41085 28.4321C7.80715 28.8548 8.33906 29.084 8.91176 29.0757C9.4747 29.0682 10.012 28.8228 10.3858 28.4022L14.0911 24.2338V42.6877C14.0911 43.9627 15.1284 45 16.4034 45C17.3781 45 18.2532 44.3833 18.581 43.4654L21.3779 35.6341C21.4842 35.3364 21.768 35.1365 22.0841 35.1365H22.9162C23.2324 35.1365 23.5162 35.3364 23.6225 35.6341L26.4194 43.4654C26.7471 44.3834 27.6224 45 28.597 45C29.872 45 30.9093 43.9627 30.9093 42.6877V24.2338L34.6145 28.4021C34.9883 28.8228 35.5256 29.0682 36.0886 29.0757C36.6556 29.083 37.1931 28.8548 37.5895 28.4321C38.2238 27.7552 38.2848 26.6826 37.7343 25.8819ZM22.4999 21.8408C21.3753 21.8408 20.3136 21.4075 19.5104 20.6208C18.9702 20.0917 18.5883 19.4425 18.3882 18.7328C19.6397 19.3124 21.0326 19.6365 22.4999 19.6365C23.968 19.6365 25.3615 19.312 26.6135 18.732C26.1098 20.5378 24.4628 21.8408 22.4999 21.8408ZM22.4999 18.3181C17.8131 18.3181 14.0001 14.5051 14.0001 9.81826C14.0001 6.02358 16.4998 2.80204 19.9389 1.71299C19.803 2.03968 19.7271 2.39748 19.7271 2.77286C19.7271 4.30181 20.971 5.54563 22.4999 5.54563C23.6404 5.54563 24.5682 4.61777 24.5682 3.47739C24.5682 3.11335 24.273 2.81821 23.909 2.81821C23.5449 2.81821 23.2498 3.11335 23.2498 3.47739C23.2498 3.89092 22.9133 4.22728 22.4999 4.22728C21.6979 4.22728 21.0455 3.57478 21.0455 2.77286C21.0455 1.97095 21.6979 1.31836 22.4999 1.31836C27.1868 1.31836 30.9998 5.13141 30.9998 9.81826C30.9998 14.5051 27.1868 18.3181 22.4999 18.3181ZM9.40017 27.5263C9.27194 27.6706 9.08736 27.7549 8.89401 27.7574C8.69757 27.7588 8.51212 27.6793 8.37237 27.5302C8.16179 27.3057 8.153 26.9181 8.35198 26.6288L9.1517 25.4654L10.401 26.4003L9.40017 27.5263ZM17.3392 43.022C17.1982 43.4166 16.8221 43.6816 16.4031 43.6816C15.855 43.6816 15.4092 43.2358 15.4092 42.6877V40.1872L18.1863 40.65L17.3392 43.022ZM29.5907 42.6877C29.5907 43.2358 29.1448 43.6816 28.5967 43.6816C28.1777 43.6816 27.8016 43.4166 27.6607 43.022L26.8136 40.65L29.5907 40.1872V42.6877ZM29.5907 38.8507L26.3631 39.3887L24.8638 35.1908C24.5706 34.3697 23.7878 33.818 22.916 33.818H22.0838C21.2121 33.818 20.4293 34.3696 20.1361 35.1906L18.6369 39.3885L15.4092 38.8506V30.54C15.4546 30.587 15.502 30.6374 15.555 30.6953C15.91 31.0829 16.3964 31.6136 17.3319 31.6136C18.2675 31.6136 18.7537 31.0828 19.1087 30.6952C19.4202 30.355 19.5724 30.2046 19.9132 30.2046C20.2541 30.2046 20.4063 30.355 20.7179 30.6953C21.073 31.0829 21.5593 31.6137 22.4948 31.6137C23.4304 31.6137 23.9168 31.083 24.272 30.6954C24.5837 30.3551 24.7359 30.2047 25.0771 30.2047C25.4195 30.2047 25.5721 30.3552 25.8847 30.6957C26.2402 31.0831 26.7272 31.6137 27.6636 31.6137C28.5999 31.6137 29.0869 31.0831 29.4424 30.6958C29.4964 30.637 29.5445 30.5858 29.5907 30.5381V38.8507ZM36.6274 27.5302C36.4877 27.6793 36.3026 27.7585 36.1059 27.7574C35.9125 27.7549 35.728 27.6706 35.5997 27.5262L34.5988 26.4002L35.8481 25.4653L36.6478 26.6286C36.8468 26.9181 36.838 27.3057 36.6274 27.5302Z" fill="#F09319"/>
<path d="M25.3181 11.2726H19.6818C19.3177 11.2726 19.0226 11.5677 19.0226 11.9318V12.6364C19.0226 14.5537 20.5826 16.1137 22.4999 16.1137C24.4172 16.1137 25.9773 14.5538 25.9773 12.6364V11.9318C25.9773 11.5677 25.6821 11.2726 25.3181 11.2726ZM24.6589 12.6364C24.6589 13.8269 23.6904 14.7953 22.5 14.7953C21.3096 14.7953 20.3409 13.8269 20.3409 12.6364V12.5909H24.6589V12.6364Z" fill="#F09319"/>
</svg>
