<svg width="35" height="43" viewBox="0 0 35 43" fill="none" xmlns="http://www.w3.org/2000/svg">
<path d="M31.5025 0.261507C27.3302 -1.21367 23.1041 3.86644 22.0224 7.63185C19.6843 6.21654 17.5321 7.78453 16.1444 9.7162C15.9904 9.93053 16.0487 10.2967 16.2414 10.4678C16.373 10.5847 16.5154 10.6886 16.6499 10.8023C15.7286 12.0587 14.801 13.3118 13.8896 14.5733C13.8724 14.5969 13.8711 14.6194 13.858 14.6427C12.2452 14.5096 10.6312 14.3901 9.01265 14.3808C6.74246 14.3677 2.44155 14.2933 1.37701 16.8562C1.3483 16.9252 1.35119 16.9884 1.36811 17.046C0.823483 18.1319 1.0031 19.5724 2.08166 20.2991C-0.74028 24.4656 -0.193876 28.6265 2.13463 31.9076C1.82459 34.3865 1.28131 37.3333 2.3799 39.6863C4.10124 43.3725 12.5061 41.7509 15.4115 41.5011C18.1072 41.2692 20.5857 41.3812 23.2788 41.6356C25.4553 41.841 27.3923 41.4175 28.6467 39.5359C29.1426 38.7925 29.1172 37.6436 29.1642 36.7854C29.2546 35.1353 29.4286 33.5259 29.6665 31.9C32.5098 29.0282 33.6768 25.5079 30.4502 22.0017C31.4444 21.7509 32.2011 21.1524 32.4722 20.1847C32.5512 20.0877 32.5866 19.9554 32.5535 19.8353C32.6058 19.4691 32.5993 19.0605 32.5127 18.6005C32.2572 17.2414 31.3229 16.3786 30.0801 15.8306C29.8404 14.8787 29.772 13.781 29.2968 12.9403C29.2833 12.9165 29.2646 12.9038 29.2492 12.8833C29.3385 12.8787 29.4286 12.8573 29.5163 12.7957C31.762 11.2176 34.0869 9.27218 34.8622 6.53748C35.5178 4.22767 33.7413 1.05318 31.5025 0.261507ZM17.3507 11.3766C18.9606 12.6432 20.7022 13.752 22.3529 14.9697C21.9806 14.9835 21.6332 14.998 21.3411 15.0073C20.8464 15.0233 20.3521 15.026 19.8575 15.0196C19.7789 14.9617 19.697 14.9098 19.6191 14.8513C19.4696 14.7393 19.2944 14.8528 19.2377 15.0009C17.9249 14.9632 16.6134 14.8707 15.3018 14.7625C16.0667 13.7091 16.768 12.5586 17.3507 11.3766ZM15.7496 15.9092C16.168 15.9468 16.5817 15.9831 16.9944 16.0173C17.8555 17.3409 19.5786 18.2982 20.8304 19.0808C22.608 20.1918 24.6512 21.576 26.7053 22.0872C26.9608 22.1509 27.2152 21.8014 26.9815 21.6122C25.5964 20.4905 23.7787 19.858 22.2125 19.0198C20.626 18.1707 19.2259 17.2001 17.8715 16.0821C18.7026 16.1413 19.5354 16.1716 20.3754 16.178C22.7028 18.1464 25.2448 20.2083 28.0146 21.3423C27.4008 21.8217 27.0322 22.4538 26.815 23.1658C25.1744 21.8083 23.0545 20.9668 21.1809 20.0051C18.8669 18.8172 16.5806 17.5352 14.6441 15.7959C15.0349 15.839 15.4064 15.8784 15.7496 15.9092ZM13.6935 15.6893C15.2682 17.513 17.2681 18.8021 19.3436 20.0055C21.6717 21.3554 24.1315 22.8787 26.6441 23.8731C26.5998 24.1075 26.5613 24.344 26.5323 24.5835C21.3903 21.1727 15.6988 18.6367 10.4464 15.3817C11.5771 15.4547 12.6826 15.5753 13.6935 15.6893ZM23.1597 28.0418C23.726 28.2588 24.2345 28.5613 24.7297 28.9087C25.1958 29.2361 25.6084 29.7217 26.1535 29.9082C26.2176 29.9305 26.2755 29.9149 26.3269 29.8864C26.3222 30.107 26.3222 30.3282 26.3131 30.5484C26.2712 30.8869 26.2296 31.2247 26.188 31.5633C26.1782 31.6265 26.1597 31.673 26.1484 31.7331C25.7524 31.2365 25.1413 30.9423 24.606 30.6125C23.884 30.1673 23.1825 29.6999 22.5432 29.1446C22.6271 28.8079 22.7099 28.4847 22.7718 28.1931C22.9363 27.4164 23.0489 26.5748 23.0333 25.7498C23.3158 25.9363 23.6 26.1201 23.886 26.3015C24.6044 26.7569 25.3051 27.3111 26.066 27.6875C26.1646 27.7364 26.2655 27.7246 26.3487 27.6826C26.344 28.2632 26.3427 28.8439 26.3362 29.4242C26.0088 28.9913 25.472 28.6866 25.0298 28.3952C24.4891 28.0389 23.9082 27.7578 23.2937 27.5559C22.9801 27.4524 22.862 27.9276 23.1597 28.0418ZM3.73445 20.7865C5.25437 20.8907 6.87155 20.6127 6.77228 22.699C6.73333 23.521 6.5831 25.1135 7.19427 25.8119C8.63273 27.4558 10.2768 26.6975 10.7723 24.9717C10.8655 24.9234 10.9049 24.7934 10.8364 24.6999C10.8455 24.6556 10.8577 24.6136 10.8653 24.5684C11.3579 24.3708 11.8504 24.1731 12.3432 23.9752C12.3781 24.4277 12.4082 24.8809 12.4335 25.3342C12.4767 26.038 12.576 26.7082 12.7585 27.3899C13.1335 28.7903 14.0845 29.7901 15.3932 30.2481C16.5984 30.6699 17.5306 29.8956 18.2236 28.8148C18.3861 28.7776 18.5074 28.5967 18.4451 28.4453C19.054 27.3616 19.45 26.089 19.6534 25.3843C19.7747 24.9639 20.3736 22.2822 21.3018 23.6325C22.5597 25.4629 21.602 27.9118 21.2136 29.8335C21.1698 30.0509 21.1301 30.2931 21.0954 30.5439C21.0892 30.5675 21.0854 30.5913 21.0856 30.6162C20.9385 31.7317 20.9414 33.07 21.5739 33.9065C21.9227 34.3674 22.2699 34.7248 22.6167 34.9897C20.7798 35.8421 18.971 36.4513 17.5851 36.748C13.0414 37.7204 7.93698 35.9559 4.5742 32.9085C4.13797 32.513 3.77117 32.1014 3.44534 31.6806C3.65767 28.0643 4.04694 24.5005 3.73445 20.7865ZM9.6394 24.5179C9.21586 25.5677 8.03157 24.452 7.92118 23.4965C7.91784 23.4685 7.92251 23.4435 7.92073 23.4159C8.47493 23.7718 9.04604 24.1807 9.6394 24.5179ZM7.947 22.906C8.00286 22.5642 8.1117 22.2426 8.17357 21.9054C8.44176 22.1464 8.71864 22.3777 9.00753 22.5991C9.32425 22.8419 9.65966 23.1103 10.0066 23.3565C9.92496 23.5328 9.86242 23.7251 9.80655 23.9245C9.21363 23.5648 8.57264 23.2546 8.0042 22.9254C7.98461 22.9143 7.96591 22.9114 7.947 22.906ZM15.7783 26.9312C15.0585 26.5426 14.3501 26.1304 13.61 25.7825C13.5782 25.3184 13.578 24.8468 13.5528 24.381C14.0066 24.6717 14.47 24.9474 14.9392 25.2167C15.7447 25.6792 16.6325 26.3583 17.5506 26.5377C17.7865 26.5837 17.9637 26.3147 17.7881 26.1297C17.1395 25.4458 16.0716 25.1224 15.2365 24.7082C14.6438 24.4139 14.0654 24.0952 13.497 23.7594C13.4738 23.5795 13.4458 23.4012 13.4035 23.2261C13.3516 23.0109 13.286 22.8272 13.2116 22.6632C14.9056 23.6697 16.6654 24.5975 18.4604 25.314C18.217 26.0658 17.8916 27.0122 17.4729 27.7752C16.9127 27.4758 16.3127 27.2198 15.7783 26.9312ZM17.0814 28.381C16.3817 29.2969 15.4694 29.5744 14.2951 27.9768C13.87 27.3983 13.7102 26.7562 13.6396 26.0925C14.1778 26.4845 14.7349 26.8482 15.2962 27.2083C15.8524 27.565 16.4551 28.0287 17.0814 28.381ZM22.361 32.6122C22.2583 32.3618 22.2052 32.0887 22.1811 31.8047C23.0142 32.5067 23.9844 33.0803 24.9959 33.4017C24.3585 33.5953 23.4869 33.3454 22.361 32.6122ZM22.1891 31.0013C22.2279 30.5764 22.3093 30.1417 22.4059 29.7186C22.8648 30.1181 23.3438 30.4907 23.8493 30.8361C24.498 31.2795 25.2145 31.9056 25.9761 32.1186C26.0044 32.1264 26.032 32.1188 26.0598 32.1139C25.9349 32.5555 25.7491 32.8811 25.5114 33.1088C25.4916 33.0669 25.4631 33.0278 25.4157 32.9986C24.2915 32.3155 23.1702 31.8257 22.1891 31.0013ZM22.9828 25.048C22.9136 24.4653 22.7691 23.9025 22.5143 23.3912C23.8257 24.0972 25.137 24.7925 26.4415 25.4874C26.4359 25.557 26.429 25.628 26.4233 25.6973C26.3834 26.1773 26.3661 26.6592 26.3558 27.1417C25.4092 26.2701 24.1333 25.7006 22.9828 25.048ZM9.53457 15.3325C12.8199 17.8508 16.3941 20.0189 20.0431 22.0425C19.7291 22.3274 19.46 22.7705 19.2486 23.2072C15.6968 20.1435 11.3489 17.815 7.32781 15.3443C8.05027 15.3029 8.79298 15.3044 9.53457 15.3325ZM6.69505 15.3946C10.6387 18.3425 14.7191 21.4061 18.9581 23.8715C18.8789 24.0727 18.8157 24.2472 18.7732 24.3625C18.7549 24.4124 18.7358 24.4676 18.7157 24.5261C16.3712 23.1489 13.9058 21.9615 11.5602 20.5811C9.09011 19.1275 6.84974 17.3472 4.4549 15.8155C5.14954 15.6018 5.90694 15.4705 6.69505 15.3946ZM4.03981 15.947C5.29154 17.687 7.43954 19.0449 9.31423 20.2203C7.14709 18.9581 4.94188 17.7516 2.70886 16.6185C3.11037 16.3452 3.55818 16.1246 4.03981 15.947ZM2.30245 16.9092C2.32515 16.89 2.3523 16.8758 2.37523 16.8571C5.34095 18.5789 8.22409 20.4431 11.1989 22.1466C11.1533 22.1707 11.1115 22.1858 11.0647 22.2127C10.7462 22.3968 10.5039 22.6098 10.3145 22.8508C10.0848 22.7202 9.85285 22.5933 9.63384 22.4593C9.14107 22.158 8.6699 21.8272 8.21519 21.4736C8.20607 20.7643 7.6196 20.1502 7.05695 19.8203C6.78808 19.6628 6.07186 19.6401 5.25882 19.596C5.26461 19.5145 5.22321 19.4248 5.1324 19.391C4.0229 18.9773 2.86955 18.4409 1.98974 17.6158C2.05451 17.4026 2.14799 17.1731 2.30245 16.9092ZM2.34919 29.8214C1.1649 26.9686 1.79833 23.7587 2.94478 20.6786C2.98351 20.6864 3.02223 20.6944 3.06096 20.7019C2.75025 23.7382 2.63029 26.7847 2.34919 29.8214ZM2.91362 19.2572C2.26839 19.0309 1.84618 18.639 1.91629 17.9597C2.22967 18.3111 2.64676 18.5931 3.02023 18.8495C3.36187 19.0841 3.74959 19.3289 4.15644 19.5081C3.85263 19.4736 3.5535 19.43 3.27974 19.3632C3.18849 19.2641 3.03826 19.2147 2.91362 19.2572ZM27.6349 36.7856C27.521 41.4284 18.0883 39.7275 14.5757 40.0257C12.5399 40.1985 10.5083 40.3304 8.46424 40.3042C5.32092 40.2639 3.40015 39.6512 3.32938 36.0736C3.31157 35.1715 3.33227 34.2795 3.36521 33.391C6.7636 36.9414 12.3378 39.0471 17.4315 38.2147C20.3879 37.7317 24.7286 35.9227 27.9761 33.3932C27.799 34.5305 27.6623 35.663 27.6349 36.7856ZM28.3304 31.3118C27.9686 31.6494 27.5795 31.9752 27.1698 32.2895C27.6082 30.4308 27.2764 27.9859 27.3716 25.9105C27.6714 25.8833 27.8377 25.4578 27.5254 25.2399C27.4938 25.2176 27.4607 25.198 27.4288 25.176C27.5648 23.9345 27.9247 22.8831 28.8152 22.2673C29.4413 25.231 28.8748 28.2775 28.3304 31.3118ZM29.4967 20.9403C29.3187 20.927 29.1337 20.9784 28.9855 21.0816C28.9645 21.0859 28.9463 21.0928 28.9254 21.0961C28.8321 21.0398 28.7246 21.0111 28.6102 21.0164C28.5973 20.914 28.5526 20.8152 28.4604 20.7502C26.1916 19.1482 23.8036 17.7389 21.5012 16.1782C22.1419 16.16 22.7798 16.1502 23.4179 16.1473C25.902 17.2697 27.8266 19.3418 30.2134 20.5673C30.0039 20.7166 29.7642 20.8442 29.4967 20.9403ZM30.4569 24.3104C31.289 26.0494 31.0088 27.7195 30.0683 29.245C30.3166 27.6078 30.5121 25.9523 30.4569 24.3104ZM31.1292 18.7467C30.7353 18.5159 30.3338 18.2969 29.9503 18.0663C28.9058 17.4386 27.8499 16.8344 26.7531 16.3029C26.3901 16.1271 26.0718 16.6532 26.4337 16.8488C27.3848 17.3628 28.2982 17.9336 29.2031 18.5241C29.7827 18.9023 30.3567 19.3336 30.957 19.7064C30.9154 19.7912 30.8693 19.8749 30.8148 19.9554C29.6481 19.1268 28.3957 18.3801 27.2143 17.5826C26.409 17.0391 25.5724 16.5591 24.697 16.1658C25.0745 16.1733 25.4515 16.1727 25.8299 16.1907C26.8686 16.2463 27.8793 16.4355 28.8622 16.7583C30.3563 17.176 31.0364 17.9575 31.1292 18.7467ZM33.4687 6.69217C32.8524 8.89136 30.4337 10.4585 28.7849 11.8464C28.5005 12.0859 28.5806 12.4558 28.7983 12.6859C28.5114 12.7269 28.2479 13 28.3249 13.3505C28.4426 13.886 28.6961 14.4128 28.8686 14.9365C28.9269 15.1133 28.9906 15.2871 29.0538 15.4609C27.2684 14.9528 25.1192 14.9011 23.3832 14.9381C21.9784 13.0391 19.7433 11.6951 17.8829 10.2136C17.8967 10.1809 17.914 10.1482 17.9278 10.1155C18.0171 9.90182 17.8651 9.76227 17.6846 9.73579C18.0531 9.2862 18.4576 8.88268 18.9779 8.57732C19.8733 8.05161 20.8637 8.49897 21.7823 8.64898C21.9114 8.67013 22.0262 8.64631 22.1237 8.59846C22.2 8.5998 22.2753 8.5653 22.322 8.47316C23.7783 5.6136 26.2612 2.12841 29.559 1.34853C32.3133 0.697073 34.0745 4.53014 33.4687 6.69217Z" fill="#F59C26"/>
<path d="M30.8717 3.0151C29.6144 2.43954 27.3925 2.7044 27.2276 4.41795C27.2087 4.61426 27.3015 4.74379 27.4344 4.81568C27.1753 5.61871 27.2556 6.51143 27.8508 7.2281C29.1034 8.73622 31.198 7.74801 32.137 6.41572C33.0449 5.12705 32.1337 3.59267 30.8717 3.0151ZM31.1141 5.66433C30.731 6.41572 29.4989 7.1749 28.7698 6.47248C28.1137 5.83994 28.366 4.83193 28.8049 4.11348C28.8619 4.08032 28.9158 4.04448 28.9828 4.02022C29.3741 3.87822 29.7847 3.94121 30.1695 4.06585C30.8288 4.27951 31.476 4.95389 31.1141 5.66433Z" fill="#F59C26"/>
</svg>
