<svg width="16" height="16" viewBox="0 0 16 16" fill="none" xmlns="http://www.w3.org/2000/svg">
<g clip-path="url(#clip0)">
<path d="M15.1626 10.9203L13.5529 9.6015C12.5042 8.74235 10.8763 8.82365 9.91956 9.78032L9.85566 9.84422C9.69524 10.0046 9.43392 10.0034 9.27576 9.84518L6.16564 6.73505C6.00863 6.57804 6.00552 6.32551 6.15682 6.16516C6.15958 6.16225 6.16238 6.15937 6.16521 6.1565L6.15667 6.16505C6.1595 6.16221 6.16234 6.15934 6.16518 6.1565C7.11659 5.19596 7.20764 3.56053 6.3742 2.50684L5.06863 0.856271C4.22945 -0.204702 2.77096 -0.286657 1.81437 0.669936L1.57456 0.909745C-0.124538 2.60884 -0.524923 5.67124 0.749564 7.70736C0.749564 7.70736 1.49981 9.44729 4.03169 11.9792C6.56357 14.511 8.30349 15.2613 8.30349 15.2613C10.3586 16.5047 13.401 16.1364 15.0997 14.4377L15.3281 14.2093C16.2854 13.252 16.2106 11.7789 15.1626 10.9203ZM14.1715 13.0528L13.9432 13.2812C12.7769 14.4474 10.5614 14.7159 9.15011 13.862L9.05409 13.8038L8.95105 13.7594C8.82455 13.7049 8.50746 13.5329 8.02807 13.2114C7.17666 12.6403 6.22057 11.8551 5.18815 10.8227C4.15574 9.79029 3.37049 8.83419 2.79945 7.98278C2.47791 7.5034 2.30595 7.18631 2.25144 7.05981L2.20207 6.94531L2.13591 6.83963C1.27783 5.46877 1.55448 3.24287 2.73106 2.06628L2.97087 1.82647C3.23678 1.56056 3.55472 1.57865 3.78594 1.87098L5.09151 3.52155C5.41343 3.92852 5.37177 4.63707 5.00024 5.00863C4.2099 5.80821 4.21381 7.0963 5.00918 7.89163L8.1193 11.0018C8.91659 11.799 10.2135 11.7995 11.0122 11.0008L11.0761 10.9369C11.4388 10.5743 12.1185 10.5407 12.5165 10.8667L14.1262 12.1855C14.4267 12.4317 14.4443 12.7801 14.1715 13.0528Z" fill="#BD5B00"/>
</g>
<defs>
<clipPath id="clip0">
<rect width="16" height="16" fill="white"/>
</clipPath>
</defs>
</svg>
