<svg width="42" height="43" viewBox="0 0 42 43" fill="none" xmlns="http://www.w3.org/2000/svg">
<path d="M8.68302 23.3781C11.9989 23.3781 14.6966 20.6804 14.6966 17.3645C14.6966 14.0485 11.9989 11.3508 8.68302 11.3508C8.31218 11.3508 8.01168 11.6513 8.01168 12.0222C8.01168 12.393 8.31218 12.6935 8.68302 12.6935C11.2585 12.6935 13.3539 14.7889 13.3539 17.3645C13.3539 19.9401 11.2586 22.0354 8.68302 22.0354C6.10741 22.0354 4.01211 19.9401 4.01211 17.3645C4.01211 16.9937 3.71162 16.6932 3.34077 16.6932C2.96993 16.6932 2.66943 16.9937 2.66943 17.3645C2.66943 20.6804 5.36705 23.3781 8.68302 23.3781Z" fill="#F59C26"/>
<path d="M8.68303 20.7086C9.05388 20.7086 9.35437 20.4081 9.35437 20.0373C9.35437 19.6664 9.05388 19.3659 8.68303 19.3659C7.57926 19.3659 6.68136 18.468 6.68136 17.3644C6.68136 16.2606 7.57926 15.3627 8.68303 15.3627C9.78662 15.3627 10.6845 16.2606 10.6845 17.3644C10.6845 17.7352 10.985 18.0357 11.3559 18.0357C11.7267 18.0357 12.0272 17.7352 12.0272 17.3644C12.0272 15.5202 10.527 14.02 8.68303 14.02C6.83899 14.02 5.33868 15.5203 5.33868 17.3644C5.33868 19.2084 6.83899 20.7086 8.68303 20.7086Z" fill="#F59C26"/>
<path d="M19.364 18.0358H33.1513C33.5222 18.0358 33.8226 17.7353 33.8226 17.3645C33.8226 16.9936 33.5222 16.6931 33.1513 16.6931H19.364C18.9931 16.6931 18.6926 16.9936 18.6926 17.3645C18.6926 17.7353 18.9931 18.0358 19.364 18.0358Z" fill="#F59C26"/>
<path d="M2.66943 33.3877C2.66943 36.7036 5.36714 39.4013 8.68311 39.4013C11.999 39.4013 14.6967 36.7036 14.6967 33.3877C14.6967 30.0717 11.999 27.374 8.68311 27.374C8.31226 27.374 8.01177 27.6745 8.01177 28.0454C8.01177 28.4162 8.31226 28.7167 8.68311 28.7167C11.2586 28.7167 13.354 30.8121 13.354 33.3877C13.354 35.9633 11.2587 38.0586 8.68311 38.0586C6.1075 38.0586 4.01211 35.9633 4.01211 33.3877C4.01211 33.0169 3.71162 32.7164 3.34077 32.7164C2.96993 32.7164 2.66943 33.0169 2.66943 33.3877Z" fill="#F59C26"/>
<path d="M8.68303 36.7316C9.05388 36.7316 9.35437 36.4311 9.35437 36.0603C9.35437 35.6894 9.05388 35.389 8.68303 35.389C7.57926 35.389 6.68136 34.4911 6.68136 33.3875C6.68136 32.2838 7.57926 31.3859 8.68303 31.3859C9.78662 31.3859 10.6845 32.2838 10.6845 33.3875C10.6845 33.7583 10.985 34.0588 11.3559 34.0588C11.7267 34.0588 12.0272 33.7583 12.0272 33.3875C12.0272 31.5433 10.527 30.0432 8.68303 30.0432C6.8389 30.0432 5.33868 31.5434 5.33868 33.3875C5.33868 35.2315 6.83899 36.7316 8.68303 36.7316Z" fill="#F59C26"/>
<path d="M36.4914 25.3759C39.6224 24.063 41.8274 20.9665 41.8274 17.3643C41.8274 12.5766 37.9322 8.6814 33.1445 8.6814H26.4134L18.6253 0.89315C18.6117 0.879544 18.5973 0.867012 18.5829 0.854749C18.0341 0.326181 17.289 0 16.4688 0C14.7874 0 13.4194 1.36801 13.4194 3.04949C13.4194 3.8696 13.7454 4.61452 14.2738 5.16314C14.2861 5.17773 14.2987 5.19214 14.3125 5.20592L17.7881 8.6814H8.68292C3.8952 8.6814 0 12.5766 0 17.3643C0 20.9665 2.20495 24.063 5.3359 25.376C2.20495 26.689 0 29.7855 0 33.3876C0 38.1754 3.8952 42.0706 8.68292 42.0706C8.68525 42.0706 33.1445 42.0705 33.1445 42.0705C37.9322 42.0705 41.8274 38.1753 41.8274 33.3876C41.8275 29.7854 39.6224 26.6889 36.4914 25.3759ZM39.6682 36.7459H18.2778C17.9069 36.7459 17.6065 37.0464 17.6065 37.4172C17.6065 37.7881 17.9069 38.0886 18.2778 38.0886H38.7766C37.4291 39.7003 35.4049 40.7278 33.1446 40.7278H13.3163C15.5701 39.3002 17.1247 36.8642 17.3402 34.0589H23.3638C23.7346 34.0589 24.0351 33.7584 24.0351 33.3876C24.0351 33.0167 23.7346 32.7162 23.3638 32.7162H17.3402C17.1247 29.9109 15.57 27.475 13.3162 26.0473H33.1446C37.192 26.0473 40.4848 29.3401 40.4848 33.3876C40.4848 34.5974 40.1887 35.7387 39.6682 36.7459ZM16.4688 1.34268C17.4101 1.34268 18.1757 2.10836 18.1757 3.04949C18.1757 3.99062 17.41 4.7563 16.4688 4.7563C15.5277 4.7563 14.762 3.99062 14.762 3.04949C14.762 2.10836 15.5276 1.34268 16.4688 1.34268ZM19.4088 10.0241H22.3604C22.7313 10.0241 23.0318 9.72359 23.0318 9.35274C23.0318 8.98189 22.7313 8.6814 22.3604 8.6814H19.687L17.0486 6.04304C18.2659 5.80771 19.2272 4.84653 19.4625 3.62917L25.6607 9.82742C25.7866 9.95328 25.9573 10.024 26.1354 10.024H33.1447C36.9656 10.024 40.1125 12.9591 40.4529 16.6929H35.8207C35.4499 16.6929 35.1494 16.9934 35.1494 17.3642C35.1494 17.7351 35.4499 18.0356 35.8207 18.0356H40.4529C40.1125 21.7694 36.9656 24.7045 33.1447 24.7045H13.3163C14.3838 24.0282 15.2944 23.1259 15.9801 22.0652H26.0454C26.4162 22.0652 26.7167 21.7647 26.7167 21.3939C26.7167 21.023 26.4162 20.7225 26.0454 20.7225H16.69C17.1252 19.6889 17.3659 18.5542 17.3659 17.3642C17.3659 14.2788 15.7479 11.5644 13.3161 10.024H19.4088V10.0241ZM8.68292 10.0241C12.7304 10.0241 16.0233 13.3169 16.0233 17.3643C16.0233 21.4106 12.7323 24.7026 8.68642 24.7046C4.63493 24.7039 1.34277 21.4114 1.34277 17.3643C1.34268 13.3169 4.63555 10.0241 8.68292 10.0241ZM16.0233 33.3876C16.0233 37.4339 12.7323 40.7259 8.68642 40.7278C4.63493 40.7272 1.34277 37.4347 1.34277 33.3876C1.34277 29.3401 4.63555 26.0473 8.68301 26.0473C12.7305 26.0473 16.0233 29.3401 16.0233 33.3876Z" fill="#F59C26"/>
<path d="M25.3617 33.3876C25.3617 33.7585 25.6622 34.059 26.033 34.059H38.4868C38.8577 34.059 39.1582 33.7585 39.1582 33.3876C39.1582 33.0168 38.8577 32.7163 38.4868 32.7163H26.033C25.6623 32.7163 25.3617 33.0169 25.3617 33.3876Z" fill="#F59C26"/>
</svg>
