<?xml version="1.0" encoding="UTF-8" ?>
<!DOCTYPE svg PUBLIC "-//W3C//DTD SVG 1.1//EN" "http://www.w3.org/Graphics/SVG/1.1/DTD/svg11.dtd">
<svg width="60pt" height="58pt" viewBox="0 0 60 58" version="1.1" xmlns="http://www.w3.org/2000/svg">
<g id="#b13990f7">
<path fill="#b13990" opacity="0.97" d=" M 4.55 12.64 C 12.54 1.56 28.09 -2.39 40.79 1.89 C 50.07 4.83 58.07 12.49 60.00 22.22 L 60.00 30.77 C 58.51 37.57 54.20 43.63 48.33 47.36 C 40.91 52.28 31.52 53.73 22.87 51.86 C 19.48 55.12 15.24 57.49 10.51 58.00 L 6.66 58.00 C 9.10 54.81 10.92 51.17 11.91 47.27 C 5.60 43.01 0.93 36.26 0.00 28.61 L 0.00 24.75 C 0.55 20.44 1.91 16.15 4.55 12.64 M 10.78 9.70 C 4.63 14.70 1.15 23.19 3.11 31.03 C 4.54 37.42 9.14 42.60 14.58 46.02 C 14.23 49.10 13.30 52.07 11.60 54.68 C 15.69 54.41 19.06 51.70 21.93 49.01 C 33.69 52.01 47.79 48.12 54.39 37.44 C 59.23 30.07 58.39 19.80 52.74 13.11 C 42.79 0.83 22.67 -0.48 10.78 9.70 Z" />
<path fill="#b13990" opacity="0.97" d=" M 17.11 21.02 C 17.05 18.98 19.00 17.19 21.01 17.31 C 25.57 17.27 30.14 17.14 34.70 17.35 C 36.87 17.51 37.83 19.72 38.34 21.54 C 40.72 20.70 43.15 17.67 45.78 19.07 C 45.97 23.99 46.11 28.97 45.72 33.87 C 43.13 35.24 40.68 32.18 38.33 31.38 C 37.86 33.20 36.87 35.39 34.70 35.53 C 30.18 35.74 25.64 35.60 21.11 35.57 C 19.13 35.73 17.12 34.07 17.11 32.04 C 17.04 28.37 17.06 24.69 17.11 21.02 M 19.96 20.20 C 19.25 24.36 19.71 28.68 19.81 32.89 C 24.91 33.10 30.02 32.94 35.12 32.90 C 35.49 28.63 35.41 24.33 35.17 20.06 C 30.11 20.00 24.98 19.52 19.96 20.20 M 38.19 24.44 C 38.09 25.68 38.00 26.92 37.93 28.17 C 39.68 29.12 41.45 30.03 43.21 30.96 C 43.16 27.96 43.15 24.97 43.21 21.98 C 41.55 22.82 39.89 23.66 38.19 24.44 Z" />
</g>
</svg>
