<?xml version="1.0" encoding="UTF-8" ?>
<!DOCTYPE svg PUBLIC "-//W3C//DTD SVG 1.1//EN" "http://www.w3.org/Graphics/SVG/1.1/DTD/svg11.dtd">
<svg width="75pt" height="61pt" viewBox="0 0 75 61" version="1.1" xmlns="http://www.w3.org/2000/svg">
<g id="#ba3b95ff">
<path fill="#ba3b95" opacity="1.00" d=" M 0.00 0.00 L 60.87 0.00 C 61.01 6.87 60.75 13.75 61.03 20.62 C 58.91 20.00 56.76 19.46 54.59 19.00 C 54.57 14.77 54.58 10.54 54.64 6.31 C 38.50 6.28 22.37 6.26 6.24 6.28 C 6.34 17.79 6.32 29.30 6.25 40.81 C 15.17 40.87 24.09 40.80 33.01 40.83 C 33.45 42.97 34.02 45.09 34.75 47.15 C 23.17 46.86 11.56 47.52 0.00 46.80 L 0.00 0.00 Z" />
<path fill="#ba3b95" opacity="1.00" d=" M 19.33 13.42 C 21.49 13.37 23.64 13.37 25.80 13.41 C 25.64 20.28 25.70 27.15 25.76 34.02 C 23.63 34.17 21.48 34.20 19.35 33.98 C 19.45 27.13 19.47 20.27 19.33 13.42 Z" />
<path fill="#ba3b95" opacity="1.00" d=" M 10.39 33.97 C 10.55 29.49 10.48 25.02 10.43 20.54 C 12.58 20.53 14.73 20.55 16.88 20.62 C 16.61 25.12 16.79 29.62 16.74 34.13 C 14.63 34.16 12.51 34.15 10.39 33.97 Z" />
<path fill="#ba3b95" opacity="1.00" d=" M 39.47 33.56 C 42.36 25.74 52.53 21.92 59.80 26.11 C 67.16 29.80 69.76 39.89 65.30 46.77 C 68.59 49.87 71.66 53.18 74.99 56.23 L 75.00 55.10 L 75.00 56.39 C 73.51 57.99 71.96 59.52 70.36 61.00 L 69.78 61.00 C 66.71 57.78 63.55 54.65 60.38 51.52 C 56.43 53.68 51.56 54.26 47.38 52.39 C 40.25 49.56 36.39 40.65 39.47 33.56 M 49.41 30.65 C 43.62 32.86 41.98 41.26 46.63 45.41 C 51.14 50.23 60.06 47.85 61.65 41.46 C 64.02 34.57 55.98 27.38 49.41 30.65 Z" />
<path fill="#ba3b95" opacity="1.00" d=" M 28.23 26.65 C 30.42 26.54 32.62 26.52 34.81 26.69 C 34.67 29.12 34.63 31.56 34.73 34.00 C 32.59 34.19 30.43 34.19 28.29 33.99 C 28.39 31.55 28.34 29.10 28.23 26.65 Z" />
<path fill="#ba3b95" opacity="1.00" d=" M 15.55 57.18 C 17.56 54.89 19.80 52.81 21.99 50.69 C 26.96 50.75 31.92 50.64 36.88 50.74 C 38.86 53.46 41.71 55.25 44.37 57.22 C 34.77 56.80 25.13 56.68 15.55 57.18 Z" />
</g>
</svg>
