<?xml version="1.0" encoding="UTF-8" ?>
<!DOCTYPE svg PUBLIC "-//W3C//DTD SVG 1.1//EN" "http://www.w3.org/Graphics/SVG/1.1/DTD/svg11.dtd">
<svg width="61pt" height="55pt" viewBox="0 0 61 55" version="1.1" xmlns="http://www.w3.org/2000/svg">
<g id="#b93b95ff">
<path fill="#b93b95" opacity="1.00" d=" M 19.40 4.52 C 16.56 2.58 20.49 -1.36 22.82 0.79 C 28.20 3.91 33.79 6.72 38.91 10.24 C 40.78 12.07 38.45 13.58 37.25 14.87 C 31.21 11.60 25.13 8.30 19.40 4.52 Z" />
<path fill="#b93b95" opacity="1.00" d=" M 9.80 22.93 C 12.30 17.45 15.76 12.46 18.60 7.16 C 23.76 10.37 29.07 13.31 34.34 16.35 C 33.22 18.22 32.10 20.09 30.98 21.96 C 41.00 27.23 51.19 32.22 61.00 37.87 L 61.00 43.44 C 59.21 43.84 57.18 44.80 55.51 43.53 C 46.38 37.99 37.48 32.07 28.40 26.44 C 27.32 28.34 26.25 30.24 25.18 32.14 C 20.15 28.91 14.71 26.34 9.80 22.93 Z" />
<path fill="#b93b95" opacity="1.00" d=" M 4.09 27.72 C 4.26 26.20 5.68 25.43 6.68 24.49 C 12.54 27.86 18.57 31.00 24.23 34.70 C 26.53 36.08 24.46 38.47 23.07 39.57 C 18.06 37.15 13.39 34.12 8.52 31.43 C 6.89 30.42 4.90 29.61 4.09 27.72 Z" />
<path fill="#b93b95" opacity="1.00" d=" M 2.45 52.75 C 2.92 51.02 2.51 47.81 4.98 47.68 C 12.98 47.41 21.02 47.39 29.01 47.64 C 31.26 47.67 31.01 50.55 31.70 52.05 C 32.81 53.00 33.90 53.98 34.96 55.00 L 0.00 55.00 L 0.00 52.74 C 0.61 52.75 1.84 52.75 2.45 52.75 Z" />
</g>
</svg>
