<?xml version="1.0" encoding="UTF-8" ?>
<!DOCTYPE svg PUBLIC "-//W3C//DTD SVG 1.1//EN" "http://www.w3.org/Graphics/SVG/1.1/DTD/svg11.dtd">
<svg width="90pt" height="91pt" viewBox="0 0 90 91" version="1.1" xmlns="http://www.w3.org/2000/svg">
<g id="#bd3a94fe">
<path fill="#bd3a94" opacity="1.00" d=" M 36.56 0.00 L 39.16 0.00 C 40.30 2.53 40.23 5.35 40.39 8.06 C 40.64 13.77 41.15 19.48 41.18 25.21 C 32.89 26.07 24.51 26.88 16.17 26.69 C 14.32 21.03 15.25 14.85 14.50 8.99 C 14.65 6.54 13.38 3.61 15.09 1.52 C 22.20 0.52 29.42 0.80 36.56 0.00 M 16.17 3.33 C 16.75 10.45 17.11 17.60 17.38 24.74 C 24.65 24.45 31.90 23.94 39.16 23.55 C 38.78 16.40 38.38 9.26 37.91 2.11 C 30.67 2.51 23.42 2.99 16.17 3.33 Z" />
<path fill="#bd3a94" opacity="1.00" d=" M 31.19 5.90 C 32.59 5.45 34.04 5.15 35.51 4.99 C 35.69 7.34 33.72 8.55 32.32 10.03 C 34.15 10.26 35.23 11.30 35.35 13.14 C 34.72 13.27 33.46 13.53 32.83 13.66 C 33.02 16.09 33.25 18.53 33.44 20.96 C 32.62 20.99 30.96 21.05 30.14 21.08 C 29.97 18.70 29.85 16.31 29.76 13.92 C 29.08 13.81 27.70 13.58 27.02 13.47 C 27.27 12.06 28.00 11.00 29.21 10.30 C 29.74 8.78 29.86 6.98 31.19 5.90 Z" />
<path fill="#bd3a94" opacity="1.00" d=" M 65.97 9.88 C 71.55 10.45 76.72 13.11 82.13 14.55 C 84.69 15.59 87.92 15.64 89.82 17.89 C 87.81 25.28 85.31 32.55 82.80 39.79 C 82.22 42.19 79.65 40.58 78.07 40.30 C 71.82 38.01 65.31 36.45 59.12 34.03 C 58.88 33.76 58.41 33.20 58.17 32.93 C 59.52 26.99 61.92 21.35 63.59 15.50 C 64.27 13.59 64.60 11.45 65.97 9.88 M 67.03 11.84 C 64.53 18.63 62.77 25.67 60.13 32.41 C 67.09 34.65 74.09 36.78 81.05 39.01 C 83.25 32.16 85.40 25.29 87.76 18.49 C 80.85 16.26 73.90 14.19 67.03 11.84 Z" />
<path fill="#bd3a94" opacity="1.00" d=" M 69.25 19.94 C 69.47 19.86 69.91 19.69 70.13 19.61 C 71.23 21.00 72.40 22.35 73.64 23.63 C 74.54 22.81 75.47 22.04 76.44 21.32 C 78.29 21.22 79.85 22.56 81.54 23.12 C 79.55 25.59 78.28 29.16 74.91 30.07 C 71.77 31.16 68.43 29.93 66.19 27.64 C 67.40 27.78 68.62 27.93 69.83 28.10 C 69.33 26.53 68.90 24.95 68.50 23.36 C 68.69 22.51 69.06 20.80 69.25 19.94 Z" />
<path fill="#bd3a94" opacity="1.00" d=" M 34.99 35.02 C 36.76 33.05 40.24 34.64 40.34 37.17 C 41.75 46.84 43.35 56.50 44.64 66.19 C 45.45 68.62 42.56 71.31 40.24 69.97 C 37.40 68.12 35.36 65.08 32.07 63.93 C 28.62 62.72 24.89 63.10 21.30 63.08 C 23.89 66.51 26.63 69.82 29.29 73.19 C 26.89 74.81 24.44 76.35 21.86 77.67 C 16.99 74.54 14.02 69.42 10.15 65.26 C 8.01 65.18 5.65 65.49 3.79 64.18 C 1.43 62.70 0.67 59.84 0.00 57.32 L 0.00 55.65 C 0.54 53.11 1.44 50.03 4.23 49.19 C 12.22 46.99 21.20 48.03 28.46 43.46 C 31.64 41.54 32.75 37.78 34.99 35.02 M 32.44 42.54 C 29.73 45.79 25.62 47.25 21.69 48.43 C 22.32 52.58 22.95 56.74 23.48 60.90 C 26.91 61.07 30.45 61.08 33.66 62.48 C 36.70 63.71 38.66 66.50 41.20 68.44 C 41.59 68.29 42.38 68.00 42.78 67.85 C 41.64 58.52 40.01 49.24 38.80 39.92 C 38.51 38.45 38.68 36.53 36.99 35.87 C 34.96 37.70 34.35 40.59 32.44 42.54 M 6.40 50.63 C 0.03 51.41 0.97 62.48 6.90 63.25 C 11.86 62.89 16.72 61.76 21.67 61.23 C 20.94 57.09 20.35 52.93 19.81 48.76 C 15.35 49.43 10.86 49.92 6.40 50.63 M 12.10 64.65 C 15.09 67.75 17.57 71.31 20.54 74.43 C 22.39 76.51 24.67 73.57 26.55 72.92 C 24.15 69.78 21.59 66.78 19.21 63.62 C 16.84 63.99 14.47 64.32 12.10 64.65 Z" />
<path fill="#bd3a94" opacity="1.00" d=" M 49.51 36.76 C 52.50 35.97 54.64 38.51 56.41 40.48 C 62.09 46.79 61.86 57.96 55.19 63.48 L 53.83 63.00 C 56.51 59.02 59.41 54.58 58.37 49.51 C 57.95 43.89 53.40 40.22 49.51 36.76 Z" />
<path fill="#bd3a94" opacity="1.00" d=" M 45.05 41.30 C 50.83 42.38 54.50 49.60 51.97 54.91 C 51.11 56.92 49.88 58.97 47.64 59.63 C 48.55 56.11 51.77 52.96 50.48 49.09 C 49.78 45.80 46.30 44.28 45.05 41.30 Z" />
<path fill="#bd3a94" opacity="1.00" d=" M 4.84 53.75 C 7.73 53.16 10.64 52.54 13.59 52.53 C 13.75 52.90 14.05 53.65 14.21 54.02 C 11.55 54.75 8.80 55.23 6.05 55.30 C 5.75 54.91 5.15 54.14 4.84 53.75 Z" />
<path fill="#bd3a94" opacity="1.00" d=" M 5.46 58.04 C 8.84 57.70 12.59 55.77 15.69 57.97 C 12.80 59.07 9.73 59.68 6.63 59.72 C 6.34 59.30 5.75 58.46 5.46 58.04 Z" />
<path fill="#bd3a94" opacity="1.00" d=" M 57.09 81.21 C 60.38 73.50 63.22 65.52 67.43 58.26 C 75.01 61.38 82.59 64.51 90.00 68.02 L 90.00 69.56 C 86.98 76.76 83.91 83.96 80.53 91.00 L 79.48 91.00 C 71.91 88.00 64.32 84.98 57.09 81.21 M 68.07 60.58 C 65.07 67.17 62.36 73.88 59.24 80.42 C 65.99 83.26 72.68 86.25 79.42 89.09 C 82.42 82.47 85.20 75.75 88.18 69.13 C 81.42 66.41 74.81 63.33 68.07 60.58 Z" />
<path fill="#bd3a94" opacity="1.00" d=" M 65.98 75.29 C 67.38 73.10 67.49 69.38 70.14 68.41 C 74.18 69.18 78.15 71.04 81.31 73.71 C 80.00 76.06 79.55 79.15 77.19 80.73 C 73.20 79.60 69.17 78.03 65.98 75.29 M 72.95 72.07 C 72.42 73.28 71.90 74.50 71.37 75.72 C 72.84 75.59 74.31 75.46 75.79 75.32 C 74.84 74.24 73.90 73.15 72.95 72.07 Z" />
</g>
</svg>
