<?xml version="1.0" encoding="UTF-8" ?>
<!DOCTYPE svg PUBLIC "-//W3C//DTD SVG 1.1//EN" "http://www.w3.org/Graphics/SVG/1.1/DTD/svg11.dtd">
<svg width="55pt" height="59pt" viewBox="0 0 55 59" version="1.1" xmlns="http://www.w3.org/2000/svg">
<g id="#ca3994fe">
<path fill="#ca3994" opacity="1.00" d=" M 24.81 0.00 L 53.27 0.00 C 54.05 1.20 55.01 2.42 54.88 3.95 C 54.99 11.31 54.84 18.68 54.94 26.05 C 54.91 28.04 55.07 30.81 52.71 31.57 C 50.43 31.99 48.10 31.78 45.79 31.80 C 45.75 39.57 45.85 47.33 45.78 55.09 C 46.00 56.68 44.95 57.91 43.96 59.00 L 1.67 59.00 C 1.89 57.78 1.33 57.14 0.00 57.09 L 0.00 17.83 C 0.53 16.73 1.60 14.53 2.14 13.43 C 2.69 11.85 2.92 9.30 5.11 9.27 C 11.00 8.96 16.90 9.13 22.80 9.11 C 23.00 6.01 22.11 2.26 24.81 0.00 M 25.29 2.30 C 25.32 11.37 25.02 20.46 25.44 29.52 C 28.82 29.50 32.19 29.50 35.56 29.46 C 35.52 27.96 35.48 26.47 35.42 24.97 C 31.41 23.98 28.37 19.41 30.28 15.43 C 31.39 12.34 34.73 11.08 37.78 11.11 C 37.79 13.12 37.77 15.14 37.80 17.15 C 41.31 17.43 39.56 13.20 40.09 11.05 C 43.39 11.08 46.96 12.81 47.79 16.25 C 49.13 20.22 45.99 24.03 42.30 25.12 C 42.29 26.56 42.28 27.99 42.27 29.43 C 45.43 29.43 48.60 29.62 51.76 29.40 C 51.93 29.22 52.27 28.84 52.45 28.65 C 52.65 20.77 52.42 12.87 52.55 4.99 C 52.54 3.89 52.84 1.93 51.05 2.26 C 42.46 2.22 33.87 2.14 25.29 2.30 M 4.94 11.41 C 4.78 11.93 4.45 12.97 4.28 13.49 C 10.49 13.63 16.70 13.51 22.91 13.53 C 22.97 12.97 23.10 11.86 23.16 11.31 C 17.09 11.29 11.00 11.01 4.94 11.41 M 32.20 19.07 C 32.59 21.75 35.44 22.68 37.79 22.80 C 37.77 25.07 37.75 27.34 37.75 29.60 C 41.77 30.19 39.43 25.20 39.90 22.85 C 42.12 22.62 44.77 21.97 45.50 19.53 C 46.59 16.96 44.49 14.62 42.37 13.47 C 42.33 15.40 42.35 17.33 42.36 19.26 C 40.06 19.26 37.76 19.26 35.46 19.26 C 35.48 17.31 35.50 15.36 35.47 13.41 C 33.31 14.41 31.50 16.53 32.20 19.07 M 2.37 22.67 C 9.22 22.63 16.07 22.66 22.92 22.62 C 22.90 20.33 22.89 18.04 22.88 15.75 C 16.12 15.73 9.36 15.74 2.59 15.69 C 2.40 18.01 2.37 20.34 2.37 22.67 M 2.39 56.65 C 15.88 56.99 29.42 56.89 42.91 56.68 L 43.40 56.01 C 43.60 47.94 43.39 39.86 43.48 31.78 C 37.42 31.66 31.34 31.97 25.29 31.60 C 22.42 30.72 22.93 27.15 22.76 24.82 C 15.99 24.82 9.21 24.83 2.44 24.75 C 2.36 35.38 2.45 46.02 2.39 56.65 Z" />
<path fill="#ca3994" opacity="1.00" d=" M 7.02 18.26 C 8.52 18.24 10.02 18.22 11.51 18.20 C 11.51 18.76 11.50 19.86 11.50 20.42 C 10.04 20.41 8.59 20.41 7.13 20.40 C 7.10 19.87 7.05 18.80 7.02 18.26 Z" />
<path fill="#ca3994" opacity="1.00" d=" M 13.67 18.27 C 15.27 18.24 16.87 18.23 18.47 18.22 C 18.46 18.77 18.42 19.86 18.40 20.41 C 16.87 20.41 15.33 20.40 13.80 20.39 C 13.77 19.86 13.70 18.80 13.67 18.27 Z" />
<path fill="#ca3994" opacity="1.00" d=" M 6.78 35.34 C 11.46 35.28 16.14 35.21 20.82 35.35 C 20.78 35.89 20.71 36.95 20.68 37.48 C 16.19 37.47 11.70 37.42 7.22 37.50 C 7.11 36.96 6.89 35.88 6.78 35.34 Z" />
<path fill="#ca3994" opacity="1.00" d=" M 25.12 35.30 C 29.82 35.20 34.52 35.20 39.21 35.26 C 39.10 35.81 38.88 36.89 38.77 37.44 C 34.26 37.64 29.73 37.42 25.21 37.49 C 25.19 36.95 25.14 35.85 25.12 35.30 Z" />
<path fill="#ca3994" opacity="1.00" d=" M 7.12 39.76 C 11.70 39.78 16.28 39.75 20.87 39.77 C 20.74 40.35 20.50 41.51 20.38 42.10 C 15.92 42.16 11.47 41.73 7.01 41.84 C 7.04 41.32 7.09 40.28 7.12 39.76 Z" />
<path fill="#ca3994" opacity="1.00" d=" M 25.43 39.77 C 29.66 39.83 33.89 39.58 38.11 39.82 C 39.66 41.32 38.57 44.25 38.94 46.29 C 34.39 46.88 29.77 46.68 25.21 46.36 C 25.22 44.16 25.28 41.96 25.43 39.77 Z" />
<path fill="#ca3994" opacity="1.00" d=" M 7.09 44.40 C 10.87 44.41 14.66 44.39 18.44 44.39 C 18.44 44.93 18.44 46.02 18.45 46.56 C 14.66 46.57 10.87 46.56 7.08 46.56 C 7.08 46.02 7.09 44.94 7.09 44.40 Z" />
</g>
</svg>
