<?xml version="1.0" encoding="UTF-8" ?>
<!DOCTYPE svg PUBLIC "-//W3C//DTD SVG 1.1//EN" "http://www.w3.org/Graphics/SVG/1.1/DTD/svg11.dtd">
<svg width="64pt" height="54pt" viewBox="0 0 64 54" version="1.1" xmlns="http://www.w3.org/2000/svg">
<g id="#c23a95ff">
<path fill="#c23a95" opacity="1.00" d=" M 55.30 0.00 L 55.78 0.00 C 60.48 5.75 63.33 12.84 63.99 20.23 L 64.00 18.59 L 64.00 26.25 C 63.13 33.26 61.97 40.98 56.93 46.32 C 62.93 32.38 63.91 15.17 55.65 1.95 C 55.56 1.46 55.39 0.49 55.30 0.00 Z" />
<path fill="#c23a95" opacity="1.00" d=" M 34.73 8.75 C 36.93 6.87 37.24 1.96 41.01 2.74 C 44.15 3.43 45.37 6.97 46.57 9.58 C 50.04 19.18 51.65 29.93 48.86 39.90 C 48.43 41.99 46.83 43.43 45.19 44.62 C 39.15 40.54 32.29 37.45 25.08 36.29 C 23.86 36.35 21.79 35.51 21.22 37.10 C 21.15 41.46 23.50 45.30 24.73 49.36 C 24.76 50.90 24.84 52.45 24.97 53.99 C 22.65 53.67 19.70 53.93 18.23 51.68 C 15.83 47.56 17.05 41.94 13.64 38.30 C 9.58 35.27 2.61 38.01 0.00 32.70 L 0.00 28.78 C 1.05 25.33 4.88 24.50 7.60 22.86 C 5.71 25.42 5.46 28.56 5.53 31.62 C 5.20 31.95 4.55 32.59 4.22 32.92 C 4.18 33.56 4.10 34.86 4.06 35.51 C 4.45 34.51 5.23 32.51 5.62 31.51 C 5.86 32.54 6.32 34.60 6.55 35.63 C 6.49 32.40 6.08 29.14 6.62 25.94 C 8.54 21.23 14.25 21.00 18.28 19.16 C 24.17 16.43 29.82 13.00 34.73 8.75 M 41.27 35.70 C 47.32 29.99 46.45 18.00 38.80 14.13 C 37.63 21.33 37.79 29.12 41.27 35.70 M 2.13 32.17 C 2.65 30.74 2.64 29.32 2.12 27.91 C 0.93 28.40 0.84 31.89 2.13 32.17 Z" />
<path fill="#c23a95" opacity="1.00" d=" M 52.88 5.21 C 58.55 9.51 59.41 17.33 59.82 23.93 C 59.61 30.28 59.08 37.52 54.34 42.28 C 59.52 30.52 59.27 16.46 52.88 5.21 Z" />
<path fill="#c23a95" opacity="1.00" d=" M 50.69 9.76 C 54.44 12.14 55.37 16.82 55.91 20.90 C 56.39 27.17 55.81 33.94 52.14 39.27 C 52.60 35.44 54.14 31.81 54.21 27.92 C 54.79 21.66 53.52 15.36 50.69 9.76 Z" />
</g>
</svg>
