<?xml version="1.0" encoding="UTF-8" ?>
<!DOCTYPE svg PUBLIC "-//W3C//DTD SVG 1.1//EN" "http://www.w3.org/Graphics/SVG/1.1/DTD/svg11.dtd">
<svg width="49pt" height="55pt" viewBox="0 0 49 55" version="1.1" xmlns="http://www.w3.org/2000/svg">
<g id="#cc3995ff">
<path fill="#cc3995" opacity="1.00" d=" M 35.00 0.45 C 39.67 0.23 44.33 0.31 49.00 0.37 L 49.00 1.64 C 48.89 6.14 48.96 10.65 48.97 15.16 C 47.85 15.16 45.61 15.17 44.50 15.17 C 44.44 12.90 44.56 10.62 44.76 8.36 C 37.44 15.24 30.73 22.84 23.75 30.10 C 20.55 26.94 17.57 23.58 14.38 20.42 C 11.98 23.03 9.48 25.56 7.05 28.15 C 6.22 27.01 5.52 25.57 3.96 25.38 C 4.93 30.41 7.07 35.57 11.59 38.40 C 17.66 42.60 26.68 41.23 31.29 35.47 C 34.65 31.59 35.91 26.14 34.88 21.15 C 35.94 19.87 37.10 18.69 38.27 17.52 C 40.36 23.39 39.71 30.15 36.52 35.51 C 40.15 39.56 44.16 43.25 47.68 47.39 C 49.58 50.25 47.46 53.65 44.75 55.00 L 42.11 55.00 C 37.34 51.55 33.85 46.61 29.55 42.60 C 23.96 45.92 16.69 46.19 10.98 43.01 C 3.88 39.25 -0.39 31.05 0.34 23.08 C 0.77 13.03 9.67 3.81 19.95 4.17 C 25.26 3.95 30.08 6.65 33.94 10.07 C 32.93 11.18 31.92 12.28 30.90 13.38 C 28.59 11.13 25.78 9.33 22.57 8.72 C 15.03 7.11 7.27 12.36 5.09 19.58 C 5.58 20.14 6.57 21.26 7.07 21.82 C 9.51 19.24 11.99 16.70 14.34 14.05 C 17.54 17.18 20.52 20.51 23.69 23.67 C 29.54 17.35 35.62 11.25 41.43 4.90 C 39.34 4.95 37.25 4.95 35.17 4.93 C 35.12 3.44 35.06 1.94 35.00 0.45 Z" />
</g>
</svg>
