<svg width="19" height="19" viewBox="0 0 19 19" fill="none" xmlns="http://www.w3.org/2000/svg">
<g clip-path="url(#clip0)">
<path d="M8.03845 0H0.730784C0.327176 0 0 0.327176 0 0.730784V8.0385C0 8.4421 0.327176 8.76928 0.730784 8.76928H8.0385C8.4421 8.76928 8.76928 8.4421 8.76928 8.0385V0.730784C8.76924 0.327176 8.44206 0 8.03845 0ZM7.30771 7.30771H1.46153V1.46153H7.30767V7.30771H7.30771Z" fill="#E5E5E5"/>
<path d="M18.269 0H10.9613C10.5576 0 10.2305 0.327176 10.2305 0.730784V8.0385C10.2305 8.4421 10.5576 8.76928 10.9613 8.76928H18.269C18.6726 8.76928 18.9997 8.4421 18.9997 8.0385V0.730784C18.9997 0.327176 18.6725 0 18.269 0ZM17.5382 7.30771H11.692V1.46153H17.5382V7.30771Z" fill="#E5E5E5"/>
<path d="M8.03845 10.2307H0.730784C0.327176 10.2307 0 10.5579 0 10.9615V18.2692C0 18.6728 0.327176 19 0.730784 19H8.0385C8.4421 19 8.76928 18.6728 8.76928 18.2692V10.9615C8.76924 10.5579 8.44206 10.2307 8.03845 10.2307ZM7.30771 17.5384H1.46153V11.6923H7.30767V17.5384H7.30771Z" fill="#E5E5E5"/>
<path d="M18.269 13.8846H15.3459V10.9615C15.3459 10.5579 15.0187 10.2307 14.6151 10.2307C14.2115 10.2307 13.8843 10.5579 13.8843 10.9615V13.8846H10.9613C10.5576 13.8846 10.2305 14.2118 10.2305 14.6154C10.2305 15.019 10.5576 15.3461 10.9613 15.3461H13.8843V18.2692C13.8843 18.6728 14.2115 19 14.6151 19C15.0187 19 15.3459 18.6728 15.3459 18.2692V15.3461H18.269C18.6726 15.3461 18.9998 15.0189 18.9998 14.6153C18.9998 14.2117 18.6725 13.8846 18.269 13.8846Z" fill="#E5E5E5"/>
</g>
<defs>
<clipPath id="clip0">
<rect width="19" height="19" fill="white"/>
</clipPath>
</defs>
</svg>
