<svg width="41" height="40" viewBox="0 0 41 40" fill="none" xmlns="http://www.w3.org/2000/svg">
<path d="M15.5565 38C16.4924 38 17.2511 37.2325 17.2511 36.2857C17.2511 35.3389 16.4924 34.5714 15.5565 34.5714C14.6207 34.5714 13.862 35.3389 13.862 36.2857C13.862 37.2325 14.6207 38 15.5565 38Z" stroke="#A5A5A5" stroke-width="3.42857" stroke-linecap="round" stroke-linejoin="round"/>
<path d="M34.1968 38C35.1327 38 35.8914 37.2325 35.8914 36.2857C35.8914 35.3389 35.1327 34.5714 34.1968 34.5714C33.2609 34.5714 32.5022 35.3389 32.5022 36.2857C32.5022 37.2325 33.2609 38 34.1968 38Z" stroke="#A5A5A5" stroke-width="3.42857" stroke-linecap="round" stroke-linejoin="round"/>
<path d="M2 2H8.77827L13.3197 24.9543C13.4747 25.7435 13.8991 26.4525 14.5187 26.9571C15.1383 27.4617 15.9136 27.7297 16.7088 27.7143H33.18C33.9753 27.7297 34.7506 27.4617 35.3702 26.9571C35.9898 26.4525 36.4142 25.7435 36.5692 24.9543L39.2805 10.5714H10.4728" stroke="#A5A5A5" stroke-width="3.42857" stroke-linecap="round" stroke-linejoin="round"/>
</svg>
