<svg width="28" height="27" viewBox="0 0 28 27" fill="none" xmlns="http://www.w3.org/2000/svg">
<path d="M10.4553 25.9998C11.108 25.9998 11.6371 25.4668 11.6371 24.8094C11.6371 24.1519 11.108 23.6189 10.4553 23.6189C9.80256 23.6189 9.27344 24.1519 9.27344 24.8094C9.27344 25.4668 9.80256 25.9998 10.4553 25.9998Z" stroke="#009900" stroke-width="1.5" stroke-linecap="round" stroke-linejoin="round"/>
<path d="M23.4553 25.9998C24.108 25.9998 24.6371 25.4668 24.6371 24.8094C24.6371 24.1519 24.108 23.6189 23.4553 23.6189C22.8026 23.6189 22.2734 24.1519 22.2734 24.8094C22.2734 25.4668 22.8026 25.9998 23.4553 25.9998Z" stroke="#009900" stroke-width="1.5" stroke-linecap="round" stroke-linejoin="round"/>
<path d="M1 1H5.72727L8.89454 16.9404C9.00262 17.4885 9.29862 17.9808 9.73074 18.3312C10.1629 18.6816 10.7036 18.8678 11.2582 18.8571H22.7455C23.3001 18.8678 23.8408 18.6816 24.2729 18.3312C24.705 17.9808 25.001 17.4885 25.1091 16.9404L27 6.95235H6.90909" stroke="#009900" stroke-width="1.5" stroke-linecap="round" stroke-linejoin="round"/>
</svg>
