<svg width="20" height="21" viewBox="0 0 20 21" fill="none" xmlns="http://www.w3.org/2000/svg">
<path d="M20 10.3492C20 8.9528 18.9375 8.22134 17.5 8.22134H13.3125C13.625 7.02439 13.75 5.89394 13.75 4.89649C13.75 1.03966 12.75 0.241699 11.875 0.241699C11.3125 0.241699 10.875 0.308196 10.3125 0.640681C10.125 0.773675 10.0625 0.906669 10 1.10616L9.375 4.697C8.6875 6.55891 7 8.22134 5.625 9.35179V18.8609C6.125 18.8609 6.625 19.1268 7.25 19.4593C7.9375 19.7918 8.625 20.1908 9.375 20.1908H15.3125C16.5625 20.1908 17.5 19.1268 17.5 18.1959C17.5 17.9964 17.5 17.8634 17.4375 17.7304C18.1875 17.3979 18.75 16.733 18.75 15.8685C18.75 15.4695 18.6875 15.137 18.5625 14.8045C19.0625 14.4721 19.5 13.8736 19.5 13.2086C19.5 12.8096 19.3125 12.4106 19.125 12.0782C19.625 11.6792 20 11.0142 20 10.3492ZM18.6875 10.3492C18.6875 11.2137 17.875 11.2802 17.75 11.6792C17.625 12.1447 18.25 12.2777 18.25 13.0756C18.25 13.8736 17.3125 13.8736 17.1875 14.3391C17.0625 14.871 17.5 15.004 17.5 15.802V15.935C17.375 16.6 16.4375 16.6665 16.25 16.9324C16.0625 17.2649 16.25 17.3979 16.25 18.1294C16.25 18.5284 15.8125 18.7944 15.3125 18.7944H9.375C8.875 18.7944 8.375 18.5284 7.75 18.1959C7.25 17.9299 6.75 17.6639 6.25 17.5309V10.5487C7.8125 9.28529 9.8125 7.42337 10.5625 5.09598V4.96299L11.125 1.63814C11.375 1.57164 11.5625 1.57164 11.875 1.57164C12 1.57164 12.5 2.3696 12.5 4.89649C12.5 5.89394 12.3125 6.95789 12 8.22134H11.875C11.5 8.22134 11.25 8.48733 11.25 8.88631C11.25 9.28529 11.5 9.55128 11.875 9.55128H17.5C18.125 9.55128 18.6875 9.88376 18.6875 10.3492Z" fill="white"/>
<path d="M5 20.1907H1.25C0.5625 20.1907 0 19.5922 0 18.8607V9.55113C0 8.81967 0.5625 8.22119 1.25 8.22119H5C5.6875 8.22119 6.25 8.81967 6.25 9.55113V18.8607C6.25 19.5922 5.6875 20.1907 5 20.1907ZM1.25 9.55113V18.8607H5V9.55113H1.25Z" fill="white"/>
</svg>
