<svg width="30" height="30" viewBox="0 0 30 30" fill="none" xmlns="http://www.w3.org/2000/svg">
<circle cx="15" cy="15" r="15" fill="#E5E5E5"/>
<path fill-rule="evenodd" clip-rule="evenodd" d="M8.10029 17.7143H10.2003V20.9286H8.10029V17.7143ZM13.3503 13.4286H15.4503V20.9286H13.3503V13.4286ZM18.6003 8.07143H20.7003V20.9286H18.6003V8.07143ZM17.8578 7.31381C18.0547 7.11288 18.3218 7 18.6003 7H20.7003C20.9788 7 21.2458 7.11288 21.4428 7.31381C21.6397 7.51475 21.7503 7.78727 21.7503 8.07143V20.9286C21.7503 20.9286 21.7503 20.9286 21.7503 20.9286H22.275C22.4142 20.9286 22.5478 20.9851 22.6462 21.0856C22.7447 21.186 22.8 21.3223 22.8 21.4644C22.8 21.6064 22.7447 21.7427 22.6462 21.8432C22.5478 21.9436 22.4142 22.0001 22.275 22.0001H6.525C6.38576 22.0001 6.25223 21.9436 6.15377 21.8432C6.05531 21.7427 6 21.6064 6 21.4644C6 21.3223 6.05531 21.186 6.15377 21.0856C6.25223 20.9851 6.38576 20.9286 6.525 20.9286H7.05029C7.05029 20.9286 7.05029 20.9286 7.05029 20.9286V17.7143C7.05029 17.4301 7.16092 17.1576 7.35783 16.9567C7.55474 16.7557 7.82182 16.6429 8.10029 16.6429H10.2003C10.4788 16.6429 10.7458 16.7557 10.9428 16.9567C11.1397 17.1576 11.2503 17.4301 11.2503 17.7143V20.9286C11.2503 20.9286 11.2503 20.9286 11.2503 20.9286H12.3003C12.3003 20.9286 12.3003 20.9286 12.3003 20.9286V13.4286C12.3003 13.1444 12.4109 12.8719 12.6078 12.671C12.8047 12.47 13.0718 12.3571 13.3503 12.3571H15.4503C15.7288 12.3571 15.9958 12.47 16.1928 12.671C16.3897 12.8719 16.5003 13.1444 16.5003 13.4286V20.9286C16.5003 20.9286 16.5003 20.9286 16.5003 20.9286H17.5503C17.5503 20.9286 17.5503 20.9286 17.5503 20.9286V8.07143C17.5503 7.78727 17.6609 7.51475 17.8578 7.31381Z" fill="#C4C4C4"/>
</svg>
