<svg width="22" height="22" viewBox="0 0 22 22" fill="none" xmlns="http://www.w3.org/2000/svg">
<path d="M7.42774 8.36557H8.85636H7.42774ZM13.1422 14.0655H14.5708H13.1422ZM14.5708 7.65307L7.42774 14.778L14.5708 7.65307ZM10.0007 1.65389L8.38777 3.25984C8.12343 3.52398 7.76476 3.67262 7.39059 3.67309H4.8505C4.47615 3.67309 4.11714 3.82142 3.85244 4.08545C3.58773 4.34948 3.43902 4.70758 3.43902 5.08097V7.6146C3.43855 7.98781 3.28954 8.34557 3.02472 8.60924L1.41324 10.2209C1.14864 10.4849 1 10.8429 1 11.2162C1 11.5896 1.14864 11.9476 1.41324 12.2116L3.02758 13.8204C3.29188 14.084 3.44045 14.4417 3.44045 14.815V17.3487C3.44045 18.1267 4.0719 18.7566 4.85193 18.7566H7.39202C7.76632 18.7566 8.1249 18.9048 8.3892 19.1698L10.0035 20.7786C10.2682 21.0425 10.6272 21.1908 11.0014 21.1908C11.3757 21.1908 11.7346 21.0425 11.9993 20.7786L13.6122 19.1684C13.8768 18.9048 14.2355 18.7566 14.6094 18.7566H17.1495C17.5239 18.7566 17.8829 18.6082 18.1476 18.3442C18.4123 18.0802 18.561 17.7221 18.561 17.3487V14.815C18.561 14.4417 18.7096 14.084 18.9753 13.8204L20.5882 12.2102C20.8528 11.9462 21.0014 11.5881 21.0014 11.2148C21.0014 10.8415 20.8528 10.4835 20.5882 10.2195L18.9739 8.61066C18.7096 8.34676 18.5611 7.98903 18.561 7.61602V5.0824C18.561 4.70901 18.4123 4.3509 18.1476 4.08687C17.8829 3.82285 17.5239 3.67451 17.1495 3.67451H14.6094C14.2352 3.67405 13.8766 3.52541 13.6122 3.26127L11.9965 1.65389C11.7318 1.38996 11.3728 1.2417 10.9986 1.2417C10.6243 1.2417 10.2654 1.38996 10.0007 1.65389V1.65389Z" stroke="#525252"/>
</svg>
