<svg width="20" height="20" viewBox="0 0 20 20" fill="none" xmlns="http://www.w3.org/2000/svg">
<g clip-path="url(#clip0)">
<path d="M0.574463 19.9997H4.92427V9.99512H0.574463C0.574463 9.99512 0.574463 19.9997 0.574463 19.9997ZM2.74718 10.7999C3.3829 10.7999 3.89813 11.3153 3.89813 11.951C3.89813 12.5863 3.3829 13.1018 2.74718 13.1018C2.11146 13.1018 1.59643 12.5863 1.59643 11.951C1.59643 11.3153 2.11146 10.7999 2.74718 10.7999Z" fill="#FFB100"/>
<path d="M19.2217 10.3641C19.2217 10.3641 20.6458 6.92271 15.9658 7.77872C15.9658 7.77872 13.0752 8.38421 12.7424 7.50055C12.7424 7.50055 12.5136 6.8298 13.5769 5.55359C13.5769 5.55359 15.9334 2.93564 13.2663 0.383189C13.2663 0.383189 11.9081 -0.761911 11.6952 0.906916C11.4824 2.57594 11.7278 2.67404 10.8115 3.96679C10.8115 3.96679 8.23292 6.45359 7.69789 8.36817C7.69789 8.36817 6.98517 10.5405 5.79419 10.5757V18.1354C6.19112 18.1281 7.47148 18.0783 8.82711 18.5504C8.82711 18.5504 11.3056 19.14 12.9201 19.14C12.9201 19.14 16.1933 19.2161 17.1916 18.4416C17.1916 18.4416 18.0672 17.7927 17.8876 16.9418C17.8876 16.9418 17.7242 16.3816 18.1538 16.0582C18.1538 16.0582 19.405 15.2672 18.7941 14.0131C18.7941 14.0131 18.4733 13.4402 18.9865 12.9498C18.9865 12.9498 19.7406 12.3687 19.2208 11.657C19.221 11.6566 18.8744 11.0476 19.2217 10.3641Z" fill="#FFB100"/>
</g>
<defs>
<clipPath id="clip0">
<rect width="20" height="20" fill="white"/>
</clipPath>
</defs>
</svg>
