<svg width="21" height="21" viewBox="0 0 21 21" fill="none" xmlns="http://www.w3.org/2000/svg">
<path d="M21 6.23472C21 6.15177 20.9897 6.06537 20.9692 5.97551C20.9487 5.88565 20.9248 5.8027 20.8975 5.72666C20.8701 5.65063 20.8325 5.57805 20.7847 5.50892C20.7368 5.4398 20.6821 5.37413 20.6206 5.31192C20.5591 5.24971 20.4941 5.19441 20.4258 5.14602C20.3574 5.09764 20.2822 5.05616 20.2002 5.0216C20.1182 4.98704 20.0361 4.95939 19.9541 4.93865C19.8721 4.91792 19.7832 4.90755 19.6875 4.90755H17.4521C18.0811 4.28543 18.3955 3.53199 18.3955 2.6472C18.3955 2.23246 18.3203 1.85228 18.1699 1.50666C18.0195 1.16104 17.7495 0.863812 17.3599 0.614967C16.9702 0.366122 16.4883 0.241699 15.9141 0.241699C15.6816 0.241699 15.4458 0.265893 15.2065 0.314279C14.9673 0.362666 14.7383 0.435246 14.5195 0.532019C14.3008 0.628792 14.0854 0.735934 13.8735 0.853444C13.6616 0.970954 13.4565 1.10575 13.2583 1.25782C13.0601 1.40989 12.8687 1.56542 12.6841 1.7244C12.4995 1.88339 12.3218 2.0562 12.1509 2.24283C11.98 2.42946 11.8193 2.60919 11.6689 2.78199C11.5186 2.9548 11.3716 3.13453 11.228 3.32116C11.0845 3.50779 10.958 3.67715 10.8486 3.82922C10.7393 3.98129 10.6367 4.14028 10.541 4.30617C10.2539 3.86378 9.94287 3.43867 9.60791 3.03084C9.27295 2.62301 8.86621 2.19444 8.3877 1.74514C7.90918 1.29584 7.38281 0.932936 6.80859 0.656441C6.23438 0.379947 5.66699 0.241699 5.10645 0.241699C4.53223 0.241699 4.05029 0.366122 3.66064 0.614967C3.271 0.863812 3.00098 1.16104 2.85059 1.50666C2.7002 1.85228 2.625 2.23246 2.625 2.6472C2.625 3.53199 2.94629 4.29235 3.58887 4.92829H1.3125C0.943359 4.92829 0.632324 5.05616 0.379395 5.31192C0.126465 5.56768 0 5.88219 0 6.25546V10.2162H1.33301V18.8636C1.33301 19.2231 1.45947 19.5341 1.7124 19.7968C1.96533 20.0595 2.27637 20.1908 2.64551 20.1908H18.375C18.7441 20.1908 19.0552 20.0595 19.3081 19.7968C19.561 19.5341 19.6875 19.2231 19.6875 18.8636V10.2162H21V6.23472ZM15.9141 1.56887C16.6934 1.56887 17.083 1.92832 17.083 2.6472C17.083 3.11724 16.9258 3.52853 16.6113 3.88106C16.2969 4.23359 15.9038 4.49281 15.4321 4.6587C14.9604 4.8246 14.458 4.90755 13.9248 4.90755H11.71C11.9697 4.52046 12.2466 4.15064 12.5405 3.79811C12.8345 3.44558 13.166 3.09305 13.5352 2.74052C13.9043 2.38799 14.2974 2.10458 14.7144 1.8903C15.1313 1.67602 15.5312 1.56887 15.9141 1.56887ZM5.10645 1.56887C5.84473 1.56887 6.59326 1.90758 7.35205 2.58499C8.11084 3.2624 8.78418 4.03659 9.37207 4.90755H7.15723C6.32324 4.90755 5.57812 4.70018 4.92188 4.28543C4.26562 3.87069 3.9375 3.3177 3.9375 2.62647C3.9375 1.96288 4.28613 1.61726 4.9834 1.58961C5.02441 1.57579 5.06543 1.56887 5.10645 1.56887ZM19.6875 8.88907H11.1562V6.23472H19.6875V8.88907ZM1.3125 6.23472H9.84375V8.88907H1.3125V6.23472ZM2.64551 10.2162H9.84375V18.8636H2.64551V10.2162ZM18.375 18.8636H11.1562V10.2162H18.375V18.8636Z" fill="#525252"/>
</svg>
