<svg width="20" height="20" viewBox="0 0 20 20" fill="none" xmlns="http://www.w3.org/2000/svg">
<path d="M10.0002 11.1914C5.91582 11.1914 2.45086 9.87071 0.725586 7.89671V8.29439C0.764899 11.0274 4.92524 13.2575 10.0002 13.2575C15.0114 13.2575 19.2582 10.9707 19.2744 8.26383V7.89648C17.5493 9.87049 14.0844 11.1914 10.0002 11.1914Z" fill="#FFB100"/>
<path d="M10.0002 14.4291C5.92549 14.4291 2.4538 13.1039 0.725586 11.1274V11.6557C0.764899 14.3884 4.92524 16.6185 10.0002 16.6185C15.0114 16.6185 19.2582 14.3318 19.2744 11.6251V11.1299C17.5482 13.1064 14.0806 14.4291 10.0002 14.4291Z" fill="#FFB100"/>
<path d="M10.0002 17.7909C5.92549 17.7909 2.4538 16.4657 0.725586 14.4893V15.0368C0.764899 17.77 4.92524 20.0001 10.0002 20.0001C15.0114 20.0001 19.2582 17.7134 19.2744 15.0065V14.4917C17.5482 16.4682 14.0806 17.7909 10.0002 17.7909Z" fill="#FFB100"/>
<path d="M11.9503 6.30467C11.9503 6.13033 11.8537 5.99866 11.6609 5.90925C11.4679 5.81984 11.1723 5.75265 10.7737 5.70703V6.87738C11.558 6.81088 11.9503 6.6199 11.9503 6.30467Z" fill="#FFB100"/>
<path d="M8.34425 4.11936C8.54647 4.2108 8.85337 4.28135 9.26455 4.33099V3.13574C8.80285 3.16901 8.48357 3.23639 8.30608 3.33796C8.12902 3.43973 8.04053 3.56737 8.04053 3.7208C8.04049 3.89537 8.14161 4.02815 8.34425 4.11936Z" fill="#FFB100"/>
<path d="M10.0002 10.019C15.0276 10.019 19.2744 7.72504 19.2744 5.00935C19.2744 2.29393 15.0276 0 10.0002 0C4.97286 0 0.725586 2.29393 0.725586 5.00939C0.725586 7.72504 4.97289 10.019 10.0002 10.019ZM6.18994 3.05157C6.34202 2.83791 6.55996 2.6532 6.84486 2.49752C7.12953 2.34203 7.47597 2.21644 7.884 2.12073C8.292 2.02547 8.75239 1.95896 9.26441 1.92145V1.28044H10.7733V1.90325C11.235 1.91965 11.7048 1.95403 12.1825 2.0057C12.66 2.05805 13.0983 2.12949 13.4966 2.2205V3.45306C12.5224 3.24545 11.6148 3.12954 10.7733 3.10438V4.48635C11.1719 4.52792 11.5658 4.58295 11.9549 4.65125C12.344 4.71978 12.6919 4.8191 12.9987 4.95007C13.3054 5.08082 13.5553 5.25203 13.7485 5.4637C13.9413 5.67513 14.0379 5.94696 14.0379 6.27905C14.0379 6.81041 13.7545 7.22763 13.1888 7.53027C12.6224 7.83337 11.8174 8.0221 10.7735 8.09667V8.73791H9.26461V8.12791C8.64471 8.11533 8.06125 8.07916 7.51394 8.01896C6.96685 7.95873 6.513 7.87471 6.15219 7.76687V6.54711C6.39912 6.60532 6.63928 6.65607 6.87339 6.69989C7.10751 6.74326 7.34767 6.78054 7.59459 6.81178C7.84129 6.84303 8.1008 6.86773 8.37288 6.88659C8.64452 6.90525 8.942 6.91669 9.26464 6.92074V5.55739C8.86651 5.5201 8.47109 5.46909 8.0788 5.40484C7.68629 5.34059 7.33378 5.24419 7.02058 5.11546C6.70738 4.98694 6.45281 4.81642 6.2569 4.60501C6.06052 4.39358 5.96278 4.1195 5.96278 3.78339C5.96258 3.50898 6.0383 3.26545 6.18994 3.05157Z" fill="#FFB100"/>
</svg>
