<svg width="20" height="20" viewBox="0 0 20 20" fill="none" xmlns="http://www.w3.org/2000/svg">
<g clip-path="url(#clip0)">
<path d="M15.6962 0L3.05054 3.4682H16.9768L15.6962 0Z" fill="#FFB100"/>
<path d="M15.6962 0L3.05054 3.4682H16.9768L15.6962 0Z" fill="#FFB100"/>
<path d="M14.414 9.44434C13.7099 9.44434 13.0813 10.1173 13.0813 10.8217V13.8096C13.0813 14.5137 13.7099 14.9935 14.414 14.9935H19.6976V9.44434H14.414ZM15.4813 13.2771C14.9508 13.2771 14.5208 12.8471 14.5208 12.3166C14.5208 11.7861 14.9508 11.3562 15.4813 11.3562C16.0118 11.3562 16.442 11.7861 16.442 12.3166C16.4418 12.8471 16.0118 13.2771 15.4813 13.2771Z" fill="#FFB100"/>
<path d="M14.414 9.44434C13.7099 9.44434 13.0813 10.1173 13.0813 10.8217V13.8096C13.0813 14.5137 13.7099 14.9935 14.414 14.9935H19.6976V9.44434H14.414ZM15.4813 13.2771C14.9508 13.2771 14.5208 12.8471 14.5208 12.3166C14.5208 11.7861 14.9508 11.3562 15.4813 11.3562C16.0118 11.3562 16.442 11.7861 16.442 12.3166C16.4418 12.8471 16.0118 13.2771 15.4813 13.2771Z" fill="#FFB100"/>
<path d="M17.7769 16.1669C17.7769 16.2848 17.6813 16.3803 17.5636 16.3803C17.4457 16.3803 17.3501 16.2848 17.3501 16.1669V15.7401H14.3883C13.2114 15.7401 12.2279 14.8804 12.2279 13.7037V10.7155C12.2279 9.53865 13.2114 8.48352 14.3883 8.48352H17.3501V8.27025C17.3501 8.15234 17.4457 8.05675 17.5636 8.05675C17.6813 8.05675 17.7769 8.15234 17.7769 8.27025V8.48352H18.8701V5.70002C18.8701 4.99571 18.2938 4.41943 17.5895 4.41943H1.58259C0.947917 4.41943 0.418799 4.8877 0.319812 5.49532H0.702623C0.820531 5.49532 0.915891 5.5909 0.915891 5.70881C0.915891 5.82672 0.820531 5.92231 0.702623 5.92231H0.302002V18.5145H0.489584C0.607492 18.5145 0.702852 18.6101 0.702852 18.728C0.702852 18.8459 0.607263 18.9415 0.489584 18.9415H0.322721C0.42893 19.5406 0.953995 19.9998 1.58259 19.9998H17.5895C18.2938 19.9998 18.8701 19.4236 18.8701 18.7192V15.7401H17.7769V16.1669ZM16.9233 5.49554H17.7769V6.34934C17.7769 6.46724 17.6813 6.56283 17.5636 6.56283C17.4457 6.56283 17.3501 6.46724 17.3501 6.34934V5.92254H16.9233C16.8054 5.92254 16.7098 5.82695 16.7098 5.70904C16.7098 5.59113 16.8054 5.49554 16.9233 5.49554ZM14.1488 5.49554H15.6427C15.7606 5.49554 15.8562 5.59113 15.8562 5.70904C15.8562 5.82695 15.7606 5.92254 15.6427 5.92254H14.1488C14.0309 5.92254 13.9353 5.82695 13.9353 5.70904C13.9351 5.59113 14.0307 5.49554 14.1488 5.49554ZM11.1609 5.49554H12.6547C12.7727 5.49554 12.8682 5.59113 12.8682 5.70904C12.8682 5.82695 12.7727 5.92254 12.6547 5.92254H11.1609C11.0427 5.92254 10.9474 5.82695 10.9474 5.70904C10.9471 5.59113 11.0427 5.49554 11.1609 5.49554ZM3.47756 18.9415H1.98344C1.86553 18.9415 1.77017 18.8459 1.77017 18.728C1.77017 18.6101 1.86553 18.5145 1.98344 18.5145H3.47752C3.59543 18.5145 3.69079 18.6101 3.69079 18.728C3.69079 18.8459 3.59547 18.9415 3.47756 18.9415ZM3.69083 5.92257H2.19694C2.07903 5.92257 1.98344 5.82698 1.98344 5.70907C1.98344 5.59117 2.07903 5.49558 2.19694 5.49558H3.69083C3.80896 5.49558 3.90409 5.59117 3.90409 5.70907C3.90409 5.82698 3.80873 5.92257 3.69083 5.92257ZM6.4653 18.9415H4.97122C4.85354 18.9415 4.75795 18.8459 4.75795 18.728C4.75795 18.6101 4.85354 18.5145 4.97122 18.5145H6.4653C6.58321 18.5145 6.67857 18.6101 6.67857 18.728C6.6788 18.8459 6.58344 18.9415 6.4653 18.9415ZM6.6788 5.92257H5.18491C5.067 5.92257 4.97141 5.82698 4.97141 5.70907C4.97141 5.59117 5.067 5.49558 5.18491 5.49558H6.6788C6.79671 5.49558 6.8923 5.59117 6.8923 5.70907C6.8923 5.82698 6.79671 5.92257 6.6788 5.92257ZM9.45324 18.9415H7.95916C7.84148 18.9415 7.74589 18.8459 7.74589 18.728C7.74589 18.6101 7.84148 18.5145 7.95916 18.5145H9.45324C9.57115 18.5145 9.66651 18.6101 9.66651 18.728C9.66677 18.8459 9.57141 18.9415 9.45324 18.9415ZM9.66677 5.92257H8.17288C8.05498 5.92257 7.95939 5.82698 7.95939 5.70907C7.95939 5.59117 8.05498 5.49558 8.17288 5.49558H9.66677C9.78468 5.49558 9.88027 5.59117 9.88027 5.70907C9.88027 5.82698 9.78468 5.92257 9.66677 5.92257ZM12.4412 18.9415H10.9471C10.8295 18.9415 10.7339 18.8459 10.7339 18.728C10.7339 18.6101 10.8295 18.5145 10.9471 18.5145H12.4412C12.5591 18.5145 12.6545 18.6101 12.6545 18.728C12.6547 18.8459 12.5594 18.9415 12.4412 18.9415ZM15.4292 18.9415H13.9351C13.8174 18.9415 13.7218 18.8459 13.7218 18.728C13.7218 18.6101 13.8174 18.5145 13.9351 18.5145H15.4292C15.5471 18.5145 15.6425 18.6101 15.6425 18.728C15.6427 18.8459 15.5473 18.9415 15.4292 18.9415ZM17.7769 18.9415H16.9233C16.8054 18.9415 16.7098 18.8459 16.7098 18.728C16.7098 18.6101 16.8054 18.5145 16.9233 18.5145H17.3501V17.8742C17.3501 17.7563 17.4457 17.6607 17.5636 17.6607C17.6812 17.6607 17.7768 17.7563 17.7768 17.8742L17.7769 18.9415Z" fill="#FFB100"/>
<path d="M17.7769 16.1669C17.7769 16.2848 17.6813 16.3803 17.5636 16.3803C17.4457 16.3803 17.3501 16.2848 17.3501 16.1669V15.7401H14.3883C13.2114 15.7401 12.2279 14.8804 12.2279 13.7037V10.7155C12.2279 9.53865 13.2114 8.48352 14.3883 8.48352H17.3501V8.27025C17.3501 8.15234 17.4457 8.05675 17.5636 8.05675C17.6813 8.05675 17.7769 8.15234 17.7769 8.27025V8.48352H18.8701V5.70002C18.8701 4.99571 18.2938 4.41943 17.5895 4.41943H1.58259C0.947917 4.41943 0.418799 4.8877 0.319812 5.49532H0.702623C0.820531 5.49532 0.915891 5.5909 0.915891 5.70881C0.915891 5.82672 0.820531 5.92231 0.702623 5.92231H0.302002V18.5145H0.489584C0.607492 18.5145 0.702852 18.6101 0.702852 18.728C0.702852 18.8459 0.607263 18.9415 0.489584 18.9415H0.322721C0.42893 19.5406 0.953995 19.9998 1.58259 19.9998H17.5895C18.2938 19.9998 18.8701 19.4236 18.8701 18.7192V15.7401H17.7769V16.1669ZM16.9233 5.49554H17.7769V6.34934C17.7769 6.46724 17.6813 6.56283 17.5636 6.56283C17.4457 6.56283 17.3501 6.46724 17.3501 6.34934V5.92254H16.9233C16.8054 5.92254 16.7098 5.82695 16.7098 5.70904C16.7098 5.59113 16.8054 5.49554 16.9233 5.49554ZM14.1488 5.49554H15.6427C15.7606 5.49554 15.8562 5.59113 15.8562 5.70904C15.8562 5.82695 15.7606 5.92254 15.6427 5.92254H14.1488C14.0309 5.92254 13.9353 5.82695 13.9353 5.70904C13.9351 5.59113 14.0307 5.49554 14.1488 5.49554ZM11.1609 5.49554H12.6547C12.7727 5.49554 12.8682 5.59113 12.8682 5.70904C12.8682 5.82695 12.7727 5.92254 12.6547 5.92254H11.1609C11.0427 5.92254 10.9474 5.82695 10.9474 5.70904C10.9471 5.59113 11.0427 5.49554 11.1609 5.49554ZM3.47756 18.9415H1.98344C1.86553 18.9415 1.77017 18.8459 1.77017 18.728C1.77017 18.6101 1.86553 18.5145 1.98344 18.5145H3.47752C3.59543 18.5145 3.69079 18.6101 3.69079 18.728C3.69079 18.8459 3.59547 18.9415 3.47756 18.9415ZM3.69083 5.92257H2.19694C2.07903 5.92257 1.98344 5.82698 1.98344 5.70907C1.98344 5.59117 2.07903 5.49558 2.19694 5.49558H3.69083C3.80896 5.49558 3.90409 5.59117 3.90409 5.70907C3.90409 5.82698 3.80873 5.92257 3.69083 5.92257ZM6.4653 18.9415H4.97122C4.85354 18.9415 4.75795 18.8459 4.75795 18.728C4.75795 18.6101 4.85354 18.5145 4.97122 18.5145H6.4653C6.58321 18.5145 6.67857 18.6101 6.67857 18.728C6.6788 18.8459 6.58344 18.9415 6.4653 18.9415ZM6.6788 5.92257H5.18491C5.067 5.92257 4.97141 5.82698 4.97141 5.70907C4.97141 5.59117 5.067 5.49558 5.18491 5.49558H6.6788C6.79671 5.49558 6.8923 5.59117 6.8923 5.70907C6.8923 5.82698 6.79671 5.92257 6.6788 5.92257ZM9.45324 18.9415H7.95916C7.84148 18.9415 7.74589 18.8459 7.74589 18.728C7.74589 18.6101 7.84148 18.5145 7.95916 18.5145H9.45324C9.57115 18.5145 9.66651 18.6101 9.66651 18.728C9.66677 18.8459 9.57141 18.9415 9.45324 18.9415ZM9.66677 5.92257H8.17288C8.05498 5.92257 7.95939 5.82698 7.95939 5.70907C7.95939 5.59117 8.05498 5.49558 8.17288 5.49558H9.66677C9.78468 5.49558 9.88027 5.59117 9.88027 5.70907C9.88027 5.82698 9.78468 5.92257 9.66677 5.92257ZM12.4412 18.9415H10.9471C10.8295 18.9415 10.7339 18.8459 10.7339 18.728C10.7339 18.6101 10.8295 18.5145 10.9471 18.5145H12.4412C12.5591 18.5145 12.6545 18.6101 12.6545 18.728C12.6547 18.8459 12.5594 18.9415 12.4412 18.9415ZM15.4292 18.9415H13.9351C13.8174 18.9415 13.7218 18.8459 13.7218 18.728C13.7218 18.6101 13.8174 18.5145 13.9351 18.5145H15.4292C15.5471 18.5145 15.6425 18.6101 15.6425 18.728C15.6427 18.8459 15.5473 18.9415 15.4292 18.9415ZM17.7769 18.9415H16.9233C16.8054 18.9415 16.7098 18.8459 16.7098 18.728C16.7098 18.6101 16.8054 18.5145 16.9233 18.5145H17.3501V17.8742C17.3501 17.7563 17.4457 17.6607 17.5636 17.6607C17.6812 17.6607 17.7768 17.7563 17.7768 17.8742L17.7769 18.9415Z" fill="#FFB100"/>
</g>
<defs>
<clipPath id="clip0">
<rect width="20" height="20" fill="white"/>
</clipPath>
</defs>
</svg>
