<svg width="18" height="21" viewBox="0 0 18 21" fill="none" xmlns="http://www.w3.org/2000/svg">
<path fill-rule="evenodd" clip-rule="evenodd" d="M16.7143 6.03361H1.28571V17.6169C1.28571 17.9582 1.42117 18.2856 1.66229 18.5269C1.90341 18.7683 2.23044 18.9039 2.57143 18.9039H15.4286C15.7696 18.9039 16.0966 18.7683 16.3377 18.5269C16.5788 18.2856 16.7143 17.9582 16.7143 17.6169V6.03361ZM0 4.74658V17.6169C0 18.2995 0.270918 18.9543 0.753154 19.437C1.23539 19.9197 1.88944 20.1909 2.57143 20.1909H15.4286C16.1106 20.1909 16.7646 19.9197 17.2468 19.437C17.7291 18.9543 18 18.2995 18 17.6169V4.74658H0Z" fill="#525252"/>
<path d="M9 1.52877C8.14752 1.52877 7.32995 1.86778 6.72716 2.47121C6.12436 3.07465 5.78571 3.89308 5.78571 4.74646H4.5C4.5 3.55172 4.97411 2.40592 5.81802 1.56111C6.66193 0.716307 7.80653 0.241699 9 0.241699C10.1935 0.241699 11.3381 0.716307 12.182 1.56111C13.0259 2.40592 13.5 3.55172 13.5 4.74646H12.2143C12.2143 3.89308 11.8756 3.07465 11.2728 2.47121C10.67 1.86778 9.85248 1.52877 9 1.52877Z" fill="#525252"/>
<path fill-rule="evenodd" clip-rule="evenodd" d="M12.6692 9.43905C12.729 9.49883 12.7765 9.56984 12.8089 9.64802C12.8414 9.72619 12.858 9.81 12.858 9.89465C12.858 9.97929 12.8414 10.0631 12.8089 10.1413C12.7765 10.2195 12.729 10.2905 12.6692 10.3502L8.81204 14.2112C8.75233 14.2711 8.68139 14.3187 8.60328 14.3511C8.52518 14.3836 8.44146 14.4003 8.3569 14.4003C8.27234 14.4003 8.18861 14.3836 8.11051 14.3511C8.03241 14.3187 7.96147 14.2711 7.90176 14.2112L5.97319 12.2807C5.85248 12.1599 5.78467 11.996 5.78467 11.8251C5.78467 11.6543 5.85248 11.4904 5.97319 11.3695C6.0939 11.2487 6.25762 11.1808 6.42834 11.1808C6.59905 11.1808 6.76277 11.2487 6.88348 11.3695L8.3569 12.8457L11.7589 9.43905C11.8186 9.37912 11.8895 9.33158 11.9676 9.29914C12.0457 9.2667 12.1295 9.25 12.214 9.25C12.2986 9.25 12.3823 9.2667 12.4604 9.29914C12.5385 9.33158 12.6095 9.37912 12.6692 9.43905Z" fill="#525252"/>
</svg>
