<svg width="30" height="30" viewBox="0 0 30 30" fill="none" xmlns="http://www.w3.org/2000/svg">
<circle cx="15" cy="15" r="15" fill="#E5E5E5"/>
<path d="M14.576 10.5149L15 11.1936L15.424 10.5149C16.1928 9.28456 17.547 8.5 19.0909 8.5C21.5062 8.5 23.5 10.5175 23.5 13C23.5 14.1023 23.0015 15.2499 22.188 16.3797C21.378 17.5047 20.2875 18.5679 19.1799 19.4909C18.0747 20.4119 16.967 21.1813 16.1343 21.721C15.7184 21.9906 15.3723 22.2021 15.131 22.3457C15.0835 22.374 15.0401 22.3997 15.001 22.4226C14.9617 22.3994 14.9181 22.3735 14.8704 22.3448C14.629 22.2001 14.2828 21.9871 13.8668 21.7159C13.034 21.1729 11.9261 20.3995 10.8206 19.4757C9.71277 18.5499 8.62195 17.4852 7.81179 16.3618C6.99783 15.2332 6.5 14.0911 6.5 13C6.5 10.5175 8.49384 8.5 10.9091 8.5C12.453 8.5 13.8072 9.28456 14.576 10.5149Z" stroke="#C4C4C4"/>
</svg>
