<svg width="30" height="30" viewBox="0 0 30 30" fill="none" xmlns="http://www.w3.org/2000/svg">
<circle cx="15" cy="15" r="15" fill="#E5E5E5"/>
<path fill-rule="evenodd" clip-rule="evenodd" d="M19.1375 5.08555C19.262 5.15647 19.3584 5.26677 19.4109 5.39845C19.4634 5.53013 19.4688 5.67539 19.4264 5.81051L17.1343 13.1251H21.3634C21.4877 13.125 21.6093 13.1607 21.7131 13.2278C21.817 13.2948 21.8986 13.3902 21.9479 13.5023C21.9971 13.6144 22.0119 13.7381 21.9904 13.8584C21.9688 13.9786 21.9119 14.09 21.8267 14.1788L11.6452 24.8032C11.5467 24.9061 11.4156 24.9731 11.2733 24.9935C11.131 25.0138 10.9859 24.9862 10.8616 24.9152C10.7373 24.8442 10.6412 24.7339 10.5889 24.6023C10.5366 24.4707 10.5312 24.3257 10.5736 24.1907L12.8657 16.8749H8.63659C8.51231 16.8749 8.39073 16.8392 8.28687 16.7722C8.18301 16.7052 8.1014 16.6097 8.05213 16.4977C8.00287 16.3856 7.98809 16.2618 8.00963 16.1416C8.03117 16.0214 8.08808 15.91 8.17334 15.8212L18.3548 5.19679C18.4532 5.09405 18.5841 5.02701 18.7262 5.00659C18.8683 4.98616 19.0132 5.01355 19.1375 5.0843V5.08555ZM10.1091 15.6249H13.7273C13.8269 15.6249 13.9251 15.6479 14.014 15.6919C14.1029 15.736 14.1801 15.7999 14.2393 15.8785C14.2984 15.9572 14.338 16.0484 14.3547 16.1448C14.3715 16.2412 14.3649 16.3402 14.3357 16.4337L12.5946 21.9871L19.8896 14.375H16.2727C16.1731 14.375 16.0749 14.3521 15.986 14.3081C15.8971 14.264 15.8199 14.2001 15.7607 14.1214C15.7016 14.0428 15.662 13.9515 15.6453 13.8551C15.6285 13.7587 15.6351 13.6598 15.6643 13.5663L17.4054 8.01288L10.1091 15.6249Z" fill="#C4C4C4"/>
</svg>
