<svg width="159" height="25" viewBox="0 0 159 25" fill="none" xmlns="http://www.w3.org/2000/svg">
<path d="M45.1104 19.4404H43.8047V17H36.6611V19.4473H35.3486L35.3418 15.9268H36.1553C36.5837 15.4437 36.9232 14.7965 37.1738 13.9854C37.429 13.1696 37.5885 12.2764 37.6523 11.3057L37.8711 7.04688H43.8252V15.9268H45.124L45.1104 19.4404ZM37.6523 15.9268H42.5059V8.12695H39.1357L38.9922 11.0527C38.9329 12.1966 38.7803 13.1719 38.5342 13.9785C38.2926 14.7852 37.9987 15.4346 37.6523 15.9268ZM46.1494 13.2334C46.1494 12.5088 46.2907 11.8571 46.5732 11.2783C46.8604 10.6995 47.2568 10.2529 47.7627 9.93848C48.2731 9.62402 48.8542 9.4668 49.5059 9.4668C50.513 9.4668 51.3265 9.81543 51.9463 10.5127C52.5706 11.21 52.8828 12.1374 52.8828 13.2949V13.3838C52.8828 14.1038 52.7438 14.751 52.4658 15.3252C52.1924 15.8949 51.7982 16.3392 51.2832 16.6582C50.7728 16.9772 50.1849 17.1367 49.5195 17.1367C48.5169 17.1367 47.7035 16.7881 47.0791 16.0908C46.4593 15.3936 46.1494 14.4707 46.1494 13.3223V13.2334ZM47.4209 13.3838C47.4209 14.2041 47.61 14.8626 47.9883 15.3594C48.3711 15.8561 48.8815 16.1045 49.5195 16.1045C50.1621 16.1045 50.6725 15.8538 51.0508 15.3525C51.429 14.8467 51.6182 14.1403 51.6182 13.2334C51.6182 12.4222 51.4245 11.766 51.0371 11.2646C50.6543 10.7588 50.1439 10.5059 49.5059 10.5059C48.8815 10.5059 48.3779 10.7542 47.9951 11.251C47.6123 11.7477 47.4209 12.4587 47.4209 13.3838ZM57.4355 16.1045C57.8867 16.1045 58.2809 15.9678 58.6182 15.6943C58.9554 15.4209 59.1423 15.0791 59.1787 14.6689H60.375C60.3522 15.0928 60.2064 15.4961 59.9375 15.8789C59.6686 16.2617 59.3086 16.5671 58.8574 16.7949C58.4108 17.0228 57.9368 17.1367 57.4355 17.1367C56.4284 17.1367 55.6263 16.8018 55.0293 16.1318C54.4368 15.4574 54.1406 14.5368 54.1406 13.3701V13.1582C54.1406 12.4382 54.2728 11.7979 54.5371 11.2373C54.8014 10.6768 55.1797 10.2415 55.6719 9.93164C56.1686 9.62174 56.7542 9.4668 57.4287 9.4668C58.2581 9.4668 58.9463 9.71517 59.4932 10.2119C60.0446 10.7087 60.3385 11.3535 60.375 12.1465H59.1787C59.1423 11.668 58.96 11.276 58.6318 10.9707C58.3083 10.6608 57.9072 10.5059 57.4287 10.5059C56.7861 10.5059 56.2871 10.7383 55.9316 11.2031C55.5807 11.6634 55.4053 12.3311 55.4053 13.2061V13.4453C55.4053 14.2975 55.5807 14.9538 55.9316 15.4141C56.2826 15.8743 56.7839 16.1045 57.4355 16.1045ZM67.293 10.6289H64.8115V17H63.5469V10.6289H61.1133V9.60352H67.293V10.6289ZM72.9805 17C72.9076 16.8542 72.8483 16.5944 72.8027 16.2207C72.2148 16.8314 71.513 17.1367 70.6973 17.1367C69.9681 17.1367 69.3688 16.9316 68.8994 16.5215C68.4346 16.1068 68.2021 15.5827 68.2021 14.9492C68.2021 14.179 68.4938 13.582 69.0771 13.1582C69.665 12.7298 70.4899 12.5156 71.5518 12.5156H72.7822V11.9346C72.7822 11.4925 72.6501 11.1416 72.3857 10.8818C72.1214 10.6175 71.7318 10.4854 71.2168 10.4854C70.7656 10.4854 70.3874 10.5993 70.082 10.8271C69.7767 11.055 69.624 11.3307 69.624 11.6543H68.3525C68.3525 11.2852 68.4824 10.9297 68.7422 10.5879C69.0065 10.2415 69.362 9.9681 69.8086 9.76758C70.2598 9.56706 70.7542 9.4668 71.292 9.4668C72.1442 9.4668 72.8118 9.68099 73.2949 10.1094C73.778 10.5332 74.0286 11.1188 74.0469 11.8662V15.2705C74.0469 15.9495 74.1335 16.4896 74.3066 16.8906V17H72.9805ZM70.8818 16.0361C71.2783 16.0361 71.6543 15.9336 72.0098 15.7285C72.3652 15.5234 72.6227 15.2568 72.7822 14.9287V13.4111H71.791C70.2415 13.4111 69.4668 13.8646 69.4668 14.7715C69.4668 15.168 69.599 15.4779 69.8633 15.7012C70.1276 15.9245 70.4671 16.0361 70.8818 16.0361ZM76.1455 17V9.60352H79.0303C80.0146 9.60352 80.7689 9.77669 81.293 10.123C81.8216 10.4648 82.0859 10.9684 82.0859 11.6338C82.0859 11.9756 81.9834 12.2855 81.7783 12.5635C81.5732 12.8369 81.2702 13.0465 80.8691 13.1924C81.3158 13.2972 81.6735 13.5023 81.9424 13.8076C82.2158 14.113 82.3525 14.4775 82.3525 14.9014C82.3525 15.5804 82.1019 16.0999 81.6006 16.46C81.1038 16.82 80.3997 17 79.4883 17H76.1455ZM77.4102 13.7529V15.9814H79.502C80.0306 15.9814 80.4248 15.8835 80.6846 15.6875C80.9489 15.4915 81.0811 15.2158 81.0811 14.8604C81.0811 14.1221 80.5387 13.7529 79.4541 13.7529H77.4102ZM77.4102 12.7412H79.0439C80.2288 12.7412 80.8213 12.3949 80.8213 11.7021C80.8213 11.0094 80.2607 10.6517 79.1396 10.6289H77.4102V12.7412ZM88.8125 9.60352H90.0771V17H88.8125V11.6064L85.4014 17H84.1367V9.60352H85.4014V15.0039L88.8125 9.60352ZM96.3662 15.3252L98.8818 9.60352H100.461V17H99.1963V11.6201L96.8037 17H95.9287L93.4883 11.5039V17H92.2236V9.60352H93.8643L96.3662 15.3252ZM110.038 11.627C110.038 11.2806 109.906 11.0072 109.642 10.8066C109.377 10.6016 109.015 10.499 108.555 10.499C108.108 10.499 107.734 10.6152 107.434 10.8477C107.137 11.0801 106.989 11.3535 106.989 11.668H105.731C105.731 11.0254 106 10.499 106.538 10.0889C107.076 9.67871 107.748 9.47363 108.555 9.47363C109.421 9.47363 110.095 9.66048 110.578 10.0342C111.061 10.4033 111.303 10.932 111.303 11.6201C111.303 11.9528 111.202 12.2581 111.002 12.5361C110.801 12.8141 110.517 13.0352 110.147 13.1992C111.009 13.4909 111.439 14.0651 111.439 14.9219C111.439 15.6009 111.177 16.1387 110.653 16.5352C110.129 16.9316 109.43 17.1299 108.555 17.1299C107.702 17.1299 106.998 16.9225 106.442 16.5078C105.891 16.0885 105.615 15.5234 105.615 14.8125H106.873C106.873 15.1725 107.033 15.4824 107.352 15.7422C107.675 15.9974 108.076 16.125 108.555 16.125C109.038 16.125 109.427 16.0133 109.724 15.79C110.02 15.5667 110.168 15.2773 110.168 14.9219C110.168 14.5072 110.043 14.2109 109.792 14.0332C109.546 13.8509 109.161 13.7598 108.637 13.7598H107.372V12.6934H108.746C109.607 12.6706 110.038 12.3151 110.038 11.627ZM117.646 17C117.574 16.8542 117.514 16.5944 117.469 16.2207C116.881 16.8314 116.179 17.1367 115.363 17.1367C114.634 17.1367 114.035 16.9316 113.565 16.5215C113.101 16.1068 112.868 15.5827 112.868 14.9492C112.868 14.179 113.16 13.582 113.743 13.1582C114.331 12.7298 115.156 12.5156 116.218 12.5156H117.448V11.9346C117.448 11.4925 117.316 11.1416 117.052 10.8818C116.787 10.6175 116.398 10.4854 115.883 10.4854C115.432 10.4854 115.053 10.5993 114.748 10.8271C114.443 11.055 114.29 11.3307 114.29 11.6543H113.019C113.019 11.2852 113.148 10.9297 113.408 10.5879C113.673 10.2415 114.028 9.9681 114.475 9.76758C114.926 9.56706 115.42 9.4668 115.958 9.4668C116.81 9.4668 117.478 9.68099 117.961 10.1094C118.444 10.5332 118.695 11.1188 118.713 11.8662V15.2705C118.713 15.9495 118.799 16.4896 118.973 16.8906V17H117.646ZM115.548 16.0361C115.944 16.0361 116.32 15.9336 116.676 15.7285C117.031 15.5234 117.289 15.2568 117.448 14.9287V13.4111H116.457C114.908 13.4111 114.133 13.8646 114.133 14.7715C114.133 15.168 114.265 15.4779 114.529 15.7012C114.794 15.9245 115.133 16.0361 115.548 16.0361ZM130.56 17H124.038V16.0908L127.483 12.2627C127.994 11.6839 128.345 11.2145 128.536 10.8545C128.732 10.4899 128.83 10.1139 128.83 9.72656C128.83 9.20703 128.673 8.78092 128.358 8.44824C128.044 8.11556 127.625 7.94922 127.101 7.94922C126.472 7.94922 125.982 8.12923 125.631 8.48926C125.285 8.84473 125.111 9.34147 125.111 9.97949H123.847C123.847 9.06348 124.141 8.32292 124.729 7.75781C125.321 7.19271 126.112 6.91016 127.101 6.91016C128.026 6.91016 128.757 7.15397 129.295 7.6416C129.833 8.12467 130.102 8.76953 130.102 9.57617C130.102 10.556 129.477 11.7227 128.229 13.0762L125.562 15.9678H130.56V17ZM135.44 15.9678L135.878 15.4277C136.37 14.7897 136.65 13.8327 136.719 12.5566L136.835 9.60352H141.6V15.9678H142.55V19.1738H141.285V17H136.124V19.1738H134.859L134.866 15.9678H135.44ZM136.938 15.9678H140.335V10.7725H138.059L137.983 12.5361C137.906 14.0081 137.557 15.152 136.938 15.9678ZM149.994 17H148.729V13.8418H145.332V17H144.061V9.60352H145.332V12.8096H148.729V9.60352H149.994V17ZM157.685 9.60352V17H156.413V14.1221H154.506L152.763 17H151.396L153.255 13.9307C152.781 13.7575 152.416 13.4909 152.161 13.1309C151.91 12.7663 151.785 12.3424 151.785 11.8594C151.785 11.1849 152.038 10.6426 152.544 10.2324C153.05 9.81771 153.727 9.60807 154.574 9.60352H157.685ZM153.057 11.873C153.057 12.2331 153.18 12.5247 153.426 12.748C153.672 12.9668 153.998 13.0785 154.403 13.083H156.413V10.6289H154.595C154.125 10.6289 153.752 10.7451 153.474 10.9775C153.196 11.2054 153.057 11.5039 153.057 11.873Z" fill="black"/>
<g clip-path="url(#clip0)">
<path d="M20.625 16.1665C19.4533 16.1665 18.5 17.12 18.5 18.2915C18.5 19.4633 19.4533 20.4165 20.625 20.4165C21.7965 20.4165 22.75 19.4633 22.75 18.2915C22.75 17.12 21.7965 16.1665 20.625 16.1665ZM20.625 18.9165C20.2803 18.9165 20 18.6362 20 18.2915C20 17.9468 20.2803 17.6665 20.625 17.6665C20.9697 17.6665 21.25 17.9468 21.25 18.2915C21.25 18.6362 20.9697 18.9165 20.625 18.9165Z" fill="#FFB100"/>
<path d="M20.4217 7.3335H16.7502C16.474 7.3335 16.2502 7.55752 16.2502 7.8335V17.5835C16.2502 17.8595 16.474 18.0835 16.7502 18.0835H17.2805C17.528 18.0835 17.7473 17.9052 17.7792 17.6598C17.9755 16.1562 19.1748 15.2238 20.6255 15.2238C22.0762 15.2238 23.2755 16.1563 23.4717 17.6598C23.5037 17.9053 23.7227 18.0835 23.9705 18.0835H24.5002C24.7762 18.0835 25.0002 17.8595 25.0002 17.5835V12.7085C25.0002 12.591 24.9589 12.4775 24.8837 12.3877L20.8052 7.51274C20.7103 7.39926 20.5697 7.3335 20.4217 7.3335ZM17.2502 11.3335V8.8335C17.2502 8.55752 17.474 8.3335 17.7502 8.3335H19.9527C20.101 8.3335 20.2417 8.39951 20.3367 8.51348L22.42 11.0135C22.6912 11.3392 22.4597 11.8335 22.0357 11.8335H17.7502C17.474 11.8335 17.2502 11.6098 17.2502 11.3335Z" fill="#FFB100"/>
<path d="M0.5 18.0835H1.78027C2.02778 18.0835 2.24702 17.9052 2.279 17.6598C2.47524 16.1563 3.67451 15.2238 5.12525 15.2238C6.57598 15.2238 7.77524 16.1563 7.97149 17.6598C8.00347 17.9053 8.22247 18.0835 8.47022 18.0835H14.75C15.026 18.0835 15.25 17.8595 15.25 17.5835V5.0835C15.25 4.80752 15.026 4.5835 14.75 4.5835H0.5C0.223734 4.5835 0 4.80752 0 5.0835V17.5835C0 17.8595 0.223734 18.0835 0.5 18.0835Z" fill="#FFB100"/>
<path d="M5.125 16.1665C3.95327 16.1665 3 17.12 3 18.2915C3 19.4633 3.95327 20.4165 5.125 20.4165C6.29649 20.4165 7.25 19.4633 7.25 18.2915C7.25 17.12 6.29649 16.1665 5.125 16.1665ZM5.125 18.9165C4.78027 18.9165 4.5 18.6362 4.5 18.2915C4.5 17.9468 4.78027 17.6665 5.125 17.6665C5.46973 17.6665 5.75 17.9468 5.75 18.2915C5.75 18.6362 5.46973 18.9165 5.125 18.9165Z" fill="#FFB100"/>
</g>
<defs>
<clipPath id="clip0">
<rect width="25" height="25" fill="white"/>
</clipPath>
</defs>
</svg>
