<svg width="25" height="25" viewBox="0 0 25 25" fill="none" xmlns="http://www.w3.org/2000/svg">
<g clip-path="url(#clip0)">
<path d="M20.625 16.1665C19.4533 16.1665 18.5 17.12 18.5 18.2915C18.5 19.4633 19.4533 20.4165 20.625 20.4165C21.7965 20.4165 22.75 19.4633 22.75 18.2915C22.75 17.12 21.7965 16.1665 20.625 16.1665ZM20.625 18.9165C20.2803 18.9165 20 18.6362 20 18.2915C20 17.9468 20.2803 17.6665 20.625 17.6665C20.9697 17.6665 21.25 17.9468 21.25 18.2915C21.25 18.6362 20.9697 18.9165 20.625 18.9165Z" fill="#FFB100"/>
<path d="M20.4217 7.3335H16.7502C16.474 7.3335 16.2502 7.55752 16.2502 7.8335V17.5835C16.2502 17.8595 16.474 18.0835 16.7502 18.0835H17.2805C17.528 18.0835 17.7473 17.9052 17.7792 17.6598C17.9755 16.1562 19.1748 15.2238 20.6255 15.2238C22.0762 15.2238 23.2755 16.1563 23.4717 17.6598C23.5037 17.9053 23.7227 18.0835 23.9705 18.0835H24.5002C24.7762 18.0835 25.0002 17.8595 25.0002 17.5835V12.7085C25.0002 12.591 24.9589 12.4775 24.8837 12.3877L20.8052 7.51274C20.7103 7.39926 20.5697 7.3335 20.4217 7.3335ZM17.2502 11.3335V8.8335C17.2502 8.55752 17.474 8.3335 17.7502 8.3335H19.9527C20.101 8.3335 20.2417 8.39951 20.3367 8.51348L22.42 11.0135C22.6912 11.3392 22.4597 11.8335 22.0357 11.8335H17.7502C17.474 11.8335 17.2502 11.6098 17.2502 11.3335Z" fill="#FFB100"/>
<path d="M0.5 18.0835H1.78027C2.02778 18.0835 2.24702 17.9052 2.279 17.6598C2.47524 16.1563 3.67451 15.2238 5.12525 15.2238C6.57598 15.2238 7.77524 16.1563 7.97149 17.6598C8.00347 17.9053 8.22247 18.0835 8.47022 18.0835H14.75C15.026 18.0835 15.25 17.8595 15.25 17.5835V5.0835C15.25 4.80752 15.026 4.5835 14.75 4.5835H0.5C0.223734 4.5835 0 4.80752 0 5.0835V17.5835C0 17.8595 0.223734 18.0835 0.5 18.0835Z" fill="#FFB100"/>
<path d="M5.125 16.1665C3.95327 16.1665 3 17.12 3 18.2915C3 19.4633 3.95327 20.4165 5.125 20.4165C6.29649 20.4165 7.25 19.4633 7.25 18.2915C7.25 17.12 6.29649 16.1665 5.125 16.1665ZM5.125 18.9165C4.78027 18.9165 4.5 18.6362 4.5 18.2915C4.5 17.9468 4.78027 17.6665 5.125 17.6665C5.46973 17.6665 5.75 17.9468 5.75 18.2915C5.75 18.6362 5.46973 18.9165 5.125 18.9165Z" fill="#FFB100"/>
</g>
<defs>
<clipPath id="clip0">
<rect width="25" height="25" fill="white"/>
</clipPath>
</defs>
</svg>
