<svg width="18" height="14" viewBox="0 0 18 14" fill="none" xmlns="http://www.w3.org/2000/svg">
<path d="M17.45 6.63125L15.575 2.25625C15.5272 2.14328 15.4471 2.04689 15.3449 1.9791C15.2426 1.9113 15.1227 1.8751 15 1.875H13.125V0.625C13.125 0.45924 13.0592 0.300269 12.9419 0.183058C12.8247 0.0658481 12.6658 0 12.5 0H0.625C0.45924 0 0.300268 0.0658481 0.183058 0.183058C0.065848 0.300269 0 0.45924 0 0.625V11.25C0 11.4158 0.065848 11.5747 0.183058 11.6919C0.300268 11.8092 0.45924 11.875 0.625 11.875H1.9625C2.10643 12.4046 2.42063 12.8721 2.85662 13.2055C3.29262 13.5388 3.82619 13.7194 4.375 13.7194C4.92381 13.7194 5.45738 13.5388 5.89338 13.2055C6.32937 12.8721 6.64357 12.4046 6.7875 11.875H10.7125C10.8564 12.4046 11.1706 12.8721 11.6066 13.2055C12.0426 13.5388 12.5762 13.7194 13.125 13.7194C13.6738 13.7194 14.2074 13.5388 14.6434 13.2055C15.0794 12.8721 15.3936 12.4046 15.5375 11.875H16.875C17.0408 11.875 17.1997 11.8092 17.3169 11.6919C17.4342 11.5747 17.5 11.4158 17.5 11.25V6.875C17.4998 6.79122 17.4828 6.70833 17.45 6.63125ZM13.125 3.125H14.5875L15.925 6.25H13.125V3.125ZM4.375 12.5C4.12777 12.5 3.8861 12.4267 3.68054 12.2893C3.47498 12.152 3.31476 11.9568 3.22015 11.7284C3.12554 11.4999 3.10079 11.2486 3.14902 11.0061C3.19725 10.7637 3.3163 10.5409 3.49112 10.3661C3.66593 10.1913 3.88866 10.0722 4.13114 10.024C4.37361 9.97579 4.62495 10.0005 4.85335 10.0951C5.08176 10.1898 5.27699 10.35 5.41434 10.5555C5.55169 10.7611 5.625 11.0028 5.625 11.25C5.625 11.5815 5.4933 11.8995 5.25888 12.1339C5.02446 12.3683 4.70652 12.5 4.375 12.5ZM10.7125 10.625H6.7875C6.64357 10.0954 6.32937 9.62786 5.89338 9.29454C5.45738 8.96122 4.92381 8.78062 4.375 8.78062C3.82619 8.78062 3.29262 8.96122 2.85662 9.29454C2.42063 9.62786 2.10643 10.0954 1.9625 10.625H1.25V1.25H11.875V9.1C11.5904 9.26518 11.3412 9.48492 11.1417 9.74661C10.9422 10.0083 10.7964 10.3068 10.7125 10.625ZM13.125 12.5C12.8778 12.5 12.6361 12.4267 12.4305 12.2893C12.225 12.152 12.0648 11.9568 11.9701 11.7284C11.8755 11.4999 11.8508 11.2486 11.899 11.0061C11.9472 10.7637 12.0663 10.5409 12.2411 10.3661C12.4159 10.1913 12.6387 10.0722 12.8811 10.024C13.1236 9.97579 13.3749 10.0005 13.6034 10.0951C13.8318 10.1898 14.027 10.35 14.1643 10.5555C14.3017 10.7611 14.375 11.0028 14.375 11.25C14.375 11.5815 14.2433 11.8995 14.0089 12.1339C13.7745 12.3683 13.4565 12.5 13.125 12.5ZM16.25 10.625H15.5375C15.3993 10.0897 15.0875 9.61532 14.651 9.27606C14.2145 8.93679 13.6778 8.75179 13.125 8.75V7.5H16.25V10.625Z" fill="#FFB100"/>
</svg>
