<svg width="17" height="17" viewBox="0 0 17 17" fill="none" xmlns="http://www.w3.org/2000/svg">
<path d="M16.9761 9.46247C16.9761 9.46239 16.9761 9.46235 16.9761 9.46227L13.7664 1.40306C13.6983 1.23182 13.5042 1.14823 13.3329 1.21635C13.3328 1.21639 13.3327 1.21643 13.3326 1.21651L0.311356 6.40144C0.258253 6.42438 0.212201 6.461 0.17787 6.50756C0.0695795 6.56383 0.001168 6.67521 0 6.79722V15.4738C0 15.6581 0.149421 15.8075 0.333715 15.8075H14.3497C14.534 15.8075 14.6834 15.6581 14.6834 15.4738V10.7351L16.7898 9.89609C16.961 9.82781 17.0444 9.63367 16.9761 9.46247ZM14.016 15.1401H0.667429V7.13094H14.016V15.1401ZM5.56803 6.46518L11.1557 4.23863C11.6544 4.76282 12.3454 5.06074 13.0689 5.06358L13.6262 6.46518H5.56803ZM14.6834 10.0182V6.79722C14.6834 6.61293 14.534 6.46351 14.3497 6.46351H14.3444L13.6372 4.68748C13.6294 4.67267 13.6203 4.65857 13.6099 4.64543C13.5741 4.48471 13.4253 4.37504 13.2611 4.38847C12.588 4.44983 11.9294 4.16626 11.5115 3.63494C11.4075 3.50659 11.2247 3.47468 11.0833 3.56019C11.0675 3.56207 11.0517 3.56499 11.0363 3.56887L4.21448 6.2853C4.13193 6.31767 4.06589 6.38187 4.03127 6.46351H1.95957L13.2698 1.96003L16.2329 9.40019L14.6834 10.0182Z" fill="#FFB100"/>
<path d="M1.57226 12.8871C2.22016 13.0787 2.72716 13.585 2.91946 14.2327C2.96164 14.374 3.09166 14.4709 3.23916 14.4709C3.25647 14.4699 3.27366 14.4673 3.29055 14.4633C3.30553 14.4675 3.32084 14.4707 3.33627 14.4726H11.3454C11.3592 14.4708 11.3728 14.468 11.3861 14.4643C11.5529 14.5048 11.7209 14.4026 11.7615 14.2358C11.7616 14.2352 11.7618 14.2346 11.7619 14.234C11.9537 13.5857 12.4608 13.0786 13.1091 12.8868C13.2663 12.8388 13.364 12.6821 13.338 12.5197C13.3425 12.5035 13.3457 12.487 13.3477 12.4703V9.80062C13.3457 9.7839 13.3424 9.76738 13.3377 9.75123C13.3638 9.58884 13.2661 9.43208 13.1088 9.38415C12.4604 9.19239 11.9535 8.6851 11.7622 8.03661C11.7139 7.87831 11.5557 7.78036 11.3925 7.80768C11.377 7.80339 11.3613 7.80026 11.3454 7.79834H3.33627C3.31946 7.80034 3.30282 7.80368 3.28655 7.80835C3.12424 7.78249 2.96764 7.88014 2.91946 8.03728C2.72753 8.68548 2.2205 9.19239 1.57226 9.38415C1.41504 9.4322 1.31734 9.58888 1.34333 9.75123C1.33899 9.76746 1.33586 9.78394 1.33398 9.80062V12.4703C1.3359 12.486 1.33903 12.5015 1.34333 12.5167C1.31596 12.6801 1.41387 12.8385 1.57226 12.8871ZM2.00141 9.93611C2.67151 9.66697 3.20262 9.13586 3.47176 8.46577H11.2096C11.4789 9.13586 12.0101 9.66697 12.6803 9.93611V12.3348C12.0104 12.6043 11.4794 13.1353 11.2099 13.8052H3.47176C3.20233 13.1353 2.6713 12.6043 2.00141 12.3348V9.93611Z" fill="#FFB100"/>
<path d="M7.34213 13.1379C8.44798 13.1379 9.34442 12.2414 9.34442 11.1356C9.34442 10.0297 8.44798 9.1333 7.34213 9.1333C6.23628 9.1333 5.33984 10.0297 5.33984 11.1356C5.34093 12.241 6.23674 13.1368 7.34213 13.1379ZM7.34213 9.80073C8.07935 9.80073 8.67699 10.3984 8.67699 11.1356C8.67699 11.8728 8.07935 12.4704 7.34213 12.4704C6.60491 12.4704 6.00727 11.8728 6.00727 11.1356C6.00727 10.3984 6.60491 9.80073 7.34213 9.80073Z" fill="#FFB100"/>
<path d="M3.67049 11.6362C3.94693 11.6362 4.17107 11.412 4.17107 11.1356C4.17107 10.8591 3.94693 10.635 3.67049 10.635C3.39405 10.635 3.16992 10.8591 3.16992 11.1356C3.16992 11.4121 3.39405 11.6362 3.67049 11.6362ZM3.67049 10.9687C3.76264 10.9687 3.83735 11.0434 3.83735 11.1356C3.83735 11.2277 3.76264 11.3024 3.67049 11.3024C3.57835 11.3024 3.50364 11.2277 3.50364 11.1356C3.50364 11.0434 3.57835 10.9687 3.67049 10.9687Z" fill="#FFB100"/>
<path d="M11.0123 11.6362C11.2887 11.6362 11.5129 11.412 11.5129 11.1356C11.5129 10.8591 11.2887 10.635 11.0123 10.635C10.7358 10.635 10.5117 10.8591 10.5117 11.1356C10.5117 11.4121 10.7358 11.6362 11.0123 11.6362ZM11.0123 10.9687C11.1044 10.9687 11.1791 11.0434 11.1791 11.1356C11.1791 11.2277 11.1044 11.3024 11.0123 11.3024C10.9201 11.3024 10.8454 11.2277 10.8454 11.1356C10.8454 11.0434 10.9201 10.9687 11.0123 10.9687Z" fill="#FFB100"/>
</svg>
