<svg width="10" height="14" viewBox="0 0 10 14" fill="none" xmlns="http://www.w3.org/2000/svg">
<path fill-rule="evenodd" clip-rule="evenodd" d="M1.56721 2.19487C2.44818 1.33395 3.64049 0.85014 4.88372 0.849121C6.12765 0.849105 7.32098 1.33245 8.20281 2.19349C9.08464 3.05452 9.58322 4.22319 9.58955 5.44398C9.58955 7.26964 8.54801 8.79488 7.78606 9.91068L7.78146 9.91741L7.64176 10.125C6.87918 11.2095 6.06124 12.2554 5.19106 13.2588L4.88772 13.6074L4.58437 13.2588C3.71408 12.2555 2.89613 11.2095 2.13367 10.125L1.99397 9.92133C1.22763 8.80493 0.181885 7.27331 0.181885 5.44398C0.188211 4.22387 0.686247 3.05579 1.56721 2.19487ZM6.97121 9.67455L7.1149 9.46694C7.82138 8.44847 8.78729 7.03436 8.78729 5.42831C8.78729 4.92522 8.68632 4.42705 8.49015 3.96225C8.29397 3.49745 8.00644 3.07512 7.64396 2.71938C7.28148 2.36364 6.85116 2.08145 6.37755 1.88892C5.90395 1.6964 5.39635 1.5973 4.88372 1.5973C4.3711 1.5973 3.8635 1.6964 3.38989 1.88892C2.91629 2.08145 2.48597 2.36364 2.12349 2.71938C1.76101 3.07512 1.47347 3.49745 1.2773 3.96225C1.08113 4.42705 0.98016 4.92522 0.98016 5.42831C0.98016 7.0131 1.94325 8.42285 2.64907 9.45601L2.65654 9.46694L2.79624 9.67455C3.48275 10.6852 4.41274 11.8172 4.88372 12.3774C5.37466 11.8172 6.2847 10.6852 6.97121 9.67455ZM3.61287 3.07655C3.98897 2.82994 4.43115 2.69832 4.88349 2.69832C5.49005 2.69832 6.07177 2.93477 6.50068 3.35565C6.92958 3.77654 7.17054 4.34738 7.17054 4.9426C7.17054 5.38648 7.03641 5.82039 6.7851 6.18946C6.5338 6.55853 6.17661 6.84618 5.75871 7.01605C5.3408 7.18591 4.88095 7.23036 4.43731 7.14376C3.99366 7.05716 3.58615 6.84342 3.2663 6.52955C2.94645 6.21568 2.72863 5.81579 2.64038 5.38044C2.55214 4.94509 2.59743 4.49384 2.77053 4.08375C2.94363 3.67366 3.23677 3.32315 3.61287 3.07655ZM4.05637 6.15733C4.3012 6.31786 4.58904 6.40354 4.88349 6.40354V6.39962C5.27765 6.39962 5.65572 6.24624 5.93481 5.97311C6.21389 5.69998 6.37121 5.32939 6.37227 4.9426C6.37227 4.65365 6.28495 4.3712 6.12136 4.13095C5.95777 3.8907 5.72526 3.70345 5.45322 3.59287C5.18118 3.4823 4.88184 3.45336 4.59304 3.50974C4.30425 3.56611 4.03897 3.70525 3.83076 3.90956C3.62255 4.11388 3.48076 4.37419 3.42332 4.65759C3.36587 4.94098 3.39535 5.23473 3.50804 5.50168C3.62072 5.76863 3.81154 5.9968 4.05637 6.15733Z" fill="#A5A5A5"/>
</svg>
