<svg width="13" height="10" viewBox="0 0 13 10" fill="none" xmlns="http://www.w3.org/2000/svg">
<path d="M12.0713 0H0.928565C0.682294 0 0.44611 0.0977503 0.27197 0.271747C0.0978307 0.445744 0 0.681734 0 0.927803V8.35023C0 8.5963 0.0978307 8.83228 0.27197 9.00628C0.44611 9.18028 0.682294 9.27803 0.928565 9.27803H12.0713C12.3176 9.27803 12.5538 9.18028 12.7279 9.00628C12.9021 8.83228 12.9999 8.5963 12.9999 8.35023V0.927803C12.9999 0.681734 12.9021 0.445744 12.7279 0.271747C12.5538 0.0977503 12.3176 0 12.0713 0ZM11.0499 0.927803L6.49996 4.07305L1.94999 0.927803H11.0499ZM0.928565 8.35023V1.34995L6.23532 5.01941C6.31304 5.07329 6.40537 5.10215 6.49996 5.10215C6.59455 5.10215 6.68688 5.07329 6.7646 5.01941L12.0713 1.34995V8.35023H0.928565Z" fill="#A5A5A5"/>
</svg>
