<svg width="13" height="13" viewBox="0 0 13 13" fill="none" xmlns="http://www.w3.org/2000/svg">
<path d="M12.4328 2.02016L10.7022 0.323672C10.491 0.116394 10.2082 0 9.90923 0C9.61023 0 9.32748 0.1148 9.11623 0.323672L7.25236 2.14931C7.04111 2.35659 6.92248 2.63562 6.92248 2.92899C6.92248 3.22397 7.03948 3.49981 7.25236 3.70868L8.70836 5.13889C8.37667 5.89719 7.90009 6.58617 7.30436 7.16862C6.70798 7.75697 6.01086 8.22095 5.23736 8.54941L3.78137 7.11919C3.57012 6.91192 3.28737 6.79552 2.98837 6.79552C2.84089 6.79499 2.69478 6.82334 2.55861 6.87892C2.42245 6.9345 2.29895 7.01618 2.19537 7.11919L0.329874 8.94483C0.118625 9.15211 0 9.43114 0 9.72452C0 10.0195 0.117 10.2953 0.329874 10.5042L2.05887 12.2007C2.41962 12.5547 2.91687 12.7571 3.42712 12.7571C3.53274 12.7571 3.63512 12.7492 3.73912 12.7316C5.89061 12.384 8.02586 11.26 9.74998 9.56986C11.4725 7.87656 12.6165 5.78146 12.974 3.66882C13.0763 3.06931 12.8716 2.45226 12.4328 2.02016ZM11.8218 3.47908C11.505 5.35893 10.4747 7.23399 8.92285 8.75669C7.37098 10.2794 5.46161 11.2903 3.54574 11.6012C3.30524 11.641 3.05824 11.5613 2.88274 11.3907L1.18462 9.72452L2.98512 7.95628L4.93186 9.86961L4.94649 9.88396L5.29749 9.75641C6.36174 9.37247 7.32819 8.76606 8.12984 7.97921C8.9315 7.19235 9.54919 6.24386 9.9401 5.19948L10.0701 4.85508L8.10711 2.93059L9.9076 1.16235L11.6057 2.82854C11.7812 3.00074 11.8625 3.2431 11.8218 3.47908Z" fill="#A5A5A5"/>
</svg>
