<svg width="13" height="13" viewBox="0 0 13 13" fill="none" xmlns="http://www.w3.org/2000/svg">
<path fill-rule="evenodd" clip-rule="evenodd" d="M11.1059 1.88945C10.5062 1.28874 9.79279 0.812423 9.00687 0.488093C8.22095 0.163763 7.37818 -0.00213143 6.52739 2.06733e-05C2.95978 2.06733e-05 0.0555185 2.88978 0.0540765 6.44189C0.0540765 7.57712 0.351857 8.68509 0.917857 9.66246L0 13L3.43133 12.1037C4.38048 12.6179 5.44384 12.8876 6.5245 12.8881H6.52739C10.0943 12.8881 12.9985 9.99829 13 6.44619C13.0024 5.59977 12.8363 4.76127 12.5112 3.97914C12.1861 3.19701 11.7084 2.48676 11.1059 1.88945ZM6.52739 11.8009H6.52522C5.56159 11.801 4.6157 11.543 3.78679 11.0539L3.59067 10.9376L1.55452 11.4694L2.09744 9.49382L1.96982 9.29146C1.43107 8.43783 1.14587 7.44995 1.14714 6.44189C1.14858 3.48969 3.56183 1.0879 6.52955 1.0879C7.23633 1.08633 7.9364 1.2243 8.58925 1.49381C9.2421 1.76331 9.83475 2.15901 10.3329 2.658C10.8338 3.15461 11.2307 3.74508 11.5009 4.3953C11.7711 5.04551 11.9091 5.74258 11.9069 6.44619C11.9055 9.39838 9.49222 11.8009 6.52739 11.8009ZM9.47852 7.79025C9.31629 7.70916 8.52172 7.32022 8.37319 7.2664C8.22538 7.21258 8.11795 7.18603 8.0098 7.34677C7.90165 7.50752 7.59161 7.8699 7.49716 7.97754C7.4027 8.08518 7.30825 8.0981 7.14674 8.01773C6.98523 7.93736 6.46394 7.76729 5.84602 7.21904C5.3651 6.79207 5.04064 6.26536 4.94619 6.1039C4.85174 5.94244 4.9361 5.85561 5.01757 5.77524C5.09039 5.70348 5.17908 5.58723 5.25983 5.49322C5.34059 5.39922 5.36727 5.33248 5.42134 5.22484C5.47542 5.1172 5.44874 5.0232 5.40764 4.94283C5.36727 4.86174 5.04353 4.06951 4.9087 3.74731C4.77819 3.43516 4.6448 3.47678 4.5453 3.47247C4.44225 3.46828 4.33912 3.46636 4.23599 3.46673C4.15398 3.46881 4.07328 3.48773 3.99896 3.52231C3.92464 3.55688 3.8583 3.60637 3.8041 3.66766C3.65557 3.82912 3.2381 4.21805 3.2381 5.01028C3.2381 5.80251 3.8178 6.56818 3.89855 6.67582C3.9793 6.78346 5.0392 8.40882 6.6615 9.10632C7.04796 9.27209 7.34935 9.37111 7.58368 9.44574C7.97087 9.56845 8.32344 9.55051 8.60248 9.50961C8.91324 9.46369 9.55927 9.12067 9.6941 8.74465C9.82893 8.36863 9.82893 8.04643 9.78855 7.97898C9.74818 7.91152 9.6393 7.87062 9.47852 7.79025Z" fill="#A5A5A5"/>
</svg>
