<svg width="18" height="15" viewBox="0 0 18 15" fill="none" xmlns="http://www.w3.org/2000/svg">
<path d="M8.57596 2.51494L9 3.19362L9.42404 2.51494C10.1928 1.28456 11.547 0.5 13.0909 0.5C15.5062 0.5 17.5 2.51745 17.5 5C17.5 6.10229 17.0015 7.2499 16.188 8.37972C15.378 9.50466 14.2875 10.5679 13.1799 11.4909C12.0747 12.4119 10.967 13.1813 10.1343 13.721C9.71844 13.9906 9.37234 14.2021 9.13098 14.3457C9.08348 14.374 9.04005 14.3997 9.00096 14.4226C8.96172 14.3994 8.9181 14.3735 8.87038 14.3448C8.62895 14.2001 8.28278 13.9871 7.86683 13.7159C7.03398 13.1729 5.92607 12.3995 4.82062 11.4757C3.71277 10.5499 2.62195 9.48518 1.81179 8.36182C0.997828 7.23321 0.5 6.09107 0.5 5C0.5 2.51745 2.49384 0.5 4.90909 0.5C6.45297 0.5 7.80723 1.28456 8.57596 2.51494Z" stroke="white"/>
</svg>
