<svg width="50" height="51" viewBox="0 0 50 51" fill="none" xmlns="http://www.w3.org/2000/svg">
<path d="M49.9995 25.2064C49.9995 11.4332 38.8082 0.270508 24.9998 0.270508C11.1913 0.270508 0 11.4332 0 25.2064C0 38.9796 11.1913 50.1423 24.9998 50.1423C25.1462 50.1423 25.2927 50.1423 25.4392 50.1326V30.7293H20.0682V24.4856H25.4392V19.8881C25.4392 14.56 28.7009 11.6573 33.4665 11.6573C35.7516 11.6573 37.7145 11.8228 38.2809 11.9008V17.4724H34.9997C32.4118 17.4724 31.904 18.6997 31.904 20.5017V24.4759H38.1051L37.2946 30.7196H31.904V49.178C42.3531 46.1877 49.9995 36.5932 49.9995 25.2064Z" fill="#C4C4C4"/>
</svg>
