<svg width="50" height="50" viewBox="0 0 50 50" fill="none" xmlns="http://www.w3.org/2000/svg">
<path d="M49.9995 25.1356C49.9995 11.4015 38.8082 0.270508 24.9998 0.270508C11.1913 0.270508 0 11.4015 0 25.1356C0 38.8697 11.1913 50.0008 24.9998 50.0008C25.1462 50.0008 25.2927 50.0008 25.4392 49.9911V30.6429H20.0682V24.4169H25.4392V19.8324C25.4392 14.5194 28.7009 11.6249 33.4665 11.6249C35.7516 11.6249 37.7145 11.7901 38.2809 11.8678V17.4236H34.9997C32.4118 17.4236 31.904 18.6474 31.904 20.4443V24.4072H38.1051L37.2946 30.6332H31.904V49.0392C42.3531 46.0573 49.9995 36.4901 49.9995 25.1356Z" fill="url(#paint0_linear)"/>
<defs>
<linearGradient id="paint0_linear" x1="4.29603e-07" y1="43.8759" x2="42.3926" y2="5.86398" gradientUnits="userSpaceOnUse">
<stop stop-color="#3B589E"/>
<stop offset="1" stop-color="#5A7BCC"/>
</linearGradient>
</defs>
</svg>
