<svg width="21" height="23" viewBox="0 0 21 23" fill="none" xmlns="http://www.w3.org/2000/svg">
<path d="M15.8257 10.0625C16.2386 10.1823 16.6317 10.3449 17.005 10.5502C17.3784 10.7556 17.7693 11.0679 18.1778 11.4872C18.5863 11.9064 18.9355 12.4006 19.2254 12.9696C19.5153 13.5386 19.7568 14.2745 19.9501 15.1772C20.1434 16.0799 20.24 17.0917 20.24 18.2126C20.24 19.5303 19.8008 20.6576 18.9223 21.5946C18.0438 22.5315 16.9853 23 15.7466 23H4.49339C3.25474 23 2.19618 22.5315 1.31771 21.5946C0.439236 20.6576 0 19.5303 0 18.2126C0 17.0917 0.0966319 16.0799 0.289896 15.1772C0.48316 14.2745 0.72474 13.5386 1.01464 12.9696C1.30453 12.4006 1.65372 11.9064 2.06221 11.4872C2.4707 11.0679 2.86162 10.7556 3.23497 10.5502C3.60832 10.3449 4.00144 10.1823 4.41432 10.0625C3.72033 8.99293 3.37333 7.82924 3.37333 6.57143C3.37333 5.68155 3.55122 4.83231 3.90701 4.02372C4.26279 3.21512 4.74375 2.51562 5.3499 1.92522C5.95604 1.33482 6.67419 0.86635 7.50435 0.51981C8.33451 0.17327 9.20639 0 10.12 0C11.0336 0 11.9055 0.17327 12.7357 0.51981C13.5658 0.86635 14.284 1.33482 14.8901 1.92522C15.4962 2.51562 15.9772 3.21512 16.333 4.02372C16.6888 4.83231 16.8667 5.68155 16.8667 6.57143C16.8667 7.82924 16.5197 8.99293 15.8257 10.0625ZM10.12 1.64286C8.72323 1.64286 7.5307 2.12416 6.54242 3.08677C5.55414 4.04939 5.06 5.21094 5.06 6.57143C5.06 7.93192 5.55414 9.09347 6.54242 10.0561C7.5307 11.0187 8.72323 11.5 10.12 11.5C11.5168 11.5 12.7093 11.0187 13.6976 10.0561C14.6859 9.09347 15.18 7.93192 15.18 6.57143C15.18 5.21094 14.6859 4.04939 13.6976 3.08677C12.7093 2.12416 11.5168 1.64286 10.12 1.64286ZM15.7466 21.3571C16.5197 21.3571 17.1807 21.0512 17.7298 20.4395C18.2788 19.8277 18.5533 19.0854 18.5533 18.2126C18.5533 16.1676 18.2085 14.5547 17.5189 13.3739C16.8293 12.1931 15.8389 11.5727 14.5475 11.5128C13.2737 12.5995 11.7979 13.1429 10.12 13.1429C8.44212 13.1429 6.96628 12.5995 5.6925 11.5128C4.40115 11.5727 3.41067 12.1931 2.72107 13.3739C2.03147 14.5547 1.68667 16.1676 1.68667 18.2126C1.68667 19.0854 1.96119 19.8277 2.51023 20.4395C3.05928 21.0512 3.72033 21.3571 4.49339 21.3571H15.7466Z" fill="#525252"/>
</svg>
