<svg width="26" height="23" viewBox="0 0 26 23" fill="none" xmlns="http://www.w3.org/2000/svg">
<path fill-rule="evenodd" clip-rule="evenodd" d="M6.50024 16.4286H3.25024V21.3571H6.50024V16.4286ZM14.6252 9.85714H11.3752V21.3571H14.6252V9.85714ZM22.7502 1.64286H19.5002V21.3571H22.7502V1.64286ZM19.5002 0C19.0693 0 18.6559 0.173086 18.3512 0.481182C18.0464 0.789277 17.8752 1.20714 17.8752 1.64286V21.3571C17.8752 21.7929 18.0464 22.2107 18.3512 22.5188C18.6559 22.8269 19.0693 23 19.5002 23H22.7502C23.1812 23 23.5945 22.8269 23.8993 22.5188C24.204 22.2107 24.3752 21.7929 24.3752 21.3571V1.64286C24.3752 1.20714 24.204 0.789277 23.8993 0.481182C23.5945 0.173086 23.1812 0 22.7502 0H19.5002ZM9.75024 9.85714C9.75024 9.42143 9.92145 9.00356 10.2262 8.69547C10.5309 8.38737 10.9443 8.21429 11.3752 8.21429H14.6252C15.0562 8.21429 15.4695 8.38737 15.7743 8.69547C16.079 9.00356 16.2502 9.42143 16.2502 9.85714V21.3571C16.2502 21.7929 16.079 22.2107 15.7743 22.5188C15.4695 22.8269 15.0562 23 14.6252 23H11.3752C10.9443 23 10.5309 22.8269 10.2262 22.5188C9.92145 22.2107 9.75024 21.7929 9.75024 21.3571V9.85714ZM1.62524 16.4286C1.62524 15.9929 1.79645 15.575 2.1012 15.2669C2.40594 14.9588 2.81927 14.7857 3.25024 14.7857H6.50024C6.93122 14.7857 7.34455 14.9588 7.64929 15.2669C7.95404 15.575 8.12524 15.9929 8.12524 16.4286V21.3571C8.12524 21.7929 7.95404 22.2107 7.64929 22.5188C7.34455 22.8269 6.93122 23 6.50024 23H3.25024C2.81927 23 2.40594 22.8269 2.1012 22.5188C1.79645 22.2107 1.62524 21.7929 1.62524 21.3571V16.4286Z" fill="#525252"/>
<path fill-rule="evenodd" clip-rule="evenodd" d="M0 22.1784C0 21.9605 0.0856024 21.7516 0.237976 21.5975C0.390349 21.4435 0.597012 21.3569 0.8125 21.3569H25.1875C25.403 21.3569 25.6097 21.4435 25.762 21.5975C25.9144 21.7516 26 21.9605 26 22.1784C26 22.3962 25.9144 22.6052 25.762 22.7592C25.6097 22.9132 25.403 22.9998 25.1875 22.9998H0.8125C0.597012 22.9998 0.390349 22.9132 0.237976 22.7592C0.0856024 22.6052 0 22.3962 0 22.1784Z" fill="#525252"/>
</svg>
