<svg width="50" height="50" viewBox="0 0 50 50" fill="none" xmlns="http://www.w3.org/2000/svg">
<path fill-rule="evenodd" clip-rule="evenodd" d="M-0.000488281 25.1353C-0.000488281 11.4048 11.1944 0.270172 24.9993 0.270172C38.8041 0.270172 49.999 11.4048 49.999 25.1353C49.999 38.8658 38.8041 50.0004 24.9993 50.0004C11.1944 50.0004 -0.000488281 38.8658 -0.000488281 25.1353ZM38.6008 34.4878C38.9556 33.5795 39.1986 32.5418 39.268 31.0219C39.3382 29.4993 39.3546 29.0129 39.3546 25.1353C39.3546 21.2577 39.3382 20.7713 39.2684 19.2487C39.1986 17.7288 38.956 16.6911 38.6008 15.7828C38.2407 14.8301 37.6754 13.9673 36.9453 13.254C36.2281 12.5274 35.3603 11.9652 34.4024 11.6066C33.4892 11.2541 32.4459 11.0128 30.9177 10.9438C29.3869 10.874 28.8979 10.8573 24.9993 10.8573C21.1007 10.8573 20.6116 10.874 19.0808 10.9434C17.5527 11.0128 16.5094 11.2541 15.5961 11.607C14.6383 11.9655 13.7704 12.5274 13.0537 13.254C12.3232 13.9669 11.7578 14.8301 11.3973 15.7828C11.0426 16.6911 10.8 17.7288 10.7305 19.2487C10.6603 20.7713 10.6439 21.2577 10.6439 25.1353C10.6439 29.0129 10.6603 29.4993 10.7309 31.0223C10.8003 32.5418 11.0433 33.5799 11.3981 34.4878C11.7586 35.4405 12.3235 36.3037 13.0537 37.0166C13.7708 37.7432 14.6383 38.3051 15.5965 38.6636C16.5094 39.0165 17.5531 39.2578 19.0808 39.3272C20.612 39.3966 21.1007 39.4133 24.9996 39.4133C28.8982 39.4133 29.3873 39.3966 30.9181 39.3272C32.4459 39.2578 33.4896 39.0165 34.4024 38.6636C36.3307 37.9219 37.8551 36.4057 38.6008 34.4878ZM36.1901 16.7145C35.9601 16.0945 35.5932 15.5334 35.1163 15.0728C34.6532 14.5985 34.0894 14.2335 33.4657 14.0048C32.9599 13.8094 32.2 13.5768 30.8004 13.5134C29.2864 13.4447 28.8324 13.4299 24.9995 13.4299C21.1661 13.4299 20.7122 13.4444 19.1985 13.513C17.7989 13.5768 17.0386 13.8094 16.5332 14.0048C15.9095 14.2335 15.3453 14.5985 14.8826 15.0728C14.4058 15.5334 14.0388 16.0942 13.8084 16.7145C13.6119 17.2176 13.3781 17.9737 13.3144 19.3658C13.2453 20.8713 13.2305 21.3228 13.2305 25.1355C13.2305 28.9478 13.2453 29.3993 13.3144 30.9051C13.3781 32.2972 13.6119 33.053 13.8084 33.5561C14.0388 34.1764 14.4054 34.7372 14.8822 35.1978C15.3453 35.672 15.9091 36.037 16.5328 36.2658C17.0386 36.4616 17.7989 36.6941 19.1985 36.7575C20.7122 36.8262 21.1657 36.8406 24.9991 36.8406C28.8328 36.8406 29.2868 36.8262 30.8 36.7575C32.1996 36.6941 32.9599 36.4616 33.4657 36.2658C34.7177 35.7855 35.7072 34.8013 36.1901 33.5561C36.3866 33.053 36.6204 32.2972 36.6845 30.9051C36.7536 29.3993 36.7681 28.9478 36.7681 25.1355C36.7681 21.3228 36.7536 20.8713 36.6845 19.3658C36.6208 17.9737 36.387 17.2176 36.1901 16.7145ZM24.9995 32.4668C20.9281 32.4668 17.6276 29.1845 17.6276 25.1351C17.6276 21.0857 20.9281 17.8034 24.9995 17.8034C29.0705 17.8034 32.3709 21.0857 32.3709 25.1351C32.3709 29.1845 29.0705 32.4668 24.9995 32.4668ZM32.6623 19.2269C31.711 19.2269 30.9396 18.4598 30.9396 17.5135C30.9396 16.5673 31.711 15.8001 32.6623 15.8001C33.6137 15.8001 34.385 16.5673 34.385 17.5135C34.3847 18.4598 33.6137 19.2269 32.6623 19.2269ZM29.7847 25.1347C29.7847 27.7633 27.6424 29.8941 24.9996 29.8941C22.3568 29.8941 20.2145 27.7633 20.2145 25.1347C20.2145 22.5061 22.3568 20.3753 24.9996 20.3753C27.6424 20.3753 29.7847 22.5061 29.7847 25.1347Z" fill="url(#paint0_linear)"/>
<defs>
<linearGradient id="paint0_linear" x1="43.0005" y1="5.98389" x2="12.1095" y2="45.4571" gradientUnits="userSpaceOnUse">
<stop stop-color="#584DCD"/>
<stop offset="0.323899" stop-color="#DD277C"/>
<stop offset="0.666667" stop-color="#F65835"/>
<stop offset="1" stop-color="#FFDD7A"/>
</linearGradient>
</defs>
</svg>
