<svg width="50" height="51" viewBox="0 0 50 51" fill="none" xmlns="http://www.w3.org/2000/svg">
<path fill-rule="evenodd" clip-rule="evenodd" d="M-0.000488281 25.2059C-0.000488281 11.4363 11.1944 0.27002 24.9993 0.27002C38.8041 0.27002 49.999 11.4363 49.999 25.2059C49.999 38.9756 38.8041 50.1418 24.9993 50.1418C11.1944 50.1418 -0.000488281 38.9756 -0.000488281 25.2059ZM38.6008 34.5851C38.9556 33.6742 39.1986 32.6335 39.268 31.1093C39.3382 29.5823 39.3546 29.0946 39.3546 25.2059C39.3546 21.3173 39.3382 20.8295 39.2684 19.3026C39.1986 17.7784 38.956 16.7377 38.6008 15.8268C38.2407 14.8714 37.6754 14.0062 36.9453 13.2908C36.2281 12.5622 35.3603 11.9983 34.4024 11.6387C33.4892 11.2853 32.4459 11.0433 30.9177 10.974C29.3869 10.904 28.8979 10.8873 24.9993 10.8873C21.1007 10.8873 20.6116 10.904 19.0808 10.9736C17.5527 11.0433 16.5094 11.2853 15.5961 11.6391C14.6383 11.9987 13.7704 12.5622 13.0537 13.2908C12.3232 14.0058 11.7578 14.8714 11.3973 15.8268C11.0426 16.7377 10.8 17.7784 10.7305 19.3026C10.6603 20.8295 10.6439 21.3173 10.6439 25.2059C10.6439 29.0946 10.6603 29.5823 10.7309 31.1096C10.8003 32.6335 11.0433 33.6745 11.3981 34.5851C11.7586 35.5405 12.3235 36.4061 13.0537 37.121C13.7708 37.8497 14.6383 38.4132 15.5965 38.7728C16.5094 39.1266 17.5531 39.3686 19.0808 39.4382C20.612 39.5079 21.1007 39.5246 24.9996 39.5246C28.8982 39.5246 29.3873 39.5079 30.9181 39.4382C32.4459 39.3686 33.4896 39.1266 34.4024 38.7728C36.3307 38.0289 37.8551 36.5084 38.6008 34.5851ZM36.1901 16.7619C35.9601 16.1402 35.5932 15.5774 35.1163 15.1155C34.6532 14.6399 34.0894 14.2739 33.4657 14.0445C32.9599 13.8485 32.2 13.6153 30.8004 13.5517C29.2864 13.4829 28.8324 13.468 24.9995 13.468C21.1661 13.468 20.7122 13.4825 19.1985 13.5513C17.7989 13.6153 17.0386 13.8485 16.5332 14.0445C15.9095 14.2739 15.3453 14.6399 14.8826 15.1155C14.4058 15.5774 14.0388 16.1398 13.8084 16.7619C13.6119 17.2664 13.3781 18.0247 13.3144 19.4208C13.2453 20.9305 13.2305 21.3833 13.2305 25.2069C13.2305 29.03 13.2453 29.4828 13.3144 30.9929C13.3781 32.389 13.6119 33.1469 13.8084 33.6514C14.0388 34.2735 14.4054 34.8359 14.8822 35.2978C15.3453 35.7734 15.9091 36.1394 16.5328 36.3689C17.0386 36.5652 17.7989 36.7984 19.1985 36.862C20.7122 36.9309 21.1657 36.9453 24.9991 36.9453C28.8328 36.9453 29.2868 36.9309 30.8 36.862C32.1996 36.7984 32.9599 36.5652 33.4657 36.3689C34.7177 35.8872 35.7072 34.9002 36.1901 33.6514C36.3866 33.1469 36.6204 32.389 36.6845 30.9929C36.7536 29.4828 36.7681 29.03 36.7681 25.2069C36.7681 21.3833 36.7536 20.9305 36.6845 19.4208C36.6208 18.0247 36.387 17.2664 36.1901 16.7619ZM24.9995 32.559C20.9281 32.559 17.6276 29.2674 17.6276 25.2065C17.6276 21.1455 20.9281 17.8539 24.9995 17.8539C29.0705 17.8539 32.3709 21.1455 32.3709 25.2065C32.3709 29.2674 29.0705 32.559 24.9995 32.559ZM32.6623 19.2815C31.711 19.2815 30.9396 18.5122 30.9396 17.5632C30.9396 16.6143 31.711 15.8449 32.6623 15.8449C33.6137 15.8449 34.385 16.6143 34.385 17.5632C34.3847 18.5122 33.6137 19.2815 32.6623 19.2815ZM29.7847 25.2061C29.7847 27.8421 27.6424 29.979 24.9996 29.979C22.3568 29.979 20.2145 27.8421 20.2145 25.2061C20.2145 22.57 22.3568 20.4331 24.9996 20.4331C27.6424 20.4331 29.7847 22.57 29.7847 25.2061Z" fill="url(#paint0_linear)"/>
<defs>
<linearGradient id="paint0_linear" x1="43.0005" y1="6" x2="12.0005" y2="45.5" gradientUnits="userSpaceOnUse">
<stop stop-color="#584DCD"/>
<stop offset="0.323899" stop-color="#DD277C"/>
<stop offset="0.666667" stop-color="#F65835"/>
<stop offset="1" stop-color="#FFDD7A"/>
</linearGradient>
</defs>
</svg>
