<svg width="18" height="18" viewBox="0 0 18 18" fill="none" xmlns="http://www.w3.org/2000/svg">
<path d="M14.2245 0.656781C12.4833 2.39853 10.7412 4.14028 9.00146 5.88277C7.25945 4.14176 5.51745 2.39964 3.7747 0.656781C1.7601 -1.3579 -1.36414 1.76476 0.650841 3.78092C2.39211 5.5212 4.13485 7.26368 5.8739 9.00322C4.13337 10.7442 2.39026 12.4867 0.650841 14.2255C-1.3634 16.2402 1.75899 19.3629 3.7747 17.35C5.51597 15.6079 7.25798 13.8662 9.00146 12.124C10.7435 13.8658 12.484 15.6068 14.2245 17.35C16.2395 19.3636 19.3626 16.2383 17.3495 14.2262C15.6071 12.4845 13.8651 10.7435 12.1227 9.00026L17.3495 3.77427C19.3634 1.76033 16.2413 -1.36381 14.2245 0.650502" fill="#E5E5E5"/>
</svg>
