<svg width="20" height="20" viewBox="0 0 20 20" fill="none" xmlns="http://www.w3.org/2000/svg">
<g clip-path="url(#clip0)">
<path d="M17.501 3.12402H5.00542C4.31531 3.12402 3.75586 3.57174 3.75586 4.12402C3.75586 4.6763 4.31531 5.12402 5.00542 5.12402H17.501C18.1911 5.12402 18.7506 4.6763 18.7506 4.12402C18.7506 3.57174 18.1911 3.12402 17.501 3.12402Z" fill="#009900"/>
<path d="M2.00437 4.12433C2.00325 3.85971 1.89722 3.60633 1.70955 3.41976C1.31976 3.03228 0.69021 3.03228 0.300417 3.41976C0.11272 3.60633 0.00669121 3.85971 0.00559813 4.12433C-0.00186604 4.18907 -0.00186604 4.25447 0.00559813 4.31921C0.0169037 4.38433 0.0353299 4.44801 0.0605644 4.50909C0.0873917 4.56828 0.119153 4.62512 0.155506 4.67899C0.19139 4.73502 0.233271 4.78695 0.28043 4.83389C0.325902 4.87918 0.376152 4.9194 0.430338 4.95382C0.482962 4.99214 0.54002 5.02403 0.600233 5.04876C0.666474 5.08312 0.737087 5.10835 0.810105 5.12372C0.874846 5.13096 0.940244 5.13096 1.00499 5.12372C1.26889 5.12393 1.52217 5.01975 1.70955 4.83389C1.75671 4.78695 1.79859 4.73502 1.83448 4.67899C1.87083 4.62512 1.90259 4.56828 1.92942 4.50909C1.9613 4.44876 1.98645 4.38508 2.00437 4.31921C2.01184 4.25447 2.01184 4.18907 2.00437 4.12433Z" fill="#009900"/>
<path d="M2.00642 9.74729C2.01386 9.68256 2.01386 9.61717 2.00642 9.55243C1.98915 9.48794 1.96398 9.42586 1.93148 9.36756C1.90574 9.30626 1.87392 9.24767 1.83654 9.19268C1.80191 9.13728 1.75988 9.08685 1.71163 9.04278C1.32187 8.65533 0.692368 8.65533 0.302608 9.04278C0.114926 9.22934 0.00890549 9.4827 0.0078125 9.74729C0.00974865 9.87898 0.0351373 10.0092 0.0827604 10.132C0.107805 10.1911 0.13791 10.248 0.172698 10.3019C0.210703 10.3562 0.254235 10.4065 0.302608 10.4518C0.346764 10.5 0.397167 10.542 0.452503 10.5767C0.505123 10.6151 0.562146 10.647 0.622385 10.6717C0.683312 10.6973 0.747049 10.7157 0.812253 10.7266C0.876178 10.7409 0.941601 10.7477 1.00712 10.7466C1.07185 10.7541 1.13725 10.7541 1.20198 10.7466C1.26556 10.7357 1.32765 10.7172 1.38685 10.6916C1.44872 10.6671 1.50743 10.6352 1.56173 10.5967C1.61707 10.562 1.66747 10.5199 1.71163 10.4718C1.75978 10.4276 1.80182 10.3772 1.83654 10.3219C1.87495 10.2693 1.90684 10.2123 1.93148 10.152C1.96561 10.0857 1.99081 10.0151 2.00642 9.94216C2.01411 9.87742 2.01411 9.81203 2.00642 9.74729Z" fill="#009900"/>
<path d="M2.00551 15.3703C2.01291 15.3056 2.01291 15.2402 2.00551 15.1755C1.98824 15.1094 1.96307 15.0457 1.93056 14.9856C1.90373 14.9264 1.87198 14.8696 1.83563 14.8157C1.8009 14.7604 1.75887 14.71 1.71071 14.6658C1.32095 14.2784 0.691452 14.2784 0.301692 14.6658C0.253538 14.71 0.211505 14.7604 0.176779 14.8157C0.140429 14.8696 0.10867 14.9264 0.0818451 14.9856C0.0559256 15.0464 0.0374697 15.1102 0.0268833 15.1755C0.0127993 15.2395 0.00611649 15.3048 0.00689719 15.3703C0.00802141 15.6349 0.114041 15.8883 0.301692 16.0749C0.345849 16.123 0.396251 16.165 0.451588 16.1998C0.504208 16.2381 0.561231 16.27 0.62147 16.2947C0.682396 16.3203 0.746133 16.3388 0.811338 16.3497C0.875262 16.364 0.940685 16.3707 1.0062 16.3696C1.07094 16.3771 1.13633 16.3771 1.20107 16.3696C1.26465 16.3587 1.32673 16.3403 1.38594 16.3147C1.4478 16.2901 1.50651 16.2583 1.56082 16.2198C1.61615 16.185 1.66656 16.143 1.71071 16.0948C1.75887 16.0507 1.8009 16.0003 1.83563 15.9449C1.87407 15.8924 1.90595 15.8353 1.93056 15.7751C1.96466 15.7087 1.98986 15.6382 2.00551 15.5652C2.01319 15.5005 2.01319 15.4351 2.00551 15.3703Z" fill="#009900"/>
<path d="M18.7506 8.74683H5.00542C4.31531 8.74683 3.75586 9.19454 3.75586 9.74683C3.75586 10.2991 4.31531 10.7468 5.00542 10.7468H18.7506C19.4407 10.7468 20.0001 10.2991 20.0001 9.74683C20.0001 9.19454 19.4407 8.74683 18.7506 8.74683Z" fill="#009900"/>
<path d="M13.1276 14.3699H5.00542C4.31531 14.3699 3.75586 14.8176 3.75586 15.3699C3.75586 15.9222 4.31531 16.3699 5.00542 16.3699H13.1276C13.8177 16.3699 14.3771 15.9222 14.3771 15.3699C14.3771 14.8176 13.8177 14.3699 13.1276 14.3699Z" fill="#009900"/>
</g>
<defs>
<clipPath id="clip0">
<rect width="20" height="20" fill="white"/>
</clipPath>
</defs>
</svg>
