<svg width="236" height="51" viewBox="0 0 236 51" fill="none" xmlns="http://www.w3.org/2000/svg">
<path d="M72.2581 1.12866C74.1714 1.12866 75.5539 1.65435 76.4056 2.70573C77.2572 3.75712 77.6833 5.20657 77.6841 7.05408V9.96536C77.6841 11.9062 77.229 13.3677 76.3188 14.3498C75.4087 15.3319 73.986 15.825 72.0508 15.8293H69.6662V25.3956H66.9707V1.12866H72.2581ZM72.0466 13.3974C73.0611 13.3974 73.8098 13.1499 74.2927 12.655C74.7756 12.16 75.0178 11.3225 75.0192 10.1425V6.92045C75.0192 5.8118 74.8077 4.97996 74.3847 4.42492C73.9617 3.86989 73.2532 3.59273 72.2592 3.59344H69.6662V13.4016L72.0466 13.3974Z" fill="#FFB100"/>
<path d="M88.7428 1.12866C90.6554 1.12866 92.0322 1.60238 92.8733 2.54983C93.7143 3.49727 94.1352 4.87213 94.1359 6.6744V8.64919C94.1359 9.99258 93.8938 11.0786 93.4094 11.9073C92.9251 12.7359 92.1648 13.3136 91.1284 13.6402C92.2346 13.9648 93.0182 14.5598 93.4792 15.4252C93.9403 16.2906 94.1705 17.3827 94.1697 18.7013V22.4791C94.1697 23.0101 94.193 23.5241 94.2395 24.0211C94.2801 24.5017 94.4214 24.9683 94.6541 25.3903H91.9237C91.7588 25.032 91.6426 24.6532 91.5779 24.264C91.4956 23.661 91.4603 23.0525 91.4721 22.4441V18.6313C91.4721 17.2681 91.1669 16.3267 90.5563 15.807C89.9458 15.2873 89.0762 15.0271 87.9475 15.0264H86.0441V25.3903H83.3496V1.12866H88.7428ZM88.0522 12.5659C89.1351 12.5659 89.9758 12.3407 90.5743 11.8903C91.1728 11.4399 91.4725 10.5561 91.4732 9.23886V6.92045C91.4732 5.8118 91.2617 4.97996 90.8387 4.42492C90.4157 3.86989 89.6956 3.59273 88.6783 3.59343H86.0462V12.5701L88.0522 12.5659Z" fill="#FFB100"/>
<path d="M100.216 6.98567C100.216 5.11341 100.671 3.6286 101.581 2.53126C102.491 1.43392 103.879 0.885254 105.745 0.885254C107.612 0.885254 109.006 1.43392 109.927 2.53126C110.847 3.6286 111.308 5.11341 111.31 6.98567V19.5323C111.31 21.3812 110.849 22.86 109.927 23.9686C109.005 25.0773 107.611 25.632 105.745 25.6327C103.879 25.6327 102.491 25.078 101.581 23.9686C100.671 22.8593 100.216 21.3805 100.216 19.5323V6.98567ZM102.878 19.6712C102.878 20.7791 103.114 21.6396 103.586 22.2526C104.058 22.8657 104.778 23.1718 105.745 23.1711C106.737 23.1711 107.462 22.8649 107.923 22.2526C108.383 21.6403 108.613 20.7799 108.613 19.6712V6.84674C108.613 5.73738 108.383 4.87655 107.923 4.26424C107.462 3.65194 106.737 3.34579 105.745 3.34579C104.778 3.34579 104.058 3.65194 103.586 4.26424C103.114 4.87655 102.878 5.73738 102.878 6.84674V19.6712Z" fill="#FFB100"/>
<path d="M125.582 12.4269V14.8885H120.018V25.3882H117.323V1.12866H126.93V3.58919H120.018V12.4269H125.582Z" fill="#FFB100"/>
<path d="M137.816 1.12866C139.728 1.12866 141.11 1.65435 141.963 2.70573C142.815 3.75712 143.241 5.20657 143.242 7.05408V9.96536C143.242 11.9062 142.787 13.3677 141.877 14.3498C140.967 15.3319 139.544 15.825 137.609 15.8293H135.224V25.3956H132.529V1.12866H137.816ZM137.605 13.3974C138.618 13.3974 139.366 13.1499 139.851 12.655C140.335 12.16 140.577 11.3225 140.576 10.1425V6.92045C140.576 5.8118 140.365 4.97996 139.942 4.42492C139.519 3.86989 138.81 3.59273 137.816 3.59344H135.224V13.4016L137.605 13.3974Z" fill="#525252"/>
<path d="M151.501 1.12866V25.3903H148.809V1.12866H151.501Z" fill="#525252"/>
<path d="M163.388 1.12866C165.276 1.12866 166.665 1.66567 167.552 2.73967C168.44 3.81368 168.883 5.28681 168.882 7.15908V19.3938C168.882 21.2654 168.439 22.7325 167.552 23.7952C166.665 24.8579 165.277 25.3882 163.388 25.3861H157.721V1.12866H163.388ZM163.354 22.9287C164.322 22.9287 165.042 22.6343 165.513 22.0453C165.985 21.4563 166.221 20.6078 166.222 19.4999V7.02014C166.222 5.9122 165.986 5.06374 165.513 4.47477C165.041 3.8858 164.31 3.59131 163.319 3.59131H160.416V22.9287H163.354Z" fill="#525252"/>
<path d="M174.862 25.3903V1.12866H177.557V22.9287H184.469V25.3903H174.862Z" fill="#525252"/>
<path d="M189.756 6.98567C189.756 5.11341 190.211 3.6286 191.122 2.53126C192.032 1.43392 193.42 0.885254 195.286 0.885254C197.151 0.885254 198.545 1.43392 199.467 2.53126C200.389 3.6286 200.85 5.11341 200.849 6.98567V19.5323C200.849 21.3812 200.389 22.86 199.467 23.9686C198.546 25.0773 197.152 25.632 195.286 25.6327C193.419 25.6327 192.031 25.078 191.122 23.9686C190.212 22.8593 189.757 21.3805 189.756 19.5323V6.98567ZM192.417 19.6712C192.417 20.7791 192.653 21.6396 193.125 22.2526C193.598 22.8657 194.318 23.1718 195.286 23.1711C196.273 23.1711 196.998 22.8649 197.462 22.2526C197.926 21.6403 198.157 20.7799 198.154 19.6712V6.84674C198.154 5.73738 197.923 4.87655 197.462 4.26424C197.001 3.65194 196.276 3.34579 195.286 3.34579C194.318 3.34579 193.598 3.65194 193.125 4.26424C192.653 4.87655 192.417 5.73738 192.417 6.84674V19.6712Z" fill="#525252"/>
<path d="M212.081 0.885254C213.947 0.885254 215.324 1.43993 216.21 2.54929C217.096 3.65865 217.541 5.13745 217.545 6.98567V9.0644H214.988V6.84674C214.988 5.73738 214.763 4.87655 214.314 4.26424C213.865 3.65194 213.144 3.34579 212.151 3.34579C211.184 3.34579 210.47 3.65194 210.009 4.26424C209.548 4.87655 209.317 5.73738 209.317 6.84674V19.6712C209.317 20.7791 209.548 21.6396 210.009 22.2526C210.47 22.8657 211.184 23.1718 212.151 23.1711C213.142 23.1711 213.862 22.8649 214.312 22.2526C214.762 21.6403 214.986 20.7799 214.986 19.6712V14.818H212.497V12.3925H217.545V19.5323C217.545 21.3812 217.101 22.86 216.214 23.9686C215.327 25.0773 213.951 25.632 212.085 25.6327C210.242 25.6327 208.877 25.078 207.989 23.9686C207.102 22.8593 206.656 21.3805 206.653 19.5323V6.98567C206.642 6.13639 206.753 5.28998 206.981 4.47211C207.176 3.76728 207.517 3.11187 207.983 2.54929C208.442 2.01064 209.022 1.58869 209.675 1.31797C210.357 1.02949 211.158 0.885254 212.081 0.885254Z" fill="#525252"/>
<path d="M226.25 20.5032L225.316 25.3903H222.832L227.464 1.12866H231.368L236 25.3903H233.301L232.367 20.5032H226.25ZM226.596 18.1806H231.989L229.258 4.18099L226.596 18.1806Z" fill="#525252"/>
<path d="M5.00822 1.12964H0V45.2506H5.00822V1.12964Z" fill="#FFB100"/>
<path d="M41.3156 21.4756H2.50391V16.8589H36.7134V5.74412H2.50391V1.12744H41.3156V21.4756Z" fill="#FFB100"/>
<path d="M51.6552 1.12866H46.647V45.2496H51.6552V1.12866Z" fill="#525252"/>
<path d="M49.1511 45.25H10.3384V24.9019H49.1511V29.5185H14.9416V40.6333H49.1511V45.25Z" fill="#525252"/>
<path d="M136.423 30.1953C136.423 30.3576 136.317 30.5272 136.105 30.7065C135.815 30.9266 135.487 31.0939 135.139 31.2007C134.602 31.3746 134.05 31.4992 133.49 31.573C132.7 31.6788 131.904 31.728 131.107 31.7204H130.261C129.927 31.7204 129.558 31.726 129.156 31.7374C128.529 32.2253 127.937 32.7569 127.385 33.3282C126.815 33.9179 126.254 34.5362 125.702 35.1832C125.15 35.8301 124.6 36.4916 124.052 37.1675C123.506 37.8434 122.939 38.5049 122.352 39.1518C122.845 39.1285 123.355 39.108 123.881 39.0903C124.407 39.0726 124.945 39.0642 125.497 39.0649C125.635 39.0765 125.708 39.1232 125.708 39.2038C125.701 39.2767 125.667 39.3444 125.613 39.3936C125.55 39.4636 125.489 39.5273 125.431 39.5845C125.384 39.6302 125.328 39.6662 125.267 39.6906C125.219 39.7031 125.17 39.7088 125.12 39.7076H124.948C123.82 39.7076 122.754 39.7429 121.751 39.8136C121.101 40.5015 120.415 41.155 119.696 41.7714C118.986 42.3812 118.217 42.918 117.4 43.374C116.564 43.8381 115.676 44.2019 114.756 44.4579C113.754 44.7309 112.72 44.8651 111.682 44.8566C110.865 44.8566 110.252 44.7506 109.843 44.5385C109.434 44.3264 109.229 44.052 109.229 43.7155C109.229 43.3464 109.486 42.9306 109.998 42.4682C110.511 42.0058 111.286 41.5551 112.325 41.116C113.367 40.6769 114.68 40.2813 116.263 39.9292C117.846 39.5771 119.707 39.3296 121.848 39.1868C122.425 38.5399 122.989 37.8816 123.54 37.212C124.092 36.5425 124.647 35.8842 125.206 35.2372C125.764 34.5903 126.328 33.9663 126.898 33.3653C127.452 32.7785 128.05 32.234 128.685 31.7363C128.167 31.7483 127.615 31.7572 127.028 31.7628L125.293 31.7798L123.652 31.7968C123.128 31.8031 122.664 31.8059 122.262 31.8052C120.972 31.7936 119.682 31.8748 118.403 32.0481C117.472 32.1726 116.553 32.3726 115.654 32.6463C114.923 32.8831 114.376 33.143 114.014 33.4258C113.651 33.7086 113.47 33.9716 113.47 34.2149C113.47 34.48 113.681 34.6995 114.104 34.8735C114.527 35.0474 115.158 35.134 115.997 35.1333C116.734 35.139 117.471 35.0898 118.2 34.9859C118.805 34.8977 119.402 34.7673 119.988 34.5956C120.5 34.4449 121.003 34.2625 121.492 34.0494C121.952 33.8479 122.407 33.6358 122.857 33.4131C122.9 33.3874 122.946 33.3698 122.995 33.3611C123.065 33.3611 123.1 33.4078 123.1 33.5C123.1 33.5301 123.092 33.5596 123.079 33.5866C123.066 33.6135 123.047 33.6372 123.023 33.6559C122.971 33.7026 122.918 33.7546 122.859 33.8118C122.591 34.0328 122.298 34.2218 121.986 34.375C121.614 34.5626 121.231 34.7248 120.837 34.8607C120.423 35.0022 119.991 35.1319 119.541 35.25C119.091 35.3681 118.651 35.4692 118.219 35.5533C117.788 35.6403 117.376 35.7039 116.984 35.7442C116.64 35.7818 116.294 35.802 115.948 35.8047C114.945 35.8047 114.182 35.6689 113.658 35.3974C113.134 35.1259 112.872 34.7996 112.871 34.4185C112.871 34.0954 113.061 33.7602 113.441 33.4131C113.821 33.0659 114.408 32.7453 115.202 32.4511C115.996 32.1563 117.003 31.9138 118.224 31.7236C119.66 31.5177 121.11 31.422 122.56 31.4372H129.053C129.853 30.8461 130.726 30.3626 131.651 29.9991C132.613 29.6329 133.635 29.4509 134.664 29.4624C135.239 29.4624 135.677 29.5331 135.976 29.6745C136.276 29.816 136.425 29.9895 136.423 30.1953ZM121.227 39.8465C119.575 39.9566 117.933 40.1856 116.314 40.5316C115.093 40.7905 113.895 41.1451 112.73 41.5922C111.763 41.9775 111.029 42.3692 110.528 42.7673C110.027 43.1654 109.776 43.5189 109.776 43.8279C109.776 44.0824 109.946 44.2846 110.286 44.4345C110.626 44.5844 111.141 44.6597 111.831 44.6604C112.779 44.6678 113.724 44.5421 114.637 44.2871C115.492 44.0451 116.316 43.7019 117.09 43.2647C117.861 42.8272 118.587 42.3134 119.257 41.7311C119.936 41.1492 120.593 40.5214 121.227 39.8476V39.8465ZM135.938 30.0892C135.938 29.9832 135.833 29.8983 135.621 29.8294C135.41 29.7605 135.073 29.7233 134.6 29.7233C133.676 29.7134 132.758 29.8719 131.89 30.191C131.059 30.506 130.27 30.9251 129.544 31.4383H131.276C131.873 31.4405 132.469 31.3944 133.059 31.3004C133.563 31.222 134.061 31.1061 134.548 30.9536C134.902 30.8471 135.242 30.6986 135.561 30.5113C135.812 30.3586 135.938 30.2186 135.938 30.0914V30.0892Z" fill="#525252"/>
<path d="M137.6 32.2923C137.6 32.6041 137.418 33.017 137.055 33.531C136.618 34.1328 136.132 34.6978 135.603 35.2205C134.998 35.8335 134.307 36.472 133.53 37.1359C132.754 37.7998 131.95 38.4468 131.119 39.0768C130.29 39.7068 129.467 40.2901 128.648 40.8267C127.83 41.3634 127.081 41.8169 126.402 42.1874C126.356 42.3079 126.317 42.4307 126.285 42.5555C126.257 42.6591 126.249 42.7669 126.259 42.8736C126.282 43.2088 126.374 43.434 126.535 43.5492C126.702 43.6665 126.902 43.7271 127.105 43.7221C127.298 43.7208 127.49 43.6918 127.675 43.6362C127.872 43.5782 128.056 43.5146 128.228 43.4453C128.379 43.3866 128.526 43.3201 128.669 43.2459C128.745 43.2037 128.823 43.1661 128.903 43.1335L129.403 42.8556C129.615 42.7411 129.819 42.6223 130.026 42.5003C130.233 42.3783 130.424 42.2702 130.596 42.1715C130.712 42.1128 130.822 42.0417 130.924 41.9594C130.96 41.9332 131.001 41.9155 131.045 41.9074C131.055 41.9062 131.064 41.9072 131.073 41.9102C131.082 41.9132 131.09 41.9183 131.097 41.925C131.103 41.9316 131.108 41.9397 131.111 41.9486C131.114 41.9575 131.115 41.967 131.114 41.9764C131.114 42.0453 131.051 42.1153 130.924 42.1885C130.867 42.2235 130.748 42.2946 130.569 42.4144C130.391 42.5342 130.172 42.6647 129.913 42.8217C129.654 42.9786 129.363 43.1398 129.04 43.3063C128.718 43.4729 128.384 43.6245 128.039 43.7656C127.819 43.8526 127.594 43.9235 127.364 43.9777C127.161 44.0279 126.952 44.0543 126.742 44.0562C126.466 44.0664 126.193 43.9872 125.965 43.8303C125.758 43.6804 125.654 43.4329 125.654 43.0879C125.654 42.7061 125.786 42.2553 126.051 41.7356C126.361 41.1452 126.723 40.583 127.131 40.0557C127.585 39.4554 128.106 38.8374 128.693 38.2018C129.281 37.5662 129.897 36.9422 130.543 36.3299C131.188 35.7176 131.839 35.1399 132.495 34.5969C133.151 34.0539 133.774 33.5774 134.362 33.1673C134.867 32.8071 135.397 32.4828 135.948 32.1968C136.421 31.9607 136.79 31.8423 137.054 31.8415C137.188 31.838 137.32 31.8749 137.434 31.9476C137.489 31.9856 137.533 32.0374 137.562 32.0979C137.591 32.1583 137.604 32.2253 137.6 32.2923ZM137.012 32.4652C137.012 32.2923 136.931 32.2053 136.769 32.2053C136.493 32.2053 136.081 32.3672 135.534 32.6911C134.896 33.0775 134.284 33.5059 133.703 33.9733C133.029 34.5043 132.326 35.1109 131.594 35.7932C130.862 36.4755 130.165 37.1741 129.501 37.8889C128.839 38.6052 128.246 39.3069 127.722 39.9942C127.27 40.5667 126.881 41.1852 126.558 41.8396C127.222 41.5151 127.858 41.1384 128.462 40.7132C129.187 40.2183 129.939 39.664 130.716 39.0503C131.494 38.4365 132.257 37.7952 133.006 37.1264C133.755 36.4561 134.424 35.8148 135.015 35.2025C135.528 34.6825 136.009 34.1329 136.458 33.5565C136.826 33.0715 137.01 32.7077 137.01 32.4652H137.012Z" fill="#525252"/>
<path d="M138.409 41.9441C138.409 42.0141 138.345 42.083 138.22 42.1562C137.985 42.3346 137.726 42.4776 137.45 42.5804C137.264 42.6483 137.069 42.6863 136.871 42.6929C136.67 42.6998 136.47 42.6636 136.284 42.5868C136.143 42.5249 136.022 42.4223 135.939 42.292C135.736 42.5411 135.517 42.7757 135.282 42.9941C135.045 43.2143 134.791 43.4143 134.522 43.5922C134.259 43.7637 133.978 43.9033 133.683 44.008C133.398 44.1105 133.097 44.1633 132.794 44.1639C132.595 44.162 132.404 44.0864 132.257 43.9518C132.175 43.8751 132.11 43.7809 132.068 43.6759C132.027 43.5709 132.009 43.4579 132.016 43.3451C132.031 43.103 132.103 42.8679 132.228 42.66C132.38 42.378 132.56 42.1112 132.763 41.8635C132.998 41.5751 133.252 41.303 133.523 41.049C133.797 40.789 134.088 40.5487 134.396 40.3299C134.669 40.1335 134.962 39.9651 135.269 39.8272C135.512 39.7105 135.777 39.6455 136.046 39.6363C136.076 39.6347 136.106 39.6393 136.135 39.6497C136.163 39.6601 136.188 39.6761 136.21 39.6967C136.23 39.716 136.245 39.739 136.255 39.7643C136.266 39.7896 136.271 39.8168 136.271 39.8442C136.27 39.881 136.26 39.9172 136.244 39.9501C136.228 39.9831 136.204 40.0121 136.175 40.0351C136.095 40.0988 135.993 40.1298 135.891 40.122C135.513 40.1334 135.142 40.234 134.81 40.4158C134.422 40.6141 134.061 40.8638 133.739 41.1582C133.425 41.4422 133.151 41.7688 132.927 42.1286C132.734 42.4165 132.624 42.7524 132.61 43.0991C132.61 43.3536 132.659 43.5328 132.757 43.6368C132.807 43.689 132.867 43.7299 132.934 43.7568C133.002 43.7837 133.074 43.7959 133.146 43.7927C133.397 43.7908 133.647 43.7408 133.88 43.6453C134.132 43.5442 134.372 43.4162 134.597 43.2635C134.833 43.1035 135.055 42.9239 135.262 42.7268C135.473 42.5246 135.672 42.3195 135.858 42.1117C135.832 42.0496 135.814 41.9849 135.802 41.9186C135.791 41.8485 135.786 41.7776 135.785 41.7065C135.787 41.4765 135.825 41.2481 135.897 41.0299C135.967 40.8089 136.06 40.5956 136.173 40.3935C136.269 40.2233 136.382 40.0636 136.511 39.9173C136.626 39.7901 136.722 39.7264 136.805 39.7264C136.977 39.7264 137.064 39.8325 137.064 40.0552C137.044 40.3391 136.967 40.6161 136.838 40.8697C136.668 41.2436 136.459 41.599 136.217 41.9303C136.233 42.0239 136.274 42.1115 136.334 42.1845C136.395 42.2574 136.474 42.3132 136.562 42.3461C136.695 42.3963 136.835 42.4257 136.977 42.433C137.193 42.428 137.406 42.3748 137.599 42.2771C137.814 42.1753 138.022 42.0594 138.222 41.9303C138.257 41.904 138.299 41.8862 138.342 41.8783C138.351 41.8775 138.36 41.8787 138.368 41.8817C138.377 41.8847 138.384 41.8895 138.391 41.8958C138.397 41.902 138.402 41.9096 138.405 41.9179C138.408 41.9263 138.409 41.9352 138.409 41.9441ZM136.768 40.471C136.768 40.3447 136.716 40.2811 136.612 40.2811C136.475 40.5445 136.362 40.82 136.275 41.1041C136.217 41.2924 136.186 41.4875 136.181 41.6843C136.345 41.4633 136.489 41.2284 136.612 40.9822C136.7 40.8248 136.753 40.6505 136.768 40.471Z" fill="#525252"/>
<path d="M145.636 41.9441C145.636 42.0141 145.573 42.083 145.447 42.1562C145.213 42.3344 144.954 42.4773 144.678 42.5804C144.492 42.6483 144.297 42.6863 144.099 42.6929C143.898 42.6998 143.698 42.6636 143.512 42.5868C143.37 42.5249 143.25 42.4223 143.166 42.292C142.964 42.5411 142.744 42.7757 142.509 42.9941C142.273 43.2143 142.019 43.4143 141.749 43.5922C141.487 43.7637 141.205 43.9033 140.91 44.008C140.625 44.1105 140.324 44.1633 140.021 44.1639C139.822 44.162 139.631 44.0864 139.485 43.9518C139.402 43.8751 139.337 43.7809 139.296 43.6759C139.254 43.5709 139.236 43.4579 139.244 43.3451C139.258 43.103 139.331 42.8679 139.455 42.66C139.608 42.378 139.787 42.1112 139.99 41.8635C140.225 41.5751 140.479 41.303 140.751 41.049C141.025 40.7893 141.316 40.549 141.623 40.3299C141.897 40.1335 142.19 39.9651 142.497 39.8272C142.74 39.7105 143.004 39.6455 143.274 39.6363C143.304 39.6347 143.334 39.6393 143.362 39.6497C143.39 39.6601 143.416 39.6761 143.438 39.6967C143.457 39.716 143.473 39.739 143.483 39.7643C143.493 39.7896 143.498 39.8168 143.498 39.8442C143.497 39.881 143.488 39.9172 143.472 39.9501C143.455 39.9831 143.432 40.0121 143.403 40.0351C143.322 40.0988 143.221 40.1298 143.118 40.122C142.741 40.1333 142.371 40.2339 142.039 40.4158C141.65 40.6138 141.289 40.8635 140.967 41.1582C140.652 41.442 140.379 41.7687 140.155 42.1286C139.962 42.4163 139.852 42.7523 139.838 43.0991C139.838 43.3536 139.887 43.5328 139.985 43.6368C140.035 43.6889 140.096 43.7297 140.163 43.7566C140.23 43.7835 140.302 43.7958 140.374 43.7927C140.626 43.7909 140.875 43.7409 141.108 43.6453C141.36 43.5442 141.601 43.4162 141.825 43.2635C142.061 43.1035 142.284 42.9239 142.49 42.7268C142.702 42.5246 142.901 42.3195 143.087 42.1117C143.062 42.0474 143.045 41.9805 143.035 41.9123C143.024 41.8421 143.018 41.7712 143.018 41.7002C143.02 41.4701 143.057 41.2417 143.13 41.0235C143.2 40.8025 143.293 40.5893 143.406 40.3872C143.501 40.2169 143.615 40.0573 143.743 39.911C143.859 39.7837 143.955 39.7201 144.037 39.7201C144.21 39.7201 144.297 39.8261 144.297 40.0488C144.277 40.3328 144.2 40.6098 144.071 40.8634C143.901 41.2372 143.692 41.5926 143.449 41.9239C143.466 42.0175 143.506 42.1052 143.567 42.1781C143.628 42.2511 143.706 42.3068 143.795 42.3397C143.928 42.39 144.068 42.4193 144.21 42.4267C144.426 42.4216 144.638 42.3684 144.832 42.2708C145.047 42.1689 145.255 42.0531 145.454 41.9239C145.49 41.8976 145.531 41.8799 145.575 41.872C145.584 41.8718 145.593 41.8737 145.601 41.8774C145.609 41.8812 145.617 41.8867 145.623 41.8936C145.628 41.9005 145.633 41.9086 145.635 41.9173C145.637 41.926 145.638 41.9352 145.636 41.9441ZM143.995 40.471C143.995 40.3447 143.943 40.2811 143.84 40.2811C143.702 40.5445 143.589 40.82 143.502 41.1041C143.445 41.2924 143.413 41.4875 143.408 41.6843C143.572 41.4633 143.717 41.2284 143.84 40.9822C143.925 40.8244 143.977 40.6501 143.99 40.471H143.995Z" fill="#525252"/>
<path d="M152.889 41.9272C152.889 41.9962 152.825 42.0662 152.698 42.1393C152.538 42.2433 152.353 42.3589 152.145 42.4861L151.559 42.8414C151.34 42.974 151.103 43.1098 150.85 43.2487C150.631 43.3661 150.385 43.4909 150.11 43.6231C149.885 43.7411 149.638 43.8085 149.384 43.8203C149.274 43.8253 149.165 43.7874 149.082 43.7143C149.039 43.6645 149.008 43.6066 148.988 43.544C148.969 43.4815 148.963 43.4156 148.97 43.3505C148.973 43.0403 149.063 42.7372 149.229 42.4755C149.395 42.2009 149.583 41.9399 149.79 41.695C149.993 41.4581 150.18 41.2531 150.352 41.0798C150.525 40.907 150.611 40.7797 150.611 40.6991C150.611 40.5835 150.542 40.5251 150.399 40.5251C150.164 40.5366 149.929 40.4983 149.709 40.4127C149.547 40.3385 149.426 40.173 149.345 39.9196C149.258 39.9907 149.186 40.0791 149.134 40.1794C148.994 40.3882 148.841 40.5877 148.676 40.7765C148.438 41.0517 148.184 41.3123 147.915 41.5571C147.568 41.8709 147.189 42.1467 146.784 42.3801C146.761 42.4034 146.735 42.4237 146.707 42.4405C146.683 42.4559 146.656 42.4651 146.628 42.4671C146.619 42.4683 146.609 42.4674 146.601 42.4643C146.592 42.4612 146.583 42.456 146.577 42.4492C146.57 42.4425 146.565 42.4342 146.562 42.4252C146.559 42.4161 146.558 42.4065 146.56 42.3971C146.56 42.3281 146.622 42.2581 146.749 42.1849C147.212 41.9078 147.638 41.5732 148.018 41.1891C148.323 40.8773 148.606 40.5442 148.864 40.1921C149.061 39.9226 149.243 39.6422 149.409 39.3522C149.51 39.154 149.638 38.9703 149.788 38.806C149.81 38.7805 149.836 38.7597 149.866 38.7448C149.896 38.7299 149.928 38.7211 149.962 38.719C150.03 38.719 150.067 38.7476 150.067 38.806C150.068 38.8154 150.067 38.8249 150.064 38.8338C150.061 38.8427 150.056 38.8509 150.049 38.8579C150.004 38.9163 149.932 39.0138 149.838 39.1528C149.771 39.2369 149.716 39.3301 149.674 39.4296C149.649 39.4837 149.637 39.5429 149.639 39.6024C149.659 39.7122 149.713 39.8126 149.795 39.8888C149.898 40.0097 150.083 40.0762 150.348 40.0882C150.578 40.0999 150.771 40.1083 150.918 40.1136C150.948 40.1093 150.98 40.1126 151.009 40.1232C151.038 40.1338 151.064 40.1513 151.085 40.1743C151.106 40.1973 151.121 40.225 151.128 40.2551C151.136 40.2852 151.136 40.3167 151.129 40.347C151.129 40.5068 151.049 40.6963 150.888 40.9154C150.727 41.1346 150.551 41.3644 150.359 41.6048C150.17 41.8451 149.993 42.0954 149.831 42.3546C149.681 42.5765 149.597 42.8365 149.588 43.1045C149.588 43.254 149.687 43.3293 149.882 43.3293C150.078 43.3293 150.342 43.2476 150.678 43.0864C150.815 43.0164 150.989 42.9273 151.196 42.8181C151.403 42.7089 151.61 42.5922 151.818 42.4713C152.025 42.3504 152.212 42.2369 152.379 42.133C152.491 42.0679 152.598 41.9926 152.696 41.9081C152.733 41.8819 152.774 41.8642 152.818 41.8562C152.828 41.8545 152.838 41.8552 152.847 41.8582C152.856 41.8611 152.865 41.8663 152.872 41.8733C152.879 41.8803 152.884 41.8888 152.887 41.8982C152.89 41.9076 152.89 41.9175 152.889 41.9272Z" fill="#525252"/>
<path d="M158.055 41.9445C158.055 42.0145 157.992 42.0834 157.865 42.1566C157.703 42.2627 157.519 42.3772 157.312 42.5034L156.725 42.8587C156.506 42.9923 156.269 43.127 156.017 43.266C155.935 43.3126 155.811 43.3784 155.644 43.4654C155.477 43.5523 155.3 43.6382 155.109 43.7252C154.918 43.8126 154.722 43.888 154.521 43.9511C154.346 44.0097 154.163 44.0419 153.978 44.0466C153.843 44.0535 153.709 44.0163 153.597 43.9405C153.547 43.895 153.508 43.8382 153.484 43.7748C153.46 43.7114 153.451 43.6431 153.459 43.5757C153.459 43.3452 153.577 43.0623 153.813 42.7272C154.053 42.3865 154.316 42.0623 154.6 41.7568C154.934 41.3863 155.314 41.0048 155.74 40.6124C155.759 40.5906 155.783 40.573 155.809 40.5606C155.836 40.5482 155.865 40.5413 155.894 40.5403C155.915 40.5373 155.937 40.5392 155.957 40.546C155.977 40.5528 155.995 40.5642 156.01 40.5793C156.026 40.5944 156.037 40.6129 156.044 40.6332C156.05 40.6534 156.052 40.675 156.049 40.6962C156.05 40.7282 156.045 40.76 156.033 40.7897C156.021 40.8195 156.003 40.8465 155.981 40.8691C155.875 40.9847 155.718 41.1501 155.506 41.3633C155.293 41.5765 155.083 41.8056 154.871 42.0474C154.668 42.2771 154.48 42.5206 154.31 42.776C154.148 43.0178 154.067 43.2257 154.068 43.3996C154.068 43.5619 154.173 43.6425 154.379 43.6425C154.505 43.6389 154.63 43.6186 154.751 43.582C154.894 43.5408 155.036 43.4916 155.174 43.4346C155.312 43.3763 155.441 43.3158 155.563 43.2522C155.685 43.1886 155.774 43.1398 155.847 43.1048C155.988 43.0341 156.161 42.9446 156.366 42.8364C156.577 42.7304 156.781 42.6105 156.988 42.4896C157.196 42.3687 157.383 42.2552 157.55 42.1513C157.662 42.086 157.768 42.0108 157.867 41.9265C157.903 41.9002 157.944 41.8824 157.988 41.8745C157.997 41.8734 158.007 41.8745 158.015 41.8777C158.024 41.8809 158.032 41.886 158.039 41.8928C158.045 41.8996 158.05 41.9077 158.053 41.9167C158.056 41.9257 158.057 41.9352 158.055 41.9445ZM157.865 38.5825C157.865 38.6626 157.848 38.7418 157.815 38.8149C157.782 38.888 157.734 38.9534 157.675 39.0067C157.613 39.0663 157.54 39.1129 157.46 39.1441C157.38 39.1752 157.294 39.1901 157.208 39.1881C157.185 39.1901 157.162 39.1873 157.139 39.1798C157.117 39.1723 157.097 39.1603 157.079 39.1446L157.001 39.0672C156.979 39.0363 156.967 38.9992 156.966 38.9611C156.966 38.8452 157.041 38.7179 157.191 38.5793C157.303 38.4564 157.458 38.3806 157.623 38.3672C157.785 38.3746 157.865 38.4446 157.865 38.5825Z" fill="#525252"/>
<path d="M167.369 41.9445C167.369 42.0145 167.306 42.0834 167.179 42.1566C167.017 42.2627 166.833 42.3772 166.626 42.5034L166.039 42.8587C165.82 42.9923 165.583 43.127 165.33 43.266C165.003 43.4502 164.662 43.6097 164.311 43.7432C164.101 43.8266 163.879 43.876 163.654 43.8896C163.331 43.8896 163.17 43.7453 163.17 43.4569C163.184 43.1903 163.256 42.9301 163.381 42.6943C163.528 42.3913 163.695 42.0989 163.883 41.8193C164.073 41.5365 164.254 41.2823 164.427 41.0568C164.599 40.8309 164.709 40.6951 164.755 40.6495C164.79 40.6191 164.819 40.582 164.84 40.5403C164.861 40.4986 164.873 40.4532 164.877 40.4067C164.878 40.3996 164.877 40.3924 164.875 40.3856C164.873 40.3788 164.869 40.3726 164.864 40.3675C164.859 40.3625 164.853 40.3587 164.846 40.3564C164.839 40.3542 164.832 40.3536 164.825 40.3547C164.72 40.4088 164.619 40.4698 164.522 40.5371C164.332 40.658 164.099 40.8118 163.831 40.9963C163.562 41.1809 163.264 41.3771 162.941 41.5849C162.619 41.7928 162.316 41.9901 162.034 42.1746C161.752 42.3592 161.505 42.5214 161.309 42.6593C161.112 42.7972 160.983 42.8788 160.936 42.9022C160.844 42.9515 160.755 43.0064 160.669 43.0666C160.563 43.1419 160.45 43.214 160.34 43.284C160.23 43.354 160.136 43.4166 160.055 43.4738C160.006 43.5128 159.954 43.5482 159.9 43.5799C159.844 43.6175 159.777 43.6357 159.71 43.6319C159.684 43.6354 159.658 43.6325 159.634 43.6235C159.61 43.6144 159.588 43.5994 159.571 43.5799C159.56 43.5693 159.554 43.5396 159.554 43.494C159.583 43.3904 159.637 43.2951 159.71 43.2161L161.541 41.0674C161.557 41.0542 161.569 41.038 161.578 41.0197C161.587 41.0015 161.592 40.9816 161.593 40.9613C161.593 40.8924 161.565 40.8553 161.507 40.8553C161.465 40.8575 161.423 40.8694 161.386 40.8903C161.36 40.9035 161.337 40.9211 161.317 40.9422C161.144 41.0462 160.956 41.1703 160.756 41.3145C160.554 41.4587 160.355 41.6009 160.159 41.7387C159.963 41.8766 159.782 42.0049 159.615 42.1205C159.447 42.2361 159.318 42.3231 159.226 42.3804C159.203 42.4037 159.177 42.424 159.148 42.4408C159.125 42.4562 159.099 42.4654 159.071 42.4673C159.061 42.4688 159.052 42.468 159.043 42.4649C159.034 42.4619 159.025 42.4568 159.018 42.45C159.012 42.4432 159.007 42.4349 159.004 42.4257C159.001 42.4166 159 42.4069 159.001 42.3973C159.001 42.3284 159.065 42.2584 159.192 42.1852C159.318 42.093 159.439 42.0039 159.554 41.9169C159.669 41.8299 159.79 41.7462 159.917 41.6655C160.159 41.4923 160.395 41.3248 160.625 41.1628C160.821 41.0214 161.04 40.8684 161.282 40.7036C161.524 40.5389 161.749 40.3915 161.956 40.2614C162.002 40.2391 162.062 40.2073 162.138 40.167C162.202 40.1296 162.275 40.1085 162.349 40.1055C162.393 40.1009 162.436 40.1134 162.471 40.1404C162.496 40.1622 162.516 40.1886 162.531 40.2183C162.545 40.248 162.554 40.2803 162.556 40.3133C162.556 40.4547 162.476 40.6223 162.314 40.816C162.269 40.8744 162.159 41.0016 161.986 41.1978C161.814 41.394 161.632 41.5987 161.442 41.813C161.251 42.0272 161.076 42.2202 160.913 42.3931C160.75 42.566 160.659 42.671 160.637 42.7049C160.61 42.7265 160.591 42.7575 160.585 42.7919C160.584 42.7989 160.585 42.8062 160.587 42.813C160.589 42.8198 160.593 42.826 160.598 42.831C160.603 42.8361 160.609 42.8399 160.616 42.8421C160.623 42.8443 160.63 42.8449 160.637 42.8438C160.648 42.8322 160.754 42.7632 160.954 42.6317C161.154 42.5002 161.401 42.3486 161.688 42.164C161.976 41.9795 162.288 41.7769 162.622 41.5574C162.956 41.3378 163.269 41.1331 163.563 40.9422L164.315 40.4565C164.522 40.3243 164.638 40.2536 164.661 40.2444C164.741 40.1997 164.819 40.1505 164.893 40.097L165.231 39.8636L165.548 39.6377C165.646 39.5688 165.707 39.5317 165.73 39.5168C165.785 39.475 165.851 39.4506 165.92 39.4468C165.947 39.4461 165.974 39.4521 165.998 39.4644C166.022 39.4766 166.042 39.4946 166.058 39.5168C166.077 39.5492 166.089 39.5854 166.093 39.6229C166.092 39.6817 166.074 39.739 166.041 39.7873C166.01 39.8341 165.974 39.8777 165.935 39.9177C165.512 40.3787 165.16 40.78 164.878 41.1215C164.643 41.405 164.426 41.7033 164.229 42.0145C164.101 42.2162 163.991 42.4292 163.902 42.6508C163.847 42.78 163.814 42.9178 163.806 43.0581C163.803 43.1378 163.824 43.2167 163.867 43.284C163.899 43.3345 163.944 43.376 163.997 43.4049C164.021 43.4228 164.049 43.4352 164.079 43.4412C164.109 43.4473 164.14 43.4468 164.169 43.4399C164.275 43.4373 164.379 43.4198 164.48 43.3879C164.587 43.3564 164.691 43.3156 164.791 43.266C164.906 43.2207 165.022 43.1687 165.137 43.11C165.278 43.0393 165.45 42.9499 165.655 42.8417C165.859 42.7335 166.067 42.6179 166.278 42.4949C166.489 42.374 166.672 42.2605 166.839 42.1566C166.952 42.0916 167.058 42.0163 167.156 41.9318C167.192 41.9054 167.233 41.8877 167.277 41.8798C167.287 41.8736 167.299 41.8705 167.311 41.8709C167.323 41.8712 167.334 41.8751 167.344 41.882C167.354 41.8888 167.361 41.8984 167.366 41.9095C167.37 41.9206 167.371 41.9328 167.369 41.9445Z" fill="#525252"/>
<path d="M174.707 41.9794C174.707 42.0483 174.644 42.1183 174.518 42.1915C174.425 42.2381 174.216 42.3707 173.883 42.5903C173.501 42.8416 173.106 43.0731 172.7 43.2839C172.331 43.4797 171.982 43.6703 171.654 43.8555C171.326 44.0408 171.012 44.2257 170.712 44.4102C170.308 44.8832 169.89 45.3683 169.457 45.8653L168.188 47.313C167.779 47.7804 167.387 48.2251 167.011 48.6472C166.635 49.0693 166.3 49.4359 166.006 49.747C165.712 50.0588 165.466 50.3063 165.266 50.4894C165.067 50.6725 164.939 50.762 164.884 50.7577C164.843 50.756 164.802 50.745 164.766 50.7255C164.729 50.7061 164.697 50.6787 164.673 50.6453C164.609 50.57 164.578 50.4173 164.578 50.1861C164.578 49.8043 164.742 49.368 165.07 48.8773C165.454 48.3234 165.895 47.8121 166.387 47.3522C166.987 46.7833 167.623 46.2537 168.29 45.7667C169.012 45.235 169.765 44.7326 170.549 44.2596C170.792 43.9697 171.023 43.6869 171.242 43.4111C171.46 43.1354 171.668 42.8695 171.866 42.6136C171.893 42.5926 171.912 42.5619 171.918 42.5277C171.918 42.516 171.906 42.5097 171.883 42.5097C171.873 42.509 171.864 42.5103 171.855 42.5133C171.846 42.5164 171.838 42.5213 171.831 42.5277C171.751 42.585 171.579 42.6974 171.319 42.8649C171.059 43.0325 170.764 43.2065 170.435 43.3846C170.109 43.5621 169.773 43.7214 169.429 43.8619C169.148 43.9889 168.844 44.0608 168.536 44.074C168.377 44.0824 168.22 44.0331 168.094 43.9351C167.984 43.8431 167.929 43.6816 167.929 43.4504C167.946 43.2137 168.027 42.9862 168.163 42.7918C168.344 42.5058 168.557 42.2411 168.797 42.0027C169.079 41.7169 169.38 41.4507 169.698 41.2062C170.031 40.9475 170.381 40.7129 170.747 40.5041C171.09 40.306 171.45 40.1378 171.821 40.0014C172.129 39.8829 172.454 39.8183 172.784 39.8105C172.874 39.8024 172.964 39.8204 173.044 39.8625C173.07 39.8865 173.089 39.9164 173.101 39.9495C173.114 39.9827 173.118 40.0183 173.114 40.0534C173.114 40.1573 172.98 40.2931 172.714 40.4606C172.447 40.6282 172.115 40.8131 171.717 41.0153C171.318 41.2175 170.879 41.4296 170.399 41.6516L169.037 42.2753C168.896 42.4324 168.771 42.6037 168.665 42.7865C168.587 42.9146 168.542 43.0606 168.535 43.2107C168.535 43.373 168.58 43.4822 168.672 43.5395C168.777 43.601 168.897 43.6312 169.018 43.6264C169.203 43.6224 169.387 43.5902 169.563 43.531C169.764 43.4674 169.957 43.3984 170.141 43.3189C170.312 43.2498 170.479 43.1719 170.642 43.0855C170.792 43.0039 170.896 42.9466 170.953 42.9116C171.287 42.715 171.573 42.533 171.809 42.3654C171.962 42.2622 172.11 42.1496 172.25 42.0282C172.333 41.9549 172.435 41.9067 172.544 41.8892C172.563 41.8874 172.582 41.8913 172.599 41.9006C172.616 41.9099 172.629 41.924 172.638 41.9412C172.655 41.9738 172.664 42.0102 172.664 42.0472C172.668 42.0773 172.662 42.1079 172.647 42.1342C172.62 42.1914 172.585 42.2439 172.542 42.2901C172.484 42.3591 172.421 42.4375 172.352 42.5234C172.286 42.6084 172.216 42.6895 172.141 42.7663C172.082 42.8233 172.028 42.8843 171.978 42.9487C171.84 43.1099 171.704 43.2669 171.567 43.4249C171.429 43.583 171.293 43.7431 171.156 43.9011C171.386 43.7749 171.614 43.6498 171.838 43.5289C172.062 43.408 172.29 43.2892 172.52 43.1736C172.661 43.1029 172.834 43.0078 173.04 42.8883C173.251 42.7663 173.451 42.6454 173.653 42.5234C173.855 42.4015 174.036 42.2933 174.196 42.1947C174.307 42.1341 174.411 42.0631 174.508 41.9825C174.544 41.9562 174.585 41.9385 174.629 41.9306C174.637 41.928 174.646 41.9273 174.655 41.9285C174.663 41.9296 174.672 41.9326 174.679 41.9372C174.687 41.9418 174.693 41.948 174.698 41.9552C174.703 41.9625 174.706 41.9707 174.707 41.9794ZM170.109 44.7825C169.187 45.356 168.307 45.9962 167.477 46.6979C166.92 47.1689 166.401 47.6847 165.927 48.2399C165.563 48.6847 165.321 49.0573 165.199 49.3578C165.1 49.5708 165.039 49.7994 165.018 50.0334C165.018 50.1034 165.047 50.1394 165.104 50.1394C165.185 50.1394 165.39 49.9807 165.72 49.6632C166.049 49.3458 166.45 48.9328 166.923 48.4245C167.396 47.9154 167.913 47.3434 168.472 46.7085C169.032 46.0735 169.578 45.4315 170.109 44.7825ZM172.638 40.1732C172.638 40.0671 172.564 40.0173 172.414 40.0173C172.198 40.0307 171.988 40.0865 171.794 40.1817C171.516 40.3053 171.248 40.45 170.992 40.6144C170.71 40.7933 170.426 40.9955 170.14 41.2211C169.868 41.4332 169.609 41.6621 169.365 41.9062C169.731 41.7323 170.108 41.5555 170.493 41.3759C170.878 41.1977 171.233 41.0291 171.544 40.8732C171.855 40.7173 172.121 40.5794 172.328 40.4574C172.535 40.3355 172.638 40.2464 172.638 40.1775V40.1732Z" fill="#525252"/>
<path d="M180.708 38.3055C180.708 38.4222 180.638 38.57 180.497 38.7488C180.326 38.956 180.142 39.1506 179.943 39.3311C179.718 39.5432 179.464 39.7635 179.183 39.9918C178.902 40.2202 178.622 40.4404 178.345 40.6526C178.389 40.8778 178.453 41.0988 178.535 41.3133C178.615 41.5212 178.696 41.7237 178.777 41.921C178.858 42.1183 178.929 42.3237 178.989 42.5372C179.054 42.7661 179.086 43.0033 179.084 43.2414C179.092 43.397 179.056 43.5517 178.982 43.6882C178.907 43.8248 178.796 43.9378 178.661 44.0146C178.364 44.1868 178.026 44.2741 177.684 44.267C177.393 44.2661 177.104 44.2163 176.829 44.1196C176.554 44.0273 176.301 43.8764 176.089 43.6773C176.065 43.6521 176.047 43.6222 176.035 43.5896C176.023 43.5569 176.018 43.5221 176.02 43.4875C176.02 43.4408 176.037 43.4175 176.072 43.4175C176.137 43.427 176.198 43.4575 176.244 43.5044C176.443 43.6706 176.668 43.8025 176.91 43.8947C177.106 43.9663 177.314 44.0043 177.523 44.0072C177.798 44.02 178.067 43.9266 178.275 43.7462C178.367 43.6635 178.441 43.5616 178.49 43.4475C178.539 43.3334 178.563 43.2098 178.56 43.0855C178.557 42.9263 178.53 42.7684 178.482 42.6167C178.43 42.4428 178.37 42.266 178.301 42.0865C178.233 41.9069 178.162 41.7184 178.09 41.5212C178.023 41.3346 177.97 41.1431 177.933 40.9485L177.061 41.5848C176.813 41.764 176.661 41.8775 176.603 41.9231C176.497 42.0048 176.391 42.0833 176.275 42.1586C176.159 42.2339 176.038 42.306 175.912 42.3707C175.889 42.3941 175.862 42.4147 175.834 42.4322C175.811 42.4473 175.784 42.4561 175.757 42.4577C175.747 42.4591 175.738 42.4582 175.729 42.4553C175.72 42.4523 175.712 42.4473 175.705 42.4406C175.698 42.434 175.693 42.4258 175.69 42.4168C175.687 42.4078 175.686 42.3982 175.687 42.3887C175.687 42.3187 175.75 42.2498 175.877 42.1766L176.188 41.9645C176.294 41.8956 176.39 41.8266 176.482 41.7524C176.539 41.7057 176.704 41.5869 176.975 41.396C177.246 41.2051 177.554 40.9718 177.899 40.7098C177.886 40.6293 177.88 40.5476 177.881 40.4659C177.892 40.1684 177.991 39.8809 178.167 39.6408C178.361 39.3523 178.594 39.0918 178.858 38.8666C179.115 38.6448 179.396 38.4527 179.696 38.2939C179.922 38.1615 180.175 38.0841 180.436 38.0679C180.472 38.0647 180.509 38.0691 180.543 38.081C180.577 38.0929 180.609 38.1119 180.635 38.1369C180.658 38.1585 180.676 38.1847 180.689 38.2137C180.701 38.2426 180.708 38.2739 180.708 38.3055ZM180.138 38.7043C180.138 38.612 180.086 38.5654 179.983 38.5654C179.807 38.5762 179.635 38.6265 179.481 38.7128C179.281 38.8139 179.095 38.942 178.928 39.0935C178.76 39.2442 178.612 39.416 178.487 39.6047C178.376 39.7624 178.313 39.9493 178.306 40.1424V40.4192C178.536 40.2464 178.761 40.0671 178.98 39.8826C179.199 39.698 179.395 39.5273 179.568 39.3714C179.713 39.2427 179.851 39.1068 179.983 38.9641C180.06 38.8959 180.114 38.805 180.138 38.7043Z" fill="#525252"/>
</svg>
