<svg width="26" height="26" viewBox="0 0 26 26" fill="none" xmlns="http://www.w3.org/2000/svg">
<path d="M24.8659 4.1216L21.4046 0.664724C20.9821 0.242361 20.4166 0.00518799 19.8186 0.00518799C19.2206 0.00518799 18.6551 0.239112 18.2326 0.664724L14.5048 4.38477C14.0823 4.80713 13.8451 5.3757 13.8451 5.9735C13.8451 6.57456 14.0791 7.13662 14.5048 7.56224L17.4168 10.4765C16.7534 12.0217 15.8003 13.4256 14.6088 14.6124C13.4161 15.8113 12.0218 16.7568 10.4748 17.426L7.56278 14.5117C7.14028 14.0894 6.57478 13.8522 5.97678 13.8522C5.68181 13.8511 5.3896 13.9089 5.11726 14.0221C4.84492 14.1354 4.59793 14.3018 4.39077 14.5117L0.659753 18.2318C0.237251 18.6541 0 19.2227 0 19.8205C0 20.4216 0.234001 20.9836 0.659753 21.4092L4.11777 24.8661C4.83927 25.5874 5.83378 26 6.85428 26C7.06553 26 7.27028 25.9838 7.47828 25.948C11.7813 25.2397 16.0518 22.9492 19.5001 19.5054C22.9451 16.055 25.2331 11.7859 25.9481 7.48101C26.1529 6.25941 25.7434 5.00207 24.8659 4.1216ZM23.6439 7.09439C23.0101 10.9249 20.9496 14.7457 17.8458 17.8484C14.7421 20.9511 10.9233 23.011 7.09153 23.6445C6.61053 23.7257 6.11653 23.5633 5.76552 23.2157L2.36926 19.8205L5.97028 16.2174L9.86379 20.1162L9.89304 20.1454L10.595 19.8855C12.7236 19.1032 14.6565 17.8675 16.2598 16.2641C17.8631 14.6608 19.0985 12.7281 19.8803 10.6L20.1403 9.89823L16.2143 5.97675L19.8153 2.37367L23.2116 5.76882C23.5626 6.1197 23.7251 6.61354 23.6439 7.09439Z" fill="#A5A5A5"/>
</svg>
