<svg width="22" height="27" viewBox="0 0 22 27" fill="none" xmlns="http://www.w3.org/2000/svg">
<path d="M17.2018 11.9472C17.6506 12.0777 18.0779 12.2547 18.4837 12.4783C18.8895 12.702 19.3145 13.0421 19.7585 13.4986C20.2025 13.9552 20.582 14.4933 20.8971 15.1129C21.2122 15.7326 21.4748 16.5339 21.6849 17.517C21.895 18.5 22 19.6018 22 20.8225C22 22.2574 21.5226 23.485 20.5677 24.5053C19.6128 25.5256 18.4622 26.0358 17.1159 26.0358H4.88411C3.53776 26.0358 2.38715 25.5256 1.43229 24.5053C0.477431 23.485 0 22.2574 0 20.8225C0 19.6018 0.105035 18.5 0.315104 17.517C0.525174 16.5339 0.78776 15.7326 1.10286 15.1129C1.41797 14.4933 1.79753 13.9552 2.24154 13.4986C2.68555 13.0421 3.11046 12.702 3.51628 12.4783C3.92209 12.2547 4.34939 12.0777 4.79818 11.9472C4.04384 10.7825 3.66667 9.51525 3.66667 8.14552C3.66667 7.17647 3.86003 6.25167 4.24675 5.37113C4.63346 4.49059 5.15625 3.72886 5.8151 3.08593C6.47396 2.443 7.25456 1.93284 8.1569 1.55547C9.05925 1.1781 10.0069 0.98941 11 0.98941C11.9931 0.98941 12.9408 1.1781 13.8431 1.55547C14.7454 1.93284 15.526 2.443 16.1849 3.08593C16.8438 3.72886 17.3665 4.49059 17.7533 5.37113C18.14 6.25167 18.3333 7.17647 18.3333 8.14552C18.3333 9.51525 17.9562 10.7825 17.2018 11.9472ZM11 2.77844C9.48177 2.77844 8.18555 3.30257 7.11133 4.35083C6.03711 5.39908 5.5 6.66398 5.5 8.14552C5.5 9.62706 6.03711 10.892 7.11133 11.9402C8.18555 12.9885 9.48177 13.5126 11 13.5126C12.5182 13.5126 13.8145 12.9885 14.8887 11.9402C15.9629 10.892 16.5 9.62706 16.5 8.14552C16.5 6.66398 15.9629 5.39908 14.8887 4.35083C13.8145 3.30257 12.5182 2.77844 11 2.77844ZM17.1159 24.2468C17.9562 24.2468 18.6747 23.9137 19.2715 23.2474C19.8683 22.5812 20.1667 21.7729 20.1667 20.8225C20.1667 18.5955 19.7919 16.8391 19.0423 15.5532C18.2928 14.2674 17.2161 13.5918 15.8125 13.5266C14.428 14.7099 12.8238 15.3016 11 15.3016C9.17622 15.3016 7.57205 14.7099 6.1875 13.5266C4.78385 13.5918 3.70725 14.2674 2.95768 15.5532C2.20812 16.8391 1.83333 18.5955 1.83333 20.8225C1.83333 21.7729 2.13173 22.5812 2.72852 23.2474C3.3253 23.9137 4.04384 24.2468 4.88411 24.2468H17.1159Z" fill="#A5A5A5"/>
</svg>
