<svg width="28" height="26" viewBox="0 0 28 26" fill="none" xmlns="http://www.w3.org/2000/svg">
<path fill-rule="evenodd" clip-rule="evenodd" d="M7.00024 17.9201H3.50024V23.2872H7.00024V17.9201ZM15.7502 10.764H12.2502V23.2872H15.7502V10.764ZM24.5002 1.81886H21.0002V23.2872H24.5002V1.81886ZM21.0002 0.0298309C20.5361 0.0298309 20.091 0.218317 19.7628 0.553825C19.4346 0.889333 19.2502 1.34438 19.2502 1.81886V23.2872C19.2502 23.7617 19.4346 24.2167 19.7628 24.5522C20.091 24.8877 20.5361 25.0762 21.0002 25.0762H24.5002C24.9644 25.0762 25.4095 24.8877 25.7377 24.5522C26.0659 24.2167 26.2502 23.7617 26.2502 23.2872V1.81886C26.2502 1.34438 26.0659 0.889333 25.7377 0.553825C25.4095 0.218317 24.9644 0.0298309 24.5002 0.0298309H21.0002ZM10.5002 10.764C10.5002 10.2895 10.6846 9.83447 11.0128 9.49896C11.341 9.16346 11.7861 8.97497 12.2502 8.97497H15.7502C16.2144 8.97497 16.6595 9.16346 16.9877 9.49896C17.3159 9.83447 17.5002 10.2895 17.5002 10.764V23.2872C17.5002 23.7617 17.3159 24.2167 16.9877 24.5522C16.6595 24.8877 16.2144 25.0762 15.7502 25.0762H12.2502C11.7861 25.0762 11.341 24.8877 11.0128 24.5522C10.6846 24.2167 10.5002 23.7617 10.5002 23.2872V10.764ZM1.75024 17.9201C1.75024 17.4456 1.93462 16.9906 2.26281 16.6551C2.591 16.3196 3.03612 16.1311 3.50024 16.1311H7.00024C7.46437 16.1311 7.90949 16.3196 8.23768 16.6551C8.56587 16.9906 8.75024 17.4456 8.75024 17.9201V23.2872C8.75024 23.7617 8.56587 24.2167 8.23768 24.5522C7.90949 24.8877 7.46437 25.0762 7.00024 25.0762H3.50024C3.03612 25.0762 2.591 24.8877 2.26281 24.5522C1.93462 24.2167 1.75024 23.7617 1.75024 23.2872V17.9201Z" fill="#A5A5A5"/>
<path fill-rule="evenodd" clip-rule="evenodd" d="M0 24.1813C0 23.9441 0.0921872 23.7167 0.256282 23.549C0.420376 23.3813 0.642936 23.2871 0.875 23.2871H27.125C27.3571 23.2871 27.5796 23.3813 27.7437 23.549C27.9078 23.7167 28 23.9441 28 24.1813C28 24.4184 27.9078 24.6459 27.7437 24.8136C27.5796 24.9813 27.3571 25.0755 27.125 25.0755H0.875C0.642936 25.0755 0.420376 24.9813 0.256282 24.8136C0.0921872 24.6459 0 24.4184 0 24.1813Z" fill="#A5A5A5"/>
</svg>
