<svg width="28" height="28" viewBox="0 0 28 28" fill="none" xmlns="http://www.w3.org/2000/svg">
<path d="M10.4545 26.0116C11.1072 26.0116 11.6363 25.4817 11.6363 24.828C11.6363 24.1743 11.1072 23.6444 10.4545 23.6444C9.80182 23.6444 9.27271 24.1743 9.27271 24.828C9.27271 25.4817 9.80182 26.0116 10.4545 26.0116Z" stroke="#A5A5A5" stroke-width="2" stroke-linecap="round" stroke-linejoin="round"/>
<path d="M23.4545 26.0116C24.1072 26.0116 24.6363 25.4817 24.6363 24.828C24.6363 24.1743 24.1072 23.6444 23.4545 23.6444C22.8018 23.6444 22.2727 24.1743 22.2727 24.828C22.2727 25.4817 22.8018 26.0116 23.4545 26.0116Z" stroke="#A5A5A5" stroke-width="2" stroke-linecap="round" stroke-linejoin="round"/>
<path d="M1 1.14824H5.72727L8.89454 17.0021C9.00262 17.5473 9.29862 18.0369 9.73074 18.3854C10.1629 18.7339 10.7036 18.9191 11.2582 18.9084H22.7455C23.3001 18.9191 23.8408 18.7339 24.2729 18.3854C24.705 18.0369 25.001 17.5473 25.1091 17.0021L27 7.06829H6.90909" stroke="#A5A5A5" stroke-width="2" stroke-linecap="round" stroke-linejoin="round"/>
</svg>
