<svg width="10" height="38" viewBox="0 0 10 38" fill="none" xmlns="http://www.w3.org/2000/svg">
<path fill-rule="evenodd" clip-rule="evenodd" d="M2.62967 24.9617C2.2783 24.2005 2.02706 23.0413 1.87656 21.4841H1.88029L1.07742 9.46341C0.927542 7.1201 0.851671 5.43849 0.851671 4.41796C0.851671 3.02864 1.21548 1.94467 1.9431 1.1673C2.67196 0.389308 3.62906 0 4.81813 0C4.85168 0 4.88135 0.00424708 4.91117 0.00851519C4.93607 0.0120798 4.96108 0.0156591 4.98853 0.0167912C5.01592 0.0156618 5.04074 0.0120968 5.06551 0.00854053C5.09528 0.00426391 5.12498 0 5.15893 0C6.34675 0 7.3051 0.38993 8.03458 1.1673C8.76096 1.94405 9.12477 3.02802 9.12477 4.41734C9.12477 5.43725 9.04952 7.11948 8.89902 9.46279L8.09553 21.4841C7.94565 23.0413 7.69378 24.2005 7.34366 24.9617C6.99042 25.7223 6.36292 26.1041 5.45931 26.1041C5.29015 26.1041 5.13965 26.0762 4.98729 26.0476C4.83617 26.0762 4.6838 26.1041 4.51402 26.1041C3.60916 26.1041 2.98042 25.7223 2.62967 24.9617ZM2.06853 31.5852C2.88168 30.8597 3.86324 30.4946 5.01259 30.4944C6.1638 30.4946 7.13541 30.8597 7.92867 31.5846C8.72283 32.3147 9.12084 33.1965 9.12084 34.2326C9.12084 35.4223 8.70852 36.347 7.87705 37.0081C7.04557 37.668 6.07355 38 4.95786 38C3.86395 38 2.90498 37.663 2.08159 36.9938C1.26068 36.3259 0.849609 35.4074 0.849609 34.2332C0.849609 33.1971 1.25633 32.3153 2.06853 31.5852ZM5.01259 30.4944C5.013 30.4944 5.01342 30.4944 5.01383 30.4944H5.01135C5.01176 30.4944 5.01218 30.4944 5.01259 30.4944Z" fill="#FF0F00"/>
</svg>
