<svg width="41" height="40" viewBox="0 0 41 40" fill="none" xmlns="http://www.w3.org/2000/svg">
<path d="M39.2115 6.33421L33.7534 1.01487C33.0871 0.364955 32.1954 0 31.2524 0C30.3094 0 29.4176 0.359955 28.7514 1.01487L22.873 6.73916C22.2067 7.38908 21.8326 8.26397 21.8326 9.18385C21.8326 10.1087 22.2016 10.9736 22.873 11.6285L27.465 16.113C26.4189 18.4906 24.9158 20.6509 23.037 22.4772C21.1561 24.322 18.9575 25.7768 16.5179 26.8067L11.9259 22.3222C11.2597 21.6723 10.3679 21.3073 9.42492 21.3073C8.95978 21.3057 8.49899 21.3946 8.06953 21.5688C7.64007 21.7431 7.25059 21.9992 6.92391 22.3222L1.04038 28.0465C0.374127 28.6964 0 29.5713 0 30.4912C0 31.4161 0.369002 32.281 1.04038 32.9359L6.4934 38.2552C7.63116 39.3651 9.19942 40 10.8087 40C11.1418 40 11.4647 39.975 11.7927 39.92C18.5782 38.8301 25.3125 35.3056 30.7501 30.0063C36.1827 24.6969 39.7907 18.1277 40.9182 11.5036C41.2411 9.6238 40.5953 7.68904 39.2115 6.33421ZM37.2845 10.9086C36.2852 16.8029 33.0359 22.6822 28.1415 27.4566C23.2471 32.231 17.2252 35.4006 11.1828 36.3755C10.4243 36.5004 9.64529 36.2505 9.09179 35.7155L3.73614 30.4912L9.41467 24.9469L15.5544 30.9461L15.6006 30.9911L16.7076 30.5912C20.0641 29.3874 23.1121 27.486 25.6404 25.0188C28.1687 22.5516 30.1169 19.5776 31.3498 16.303L31.7598 15.2231L25.5687 9.18885L31.2473 3.64454L36.6029 8.86889C37.1564 9.40882 37.4127 10.1687 37.2845 10.9086Z" fill="#A5A5A5"/>
</svg>
