<svg width="50" height="50" viewBox="0 0 50 50" fill="none" xmlns="http://www.w3.org/2000/svg">
<path d="M28.332 46.6632C38.4564 46.6632 46.6639 38.4557 46.6639 28.3312C46.6639 18.2068 38.4564 9.99927 28.332 9.99927C18.2075 9.99927 10 18.2068 10 28.3312C10.0115 38.4509 18.2122 46.6517 28.332 46.6632ZM14.1664 27.498H11.709C12.1434 18.9639 18.9646 12.1426 27.4987 11.7083V14.1656C27.4987 14.6258 27.8718 14.9989 28.332 14.9989C28.7921 14.9989 29.1652 14.6258 29.1652 14.1656V11.7083C37.6993 12.1426 44.5205 18.9639 44.9549 27.498H41.6643C41.2041 27.498 40.831 27.8711 40.831 28.3312C40.831 28.7914 41.2041 29.1645 41.6643 29.1645H44.9549C44.5205 37.6984 37.6993 44.5198 29.1652 44.9541V42.4968C29.1652 42.0367 28.7921 41.6636 28.332 41.6636C27.8718 41.6636 27.4987 42.0367 27.4987 42.4968V44.9541C18.9647 44.5198 12.1434 37.6985 11.709 29.1645H14.1664C14.6265 29.1645 14.9996 28.7914 14.9996 28.3312C14.9996 27.8711 14.6265 27.498 14.1664 27.498Z" fill="#FFB100"/>
<path d="M47.094 17.5131C46.8456 17.0827 46.5824 16.661 46.3049 16.2488L48.3623 14.1914C48.6875 13.866 48.6875 13.3386 48.3623 13.0132L43.6543 8.30521C43.3289 7.97992 42.8014 7.97992 42.476 8.30521L40.4154 10.3592C37.0821 8.10877 33.1853 6.83667 29.1662 6.687V1.66654H34.9991C35.4593 1.66654 35.8324 1.29344 35.8324 0.833271C35.8324 0.373097 35.4593 0 34.9991 0H21.6668C21.2066 0 20.8335 0.373097 20.8335 0.833271C20.8335 1.29344 21.2066 1.66654 21.6668 1.66654H27.4997V6.6945C20.0681 6.97823 13.3028 11.0581 9.58433 17.4987H5.00134C4.54117 17.4987 4.16807 17.8718 4.16807 18.332C4.16807 18.7921 4.54117 19.1652 5.00134 19.1652H10.001C10.0226 19.1652 10.041 19.1544 10.0626 19.1527C10.3629 19.1566 10.6414 18.997 10.7901 18.7361C16.0917 9.04682 28.2441 5.4898 37.9335 10.7913C47.6228 16.0928 51.1796 28.2454 45.8782 37.9347C40.5766 47.6239 28.4242 51.181 18.7348 45.8795C15.3817 44.0448 12.6246 41.2877 10.79 37.9347C10.6428 37.6727 10.3647 37.5115 10.0642 37.5139C10.0425 37.5139 10.0234 37.5014 10.0009 37.5014H5.00124C4.54107 37.5014 4.16797 37.8745 4.16797 38.3346C4.16797 38.7948 4.54107 39.1679 5.00124 39.1679H9.58423C15.5641 49.5259 28.8085 53.0752 39.1665 47.0953C49.5246 41.1155 53.0738 27.871 47.094 17.5131ZM41.777 11.3606L43.065 10.0726L46.5948 13.6023L45.3049 14.8922C44.2675 13.5844 43.0838 12.3995 41.777 11.3606Z" fill="#FFB100"/>
<path d="M8.33271 28.3313C8.33271 27.8711 7.95961 27.498 7.49944 27.498H0.833271C0.373097 27.498 0 27.8711 0 28.3313C0 28.7915 0.373097 29.1646 0.833271 29.1646H7.49944C7.95961 29.1646 8.33271 28.7915 8.33271 28.3313Z" fill="#FFB100"/>
<path d="M2.49929 24.1648H8.33218C8.79235 24.1648 9.16545 23.7917 9.16545 23.3316C9.16545 22.8714 8.79235 22.4983 8.33218 22.4983H2.49929C2.03911 22.4983 1.66602 22.8714 1.66602 23.3316C1.66602 23.7917 2.03901 24.1648 2.49929 24.1648Z" fill="#FFB100"/>
<path d="M9.16545 33.3308C9.16545 32.8707 8.79235 32.4976 8.33218 32.4976H2.49929C2.03911 32.4976 1.66602 32.8707 1.66602 33.3308C1.66602 33.791 2.03911 34.1641 2.49929 34.1641H8.33218C8.79235 34.1641 9.16545 33.791 9.16545 33.3308Z" fill="#FFB100"/>
<path d="M26.0759 33.9199C26.4013 34.2452 26.9287 34.2452 27.2541 33.9199L38.8366 22.3374C39.1564 22.0064 39.1472 21.4789 38.8162 21.1592C38.4933 20.8473 37.9814 20.8473 37.6584 21.1592L26.665 32.1525L21.7071 27.1946C21.376 26.8749 20.8485 26.884 20.5288 27.215C20.217 27.5379 20.217 28.0498 20.5288 28.3728L26.0759 33.9199Z" fill="#FFB100"/>
</svg>
