<svg width="50" height="50" viewBox="0 0 50 50" fill="none" xmlns="http://www.w3.org/2000/svg">
<path d="M46.919 3.91406H3.08096C1.38203 3.91406 0 5.29609 0 6.99492V36.7423C0 38.4411 1.38203 39.8231 3.08096 39.8231H17.9077L17.308 44.6209H14.8232C14.4187 44.6209 14.0908 44.9488 14.0908 45.3533C14.0908 45.7578 14.4187 46.0857 14.8232 46.0857H35.1768C35.5813 46.0857 35.9092 45.7578 35.9092 45.3533C35.9092 44.9488 35.5813 44.6209 35.1768 44.6209H32.6921L32.0923 39.8231H46.919C48.6179 39.8231 50 38.4411 50 36.7423V6.99492C50 5.29609 48.618 3.91406 46.919 3.91406ZM18.7843 44.6209L19.3841 39.8231H22.0797L22.3441 40.8808C22.6494 42.1018 23.7416 42.9544 25.0001 42.9544C26.2586 42.9544 27.3508 42.1018 27.6561 40.8808L27.9205 39.8231H30.6161L31.2157 44.6209H18.7843ZM23.5896 39.8231H26.4104L26.2348 40.5255C26.0929 41.0932 25.5852 41.4896 24.9999 41.4896C24.4146 41.4896 23.907 41.0931 23.765 40.5255L23.5896 39.8231ZM48.5352 36.7423C48.5352 37.6334 47.8102 38.3583 46.919 38.3583H3.08096C2.18984 38.3583 1.46484 37.6334 1.46484 36.7423V6.99492C1.46484 6.10381 2.18984 5.37891 3.08096 5.37891H46.919C47.8102 5.37891 48.5352 6.10381 48.5352 6.99492V36.7423Z" fill="#FFB100"/>
<path d="M41.4389 7.04541H3.86328C3.45869 7.04541 3.13086 7.37324 3.13086 7.77783V35.9595C3.13086 36.3641 3.45869 36.6919 3.86328 36.6919H5.429C5.83359 36.6919 6.16143 36.3641 6.16143 35.9595C6.16152 35.555 5.83359 35.2271 5.4291 35.2271H4.5958V8.51025H41.4389C41.8435 8.51025 42.1713 8.18232 42.1713 7.77783C42.1713 7.37324 41.8435 7.04541 41.4389 7.04541Z" fill="#FFB100"/>
<path d="M46.1361 7.04541H44.5704C44.1658 7.04541 43.838 7.37324 43.838 7.77783C43.838 8.18232 44.1658 8.51025 44.5704 8.51025H45.4037V35.2271H8.56055C8.15596 35.2271 7.82812 35.555 7.82812 35.9595C7.82812 36.3641 8.15596 36.6919 8.56055 36.6919H46.136C46.5406 36.6919 46.8685 36.3641 46.8685 35.9595V7.77783C46.8686 7.37324 46.5406 7.04541 46.1361 7.04541Z" fill="#FFB100"/>
<path d="M34.9711 15.1548C34.8395 14.9866 34.6409 14.8842 34.4277 14.8746L17.2056 14.0917C17.1921 14.0911 17.1789 14.0908 17.1653 14.091C17.0634 13.7563 16.848 13.4661 16.5564 13.2715L14.4473 11.8655C14.1107 11.6412 13.656 11.7321 13.4316 12.0687C13.2073 12.4053 13.2982 12.86 13.6348 13.0843L15.7438 14.4902C15.7537 14.4968 15.761 14.5069 15.7644 14.5184L18.4508 23.9208C18.5346 24.214 18.6725 24.4775 18.8495 24.705L17.8666 26.6708C17.63 27.144 17.6548 27.6951 17.9329 28.1451C18.0338 28.3083 18.1617 28.4472 18.3087 28.5585C18.1163 28.8944 18.0057 29.2829 18.0057 29.6969C18.0057 30.9641 19.0366 31.995 20.3037 31.995C21.5708 31.995 22.6018 30.964 22.6018 29.6969C22.6018 29.4031 22.5457 29.1222 22.4447 28.8637H29.1222C29.0212 29.1222 28.9652 29.4031 28.9652 29.6969C28.9652 30.9641 29.9961 31.995 31.2632 31.995C32.5303 31.995 33.5612 30.964 33.5612 29.6969C33.5612 29.3293 33.474 28.982 33.3199 28.6736C33.4678 28.5396 33.5612 28.3466 33.5612 28.1313C33.5612 27.7268 33.2334 27.3989 32.8288 27.3989H19.2216C19.2111 27.3989 19.1935 27.3989 19.1787 27.375C19.164 27.3511 19.1719 27.3354 19.1766 27.3259L20.082 25.5151C20.2663 25.5625 20.4583 25.588 20.6548 25.588C20.7453 25.588 20.8367 25.5827 20.9287 25.5719L31.2203 24.3612C32.5495 24.2047 33.619 23.218 33.8815 21.9055L35.1125 15.7499C35.1544 15.5404 35.1028 15.3231 34.9711 15.1548ZM31.263 28.8639C31.7225 28.8639 32.0962 29.2377 32.0962 29.6971C32.0962 30.1566 31.7225 30.5303 31.263 30.5303C30.8035 30.5303 30.4298 30.1566 30.4298 29.6971C30.4298 29.2376 30.8035 28.8639 31.263 28.8639ZM20.3035 28.8639C20.763 28.8639 21.1367 29.2376 21.1367 29.6971C21.1367 30.1566 20.763 30.5303 20.3035 30.5303C19.8441 30.5303 19.4703 30.1566 19.4703 29.6971C19.4703 29.2376 19.8441 28.8639 20.3035 28.8639ZM18.5074 18.7879L17.5896 15.5755L20.5178 15.7086L21.0255 18.7879H18.5074ZM20.7576 24.1171C20.3492 24.1652 19.9718 23.9133 19.8591 23.5185L18.926 20.2528H21.267L21.8823 23.9848L20.7576 24.1171ZM25.0509 23.6121L23.3388 23.8135L22.7518 20.2529H25.0509V23.6121ZM25.0509 18.7879H22.5102L22.0137 15.7767L25.0509 15.9148V18.7879ZM28.7601 23.1756L26.5157 23.4397V20.2528H29.0246L28.7601 23.1756ZM29.1572 18.7879H26.5157V15.9813L29.3994 16.1124L29.1572 18.7879ZM32.4449 21.6184C32.3072 22.3067 31.7463 22.8244 31.0491 22.9064L30.2467 23.0008L30.4954 20.2529H32.718L32.4449 21.6184ZM33.0111 18.7879H30.6281L30.8643 16.179L33.5088 16.2992L33.0111 18.7879Z" fill="#FFB100"/>
</svg>
