<svg width="50" height="50" viewBox="0 0 50 50" fill="none" xmlns="http://www.w3.org/2000/svg">
<g clip-path="url(#clip0)">
<path d="M49.0806 26.2127C48.4208 25.544 48.4208 24.4561 49.0806 23.7875C49.8004 23.058 50.1212 22.0591 49.961 21.0469C49.8006 20.0346 49.1868 19.1838 48.2768 18.7125C47.4428 18.2805 47.1067 17.2458 47.5274 16.406C47.9866 15.4897 47.983 14.4406 47.5177 13.5274C47.0524 12.6143 46.2056 11.9948 45.1947 11.8278C44.2679 11.6747 43.6286 10.7944 43.7692 9.86582C43.9227 8.85254 43.5953 7.85586 42.8706 7.13125C42.1459 6.40664 41.1494 6.07901 40.1358 6.23243C39.2075 6.37344 38.327 5.73379 38.1739 4.80694C38.0068 3.79581 37.3872 2.94913 36.4742 2.4839C35.5611 2.01866 34.5119 2.01515 33.5956 2.47433C32.756 2.89513 31.7213 2.5589 31.2891 1.72482C30.8178 0.814858 29.967 0.20109 28.9549 0.0407389C27.9434 -0.119612 26.9438 0.201286 26.2142 0.921108C25.5455 1.58087 24.4579 1.58087 23.7891 0.921108C23.0596 0.201286 22.0606 -0.11971 21.0485 0.0407389C20.0363 0.20109 19.1855 0.814956 18.7143 1.72482C18.2821 2.5589 17.2478 2.89532 16.4077 2.47433C15.4916 2.01515 14.4426 2.01857 13.5293 2.4839C12.616 2.94913 11.9966 3.79591 11.8295 4.80714C11.6764 5.73379 10.7961 6.37393 9.86759 6.23243C8.8547 6.07911 7.85763 6.40645 7.13283 7.13125C6.40812 7.85596 6.08068 8.85254 6.2342 9.86582C6.37482 10.7945 5.73547 11.6747 4.80871 11.8278C3.79758 11.9949 2.951 12.6144 2.48567 13.5275C2.02034 14.4406 2.01682 15.4898 2.476 16.406C2.8968 17.2459 2.56057 18.2805 1.72659 18.7125C0.816533 19.1839 0.202765 20.0347 0.0424137 21.0469C-0.117938 22.0591 0.20296 23.058 0.922783 23.7875C1.58255 24.4561 1.58255 25.544 0.922783 26.2127C0.20296 26.9421 -0.11784 27.9411 0.0424137 28.9533C0.202667 29.9655 0.816631 30.8164 1.72659 31.2876C2.56057 31.7197 2.89671 32.7543 2.476 33.5941C2.01682 34.5104 2.02034 35.5595 2.48567 36.4727C2.951 37.3859 3.79768 38.0053 4.80871 38.1723C5.73547 38.3254 6.37482 39.2057 6.2342 40.1343C6.08068 41.1476 6.40812 42.1443 7.13283 42.8689C7.85754 43.5935 8.85402 43.9212 9.86759 43.7677C10.7956 43.6265 11.6764 44.2663 11.8295 45.1932C11.9966 46.2043 12.6162 47.051 13.5292 47.5162C14.4423 47.9814 15.4915 47.985 16.4078 47.5258C17.2476 47.1051 18.2821 47.4412 18.7143 48.2753C19.1855 49.1853 20.0364 49.799 21.0485 49.9594C22.0605 50.12 23.0597 49.7989 23.7891 49.079C24.4579 48.4193 25.5455 48.4193 26.2142 49.079C26.8205 49.6772 27.6127 49.9998 28.4439 49.9998C28.613 49.9998 28.7838 49.9864 28.9549 49.9594C29.9671 49.799 30.8178 49.1852 31.2891 48.2753C31.7214 47.4412 32.756 47.105 33.5957 47.5258C34.5119 47.985 35.5608 47.9816 36.4741 47.5162C37.3874 47.051 38.0068 46.2042 38.1739 45.193C38.3271 44.2663 39.2078 43.6266 40.1358 43.7677C41.149 43.9212 42.1459 43.5937 42.8706 42.8689C43.5953 42.1442 43.9227 41.1476 43.7692 40.1343C43.6286 39.2056 44.2679 38.3254 45.1947 38.1723C46.2058 38.0052 47.0524 37.3857 47.5177 36.4726C47.983 35.5594 47.9866 34.5103 47.5274 33.5941C47.1066 32.7542 47.4428 31.7197 48.2768 31.2876C49.1869 30.8163 49.8006 29.9654 49.961 28.9533C50.1212 27.9412 49.8004 26.9421 49.0806 26.2127ZM48.0378 27.2415C48.4273 27.6362 48.6009 28.1766 48.5141 28.7241C48.4274 29.2717 48.0953 29.732 47.6029 29.9871C46.0614 30.7857 45.44 32.6982 46.2176 34.2504C46.4661 34.7461 46.4641 35.3137 46.2123 35.8077C45.9607 36.3017 45.5026 36.6369 44.9556 36.7272C43.2426 37.0103 42.0606 38.6372 42.3208 40.3539C42.4039 40.9021 42.2266 41.4412 41.8345 41.8332C41.4424 42.2253 40.9035 42.4027 40.3551 42.3195C38.6381 42.0592 37.0115 43.2413 36.7285 44.9543C36.638 45.5014 36.3029 45.9594 35.8088 46.2112C35.3148 46.4629 34.7472 46.4648 34.2516 46.2163C32.6992 45.4382 30.7868 46.0599 29.9884 47.6017C29.7334 48.0941 29.273 48.4261 28.7254 48.5128C28.1777 48.5995 27.6373 48.426 27.2427 48.0366C26.6247 47.4268 25.8132 47.1219 25.0014 47.1219C24.1896 47.1219 23.3779 47.4269 22.76 48.0365C22.3653 48.4261 21.8243 48.5997 21.2773 48.5128C20.7298 48.4261 20.2694 48.094 20.0143 47.6017C19.2157 46.06 17.3032 45.4388 15.751 46.2163C15.2553 46.4647 14.6876 46.4628 14.1939 46.2112C13.6998 45.9595 13.3647 45.5013 13.2742 44.9543C12.9912 43.2413 11.3647 42.0591 9.64757 42.3195C9.09953 42.4026 8.56007 42.2253 8.16818 41.8332C7.77609 41.4411 7.59894 40.902 7.68195 40.3539C7.94211 38.6373 6.76008 37.0104 5.04709 36.7272C4.50002 36.6369 4.04202 36.3017 3.79036 35.8077C3.5386 35.3136 3.53665 34.746 3.78508 34.2504C4.56291 32.6982 3.94153 30.7857 2.39983 29.9872C1.90755 29.7322 1.57542 29.2718 1.4887 28.7242C1.40188 28.1766 1.57552 27.6361 1.96497 27.2416C3.1844 26.0056 3.1844 23.9947 1.96497 22.7589C1.57552 22.3641 1.40188 21.8237 1.4887 21.2762C1.57542 20.7286 1.90755 20.2683 2.39993 20.0133C3.94143 19.2146 4.56282 17.3021 3.78518 15.7499C3.53674 15.2542 3.5387 14.6866 3.79045 14.1927C4.04211 13.6986 4.50022 13.3635 5.04719 13.2731C6.76017 12.99 7.9422 11.3631 7.68205 9.64638C7.59894 9.09824 7.77619 8.55908 8.16828 8.16709C8.56046 7.7751 9.09982 7.59785 9.64767 7.68086C11.3641 7.94043 12.9913 6.75899 13.2743 5.046C13.3648 4.49893 13.6999 4.04093 14.1939 3.78917C14.6881 3.53751 15.2557 3.53565 15.7512 3.78399C17.3034 4.56202 19.216 3.94044 20.0144 2.39874C20.2694 1.90636 20.7298 1.57433 21.2774 1.48761C21.8246 1.40079 22.3655 1.57443 22.7601 1.96378C23.9961 3.18331 26.0069 3.18331 27.2428 1.96378C27.6375 1.57433 28.1786 1.4007 28.7255 1.48751C29.273 1.57423 29.7334 1.90636 29.9885 2.39864C30.7872 3.94044 32.6998 4.56163 34.2518 3.78399C34.7474 3.53565 35.3151 3.53751 35.8088 3.78917C36.303 4.04083 36.6381 4.49903 36.7286 5.046C37.0116 6.75899 38.6378 7.94072 40.3552 7.68086C40.9035 7.59775 41.4427 7.775 41.8346 8.16709C42.2267 8.55918 42.4039 9.09834 42.3209 9.64638C42.0607 11.363 43.2427 12.9899 44.9557 13.2731C45.5028 13.3635 45.9608 13.6986 46.2124 14.1927C46.4642 14.6867 46.4662 15.2543 46.2177 15.7499C45.4399 17.3021 46.0613 19.2146 47.6031 20.0132C48.0954 20.2681 48.4275 20.7285 48.5142 21.2761C48.601 21.8237 48.4274 22.3642 48.0379 22.7588C46.8185 23.9946 46.8185 26.0055 48.0378 27.2415Z" fill="#FFB100"/>
<path d="M38.157 9.54582C34.284 6.24163 29.3404 4.52649 24.2368 4.71468C19.1044 4.90442 14.2767 7.01028 10.6428 10.6442C7.00889 14.278 4.90313 19.1059 4.71329 24.2382C4.52452 29.3418 6.24024 34.2854 9.54443 38.1583C9.68935 38.3281 9.89502 38.4153 10.102 38.4153C10.2701 38.4153 10.4391 38.3578 10.577 38.2401C10.8847 37.9776 10.9214 37.5153 10.6589 37.2076C7.59356 33.6147 6.00206 29.028 6.17715 24.2923C6.35333 19.5307 8.30703 15.0515 11.6787 11.6799C15.0502 8.30832 19.5293 6.35461 24.291 6.17844C29.0263 6.00295 33.6135 7.59494 37.2062 10.6602C37.5141 10.9228 37.9763 10.8861 38.2388 10.5783C38.5013 10.2706 38.4647 9.80832 38.157 9.54582Z" fill="#FFB100"/>
<path d="M40.4536 11.8418C40.191 11.5342 39.729 11.4973 39.4209 11.76C39.1132 12.0225 39.0765 12.4848 39.339 12.7925C42.4044 16.3854 43.9959 20.9721 43.8209 25.7078C43.6447 30.4694 41.691 34.9486 38.3193 38.3202C34.9478 41.6918 30.4686 43.6456 25.707 43.8216C20.9702 43.9965 16.3844 42.4051 12.7918 39.3399C12.4839 39.0773 12.0216 39.114 11.7592 39.4217C11.4967 39.7295 11.5333 40.1918 11.841 40.4543C15.5214 43.5941 20.1682 45.2995 25.0007 45.2995C25.2537 45.2995 25.5073 45.2948 25.7612 45.2854C30.8936 45.0956 35.7213 42.9898 39.3552 39.3559C42.9891 35.722 45.0949 30.8942 45.2847 25.7619C45.4735 20.6583 43.7578 15.7147 40.4536 11.8418Z" fill="#FFB100"/>
<path d="M18.5793 18.8119C18.1747 18.8119 17.8469 19.1398 17.8469 19.5443V27.4009L13.7547 19.2168C13.6027 18.9129 13.2623 18.7533 12.9312 18.8315C12.6007 18.9095 12.3672 19.2046 12.3672 19.5443V30.5034C12.3672 30.9079 12.695 31.2359 13.0996 31.2359C13.5042 31.2359 13.832 30.9079 13.832 30.5034V22.6468L17.9242 30.831C18.0503 31.0832 18.3065 31.236 18.5791 31.236C18.6349 31.236 18.6913 31.2295 18.7476 31.2162C19.0782 31.1382 19.3117 30.8431 19.3117 30.5034V19.5443C19.3117 19.1398 18.9839 18.8119 18.5793 18.8119Z" fill="#FFB100"/>
<path d="M26.4077 29.7709H22.4433V25.756H24.842C25.2466 25.756 25.5744 25.4281 25.5744 25.0236C25.5744 24.6191 25.2466 24.2912 24.842 24.2912H22.4433V20.2764H26.4077C26.8123 20.2764 27.1401 19.9484 27.1401 19.5439C27.1401 19.1395 26.8123 18.8115 26.4077 18.8115H21.7109C21.3063 18.8115 20.9785 19.1395 20.9785 19.5439V30.5031C20.9785 30.9076 21.3063 31.2355 21.7109 31.2355H26.4077C26.8123 31.2355 27.1401 30.9076 27.1401 30.5031C27.1401 30.0988 26.8123 29.7709 26.4077 29.7709Z" fill="#FFB100"/>
<path d="M38.303 18.8282C37.9085 18.7436 37.5182 18.9952 37.4334 19.3908L35.8011 27.0079L34.169 19.3908C34.0966 19.0532 33.7981 18.8118 33.4528 18.8118C33.1075 18.8118 32.809 19.0532 32.7366 19.3908L31.1044 27.0079L29.4722 19.3908C29.3875 18.9952 28.9981 18.7435 28.6026 18.8282C28.207 18.9129 27.9552 19.3023 28.0398 19.6978L30.3882 30.6569C30.4605 30.9946 30.7591 31.2359 31.1044 31.2359C31.4497 31.2359 31.7482 30.9946 31.8206 30.6569L33.4528 23.0399L35.0849 30.6569C35.1573 30.9946 35.4558 31.2359 35.8011 31.2359C36.1464 31.2359 36.445 30.9946 36.5173 30.6569L38.8658 19.6978C38.9504 19.3023 38.6986 18.9129 38.303 18.8282Z" fill="#FFB100"/>
</g>
<defs>
<clipPath id="clip0">
<rect width="50" height="50" fill="white"/>
</clipPath>
</defs>
</svg>
