<svg width="50" height="50" viewBox="0 0 50 50" fill="none" xmlns="http://www.w3.org/2000/svg">
<g clip-path="url(#clip0)">
<path d="M44.0914 18.5997C44.8525 17.2418 44.5855 15.5559 43.442 14.4996C42.9629 14.057 42.7444 13.3849 42.8719 12.7453C43.1762 11.2187 42.4012 9.69775 40.9874 9.04658C40.395 8.77382 39.9796 8.20195 39.9032 7.55429C39.7208 6.0084 38.5137 4.80127 36.9678 4.61904C36.3202 4.54267 35.7484 4.12715 35.4755 3.53476C34.8244 2.1209 33.3032 1.34609 31.7769 1.65019C31.1372 1.77773 30.4651 1.55918 30.0226 1.08017C28.9665 -0.0632844 27.2802 -0.330179 25.9225 0.430759C25.3536 0.749606 24.6468 0.749704 24.078 0.430759C22.7201 -0.330179 21.0342 -0.0632844 19.9779 1.08017C19.5354 1.55918 18.8632 1.77802 18.2236 1.65019C16.6969 1.34619 15.1761 2.1209 14.5249 3.53476C14.2521 4.12715 13.6802 4.54257 13.0327 4.61894C11.4868 4.80127 10.2796 6.0083 10.0973 7.55429C10.021 8.20195 9.60543 8.77373 9.01315 9.04648C7.59928 9.69765 6.82418 11.2186 7.12858 12.7452C7.25612 13.3849 7.03766 14.057 6.55856 14.4995C5.4151 15.5557 5.14801 17.2418 5.90914 18.5996C6.22809 19.1686 6.22809 19.8752 5.90914 20.4441C5.14801 21.802 5.415 23.488 6.55856 24.5442C7.03766 24.9868 7.25612 25.6589 7.12858 26.2984C6.82428 27.825 7.59928 29.346 9.01315 29.9972C9.60553 30.27 10.021 30.8419 10.0973 31.4895C10.249 32.775 11.1095 33.8257 12.284 34.2482L7.12067 44.8262C7.0069 45.0591 7.02486 45.3348 7.16764 45.5511C7.31041 45.7674 7.55631 45.8937 7.81578 45.8789L12.7704 45.6283L15.621 49.6887C15.7588 49.8849 15.983 50.0002 16.2203 50.0002C16.2395 50.0002 16.2588 49.9994 16.2782 49.9979C16.5366 49.9775 16.7649 49.822 16.8786 49.5891L22.0375 39.0197C22.7236 39.1024 23.4373 38.9725 24.0779 38.6133C24.6467 38.2944 25.3534 38.2943 25.9224 38.6133C26.4396 38.9031 27.0042 39.0439 27.5636 39.0438C27.7105 39.0438 27.8568 39.0331 28.0019 39.0139L33.1637 49.5891C33.2774 49.822 33.5057 49.9775 33.7641 49.9979C33.7835 49.9995 33.8028 50.0002 33.822 50.0002C34.0593 50.0002 34.2836 49.8849 34.4213 49.6887L37.2719 45.6283L42.2265 45.8789C42.4845 45.8924 42.7319 45.7673 42.8747 45.5511C43.0175 45.3348 43.0354 45.0591 42.9216 44.8262L37.7521 34.2352C38.9083 33.8043 39.753 32.762 39.9031 31.4894C39.9795 30.8418 40.395 30.27 40.9873 29.9972C42.4011 29.346 43.1762 27.825 42.8718 26.2984C42.7443 25.6588 42.9628 24.9867 43.4419 24.5441C44.5853 23.488 44.8524 21.8019 44.0913 20.444C43.7724 19.8754 43.7724 19.1686 44.0914 18.5997ZM16.1066 47.8311L13.7368 44.4556C13.5921 44.2496 13.3525 44.1314 13.1004 44.1449L8.98141 44.3533L13.7193 34.6466C14.068 34.8391 14.3546 35.1396 14.5248 35.5092C14.8727 36.2648 15.4693 36.8375 16.1822 37.161L14.6161 40.3695C14.4386 40.733 14.5895 41.1715 14.953 41.3489C15.0564 41.3994 15.1659 41.4233 15.2737 41.4233C15.5448 41.4233 15.8054 41.2722 15.9325 41.012L17.6674 37.4574C17.8517 37.4516 18.0376 37.4309 18.2235 37.3938C18.8632 37.2661 19.5353 37.4848 19.9778 37.9639C20.1806 38.1835 20.4069 38.3705 20.6495 38.5243L16.1066 47.8311ZM41.0608 44.3533L36.9418 44.145C36.69 44.131 36.45 44.2496 36.3053 44.4557L33.9355 47.8312L29.3825 38.5032C29.6129 38.3533 29.8285 38.1737 30.0224 37.9638C30.4649 37.4847 31.1371 37.2663 31.7767 37.3937C31.977 37.4337 32.1772 37.4545 32.3754 37.4583L34.1099 41.012C34.2369 41.2721 34.4974 41.4232 34.7686 41.4232C34.8764 41.4232 34.986 41.3993 35.0894 41.3488C35.4529 41.1714 35.6038 40.7329 35.4263 40.3694L33.8525 37.145C34.5502 36.8188 35.1332 36.2524 35.4756 35.5091C35.6512 35.1278 35.9509 34.8206 36.3147 34.6292L41.0608 44.3533ZM42.4482 23.4683C41.597 24.2544 41.2091 25.4486 41.4356 26.5849C41.6069 27.4442 41.1707 28.3003 40.3749 28.6668C39.3225 29.1515 38.5844 30.1673 38.4487 31.318C38.3461 32.1882 37.6666 32.8676 36.7964 32.9702C35.6459 33.106 34.6299 33.844 34.1453 34.8964C33.7788 35.6923 32.9226 36.1287 32.0632 35.9571C30.9272 35.7309 29.7327 36.1187 28.9466 36.9698C28.3521 37.6136 27.4031 37.7639 26.6387 37.3354C26.1333 37.0521 25.5669 36.9104 25.0003 36.9104C24.4338 36.9104 23.8671 37.0521 23.3618 37.3353C22.5974 37.7638 21.6484 37.6135 21.0539 36.9698C20.2677 36.1187 19.0734 35.7308 17.9373 35.9571C17.078 36.1285 16.2218 35.6922 15.8553 34.8964C15.3707 33.844 14.3548 33.106 13.2042 32.9702C12.3339 32.8676 11.6546 32.1881 11.5519 31.318C11.4162 30.1674 10.6781 29.1515 9.62574 28.6667C8.82985 28.3002 8.39371 27.4441 8.565 26.5848C8.79147 25.4485 8.40348 24.2543 7.5524 23.4682C6.90875 22.8736 6.75836 21.9246 7.18678 21.1603C7.75338 20.1496 7.75338 18.8939 7.18678 17.8832C6.75826 17.1188 6.90865 16.1699 7.55231 15.5753C8.40348 14.7892 8.79137 13.5949 8.565 12.4587C8.39371 11.5994 8.82994 10.7433 9.62574 10.3768C10.6781 9.89209 11.4162 8.87627 11.5519 7.72558C11.6546 6.85527 12.334 6.17597 13.2042 6.07334C14.3547 5.93759 15.3708 5.19951 15.8553 4.14716C16.2218 3.35127 17.0778 2.91513 17.9374 3.08642C19.0741 3.31299 20.2678 2.9248 21.054 2.07373C21.6485 1.43007 22.5976 1.27959 23.3619 1.7082C24.3725 2.2747 25.6282 2.2747 26.6388 1.7082C27.4032 1.27959 28.3521 1.42998 28.9467 2.07373C29.7329 2.9248 30.9269 3.31289 32.0633 3.08642C32.923 2.91494 33.7787 3.35146 34.1453 4.14716C34.6299 5.19951 35.6458 5.93759 36.7964 6.07334C37.6667 6.17597 38.3461 6.85547 38.4487 7.72558C38.5844 8.87617 39.3225 9.89218 40.3749 10.3768C41.1708 10.7433 41.6069 11.5994 41.4356 12.4587C41.2091 13.5949 41.5971 14.7892 42.4483 15.5753C43.092 16.1698 43.2423 17.1188 42.8139 17.8832C42.2473 18.8941 42.2473 20.1498 42.8139 21.1603C43.2421 21.9247 43.0918 22.8737 42.4482 23.4683Z" fill="#FFB100"/>
<path d="M36.6921 16.391C36.6921 15.1236 35.6612 14.0928 34.3941 14.0928H29.4069C29.8277 13.3058 30.3746 12.157 30.824 10.7893C31.1673 9.7453 30.5905 8.61043 29.5388 8.25985L29.4937 8.24481C28.5298 7.92323 27.4694 8.3787 27.0272 9.30389C26.3805 10.6575 24.9408 13.0577 22.5073 14.0929H22.0295C21.608 13.6135 20.991 13.31 20.304 13.31H17.1729C15.9059 13.31 14.875 14.3409 14.875 15.608V26.567C14.875 27.8341 15.9059 28.8649 17.1729 28.8649H20.304C20.991 28.8649 21.608 28.5615 22.0295 28.0821H32.0458C33.3129 28.0821 34.3438 27.0513 34.3438 25.7842C34.3438 25.3576 34.227 24.9578 34.0236 24.6152C34.6846 24.2112 35.1265 23.4828 35.1265 22.6531C35.1265 22.2265 35.0097 21.8267 34.8064 21.4842C35.4673 21.0802 35.9092 20.3517 35.9092 19.5221C35.9092 19.0955 35.7924 18.6957 35.5891 18.3531C36.2501 17.9491 36.6921 17.2206 36.6921 16.391ZM34.3941 17.2238H32.0457C31.6412 17.2238 31.3133 17.5517 31.3133 17.9562C31.3133 18.3607 31.6412 18.6887 32.0457 18.6887H33.6112C34.0707 18.6887 34.4444 19.0625 34.4444 19.5219C34.4444 19.9812 34.0706 20.3551 33.6112 20.3551H31.2629C30.8584 20.3551 30.5305 20.683 30.5305 21.0875C30.5305 21.492 30.8584 21.8199 31.2629 21.8199H32.8284C33.2879 21.8199 33.6616 22.1937 33.6616 22.6531C33.6616 23.1125 33.2878 23.4863 32.8284 23.4863H30.4802C30.0757 23.4863 29.7478 23.8142 29.7478 24.2187C29.7478 24.6232 30.0757 24.9512 30.4802 24.9512H32.0457C32.5052 24.9512 32.8789 25.325 32.8789 25.7844C32.8789 26.2437 32.5051 26.6176 32.0457 26.6176H22.602V19.5222C22.602 19.1177 22.274 18.7897 21.8695 18.7897C21.465 18.7897 21.1371 19.1177 21.1371 19.5222V26.5672C21.1371 27.0266 20.7633 27.4004 20.3039 27.4004H17.1729C16.7134 27.4004 16.3396 27.0265 16.3396 26.5672V15.6079C16.3396 15.1484 16.7135 14.7747 17.1729 14.7747H20.3039C20.7634 14.7747 21.1371 15.1485 21.1371 15.6079V16.3906C21.1371 16.7951 21.465 17.123 21.8695 17.123C22.274 17.123 22.602 16.7951 22.602 16.3906V15.5575H22.6523C22.7455 15.5575 22.8378 15.5397 22.9244 15.5051C25.897 14.316 27.599 11.505 28.3488 9.93524C28.473 9.67538 28.7662 9.54637 29.0302 9.63417L29.0754 9.6493C29.3645 9.74559 29.5247 10.0518 29.4326 10.332C28.6535 12.7025 27.5335 14.4025 27.5226 14.4189C27.3727 14.6436 27.3588 14.9326 27.4861 15.1708C27.6136 15.4089 27.8618 15.5576 28.1319 15.5576H34.3943C34.8537 15.5576 35.2275 15.9314 35.2275 16.3908C35.2275 16.8502 34.8535 17.2238 34.3941 17.2238Z" fill="#FFB100"/>
<path d="M18.75 25.7339C19.1545 25.7339 19.4824 25.406 19.4824 25.0015C19.4824 24.597 19.1545 24.269 18.75 24.269C18.3455 24.269 18.0176 24.597 18.0176 25.0015C18.0176 25.406 18.3455 25.7339 18.75 25.7339Z" fill="#FFB100"/>
</g>
<defs>
<clipPath id="clip0">
<rect width="50" height="50" fill="white"/>
</clipPath>
</defs>
</svg>
