<svg width="50" height="50" viewBox="0 0 50 50" fill="none" xmlns="http://www.w3.org/2000/svg">
<path d="M8.56055 43.8381H4.64648C4.24199 43.8381 3.91406 44.1661 3.91406 44.5706C3.91406 44.975 4.24199 45.303 4.64648 45.303H8.56065C8.96514 45.303 9.29307 44.975 9.29307 44.5706C9.29307 44.1661 8.96504 43.8381 8.56055 43.8381Z" fill="#FFB100"/>
<path d="M10.909 40.707H4.64648C4.24199 40.707 3.91406 41.035 3.91406 41.4395C3.91406 41.8439 4.24199 42.1719 4.64648 42.1719H10.9091C11.3136 42.1719 11.6415 41.8439 11.6415 41.4395C11.6415 41.035 11.3136 40.707 10.909 40.707Z" fill="#FFB100"/>
<path d="M48.4848 24.2676H37.8662V1.51523C37.8662 0.679688 37.1865 0 36.351 0H13.649C12.8135 0 12.1338 0.679688 12.1338 1.51523V24.2676H1.51523C0.679688 24.2676 0 24.9473 0 25.7828V48.4848C0 49.3203 0.679688 50 1.51523 50H48.4848C49.3203 50 50 49.3203 50 48.4848V25.7828C50 24.9473 49.3203 24.2676 48.4848 24.2676ZM38.3584 25.7324V32.0958H35.9091V25.7324H38.3584ZM26.2246 1.46484V7.82822H23.7753V1.46484H26.2246ZM11.6415 25.7324H14.0908V32.0958H11.6415V25.7324ZM48.4848 48.5352H25.7324V25.7324H30.4798C30.8843 25.7324 31.2122 25.4045 31.2122 25C31.2122 24.5955 30.8843 24.2676 30.4798 24.2676H19.5202C19.1157 24.2676 18.7878 24.5955 18.7878 25C18.7878 25.4045 19.1157 25.7324 19.5202 25.7324H24.2676V48.5352H1.51523C1.4874 48.5352 1.46484 48.5126 1.46484 48.4848V25.7828C1.46484 25.755 1.4874 25.7324 1.51523 25.7324H10.1767V32.8282C10.1767 33.2327 10.5046 33.5606 10.9091 33.5606H14.8232C15.2277 33.5606 15.5557 33.2327 15.5557 32.8282V25.7324H16.3885C16.793 25.7324 17.1209 25.4045 17.1209 25C17.1209 24.5955 16.793 24.2676 16.3885 24.2676H13.5986V1.51523C13.5986 1.4874 13.6212 1.46484 13.649 1.46484H22.3104V8.56065C22.3104 8.96514 22.6384 9.29307 23.0429 9.29307H26.957C27.3615 9.29307 27.6895 8.96514 27.6895 8.56065V1.46484H36.3509C36.3787 1.46484 36.4013 1.4874 36.4013 1.51523V24.2676H33.6113C33.2068 24.2676 32.8789 24.5955 32.8789 25C32.8789 25.4045 33.2068 25.7324 33.6113 25.7324H34.4441V32.8282C34.4441 33.2327 34.7721 33.5606 35.1766 33.5606H39.0907C39.4952 33.5606 39.8231 33.2327 39.8231 32.8282V25.7324H48.4846C48.5124 25.7324 48.535 25.755 48.535 25.7828V48.4848H48.5352C48.5352 48.5126 48.5126 48.5352 48.4848 48.5352Z" fill="#FFB100"/>
<path d="M32.8282 43.8381H28.9141C28.5096 43.8381 28.1816 44.1661 28.1816 44.5706C28.1816 44.975 28.5096 45.303 28.9141 45.303H32.8282C33.2327 45.303 33.5606 44.975 33.5606 44.5706C33.5606 44.1661 33.2327 43.8381 32.8282 43.8381Z" fill="#FFB100"/>
<path d="M35.1767 40.707H28.9141C28.5096 40.707 28.1816 41.035 28.1816 41.4395C28.1816 41.8439 28.5096 42.1719 28.9141 42.1719H35.1767C35.5812 42.1719 35.9091 41.8439 35.9091 41.4395C35.9091 41.035 35.5813 40.707 35.1767 40.707Z" fill="#FFB100"/>
<path d="M20.6935 19.5706H16.7793C16.3748 19.5706 16.0469 19.8985 16.0469 20.303C16.0469 20.7075 16.3748 21.0354 16.7793 21.0354H20.6935C21.0979 21.0354 21.4259 20.7075 21.4259 20.303C21.4259 19.8985 21.0979 19.5706 20.6935 19.5706Z" fill="#FFB100"/>
<path d="M23.0419 16.4392H16.7793C16.3748 16.4392 16.0469 16.7671 16.0469 17.1716C16.0469 17.5761 16.3748 17.9041 16.7793 17.9041H23.0419C23.4464 17.9041 23.7743 17.5761 23.7743 17.1716C23.7743 16.7671 23.4465 16.4392 23.0419 16.4392Z" fill="#FFB100"/>
</svg>
