<svg width="50" height="50" viewBox="0 0 50 50" fill="none" xmlns="http://www.w3.org/2000/svg">
<path d="M49.0787 26.2128C48.419 25.544 48.419 24.4561 49.0787 23.7875C49.7986 23.058 50.1194 22.0591 49.9591 21.0469C49.7988 20.0346 49.1849 19.1839 48.275 18.7125C47.441 18.2805 47.1048 17.2458 47.5255 16.406C47.9847 15.4898 47.9812 14.4407 47.5159 13.5275C47.0506 12.6143 46.2038 11.9949 45.1928 11.8278C44.2661 11.6747 43.6267 10.7945 43.7673 9.86592C43.9208 8.85264 43.5934 7.85596 42.8687 7.13125C42.144 6.40655 41.1477 6.07891 40.1339 6.23252C39.2063 6.37325 38.3251 5.73379 38.172 4.80694C38.0049 3.79581 37.3853 2.94913 36.4722 2.4838C35.559 2.01857 34.5099 2.01505 33.5937 2.47423C32.7539 2.89523 31.7194 2.5588 31.2873 1.72482C30.816 0.814761 29.965 0.200993 28.9529 0.0407389C27.9415 -0.119515 26.9419 0.201286 26.2124 0.921108C25.5436 1.58087 24.456 1.58087 23.7873 0.921108C23.0577 0.201286 22.0583 -0.11971 21.0468 0.0407389C20.0346 0.20109 19.1837 0.814956 18.7124 1.72482C18.2803 2.5589 17.2458 2.89523 16.4059 2.47433C15.4897 2.01515 14.4406 2.01876 13.5274 2.4839C12.6142 2.94913 11.9946 3.79601 11.8276 4.80714C11.6745 5.73389 10.794 6.37325 9.86573 6.23252C8.85294 6.07901 7.85568 6.40655 7.13097 7.13125C6.40627 7.85596 6.07883 8.85264 6.23234 9.86582C6.37297 10.7945 5.73361 11.6746 4.80676 11.8278C3.79563 11.9949 2.94895 12.6144 2.48372 13.5275C2.01839 14.4407 2.01487 15.4897 2.47405 16.406C2.89485 17.2459 2.55862 18.2805 1.72464 18.7125C0.81458 19.1839 0.200812 20.0346 0.0404606 21.0469C-0.119891 22.0591 0.201007 23.058 0.92083 23.7875C1.58059 24.4561 1.58059 25.544 0.92083 26.2127C0.201007 26.9422 -0.119793 27.9411 0.0404606 28.9533C0.200812 29.9655 0.814678 30.8163 1.72454 31.2877C2.55862 31.7197 2.89475 32.7543 2.47405 33.5941C2.01487 34.5103 2.01839 35.5594 2.48372 36.4726C2.94895 37.3858 3.79573 38.0053 4.80676 38.1723C5.73352 38.3254 6.37287 39.2056 6.23234 40.1342C6.07883 41.1475 6.40627 42.1442 7.13097 42.8689C7.85568 43.5936 8.85197 43.9211 9.86573 43.7676C10.7934 43.627 11.6744 44.2663 11.8276 45.1932C11.9947 46.2043 12.6144 47.051 13.5273 47.5162C14.4405 47.9815 15.4897 47.9849 16.406 47.5259C17.2459 47.105 18.2803 47.4412 18.7124 48.2753C19.1837 49.1853 20.0346 49.799 21.0467 49.9594C22.0586 50.1199 23.0579 49.7988 23.7873 49.079C24.456 48.4193 25.5436 48.4193 26.2124 49.079C26.8186 49.6772 27.6108 49.9998 28.4421 49.9998C28.6111 49.9998 28.7819 49.9864 28.953 49.9594C29.9652 49.799 30.816 49.1852 31.2873 48.2753C31.7193 47.4412 32.754 47.1049 33.5938 47.5259C34.5102 47.9851 35.5592 47.9815 36.4722 47.5162C37.3855 47.051 38.0049 46.2042 38.172 45.1931C38.3251 44.2663 39.206 43.6272 40.1339 43.7677C41.1472 43.9213 42.144 43.5937 42.8687 42.869C43.5934 42.1443 43.9208 41.1476 43.7673 40.1344C43.6267 39.2057 44.2661 38.3256 45.1928 38.1724C46.2039 38.0053 47.0506 37.3858 47.5159 36.4727C47.9812 35.5595 47.9847 34.5105 47.5255 33.5942C47.1047 32.7543 47.441 31.7198 48.2749 31.2877C49.185 30.8164 49.7988 29.9655 49.9591 28.9534C50.1195 27.9412 49.7986 26.9422 49.0787 26.2128ZM48.036 27.2414C48.4254 27.6361 48.5991 28.1764 48.5122 28.724C48.4255 29.2715 48.0934 29.7319 47.601 29.987C46.0594 30.7856 45.4381 32.6981 46.2158 34.2502C46.4642 34.7459 46.4622 35.3135 46.2105 35.8075C45.9588 36.3015 45.5007 36.6367 44.9538 36.7271C43.2408 37.0102 42.0587 38.6371 42.3189 40.3537C42.402 40.9019 42.2248 41.4411 41.8327 41.833C41.4406 42.2251 40.9016 42.4025 40.3533 42.3193C38.6364 42.0592 37.0096 43.2411 36.7266 44.9541C36.6362 45.5012 36.301 45.9593 35.807 46.211C35.3129 46.4627 34.7454 46.4646 34.2498 46.2161C32.6977 45.4383 30.785 46.0596 29.9865 47.6014C29.7315 48.0938 29.2712 48.4258 28.7235 48.5125C28.176 48.5993 27.6354 48.4257 27.2408 48.0364C26.6228 47.4265 25.8112 47.1216 24.9995 47.1216C24.1878 47.1216 23.3761 47.4266 22.7582 48.0363C22.3635 48.4258 21.8223 48.5994 21.2755 48.5125C20.7279 48.4258 20.2676 48.0937 20.0125 47.6014C19.2139 46.0597 17.3013 45.4384 15.749 46.2161C15.2534 46.4645 14.6857 46.4626 14.192 46.211C13.6979 45.9593 13.3627 45.5011 13.2723 44.9541C12.9893 43.241 11.3623 42.059 9.64562 42.3192C9.09747 42.4023 8.55812 42.2249 8.16613 41.8329C7.77404 41.441 7.59689 40.9017 7.6799 40.3535C7.94005 38.637 6.75803 37.01 5.04504 36.7269C4.49797 36.6365 4.03997 36.3013 3.78831 35.8073C3.53655 35.3132 3.53459 34.7457 3.78303 34.25C4.56086 32.6979 3.93948 30.7853 2.39778 29.9868C1.9055 29.7318 1.57337 29.2714 1.48665 28.7239C1.39983 28.1762 1.57347 27.6358 1.96292 27.2412C3.18235 26.0052 3.18235 23.9943 1.96292 22.7585C1.57347 22.3637 1.39983 21.8234 1.48665 21.2759C1.57337 20.7283 1.9055 20.2679 2.39788 20.0129C3.93938 19.2142 4.56076 17.3017 3.78313 15.7495C3.53469 15.2538 3.53665 14.6862 3.7884 14.1923C4.04006 13.6982 4.49817 13.3631 5.04514 13.2726C6.75812 12.9895 7.94015 11.3627 7.68 9.64599C7.59689 9.09785 7.77414 8.55859 8.16623 8.1667C8.55841 7.77461 9.09777 7.59746 9.64572 7.68047C11.3622 7.94043 12.9894 6.7586 13.2724 5.04561C13.3628 4.49854 13.698 4.04044 14.1921 3.78878C14.6861 3.53702 15.2538 3.53526 15.7492 3.7836C17.3014 4.56143 19.214 3.94024 20.0126 2.39825C20.2676 1.90597 20.7279 1.57384 21.2756 1.48712C21.8228 1.4004 22.3636 1.57394 22.7583 1.96339C23.9942 3.18292 26.0051 3.18292 27.2409 1.96339C27.6355 1.57394 28.1758 1.40031 28.7236 1.48712C29.2712 1.57384 29.7315 1.90597 29.9866 2.39825C30.7853 3.93995 32.6979 4.56124 34.2501 3.78351C34.7457 3.53507 35.3133 3.53712 35.8071 3.78868C36.3012 4.04034 36.6364 4.49854 36.7268 5.04551C37.0098 6.7586 38.6367 7.94063 40.3535 7.68047C40.9017 7.59737 41.441 7.77471 41.833 8.1667C42.225 8.55869 42.4022 9.09795 42.3192 9.64619C42.059 11.3628 43.2411 12.9897 44.954 13.2728C45.5011 13.3633 45.9591 13.6984 46.2108 14.1925C46.4625 14.6865 46.4645 15.2541 46.2161 15.7497C45.4382 17.3018 46.0596 19.2144 47.6014 20.0131C48.0937 20.268 48.4258 20.7284 48.5125 21.276C48.5994 21.8236 48.4257 22.364 48.0363 22.7586C46.8166 23.9946 46.8166 26.0055 48.036 27.2414Z" fill="#FFB100"/>
<path d="M32.0453 12.5256H26.9456C25.4953 12.5256 24.1319 13.0904 23.1065 14.1158L11.823 25.3992C10.3168 26.9056 10.3168 29.3568 11.823 30.8631L19.1369 38.1769C19.8667 38.9066 20.8368 39.3085 21.8689 39.3085C22.901 39.3085 23.8712 38.9065 24.6009 38.1769L35.8844 26.8935C36.9098 25.868 37.4745 24.5047 37.4745 23.0544V17.9547C37.4745 14.9612 35.0389 12.5256 32.0453 12.5256ZM36.0097 23.0545C36.0096 24.1135 35.5972 25.109 34.8484 25.8577L23.565 37.1412C23.112 37.5943 22.5095 37.8438 21.8689 37.8438C21.2282 37.8438 20.6258 37.5943 20.1728 37.1412L12.8591 29.8275C11.9237 28.8921 11.9237 27.3703 12.8591 26.435L24.1426 15.1516C24.8913 14.4028 25.8868 13.9904 26.9458 13.9904H32.0455C34.2314 13.9904 36.0099 15.7688 36.0099 17.9548V23.0545H36.0097Z" fill="#FFB100"/>
<path d="M32.046 15.6567C30.7788 15.6567 29.748 16.6877 29.748 17.9547C29.748 19.2217 30.779 20.2526 32.046 20.2526C33.3131 20.2526 34.3439 19.2217 34.3439 17.9547C34.3439 16.6877 33.3131 15.6567 32.046 15.6567ZM32.046 18.788C31.5865 18.788 31.2128 18.4142 31.2128 17.9548C31.2128 17.4954 31.5865 17.1216 32.046 17.1216C32.5055 17.1216 32.8792 17.4954 32.8792 17.9548C32.8792 18.4142 32.5055 18.788 32.046 18.788Z" fill="#FFB100"/>
<path d="M38.157 9.54567C34.284 6.24147 29.3418 4.52566 24.2368 4.71452C19.1044 4.90437 14.2767 7.01013 10.6428 10.644C7.00889 14.2779 4.90313 19.1057 4.71329 24.238C4.52452 29.3416 6.24034 34.2854 9.54443 38.1582C9.68935 38.328 9.89502 38.4152 10.102 38.4152C10.2701 38.4152 10.4391 38.3576 10.577 38.2399C10.8847 37.9774 10.9214 37.5151 10.6589 37.2074C7.59356 33.6146 6.00196 29.0279 6.17706 24.292C6.35323 19.5304 8.30694 15.0512 11.6786 11.6795C15.0502 8.30797 19.5293 6.35417 24.2911 6.1781C29.0268 6.00319 33.6136 7.59469 37.2064 10.6598C37.5142 10.9224 37.9766 10.8857 38.239 10.578C38.5013 10.2705 38.4647 9.80817 38.157 9.54567Z" fill="#FFB100"/>
<path d="M40.4538 11.8415C40.1912 11.5339 39.7292 11.4971 39.4211 11.7598C39.1134 12.0223 39.0767 12.4846 39.3392 12.7923C42.4046 16.3852 43.9961 20.9718 43.8211 25.7077C43.6449 30.4693 41.6912 34.9485 38.3195 38.3202C34.948 41.6918 30.4688 43.6456 25.7071 43.8216C20.9707 43.9962 16.3846 42.405 12.7918 39.3399C12.484 39.0773 12.0217 39.114 11.7592 39.4217C11.4967 39.7295 11.5333 40.1918 11.841 40.4543C15.5214 43.5941 20.1682 45.2995 25.0008 45.2995C25.2537 45.2995 25.5074 45.2948 25.7612 45.2854C30.8936 45.0956 35.7214 42.9898 39.3552 39.3559C42.9891 35.722 45.0949 30.8942 45.2847 25.7619C45.4737 20.6581 43.758 15.7144 40.4538 11.8415Z" fill="#FFB100"/>
</svg>
