<svg width="20" height="21" viewBox="0 0 20 21" fill="none" xmlns="http://www.w3.org/2000/svg">
<path d="M19 19.7986L13 13.8139L19 19.7986ZM15 8.82664C15 9.74355 14.8189 10.6515 14.4672 11.4986C14.1154 12.3457 13.5998 13.1154 12.9497 13.7638C12.2997 14.4121 11.5281 14.9264 10.6788 15.2773C9.82951 15.6282 8.91925 15.8088 8 15.8088C7.08075 15.8088 6.1705 15.6282 5.32122 15.2773C4.47194 14.9264 3.70026 14.4121 3.05025 13.7638C2.40024 13.1154 1.88463 12.3457 1.53284 11.4986C1.18106 10.6515 1 9.74355 1 8.82664C1 6.97485 1.7375 5.19892 3.05025 3.88951C4.36301 2.5801 6.14348 1.84448 8 1.84448C9.85652 1.84448 11.637 2.5801 12.9497 3.88951C14.2625 5.19892 15 6.97485 15 8.82664Z" stroke="white" stroke-width="2" stroke-linecap="round" stroke-linejoin="round"/>
</svg>
