<svg width="30" height="25" viewBox="0 0 30 25" fill="none" xmlns="http://www.w3.org/2000/svg">
<path d="M10.8146 8.25661L10.3074 8.32478L2.57097 9.36469L2.57029 9.36479C2.24855 9.40781 2.07642 9.59437 2.01484 9.76932C1.9563 9.93566 1.97979 10.1257 2.16851 10.2952L2.16881 10.2954L7.76592 15.3241L8.18353 15.6993L8.08068 16.2512L6.75699 23.354C6.75699 23.3541 6.75698 23.3541 6.75697 23.3542C6.72233 23.5411 6.79405 23.7274 7.00565 23.868C7.22379 24.013 7.52089 24.0508 7.79164 23.9185L7.79468 23.917L14.7156 20.5629L15.1517 20.3516L15.5878 20.5629L22.5088 23.917L22.5089 23.9171C22.7811 24.049 23.0799 24.0107 23.2985 23.8657C23.51 23.7255 23.5811 23.5405 23.5465 23.354L22.2228 16.2512L22.1199 15.6993L22.5375 15.3241L28.1347 10.2954L28.135 10.2952C28.3237 10.1257 28.3472 9.93566 28.2886 9.76932C28.227 9.59437 28.0549 9.40781 27.7332 9.36479L27.7325 9.36469L19.9961 8.32478L19.4889 8.25661L19.2475 7.80538L15.7907 1.34324C15.7906 1.34299 15.7905 1.34275 15.7903 1.3425C15.6822 1.14204 15.4507 1.00091 15.1507 1C14.8528 0.999102 14.6236 1.13658 14.5138 1.34134L10.8146 8.25661ZM10.8146 8.25661L11.0559 7.80538L14.5135 1.34172L10.8146 8.25661Z" stroke="#FFB100" stroke-width="2"/>
</svg>
