<svg width="13" height="13" viewBox="0 0 13 13" fill="none" xmlns="http://www.w3.org/2000/svg">
<path fill-rule="evenodd" clip-rule="evenodd" d="M11.0531 1.95491C10.4563 1.36537 9.74626 0.897903 8.96408 0.579604C8.1819 0.261304 7.34313 0.0984941 6.49638 0.100606C2.94572 0.100606 0.0552548 2.93664 0.0538196 6.42269C0.0538196 7.53682 0.350186 8.62419 0.913497 9.58339L0 12.8589L3.41503 11.9793C4.35967 12.4839 5.41798 12.7485 6.49351 12.749H6.49638C10.0463 12.749 12.9368 9.91298 12.9382 6.42692C12.9407 5.59624 12.7753 4.77333 12.4517 4.00574C12.1282 3.23815 11.6528 2.54111 11.0531 1.95491ZM6.49638 11.6821H6.49422C5.53517 11.6822 4.59377 11.4289 3.7688 10.9489L3.57362 10.8348L1.54713 11.3567L2.08748 9.41788L1.96047 9.21929C1.42427 8.38152 1.14042 7.41202 1.14169 6.42269C1.14313 3.52539 3.54491 1.16826 6.49853 1.16826C7.20195 1.16672 7.8987 1.30212 8.54844 1.56662C9.19819 1.83111 9.78803 2.21945 10.2838 2.70916C10.7823 3.19654 11.1774 3.77603 11.4463 4.41416C11.7151 5.05229 11.8525 5.73639 11.8503 6.42692C11.8489 9.32422 9.44712 11.6821 6.49638 11.6821ZM9.43349 7.74599C9.27203 7.66641 8.48124 7.2847 8.33342 7.23188C8.18631 7.17906 8.07939 7.153 7.97175 7.31076C7.86411 7.46851 7.55554 7.82416 7.46154 7.9298C7.36754 8.03543 7.27353 8.04811 7.11279 7.96924C6.95205 7.89036 6.43323 7.72345 5.81825 7.1854C5.33962 6.76637 5.0167 6.24945 4.92269 6.09099C4.82869 5.93253 4.91265 5.84732 4.99373 5.76844C5.06621 5.69802 5.15448 5.58393 5.23485 5.49167C5.31522 5.39941 5.34177 5.33392 5.39559 5.22828C5.44941 5.12264 5.42286 5.03038 5.38195 4.95151C5.34177 4.87193 5.01957 4.09443 4.88538 3.77822C4.75549 3.47187 4.62274 3.51272 4.52371 3.50849C4.42115 3.50437 4.31851 3.5025 4.21586 3.50286C4.13424 3.5049 4.05393 3.52347 3.97996 3.5574C3.906 3.59133 3.83997 3.6399 3.78602 3.70005C3.6382 3.85851 3.22271 4.24021 3.22271 5.01771C3.22271 5.7952 3.79966 6.54664 3.88003 6.65228C3.9604 6.75792 5.01526 8.35305 6.62985 9.03759C7.01448 9.20027 7.31443 9.29746 7.54765 9.3707C7.933 9.49113 8.2839 9.47352 8.56161 9.43338C8.87089 9.38831 9.51386 9.05167 9.64805 8.68264C9.78224 8.31361 9.78224 7.99741 9.74205 7.93121C9.70187 7.86501 9.59351 7.82486 9.43349 7.74599Z" fill="#FFB100"/>
</svg>
