<svg width="13" height="13" viewBox="0 0 13 13" fill="none" xmlns="http://www.w3.org/2000/svg">
<path d="M12.4328 2.07045L10.7022 0.373965C10.491 0.166687 10.2082 0.050293 9.90923 0.050293C9.61023 0.050293 9.32748 0.165093 9.11623 0.373965L7.25236 2.1996C7.04111 2.40688 6.92248 2.68591 6.92248 2.97929C6.92248 3.27426 7.03948 3.5501 7.25236 3.75897L8.70836 5.18919C8.37667 5.94748 7.90009 6.63646 7.30436 7.21891C6.70798 7.80726 6.01086 8.27125 5.23736 8.5997L3.78137 7.16949C3.57012 6.96221 3.28737 6.84582 2.98837 6.84582C2.84089 6.84528 2.69478 6.87363 2.55861 6.92921C2.42245 6.98479 2.29895 7.06648 2.19537 7.16949L0.329874 8.99513C0.118625 9.2024 0 9.48143 0 9.77481C0 10.0698 0.117 10.3456 0.329874 10.5545L2.05887 12.251C2.41962 12.6049 2.91687 12.8074 3.42712 12.8074C3.53274 12.8074 3.63512 12.7995 3.73912 12.7819C5.89061 12.4343 8.02586 11.3103 9.74998 9.62015C11.4725 7.92685 12.6165 5.83175 12.974 3.71911C13.0763 3.1196 12.8716 2.50255 12.4328 2.07045ZM11.8218 3.52937C11.505 5.40922 10.4747 7.28429 8.92285 8.80698C7.37098 10.3297 5.46161 11.3406 3.54574 11.6515C3.30524 11.6913 3.05824 11.6116 2.88274 11.441L1.18462 9.77481L2.98512 8.00657L4.93186 9.9199L4.94649 9.93425L5.29749 9.8067C6.36174 9.42277 7.32819 8.81636 8.12984 8.0295C8.9315 7.24264 9.54919 6.29416 9.9401 5.24978L10.0701 4.90538L8.10711 2.98088L9.9076 1.21264L11.6057 2.87884C11.7812 3.05104 11.8625 3.29339 11.8218 3.52937Z" fill="#FFB100"/>
</svg>
