<svg width="68" height="68" viewBox="0 0 68 68" fill="none" xmlns="http://www.w3.org/2000/svg">
<g clip-path="url(#clip0)">
<path d="M65.6835 34.6713H65.6087V19.0537C65.6087 17.1172 64.0332 15.5416 62.0966 15.5416H61.4683L60.0376 8.01698C59.9221 7.4091 59.5768 6.88263 59.0652 6.53453C58.5536 6.18643 57.9371 6.05839 57.3293 6.17394L51.9993 7.1873L50.0145 1.55167C49.8091 0.968089 49.3885 0.499394 48.8304 0.232042C48.2724 -0.0353091 47.6438 -0.0694419 47.06 0.136285L3.29893 15.5488C1.46134 15.6594 0 17.1887 0 19.0537V64.4867C0 66.4233 1.57555 67.9988 3.51209 67.9988H62.0967C64.0333 67.9988 65.6088 66.4233 65.6088 64.4867V48.869H65.6836C66.961 48.869 68.0001 47.8299 68.0001 46.5525V36.9876C68 35.7105 66.9609 34.6713 65.6835 34.6713ZM47.8045 2.25066C47.8118 2.24814 47.8335 2.2403 47.8616 2.25385C47.8895 2.26713 47.8972 2.28931 47.8998 2.29648L49.7716 7.61111L47.5394 8.03544C46.9313 8.15112 46.5319 8.73789 46.6476 9.34604C46.7633 9.95418 47.3496 10.3537 47.9582 10.2379L57.7479 8.3765C57.7554 8.37518 57.7782 8.37066 57.804 8.38819C57.8298 8.40572 57.834 8.42857 57.8353 8.436L59.1863 15.5419H20.0604L43.1771 11.1468C43.7852 11.0313 44.1846 10.4445 44.0689 9.83625C43.9532 9.2281 43.3667 8.82846 42.7583 8.94441L12.4239 14.7118L47.8045 2.25066ZM63.3671 64.4866C63.3671 65.1871 62.7972 65.757 62.0967 65.757H3.51209C2.81164 65.757 2.24174 65.1871 2.24174 64.4866V63.2163H4.70767C5.32671 63.2163 5.82861 62.7144 5.82861 62.0953C5.82861 61.4763 5.32671 60.9744 4.70767 60.9744H2.24174V22.5658H4.70767C5.32671 22.5658 5.82861 22.0639 5.82861 21.4449C5.82861 20.8258 5.32671 20.3239 4.70767 20.3239H2.24174V19.0536C2.24174 18.3531 2.81164 17.7832 3.51209 17.7832H62.0967C62.7972 17.7832 63.3671 18.3531 63.3671 19.0536V34.6711H56.1187C52.2045 34.6711 49.0198 37.8557 49.0198 41.7701C49.0198 45.6843 52.2043 48.869 56.1187 48.869H63.3671V64.4866ZM65.7583 46.5525C65.7583 46.5936 65.7248 46.6273 65.6835 46.6273H56.1186C53.4404 46.6273 51.2615 44.4484 51.2615 41.7702C51.2615 39.0919 53.4404 36.9131 56.1186 36.9131H65.6835C65.7248 36.9131 65.7583 36.9467 65.7583 36.9879V46.5525Z" fill="#FFB100"/>
<path d="M11.8812 60.9734H9.49008C8.87104 60.9734 8.36914 61.4753 8.36914 62.0943C8.36914 62.7134 8.87104 63.2153 9.49008 63.2153H11.8812C12.5003 63.2153 13.0022 62.7134 13.0022 62.0943C13.0022 61.4753 12.5003 60.9734 11.8812 60.9734Z" fill="#FFB100"/>
<path d="M11.8812 20.323H9.49008C8.87104 20.323 8.36914 20.8249 8.36914 21.4439C8.36914 22.063 8.87104 22.5649 9.49008 22.5649H11.8812C12.5003 22.5649 13.0022 22.063 13.0022 21.4439C13.0022 20.8249 12.5003 20.323 11.8812 20.323Z" fill="#FFB100"/>
<path d="M19.0551 60.9734H16.6639C16.0449 60.9734 15.543 61.4753 15.543 62.0943C15.543 62.7134 16.0449 63.2153 16.6639 63.2153H19.0551C19.6741 63.2153 20.176 62.7134 20.176 62.0943C20.176 61.4753 19.674 60.9734 19.0551 60.9734Z" fill="#FFB100"/>
<path d="M19.0551 20.323H16.6639C16.0449 20.323 15.543 20.8249 15.543 21.4439C15.543 22.063 16.0449 22.5649 16.6639 22.5649H19.0551C19.6741 22.5649 20.176 22.063 20.176 21.4439C20.176 20.8249 19.674 20.323 19.0551 20.323Z" fill="#FFB100"/>
<path d="M26.2284 60.9734H23.8372C23.2182 60.9734 22.7163 61.4753 22.7163 62.0943C22.7163 62.7134 23.2182 63.2153 23.8372 63.2153H26.2284C26.8474 63.2153 27.3493 62.7134 27.3493 62.0943C27.3493 61.4753 26.8474 60.9734 26.2284 60.9734Z" fill="#FFB100"/>
<path d="M26.2284 20.323H23.8372C23.2182 20.323 22.7163 20.8249 22.7163 21.4439C22.7163 22.063 23.2182 22.5649 23.8372 22.5649H26.2284C26.8474 22.5649 27.3493 22.063 27.3493 21.4439C27.3493 20.8249 26.8474 20.323 26.2284 20.323Z" fill="#FFB100"/>
<path d="M33.4022 60.9734H31.0111C30.392 60.9734 29.8901 61.4753 29.8901 62.0943C29.8901 62.7134 30.392 63.2153 31.0111 63.2153H33.4022C34.0213 63.2153 34.5232 62.7134 34.5232 62.0943C34.5232 61.4753 34.0213 60.9734 33.4022 60.9734Z" fill="#FFB100"/>
<path d="M33.4022 20.323H31.0111C30.392 20.323 29.8901 20.8249 29.8901 21.4439C29.8901 22.063 30.392 22.5649 31.0111 22.5649H33.4022C34.0213 22.5649 34.5232 22.063 34.5232 21.4439C34.5232 20.8249 34.0213 20.323 33.4022 20.323Z" fill="#FFB100"/>
<path d="M40.5761 60.9734H38.1849C37.5659 60.9734 37.064 61.4753 37.064 62.0943C37.064 62.7134 37.5659 63.2153 38.1849 63.2153H40.5761C41.1951 63.2153 41.697 62.7134 41.697 62.0943C41.697 61.4753 41.1951 60.9734 40.5761 60.9734Z" fill="#FFB100"/>
<path d="M40.5761 20.323H38.1849C37.5659 20.323 37.064 20.8249 37.064 21.4439C37.064 22.063 37.5659 22.5649 38.1849 22.5649H40.5761C41.1951 22.5649 41.697 22.063 41.697 21.4439C41.697 20.8249 41.1951 20.323 40.5761 20.323Z" fill="#FFB100"/>
<path d="M47.7494 60.9734H45.3582C44.7392 60.9734 44.2373 61.4753 44.2373 62.0943C44.2373 62.7134 44.7392 63.2153 45.3582 63.2153H47.7494C48.3684 63.2153 48.8703 62.7134 48.8703 62.0943C48.8703 61.4753 48.3684 60.9734 47.7494 60.9734Z" fill="#FFB100"/>
<path d="M47.7494 20.323H45.3582C44.7392 20.323 44.2373 20.8249 44.2373 21.4439C44.2373 22.063 44.7392 22.5649 45.3582 22.5649H47.7494C48.3684 22.5649 48.8703 22.063 48.8703 21.4439C48.8703 20.8249 48.3684 20.323 47.7494 20.323Z" fill="#FFB100"/>
<path d="M54.9232 60.9734H52.5321C51.913 60.9734 51.4111 61.4753 51.4111 62.0943C51.4111 62.7134 51.913 63.2153 52.5321 63.2153H54.9232C55.5423 63.2153 56.0442 62.7134 56.0442 62.0943C56.0442 61.4753 55.5423 60.9734 54.9232 60.9734Z" fill="#FFB100"/>
<path d="M54.9232 20.323H52.5321C51.913 20.323 51.4111 20.8249 51.4111 21.4439C51.4111 22.063 51.913 22.5649 52.5321 22.5649H54.9232C55.5423 22.5649 56.0442 22.063 56.0442 21.4439C56.0442 20.8249 55.5423 20.323 54.9232 20.323Z" fill="#FFB100"/>
<path d="M59.7054 58.5823C59.0864 58.5823 58.5845 59.0842 58.5845 59.7032V62.0944C58.5845 62.7135 59.0864 63.2153 59.7054 63.2153C60.3244 63.2153 60.8263 62.7134 60.8263 62.0944V59.7032C60.8263 59.0842 60.3244 58.5823 59.7054 58.5823Z" fill="#FFB100"/>
<path d="M59.7054 20.323C59.0864 20.323 58.5845 20.8249 58.5845 21.4439V23.8351C58.5845 24.4543 59.0864 24.956 59.7054 24.956C60.3244 24.956 60.8263 24.4541 60.8263 23.8351V21.4439C60.8263 20.8248 60.3244 20.323 59.7054 20.323Z" fill="#FFB100"/>
<path d="M59.7054 27.4966C59.0864 27.4966 58.5845 27.9985 58.5845 28.6175V31.0087C58.5845 31.6278 59.0864 32.1296 59.7054 32.1296C60.3244 32.1296 60.8263 31.6277 60.8263 31.0087V28.6175C60.8263 27.9985 60.3244 27.4966 59.7054 27.4966Z" fill="#FFB100"/>
<path d="M59.7054 51.4087C59.0864 51.4087 58.5845 51.9106 58.5845 52.5296V54.9208C58.5845 55.54 59.0864 56.0417 59.7054 56.0417C60.3244 56.0417 60.8263 55.5398 60.8263 54.9208V52.5296C60.8263 51.9106 60.3244 51.4087 59.7054 51.4087Z" fill="#FFB100"/>
<path d="M56.1188 39.4526C54.8414 39.4526 53.8022 40.4918 53.8022 41.7692C53.8022 43.0465 54.8414 44.0857 56.1188 44.0857C57.3961 44.0857 58.4353 43.0465 58.4353 41.7692C58.4351 40.4918 57.396 39.4526 56.1188 39.4526Z" fill="#FFB100"/>
<path d="M32.1316 40.9133V32.1745C35.7939 32.4689 38.259 34.1727 38.259 35.7163C38.259 36.3354 38.7609 36.8373 39.3799 36.8373C39.999 36.8373 40.5009 36.3354 40.5009 35.7163C40.5009 32.6814 36.9059 30.2585 32.1317 29.9278V28.6175C32.1317 27.9985 31.6298 27.4966 31.0108 27.4966C30.3917 27.4966 29.8898 27.9985 29.8898 28.6175V29.9278C25.1156 30.2587 21.5206 32.6816 21.5206 35.7163C21.5206 39.782 25.3864 41.3686 29.8898 42.6248V51.3636C26.2275 51.0693 23.7624 49.3656 23.7624 47.8218C23.7624 47.2028 23.2605 46.7009 22.6414 46.7009C22.0224 46.7009 21.5205 47.2028 21.5205 47.8218C21.5205 50.8567 25.1155 53.2796 29.8897 53.6103V54.9206C29.8897 55.5397 30.3916 56.0416 31.0106 56.0416C31.6297 56.0416 32.1316 55.5397 32.1316 54.9206V53.6103C36.9058 53.2795 40.5007 50.8566 40.5007 47.8218C40.5007 43.7561 36.635 42.1696 32.1316 40.9133ZM29.8898 40.29C25.3436 38.947 23.7624 37.7271 23.7624 35.7163C23.7624 34.1727 26.2275 32.4689 29.8898 32.1745V40.29ZM32.1316 51.3636V43.2481C36.6777 44.5913 38.259 45.8111 38.259 47.8218C38.259 49.3655 35.7939 51.0692 32.1316 51.3636Z" fill="#FFB100"/>
</g>
<defs>
<clipPath id="clip0">
<rect width="68" height="68" fill="white"/>
</clipPath>
</defs>
</svg>
