<svg width="74" height="74" viewBox="0 0 74 74" fill="none" xmlns="http://www.w3.org/2000/svg">
<path d="M37.6283 50.9043C36.9775 50.9043 36.45 51.4318 36.45 52.0827V54.5961C36.45 55.2469 36.9775 55.7744 37.6283 55.7744C38.2791 55.7744 38.8067 55.2469 38.8067 54.5961V52.0827C38.8067 51.4318 38.2791 50.9043 37.6283 50.9043Z" fill="#FFB100"/>
<path d="M73.2866 34.0209C72.8267 33.561 72.2155 33.3078 71.5649 33.3078C71.5648 33.3078 71.5646 33.3078 71.5645 33.3078L68.5396 33.3082C68.5013 33.3082 68.475 33.2652 68.4669 33.2253C67.6354 29.1469 65.7708 25.3021 63.0745 22.1062C60.4683 19.0173 57.1303 16.588 53.4082 15.0622C52.8078 12.5277 51.5401 9.91456 49.0402 7.95023C46.6199 6.04849 44.1822 5.68254 44.0797 5.6678C43.7421 5.61967 43.3991 5.72026 43.141 5.94414C42.8829 6.16802 42.7347 6.49264 42.7347 6.83431V13.1974H38.4583C37.4015 9.57115 34.0501 6.91293 30.0872 6.91293C26.0402 6.91293 22.629 9.68461 21.6501 13.4291C15.8237 14.2227 10.4633 17.0454 6.48584 21.4341C2.30339 26.0494 0 32.0238 0 38.257C0 52.2478 7.26342 63.6315 9.48978 66.787C10.1775 67.7619 11.3038 68.3441 12.5027 68.3441H17.5181C19.5539 68.3441 21.2102 66.6877 21.2102 64.6519V63.0208C22.4794 63.2162 23.7687 63.3164 25.0595 63.3164H36.4502V64.6519C36.4502 66.6877 38.1065 68.3441 40.1424 68.3441H45.6515C47.381 68.3441 48.8993 67.1166 49.2616 65.4255L49.8663 62.6037C57.6109 60.7177 63.8377 55.2845 66.9025 48.2338H71.5648C72.9076 48.2338 74 47.1415 74 45.7986V35.7433C74 35.0925 73.7468 34.481 73.2866 34.0209ZM30.0871 9.26981C33.5957 9.26981 36.4501 12.1243 36.4501 15.6329C36.4501 16.5302 36.258 17.414 35.8961 18.2253H24.2779C23.9162 17.4137 23.7239 16.5302 23.7239 15.6329C23.7239 12.1242 26.5784 9.26981 30.0871 9.26981ZM71.6433 45.7983C71.6433 45.8417 71.6082 45.877 71.5646 45.877H67.7883C68.4302 43.8674 68.8252 41.7541 68.9382 39.5748C68.972 38.925 68.4724 38.3707 67.8224 38.3371C67.1725 38.3041 66.6184 38.8029 66.5847 39.4528C66.0855 49.0775 59.5347 57.2951 50.4215 60.0127L52.0678 52.3301C52.2043 51.6938 51.7988 51.0674 51.1625 50.9311C50.5265 50.7944 49.8997 51.2001 49.7634 51.8364L46.9572 64.9315C46.8261 65.5432 46.2769 65.9872 45.6515 65.9872H40.1421C39.4057 65.9872 38.8066 65.3881 38.8066 64.6517V59.6241C38.8066 58.9732 38.2791 58.4457 37.6283 58.4457C36.9775 58.4457 36.4499 58.9732 36.4499 59.6241V60.9595H25.0593C23.7664 60.9595 22.4759 60.8484 21.21 60.6326V52.0829C21.21 51.432 20.6824 50.9045 20.0316 50.9045C19.3808 50.9045 18.8532 51.432 18.8532 52.0829V64.6519C18.8532 65.3883 18.2542 65.9873 17.5178 65.9873H12.5027C12.0621 65.9873 11.6658 65.7837 11.4155 65.4286C9.29047 62.4161 2.35673 51.554 2.35673 38.2568C2.35673 32.6097 4.44332 27.1973 8.23207 23.0168C11.6994 19.1906 16.3257 16.6786 21.371 15.8536C21.3913 16.6611 21.5237 17.4595 21.7613 18.225H21.2887C20.6379 18.225 20.1104 18.7525 20.1104 19.4033C20.1104 20.0541 20.6379 20.5817 21.2887 20.5817H38.8854C39.5362 20.5817 40.0638 20.0541 40.0638 19.4033C40.0638 18.7525 39.5362 18.225 38.8854 18.225H38.4126C38.6721 17.3897 38.8068 16.5154 38.8068 15.6326C38.8068 15.6062 38.805 15.5803 38.8048 15.554H42.7346V18.1463C42.7346 18.7972 43.2621 19.3247 43.9129 19.3247C44.5638 19.3247 45.0913 18.7972 45.0913 18.1463V8.38152C47.327 9.2276 51.5329 11.8264 51.5329 19.4035C51.5329 20.0543 52.0604 20.5818 52.7113 20.5818C53.3621 20.5818 53.8896 20.0543 53.8896 19.4035C53.8896 18.9043 53.8716 18.3772 53.8302 17.8324C56.6727 19.217 59.2228 21.1959 61.2733 23.6262C63.7159 26.5213 65.4049 30.0034 66.1577 33.6962C66.3903 34.8372 67.3922 35.6653 68.54 35.6651L71.5649 35.6648C71.5729 35.6648 71.5975 35.6648 71.6204 35.6878C71.6434 35.7108 71.6434 35.7351 71.6434 35.7433V45.7983H71.6433Z" fill="#FFB100"/>
<path d="M61.3566 34.0745C60.6253 32.1124 58.6893 30.7939 56.5398 30.7939C54.3902 30.7939 52.4545 32.1122 51.7228 34.0745C51.4954 34.6843 51.8054 35.3629 52.4152 35.5902C53.0251 35.8179 53.7037 35.5075 53.9309 34.8978C54.3206 33.8528 55.369 33.1507 56.5397 33.1507C57.7104 33.1507 58.759 33.8528 59.1485 34.8978C59.3252 35.372 59.7747 35.6648 60.2527 35.6648C60.3896 35.6648 60.5286 35.6408 60.6642 35.5902C61.2739 35.3629 61.584 34.6842 61.3566 34.0745Z" fill="#FFB100"/>
<path d="M31.2655 37.3582V31.3364C33.5771 31.6174 35.1933 32.6884 35.1933 33.6612C35.1933 34.312 35.7208 34.8396 36.3716 34.8396C37.0225 34.8396 37.55 34.312 37.55 33.6612C37.55 31.2522 34.8713 29.3153 31.2655 28.9654V28.83C31.2655 28.1792 30.738 27.6516 30.0871 27.6516C29.4363 27.6516 28.9088 28.1792 28.9088 28.83V28.9654C25.303 29.3153 22.6243 31.2522 22.6243 33.6612C22.6243 37.1021 26.0236 38.3439 28.9088 39.1553V45.177C26.5971 44.8961 24.981 43.8251 24.981 42.8523C24.981 42.2014 24.4535 41.6739 23.8026 41.6739C23.1518 41.6739 22.6243 42.2014 22.6243 42.8523C22.6243 45.2613 25.303 47.1982 28.9088 47.5481V47.6835C28.9088 48.3343 29.4363 48.8619 30.0871 48.8619C30.738 48.8619 31.2655 48.3343 31.2655 47.6835V47.5481C34.8713 47.1982 37.55 45.2613 37.55 42.8523C37.55 39.4113 34.1505 38.1696 31.2655 37.3582ZM28.9088 36.6881C26.0066 35.7777 24.981 34.9504 24.981 33.6612C24.981 32.6884 26.5971 31.6174 28.9088 31.3364V36.6881ZM31.2655 45.1772V39.8255C34.1677 40.7357 35.1933 41.5632 35.1933 42.8524C35.1933 43.8252 33.577 44.8962 31.2655 45.1772Z" fill="#FFB100"/>
</svg>
