<svg width="80" height="51" viewBox="0 0 80 51" fill="none" xmlns="http://www.w3.org/2000/svg">
<path d="M74.3998 21.6207L72.3281 13.2693C72.8945 13.148 73.3195 12.6416 73.3195 12.0349V10.6884C73.3195 7.7648 70.9594 5.38639 68.0586 5.38639H58.6223V2.60895C58.6223 1.17031 57.4611 0 56.0336 0H7.93314C6.50564 0 5.34439 1.17031 5.34439 2.60895V25.5002C5.34439 26.1974 5.90517 26.7627 6.59704 26.7627C7.28876 26.7627 7.8497 26.1975 7.8497 25.5002V2.60895C7.8497 2.56265 7.88705 2.52486 7.93314 2.52486H56.0334C56.0795 2.52486 56.1168 2.56281 56.1168 2.60895V25.5006C56.1168 26.1977 56.6776 26.763 57.3695 26.763C58.0612 26.763 58.6222 26.1978 58.6222 25.5006V24.0695H73.3986C73.3998 24.0695 73.4008 24.0698 73.4019 24.0698C73.4031 24.0698 73.4042 24.0696 73.4053 24.0696C75.2236 24.0709 76.7675 25.2736 77.2978 26.931H73.4028C72.7111 26.931 72.1501 27.4962 72.1501 28.1934V30.8865C72.1501 33.0676 73.9108 34.8419 76.075 34.8419H77.4947V40.3963H74.2194C73.1434 37.2652 70.1901 35.0101 66.7222 35.0101C63.2542 35.0101 60.3007 37.2652 59.225 40.3963H58.6218V30.8863C58.6218 30.1892 58.0611 29.6239 57.3692 29.6239C56.6775 29.6239 56.1165 30.189 56.1165 30.8863V40.396H30.1277C29.0518 37.2649 26.0985 35.0098 22.6305 35.0098C19.1625 35.0098 16.2091 37.2649 15.1333 40.396H7.93314C7.88705 40.396 7.8497 40.3581 7.8497 40.3119V37.5347H13.2777C13.9694 37.5347 14.5303 36.9695 14.5303 36.2722C14.5303 35.575 13.9696 35.0098 13.2777 35.0098H6.59798C6.59767 35.0098 6.59751 35.0098 6.5972 35.0098C6.59689 35.0098 6.59673 35.0098 6.59642 35.0098H1.25266C0.560939 35.0098 0 35.575 0 36.2722C0 36.9695 0.560782 37.5347 1.25266 37.5347H5.34454V40.3119C5.34454 41.7506 6.50579 42.9209 7.9333 42.9209H14.6996C14.6992 42.9489 14.6974 42.977 14.6974 43.005C14.6974 47.4133 18.2563 51 22.6305 51C27.0047 51 30.5637 47.4133 30.5637 43.005C30.5637 42.977 30.5618 42.9489 30.5615 42.9209H58.7912C58.7909 42.9489 58.789 42.977 58.789 43.005C58.789 47.4133 62.3479 51 66.7222 51C71.0964 51 74.6553 47.4133 74.6553 43.005C74.6553 42.977 74.6534 42.9489 74.6531 42.9209H78.7473C79.4391 42.9209 80 42.3557 80 41.6585V28.1931C80.0002 24.8686 77.5662 22.1065 74.3998 21.6207ZM58.6223 7.91109H68.0586C69.5781 7.91109 70.8144 9.15699 70.8144 10.6884V10.7725H58.6223V7.91109ZM58.6223 21.5448V13.2972H69.7528L71.7987 21.5448H58.6223ZM22.6305 48.4756C19.6375 48.4756 17.2025 46.0218 17.2025 43.0053C17.2025 39.9888 19.6375 37.535 22.6305 37.535C25.6235 37.535 28.0585 39.9888 28.0585 43.0053C28.0585 46.0218 25.6235 48.4756 22.6305 48.4756ZM66.7225 48.4756C63.7295 48.4756 61.2945 46.0218 61.2945 43.0053C61.2945 39.9888 63.7295 37.535 66.7225 37.535C69.7155 37.535 72.1505 39.9888 72.1505 43.0053C72.1505 46.0218 69.7155 48.4756 66.7225 48.4756ZM77.495 32.3171H76.0753C75.2925 32.3171 74.6556 31.6752 74.6556 30.8863V29.4555H77.4948V32.3171H77.495Z" fill="#FFB100"/>
<path d="M22.6305 40.3962C21.203 40.3962 20.0417 41.5666 20.0417 43.0052C20.0417 44.4438 21.203 45.6141 22.6305 45.6141C24.058 45.6141 25.2193 44.4438 25.2193 43.0052C25.2193 41.5666 24.058 40.3962 22.6305 40.3962Z" fill="#FFB100"/>
<path d="M66.7223 40.3962C65.2948 40.3962 64.1335 41.5666 64.1335 43.0052C64.1335 44.4438 65.2948 45.6141 66.7223 45.6141C68.1498 45.6141 69.3111 44.4438 69.3111 43.0052C69.3111 41.5666 68.1498 40.3962 66.7223 40.3962Z" fill="#FFB100"/>
<path d="M52.025 35.0103H33.3193C32.6276 35.0103 32.0667 35.5754 32.0667 36.2727C32.0667 36.97 32.6274 37.5351 33.3193 37.5351H52.025C52.7167 37.5351 53.2776 36.97 53.2776 36.2727C53.2776 35.5754 52.7168 35.0103 52.025 35.0103Z" fill="#FFB100"/>
<path d="M19.9585 29.6238H3.92502C3.2333 29.6238 2.67236 30.1889 2.67236 30.8862C2.67236 31.5835 3.23315 32.1486 3.92502 32.1486H19.9585C20.6502 32.1486 21.2111 31.5835 21.2111 30.8862C21.2111 30.1889 20.6502 29.6238 19.9585 29.6238Z" fill="#FFB100"/>
<path d="M31.9833 6.73267C25.3988 6.73267 20.0417 12.1315 20.0417 18.7674C20.0417 25.4033 25.3988 30.8021 31.9833 30.8021C38.5679 30.8021 43.9249 25.4033 43.9249 18.7674C43.9249 12.1315 38.5679 6.73267 31.9833 6.73267ZM31.9833 28.2774C26.7802 28.2774 22.5471 24.0113 22.5471 18.7676C22.5471 13.5238 26.7802 9.25768 31.9833 9.25768C37.1865 9.25768 41.4196 13.5238 41.4196 18.7676C41.4196 24.0113 37.1865 28.2774 31.9833 28.2774Z" fill="#FFB100"/>
<path d="M36.8774 21.9144L33.236 18.2446V13.3813C33.236 12.6842 32.6752 12.1189 31.9834 12.1189C31.2915 12.1189 30.7307 12.6841 30.7307 13.3813V18.7676C30.7307 19.1023 30.8626 19.4233 31.0976 19.6601L35.1059 23.6997C35.3504 23.9461 35.671 24.0694 35.9915 24.0694C36.312 24.0694 36.6328 23.9462 36.8771 23.6997C37.3667 23.2066 37.3667 22.4075 36.8774 21.9144Z" fill="#FFB100"/>
</svg>
