<svg width="68" height="68" viewBox="0 0 68 68" fill="none" xmlns="http://www.w3.org/2000/svg">
<path d="M54.4425 4.54285H45.1107C44.6653 3.22402 43.4171 2.27149 41.9498 2.27149H38.4836C37.4316 0.856773 35.7652 0 33.9999 0C32.2345 0 30.5681 0.856773 29.5161 2.27136H26.05C24.5827 2.27136 23.3345 3.22389 22.8891 4.54272H13.5572C11.0914 4.54272 9.08545 6.54885 9.08545 9.01452V63.5282C9.08545 65.994 11.0916 68 13.5572 68H54.4424C56.9082 68 58.9142 65.9939 58.9142 63.5282V9.01465C58.9143 6.54885 56.9082 4.54285 54.4425 4.54285ZM24.8433 5.61027C24.8433 5.60934 24.8434 5.60841 24.8434 5.60761C24.8434 5.60721 24.8434 5.60681 24.8434 5.60615C24.8441 4.94142 25.385 4.40088 26.05 4.40088H30.0871C30.4661 4.40088 30.8166 4.1994 31.0073 3.87162C31.6423 2.78083 32.761 2.12952 33.9999 2.12952C35.2388 2.12952 36.3574 2.78083 36.9924 3.87162C37.183 4.19927 37.5336 4.40088 37.9127 4.40088H41.9498C42.6137 4.40088 43.154 4.93996 43.1564 5.60349C43.1564 5.60495 43.1562 5.60615 43.1562 5.60761C43.1562 5.6104 43.1566 5.61319 43.1566 5.61584V9.0857H24.8433V5.61027ZM56.7848 63.5282C56.7848 64.8198 55.734 65.8706 54.4424 65.8706H13.5572C12.2656 65.8706 11.2148 64.8198 11.2148 63.5282V9.01465C11.2148 7.72305 12.2656 6.67223 13.5572 6.67223H22.7139V10.1503C22.7139 10.7383 23.1905 11.2151 23.7786 11.2151H44.2211C44.8091 11.2151 45.2859 10.7384 45.2859 10.1503V6.67223H54.4425C55.7341 6.67223 56.7849 7.72305 56.7849 9.01465V63.5282H56.7848Z" fill="#FFB100"/>
<path d="M34.0114 4.54272H34C33.412 4.54272 32.9409 5.01939 32.9409 5.60748C32.9409 6.19544 33.4233 6.67224 34.0113 6.67224C34.5992 6.67224 35.076 6.19558 35.076 5.60748C35.076 5.01939 34.5994 4.54272 34.0114 4.54272Z" fill="#FFB100"/>
<path d="M53.3071 9.08569H48.7641C48.1761 9.08569 47.6993 9.56236 47.6993 10.1505C47.6993 10.7385 48.176 11.2152 48.7641 11.2152H52.2423V61.3279H15.7579V11.2152H19.2363C19.8243 11.2152 20.3011 10.7385 20.3011 10.1505C20.3011 9.56236 19.8244 9.08569 19.2363 9.08569H14.6932C14.1052 9.08569 13.6284 9.56236 13.6284 10.1505V62.3926C13.6284 62.9806 14.1051 63.4574 14.6932 63.4574H53.3071C53.895 63.4574 54.3718 62.9807 54.3718 62.3926V10.1505C54.3717 9.56249 53.895 9.08569 53.3071 9.08569Z" fill="#FFB100"/>
<path d="M27.1856 22.7141C26.5976 22.7141 26.1208 23.1907 26.1208 23.7788C26.1208 25.0704 25.07 26.1212 23.7784 26.1212C22.4868 26.1212 21.436 25.0704 21.436 23.7788C21.436 22.4872 22.4868 21.4364 23.7784 21.4364C24.3664 21.4364 24.8432 20.9597 24.8432 20.3716C24.8432 19.7835 24.3665 19.3069 23.7784 19.3069C21.3126 19.3069 19.3066 21.313 19.3066 23.7787C19.3066 26.2443 21.3128 28.2505 23.7784 28.2505C26.2441 28.2505 28.2502 26.2443 28.2502 23.7787C28.2504 23.1907 27.7736 22.7141 27.1856 22.7141Z" fill="#FFB100"/>
<path d="M27.1856 35.2067C26.5976 35.2067 26.1208 35.6834 26.1208 36.2715C26.1208 37.5631 25.07 38.6139 23.7784 38.6139C22.4868 38.6139 21.436 37.5631 21.436 36.2715C21.436 34.9799 22.4868 33.9291 23.7784 33.9291C24.3664 33.9291 24.8432 33.4524 24.8432 32.8643C24.8432 32.2762 24.3665 31.7996 23.7784 31.7996C21.3126 31.7996 19.3066 33.8057 19.3066 36.2714C19.3066 38.737 21.3128 40.7432 23.7784 40.7432C26.2441 40.7432 28.2502 38.737 28.2502 36.2714C28.2504 35.6834 27.7736 35.2067 27.1856 35.2067Z" fill="#FFB100"/>
<path d="M47.6286 37.478H31.7288C31.1409 37.478 30.6641 37.9547 30.6641 38.5428C30.6641 39.1309 31.1407 39.6075 31.7288 39.6075H47.6286C48.2166 39.6075 48.6934 39.1309 48.6934 38.5428C48.6934 37.9547 48.2166 37.478 47.6286 37.478Z" fill="#FFB100"/>
<path d="M43.0858 32.9353H31.7288C31.1409 32.9353 30.6641 33.412 30.6641 34.0001C30.6641 34.5882 31.1407 35.0648 31.7288 35.0648H43.0858C43.6737 35.0648 44.1505 34.5882 44.1505 34.0001C44.1505 33.412 43.6739 32.9353 43.0858 32.9353Z" fill="#FFB100"/>
<path d="M47.6286 24.9854H31.7288C31.1409 24.9854 30.6641 25.462 30.6641 26.0501C30.6641 26.6382 31.1407 27.1149 31.7288 27.1149H47.6286C48.2166 27.1149 48.6934 26.6382 48.6934 26.0501C48.6934 25.462 48.2166 24.9854 47.6286 24.9854Z" fill="#FFB100"/>
<path d="M43.0858 20.4426H31.7288C31.1409 20.4426 30.6641 20.9193 30.6641 21.5074C30.6641 22.0955 31.1407 22.5721 31.7288 22.5721H43.0858C43.6737 22.5721 44.1505 22.0955 44.1505 21.5074C44.1505 20.9193 43.6739 20.4426 43.0858 20.4426Z" fill="#FFB100"/>
<path d="M27.1856 47.6994C26.5976 47.6994 26.1208 48.1761 26.1208 48.7642C26.1208 50.0558 25.07 51.1066 23.7784 51.1066C22.4868 51.1066 21.436 50.0558 21.436 48.7642C21.436 47.4726 22.4868 46.4218 23.7784 46.4218C24.3664 46.4218 24.8432 45.9451 24.8432 45.357C24.8432 44.7689 24.3665 44.2922 23.7784 44.2922C21.3126 44.2922 19.3066 46.2984 19.3066 48.764C19.3066 51.2298 21.3128 53.2358 23.7784 53.2358C26.2441 53.2358 28.2502 51.2297 28.2502 48.764C28.2504 48.1762 27.7736 47.6994 27.1856 47.6994Z" fill="#FFB100"/>
<path d="M47.6286 49.9709H31.7288C31.1409 49.9709 30.6641 50.4476 30.6641 51.0357C30.6641 51.6237 31.1407 52.1005 31.7288 52.1005H47.6286C48.2166 52.1005 48.6934 51.6238 48.6934 51.0357C48.6932 50.4476 48.2166 49.9709 47.6286 49.9709Z" fill="#FFB100"/>
<path d="M43.0858 45.428H31.7288C31.1409 45.428 30.6641 45.9046 30.6641 46.4927C30.6641 47.0808 31.1407 47.5575 31.7288 47.5575H43.0858C43.6737 47.5575 44.1505 47.0808 44.1505 46.4927C44.1505 45.9046 43.6739 45.428 43.0858 45.428Z" fill="#FFB100"/>
</svg>
