<svg width="69" height="69" viewBox="0 0 69 69" fill="none" xmlns="http://www.w3.org/2000/svg">
<g clip-path="url(#clip0)">
<path d="M52.8721 30.4667C52.8721 28.2822 51.0951 26.5054 48.9107 26.5054H41.6304C43.3992 24.5172 44.5552 22.2532 44.7785 20.2222C44.9149 18.9817 44.5316 17.7503 43.7266 16.8437C42.991 16.0151 41.9849 15.5532 40.8939 15.5431C40.8812 15.543 40.8685 15.543 40.856 15.543C39.8006 15.543 38.8101 15.9494 38.0626 16.6901C37.3149 17.4309 36.9012 18.4178 36.8963 19.471C36.8579 19.7016 36.4523 20.4966 35.4597 21.4405C34.6471 22.2135 33.2434 23.2761 31.1708 23.949C30.3582 24.2129 29.6155 24.6987 28.9635 25.393C28.6213 25.7571 28.1089 26.2601 27.4746 26.7649C27.1633 26.6 26.8092 26.5056 26.4331 26.5056H19.5187C18.2875 26.5056 17.2859 27.5072 17.2859 28.7384V47.1768C17.2859 48.408 18.2875 49.4096 19.5187 49.4096H26.4331C27.2724 49.4096 28.0043 48.9436 28.3857 48.2572H46.0296C47.8963 48.2572 49.4148 46.7387 49.4148 44.872C49.4148 44.2444 49.2433 43.6563 48.9444 43.1517C49.917 42.5564 50.5672 41.4839 50.5672 40.2624C50.5672 39.6348 50.3956 39.0467 50.0967 38.5421C51.0693 37.9467 51.7196 36.8742 51.7196 35.6527C51.7196 34.9463 51.5021 34.2897 51.1305 33.7463C52.1808 33.033 52.8721 31.829 52.8721 30.4667ZM48.9107 32.2673H48.3344C47.7378 32.2673 47.254 32.7509 47.254 33.3477C47.254 33.9443 47.7377 34.4281 48.3344 34.4281C49.0096 34.4281 49.5589 34.9774 49.5589 35.6526C49.5589 36.3278 49.0096 36.8771 48.3344 36.8771H47.182C46.5854 36.8771 46.1016 37.3607 46.1016 37.9575C46.1016 38.5541 46.5853 39.0379 47.182 39.0379C47.8572 39.0379 48.4065 39.5872 48.4065 40.2624C48.4065 40.9375 47.8572 41.4869 47.182 41.4869H46.0296C45.433 41.4869 44.9492 41.9705 44.9492 42.5673C44.9492 43.1639 45.4329 43.6477 46.0296 43.6477C46.7048 43.6477 47.2541 44.197 47.2541 44.8722C47.2541 45.5473 46.7048 46.0966 46.0296 46.0966H28.6659V35.653C28.6659 35.0564 28.1822 34.5726 27.5855 34.5726C26.9887 34.5726 26.5051 35.0562 26.5051 35.653V47.1769C26.5051 47.2167 26.4729 47.2489 26.4331 47.2489H19.5187C19.4789 47.2489 19.4467 47.2167 19.4467 47.1769V28.738C19.4467 28.6983 19.4789 28.6661 19.5187 28.6661H26.4331C26.4729 28.6661 26.5051 28.6983 26.5051 28.738V31.0429C26.5051 31.6395 26.9887 32.1233 27.5855 32.1233C28.1822 32.1233 28.6659 31.6397 28.6659 31.0429V28.738C28.6659 28.6856 28.6616 28.6342 28.658 28.5828C29.468 27.9557 30.1158 27.3218 30.5385 26.8719C30.9383 26.4459 31.3755 26.154 31.8379 26.004C34.3809 25.1784 36.0923 23.8491 37.08 22.8793C38.318 21.6639 39.0569 20.3968 39.0569 19.4897C39.0569 19.0105 39.2438 18.5613 39.5833 18.2249C39.9269 17.8844 40.382 17.7045 40.8738 17.7038C41.4794 17.7095 41.8805 18.0193 42.1105 18.2783C42.5049 18.7224 42.6989 19.3609 42.6303 19.9861C42.3943 22.1327 40.6776 24.7863 38.2566 26.746C37.901 27.034 37.7653 27.5149 37.918 27.9463C38.0707 28.3777 38.4787 28.6661 38.9364 28.6661H48.9104C49.9034 28.6661 50.711 29.4737 50.711 30.4667C50.711 31.4596 49.9035 32.2673 48.9107 32.2673Z" fill="#FFB100"/>
<path d="M22.976 42.6272C22.3794 42.6272 21.8899 43.1167 21.8899 43.7133C21.8899 44.3099 22.3794 44.7994 22.976 44.7994C23.5726 44.7994 24.062 44.3099 24.062 43.7133C24.0622 43.1168 23.5727 42.6272 22.976 42.6272Z" fill="#FFB100"/>
<path d="M67.074 34.5005L68.93 29.5892C69.0652 29.2319 69.0014 28.8299 68.7625 28.5317L65.4797 24.4343L65.7271 19.1899C65.7452 18.8085 65.5603 18.4456 65.2412 18.236L60.8529 15.3535L59.4678 10.2893C59.367 9.92081 59.0792 9.63295 58.7108 9.53228L53.6466 8.14716L50.7641 3.75905C50.5544 3.43979 50.1916 3.2557 49.8102 3.27309L44.5658 3.52052L40.4684 0.23776C40.1703 -0.00104454 39.7683 -0.0647887 39.4109 0.0702465L34.4997 1.92624L29.5887 0.0703813C29.2311 -0.0647888 28.8293 -0.00104456 28.5312 0.237895L24.4337 3.52065L19.1893 3.27322C18.8061 3.25516 18.445 3.44006 18.2355 3.75919L15.3531 8.14743L10.2889 9.53255C9.92043 9.63336 9.63258 9.92122 9.53191 10.2895L8.14678 15.3538L3.75855 18.2361C3.43929 18.4458 3.25452 18.8086 3.27258 19.19L3.52001 24.4344L0.237254 28.5318C-0.00155062 28.8299 -0.0652948 29.2319 0.0697404 29.5893L1.9256 34.5005L0.0696056 39.4116C-0.0655643 39.7689 -0.00182015 40.1709 0.237119 40.4691L3.51988 44.5665L3.27245 49.8109C3.25439 50.1923 3.43929 50.5552 3.75841 50.7648L8.14665 53.6473L9.53177 58.7115C9.63258 59.08 9.92043 59.3678 10.2887 59.4685L15.353 60.8536L18.2353 65.2419C18.445 65.5611 18.8085 65.7447 19.1892 65.7278L24.4336 65.4804L28.531 68.7632C28.8291 69.0021 29.2313 69.0658 29.5885 68.9307L34.4998 67.0747L39.4111 68.9307C39.535 68.9774 39.6643 69.0004 39.7929 69.0004C40.0349 69.0004 40.2738 68.9191 40.4684 68.7632L44.5658 65.4804L49.8102 65.7278C50.1928 65.7448 50.5544 65.561 50.7641 65.2419L53.6466 60.8536L58.7108 59.4685C59.0793 59.3677 59.3672 59.0798 59.4678 58.7115L60.8529 53.6473L65.2412 50.7648C65.5604 50.5551 65.7452 50.1923 65.7271 49.8109L65.4797 44.5665L68.7625 40.4691C69.0013 40.171 69.065 39.769 68.93 39.4116L67.074 34.5005ZM64.9084 34.8824L66.6909 39.5991L63.5382 43.5341C63.3736 43.7393 63.2896 43.9977 63.302 44.2605L63.5398 49.2971L59.3255 52.0653C59.1057 52.2096 58.9459 52.4294 58.8765 52.6833L57.5462 57.5469L52.6826 58.8772C52.4289 58.9466 52.2092 59.1063 52.0646 59.3262L49.2964 63.5405L44.2598 63.3027C43.9969 63.2906 43.7387 63.3743 43.5334 63.5388L39.5984 66.6915L34.8817 64.9091C34.7587 64.8626 34.6292 64.8395 34.4998 64.8395C34.3704 64.8395 34.2409 64.8628 34.1179 64.9091L29.4012 66.6915L25.4662 63.5388C25.2609 63.3743 25.0022 63.2906 24.7398 63.3027L19.7032 63.5405L16.935 59.3262C16.7907 59.1064 16.5708 58.9466 16.3169 58.8772L11.4534 57.5469L10.1231 52.6833C10.0537 52.4296 9.89402 52.2099 9.67408 52.0653L5.45983 49.2971L5.69755 44.2605C5.70995 43.9975 5.62599 43.7393 5.46144 43.5341L2.30874 39.5991L4.09128 34.8824C4.18427 34.6363 4.18427 34.3646 4.09128 34.1185L2.30874 29.4019L5.46144 25.4668C5.62599 25.2616 5.70995 25.0033 5.69755 24.7405L5.45983 19.7039L9.67408 16.9356C9.89389 16.7913 10.0537 16.5715 10.1231 16.3176L11.4534 11.454L16.3169 10.1238C16.5707 10.0544 16.7904 9.89467 16.935 9.67473L19.7032 5.46047L24.7398 5.6982C25.0023 5.71046 25.2609 5.62664 25.4662 5.46209L29.4012 2.30938L34.1179 4.09193C34.3641 4.18491 34.6356 4.18491 34.8817 4.09193L39.5984 2.30938L43.5334 5.46209C43.7387 5.62677 43.9971 5.7106 44.2598 5.6982L49.2964 5.46047L52.0646 9.67473C52.2089 9.89453 52.4287 10.0544 52.6826 10.1238L57.5462 11.454L58.8765 16.3176C58.9459 16.5714 59.1056 16.791 59.3255 16.9356L63.5398 19.7039L63.302 24.7405C63.2896 25.0034 63.3736 25.2616 63.5382 25.4668L66.6909 29.4019L64.9083 34.1185C64.8155 34.3647 64.8155 34.6363 64.9084 34.8824Z" fill="#FFB100"/>
<path d="M54.8004 15.8449C54.5315 15.5522 54.2527 15.2611 53.9711 14.9797C53.6896 14.6983 53.3987 14.4194 53.1059 14.1505C52.6665 13.747 51.9831 13.7761 51.5795 14.2157C51.176 14.6552 51.2051 15.3387 51.6447 15.7422C51.9146 15.9902 52.1833 16.2476 52.4432 16.5074C52.7029 16.7671 52.9604 17.036 53.2085 17.306C53.4216 17.5381 53.7127 17.6558 54.0047 17.6558C54.2657 17.6558 54.5276 17.5617 54.735 17.3713C55.1746 16.9679 55.2038 16.2844 54.8004 15.8449Z" fill="#FFB100"/>
<path d="M49.2692 11.2024C44.0592 7.88311 37.7864 6.40796 31.607 7.0477C25.337 7.69727 19.4248 10.5141 14.9593 14.9796C10.0448 19.8941 7.18341 26.4227 6.90229 33.3627C6.62292 40.2619 8.90801 46.9603 13.3368 52.2237C13.5504 52.4776 13.8561 52.6084 14.1641 52.6084C14.4097 52.6084 14.6566 52.5252 14.8591 52.3548C15.3156 51.9706 15.3743 51.2891 14.9902 50.8326C10.9094 45.9826 8.80383 39.8095 9.06123 33.4503C9.32025 27.0541 11.9573 21.037 16.487 16.5076C20.6027 12.3917 26.0515 9.79543 31.8295 9.19694C37.5267 8.60667 43.3076 9.96632 48.1081 13.0247C48.6114 13.3453 49.2791 13.1973 49.5997 12.6941C49.9204 12.1908 49.7723 11.523 49.2692 11.2024Z" fill="#FFB100"/>
<path d="M57.7486 19.6817C57.428 19.1784 56.7598 19.0304 56.2569 19.351C55.7535 19.6716 55.6057 20.3395 55.9263 20.8426C58.9847 25.6432 60.344 31.4244 59.754 37.1212C59.1555 42.8991 56.5593 48.3478 52.4435 52.4639C47.9139 56.9933 41.8969 59.6306 35.5008 59.8896C29.1427 60.1481 22.9684 58.0415 18.1185 53.9608C17.662 53.5766 16.9805 53.6354 16.5963 54.092C16.2121 54.5484 16.2708 55.2299 16.7274 55.6141C21.7031 59.8006 27.9603 62.0717 34.458 62.0716C34.8338 62.0716 35.2112 62.0639 35.5885 62.0487C42.5286 61.7677 49.057 58.9063 53.9716 53.9918C58.4372 49.5262 61.2542 43.6139 61.9035 37.344C62.5434 31.1642 61.0679 24.8916 57.7486 19.6817Z" fill="#FFB100"/>
</g>
<defs>
<clipPath id="clip0">
<rect width="69" height="69" fill="white"/>
</clipPath>
</defs>
</svg>
