<svg width="70" height="70" viewBox="0 0 70 70" fill="none" xmlns="http://www.w3.org/2000/svg">
<g clip-path="url(#clip0)">
<path d="M67.7348 23.3827H51.4708L40.3128 4.05642C39.8542 3.26181 39.1136 2.69374 38.2275 2.4564C37.3414 2.21892 36.416 2.34087 35.6214 2.79956C35.394 2.93081 35.1879 3.08749 34.9999 3.26167C34.812 3.08749 34.6057 2.93081 34.3783 2.79956C33.584 2.34087 32.6584 2.21892 31.7725 2.4564C30.8864 2.69388 30.1458 3.26208 29.6872 4.05642L18.5292 23.3827H2.26516C1.01609 23.3827 0 24.3988 0 25.6479V31.4934C0 32.7425 1.01609 33.7586 2.26516 33.7586H2.41117L4.45375 63.3758C4.61959 65.7795 6.63674 67.6625 9.04627 67.6625H60.9539C63.3633 67.6625 65.3805 65.7796 65.5464 63.3758L67.589 33.7586H67.735C68.984 33.7586 70.0001 32.7425 70.0001 31.4934V25.6479C70 24.3988 68.9839 23.3827 67.7348 23.3827ZM36.1389 5.45177C36.2246 5.13144 36.4302 4.86361 36.7176 4.69763C36.909 4.58716 37.1213 4.53056 37.3367 4.53056C37.4445 4.53056 37.5532 4.54478 37.6603 4.57335C37.9807 4.65921 38.2486 4.8647 38.4146 5.15222L50.1055 25.4015C50.4478 25.9949 50.244 26.7558 49.6509 27.0983C49.3637 27.2643 49.0287 27.3083 48.7084 27.2226C48.3879 27.1367 48.1201 26.9312 47.9541 26.6437L36.2631 6.39431C36.097 6.10693 36.0529 5.77238 36.1389 5.45177ZM35 8.59124L43.5399 23.3826H26.4601L35 8.59124ZM19.8946 25.4018L31.5856 5.15236C31.7514 4.86511 32.0193 4.65949 32.3399 4.57363C32.6605 4.4879 32.9952 4.53179 33.2824 4.6979C33.5696 4.86374 33.7753 5.13158 33.8611 5.45218C33.9471 5.77265 33.903 6.10734 33.7371 6.39472L22.0462 26.6441C21.8803 26.9315 21.6125 27.137 21.2919 27.2229C20.9714 27.3086 20.6366 27.2647 20.3494 27.0986C19.7561 26.7561 19.5521 25.9949 19.8946 25.4018ZM67.808 31.4933C67.808 31.5335 67.7753 31.5663 67.735 31.5663H63.0585C62.4533 31.5663 61.9624 32.057 61.9624 32.6624C61.9624 33.2677 62.4531 33.7584 63.0585 33.7584H65.3916L63.3594 63.2249C63.2726 64.4841 62.2159 65.4703 60.9539 65.4703H9.04627C7.78422 65.4703 6.72752 64.4841 6.6407 63.2249L4.60852 33.7584H58.3821C58.9873 33.7584 59.4781 33.2677 59.4781 32.6624C59.4781 32.057 58.9874 31.5663 58.3821 31.5663H2.26516C2.22482 31.5663 2.19215 31.5335 2.19215 31.4933V25.6477C2.19215 25.6075 2.22482 25.5747 2.26516 25.5747H17.566C17.392 26.9099 18.0163 28.2828 19.2531 28.9969C19.7822 29.3025 20.3695 29.4586 20.9646 29.4586C21.2629 29.4586 21.5631 29.4193 21.8591 29.34C22.7452 29.1026 23.4858 28.5343 23.9444 27.7399L25.1944 25.5747H44.8052L46.0552 27.7399C46.5138 28.5345 47.2544 29.1026 48.1404 29.34C48.4364 29.4193 48.7365 29.4586 49.035 29.4586C49.6301 29.4586 50.2173 29.3025 50.7466 28.9969C51.9835 28.2827 52.6077 26.9099 52.4337 25.5747H67.7347C67.775 25.5747 67.8077 25.6075 67.8077 25.6477V31.4933H67.808Z" fill="#FFB100"/>
<path d="M37.3381 44.4262C36.7328 44.4262 36.242 44.9169 36.242 45.5223V58.3825C36.242 59.0675 35.6847 59.6247 34.9998 59.6247C34.3148 59.6247 33.7576 59.0675 33.7576 58.3825V40.8459C33.7576 40.1609 34.3148 39.6036 34.9998 39.6036C35.6847 39.6036 36.242 40.1609 36.242 40.8459C36.242 41.4511 36.7327 41.9419 37.3381 41.9419C37.9435 41.9419 38.4342 41.4512 38.4342 40.8459C38.4342 38.9522 36.8936 37.4116 34.9999 37.4116C33.1062 37.4116 31.5657 38.9522 31.5657 40.8459V58.3824C31.5657 60.2761 33.1062 61.8166 34.9999 61.8166C36.8936 61.8166 38.4342 60.2761 38.4342 58.3824V45.5222C38.4342 44.9171 37.9435 44.4262 37.3381 44.4262Z" fill="#FFB100"/>
<path d="M46.6909 44.4262C46.0856 44.4262 45.5948 44.9169 45.5948 45.5223V58.3825C45.5948 59.0675 45.0375 59.6247 44.3526 59.6247C43.6676 59.6247 43.1103 59.0675 43.1103 58.3825V40.8459C43.1103 40.1609 43.6676 39.6036 44.3526 39.6036C45.0375 39.6036 45.5948 40.1609 45.5948 40.8459C45.5948 41.4511 46.0855 41.9419 46.6909 41.9419C47.2962 41.9419 47.7869 41.4512 47.7869 40.8459C47.7869 38.9522 46.2464 37.4116 44.3527 37.4116C42.459 37.4116 40.9185 38.9522 40.9185 40.8459V58.3824C40.9185 60.2761 42.459 61.8166 44.3527 61.8166C46.2464 61.8166 47.7869 60.2761 47.7869 58.3824V45.5222C47.7869 44.9171 47.2962 44.4262 46.6909 44.4262Z" fill="#FFB100"/>
<path d="M56.0439 44.4262C55.4386 44.4262 54.9478 44.9169 54.9478 45.5223V58.3825C54.9478 59.0675 54.3905 59.6247 53.7056 59.6247C53.0206 59.6247 52.4634 59.0675 52.4634 58.3825V40.8459C52.4634 40.1609 53.0206 39.6036 53.7056 39.6036C54.3905 39.6036 54.9478 40.1609 54.9478 40.8459C54.9478 41.4511 55.4385 41.9419 56.0439 41.9419C56.6491 41.9419 57.14 41.4512 57.14 40.8459C57.14 38.9522 55.5994 37.4116 53.7057 37.4116C51.812 37.4116 50.2715 38.9522 50.2715 40.8459V58.3824C50.2715 60.2761 51.812 61.8166 53.7057 61.8166C55.5994 61.8166 57.14 60.2761 57.14 58.3824V45.5222C57.1398 44.9171 56.6491 44.4262 56.0439 44.4262Z" fill="#FFB100"/>
<path d="M18.6325 44.4262C18.0273 44.4262 17.5364 44.9169 17.5364 45.5223V58.3825C17.5364 59.0675 16.9792 59.6247 16.2942 59.6247C15.6092 59.6247 15.052 59.0675 15.052 58.3825V40.8459C15.052 40.1609 15.6092 39.6036 16.2942 39.6036C16.9792 39.6036 17.5364 40.1609 17.5364 40.8459C17.5364 41.4511 18.0271 41.9419 18.6325 41.9419C19.2379 41.9419 19.7286 41.4512 19.7286 40.8459C19.7286 38.9522 18.188 37.4116 16.2943 37.4116C14.4007 37.4116 12.8601 38.9522 12.8601 40.8459V58.3824C12.8601 60.2761 14.4007 61.8166 16.2943 61.8166C18.188 61.8166 19.7286 60.2761 19.7286 58.3824V45.5222C19.7286 44.9171 19.2378 44.4262 18.6325 44.4262Z" fill="#FFB100"/>
<path d="M27.9855 44.4262C27.3803 44.4262 26.8895 44.9169 26.8895 45.5223V58.3825C26.8895 59.0675 26.3322 59.6247 25.6472 59.6247C24.9623 59.6247 24.405 59.0675 24.405 58.3825V40.8459C24.405 40.1609 24.9623 39.6036 25.6472 39.6036C26.3322 39.6036 26.8895 40.1609 26.8895 40.8459C26.8895 41.4511 27.3801 41.9419 27.9855 41.9419C28.5909 41.9419 29.0816 41.4512 29.0816 40.8459C29.0816 38.9522 27.5411 37.4116 25.6474 37.4116C23.7537 37.4116 22.2131 38.9522 22.2131 40.8459V58.3824C22.2131 60.2761 23.7537 61.8166 25.6474 61.8166C27.5411 61.8166 29.0816 60.2761 29.0816 58.3824V45.5222C29.0816 44.9171 28.5908 44.4262 27.9855 44.4262Z" fill="#FFB100"/>
</g>
<defs>
<clipPath id="clip0">
<rect width="70" height="70" fill="white"/>
</clipPath>
</defs>
</svg>
