<svg width="68" height="68" viewBox="0 0 68 68" fill="none" xmlns="http://www.w3.org/2000/svg">
<g clip-path="url(#clip0)">
<path d="M34.0002 11.3569C33.4122 11.3569 32.9354 11.8336 32.9354 12.4217V23.8497H27.186C26.598 23.8497 26.1212 24.3263 26.1212 24.9144C26.1212 25.5025 26.5979 25.9792 27.186 25.9792H32.9354V38.6139H19.1787C19.2136 37.102 19.3212 35.5984 19.5026 34.1304C19.5747 33.5468 19.1601 33.0153 18.5767 32.9432C17.9927 32.8708 17.4616 33.2857 17.3895 33.8692C17.1974 35.423 17.0842 37.0145 17.0491 38.6138H7.83014C8.02245 33.8141 9.51354 29.1955 12.1727 25.196C12.4982 24.7063 12.3652 24.0456 11.8756 23.7199C11.3861 23.3944 10.7252 23.5275 10.3995 24.017C7.31111 28.6621 5.67871 34.0777 5.67871 39.6785C5.67871 55.295 18.3836 68 34.0002 68C49.6168 68 62.3216 55.295 62.3216 39.6785C62.3216 24.062 49.6168 11.3569 34.0002 11.3569ZM7.8316 40.7432H17.0485C17.1465 45.2304 17.8613 49.5373 19.1256 53.3779H11.6856C9.40264 49.6732 8.01714 45.3603 7.8316 40.7432ZM13.1469 55.5073H19.9029C20.4698 56.9169 21.1154 58.2501 21.8376 59.4883C23.0308 61.5338 24.3792 63.2361 25.8416 64.5679C20.7431 62.8926 16.3309 59.6919 13.1469 55.5073ZM32.9354 65.8026C29.4761 65.3615 26.2218 62.7778 23.6769 58.4155C23.1429 57.5 22.6532 56.5277 22.2091 55.5074H32.9354V65.8026ZM32.9354 53.3779H21.3733C20.0385 49.5901 19.2811 45.2702 19.1783 40.7432H32.9354V53.3779ZM60.1688 38.6138H50.9518C50.8538 34.1266 50.139 29.8197 48.8748 25.9791H56.3149C58.5977 29.6837 59.9832 33.9967 60.1688 38.6138ZM54.8535 23.8497H48.0974C47.5306 22.44 46.885 21.1068 46.1626 19.8686C44.9694 17.8232 43.621 16.1208 42.1586 14.7891C47.2573 16.4645 51.6694 19.6652 54.8535 23.8497ZM35.0649 13.5544C38.5243 13.9955 41.7786 16.5793 44.3234 20.9416C44.8575 21.8572 45.3471 22.8294 45.7913 23.8497H35.0649V13.5544ZM35.0649 25.9792H46.6271C47.9618 29.767 48.7191 34.0866 48.8221 38.6139H35.0649V25.9792ZM56.3147 53.3779H54.4423C53.8543 53.3779 53.3775 53.8545 53.3775 54.4426C53.3775 55.0307 53.8542 55.5074 54.4423 55.5074H54.8531C51.6642 59.6984 47.2434 62.9025 42.1349 64.5757C43.306 63.5157 44.4046 62.2223 45.4052 60.7083C45.7294 60.2177 45.5946 59.5572 45.104 59.2331C44.6136 58.909 43.9529 59.0437 43.6287 59.5343C41.2022 63.2057 38.1952 65.3938 35.0648 65.8004V55.5074H40.8145C41.4025 55.5074 41.8793 55.0307 41.8793 54.4426C41.8793 53.8547 41.4026 53.3779 40.8145 53.3779H35.0648V40.7432H48.8222C48.7699 43.0246 48.5498 45.2733 48.1646 47.442C48.0617 48.021 48.4478 48.5737 49.0267 48.6765C49.0898 48.6876 49.1524 48.6931 49.2141 48.6931C49.7205 48.6931 50.1696 48.3303 50.2611 47.8144C50.6677 45.5236 50.8996 43.1497 50.9525 40.7432H60.1685C59.9831 45.3603 58.5976 49.6732 56.3147 53.3779Z" fill="#FFB100"/>
<path d="M19.2357 0C13.0127 0 7.94971 5.06294 7.94971 11.286C7.94971 15.5182 10.6959 18.8955 13.3515 22.1615C15.2928 24.5491 17.3002 27.0179 18.2255 29.794C18.3704 30.2288 18.7774 30.5219 19.2356 30.5219C19.6938 30.5219 20.1007 30.2287 20.2456 29.794C21.1709 27.0179 23.1784 24.5492 25.1196 22.1616C27.7754 18.8955 30.5216 15.5182 30.5216 11.286C30.5217 5.06294 25.4588 0 19.2357 0ZM23.4678 20.8181C21.9388 22.6985 20.3713 24.6262 19.2357 26.7794C18.1002 24.6262 16.5326 22.6985 15.0036 20.8181C12.4712 17.7036 10.0791 14.7617 10.0791 11.286C10.0791 6.23714 14.1867 2.12938 19.2357 2.12938C24.2847 2.12938 28.3923 6.23701 28.3923 11.286C28.3923 14.7617 26.0003 17.7035 23.4678 20.8181Z" fill="#FFB100"/>
<path d="M20.3007 11.0786V7.95109C21.1018 8.17913 21.5784 8.63468 21.5784 8.97906C21.5784 9.56702 22.055 10.0438 22.6431 10.0438C23.2312 10.0438 23.7079 9.56715 23.7079 8.97906C23.7079 7.40005 22.2778 6.11363 20.3008 5.76978V5.60748C20.3008 5.01952 19.8242 4.54272 19.2361 4.54272C18.648 4.54272 18.1713 5.01939 18.1713 5.60748V5.76978C16.1944 6.11376 14.7643 7.40005 14.7643 8.97906C14.7643 11.2033 16.604 12.0942 18.1713 12.6289V15.7565C17.3702 15.5284 16.8937 15.0729 16.8937 14.7285C16.8937 14.1406 16.417 13.6638 15.8289 13.6638C15.2408 13.6638 14.7642 14.1404 14.7642 14.7285C14.7642 16.3075 16.1943 17.5939 18.1712 17.9378V18.1001C18.1712 18.6881 18.6479 19.1649 19.236 19.1649C19.824 19.1649 20.3007 18.6882 20.3007 18.1001V17.9378C22.2776 17.5938 23.7077 16.3075 23.7077 14.7285C23.7077 12.5042 21.868 11.6134 20.3007 11.0786ZM18.1712 10.3413C17.116 9.88471 16.8935 9.49889 16.8935 8.97906C16.8935 8.63468 17.3701 8.17913 18.1712 7.95109V10.3413ZM20.3007 15.7565V13.3663C21.3559 13.8229 21.5784 14.2087 21.5784 14.7285C21.5784 15.0729 21.1018 15.5284 20.3007 15.7565Z" fill="#FFB100"/>
<path d="M47.6281 51.1064C45.7885 51.1064 44.292 52.603 44.292 54.4426C44.292 56.2821 45.7885 57.7787 47.6281 57.7787C49.4677 57.7787 50.9642 56.2821 50.9642 54.4426C50.9642 52.603 49.4677 51.1064 47.6281 51.1064ZM47.6281 55.6492C46.9627 55.6492 46.4214 55.1078 46.4214 54.4424C46.4214 53.777 46.9627 53.2357 47.6281 53.2357C48.2935 53.2357 48.8349 53.777 48.8349 54.4424C48.8347 55.108 48.2935 55.6492 47.6281 55.6492Z" fill="#FFB100"/>
</g>
<defs>
<clipPath id="clip0">
<rect width="68" height="68" fill="white"/>
</clipPath>
</defs>
</svg>
