<svg width="80" height="80" viewBox="0 0 80 80" fill="none" xmlns="http://www.w3.org/2000/svg">
<path d="M74.3997 44.8342L72.328 36.5475C72.8944 36.4272 73.3194 35.9247 73.3194 35.3227V33.9866C73.3194 31.0856 70.9592 28.7256 68.0584 28.7256H58.6222V25.9699C58.6222 24.5424 57.4609 23.3811 56.0334 23.3811H38.4875L49.15 19.1161C49.7923 18.8592 50.1047 18.1302 49.8478 17.4878C49.5909 16.8456 48.8623 16.533 48.2195 16.79L39.4892 20.282C42.1495 18.5752 44.7816 16.6966 45.7836 15.3828C47.7344 12.8252 47.2403 9.15736 44.6827 7.20657C42.125 5.25564 38.4572 5.74986 36.5064 8.30751C35.0811 10.1766 33.2005 15.4283 31.9833 19.1291C30.7661 15.4286 28.8855 10.1766 27.4602 8.30751C25.5095 5.74986 21.8416 5.25595 19.2839 7.20657C16.7262 9.1572 16.2323 12.825 18.183 15.3828C19.185 16.6967 21.8169 18.5752 24.4773 20.282L15.747 16.79C15.1044 16.5327 14.3756 16.8455 14.1187 17.4878C13.8617 18.1302 14.1742 18.8592 14.8166 19.1161L25.4791 23.3811H7.93313C6.50562 23.3811 5.34437 24.5424 5.34437 25.9699V48.6839C5.34437 49.3756 5.90516 49.9366 6.59703 49.9366C7.28875 49.9366 7.84969 49.3758 7.84969 48.6839V25.9699C7.84969 25.9238 7.88703 25.8864 7.93313 25.8864H56.0333C56.0794 25.8864 56.1167 25.9238 56.1167 25.9699V48.6842C56.1167 49.3759 56.6775 49.9369 57.3694 49.9369C58.0611 49.9369 58.622 49.3761 58.622 48.6842V47.2642H73.398C73.3994 47.2642 73.4005 47.2645 73.4019 47.2645C73.4033 47.2645 73.4045 47.2644 73.4059 47.2644C75.2241 47.2658 76.7678 48.4592 77.2978 50.1036H73.4028C72.7111 50.1036 72.1502 50.6644 72.1502 51.3563V54.0284C72.1502 56.1927 73.9108 57.9533 76.075 57.9533H77.4947V63.4647H74.2194C73.1434 60.3581 70.1902 58.1202 66.7222 58.1202C63.2542 58.1202 60.3008 60.358 59.225 63.4647H58.6219V54.0283C58.6219 53.3366 58.0611 52.7756 57.3692 52.7756C56.6775 52.7756 56.1166 53.3364 56.1166 54.0283V63.4645H30.1277C29.0517 60.358 26.0984 58.12 22.6305 58.12C19.1625 58.12 16.2091 60.3578 15.1333 63.4645H7.93313C7.88703 63.4645 7.84969 63.4272 7.84969 63.3811V60.6253H13.2777C13.9694 60.6253 14.5303 60.0645 14.5303 59.3727C14.5303 58.6808 13.9695 58.12 13.2777 58.12H1.25266C0.560938 58.12 0 58.6808 0 59.3727C0 60.0645 0.560781 60.6253 1.25266 60.6253H5.34453V63.3811C5.34453 64.8086 6.50578 65.9698 7.93328 65.9698H14.6995C14.6992 65.9977 14.6973 66.0253 14.6973 66.0533C14.6973 70.4275 18.2563 73.9864 22.6305 73.9864C27.0047 73.9864 30.5636 70.4275 30.5636 66.0533C30.5636 66.0252 30.5617 65.9977 30.5614 65.9698H58.7911C58.7908 65.9977 58.7889 66.0253 58.7889 66.0533C58.7889 70.4275 62.3478 73.9864 66.722 73.9864C71.0963 73.9864 74.6552 70.4275 74.6552 66.0533C74.6552 66.0252 74.6533 65.9977 74.653 65.9698H78.7472C79.4389 65.9698 79.9998 65.4091 79.9998 64.7172V51.3561C80 48.057 77.5661 45.3161 74.3997 44.8342ZM27.0156 18.9156C22.0745 15.8452 20.6089 14.4325 20.175 13.8634C19.062 12.4042 19.3439 10.3116 20.8033 9.19861C21.4048 8.73986 22.1139 8.51814 22.8178 8.51814C23.8212 8.51814 24.8141 8.96907 25.4683 9.82689C26.68 11.4156 28.5777 16.763 29.8305 20.6163C28.985 20.1184 28.0131 19.5358 27.0156 18.9156ZM34.1364 20.6161C35.3892 16.763 37.2869 11.4158 38.4984 9.82673C39.6114 8.36751 41.7041 8.08579 43.1633 9.19861C44.6227 10.3116 44.9044 12.4042 43.7916 13.8634C43.3577 14.4324 41.892 15.8452 36.9513 18.9155C35.9539 19.5355 34.982 20.1183 34.1364 20.6161ZM58.6222 31.2306H68.0584C69.578 31.2306 70.8142 32.4669 70.8142 33.9864V34.0699H58.6222V31.2306ZM58.6222 44.7589V36.5752H69.7527L71.7986 44.7589H58.6222ZM22.6305 71.4813C19.6375 71.4813 17.2025 69.0463 17.2025 66.0533C17.2025 63.0603 19.6375 60.6253 22.6305 60.6253C25.6234 60.6253 28.0584 63.0603 28.0584 66.0533C28.0584 69.0463 25.6234 71.4813 22.6305 71.4813ZM66.7223 71.4813C63.7294 71.4813 61.2944 69.0463 61.2944 66.0533C61.2944 63.0603 63.7294 60.6253 66.7223 60.6253C69.7153 60.6253 72.1503 63.0603 72.1503 66.0533C72.1503 69.0463 69.7153 71.4813 66.7223 71.4813ZM77.4948 55.4478H76.0752C75.2923 55.4478 74.6555 54.8109 74.6555 54.0281V52.6084H77.4947V55.4478H77.4948Z" fill="#FFB100"/>
<path d="M22.6303 63.4644C21.2028 63.4644 20.0415 64.6256 20.0415 66.0531C20.0415 67.4806 21.2028 68.6419 22.6303 68.6419C24.0578 68.6419 25.219 67.4806 25.219 66.0531C25.219 64.6256 24.0578 63.4644 22.6303 63.4644Z" fill="#FFB100"/>
<path d="M66.7216 63.4644C65.2941 63.4644 64.1328 64.6256 64.1328 66.0531C64.1328 67.4806 65.2941 68.6419 66.7216 68.6419C68.1491 68.6419 69.3103 67.4806 69.3103 66.0531C69.3103 64.6256 68.1491 63.4644 66.7216 63.4644Z" fill="#FFB100"/>
<path d="M52.0257 58.1199H33.32C32.6283 58.1199 32.0674 58.6807 32.0674 59.3725C32.0674 60.0644 32.6282 60.6252 33.32 60.6252H52.0257C52.7174 60.6252 53.2783 60.0644 53.2783 59.3725C53.2783 58.6807 52.7175 58.1199 52.0257 58.1199Z" fill="#FFB100"/>
<path d="M19.958 52.7754H3.92453C3.23281 52.7754 2.67188 53.3362 2.67188 54.028C2.67188 54.7199 3.23266 55.2807 3.92453 55.2807H19.958C20.6497 55.2807 21.2106 54.7199 21.2106 54.028C21.2106 53.3362 20.6497 52.7754 19.958 52.7754Z" fill="#FFB100"/>
<path d="M19.958 34.0698H14.6135C13.9218 34.0698 13.3608 34.6306 13.3608 35.3225V46.0114C13.3608 46.7031 13.9216 47.264 14.6135 47.264C15.3054 47.264 15.8662 46.7033 15.8662 46.0114V41.9195H18.6219C19.3137 41.9195 19.8746 41.3587 19.8746 40.6669C19.8746 39.975 19.3138 39.4142 18.6219 39.4142H15.8662V36.5751H19.958C20.6497 36.5751 21.2107 36.0144 21.2107 35.3225C21.2105 34.6308 20.6497 34.0698 19.958 34.0698Z" fill="#FFB100"/>
<path d="M29.8159 42.5069C31.0695 41.6858 31.8998 40.2698 31.8998 38.6628C31.8998 36.1301 29.8395 34.0698 27.3068 34.0698H23.9665C23.2748 34.0698 22.7139 34.6306 22.7139 35.3225V46.0114C22.7139 46.7031 23.2746 47.264 23.9665 47.264C24.6584 47.264 25.2192 46.7033 25.2192 46.0114V43.2556H27.3045L29.6048 46.7061C29.8462 47.0681 30.2432 47.264 30.6481 47.264C30.887 47.264 31.1282 47.1959 31.3417 47.0534C31.9175 46.6698 32.0729 45.892 31.689 45.3165L29.8159 42.5069ZM27.3068 40.7504H25.2192V36.5751H27.3068C28.4581 36.5751 29.3945 37.5115 29.3945 38.6628C29.3945 39.814 28.4581 40.7504 27.3068 40.7504Z" fill="#FFB100"/>
<path d="M40.0005 44.7589H35.9086V41.9154C35.9363 41.9173 35.964 41.9197 35.9921 41.9197H38.6643C39.356 41.9197 39.9169 41.3589 39.9169 40.667C39.9169 39.9751 39.3561 39.4144 38.6643 39.4144H35.9921C35.9638 39.4144 35.9363 39.4167 35.9086 39.4186V36.5751H40.0005C40.6922 36.5751 41.2532 36.0144 41.2532 35.3225C41.2532 34.6308 40.6924 34.0698 40.0005 34.0698H34.656C33.9643 34.0698 33.4033 34.6306 33.4033 35.3225V46.0114C33.4033 46.7031 33.9641 47.264 34.656 47.264H40.0005C40.6922 47.264 41.2532 46.7033 41.2532 46.0114C41.2532 45.3195 40.6922 44.7589 40.0005 44.7589Z" fill="#FFB100"/>
<path d="M49.3525 44.7589H45.2607V41.9197H46.6804C47.3721 41.9197 47.933 41.3589 47.933 40.667C47.933 39.9751 47.3722 39.4144 46.6804 39.4144H45.2607V36.5751H49.3525C50.0443 36.5751 50.6052 36.0144 50.6052 35.3225C50.6052 34.6308 50.0444 34.0698 49.3525 34.0698H44.008C43.3163 34.0698 42.7554 34.6306 42.7554 35.3225V46.0114C42.7554 46.7031 43.3162 47.264 44.008 47.264H49.3525C50.0443 47.264 50.6052 46.7033 50.6052 46.0114C50.6052 45.3195 50.0443 44.7589 49.3525 44.7589Z" fill="#FFB100"/>
</svg>
