<svg width="20" height="20" viewBox="0 0 20 20" fill="none" xmlns="http://www.w3.org/2000/svg">
<path d="M18.7913 17.8045L18.2188 17.2322C17.9276 16.9409 17.568 16.743 17.1765 16.6525C17.1797 16.6273 17.1819 16.6018 17.1819 16.5757V5.30305C17.1819 4.96883 16.91 4.69691 16.5758 4.69691H5.30312C4.96891 4.69691 4.69703 4.96883 4.69703 5.30305V14.3838C4.69703 14.5456 4.8282 14.6768 4.99 14.6768C5.1518 14.6768 5.28297 14.5456 5.28297 14.3838V5.30305C5.28297 5.29191 5.29199 5.28285 5.30312 5.28285H9.39398V8.74746C9.39398 8.90926 9.52516 9.04043 9.68695 9.04043H12.192C12.3538 9.04043 12.485 8.90926 12.485 8.74746V5.28285H16.5758C16.587 5.28285 16.596 5.29191 16.596 5.30305V16.5757C16.596 16.5869 16.587 16.5959 16.5758 16.5959H7.18184C7.02004 16.5959 6.88887 16.7271 6.88887 16.8889C6.88887 17.0507 7.02004 17.1818 7.18184 17.1818H16.6833C17.1068 17.1818 17.505 17.3468 17.8045 17.6465L18.3772 18.219C18.4401 18.2818 18.4747 18.3655 18.4748 18.4545C18.4748 18.5435 18.4401 18.6272 18.3772 18.6902C18.3142 18.7531 18.2305 18.7878 18.1414 18.7878C18.0525 18.7878 17.9688 18.7531 17.9058 18.6901L17.333 18.1176C17.1618 17.9465 16.9249 17.8484 16.6832 17.8484H6.1993C6.21398 17.7393 6.2223 17.6282 6.2223 17.5152C6.2223 16.2442 5.26293 15.1936 4.03039 15.0481V2.61422C4.08004 2.50008 4.10633 2.37594 4.10633 2.24773C4.10633 2.00219 4.0107 1.77137 3.83711 1.59773L2.50859 0.269219C2.33504 0.095625 2.10422 0 1.85867 0C1.61313 0 1.3823 0.095625 1.20867 0.269219C1.03504 0.442813 0.939453 0.673672 0.939453 0.919219C0.939453 1.16477 1.03504 1.39562 1.20867 1.56922L2.53715 2.8977C2.71633 3.07691 2.95176 3.16648 3.18715 3.16648C3.27387 3.16648 3.36055 3.1541 3.44445 3.1298V15.0481C2.21195 15.1936 1.25254 16.2441 1.25254 17.5151C1.25254 18.8853 2.36727 20 3.73742 20C4.78293 20 5.67902 19.3507 6.04531 18.4343H16.6833C16.7709 18.4343 16.8568 18.47 16.9189 18.532L17.4915 19.1045C17.6652 19.2781 17.896 19.3737 18.1414 19.3737C18.387 19.3737 18.6179 19.2781 18.7916 19.1044C18.9652 18.9307 19.0607 18.6999 19.0607 18.4543C19.0606 18.2087 18.965 17.9779 18.7913 17.8045ZM11.899 8.45453H9.97992V5.28289H11.899V8.45453ZM3.42281 2.4834C3.29285 2.61336 3.08141 2.61336 2.95145 2.4834L1.62297 1.15488C1.49301 1.02492 1.49301 0.813477 1.62297 0.683516C1.68594 0.620586 1.76965 0.585938 1.85867 0.585938C1.9477 0.585938 2.03141 0.620586 2.09434 0.683555L3.42285 2.01207C3.55277 2.14203 3.55277 2.35348 3.42281 2.4834ZM3.73742 19.4141C2.69035 19.4141 1.83848 18.5622 1.83848 17.5151C1.83848 16.468 2.69035 15.6162 3.73742 15.6162C4.78449 15.6162 5.63637 16.468 5.63637 17.5151C5.63637 18.5622 4.78449 19.4141 3.73742 19.4141Z" fill="#FFB100"/>
<path d="M3.73625 16.283C3.05672 16.283 2.50391 16.8358 2.50391 17.5153C2.50391 18.1948 3.05672 18.7476 3.73625 18.7476C4.41578 18.7476 4.96859 18.1948 4.96859 17.5153C4.96859 16.8358 4.41578 16.283 3.73625 16.283ZM3.73625 18.1617C3.3798 18.1617 3.08984 17.8718 3.08984 17.5153C3.08984 17.1589 3.3798 16.8689 3.73625 16.8689C4.0927 16.8689 4.38266 17.1589 4.38266 17.5153C4.38266 17.8718 4.0927 18.1617 3.73625 18.1617Z" fill="#FFB100"/>
<path d="M9.68668 14.0908H7.18164C7.01984 14.0908 6.88867 14.222 6.88867 14.3838C6.88867 14.5456 7.01984 14.6768 7.18164 14.6768H9.68668C9.84848 14.6768 9.97965 14.5456 9.97965 14.3838C9.97965 14.222 9.84844 14.0908 9.68668 14.0908Z" fill="#FFB100"/>
<path d="M10.9392 12.8381H7.18164C7.01984 12.8381 6.88867 12.9693 6.88867 13.1311C6.88867 13.2929 7.01984 13.4241 7.18164 13.4241H10.9392C11.101 13.4241 11.2322 13.2929 11.2322 13.1311C11.2322 12.9693 11.101 12.8381 10.9392 12.8381Z" fill="#FFB100"/>
</svg>
