<svg width="13" height="13" viewBox="0 0 13 13" fill="none" xmlns="http://www.w3.org/2000/svg">
<path fill-rule="evenodd" clip-rule="evenodd" d="M6.03846 0C2.70463 0 0 2.70463 0 6.03846C0 9.3723 2.70463 12.0769 6.03846 12.0769C9.3723 12.0769 12.0769 9.3723 12.0769 6.03846C12.0769 2.70463 9.3723 0 6.03846 0ZM1 6.03846C1 3.25691 3.25691 1 6.03846 1C8.82001 1 11.0769 3.25691 11.0769 6.03846C11.0769 8.82001 8.82001 11.0769 6.03846 11.0769C3.25691 11.0769 1 8.82001 1 6.03846ZM6.53846 2.34615C6.53846 2.07001 6.3146 1.84615 6.03846 1.84615C5.76232 1.84615 5.53846 2.07001 5.53846 2.34615V6.5C5.53846 6.77614 5.76232 7 6.03846 7H8.80769C9.08383 7 9.30769 6.77614 9.30769 6.5C9.30769 6.22386 9.08383 6 8.80769 6H6.53846V2.34615Z" fill="#A5A5A5"/>
</svg>
