<svg width="50" height="50" viewBox="0 0 50 50" fill="none" xmlns="http://www.w3.org/2000/svg">
<path d="M29.174 24.5651L23.325 21.8359C22.8146 21.599 22.3953 21.8646 22.3953 22.4297V27.5703C22.3953 28.1354 22.8146 28.401 23.325 28.1641L29.1714 25.4349C29.6844 25.1953 29.6844 24.8047 29.174 24.5651ZM24.9995 0C11.1922 0 -0.000488281 11.1927 -0.000488281 25C-0.000488281 38.8073 11.1922 50 24.9995 50C38.8068 50 49.9995 38.8073 49.9995 25C49.9995 11.1927 38.8068 0 24.9995 0ZM24.9995 35.1562C12.2026 35.1562 11.9787 34.0026 11.9787 25C11.9787 15.9974 12.2026 14.8437 24.9995 14.8437C37.7964 14.8437 38.0203 15.9974 38.0203 25C38.0203 34.0026 37.7964 35.1562 24.9995 35.1562Z" fill="#C4C4C4"/>
</svg>
