<svg width="50" height="50" viewBox="0 0 50 50" fill="none" xmlns="http://www.w3.org/2000/svg">
<path d="M29.174 24.4954L23.325 21.774C22.8146 21.5376 22.3953 21.8025 22.3953 22.366V27.4921C22.3953 28.0556 22.8146 28.3204 23.325 28.0841L29.1714 25.3627C29.6844 25.1238 29.6844 24.7343 29.174 24.4954ZM24.9995 0C11.1922 0 -0.000488281 11.1609 -0.000488281 24.929C-0.000488281 38.6971 11.1922 49.8581 24.9995 49.8581C38.8068 49.8581 49.9995 38.6971 49.9995 24.929C49.9995 11.1609 38.8068 0 24.9995 0ZM24.9995 35.0565C12.2026 35.0565 11.9787 33.9061 11.9787 24.929C11.9787 15.952 12.2026 14.8016 24.9995 14.8016C37.7964 14.8016 38.0203 15.952 38.0203 24.929C38.0203 33.9061 37.7964 35.0565 24.9995 35.0565Z" fill="url(#paint0_linear)"/>
<defs>
<linearGradient id="paint0_linear" x1="11.5" y1="49.8581" x2="36.8851" y2="-0.0584105" gradientUnits="userSpaceOnUse">
<stop stop-color="#FF0F00"/>
<stop offset="1" stop-color="#FF6056"/>
</linearGradient>
</defs>
</svg>
