<svg width="22" height="20" viewBox="0 0 22 20" fill="none" xmlns="http://www.w3.org/2000/svg">
<path d="M17.188 14.8846L16.7758 14.6016L16.5518 14.9278L16.8178 15.2207L17.188 14.8846ZM14.429 17.4808L14.5604 16.9984L14.3546 16.9422L14.1716 17.0521L14.429 17.4808ZM20.074 16.8177L20.2588 16.3531L20.074 16.8177ZM18.2403 9.87017C18.2403 11.6269 17.6997 13.2558 16.7758 14.6016L17.6002 15.1676C18.6348 13.6606 19.2403 11.8353 19.2403 9.87017H18.2403ZM9.87017 1.5C14.4929 1.5 18.2403 5.24745 18.2403 9.87017H19.2403C19.2403 4.69517 15.0452 0.5 9.87017 0.5V1.5ZM1.5 9.87017C1.5 5.24745 5.24745 1.5 9.87017 1.5V0.5C4.69517 0.5 0.5 4.69517 0.5 9.87017H1.5ZM9.87017 18.2403C5.24745 18.2403 1.5 14.4929 1.5 9.87017H0.5C0.5 15.0452 4.69517 19.2403 9.87017 19.2403V18.2403ZM14.1716 17.0521C12.9149 17.8065 11.444 18.2403 9.87017 18.2403V19.2403C11.6303 19.2403 13.2785 18.7545 14.6863 17.9094L14.1716 17.0521ZM14.2975 17.9632C16.2562 18.497 18.6161 18.6922 20.0593 18.5679C20.4206 18.5367 20.7505 18.4836 21.0114 18.3991C21.1413 18.3571 21.2757 18.3005 21.3928 18.22C21.5076 18.1412 21.6461 18.0112 21.7075 17.8112C21.7738 17.5953 21.7218 17.3938 21.6335 17.242C21.5514 17.1009 21.4316 16.9879 21.3122 16.8971C21.072 16.7144 20.7169 16.5352 20.2588 16.3531L19.8893 17.2823C20.3207 17.4538 20.5755 17.5932 20.7068 17.693C20.7731 17.7435 20.7795 17.7627 20.769 17.7448C20.7524 17.7161 20.7175 17.6287 20.7516 17.5176C20.7808 17.4225 20.8377 17.3882 20.8267 17.3957C20.8181 17.4017 20.7825 17.4221 20.7034 17.4477C20.5462 17.4986 20.3017 17.5433 19.9734 17.5716C18.6582 17.6849 16.4165 17.5042 14.5604 16.9984L14.2975 17.9632ZM20.2588 16.3531C19.0553 15.8745 18.1842 15.238 17.5581 14.5485L16.8178 15.2207C17.5522 16.0296 18.5527 16.7507 19.8893 17.2823L20.2588 16.3531Z" fill="#666666"/>
</svg>
