<svg width="267" height="66" viewBox="0 0 267 66" fill="none" xmlns="http://www.w3.org/2000/svg">
<path fill-rule="evenodd" clip-rule="evenodd" d="M34.5396 9.78547V65.367H38.2682V0C38.072 0.391419 37.4831 1.95709 37.2868 2.34852C36.8944 3.13136 36.6981 3.91419 36.3057 4.69702C36.1094 5.87128 34.5396 9.00264 34.5396 9.78547Z" fill="#E4E7EC"/>
<path fill-rule="evenodd" clip-rule="evenodd" d="M22.7646 27.2033V65.171H26.4933V22.3105C26.1008 22.5063 25.9046 23.0935 25.5121 23.485C25.1195 23.8762 24.9232 24.2677 24.5308 24.6592C24.1383 25.0506 23.9421 25.4419 23.5496 25.8334C23.3533 26.2248 22.7646 26.4206 22.7646 27.2033Z" fill="#E4E7EC"/>
<path fill-rule="evenodd" clip-rule="evenodd" d="M11.3818 37.3804V65.3668H15.3067V34.249C14.718 34.249 12.9518 36.0104 12.3631 36.4019C11.7743 36.7931 11.3818 36.9889 11.3818 37.3804Z" fill="#E4E7EC"/>
<path fill-rule="evenodd" clip-rule="evenodd" d="M0 43.839V65.1713H3.9249V41.8818L0 43.839Z" fill="#E4E7EC"/>
<path d="M52.7455 53.8365C51.7861 53.8365 51.0012 54.1604 50.4156 54.7209L50.5776 53.8988H49.4313L47.6372 62.9169H48.8333L49.531 59.3794C49.9546 60.1517 50.7894 60.5752 51.9232 60.5752C54.0662 60.5752 55.661 58.9434 55.661 56.6765C55.661 54.8953 54.4275 53.8365 52.7455 53.8365ZM51.8734 59.5289C50.615 59.5289 49.9048 58.8313 49.9048 57.6729C49.9048 56.0412 50.9888 54.8828 52.4839 54.8828C53.7423 54.8828 54.4524 55.5679 54.4524 56.7387C54.4524 58.3705 53.356 59.5289 51.8734 59.5289ZM63.4407 57.5733C63.4905 57.2993 63.5279 57.0003 63.5279 56.6889C63.5279 54.9077 62.3567 53.8365 60.5751 53.8365C58.4196 53.8365 56.8497 55.4682 56.8497 57.7103C56.8497 59.4541 58.0583 60.5752 60.0144 60.5752C61.0236 60.5752 62.0203 60.2389 62.6682 59.6285L62.1574 58.7691C61.6839 59.2299 60.9364 59.5289 60.1141 59.5289C58.6937 59.5289 58.0209 58.8562 58.0209 57.648V57.5733H63.4407ZM60.5252 54.833C61.6964 54.833 62.4689 55.4931 62.4066 56.7014H58.1455C58.4445 55.5554 59.3291 54.833 60.5252 54.833ZM69.297 53.002C70.5056 53.002 71.2905 52.4165 71.5148 51.308H70.6924C70.5429 51.9681 70.0446 52.3543 69.3593 52.3543C68.7488 52.3543 68.3875 52.0429 68.3875 51.5322C68.3875 51.4574 68.3999 51.3827 68.4124 51.308H67.6025C67.5776 51.4325 67.5652 51.5571 67.5652 51.6816C67.5652 52.5162 68.1881 53.002 69.297 53.002ZM64.6123 60.5004H65.771L70.7547 55.5679L69.7455 60.5004H70.9665L72.2748 53.8988H71.141L66.1573 58.8313L67.154 53.8988H65.9455L64.6123 60.5004ZM79.5922 53.8988H73.5619L73.3625 54.9451H75.7547L74.6707 60.5004H75.8668L76.9508 54.9451H79.3928L79.5922 53.8988ZM79.5568 60.5004H80.7155L85.6992 55.5679L84.69 60.5004H85.911L87.2192 53.8988H86.0854L81.1017 58.8313L82.0985 53.8988H80.8899L79.5568 60.5004ZM88.2943 60.5004H89.4904L90.0511 57.7352H93.8138L93.2531 60.5004H94.4492L95.7699 53.8988H94.5738L94.0131 56.7014H90.2504L90.8111 53.8988H89.615L88.2943 60.5004ZM103.005 53.8988H98.1456L96.8249 60.5004H98.021L99.1299 54.9451H102.793L103.005 53.8988ZM111.014 53.8365C110.055 53.8365 109.27 54.1604 108.684 54.7209L108.846 53.8988H107.7L105.906 62.9169H107.102L107.8 59.3794C108.223 60.1517 109.058 60.5752 110.192 60.5752C112.335 60.5752 113.929 58.9434 113.929 56.6765C113.929 54.8953 112.696 53.8365 111.014 53.8365ZM110.142 59.5289C108.883 59.5289 108.173 58.8313 108.173 57.6729C108.173 56.0412 109.257 54.8828 110.752 54.8828C112.011 54.8828 112.721 55.5679 112.721 56.7387C112.721 58.3705 111.625 59.5289 110.142 59.5289ZM121.709 57.5733C121.759 57.2993 121.796 57.0003 121.796 56.6889C121.796 54.9077 120.625 53.8365 118.844 53.8365C116.688 53.8365 115.118 55.4682 115.118 57.7103C115.118 59.4541 116.327 60.5752 118.283 60.5752C119.292 60.5752 120.289 60.2389 120.937 59.6285L120.426 58.7691C119.952 59.2299 119.205 59.5289 118.383 59.5289C116.962 59.5289 116.289 58.8562 116.289 57.648V57.5733H121.709ZM118.794 54.833C119.965 54.833 120.737 55.4931 120.675 56.7014H116.414C116.713 55.5554 117.598 54.833 118.794 54.833ZM131.839 56.6515C131.839 54.9077 130.693 53.9735 128.55 53.8614L129.073 51.2581H128.014L127.491 53.8614C124.675 53.986 122.856 55.5056 122.856 57.7726C122.856 59.5164 124.002 60.4382 126.158 60.5627L125.684 62.9169H126.743L127.217 60.5752C130.02 60.4755 131.839 58.931 131.839 56.6515ZM127.416 59.5662L128.351 54.8703C129.97 54.9575 130.705 55.5679 130.705 56.7761C130.705 58.358 129.447 59.4168 127.416 59.5662ZM123.99 57.6231C123.99 56.0786 125.236 55.0323 127.292 54.8828L126.357 59.5662C124.775 59.4541 123.99 58.8687 123.99 57.6231ZM139.549 57.5733C139.599 57.2993 139.637 57.0003 139.637 56.6889C139.637 54.9077 138.465 53.8365 136.684 53.8365C134.528 53.8365 132.958 55.4682 132.958 57.7103C132.958 59.4541 134.167 60.5752 136.123 60.5752C137.132 60.5752 138.129 60.2389 138.777 59.6285L138.266 58.7691C137.793 59.2299 137.045 59.5289 136.223 59.5289C134.802 59.5289 134.13 58.8562 134.13 57.648V57.5733H139.549ZM136.634 54.833C137.805 54.833 138.578 55.4931 138.515 56.7014H134.254C134.553 55.5554 135.438 54.833 136.634 54.833ZM145.356 53.8365C144.397 53.8365 143.612 54.1604 143.026 54.7209L143.188 53.8988H142.042L140.248 62.9169H141.444L142.142 59.3794C142.565 60.1517 143.4 60.5752 144.534 60.5752C146.677 60.5752 148.272 58.9434 148.272 56.6765C148.272 54.8953 147.038 53.8365 145.356 53.8365ZM144.484 59.5289C143.225 59.5289 142.515 58.8313 142.515 57.6729C142.515 56.0412 143.599 54.8828 145.094 54.8828C146.353 54.8828 147.063 55.5679 147.063 56.7387C147.063 58.3705 145.967 59.5289 144.484 59.5289ZM155.802 53.8988L155.578 55.0198C155.154 54.2476 154.332 53.8365 153.198 53.8365C151.055 53.8365 149.46 55.4558 149.46 57.7228C149.46 59.504 150.693 60.5752 152.375 60.5752C153.322 60.5752 154.12 60.2513 154.705 59.6908L154.543 60.5004H155.69L156.998 53.8988H155.802ZM152.637 59.5289C151.379 59.5289 150.669 58.8313 150.669 57.6729C150.669 56.0412 151.765 54.8828 153.248 54.8828C154.506 54.8828 155.216 55.5679 155.216 56.7387C155.216 58.3705 154.132 59.5289 152.637 59.5289ZM164.317 53.8988H158.286L158.087 54.9451H160.479L159.395 60.5004H160.591L161.675 54.9451H164.117L164.317 53.8988ZM164.281 60.5004H165.477L166.038 57.7352H169.801L169.24 60.5004H170.436L171.757 53.8988H170.561L170 56.7014H166.237L166.798 53.8988H165.602L164.281 60.5004ZM172.812 60.5004H173.971L178.954 55.5679L177.945 60.5004H179.166L180.475 53.8988H179.341L174.357 58.8313L175.354 53.8988H174.145L172.812 60.5004ZM188.24 53.8988H186.882L184.59 56.2903L183.244 53.8988H181.998L183.817 57.0875L180.491 60.5004H181.886L184.303 57.9594L185.723 60.5004H186.994L185.076 57.1747L188.24 53.8988ZM199.124 53.8988H197.791L195.075 56.6889H193.729L194.29 53.8988H193.094L191.761 60.5004H192.957L193.518 57.7103H194.95L196.558 60.5004H197.941L195.897 57.1622L199.124 53.8988ZM202.178 60.5752C204.434 60.5752 206.041 58.9185 206.041 56.6765C206.041 54.9451 204.832 53.8365 202.951 53.8365C200.696 53.8365 199.076 55.4931 199.076 57.7228C199.076 59.4417 200.297 60.5752 202.178 60.5752ZM202.253 59.5289C200.995 59.5289 200.285 58.8313 200.285 57.6729C200.285 56.0412 201.381 54.8828 202.864 54.8828C204.122 54.8828 204.832 55.5679 204.832 56.7387C204.832 58.3705 203.748 59.5289 202.253 59.5289ZM214.967 53.8988L211.404 58.358L209.709 53.8988H208.488L207.167 60.5004H208.264L209.223 55.6302L210.868 59.7531H211.391L214.655 55.7049L213.696 60.5004H214.78L216.088 53.8988H214.967ZM224.957 53.8988L221.394 58.358L219.7 53.8988H218.479L217.158 60.5004H218.255L219.214 55.6302L220.859 59.7531H221.382L224.645 55.7049L223.686 60.5004H224.77L226.078 53.8988H224.957ZM228.47 53.8988L227.148 60.5004H228.345L229.442 54.9451H233.155L232.07 60.5004H233.267L234.588 53.8988H228.47ZM242.048 53.8988L241.824 55.0198C241.399 54.2476 240.578 53.8365 239.443 53.8365C237.3 53.8365 235.705 55.4558 235.705 57.7228C235.705 59.504 236.94 60.5752 238.622 60.5752C239.568 60.5752 240.366 60.2513 240.951 59.6908L240.789 60.5004H241.935L243.243 53.8988H242.048ZM238.882 59.5289C237.625 59.5289 236.913 58.8313 236.913 57.6729C236.913 56.0412 238.01 54.8828 239.494 54.8828C240.751 54.8828 241.461 55.5679 241.461 56.7387C241.461 58.3705 240.377 59.5289 238.882 59.5289ZM244.32 60.5004H245.517L246.078 57.7352H249.84L249.279 60.5004H250.474L251.795 53.8988H250.598L250.038 56.7014H246.276L246.836 53.8988H245.641L244.32 60.5004ZM255.106 52.6283C255.618 52.6283 255.978 52.2795 255.978 51.7688C255.978 51.3951 255.653 51.0713 255.217 51.0713C254.708 51.0713 254.359 51.445 254.359 51.9058C254.359 52.3044 254.67 52.6283 255.106 52.6283ZM252.85 60.5004H254.047L255.355 53.8988H254.158L252.85 60.5004ZM261.113 53.002C262.324 53.002 263.107 52.4165 263.331 51.308H262.51C262.359 51.9681 261.861 52.3543 261.176 52.3543C260.566 52.3543 260.205 52.0429 260.205 51.5322C260.205 51.4574 260.217 51.3827 260.23 51.308H259.42C259.396 51.4325 259.382 51.5571 259.382 51.6816C259.382 52.5162 260.005 53.002 261.113 53.002ZM256.43 60.5004H257.589L262.573 55.5679L261.563 60.5004H262.784L264.092 53.8988H262.958L257.974 58.8313L258.971 53.8988H257.763L256.43 60.5004Z" fill="black"/>
<path d="M59.9872 41.2469C67.396 41.2469 70.8401 37.5635 70.8401 33.2796C70.8401 22.9901 53.8599 27.274 53.8599 20.4277C53.8599 17.9854 55.9023 15.9836 60.668 15.9836C63.1509 15.9836 65.9142 16.7043 68.3571 18.2657L69.6787 15.0628C67.356 13.4613 63.9519 12.5805 60.668 12.5805C53.2992 12.5805 49.9352 16.2639 49.9352 20.5878C49.9352 30.9974 66.9154 26.6735 66.9154 33.5198C66.9154 35.962 64.8329 37.8438 59.9872 37.8438C56.3829 37.8438 52.8186 36.4825 50.7362 34.6008L49.2544 37.7237C51.4971 39.8056 55.7021 41.2469 59.9872 41.2469ZM85.8618 36.9229C85.0608 37.5635 83.9795 37.9238 82.8582 37.9238C80.7357 37.9238 79.5342 36.6427 79.5342 34.3605V22.87H85.6215V19.707H79.5342V15.0628H75.6897V19.707H72.0854V22.87H75.6897V34.5207C75.6897 38.8046 78.1326 41.1668 82.4177 41.1668C84.1397 41.1668 85.9018 40.6864 87.0632 39.6855L85.8618 36.9229ZM106.649 19.707V30.6772C106.649 35.2414 104.086 37.7237 100.081 37.7237C96.4368 37.7237 94.3543 35.6417 94.3543 31.4779V19.707H90.5098V31.9183C90.5098 38.1641 94.1541 41.1668 99.6406 41.1668C102.644 41.1668 105.287 39.9257 106.849 37.7237V40.9266H110.494V19.707H106.649ZM132.991 11.2192V22.91C131.229 20.6279 128.586 19.5068 125.582 19.5068C119.375 19.5068 114.849 23.8308 114.849 30.3168C114.849 36.8028 119.375 41.1668 125.582 41.1668C128.706 41.1668 131.429 39.9657 133.151 37.5635V40.9266H136.835V11.2192H132.991ZM125.902 37.8037C121.817 37.8037 118.734 34.841 118.734 30.3168C118.734 25.7926 121.817 22.87 125.902 22.87C129.947 22.87 133.031 25.7926 133.031 30.3168C133.031 34.841 129.947 37.8037 125.902 37.8037ZM166.777 40.9266L160.129 31.5179C164.053 30.1166 166.296 26.9938 166.296 22.6698C166.296 16.5842 161.891 12.9008 154.602 12.9008H143.669V40.9266H147.674V32.3987H154.602C155.203 32.3987 155.804 32.3587 156.364 32.3187L162.411 40.9266H166.777ZM154.482 28.9956H147.674V16.384H154.482C159.608 16.384 162.291 18.6661 162.291 22.6698C162.291 26.6735 159.608 28.9956 154.482 28.9956ZM178.738 19.5068C175.334 19.5068 172.17 20.4677 169.968 22.2294L171.569 25.112C173.211 23.7107 175.774 22.8299 178.297 22.8299C182.102 22.8299 183.984 24.7117 183.984 27.9546V28.7153H177.897C171.569 28.7153 169.367 31.5179 169.367 34.9211C169.367 38.6045 172.41 41.1668 177.216 41.1668C180.54 41.1668 182.903 40.0458 184.184 38.124V40.9266H187.829V28.1148C187.829 22.3094 184.545 19.5068 178.738 19.5068ZM177.857 38.2041C174.933 38.2041 173.171 36.8829 173.171 34.7609C173.171 32.9593 174.253 31.4779 178.057 31.4779H183.984V34.4406C183.023 36.8829 180.74 38.2041 177.857 38.2041ZM204.675 36.9229C203.874 37.5635 202.793 37.9238 201.672 37.9238C199.549 37.9238 198.348 36.6427 198.348 34.3605V22.87H204.435V19.707H198.348V15.0628H194.503V19.707H190.899V22.87H194.503V34.5207C194.503 38.8046 196.946 41.1668 201.231 41.1668C202.953 41.1668 204.715 40.6864 205.877 39.6855L204.675 36.9229ZM211.446 15.6233C212.968 15.6233 214.049 14.5022 214.049 13.0609C214.049 11.6996 212.928 10.6187 211.446 10.6187C209.964 10.6187 208.843 11.7397 208.843 13.141C208.843 14.5423 209.964 15.6233 211.446 15.6233ZM209.524 40.9266H213.368V19.707H209.524V40.9266ZM231.042 19.5068C227.678 19.5068 224.955 20.748 223.393 22.91V19.707H219.707V40.9266H223.553V29.9965C223.553 25.3923 226.196 22.95 230.281 22.95C233.925 22.95 236.008 24.9919 236.008 29.1557V40.9266H239.853V28.7153C239.853 22.4696 236.208 19.5068 231.042 19.5068ZM262.742 19.707V22.9901C260.94 20.6679 258.056 19.5068 254.893 19.5068C248.765 19.5068 244.12 23.6307 244.12 29.7563C244.12 35.882 248.765 40.0458 254.893 40.0458C257.936 40.0458 260.7 38.9648 262.542 36.7628V38.4443C262.542 43.2487 260.259 45.5709 255.253 45.5709C252.129 45.5709 249.046 44.4899 247.083 42.8083L245.241 45.7711C247.564 47.853 251.489 48.934 255.373 48.934C262.582 48.934 266.386 45.5308 266.386 38.0439V19.707H262.742ZM255.333 36.6827C251.048 36.6827 248.004 33.8401 248.004 29.7563C248.004 25.6325 251.048 22.87 255.333 22.87C259.578 22.87 262.622 25.6325 262.622 29.7563C262.622 33.8401 259.578 36.6827 255.333 36.6827Z" fill="black"/>
</svg>
