<svg width="267" height="67" viewBox="0 0 267 67" fill="none" xmlns="http://www.w3.org/2000/svg">
<path fill-rule="evenodd" clip-rule="evenodd" d="M34.5396 10.6378V66.2193H38.2682V0.852295C38.072 1.24371 37.4831 2.80939 37.2868 3.20082C36.8944 3.98365 36.6981 4.76648 36.3057 5.54932C36.1094 6.72358 34.5396 9.85493 34.5396 10.6378Z" fill="#3B61AA"/>
<path fill-rule="evenodd" clip-rule="evenodd" d="M22.7646 28.0558V66.0235H26.4933V23.1631C26.1008 23.3588 25.9046 23.946 25.5121 24.3375C25.1195 24.7288 24.9232 25.1202 24.5308 25.5117C24.1383 25.9032 23.9421 26.2944 23.5496 26.6859C23.3533 27.0774 22.7646 27.2731 22.7646 28.0558Z" fill="#3B61AA"/>
<path fill-rule="evenodd" clip-rule="evenodd" d="M11.3818 38.2328V66.2193H15.3067V35.1014C14.718 35.1014 12.9518 36.8628 12.3631 37.2543C11.7743 37.6456 11.3818 37.8413 11.3818 38.2328Z" fill="#3B61AA"/>
<path fill-rule="evenodd" clip-rule="evenodd" d="M0 44.6912V66.0235H3.9249V42.734L0 44.6912Z" fill="#3B61AA"/>
<path d="M52.7455 54.6886C51.7861 54.6886 51.0012 55.0125 50.4156 55.573L50.5776 54.7509H49.4313L47.6372 63.769H48.8333L49.531 60.2315C49.9546 61.0038 50.7894 61.4273 51.9232 61.4273C54.0662 61.4273 55.661 59.7955 55.661 57.5286C55.661 55.7474 54.4275 54.6886 52.7455 54.6886ZM51.8734 60.381C50.615 60.381 49.9048 59.6834 49.9048 58.525C49.9048 56.8933 50.9888 55.7349 52.4839 55.7349C53.7423 55.7349 54.4524 56.42 54.4524 57.5908C54.4524 59.2226 53.356 60.381 51.8734 60.381ZM63.4407 58.4254C63.4905 58.1514 63.5279 57.8524 63.5279 57.541C63.5279 55.7598 62.3567 54.6886 60.5751 54.6886C58.4196 54.6886 56.8497 56.3203 56.8497 58.5624C56.8497 60.3062 58.0583 61.4273 60.0144 61.4273C61.0236 61.4273 62.0203 61.091 62.6682 60.4806L62.1574 59.6212C61.6839 60.082 60.9364 60.381 60.1141 60.381C58.6937 60.381 58.0209 59.7083 58.0209 58.5001V58.4254H63.4407ZM60.5252 55.6851C61.6964 55.6851 62.4689 56.3452 62.4066 57.5535H58.1455C58.4445 56.4075 59.3291 55.6851 60.5252 55.6851ZM69.297 53.8541C70.5056 53.8541 71.2905 53.2686 71.5148 52.16H70.6924C70.5429 52.8202 70.0446 53.2063 69.3593 53.2063C68.7488 53.2063 68.3875 52.8949 68.3875 52.3843C68.3875 52.3095 68.3999 52.2348 68.4124 52.16H67.6025C67.5776 52.2846 67.5652 52.4092 67.5652 52.5337C67.5652 53.3683 68.1881 53.8541 69.297 53.8541ZM64.6123 61.3525H65.771L70.7547 56.42L69.7455 61.3525H70.9665L72.2748 54.7509H71.141L66.1573 59.6834L67.154 54.7509H65.9455L64.6123 61.3525ZM79.5922 54.7509H73.5619L73.3625 55.7972H75.7547L74.6707 61.3525H75.8668L76.9508 55.7972H79.3928L79.5922 54.7509ZM79.5568 61.3525H80.7155L85.6992 56.42L84.69 61.3525H85.911L87.2192 54.7509H86.0854L81.1017 59.6834L82.0985 54.7509H80.8899L79.5568 61.3525ZM88.2943 61.3525H89.4904L90.0511 58.5873H93.8138L93.2531 61.3525H94.4492L95.7699 54.7509H94.5738L94.0131 57.5535H90.2504L90.8111 54.7509H89.615L88.2943 61.3525ZM103.005 54.7509H98.1456L96.8249 61.3525H98.021L99.1299 55.7972H102.793L103.005 54.7509ZM111.014 54.6886C110.055 54.6886 109.27 55.0125 108.684 55.573L108.846 54.7509H107.7L105.906 63.769H107.102L107.8 60.2315C108.223 61.0038 109.058 61.4273 110.192 61.4273C112.335 61.4273 113.929 59.7955 113.929 57.5286C113.929 55.7474 112.696 54.6886 111.014 54.6886ZM110.142 60.381C108.883 60.381 108.173 59.6834 108.173 58.525C108.173 56.8933 109.257 55.7349 110.752 55.7349C112.011 55.7349 112.721 56.42 112.721 57.5908C112.721 59.2226 111.625 60.381 110.142 60.381ZM121.709 58.4254C121.759 58.1514 121.796 57.8524 121.796 57.541C121.796 55.7598 120.625 54.6886 118.844 54.6886C116.688 54.6886 115.118 56.3203 115.118 58.5624C115.118 60.3062 116.327 61.4273 118.283 61.4273C119.292 61.4273 120.289 61.091 120.937 60.4806L120.426 59.6212C119.952 60.082 119.205 60.381 118.383 60.381C116.962 60.381 116.289 59.7083 116.289 58.5001V58.4254H121.709ZM118.794 55.6851C119.965 55.6851 120.737 56.3452 120.675 57.5535H116.414C116.713 56.4075 117.598 55.6851 118.794 55.6851ZM131.839 57.5036C131.839 55.7598 130.693 54.8256 128.55 54.7135L129.073 52.1102H128.014L127.491 54.7135C124.675 54.8381 122.856 56.3577 122.856 58.6247C122.856 60.3685 124.002 61.2902 126.158 61.4148L125.684 63.769H126.743L127.217 61.4273C130.02 61.3276 131.839 59.7831 131.839 57.5036ZM127.416 60.4183L128.351 55.7224C129.97 55.8096 130.705 56.42 130.705 57.6282C130.705 59.2101 129.447 60.2689 127.416 60.4183ZM123.99 58.4752C123.99 56.9307 125.236 55.8844 127.292 55.7349L126.357 60.4183C124.775 60.3062 123.99 59.7208 123.99 58.4752ZM139.549 58.4254C139.599 58.1514 139.637 57.8524 139.637 57.541C139.637 55.7598 138.465 54.6886 136.684 54.6886C134.528 54.6886 132.958 56.3203 132.958 58.5624C132.958 60.3062 134.167 61.4273 136.123 61.4273C137.132 61.4273 138.129 61.091 138.777 60.4806L138.266 59.6212C137.793 60.082 137.045 60.381 136.223 60.381C134.802 60.381 134.13 59.7083 134.13 58.5001V58.4254H139.549ZM136.634 55.6851C137.805 55.6851 138.578 56.3452 138.515 57.5535H134.254C134.553 56.4075 135.438 55.6851 136.634 55.6851ZM145.356 54.6886C144.397 54.6886 143.612 55.0125 143.026 55.573L143.188 54.7509H142.042L140.248 63.769H141.444L142.142 60.2315C142.565 61.0038 143.4 61.4273 144.534 61.4273C146.677 61.4273 148.272 59.7955 148.272 57.5286C148.272 55.7474 147.038 54.6886 145.356 54.6886ZM144.484 60.381C143.225 60.381 142.515 59.6834 142.515 58.525C142.515 56.8933 143.599 55.7349 145.094 55.7349C146.353 55.7349 147.063 56.42 147.063 57.5908C147.063 59.2226 145.967 60.381 144.484 60.381ZM155.802 54.7509L155.578 55.8719C155.154 55.0996 154.332 54.6886 153.198 54.6886C151.055 54.6886 149.46 56.3079 149.46 58.5749C149.46 60.3561 150.693 61.4273 152.375 61.4273C153.322 61.4273 154.12 61.1034 154.705 60.5429L154.543 61.3525H155.69L156.998 54.7509H155.802ZM152.637 60.381C151.379 60.381 150.669 59.6834 150.669 58.525C150.669 56.8933 151.765 55.7349 153.248 55.7349C154.506 55.7349 155.216 56.42 155.216 57.5908C155.216 59.2226 154.132 60.381 152.637 60.381ZM164.317 54.7509H158.286L158.087 55.7972H160.479L159.395 61.3525H160.591L161.675 55.7972H164.117L164.317 54.7509ZM164.281 61.3525H165.477L166.038 58.5873H169.801L169.24 61.3525H170.436L171.757 54.7509H170.561L170 57.5535H166.237L166.798 54.7509H165.602L164.281 61.3525ZM172.812 61.3525H173.971L178.954 56.42L177.945 61.3525H179.166L180.475 54.7509H179.341L174.357 59.6834L175.354 54.7509H174.145L172.812 61.3525ZM188.24 54.7509H186.882L184.59 57.1424L183.244 54.7509H181.998L183.817 57.9396L180.491 61.3525H181.886L184.303 58.8115L185.723 61.3525H186.994L185.076 58.0268L188.24 54.7509ZM199.124 54.7509H197.791L195.075 57.541H193.729L194.29 54.7509H193.094L191.761 61.3525H192.957L193.518 58.5624H194.95L196.558 61.3525H197.941L195.897 58.0143L199.124 54.7509ZM202.178 61.4273C204.434 61.4273 206.041 59.7706 206.041 57.5286C206.041 55.7972 204.832 54.6886 202.951 54.6886C200.696 54.6886 199.076 56.3452 199.076 58.5749C199.076 60.2938 200.297 61.4273 202.178 61.4273ZM202.253 60.381C200.995 60.381 200.285 59.6834 200.285 58.525C200.285 56.8933 201.381 55.7349 202.864 55.7349C204.122 55.7349 204.832 56.42 204.832 57.5908C204.832 59.2226 203.748 60.381 202.253 60.381ZM214.967 54.7509L211.404 59.2101L209.709 54.7509H208.488L207.167 61.3525H208.264L209.223 56.4823L210.868 60.6052H211.391L214.655 56.557L213.696 61.3525H214.78L216.088 54.7509H214.967ZM224.957 54.7509L221.394 59.2101L219.7 54.7509H218.479L217.158 61.3525H218.255L219.214 56.4823L220.859 60.6052H221.382L224.645 56.557L223.686 61.3525H224.77L226.078 54.7509H224.957ZM228.47 54.7509L227.148 61.3525H228.345L229.442 55.7972H233.155L232.07 61.3525H233.267L234.588 54.7509H228.47ZM242.048 54.7509L241.824 55.8719C241.399 55.0996 240.578 54.6886 239.443 54.6886C237.3 54.6886 235.705 56.3079 235.705 58.5749C235.705 60.3561 236.94 61.4273 238.622 61.4273C239.568 61.4273 240.366 61.1034 240.951 60.5429L240.789 61.3525H241.935L243.243 54.7509H242.048ZM238.882 60.381C237.625 60.381 236.913 59.6834 236.913 58.525C236.913 56.8933 238.01 55.7349 239.494 55.7349C240.751 55.7349 241.461 56.42 241.461 57.5908C241.461 59.2226 240.377 60.381 238.882 60.381ZM244.32 61.3525H245.517L246.078 58.5873H249.84L249.279 61.3525H250.474L251.795 54.7509H250.598L250.038 57.5535H246.276L246.836 54.7509H245.641L244.32 61.3525ZM255.106 53.4804C255.618 53.4804 255.978 53.1316 255.978 52.6209C255.978 52.2472 255.653 51.9234 255.217 51.9234C254.708 51.9234 254.359 52.2971 254.359 52.7579C254.359 53.1565 254.67 53.4804 255.106 53.4804ZM252.85 61.3525H254.047L255.355 54.7509H254.158L252.85 61.3525ZM261.113 53.8541C262.324 53.8541 263.107 53.2686 263.331 52.16H262.51C262.359 52.8202 261.861 53.2063 261.176 53.2063C260.566 53.2063 260.205 52.8949 260.205 52.3843C260.205 52.3095 260.217 52.2348 260.23 52.16H259.42C259.396 52.2846 259.382 52.4092 259.382 52.5337C259.382 53.3683 260.005 53.8541 261.113 53.8541ZM256.43 61.3525H257.589L262.573 56.42L261.563 61.3525H262.784L264.092 54.7509H262.958L257.974 59.6834L258.971 54.7509H257.763L256.43 61.3525Z" fill="black"/>
<path d="M59.9872 42.0992C67.396 42.0992 70.8401 38.4158 70.8401 34.1319C70.8401 23.8424 53.8599 28.1263 53.8599 21.28C53.8599 18.8378 55.9023 16.8359 60.668 16.8359C63.1509 16.8359 65.9142 17.5566 68.3571 19.118L69.6787 15.9151C67.356 14.3136 63.9519 13.4328 60.668 13.4328C53.2992 13.4328 49.9352 17.1162 49.9352 21.4402C49.9352 31.8498 66.9154 27.5258 66.9154 34.3721C66.9154 36.8144 64.8329 38.6961 59.9872 38.6961C56.3829 38.6961 52.8186 37.3348 50.7362 35.4531L49.2544 38.576C51.4971 40.6579 55.7021 42.0992 59.9872 42.0992ZM85.8618 37.7752C85.0608 38.4158 83.9795 38.7762 82.8582 38.7762C80.7357 38.7762 79.5342 37.495 79.5342 35.2129V23.7223H85.6215V20.5594H79.5342V15.9151H75.6897V20.5594H72.0854V23.7223H75.6897V35.373C75.6897 39.657 78.1326 42.0192 82.4177 42.0192C84.1397 42.0192 85.9018 41.5387 87.0632 40.5378L85.8618 37.7752ZM106.649 20.5594V31.5295C106.649 36.0937 104.086 38.576 100.081 38.576C96.4368 38.576 94.3543 36.4941 94.3543 32.3302V20.5594H90.5098V32.7706C90.5098 39.0164 94.1541 42.0192 99.6406 42.0192C102.644 42.0192 105.287 40.778 106.849 38.576V41.7789H110.494V20.5594H106.649ZM132.991 12.0715V23.7623C131.229 21.4802 128.586 20.3592 125.582 20.3592C119.375 20.3592 114.849 24.6832 114.849 31.1691C114.849 37.6551 119.375 42.0192 125.582 42.0192C128.706 42.0192 131.429 40.818 133.151 38.4158V41.7789H136.835V12.0715H132.991ZM125.902 38.6561C121.817 38.6561 118.734 35.6933 118.734 31.1691C118.734 26.645 121.817 23.7223 125.902 23.7223C129.947 23.7223 133.031 26.645 133.031 31.1691C133.031 35.6933 129.947 38.6561 125.902 38.6561ZM166.777 41.7789L160.129 32.3703C164.053 30.969 166.296 27.8461 166.296 23.5221C166.296 17.4365 161.891 13.7531 154.602 13.7531H143.669V41.7789H147.674V33.2511H154.602C155.203 33.2511 155.804 33.211 156.364 33.171L162.411 41.7789H166.777ZM154.482 29.8479H147.674V17.2363H154.482C159.608 17.2363 162.291 19.5184 162.291 23.5221C162.291 27.5258 159.608 29.8479 154.482 29.8479ZM178.738 20.3592C175.334 20.3592 172.17 21.3201 169.968 23.0817L171.569 25.9643C173.211 24.5631 175.774 23.6822 178.297 23.6822C182.102 23.6822 183.984 25.564 183.984 28.807V29.5677H177.897C171.569 29.5677 169.367 32.3703 169.367 35.7734C169.367 39.4568 172.41 42.0192 177.216 42.0192C180.54 42.0192 182.903 40.8981 184.184 38.9763V41.7789H187.829V28.9671C187.829 23.1618 184.545 20.3592 178.738 20.3592ZM177.857 39.0564C174.933 39.0564 173.171 37.7352 173.171 35.6132C173.171 33.8116 174.253 32.3302 178.057 32.3302H183.984V35.2929C183.023 37.7352 180.74 39.0564 177.857 39.0564ZM204.675 37.7752C203.874 38.4158 202.793 38.7762 201.672 38.7762C199.549 38.7762 198.348 37.495 198.348 35.2129V23.7223H204.435V20.5594H198.348V15.9151H194.503V20.5594H190.899V23.7223H194.503V35.373C194.503 39.657 196.946 42.0192 201.231 42.0192C202.953 42.0192 204.715 41.5387 205.877 40.5378L204.675 37.7752ZM211.446 16.4756C212.968 16.4756 214.049 15.3546 214.049 13.9132C214.049 12.552 212.928 11.471 211.446 11.471C209.964 11.471 208.843 12.592 208.843 13.9933C208.843 15.3946 209.964 16.4756 211.446 16.4756ZM209.524 41.7789H213.368V20.5594H209.524V41.7789ZM231.042 20.3592C227.678 20.3592 224.955 21.6003 223.393 23.7623V20.5594H219.707V41.7789H223.553V30.8488C223.553 26.2446 226.196 23.8024 230.281 23.8024C233.925 23.8024 236.008 25.8442 236.008 30.0081V41.7789H239.853V29.5677C239.853 23.3219 236.208 20.3592 231.042 20.3592ZM262.742 20.5594V23.8424C260.94 21.5202 258.056 20.3592 254.893 20.3592C248.765 20.3592 244.12 24.483 244.12 30.6086C244.12 36.7343 248.765 40.8981 254.893 40.8981C257.936 40.8981 260.7 39.8171 262.542 37.6151V39.2966C262.542 44.1011 260.259 46.4232 255.253 46.4232C252.129 46.4232 249.046 45.3422 247.083 43.6607L245.241 46.6234C247.564 48.7053 251.489 49.7863 255.373 49.7863C262.582 49.7863 266.386 46.3832 266.386 38.8963V20.5594H262.742ZM255.333 37.535C251.048 37.535 248.004 34.6924 248.004 30.6086C248.004 26.4848 251.048 23.7223 255.333 23.7223C259.578 23.7223 262.622 26.4848 262.622 30.6086C262.622 34.6924 259.578 37.535 255.333 37.535Z" fill="black"/>
</svg>
