<svg width="33" height="33" viewBox="0 0 33 33" fill="none" xmlns="http://www.w3.org/2000/svg">
<path fill-rule="evenodd" clip-rule="evenodd" d="M3.81103 3.81103C6.23623 1.38583 9.35434 0 12.8189 0C16.2835 0 19.4016 1.38583 21.8268 3.81103C24.252 6.23623 25.6378 9.35434 25.6378 12.8189C25.6378 15.937 24.252 19.4016 21.8268 21.8268C19.4016 24.252 15.937 25.6378 12.8189 25.6378C9.7008 25.6378 6.23623 24.252 3.81103 21.8268C1.38583 19.4016 0 15.937 0 12.8189C0 9.35434 1.38583 6.23623 3.81103 3.81103ZM12.8189 3.11811C10.3937 3.11811 7.96851 4.15748 5.88977 5.88977C3.81103 7.62205 3.11811 10.3937 3.11811 12.8189C3.11811 15.2441 4.15748 17.6693 5.88977 19.7481C7.62205 21.4803 10.3937 22.5197 12.8189 22.5197C15.2441 22.5197 17.6693 21.4803 19.7481 19.7481C21.4803 18.0158 22.5197 15.2441 22.5197 12.8189C22.5197 10.3937 21.4803 7.96851 19.7481 5.88977C17.6693 3.81103 15.2441 3.11811 12.8189 3.11811Z" fill="white"/>
<path fill-rule="evenodd" clip-rule="evenodd" d="M20.4417 20.7874L20.7882 21.1338C21.8275 22.1732 21.8275 18.7086 22.8669 19.748L31.8748 28.7559C32.9142 29.7953 32.9142 31.1811 31.8748 32.2205C30.8354 33.2598 29.4496 33.2598 28.4102 32.2205L19.7488 23.2126C18.7094 22.1732 19.7488 19.748 20.4417 20.7874Z" fill="white"/>
</svg>
