<svg width="39" height="66" viewBox="0 0 39 66" fill="none" xmlns="http://www.w3.org/2000/svg">
<path fill-rule="evenodd" clip-rule="evenodd" d="M34.5396 9.78547V65.367H38.2682V0C38.072 0.391419 37.4831 1.95709 37.2868 2.34852C36.8944 3.13136 36.6981 3.91419 36.3057 4.69702C36.1094 5.87128 34.5396 9.00264 34.5396 9.78547Z" fill="white"/>
<path fill-rule="evenodd" clip-rule="evenodd" d="M22.7646 27.2035V65.1712H26.4933V22.3108C26.1008 22.5065 25.9046 23.0937 25.5121 23.4852C25.1195 23.8765 24.9232 24.2679 24.5308 24.6594C24.1383 25.0509 23.9421 25.4421 23.5496 25.8336C23.3533 26.2251 22.7646 26.4208 22.7646 27.2035Z" fill="white"/>
<path fill-rule="evenodd" clip-rule="evenodd" d="M11.3818 37.3805V65.367H15.3067V34.2491C14.718 34.2491 12.9518 36.0105 12.3631 36.402C11.7743 36.7933 11.3818 36.989 11.3818 37.3805Z" fill="white"/>
<path fill-rule="evenodd" clip-rule="evenodd" d="M0 43.8389V65.1712H3.9249V41.8817L0 43.8389Z" fill="white"/>
</svg>
