<svg width="50" height="50" viewBox="0 0 50 50" fill="none" xmlns="http://www.w3.org/2000/svg">
<g clip-path="url(#clip0)">
<path fill-rule="evenodd" clip-rule="evenodd" d="M46.8013 46.8013H3.19865V3.19865H28.1145V0H0V50H50V21.8855H46.8013V46.8013Z" fill="white"/>
<path fill-rule="evenodd" clip-rule="evenodd" d="M14.8149 28.2828L14.4782 29.9663L12.458 37.3737L19.8654 35.3535H20.0338L21.7173 34.8485L22.7274 33.8384L48.4849 8.08078C50.3368 6.22893 50.3368 3.19863 48.4849 1.34677C46.6331 -0.505077 43.6028 -0.505077 41.7509 1.34677L15.9934 27.1043L14.8149 28.2828ZM44.1078 3.70368C44.7812 3.03028 45.7913 3.03028 46.2964 3.70368C46.8014 4.37708 46.9698 5.38718 46.2964 5.89223L44.1078 8.08078L41.9193 5.89223L44.1078 3.70368ZM17.6769 30.4713L17.8452 29.798L39.7307 7.91243L41.9193 10.101L20.0338 32.1549L19.3604 32.3232H19.0237L17.0035 32.8283L17.6769 30.4713Z" fill="white"/>
</g>
<defs>
<clipPath id="clip0">
<rect width="50" height="50" fill="white"/>
</clipPath>
</defs>
</svg>
