<svg width="20" height="20" viewBox="0 0 20 20" fill="none" xmlns="http://www.w3.org/2000/svg">
<g clip-path="url(#clip0)">
<path d="M0.785486 5.12227L5.12184 0.78595L0.687051 0.00983993C0.49901 -0.0229716 0.306711 0.0377297 0.171715 0.172726C0.0367187 0.307722 -0.0240217 0.500021 0.00894605 0.688062L0.785486 5.12227Z" fill="#FCBF42"/>
<path d="M1.41531 6.14861L15.112 19.8284C15.2219 19.9382 15.3708 19.9998 15.5261 19.9998H15.527C15.6826 19.9996 15.8316 19.9374 15.9414 19.8272L17.4661 18.2948L3.3676 4.19629L1.41531 6.14861Z" fill="#FCBF42"/>
<path d="M6.14927 1.41461L4.19621 3.36768L18.2926 17.4641L19.8285 15.9204C20.0564 15.6914 20.0559 15.3212 19.8275 15.0928L6.14927 1.41461Z" fill="#FCBF42"/>
<path d="M19.8286 4.88781C19.9386 4.77773 20.0002 4.6284 20 4.47282C19.9998 4.31724 19.9376 4.16814 19.8273 4.05842L15.9207 0.171267C15.6917 -0.0565775 15.3215 -0.0561478 15.0931 0.172283L14.3737 0.891637L16.0546 2.57256C16.2835 2.80135 16.2835 3.17235 16.0546 3.40117C15.9402 3.51562 15.7903 3.57281 15.6404 3.57281C15.4904 3.57281 15.3404 3.51562 15.226 3.40117L13.5451 1.72025L12.4206 2.8447L14.1016 4.52563C14.3304 4.75441 14.3304 5.12542 14.1016 5.35424C13.9872 5.46869 13.8372 5.52588 13.6873 5.52588C13.5373 5.52588 13.3874 5.46869 13.273 5.35424L11.592 3.67331L10.8286 4.43677L15.5566 9.16479L19.8286 4.88781Z" fill="#FCBF42"/>
<path d="M3.67306 11.5924L5.35398 13.2733C5.5828 13.5021 5.5828 13.8731 5.35398 14.1019C5.23957 14.2163 5.08962 14.2735 4.9397 14.2735C4.78974 14.2735 4.63979 14.2163 4.52541 14.1019L2.84445 12.421L1.71995 13.5454L3.40092 15.2264C3.62974 15.4552 3.62974 15.8261 3.40092 16.055C3.28651 16.1694 3.13655 16.2266 2.98663 16.2266C2.83667 16.2266 2.68672 16.1694 2.57235 16.055L0.89138 14.374L0.17187 15.0935C0.0619906 15.2034 0.000234604 15.3524 0.000234604 15.5078C0.000234604 15.6632 0.0619906 15.8122 0.17187 15.9221L4.0775 19.8277C4.18738 19.9376 4.3364 19.9993 4.49178 19.9993H4.49194C4.64736 19.9993 4.79646 19.9374 4.9063 19.8275L9.17438 15.5544L4.43979 10.8256L3.67306 11.5924Z" fill="#FCBF42"/>
</g>
<defs>
<clipPath id="clip0">
<rect width="20" height="20" fill="white"/>
</clipPath>
</defs>
</svg>
