<svg width="23" height="23" viewBox="0 0 23 23" fill="none" xmlns="http://www.w3.org/2000/svg">
<path d="M19.6843 2.7881C12.9601 2.7881 11.8215 0.235123 11.8113 0.211176C11.762 0.086357 11.6415 0.00290276 11.5022 0C11.5022 0 11.5007 0 11.4978 0C11.3636 0 11.2409 0.0834543 11.1887 0.20537C11.1792 0.232221 10.016 2.7881 3.31568 2.7881C3.12917 2.7881 2.98041 2.93977 2.98041 3.12264V14.5624C2.98041 19.2453 11.0247 22.8229 11.3643 22.9732C11.4093 22.9927 11.4536 23 11.5007 23C11.545 23 11.5922 22.9927 11.6343 22.9732C11.9775 22.8229 20.0203 19.2453 20.0203 14.5624V3.12264C20.0196 2.93977 19.8708 2.7881 19.6843 2.7881ZM18.1713 13.897C18.1713 17.561 11.8737 20.3643 11.6052 20.4804C11.5726 20.4971 11.5348 20.5029 11.5007 20.5029C11.4637 20.5029 11.4296 20.4971 11.3933 20.4804C11.1284 20.3643 4.83092 17.561 4.83092 13.897V4.94267C4.83092 4.79826 4.94775 4.67925 5.09289 4.67925C10.3396 4.67925 11.2475 2.67925 11.2576 2.65965C11.299 2.56313 11.3941 2.49782 11.5 2.49782C11.5015 2.49782 11.5029 2.49782 11.5029 2.49782C11.611 2.49927 11.7054 2.56459 11.7446 2.66401C11.7525 2.68215 12.6437 4.67925 17.9086 4.67925C18.0544 4.67925 18.1705 4.79826 18.1705 4.94267C18.1705 4.94267 18.1705 13.897 18.1713 13.897ZM16.9151 13.7997C16.9151 16.7765 11.8026 19.0493 11.5842 19.143C11.5581 19.1582 11.5269 19.1626 11.4993 19.1626C11.4695 19.1626 11.4144 4.54644 11.4993 4.54644H11.5007C11.5885 4.5479 11.6669 4.60015 11.6974 4.68142C11.7032 4.69594 12.4274 6.31713 16.701 6.31713C16.82 6.31713 16.9151 6.41364 16.9151 6.52975V13.7997Z" fill="#FCBF42"/>
</svg>
