<svg width="20" height="20" viewBox="0 0 20 20" fill="none" xmlns="http://www.w3.org/2000/svg">
<path d="M18.125 0H1.875C0.839453 0 0 0.839453 0 1.875V18.125C0 19.1605 0.839453 20 1.875 20H18.125C19.1605 20 20 19.1605 20 18.125V1.875C20 0.839453 19.1605 0 18.125 0ZM18.75 18.125C18.75 18.4702 18.4702 18.75 18.125 18.75H1.875C1.5298 18.75 1.25 18.4702 1.25 18.125V1.875C1.25 1.5298 1.5298 1.25 1.875 1.25H18.125C18.4702 1.25 18.75 1.5298 18.75 1.875V18.125Z" fill="#FCBF42"/>
<path d="M14.4928 11.2173C14.181 10.7613 13.6775 10.7613 13.3657 11.2173L11.5271 13.9221L8.0978 8.87703C7.786 8.42104 7.28249 8.42104 6.97069 8.87703L1.37508 17.1091C1.06602 17.5728 1.07097 18.3174 1.38622 18.7721C1.53286 18.9836 1.72925 19.104 1.93464 19.1083H17.9221C18.3635 19.112 18.7235 18.5886 18.7261 17.9391C18.7274 17.6231 18.6421 17.3198 18.4896 17.0973L14.4928 11.2173Z" fill="#FCBF42"/>
<path d="M11.9387 7.82642C12.9742 7.82642 13.8137 6.98695 13.8137 5.95142C13.8137 4.91588 12.9742 4.07642 11.9387 4.07642C10.9032 4.07642 10.0637 4.91588 10.0637 5.95142C10.0637 6.98695 10.9032 7.82642 11.9387 7.82642Z" fill="#FCBF42"/>
</svg>
