<svg width="19" height="19" viewBox="0 0 19 19" fill="none" xmlns="http://www.w3.org/2000/svg">
<g clip-path="url(#clip0)">
<path d="M13.8258 7.64524C11.9787 5.23454 10.2254 3.60653 10.0689 0.413137C10.0689 0.319213 10.0376 0.256598 9.97501 0.193982C9.9437 0.037443 9.78717 -0.0564804 9.63063 0.037443C9.44278 0.037443 9.28629 0.162674 9.28629 0.381829C5.34151 4.63969 -1.32705 15.4409 7.06344 18.5403C10.8517 19.9492 15.1409 18.0394 15.8922 13.9067C16.2992 11.6839 15.1407 9.33591 13.8258 7.64524ZM7.0947 16.5367C6.18677 16.0044 5.62323 14.94 5.34146 14.0007C5.21623 13.5311 5.15361 13.0615 5.18492 12.5919C5.37277 11.7779 5.62323 10.9952 5.905 10.2125C6.06154 10.9012 6.37462 11.5901 6.81292 12.0909C7.81477 13.1868 9.84978 13.8442 10.4133 15.2218C10.7577 16.067 9.41147 16.7872 8.84793 16.975C8.25308 17.1628 7.59557 16.8498 7.0947 16.5367Z" fill="#FCBF42"/>
</g>
<defs>
<clipPath id="clip0">
<rect width="19" height="19" fill="white"/>
</clipPath>
</defs>
</svg>
