<svg width="20" height="15" viewBox="0 0 20 15" fill="none" xmlns="http://www.w3.org/2000/svg">
<path d="M0.272626 7.62425C1.45575 8.63905 2.79669 9.78933 5.39048 9.78933C7.98435 9.78929 9.32536 8.63905 10.5085 7.62425C11.6274 6.66456 12.5938 5.83569 14.6093 5.83569C16.6249 5.83569 17.5912 6.66456 18.7101 7.62425C19.0376 7.90515 19.5308 7.86741 19.8117 7.53991C20.0926 7.21237 20.0549 6.71917 19.7274 6.43827C18.5442 5.42347 17.2032 4.27319 14.6093 4.27319C12.0154 4.27319 10.6744 5.42343 9.49126 6.43827C8.37235 7.39796 7.40603 8.22683 5.39048 8.22683C3.37497 8.22683 2.40876 7.398 1.28993 6.43827C0.962431 6.15737 0.469227 6.19507 0.18829 6.52261C-0.0926476 6.85011 -0.0548741 7.34335 0.272626 7.62425Z" fill="#FCBF42"/>
<path d="M0.272626 3.35106C1.45571 4.3659 2.79665 5.51613 5.39048 5.51613C7.98435 5.51613 9.32536 4.3659 10.5085 3.35106C11.6274 2.39137 12.5937 1.5625 14.6093 1.5625C16.6248 1.5625 17.5911 2.39133 18.7101 3.35106C19.0376 3.63203 19.5308 3.59418 19.8117 3.26664C20.0926 2.93914 20.0548 2.44586 19.7273 2.165C18.5441 1.15016 17.2031 0 14.6093 0C12.0154 0 10.6744 1.15023 9.49126 2.16508C8.37235 3.12477 7.40603 3.95363 5.39048 3.95363C3.37501 3.95363 2.40876 3.12481 1.28993 2.16508C0.962431 1.88414 0.469188 1.92188 0.18829 2.24941C-0.0926476 2.57692 -0.0548741 3.07016 0.272626 3.35106Z" fill="#FCBF42"/>
<path d="M19.7274 10.7114C18.5442 9.69663 17.2032 8.54636 14.6093 8.54636C12.0154 8.54636 10.6744 9.69659 9.49127 10.7114C8.37236 11.6711 7.40603 12.5 5.39048 12.5C3.37509 12.5 2.4088 11.6712 1.28997 10.7115L1.2899 10.7114C0.962397 10.4306 0.469233 10.4683 0.188295 10.7958C-0.0926034 11.1233 -0.05483 11.6166 0.27267 11.8975C1.4558 12.9123 2.79677 14.0625 5.39048 14.0625C7.98435 14.0625 9.32537 12.9123 10.5085 11.8974C11.6274 10.9377 12.5938 10.1089 14.6093 10.1089C16.6249 10.1089 17.5912 10.9377 18.7101 11.8974C19.0376 12.1783 19.5308 12.1406 19.8117 11.8131C20.0926 11.4855 20.0549 10.9923 19.7274 10.7114Z" fill="#FCBF42"/>
</svg>
