<svg width="16" height="16" viewBox="0 0 16 16" fill="none" xmlns="http://www.w3.org/2000/svg">
<g clip-path="url(#clip0)">
<path d="M15.1626 10.9201L13.5529 9.60125C12.5042 8.7421 10.8763 8.82341 9.91956 9.78008L9.85566 9.84398C9.69524 10.0044 9.43392 10.0031 9.27576 9.84494L6.16564 6.73481C6.00863 6.5778 6.00552 6.32526 6.15682 6.16492C6.15958 6.162 6.16238 6.15913 6.16521 6.15625L6.15667 6.1648C6.1595 6.16197 6.16234 6.15909 6.16518 6.15625C7.11659 5.19571 7.20764 3.56029 6.3742 2.5066L5.06863 0.856027C4.22945 -0.204946 2.77096 -0.286901 1.81437 0.669692L1.57456 0.909501C-0.124538 2.6086 -0.524923 5.671 0.749564 7.70712C0.749564 7.70712 1.49981 9.44704 4.03169 11.9789C6.56357 14.5108 8.30349 15.261 8.30349 15.261C10.3586 16.5045 13.401 16.1362 15.0997 14.4375L15.3281 14.2091C16.2854 13.2518 16.2106 11.7786 15.1626 10.9201ZM14.1715 13.0526L13.9432 13.281C12.7769 14.4472 10.5614 14.7156 9.15011 13.8617L9.05409 13.8036L8.95105 13.7592C8.82455 13.7046 8.50746 13.5327 8.02807 13.2112C7.17666 12.6401 6.22057 11.8549 5.18815 10.8225C4.15574 9.79004 3.37049 8.83395 2.79945 7.98254C2.47791 7.50315 2.30595 7.18606 2.25144 7.05957L2.20207 6.94507L2.13591 6.83938C1.27783 5.46853 1.55448 3.24262 2.73106 2.06604L2.97087 1.82623C3.23678 1.56031 3.55472 1.57841 3.78594 1.87073L5.09151 3.5213C5.41343 3.92828 5.37177 4.63682 5.00024 5.00838C4.2099 5.80796 4.21381 7.09606 5.00918 7.89138L8.1193 11.0015C8.91659 11.7988 10.2135 11.7993 11.0122 11.0006L11.0761 10.9367C11.4388 10.574 12.1185 10.5404 12.5165 10.8665L14.1262 12.1853C14.4267 12.4315 14.4443 12.7799 14.1715 13.0526Z" fill="#E2E2E2"/>
</g>
<defs>
<clipPath id="clip0">
<rect width="16" height="16" fill="white"/>
</clipPath>
</defs>
</svg>
