<svg width="19" height="19" viewBox="0 0 19 19" fill="none" xmlns="http://www.w3.org/2000/svg">
<path d="M17.9039 6.88519H15.7945C15.7515 3.24457 12.7789 0.299255 9.13043 0.299255C5.48199 0.299255 2.50934 3.24457 2.47027 6.88519H0.360899C-0.385195 6.94379 -0.46332 7.58441 -0.424258 7.81488L1.43512 18.7758C1.50152 19.1586 1.83356 19.4399 2.22027 19.4399H16.0406C16.4312 19.4399 16.7632 19.1586 16.8257 18.7758L18.689 7.81488C18.7281 7.58441 18.6343 6.93988 17.9039 6.88519ZM9.13043 1.89301C11.9 1.89301 14.1539 4.12347 14.1968 6.88129H4.06402C4.10699 4.12347 6.3609 1.89301 9.13043 1.89301ZM15.3687 17.8461H2.89606L1.30231 8.47894H16.9586L15.3687 17.8461Z" fill="#191C1E"/>
<path d="M5.80621 11.9672H12.4507C12.8921 11.9672 13.2476 11.6118 13.2476 11.1703C13.2476 10.7289 12.8921 10.3735 12.4507 10.3735H5.80621C5.36481 10.3735 5.00934 10.7289 5.00934 11.1703C5.00934 11.6118 5.36871 11.9672 5.80621 11.9672Z" fill="#191C1E"/>
<path d="M5.80621 15.9516H12.4507C12.8921 15.9516 13.2476 15.5961 13.2476 15.1547C13.2476 14.7133 12.8921 14.3578 12.4507 14.3578H5.80621C5.36481 14.3578 5.00934 14.7133 5.00934 15.1547C5.00934 15.5961 5.36871 15.9516 5.80621 15.9516Z" fill="#191C1E"/>
</svg>
