<svg width="20" height="20" viewBox="0 0 20 20" fill="none" xmlns="http://www.w3.org/2000/svg">
<g clip-path="url(#clip0)">
<path d="M18.6957 3.89555H17.2398C17.4319 3.59164 17.5586 3.25051 17.5947 2.88973C17.7102 1.73672 17.1029 0.703129 16.0691 0.244887C15.1189 -0.176324 14.0511 -0.00413652 13.2821 0.693285L11.4438 2.3593C11.0858 1.96774 10.5712 1.72164 10 1.72164C9.42781 1.72164 8.91234 1.96852 8.55426 2.36129L6.71363 0.69309C5.94344 -0.0043318 4.87602 -0.175855 3.92621 0.245121C2.8927 0.703403 2.28535 1.73735 2.40113 2.89032C2.43734 3.25082 2.56398 3.5918 2.75598 3.89555H1.30434C0.583945 3.89555 0 4.47954 0 5.19989V7.15641C0 7.51657 0.291992 7.8086 0.652187 7.8086H19.3479C19.708 7.8086 20 7.5166 20 7.15641V5.19989C20 4.47954 19.4161 3.89555 18.6957 3.89555ZM8.04348 3.67817V3.89555H4.97539C4.16477 3.89555 3.5268 3.13985 3.72926 2.29586C3.81844 1.92418 4.08672 1.60735 4.43371 1.44696C4.9102 1.22672 5.43801 1.29743 5.8382 1.65965L8.04402 3.65895C8.04391 3.66539 8.04348 3.67172 8.04348 3.67817ZM16.3005 2.71657C16.252 3.39442 15.6396 3.89563 14.9601 3.89563H11.9565V3.67825C11.9565 3.67055 11.9561 3.66293 11.956 3.65524C12.4557 3.20227 13.5397 2.21977 14.1276 1.68684C14.4618 1.38399 14.9293 1.24262 15.3615 1.37153C15.9817 1.55653 16.3459 2.08395 16.3005 2.71657Z" fill="#202527"/>
<path d="M1.30432 9.11293V18.6782C1.30432 19.3986 1.88827 19.9825 2.60866 19.9825H8.69561V9.11293H1.30432Z" fill="#202527"/>
<path d="M11.3043 9.11293V19.9825H17.3913C18.1117 19.9825 18.6956 19.3986 18.6956 18.6782V9.11293H11.3043Z" fill="#202527"/>
</g>
<defs>
<clipPath id="clip0">
<rect width="20" height="20" fill="white"/>
</clipPath>
</defs>
</svg>
