<?xml version="1.0" encoding="utf-8"?>
<!-- Generator: Adobe Illustrator 24.3.0, SVG Export Plug-In . SVG Version: 6.00 Build 0)  -->
<svg version="1.1"
	 id="svg53" xmlns:cc="http://creativecommons.org/ns#" xmlns:dc="http://purl.org/dc/elements/1.1/" xmlns:rdf="http://www.w3.org/1999/02/22-rdf-syntax-ns#" xmlns:svg="http://www.w3.org/2000/svg"
	 xmlns="http://www.w3.org/2000/svg" xmlns:xlink="http://www.w3.org/1999/xlink" x="0px" y="0px" viewBox="0 0 247.5 32.9"
	 style="enable-background:new 0 0 247.5 32.9;" xml:space="preserve">
<style type="text/css">
	.st0{fill:#D2B48C;}
	.st1{fill:#858484;}
</style>
<path id="BLACKDIAMOND" class="st0" d="M45.5,2.3h5.9c1-0.1,2,0.2,2.8,0.8c1,0.9,1.1,2.4,0.2,3.4c-0.1,0.1-0.2,0.2-0.3,0.3
	c-0.5,0.4-1,0.7-1.6,0.8l0,0c0.6,0.1,1.3,0.3,1.8,0.7c0.7,0.6,1.2,1.4,1.1,2.4c0,1-0.4,1.9-1.3,2.4c-0.9,0.5-2,0.8-3.1,0.7h-5.5
	v-0.3H47V2.6h-1.5L45.5,2.3z M48.6,2.6v4.9h2c0.8,0.1,1.6-0.1,2.3-0.6c0.4-0.5,0.6-1.2,0.6-1.8c0.1-0.7-0.2-1.5-0.7-2
	c-0.6-0.4-1.4-0.6-2.1-0.5L48.6,2.6z M48.6,7.9v5.6h2c0.9,0.1,1.8-0.1,2.5-0.7c0.5-0.6,0.7-1.3,0.7-2.1c0.1-0.8-0.2-1.7-0.8-2.3
	c-0.3-0.3-0.7-0.5-1.1-0.5c-0.4,0-0.8-0.1-1.2,0H48.6z M58.9,2.3h4.5v0.3h-1.5v10.9h2c1.2,0.1,2.3-0.3,3.1-1.1
	c0.6-0.8,0.9-1.7,0.9-2.7h0.3l-0.2,4.1h-9.2v-0.3h1.5V2.6h-1.5V2.3z M75.9,2.1h0.3l4.3,11.4h1.5v0.3h-4.6v-0.3h1.5l-1.4-3.9h-4
	l-0.7,2c-0.1,0.3-0.2,0.5-0.2,0.8c0,0.3,0.1,0.6,0.3,0.8c0.2,0.2,0.5,0.3,0.8,0.2v0.3h-3.3v-0.3c0.4,0,0.8-0.2,1.1-0.4
	c0.3-0.4,0.6-0.8,0.8-1.3L75.9,2.1z M73.5,9.3h3.8l-1.8-5.1l0,0L73.5,9.3z M93,5.6h-0.3c-0.1-0.7-0.4-1.5-0.8-2.1
	c-0.5-0.8-1.4-1.2-2.3-1.2c-1.2,0-2.3,0.6-2.8,1.6c-0.5,1.2-0.8,2.5-0.7,3.7c-0.1,1.5,0.2,2.9,0.8,4.3c0.5,1,1.6,1.7,2.7,1.7
	c1.1,0,2.1-0.6,2.7-1.4c0.5-0.6,0.8-1.4,1-2.2h0.3l-0.1,3.7h-0.3c0-0.1,0-0.3-0.1-0.4c-0.1-0.1-0.2-0.2-0.4-0.2
	c-0.3,0.1-0.6,0.2-0.8,0.3C91,13.9,90.3,14,89.5,14c-1.5,0.1-2.9-0.5-3.9-1.6c-0.9-1.2-1.4-2.7-1.4-4.3c-0.1-1.6,0.5-3.2,1.5-4.4
	c0.9-1.1,2.3-1.7,3.7-1.6c0.6,0,1.2,0.1,1.7,0.3c0.2,0.1,0.5,0.2,0.7,0.2c0.4,0,0.5-0.2,0.5-0.6h0.3L93,5.6z M96.8,2.3h4.5v0.3h-1.5
	V9l4.5-5.2c0.2-0.2,0.4-0.5,0.4-0.8c0-0.1-0.1-0.2-0.1-0.3c-0.2-0.1-0.4-0.1-0.6-0.1h-0.6V2.3h3.8v0.3c-0.4,0-0.8,0.1-1.2,0.2
	c-0.5,0.2-1,0.6-1.3,1l-2.2,2.6l4.8,7h1.5v0.3H104v-0.3h1.4l-3.9-5.8l-1.6,1.8v4h1.5v0.3h-4.5v-0.3h1.5V2.6h-1.5L96.8,2.3z
	 M116.4,2.3h5.4c1.2-0.1,2.3,0.2,3.3,0.9c1.5,1.1,2.3,2.9,2.1,4.8c0.1,1.6-0.5,3.2-1.6,4.4c-1.2,1.1-2.7,1.6-4.3,1.5h-4.9v-0.3h1.5
	V2.6h-1.5V2.3z M119.5,13.5h1.9c1.3,0.1,2.5-0.6,3.2-1.7c0.7-1.2,1-2.6,0.9-3.9c0-1.9-0.4-3.2-1.2-4.1c-0.7-0.8-1.7-1.2-2.7-1.1
	h-2.1V13.5z M130.4,2.3h4.5v0.3h-1.5v10.9h1.5v0.3h-4.5v-0.3h1.5V2.6h-1.5V2.3z M143.2,2.1h0.3l4.2,11.4h1.5v0.3h-4.6v-0.3h1.5
	l-1.4-3.9h-4l-0.7,2c-0.1,0.3-0.2,0.5-0.2,0.8c0,0.3,0.1,0.6,0.3,0.8c0.2,0.2,0.5,0.3,0.8,0.2v0.3h-3.3v-0.3c0.4,0,0.8-0.2,1.1-0.5
	c0.3-0.4,0.6-0.8,0.8-1.3L143.2,2.1z M140.8,9.3h3.8l-1.8-5.1l0,0L140.8,9.3z M151.9,2.3h3.5l3,9.1l0,0l2.9-9.1h3.4v0.3h-1.5v10.9
	h1.5v0.3H160v-0.3h1.5V2.6l0,0L157.9,14h-0.3l-3.8-11.4l0,0v9.3c0,0.4,0.1,0.8,0.3,1.1c0.3,0.3,0.6,0.5,1,0.4h0.2v0.3h-3.5v-0.3h0.2
	c0.4,0,0.8-0.1,1-0.4c0.2-0.3,0.3-0.7,0.3-1.1V2.6h-1.5L151.9,2.3z M172.8,2.1c1.4,0,2.7,0.6,3.6,1.6c1,1.2,1.5,2.8,1.5,4.3
	c0.1,1.6-0.5,3.1-1.5,4.3c-1.7,2-4.7,2.2-6.7,0.5c-0.2-0.2-0.4-0.3-0.5-0.5c-1-1.2-1.5-2.8-1.5-4.3c-0.1-1.6,0.5-3.1,1.5-4.3
	C170.1,2.6,171.4,2,172.8,2.1z M172.8,13.7c1.2,0,2.3-0.7,2.8-1.8c0.5-1.3,0.7-2.6,0.6-3.9c0.1-1.3-0.1-2.7-0.6-3.9
	c-0.7-1.5-2.5-2.2-4.1-1.5c-0.6,0.3-1.2,0.8-1.5,1.5c-0.5,1.3-0.7,2.6-0.6,3.9c-0.1,1.3,0.1,2.7,0.6,3.9
	C170.5,13.1,171.6,13.8,172.8,13.7z M181.1,2.3h3.5l5.8,8.8V4.1c0-0.4-0.1-0.8-0.3-1.1c-0.3-0.3-0.6-0.4-1-0.4h-0.3V2.3h3.7v0.3
	h-0.3c-0.4,0-0.8,0.1-1,0.4c-0.2,0.3-0.3,0.7-0.2,1.1V14h-0.3l-7.4-11.3v9.2c0,0.4,0.1,0.8,0.3,1.1c0.2,0.3,0.6,0.5,1,0.4h0.3v0.3
	h-3.7v-0.3h0.3c0.4,0,0.8-0.1,1-0.4c0.2-0.3,0.3-0.7,0.3-1.1V2.6h-1.6V2.3z M196,2.3h5.4c1.2-0.1,2.3,0.2,3.3,0.9
	c1.5,1.1,2.3,2.9,2.1,4.8c0.1,1.6-0.5,3.2-1.6,4.4c-1.2,1.1-2.7,1.6-4.3,1.5H196v-0.3h1.5V2.6H196V2.3z M199,13.5h1.9
	c1.3,0.1,2.5-0.6,3.2-1.7c0.7-1.2,1-2.6,0.9-3.9c0-1.9-0.4-3.2-1.2-4.1c-0.7-0.8-1.7-1.2-2.7-1.1H199V13.5z"/>
<path id="path9" class="st0" d="M30.1,2.2H11.5L3.3,8.5l17.5,22.2L38.3,8.5L30.1,2.2z M29.6,3.5l5.9,4.5h-6.7l-2.7-4.5H29.6z
	 M24.6,3.5l2.7,4.5h-13L17,3.5L24.6,3.5z M12,3.5h3.5l-2.7,4.5H6.1L12,3.5z M5.5,9.2h7.2l6.2,16.9L5.5,9.2z M14,9.2h13.5l-6.8,18.6
	L14,9.2z M28.9,9.2h7.2L22.7,26.1L28.9,9.2z"/>
<path id="path11" class="st1" d="M46.8,26c0-0.8,0.2-1.5,0.7-2.1c0.9-1,2.3-1.1,3.3-0.2c0.1,0.1,0.1,0.1,0.2,0.2
	c0.5,0.6,0.7,1.3,0.7,2.1v0.6c0,0.8-0.2,1.5-0.6,2.1c-0.9,1-2.3,1-3.3,0.2c-0.1-0.1-0.1-0.1-0.2-0.2c-0.5-0.6-0.7-1.3-0.7-2.1V26z
	 M47.8,26.6c0,0.5,0.1,1.1,0.4,1.5c0.2,0.3,0.6,0.5,1,0.5c0.9,0,1.4-0.6,1.4-2V26c0-0.5-0.1-1.1-0.4-1.5c-0.4-0.6-1.1-0.7-1.7-0.4
	c-0.1,0.1-0.3,0.2-0.4,0.4c-0.3,0.5-0.4,1-0.3,1.5L47.8,26.6z"/>
<path id="path13" class="st1" d="M57.5,29.4V24h-0.8v-0.8h0.8v-0.7c0-0.5,0.1-1.1,0.5-1.5c0.3-0.4,0.8-0.6,1.3-0.5
	c0.2,0,0.4,0,0.6,0.1l-0.1,0.9c-0.2,0-0.3-0.1-0.5,0c-0.6,0-0.9,0.4-0.9,1.2v0.6h1.1V24h-1.1v5.4L57.5,29.4z"/>
<path id="path15" class="st1" d="M65.3,29.4V24h-0.8v-0.8h0.8v-0.7c0-0.5,0.2-1.1,0.5-1.5c0.3-0.4,0.8-0.6,1.3-0.5
	c0.2,0,0.4,0,0.6,0.1l0,0.9c-0.2,0-0.3-0.1-0.5,0c-0.6,0-0.9,0.4-0.9,1.2v0.6h1.1V24h-1.1v5.4L65.3,29.4z"/>
<path id="path17" class="st1" d="M73.9,21.5c0,0.2,0,0.3-0.1,0.4c-0.1,0.1-0.3,0.2-0.4,0.2c-0.2,0-0.3,0-0.4-0.2
	c-0.1-0.1-0.1-0.3-0.1-0.4c0-0.2,0-0.3,0.1-0.4c0.1-0.1,0.3-0.2,0.4-0.2c0.2,0,0.3,0.1,0.4,0.2C73.9,21.2,73.9,21.4,73.9,21.5z
	 M73.8,29.4h-1v-6.2h1V29.4z"/>
<path id="path19" class="st1" d="M81.7,28.6c0.3,0,0.6-0.1,0.8-0.3c0.2-0.2,0.3-0.6,0.3-0.9h1c0,0.6-0.2,1.1-0.6,1.5
	c-0.4,0.4-0.9,0.6-1.5,0.6c-0.7,0-1.3-0.2-1.8-0.7c-0.4-0.6-0.7-1.4-0.6-2.2v-0.7c-0.1-0.8,0.2-1.5,0.6-2.1c0.4-0.5,1.1-0.7,1.7-0.7
	c0.6,0,1.1,0.2,1.5,0.6c0.4,0.5,0.6,1,0.6,1.6h-1c0-0.4-0.1-0.7-0.3-1c-0.2-0.2-0.5-0.4-0.8-0.4c-0.4,0-0.7,0.2-1,0.5
	c-0.3,0.4-0.4,0.9-0.4,1.4v0.8c0,0.5,0.1,1.1,0.3,1.5C80.9,28.5,81.3,28.7,81.7,28.6z"/>
<path id="path21" class="st1" d="M90.3,21.5c0,0.2,0,0.3-0.1,0.4c-0.1,0.1-0.3,0.2-0.4,0.2c-0.2,0-0.3,0-0.4-0.2
	c-0.1-0.1-0.1-0.3-0.1-0.4c0-0.1,0-0.3,0.1-0.4c0.1-0.1,0.3-0.2,0.4-0.2c0.2,0,0.3,0,0.5,0.2C90.2,21.2,90.3,21.4,90.3,21.5z
	 M90.2,29.4h-1v-6.2h1L90.2,29.4z"/>
<path id="path23" class="st1" d="M99.1,29.4C99,29.2,99,28.9,99,28.7c-0.3,0.5-0.8,0.8-1.4,0.8c-0.5,0-1-0.1-1.3-0.5
	c-0.3-0.4-0.5-0.8-0.5-1.3c0-0.6,0.2-1.1,0.6-1.5c0.5-0.4,1.1-0.6,1.8-0.6H99v-0.7c0.1-0.5-0.3-0.9-0.7-1c-0.1,0-0.2,0-0.2,0
	c-0.3,0-0.5,0.1-0.7,0.3c-0.2,0.2-0.3,0.4-0.3,0.7h-1c0-0.3,0.1-0.6,0.3-0.9c0.2-0.3,0.4-0.5,0.8-0.7c0.3-0.2,0.6-0.2,1-0.3
	c0.5,0,1.1,0.1,1.5,0.5c0.3,0.4,0.5,0.9,0.5,1.4v3.1c0,0.4,0.1,0.8,0.2,1.3v0.1L99.1,29.4z M97.8,28.6c0.3,0,0.5-0.1,0.7-0.2
	c0.2-0.1,0.4-0.3,0.5-0.5v-1.5h-0.6c-0.4,0-0.8,0.1-1.1,0.3c-0.3,0.2-0.4,0.5-0.4,0.9c0,0.3,0.1,0.5,0.2,0.8
	C97.2,28.5,97.5,28.6,97.8,28.6z"/>
<path id="path25" class="st1" d="M106.8,29.4h-1v-8.8h1V29.4z"/>
<path id="path27" class="st1" d="M123.8,26.6c0.1,0.8-0.1,1.5-0.5,2.2c-0.3,0.5-0.9,0.8-1.5,0.7c-0.6,0-1.1-0.2-1.5-0.7v2.9h-1v-8.6
	h0.9v0.7c0.3-0.5,0.9-0.8,1.5-0.8c0.6,0,1.2,0.2,1.5,0.7c0.4,0.6,0.6,1.4,0.5,2.1L123.8,26.6z M122.8,26c0-0.5-0.1-1.1-0.3-1.5
	c-0.2-0.3-0.6-0.5-1-0.5c-0.5,0-0.9,0.3-1.1,0.7v3.2c0.2,0.4,0.6,0.7,1.1,0.7c0.4,0,0.8-0.2,1-0.5c0.2-0.5,0.4-1,0.3-1.5L122.8,26z"
	/>
<path id="path29" class="st1" d="M131.8,24.1c-0.2,0-0.3,0-0.5,0c-0.5,0-1,0.3-1.1,0.9v4.5h-1v-6.3h1v0.6c0.2-0.5,0.7-0.7,1.2-0.7
	c0.1,0,0.3,0,0.4,0.1L131.8,24.1z"/>
<path id="path31" class="st1" d="M139,29.5c-0.7,0-1.3-0.2-1.8-0.7c-0.4-0.6-0.7-1.3-0.6-2V26c0-0.8,0.2-1.5,0.6-2.2
	c0.4-0.5,1-0.8,1.7-0.8c0.6,0,1.2,0.2,1.6,0.7c0.4,0.6,0.6,1.4,0.5,2.2v0.7h-3.5v0.1c0,0.5,0.1,1,0.4,1.5c0.3,0.3,0.7,0.5,1.1,0.5
	c0.3,0,0.5-0.1,0.8-0.2c0.2-0.1,0.5-0.3,0.6-0.5l0.5,0.6C140.6,29.2,139.8,29.6,139,29.5z M138.9,23.9c-0.4,0-0.7,0.1-0.9,0.4
	c-0.2,0.4-0.4,0.9-0.3,1.3h2.4v-0.1c0-0.4-0.1-0.9-0.3-1.3C139.6,24,139.2,23.9,138.9,23.9L138.9,23.9z"/>
<path id="path33" class="st1" d="M147.4,23.2v0.6c0.4-0.5,0.9-0.7,1.5-0.7c0.6,0,1.2,0.3,1.5,0.9c0.3-0.6,1-0.9,1.6-0.9
	c1.1,0,1.7,0.7,1.8,2.1v4.2h-1v-4.1c0-0.3-0.1-0.7-0.2-1c-0.2-0.2-0.5-0.4-0.8-0.3c-0.3,0-0.6,0.1-0.7,0.4c-0.2,0.3-0.3,0.6-0.3,0.9
	v4.2h-1v-4.2c0-0.9-0.4-1.3-1-1.3c-0.5,0-0.9,0.3-1.1,0.8v4.7h-1v-6.2H147.4z"/>
<path id="path35" class="st1" d="M160.6,21.5c0,0.2,0,0.3-0.1,0.4c-0.1,0.1-0.3,0.2-0.4,0.2c-0.2,0-0.3,0-0.4-0.2
	c-0.1-0.1-0.1-0.3-0.1-0.4c0-0.2,0-0.3,0.1-0.4c0.1-0.1,0.3-0.2,0.4-0.2c0.2,0,0.3,0.1,0.4,0.2C160.5,21.2,160.6,21.4,160.6,21.5z
	 M160.5,29.4h-1v-6.2h1V29.4z"/>
<path id="path37" class="st1" d="M169.4,28.8c-0.4,0.4-0.9,0.7-1.5,0.7c-0.5,0-1-0.2-1.3-0.6c-0.3-0.5-0.5-1.1-0.4-1.7v-4.1h1v4
	c0,1,0.3,1.5,0.9,1.5c0.6,0,1.1-0.3,1.3-0.8v-4.6h1v6.2h-1L169.4,28.8z"/>
<path id="path39" class="st1" d="M177,23.2v0.6c0.4-0.5,0.9-0.7,1.5-0.7c0.6,0,1.2,0.3,1.5,0.9c0.3-0.6,1-0.9,1.6-0.9
	c1.1,0,1.7,0.7,1.8,2.1v4.2h-1v-4.1c0-0.3-0.1-0.7-0.2-1c-0.2-0.2-0.5-0.4-0.8-0.3c-0.3,0-0.6,0.1-0.7,0.4c-0.2,0.3-0.3,0.6-0.3,0.9
	v4.2h-1v-4.2c0-0.9-0.4-1.3-1-1.3c-0.5,0-0.9,0.3-1.1,0.8v4.7h-1v-6.2H177z"/>
<path id="path41" class="st1" d="M200.3,26.6c0.1,0.8-0.1,1.5-0.5,2.2c-0.3,0.5-0.9,0.8-1.5,0.7c-0.6,0-1.2-0.3-1.5-0.9v0.7h-1v-8.8
	h1v3.3c0.3-0.5,0.8-0.8,1.4-0.8c0.6,0,1.2,0.2,1.5,0.7c0.4,0.7,0.6,1.4,0.5,2.2L200.3,26.6z M199.3,26c0-0.5-0.1-1.1-0.3-1.6
	c-0.2-0.3-0.6-0.5-1-0.5c-0.5,0-1,0.3-1.2,0.9v2.9c0.2,0.5,0.6,0.8,1.2,0.8c0.4,0,0.8-0.2,1-0.5c0.2-0.5,0.3-1,0.3-1.5L199.3,26z"/>
<path id="path43" class="st1" d="M208.3,24.1c-0.2,0-0.3,0-0.5,0c-0.5,0-1,0.3-1.1,0.9v4.5h-1v-6.3h1v0.6c0.2-0.5,0.7-0.7,1.2-0.7
	c0.1,0,0.3,0,0.4,0.1V24.1z"/>
<path id="path45" class="st1" d="M216.5,29.4c-0.1-0.2-0.1-0.4-0.1-0.7c-0.3,0.5-0.8,0.8-1.4,0.8c-0.5,0-1-0.1-1.3-0.5
	c-0.3-0.4-0.5-0.8-0.5-1.3c0-0.6,0.2-1.1,0.6-1.5c0.5-0.4,1.1-0.6,1.8-0.6h0.7v-0.7c0-0.3-0.1-0.6-0.3-0.8c-0.4-0.3-1.1-0.3-1.5,0
	c-0.2,0.2-0.3,0.4-0.3,0.7h-1c0-0.3,0.1-0.6,0.3-0.9c0.2-0.3,0.5-0.5,0.8-0.7c0.3-0.2,0.7-0.3,1.1-0.3c0.5,0,1.1,0.1,1.5,0.5
	c0.4,0.4,0.5,0.9,0.5,1.4V28c0,0.4,0.1,0.9,0.2,1.3v0.1L216.5,29.4z M215.1,28.6c0.2,0,0.5-0.1,0.7-0.2c0.2-0.1,0.4-0.3,0.5-0.5
	v-1.5h-0.6c-0.4,0-0.8,0.1-1.1,0.3c-0.3,0.2-0.4,0.5-0.4,0.9c0,0.3,0,0.5,0.2,0.8C214.6,28.5,214.9,28.6,215.1,28.6z"/>
<path id="path47" class="st1" d="M224,23.2v0.7c0.3-0.5,0.9-0.8,1.5-0.8c1.1,0,1.7,0.7,1.7,2.2v4.1h-1v-4.1c0-0.4-0.1-0.7-0.2-1
	c-0.2-0.2-0.5-0.3-0.7-0.3c-0.2,0-0.5,0.1-0.7,0.3c-0.2,0.2-0.4,0.4-0.5,0.7v4.5h-1v-6.2H224z"/>
<path id="path49" class="st1" d="M232.6,26c0-0.8,0.1-1.5,0.5-2.2c0.4-0.5,0.9-0.8,1.5-0.8c0.6,0,1.1,0.3,1.4,0.7v-3.3h1v8.8h-1
	v-0.7c-0.3,0.5-0.8,0.8-1.4,0.8c-0.6,0-1.2-0.3-1.5-0.8c-0.4-0.6-0.6-1.4-0.6-2.1L232.6,26z M233.6,26.6c0,0.5,0.1,1.1,0.3,1.5
	c0.2,0.3,0.6,0.5,1,0.5c0.5,0,0.9-0.3,1.1-0.8v-3.1c-0.2-0.5-0.6-0.7-1.1-0.7c-0.4,0-0.8,0.2-1,0.5c-0.2,0.5-0.3,1-0.3,1.5V26.6z"/>
<g>
	<path class="st0" d="M217.4,2.3l3.9,10c0.2,0.4,0.3,0.7,0.5,0.8c0.2,0.1,0.4,0.2,0.6,0.2v0.3c-0.2,0-0.5,0-0.8,0
		c-0.3,0-0.6,0-0.9,0c-0.4,0-0.8,0-1.2,0c-0.4,0-0.6,0-0.9,0v-0.3c0.5,0,0.9-0.1,1-0.3c0.1-0.2,0.1-0.5-0.1-1.1l-2.9-7.9l0.3-0.2
		l-2.8,7.2c-0.2,0.6-0.3,1-0.3,1.3c0,0.3,0.1,0.6,0.4,0.7c0.2,0.1,0.6,0.2,1,0.2v0.3c-0.3,0-0.6,0-0.9,0c-0.3,0-0.6,0-0.9,0
		c-0.3,0-0.5,0-0.7,0c-0.2,0-0.4,0-0.5,0v-0.3c0.2-0.1,0.4-0.2,0.7-0.4c0.2-0.2,0.4-0.5,0.6-1l3.7-9.6c0,0,0.1,0,0.1,0
		C217.4,2.3,217.4,2.3,217.4,2.3z M219.4,9.1v0.3h-4.7l0.2-0.3H219.4z"/>
	<path class="st0" d="M222.7,2.4c0.2,0,0.5,0,0.9,0c0.4,0,0.7,0,1.1,0c0.5,0,1,0,1.4,0c0.5,0,0.8,0,1,0c1.3,0,2.2,0.3,2.9,0.8
		c0.6,0.5,1,1.2,1,2c0,0.3-0.1,0.7-0.2,1c-0.1,0.4-0.3,0.7-0.7,1c-0.3,0.3-0.7,0.6-1.3,0.8c-0.5,0.2-1.2,0.3-2,0.3h-1.5V8h1.4
		c0.7,0,1.3-0.1,1.7-0.4c0.4-0.2,0.7-0.6,0.8-1c0.1-0.4,0.2-0.8,0.2-1.3c0-0.8-0.2-1.5-0.6-1.9c-0.4-0.5-1.1-0.7-2-0.7
		c-0.5,0-0.8,0.1-1,0.3c-0.1,0.2-0.2,0.5-0.2,1.1V12c0,0.4,0,0.7,0.1,0.9c0.1,0.2,0.2,0.3,0.4,0.4c0.2,0.1,0.5,0.1,0.8,0.1v0.3
		c-0.2,0-0.5,0-0.9,0c-0.4,0-0.7,0-1.1,0c-0.4,0-0.8,0-1.2,0c-0.4,0-0.7,0-0.9,0v-0.3c0.4,0,0.6-0.1,0.8-0.1
		c0.2-0.1,0.3-0.2,0.4-0.4c0.1-0.2,0.1-0.5,0.1-0.9V4.1c0-0.4,0-0.7-0.1-0.9c-0.1-0.2-0.2-0.3-0.4-0.4c-0.2-0.1-0.5-0.1-0.8-0.1V2.4
		z M225.2,8.1c0.6,0,1,0,1.3,0.1c0.3,0,0.6,0.1,0.8,0.1s0.4,0,0.6,0.1c0.7,0.1,1.2,0.3,1.5,0.6c0.3,0.3,0.5,0.8,0.7,1.5l0.4,1.6
		c0.1,0.5,0.2,0.8,0.3,1c0.1,0.2,0.3,0.3,0.5,0.3c0.2,0,0.3-0.1,0.5-0.2c0.1-0.1,0.3-0.2,0.4-0.4l0.2,0.2c-0.2,0.3-0.5,0.6-0.7,0.8
		c-0.2,0.2-0.6,0.3-1,0.3c-0.4,0-0.7-0.1-1-0.3c-0.3-0.2-0.5-0.7-0.7-1.4l-0.3-1.6c-0.1-0.5-0.2-0.8-0.3-1.2
		c-0.1-0.3-0.3-0.6-0.5-0.8s-0.5-0.3-1-0.3h-1.7L225.2,8.1z"/>
	<path class="st0" d="M241.5,2.4c0,0.4-0.1,0.8-0.1,1.2c0,0.4,0,0.7,0,0.9c0,0.3,0,0.5,0,0.7s0,0.4,0,0.6h-0.4
		C241,5,240.9,4.4,240.8,4c-0.1-0.4-0.3-0.7-0.7-0.9c-0.3-0.2-0.8-0.3-1.5-0.3h-0.9v9c0,0.4,0,0.7,0.1,1c0.1,0.2,0.2,0.4,0.5,0.4
		c0.2,0.1,0.6,0.1,1,0.1v0.3c-0.3,0-0.6,0-1,0c-0.4,0-0.9,0-1.3,0c-0.5,0-0.9,0-1.3,0c-0.4,0-0.8,0-1,0v-0.3c0.4,0,0.8-0.1,1-0.1
		c0.2-0.1,0.4-0.2,0.5-0.4c0.1-0.2,0.1-0.5,0.1-1v-9h-0.9c-0.7,0-1.1,0.1-1.5,0.3s-0.5,0.5-0.7,0.9c-0.1,0.4-0.2,1-0.3,1.8h-0.4
		c0-0.2,0-0.4,0-0.6c0-0.2,0-0.5,0-0.7c0-0.2,0-0.5,0-0.9c0-0.4,0-0.8-0.1-1.2c0.4,0,0.9,0,1.5,0c0.5,0,1,0,1.6,0c0.5,0,1,0,1.4,0
		c0.4,0,0.9,0,1.4,0c0.5,0,1,0,1.6,0C240.6,2.4,241.1,2.4,241.5,2.4z"/>
</g>
</svg>
