<svg width="43" height="43" viewBox="0 0 43 43" fill="none" xmlns="http://www.w3.org/2000/svg">
<g clip-path="url(#clip0)">
<path d="M35.8234 23.8461L29.4029 13.7811C30.3126 13.3031 30.9349 12.3491 30.9349 11.252C30.9349 10.0512 30.1895 9.02186 29.1374 8.60048L31.0824 1.80036C31.1663 1.50699 31.0845 1.19127 30.8688 0.9755C29.575 -0.318273 27.4698 -0.318273 26.176 0.9755C25.8665 1.285 25.455 1.45542 25.0174 1.45542C24.5797 1.45542 24.1682 1.285 23.8568 0.973485L23.8527 0.969369C22.5634 -0.320037 20.4619 -0.323649 19.1675 0.961726L19.1434 0.985747C18.5045 1.62012 17.4668 1.61827 16.8302 0.981632L16.8241 0.9755C15.5302 -0.318273 13.4251 -0.318273 12.1313 0.9755C11.9154 1.19144 11.8337 1.50741 11.9178 1.80095L13.867 8.59889C12.8126 9.01917 12.0652 10.0496 12.0652 11.2521C12.0652 12.3492 12.6874 13.3031 13.5971 13.7812L7.17656 23.8461C4.69266 27.7398 4.53526 32.4824 6.75552 36.5323C8.97578 40.5822 13.0587 43 17.6773 43H25.3226C29.9412 43 34.024 40.5822 36.2444 36.5323C38.4647 32.4824 38.3073 27.7398 35.8234 23.8461ZM15.6362 2.16328L15.6424 2.16941C16.9318 3.45873 19.0332 3.46226 20.3275 2.17705L20.3517 2.15303C20.9905 1.51866 22.0282 1.52051 22.6667 2.15908L22.6709 2.1632C23.9647 3.45697 26.0698 3.45697 27.3637 2.1632C27.8901 1.63675 28.6886 1.54411 29.3108 1.88527L27.4486 8.39639H15.5565L13.6894 1.88519C14.3116 1.54411 15.1099 1.63692 15.6362 2.16328ZM34.7715 35.7248C32.8506 39.2285 29.3184 41.3203 25.3227 41.3203H17.6774C13.6817 41.3203 10.1495 39.2286 8.22861 35.7248C6.30777 32.2211 6.44392 28.1182 8.59279 24.7495L15.3812 14.1077H17.7205C18.1844 14.1077 18.5604 13.7317 18.5604 13.2678C18.5604 12.8039 18.1844 12.4279 17.7205 12.4279H14.9208C14.2724 12.4279 13.745 11.9004 13.745 11.252C13.745 10.6036 14.2724 10.0762 14.9208 10.0762H14.9236H28.0792C28.7276 10.0762 29.255 10.6036 29.255 11.252C29.255 11.9004 28.7276 12.4279 28.0792 12.4279H25.2796C24.8157 12.4279 24.4397 12.8039 24.4397 13.2678C24.4397 13.7317 24.8157 14.1077 25.2796 14.1077H27.6188L34.4073 24.7495C36.5562 28.1181 36.6923 32.221 34.7715 35.7248Z" fill="#FCBF42"/>
<path d="M22.9808 27.4295C22.77 27.355 22.5549 27.2775 22.3399 27.197V23.3904C22.9094 23.5579 23.2897 23.8297 23.3058 23.8414C23.6753 24.1182 24.1995 24.0447 24.4786 23.6763C24.7587 23.3066 24.6861 22.7798 24.3164 22.4996C24.2671 22.4622 23.4861 21.8825 22.3399 21.6631V20.8272C22.3399 20.3633 21.9639 19.9873 21.5 19.9873C21.0362 19.9873 20.6601 20.3633 20.6601 20.8272V21.657C20.5179 21.6843 20.3737 21.7188 20.2275 21.7628C19.0455 22.1179 18.1619 23.1288 17.9216 24.4009C17.7023 25.5625 18.0745 26.6829 18.8928 27.3247C19.337 27.673 19.8919 27.9911 20.6601 28.3289V33.1999C19.9987 33.1581 19.5563 33.0076 18.8187 32.5251C18.4306 32.271 17.9099 32.3799 17.656 32.7681C17.402 33.1563 17.5109 33.6768 17.8991 33.9308C18.9746 34.6344 19.7029 34.8337 20.6601 34.8808V35.7493C20.6601 36.2132 21.0362 36.5892 21.5 36.5892C21.9639 36.5892 22.3399 36.2132 22.3399 35.7493V34.7935C24.1385 34.3996 25.1904 32.8988 25.4264 31.4949C25.7349 29.6594 24.775 28.0636 22.9808 27.4295ZM19.9295 26.0029C19.6067 25.7496 19.4698 25.2552 19.5722 24.7126C19.6665 24.2135 20.0023 23.6117 20.6601 23.389V26.465C20.384 26.3178 20.1348 26.1639 19.9295 26.0029ZM23.7698 31.2163C23.6488 31.9356 23.1633 32.6986 22.3399 33.0357V28.9842C22.3672 28.9939 22.3932 29.0034 22.4209 29.0132C23.9267 29.5455 23.8341 30.834 23.7698 31.2163Z" fill="#FCBF42"/>
<path d="M21.5 14.1075C21.7209 14.1075 21.9376 14.0177 22.0939 13.8614C22.2501 13.7052 22.3399 13.4885 22.3399 13.2676C22.3399 13.0467 22.2501 12.83 22.0939 12.6738C21.9376 12.5176 21.7209 12.4277 21.5 12.4277C21.2792 12.4277 21.0625 12.5176 20.9062 12.6738C20.75 12.83 20.6602 13.0467 20.6602 13.2676C20.6602 13.4885 20.75 13.7052 20.9062 13.8614C21.0625 14.0177 21.2791 14.1075 21.5 14.1075Z" fill="#FCBF42"/>
</g>
<defs>
<clipPath id="clip0">
<rect width="43" height="43" fill="white"/>
</clipPath>
</defs>
</svg>
