<svg width="44" height="44" viewBox="0 0 44 44" fill="none" xmlns="http://www.w3.org/2000/svg">
<path d="M11.0892 0C10.6146 0 10.2297 0.384914 10.2297 0.859461C10.2297 1.33409 10.6146 1.71892 11.0892 1.71892C15.9441 1.71892 19.8938 5.77113 19.8938 10.7522C19.8938 11.2269 20.2787 11.6117 20.7532 11.6117C21.2278 11.6117 21.6127 11.2268 21.6127 10.7522C21.6128 4.82341 16.8919 0 11.0892 0Z" fill="#FCBF42"/>
<path d="M11.0864 4.07764C10.6117 4.07764 10.2269 4.46255 10.2269 4.9371C10.2269 5.41173 10.6117 5.79656 11.0864 5.79656C13.7448 5.79656 15.9076 8.01967 15.9076 10.7522C15.9076 11.2269 16.2925 11.6117 16.7671 11.6117C17.2417 11.6117 17.6265 11.2268 17.6265 10.7522C17.6266 7.07187 14.6926 4.07764 11.0864 4.07764Z" fill="#FCBF42"/>
<path d="M11.1031 7.83398C10.6283 7.83398 10.2436 8.21873 10.2436 8.69345C10.2436 9.16808 10.6285 9.55291 11.1031 9.55291C11.7241 9.55291 12.2293 10.0792 12.2293 10.7261C12.2293 11.2008 12.6141 11.5856 13.0887 11.5856C13.5634 11.5856 13.9482 11.2007 13.9482 10.7261C13.9483 9.13138 12.6718 7.83398 11.1031 7.83398Z" fill="#FCBF42"/>
<path d="M39.4014 6.81152H37.4963C37.0216 6.81152 36.6368 7.19635 36.6368 7.67098C36.6368 8.14562 37.0216 8.53045 37.4963 8.53045H39.4014C40.989 8.53045 42.2807 9.82209 42.2807 11.4097V23.0765C42.2807 23.9906 41.8519 24.8059 41.1856 25.3337V23.0861C41.1856 21.3326 39.9345 19.8266 38.2107 19.5051L37.6552 19.4015C37.7791 19.0217 37.8469 18.6169 37.8469 18.1963V16.2212C37.8469 14.0738 36.0998 12.3266 33.9523 12.3266C31.8048 12.3266 30.0578 14.0738 30.0578 16.2212V18.1963C30.0578 18.6169 30.1257 19.0217 30.2495 19.4015L29.6939 19.5051C27.9701 19.8265 26.719 21.3326 26.719 23.0861V25.5777C25.8504 25.0814 25.2631 24.1465 25.2631 23.0765V11.4097C25.2631 9.82209 26.5548 8.53045 28.1424 8.53045H30.1908C30.6654 8.53045 31.0503 8.14562 31.0503 7.67098C31.0503 7.19635 30.6653 6.81152 30.1908 6.81152H28.1424C25.607 6.81152 23.5442 8.87428 23.5442 11.4097V23.0765C23.5442 25.6119 25.607 27.6747 28.1424 27.6747H32.4673V30.1458C32.4673 30.4929 32.6761 30.806 32.9966 30.9392C33.1033 30.9837 33.2154 31.0052 33.3266 31.0052C33.5493 31.0052 33.7684 30.9186 33.9326 30.7555L37.0329 27.6747H39.4014C41.9368 27.6747 43.9996 25.6119 43.9996 23.0765V11.4097C43.9996 8.87428 41.9368 6.81152 39.4014 6.81152ZM31.7766 16.2212C31.7766 15.0216 32.7525 14.0456 33.9522 14.0456C35.1519 14.0456 36.1279 15.0216 36.1279 16.2212V18.1963C36.1279 19.396 35.1519 20.3719 33.9522 20.3719C32.7525 20.3719 31.7766 19.396 31.7766 18.1963V16.2212ZM39.4665 25.9539C39.4447 25.9544 39.4231 25.9556 39.4012 25.9556H36.6785V25.9557C36.4514 25.9557 36.2337 26.0455 36.0726 26.2055L34.1862 28.0801V26.8151C34.1862 26.3405 33.8013 25.9556 33.3267 25.9556H28.438V23.086C28.438 22.16 29.0988 21.3646 30.009 21.1948L31.2207 20.9689C31.9242 21.6621 32.8889 22.0908 33.9523 22.0908C35.0156 22.0908 35.9805 21.662 36.684 20.9688L37.8957 21.1947C38.806 21.3645 39.4667 22.1599 39.4667 23.086V25.9539H39.4665Z" fill="#FCBF42"/>
<path d="M34.0356 7.06381C33.8759 6.90311 33.6541 6.81201 33.4281 6.81201C33.202 6.81201 32.9802 6.90311 32.8204 7.06381C32.6606 7.22288 32.5686 7.44468 32.5686 7.67147C32.5686 7.89749 32.6605 8.11929 32.8204 8.27914C32.9802 8.4389 33.202 8.53093 33.4281 8.53093C33.6541 8.53093 33.8759 8.43898 34.0356 8.27914C34.1955 8.11843 34.2875 7.89757 34.2875 7.67147C34.2875 7.4446 34.1956 7.22365 34.0356 7.06381Z" fill="#FCBF42"/>
<path d="M15.9739 28.9129C15.8141 28.7531 15.5932 28.6611 15.3662 28.6611C15.1402 28.6611 14.9184 28.7531 14.7587 28.9129C14.5988 29.0728 14.5068 29.2945 14.5068 29.5206C14.5068 29.7475 14.5987 29.9684 14.7587 30.1283C14.9193 30.289 15.1402 30.3808 15.3662 30.3808C15.5923 30.3808 15.8141 30.289 15.9739 30.1283C16.1346 29.9684 16.2257 29.7474 16.2257 29.5206C16.2257 29.2946 16.1346 29.0729 15.9739 28.9129Z" fill="#FCBF42"/>
<path d="M34.7861 36.6843L28.2016 30.0996C27.325 29.2231 25.9461 29.0949 24.9231 29.7945L20.7206 32.6681C20.3795 32.9012 19.92 32.8585 19.6278 32.5662L18.2381 31.1764C17.9026 30.841 17.3585 30.8409 17.0225 31.1764C16.6869 31.512 16.6869 32.0562 17.0225 32.392L18.4122 33.7818C19.2888 34.6583 20.6675 34.7868 21.6907 34.087L25.8932 31.2135C26.2341 30.9803 26.6937 31.023 26.986 31.3152L33.5706 37.8998C33.9057 38.2348 33.9056 38.7802 33.5705 39.1154C29.3483 43.3377 22.478 43.3377 18.2557 39.1154L4.88537 25.7449C2.83988 23.6995 1.71359 20.9801 1.71359 18.0875C1.71359 15.1948 2.83997 12.4753 4.88546 10.4298C5.04779 10.2675 5.26358 10.1782 5.49312 10.1782C5.72274 10.1782 5.93862 10.2676 6.10087 10.4299L12.6854 17.0145C12.9775 17.3066 13.0203 17.7663 12.7872 18.1073L9.91383 22.3098C9.21404 23.3329 9.34243 24.7117 10.2189 25.5884L12.3079 27.6773C12.6435 28.0128 13.1876 28.0128 13.5235 27.6773C13.859 27.3417 13.859 26.7975 13.5235 26.4617L11.4345 24.3728C11.1424 24.0807 11.0996 23.6211 11.3327 23.2801L14.2062 19.0776C14.9059 18.0544 14.7775 16.6755 13.901 15.799L7.31646 9.21442C6.31116 8.20913 4.67534 8.20913 3.66987 9.21442C-1.22264 14.107 -1.22264 22.0678 3.66987 26.9604L17.0402 40.3307C19.4865 42.777 22.6998 44.0001 25.9131 44.0001C29.1264 44 32.3397 42.7769 34.786 40.3307C35.7913 39.3254 35.7913 37.6896 34.7861 36.6843Z" fill="#FCBF42"/>
<path d="M11.5781 21.1335L6.36806 15.9235C6.0323 15.588 5.48823 15.588 5.15248 15.9235C4.81689 16.2592 4.81689 16.8034 5.15248 17.1391L10.3626 22.3491C10.5304 22.5169 10.7503 22.6008 10.9704 22.6008C11.1903 22.6008 11.4103 22.5169 11.5781 22.3491C11.9137 22.0135 11.9137 21.4692 11.5781 21.1335Z" fill="#FCBF42"/>
<path d="M31.5185 41.0743L26.0367 35.5924C25.7009 35.2569 25.1568 35.2569 24.8211 35.5924C24.4855 35.9281 24.4855 36.4724 24.8211 36.808L30.3029 42.2899C30.4708 42.4576 30.6906 42.5416 30.9107 42.5416C31.1306 42.5416 31.3506 42.4576 31.5185 42.2899C31.8541 41.9541 31.8541 41.41 31.5185 41.0743Z" fill="#FCBF42"/>
</svg>
