<svg width="46" height="46" viewBox="0 0 46 46" fill="none" xmlns="http://www.w3.org/2000/svg">
<g clip-path="url(#clip0)">
<path d="M15.9356 2.54009C16.3526 2.54009 16.7127 2.05312 16.574 1.64726C16.4535 1.29481 16.0696 1.10689 15.7171 1.22737C15.3647 1.34785 15.1768 1.73088 15.2973 2.08333C15.3936 2.36386 15.6551 2.54009 15.9356 2.54009Z" fill="#FCBF42"/>
<path d="M12.6414 3.97316C13.1045 3.97316 13.4614 3.40312 13.2357 2.98053C13.0603 2.65235 12.6521 2.52827 12.3231 2.7036C11.9949 2.87893 11.8708 3.28803 12.0461 3.61621C12.1675 3.84369 12.4004 3.97316 12.6414 3.97316Z" fill="#FCBF42"/>
<path d="M9.61752 5.91167C10.132 5.91167 10.4729 5.25001 10.1534 4.83003C9.92862 4.53332 9.50603 4.47578 9.20932 4.70056C8.91261 4.92533 8.85417 5.34882 9.07895 5.64553C9.21211 5.81996 9.41342 5.91167 9.61752 5.91167Z" fill="#FCBF42"/>
<path d="M6.46622 8.11234C6.78684 8.36904 7.10477 8.36275 7.42018 8.09346C7.67733 7.82463 7.66924 7.39755 7.4004 7.1395C7.13157 6.88145 6.70538 6.89044 6.44734 7.15928C6.18929 7.42812 6.19729 7.8543 6.46622 8.11234Z" fill="#FCBF42"/>
<path d="M1.35833 17.4992C1.68713 17.5964 2.09857 17.3753 2.1963 17.0434C2.3015 16.6864 2.0983 16.3115 1.74045 16.2054C1.3835 16.1002 1.00857 16.3043 0.903371 16.6612C0.797275 17.0182 1.00129 17.3931 1.35833 17.4992Z" fill="#FCBF42"/>
<path d="M0.702853 24.6301C1.07509 24.6148 1.3646 24.3001 1.34842 23.9279C1.33314 23.5556 1.01844 23.267 0.646208 23.2823C0.273973 23.2985 -0.0146439 23.6132 0.000641167 23.9854C0.0153867 24.3575 0.334484 24.6475 0.702853 24.6301Z" fill="#FCBF42"/>
<path d="M1.78181 27.3806C1.70539 27.0164 1.34754 26.7827 0.983393 26.86C0.618351 26.9364 0.385479 27.2943 0.461904 27.6584C0.63984 28.4962 1.96217 28.2399 1.78181 27.3806Z" fill="#FCBF42"/>
<path d="M0.736108 21.0374C1.0989 21.0848 1.4438 20.8218 1.48777 20.4512C1.53273 20.0808 1.27019 19.7445 0.900647 19.6995C0.531109 19.6537 0.194839 19.9162 0.148983 20.2858C0.103128 20.6553 0.36657 20.9925 0.736108 21.0374Z" fill="#FCBF42"/>
<path d="M26.3682 1.63426C26.704 1.68344 27.0868 1.41667 27.1415 1.0759C27.2008 0.708164 26.9509 0.362003 26.584 0.302661C26.2163 0.24332 25.8701 0.493275 25.8099 0.861014C25.7505 1.22785 26.0004 1.57491 26.3682 1.63426Z" fill="#FCBF42"/>
<path d="M38.9872 8.22207C39.1563 8.22207 39.3253 8.15913 39.4566 8.03236C39.7245 7.77251 39.7308 7.34543 39.4719 7.07839C39.212 6.81135 38.7858 6.80416 38.5179 7.06401C38.2509 7.32295 38.2437 7.75003 38.5035 8.01707C38.6358 8.15374 38.811 8.22207 38.9872 8.22207Z" fill="#FCBF42"/>
<path d="M41.2792 10.9895C41.4131 10.9895 41.5489 10.949 41.6667 10.8663C42.379 10.3277 41.6387 9.27476 40.8908 9.76307C40.586 9.97796 40.5131 10.3979 40.7271 10.7027C40.8583 10.8897 41.067 10.9895 41.2792 10.9895Z" fill="#FCBF42"/>
<path d="M44.4961 20.3539C44.5386 20.6809 44.9169 20.987 45.2514 20.9366C45.62 20.8898 45.8817 20.5517 45.834 20.1822C45.7873 19.8127 45.4492 19.5519 45.0797 19.5987C44.7102 19.6463 44.4494 19.9844 44.4961 20.3539Z" fill="#FCBF42"/>
<path d="M19.4189 1.65949C19.7946 1.65949 20.1475 1.24922 20.0851 0.87456C20.0231 0.50682 19.676 0.258663 19.3092 0.319803C18.9415 0.380943 18.6933 0.728902 18.7544 1.09574C18.8092 1.42572 19.0952 1.65949 19.4189 1.65949Z" fill="#FCBF42"/>
<path d="M43.7715 16.947C43.8719 17.2797 44.2822 17.4954 44.6113 17.3993C44.9683 17.2914 45.1706 16.9155 45.0636 16.5586C44.9557 16.2025 44.5798 16.0002 44.2229 16.1072C43.8667 16.2142 43.6644 16.5901 43.7715 16.947Z" fill="#FCBF42"/>
<path d="M35.8881 5.71092C36.2212 5.92905 36.5359 5.88436 36.8321 5.57695C37.056 5.27934 36.9958 4.85676 36.6982 4.63288C36.4006 4.409 35.978 4.46924 35.7541 4.76684C35.5302 5.06445 35.5905 5.48704 35.8881 5.71092Z" fill="#FCBF42"/>
<path d="M1.90319 30.335C1.55613 30.4699 1.3844 30.861 1.51927 31.2081C1.64757 31.5354 2.06845 31.7158 2.39231 31.592C3.21303 31.2387 2.74549 30.0393 1.90319 30.335Z" fill="#FCBF42"/>
<path d="M32.9461 3.84451C33.257 4.00968 33.6924 3.87598 33.8569 3.56309C34.0313 3.23401 33.9054 2.82581 33.5755 2.65228C33.2464 2.47785 32.8382 2.60373 32.6647 2.93281C32.4903 3.26278 32.6161 3.67008 32.9461 3.84451Z" fill="#FCBF42"/>
<path d="M22.9983 1.36374C23.3705 1.36374 23.6727 1.06164 23.6727 0.689402C23.6415 -0.203243 22.3549 -0.202973 22.324 0.689402C22.324 1.06164 22.6261 1.36374 22.9983 1.36374Z" fill="#FCBF42"/>
<path d="M29.7471 2.47065C30.0726 2.58196 30.4916 2.37417 30.6013 2.04627C30.7199 1.69381 30.5302 1.31079 30.1769 1.1921C29.8244 1.07342 29.4423 1.26313 29.3227 1.61649C29.204 1.96894 29.3937 2.35197 29.7471 2.47065Z" fill="#FCBF42"/>
<path d="M4.27057 10.9574C4.60657 11.1621 4.91947 11.1061 5.20925 10.7893C5.42234 10.4836 5.34682 10.0637 5.04112 9.85063C4.29107 9.36565 3.55541 10.4225 4.27057 10.9574Z" fill="#FCBF42"/>
<path d="M40.7135 36.5348C40.4249 36.2992 40.0005 36.3424 39.765 36.6301C39.5294 36.9187 39.5726 37.344 39.8612 37.5796C40.1904 37.8103 40.5066 37.7783 40.8097 37.4834C41.0453 37.1948 41.0022 36.7704 40.7135 36.5348Z" fill="#FCBF42"/>
<path d="M42.6728 33.5223C42.3509 33.3343 41.9382 33.4431 41.7503 33.7659C41.5633 34.0878 41.6721 34.5005 41.994 34.6875C42.3016 34.8659 42.7367 34.7507 42.9164 34.4439C43.1035 34.122 42.9947 33.7093 42.6728 33.5223Z" fill="#FCBF42"/>
<path d="M37.3554 39.1504C37.0775 39.3985 37.0533 39.8256 37.3023 40.1025C37.6121 40.3831 37.9295 40.401 38.2545 40.1565C38.5314 39.9074 38.5557 39.4812 38.3075 39.2043C38.0586 38.9265 37.6323 38.9022 37.3554 39.1504Z" fill="#FCBF42"/>
<path d="M34.5815 41.2642C34.2687 41.4656 34.1787 41.8828 34.3801 42.1957C34.663 42.5231 34.9738 42.5906 35.3125 42.398C35.6254 42.1957 35.7153 41.7785 35.5139 41.4656C35.3116 41.1527 34.8945 41.0628 34.5815 41.2642Z" fill="#FCBF42"/>
<path d="M31.5111 42.9127C31.1703 43.0619 31.0148 43.4594 31.164 43.8001C31.3045 44.1223 31.7332 44.2882 32.0523 44.1481C32.3931 43.9988 32.5487 43.6005 32.3994 43.2598C32.2502 42.9181 31.8528 42.7625 31.5111 42.9127Z" fill="#FCBF42"/>
<path d="M43.713 13.1127C43.5494 12.7773 43.1457 12.6388 42.8112 12.8016C42.4767 12.9652 42.3374 13.3689 42.501 13.7034C42.656 14.0217 43.0872 14.1684 43.4028 14.0136C43.7373 13.8508 43.8767 13.4471 43.713 13.1127Z" fill="#FCBF42"/>
<path d="M45.3513 23.1816C44.979 23.1681 44.6661 23.4585 44.6518 23.8299C44.6383 24.2021 44.9287 24.515 45.3 24.5294C45.6361 24.5624 45.988 24.1906 45.9995 23.8811C46.0139 23.5089 45.7235 23.196 45.3513 23.1816Z" fill="#FCBF42"/>
<path d="M45.0312 26.7604C44.6662 26.6858 44.3092 26.9205 44.2346 27.2855C44.16 27.6496 44.3946 28.0066 44.7597 28.0812C45.092 28.1528 45.4873 27.8885 45.5554 27.557C45.6308 27.192 45.3953 26.835 45.0312 26.7604Z" fill="#FCBF42"/>
<path d="M28.2177 44.0458C27.8572 44.1384 27.6387 44.5053 27.7313 44.8658C27.8154 45.1983 28.2206 45.4383 28.5513 45.3531C28.9118 45.2605 29.1294 44.8937 29.0377 44.5331C28.946 44.1726 28.5783 43.9541 28.2177 44.0458Z" fill="#FCBF42"/>
<path d="M44.1276 30.238C43.7796 30.1041 43.3894 30.2785 43.2563 30.6255C43.1223 30.9735 43.2959 31.3637 43.6438 31.4968C43.9669 31.6203 44.3899 31.4365 44.5151 31.1093C44.6482 30.7613 44.4746 30.3711 44.1276 30.238Z" fill="#FCBF42"/>
<path d="M21.3061 44.6341C20.9347 44.6036 20.6101 44.8805 20.5796 45.2518C20.5499 45.6232 20.8268 45.9487 21.1982 45.9783C21.5643 46.0084 21.8957 45.7329 21.9246 45.3597C21.9543 44.9884 21.6775 44.6638 21.3061 44.6341Z" fill="#FCBF42"/>
<path d="M8.71839 39.219C8.43966 38.9718 8.01348 38.9978 7.76622 39.2766C7.51986 39.5553 7.54504 39.9815 7.82376 40.2278C8.14897 40.4721 8.46636 40.453 8.77593 40.1703C9.02328 39.8916 8.9972 39.4654 8.71839 39.219Z" fill="#FCBF42"/>
<path d="M11.5013 41.3188C11.1866 41.1183 10.7703 41.2109 10.5698 41.5247C10.3693 41.8385 10.4619 42.2557 10.7757 42.4562C11.1145 42.6483 11.4251 42.5797 11.7072 42.2503C11.9067 41.9365 11.815 41.5193 11.5013 41.3188Z" fill="#FCBF42"/>
<path d="M24.7866 44.626C24.4152 44.6575 24.1401 44.9838 24.1716 45.3552C24.2015 45.7271 24.5355 46.0031 24.9008 45.9693C25.2712 45.9378 25.5463 45.6114 25.5149 45.241C25.4834 44.8696 25.157 44.5945 24.7866 44.626Z" fill="#FCBF42"/>
<path d="M14.5771 42.9523C14.2355 42.8049 13.8381 42.9622 13.6906 43.3039C13.5431 43.6455 13.7005 44.0429 14.0422 44.1904C14.3623 44.329 14.7885 44.1614 14.9287 43.8388C15.076 43.4972 14.9187 43.1007 14.5771 42.9523Z" fill="#FCBF42"/>
<path d="M3.37403 33.6142C3.05305 33.8031 2.94605 34.2167 3.13487 34.5376C3.31577 34.8451 3.75113 34.956 4.05826 34.7768C4.37925 34.588 4.48624 34.1753 4.29743 33.8534C4.10861 33.5324 3.69511 33.4254 3.37403 33.6142Z" fill="#FCBF42"/>
<path d="M5.34771 36.6182C5.06 36.8556 5.01954 37.2799 5.256 37.5677C5.55982 37.8608 5.87631 37.8913 6.20547 37.6594C6.49319 37.422 6.53365 36.9976 6.29718 36.7099C6.05982 36.4222 5.63453 36.3817 5.34771 36.6182Z" fill="#FCBF42"/>
<path d="M17.8723 44.0703C17.5109 43.9795 17.145 44.1989 17.0541 44.5603C16.9642 44.9218 17.1836 45.2877 17.5451 45.3785C17.8765 45.4599 18.2791 45.2214 18.3633 44.8876C18.4532 44.5262 18.2338 44.1602 17.8723 44.0703Z" fill="#FCBF42"/>
<path d="M3.45057 13.7969C3.61241 13.4615 3.47125 13.0587 3.13588 12.8968C2.80051 12.735 2.3977 12.8753 2.23586 13.2106C2.07402 13.5469 2.21428 13.9497 2.55056 14.1115C2.86642 14.262 3.29709 14.1157 3.45057 13.7969Z" fill="#FCBF42"/>
<path d="M23.3531 2.97777C18.8505 2.89963 14.582 4.27241 11.0041 6.95214C10.3062 7.4748 11.1147 8.5541 11.8126 8.03163C15.1484 5.53333 19.1327 4.2511 23.3292 4.32636C33.3873 4.29704 42.0906 13.3121 41.7043 23.3636C41.394 39.9684 21.0802 47.9624 9.53696 36.0257C2.68927 29.2131 2.57868 17.2985 9.25248 10.3395C9.84482 9.69976 8.85516 8.78347 8.26282 9.42328C1.10817 16.8857 1.22362 29.6573 8.56681 36.9625C20.9425 49.7596 42.7207 41.189 43.0529 23.3871C43.4658 12.6122 34.1369 2.94504 23.3531 2.97777Z" fill="#FCBF42"/>
<path d="M22.9983 39.4938C32.0751 39.4938 39.4596 32.1093 39.4596 23.0325C38.5554 1.19433 7.43787 1.20062 6.53687 23.0327C6.53696 32.1093 13.9215 39.4938 22.9983 39.4938ZM22.9983 7.91983C31.3314 7.91983 38.111 14.6994 38.111 23.0325C37.2808 43.0815 8.71273 43.0756 7.88563 23.0324C7.88563 14.6994 14.6652 7.91983 22.9983 7.91983Z" fill="#FCBF42"/>
<path d="M13.4591 25.4805L18.2334 29.9754C19.1869 30.8719 20.6799 30.871 21.6335 29.9744L25.4831 26.3394C26.1171 25.7408 25.1911 24.7601 24.5572 25.3588L20.7086 28.9929C20.281 29.395 19.585 29.395 19.1576 28.9931L14.3833 24.4982C13.7714 23.9229 14.1107 23.2351 14.4076 22.9193C14.5335 22.7854 15.1996 22.1515 15.9343 22.8424L19.4707 26.1732C19.7307 26.4181 20.1365 26.4178 20.3962 26.1725L30.0404 17.0609C30.6502 16.4877 31.3133 16.8671 31.609 17.1816C31.7355 17.3162 32.3293 18.0226 31.5906 18.7172L27.1411 22.9188C26.5071 23.5174 27.4329 24.4978 28.067 23.8994L32.5156 19.6988C33.6694 18.6139 33.4271 17.1465 32.5915 16.2578C31.7577 15.3709 30.2563 15.0066 29.1154 16.0795L19.9323 24.7553L16.8585 21.8602C15.7063 20.7768 14.2592 21.1082 13.4249 21.9954C12.5897 22.8839 12.3178 24.4073 13.4591 25.4805Z" fill="#FCBF42"/>
</g>
<defs>
<clipPath id="clip0">
<rect width="46" height="46" fill="white"/>
</clipPath>
</defs>
</svg>
