<?xml version="1.0" encoding="UTF-8"?> <svg xmlns="http://www.w3.org/2000/svg" xmlns:xlink="http://www.w3.org/1999/xlink" height="480pt" viewBox="0 0 480 480" width="480pt"> <linearGradient id="a"> <stop offset="0" stop-color="#006df0"></stop> <stop offset="1" stop-color="#00e7f0"></stop> </linearGradient> <linearGradient id="b" gradientUnits="userSpaceOnUse" x1="239.993633" x2="239.993633" xlink:href="#a" y1="495.896" y2="-5.104"></linearGradient> <linearGradient id="c" gradientUnits="userSpaceOnUse" x1="172.119132" x2="172.119132" xlink:href="#a" y1="495.894942" y2="-5.105058"></linearGradient> <linearGradient id="d" gradientUnits="userSpaceOnUse" x1="143.993633" x2="143.993633" xlink:href="#a" y1="495.896" y2="-5.104"></linearGradient> <linearGradient id="e" gradientUnits="userSpaceOnUse" x1="172.115949" x2="172.115949" xlink:href="#a" y1="495.895257" y2="-5.104743"></linearGradient> <linearGradient id="f" gradientUnits="userSpaceOnUse" x1="307.87392" x2="307.87392" xlink:href="#a" y1="495.892783" y2="-5.107217"></linearGradient> <linearGradient id="g" gradientUnits="userSpaceOnUse" x1="335.993633" x2="335.993633" xlink:href="#a" y1="495.896" y2="-5.104"></linearGradient> <linearGradient id="h" gradientUnits="userSpaceOnUse" x1="307.877104" x2="307.877104" xlink:href="#a" y1="495.892468" y2="-5.107532"></linearGradient> <g fill="url(#b)"> <path d="m439.824219 238.398438c-.757813-3.722657-4.03125-6.394532-7.832031-6.398438h-384c-3.796876.003906-7.070313 2.675781-7.832032 6.398438l-40 192c-.480468 2.355468.125 4.796874 1.640625 6.660156 1.519531 1.859375 3.792969 2.941406 6.191407 2.941406h184v40h96v-40h184c2.402343 0 4.675781-1.082031 6.195312-2.941406 1.515625-1.863282 2.117188-4.304688 1.636719-6.660156zm-117.804688 121.601562-4-48h58.910157l6 48zm62.910157 16 6 48h-63.574219l-4-48zm-287.871094-16 6-48h58.910156l-4 48zm59.574218 16-4 48h-63.574218l6-48zm-75.703124-16h-49.734376l10.007813-48h45.757813zm219.703124-64h-52.640624v-48h48.640624zm12.046876-48h56.25l6 48h-58.25zm-80.6875 48h-52.636719l4-48h48.636719zm-68.6875 0h-58.246094l6-48h56.246094zm14.714843 16h53.972657v48h-57.972657zm69.972657 0h53.976562l4 48h-57.976562zm145.066406 0h45.757812l9.976563 48h-49.734375zm42.398437-16h-44.398437l-6-48h40.429687zm-380.960937-48h40.433594l-6 48h-44.433594zm-26.664063 128h51.097657l-6 48h-55.105469zm140.847657 48 4-48h59.3125v48zm103.3125 40h-64v-24h64zm-24-40v-48h59.3125l4 48zm159.066406 0-6-48h51.09375l10.007812 48zm0 0"></path> <path d="m239.992188 176c35.347656 0 64-28.652344 64-64s-28.652344-64-64-64c-35.34375 0-64 28.652344-64 64 .042968 35.328125 28.671874 63.960938 64 64zm0-112c26.511718 0 48 21.492188 48 48s-21.488282 48-48 48c-26.507813 0-48-21.492188-48-48 .027343-26.5 21.503906-47.972656 48-48zm0 0"></path> <path d="m231.992188 0h16v32h-16zm0 0"></path> </g> <path d="m155.148438 38.457031 11.3125-11.3125 22.628906 22.625-11.316406 11.316407zm0 0" fill="url(#c)"></path> <path d="m127.992188 104h32v16h-32zm0 0" fill="url(#d)"></path> <path d="m155.144531 185.535156 22.628907-22.625 11.3125 11.3125-22.628907 22.628906zm0 0" fill="url(#e)"></path> <path d="m231.992188 192h16v32h-16zm0 0" fill="url(#b)"></path> <path d="m290.90625 174.230469 11.3125-11.3125 22.628906 22.625-11.3125 11.316406zm0 0" fill="url(#f)"></path> <path d="m319.992188 104h32v16h-32zm0 0" fill="url(#g)"></path> <path d="m290.910156 49.769531 22.628906-22.628906 11.3125 11.3125-22.628906 22.628906zm0 0" fill="url(#h)"></path> </svg> 