<?xml version="1.0" encoding="UTF-8"?> <svg xmlns="http://www.w3.org/2000/svg" xmlns:xlink="http://www.w3.org/1999/xlink" height="479pt" viewBox="-31 0 479 479.99064" width="479pt"> <linearGradient id="lg1"> <stop offset="0" stop-color="#006df0"></stop> <stop offset="1" stop-color="#00e7f0"></stop> </linearGradient> <linearGradient id="linear0" gradientUnits="userSpaceOnUse" x1="208.49532" x2="208.49532" xlink:href="#lg1" y1="520.678638" y2="-40.185362"></linearGradient> <linearGradient id="linear2" gradientUnits="userSpaceOnUse" x1="208.48732" x2="208.48732" xlink:href="#lg1" y1="520.678638" y2="-40.185362"></linearGradient> <path d="m208.496094 479.992188c-1.367188 0-2.710938-.351563-3.90625-1.015626l-77.261719-43.273437c-78.285156-43.890625-126.78125-126.625-126.832031-216.375v-131.335937c0-4.417969 3.582031-8 8-8h14.398437c51.144531-.101563 100.839844-17.003907 141.433594-48.113282l39.296875-30.222656c2.871094-2.207031 6.867188-2.207031 9.742188 0l39.296874 30.222656c40.59375 31.109375 90.289063 48.011719 141.429688 48.113282h14.402344c4.417968 0 8 3.582031 8 8v131.335937c-.050782 89.75-48.546875 172.484375-126.832032 216.375l-77.265624 43.273437c-1.191407.664063-2.535157 1.015626-3.902344 1.015626zm-192-384v123.335937c.058594 83.949219 45.417968 161.335937 118.640625 202.398437l73.359375 41.097657 73.359375-41.082031c73.226562-41.066407 118.585937-118.457032 118.640625-202.414063v-123.335937h-6.402344c-54.675781-.097657-107.804688-18.167969-151.199219-51.433594l-34.398437-26.472656-34.402344 26.472656c-43.394531 33.265625-96.519531 51.335937-151.199219 51.433594zm0 0" fill="url(#linear0)"></path> <path d="m280.496094 192.789062v-40.796874c0-39.765626-32.234375-72-72-72s-72 32.234374-72 72v40.796874c-18.613282 3.828126-31.976563 20.199219-32 39.203126v112c.027344 22.078124 17.917968 39.972656 40 40h128c22.078125-.027344 39.972656-17.921876 40-40v-112c-.023438-19.003907-13.390625-35.375-32-39.203126zm-128-40.796874c0-30.929688 25.070312-56 56-56 30.925781 0 56 25.070312 56 56v40h-16v-40c0-22.09375-17.910156-40-40-40-22.09375 0-40 17.90625-40 40v40h-16zm32 0c0-13.257813 10.746094-24 24-24s24 10.742187 24 24v40h-48zm112 192c0 13.253906-10.746094 24-24 24h-128c-13.253906 0-24-10.746094-24-24v-112c0-13.257813 10.746094-24 24-24h128c13.253906 0 24 10.742187 24 24zm0 0" fill="url(#linear0)"></path> <path d="m208.496094 351.992188c-13.253906 0-24-10.746094-24-24v-32c-15.261719-11.417969-20.351563-32.015626-12.160156-49.226563 8.191406-17.207031 27.386718-26.246094 45.871093-21.597656 14.320313 3.464843 25.523438 14.597656 29.082031 28.894531 3.984376 15.679688-1.851562 32.21875-14.792968 41.929688v32c0 13.253906-10.746094 24-24 24zm-.046875-112c-5.386719-.019532-10.613281 1.804687-14.816407 5.167968-6.234374 4.925782-9.621093 12.621094-9.050781 20.542969.570313 7.925781 5.023438 15.054687 11.898438 19.039063 2.476562 1.429687 4 4.074218 4 6.9375v36.3125c0 4.417968 3.582031 8 8 8s8-3.582032 8-8v-36.320313c-.003907-2.863281 1.519531-5.507813 4-6.9375 9.347656-5.449219 13.921875-16.457031 11.199219-26.929687-2.171876-8.425782-8.785157-14.992188-17.230469-17.09375-1.96875-.472657-3.980469-.714844-6-.71875zm0 0" fill="url(#linear2)"></path> </svg> 