<?xml version="1.0" encoding="UTF-8"?> <!-- Generator: Adobe Illustrator 19.0.0, SVG Export Plug-In . SVG Version: 6.00 Build 0) --> <svg xmlns="http://www.w3.org/2000/svg" xmlns:xlink="http://www.w3.org/1999/xlink" id="Capa_1" x="0px" y="0px" viewBox="0 0 480 480" style="enable-background:new 0 0 480 480;" xml:space="preserve"> <linearGradient id="SVGID_1_" gradientUnits="userSpaceOnUse" x1="-26.875" y1="556.475" x2="-26.875" y2="617.694" gradientTransform="matrix(8 0 0 -8 455 4941)"> <stop offset="0" style="stop-color:#006DF0"></stop> <stop offset="1" style="stop-color:#00E7F0"></stop> </linearGradient> <path style="fill:url(#SVGID_1_);" d="M344,0H136c-22.08,0.026-39.974,17.92-40,40v400c0.026,22.08,17.92,39.974,40,40h208 c22.08-0.026,39.974-17.92,40-40V40C383.974,17.92,366.08,0.026,344,0z M112,64h256v352H112V64z M136,16h208 c13.255,0,24,10.745,24,24v8H112v-8C112,26.745,122.745,16,136,16z M344,464H136c-13.255,0-24-10.745-24-24v-8h256v8 C368,453.255,357.255,464,344,464z"></path> <g> <linearGradient id="SVGID_2_" gradientUnits="userSpaceOnUse" x1="-30.375" y1="556.475" x2="-30.375" y2="617.694" gradientTransform="matrix(8 0 0 -8 455 4941)"> <stop offset="0" style="stop-color:#006DF0"></stop> <stop offset="1" style="stop-color:#00E7F0"></stop> </linearGradient> <path style="fill:url(#SVGID_2_);" d="M208,40h8c4.418,0,8-3.582,8-8s-3.582-8-8-8h-8c-4.418,0-8,3.582-8,8S203.582,40,208,40z"></path> <linearGradient id="SVGID_3_" gradientUnits="userSpaceOnUse" x1="-24.875" y1="556.475" x2="-24.875" y2="617.694" gradientTransform="matrix(8 0 0 -8 455 4941)"> <stop offset="0" style="stop-color:#006DF0"></stop> <stop offset="1" style="stop-color:#00E7F0"></stop> </linearGradient> <path style="fill:url(#SVGID_3_);" d="M240,40h32c4.418,0,8-3.582,8-8s-3.582-8-8-8h-32c-4.418,0-8,3.582-8,8S235.582,40,240,40z"></path> </g> <linearGradient id="SVGID_4_" gradientUnits="userSpaceOnUse" x1="-26.875" y1="556.475" x2="-26.875" y2="617.694" gradientTransform="matrix(8 0 0 -8 455 4941)"> <stop offset="0" style="stop-color:#006DF0"></stop> <stop offset="1" style="stop-color:#00E7F0"></stop> </linearGradient> <path style="fill:url(#SVGID_4_);" d="M256,440h-32c-4.418,0-8,3.582-8,8s3.582,8,8,8h32c4.418,0,8-3.582,8-8S260.418,440,256,440z"></path> <g> <linearGradient id="SVGID_5_" gradientUnits="userSpaceOnUse" x1="-26.8643" y1="556.475" x2="-26.8643" y2="617.694" gradientTransform="matrix(8 0 0 -8 455 4941)"> <stop offset="0" style="stop-color:#006DF0"></stop> <stop offset="1" style="stop-color:#00E7F0"></stop> </linearGradient> <path style="fill:url(#SVGID_5_);" d="M327.2,187.656c-6.815-48.121-51.349-81.606-99.47-74.791 c-48.121,6.815-81.606,51.349-74.791,99.47c4.015,28.348,21.57,52.972,47.061,66.008V352h16v16h48v-16h16v-73.648 C313.602,261.417,332.61,224.893,327.2,187.656L327.2,187.656z M248,336v16h-16v-16h-16v-31.408h48V336H248z M268.8,265.944 l-4.8,2.104v20.544h-48v-20.544l-4.8-2.104c-36.44-15.918-53.076-58.362-37.158-94.801s58.362-53.076,94.801-37.158 c22.877,9.993,38.945,31.124,42.461,55.839C315.994,221.892,298.561,253.113,268.8,265.944z"></path> <linearGradient id="SVGID_6_" gradientUnits="userSpaceOnUse" x1="-23.375" y1="556.475" x2="-23.375" y2="617.694" gradientTransform="matrix(8 0 0 -8 455 4941)"> <stop offset="0" style="stop-color:#006DF0"></stop> <stop offset="1" style="stop-color:#00E7F0"></stop> </linearGradient> <path style="fill:url(#SVGID_6_);" d="M240,144v16c22.08,0.026,39.974,17.92,40,40h16C295.96,169.089,270.911,144.04,240,144z"></path> </g> <g> </g> <g> </g> <g> </g> <g> </g> <g> </g> <g> </g> <g> </g> <g> </g> <g> </g> <g> </g> <g> </g> <g> </g> <g> </g> <g> </g> <g> </g> </svg> 