<?xml version="1.0" standalone="no"?>
<!DOCTYPE svg PUBLIC "-//W3C//DTD SVG 1.1//EN" "http://www.w3.org/Graphics/SVG/1.1/DTD/svg11.dtd" >
<svg xmlns="http://www.w3.org/2000/svg" xmlns:xlink="http://www.w3.org/1999/xlink" version="1.1">
<metadata>
Created by FontForge 20170910 at Mon Apr 30 11:11:10 2007
 By Jimmy Wärting
(c) COPYRIGHT H. BERTHOLD AG 1992 Alle Rechte vorbehalten.
</metadata>
<defs>
<font id="BritannicBQ-Bold" horiz-adv-x="646" >
  <font-face 
    font-family="Britannic BQ"
    font-weight="500"
    font-stretch="normal"
    units-per-em="1000"
    panose-1="0 0 0 0 0 0 0 0 0 0"
    ascent="800"
    descent="-200"
    x-height="524"
    cap-height="707"
    bbox="-195 -250.011 1063 930.125"
    underline-thickness="50"
    underline-position="-100"
    stemh="54"
    stemv="205"
    unicode-range="U+0020-FB02"
  />
<missing-glyph horiz-adv-x="292" 
 />
    <glyph glyph-name=".notdef" horiz-adv-x="292" 
 />
    <glyph glyph-name="space" unicode=" " horiz-adv-x="292" 
 />
    <glyph glyph-name="exclam" unicode="!" horiz-adv-x="333" 
d="M159 314c-7 26 -14 47 -21 68c-8 27 -17 57 -26 85c-7 22 -14 43 -20 65c-17 56 -29 83 -29 111c0 8 2 18 9 27c4 4 8 9 15 15c18 15 56 32 104 32c6 0 56 1 92 -26c6 -5 9 -8 14 -13c8 -9 18 -19 18 -41c0 -15 -7 -35 -15 -69c-12 -46 -23 -92 -35 -138
c-6 -27 -14 -54 -20 -80c-7 -29 -9 -46 -18 -59c-8 -12 -17 -17 -28 -17c-13 0 -25 6 -33 22c-2 3 -5 9 -7 18zM188 196c8 0 45 1 74 -29c12 -13 26 -38 26 -72c0 -5 -1 -35 -14 -59c-5 -10 -16 -21 -26 -29c-24 -18 -50 -18 -56 -18c-5 0 -31 1 -51 16
c-21 15 -42 45 -42 89c0 13 2 29 7 42c8 19 33 58 82 60z" />
    <glyph glyph-name="dollar" unicode="$" horiz-adv-x="708" 
d="M408 832v-109c17 -2 45 -5 86 -20c9 -2 51 -19 84 -52c24 -24 38 -62 37 -93c0 -6 -1 -12 -2 -18l-92 -25c2 11 4 23 4 35c0 8 -2 48 -37 77c-26 22 -56 28 -83 33l1 -189c25 -5 50 -10 75 -16c9 -3 84 -19 133 -69c11 -11 20 -22 29 -36c33 -52 32 -94 32 -114
c0 -76 -27 -124 -56 -157c-21 -23 -47 -45 -94 -65c-33 -14 -57 -22 -121 -28v-124h-105v119c-13 1 -106 4 -174 51c-11 7 -17 11 -28 22c-38 38 -56 83 -56 121c0 15 3 30 6 45l109 19c-4 -11 -9 -22 -9 -45c0 -13 0 -57 39 -92c19 -17 39 -26 46 -29c17 -7 34 -12 70 -17
v200c-46 9 -103 19 -148 42c-40 20 -62 41 -75 57c-8 11 -14 19 -18 29c-22 43 -21 81 -21 96c0 36 5 63 21 99c2 4 8 17 17 30c7 11 15 18 24 28c8 8 14 15 22 22c45 38 91 49 104 52c14 4 27 7 41 9c11 2 22 3 34 4v108h105zM304 487v175c-1 0 -55 -6 -84 -42
c-7 -10 -16 -26 -16 -48c0 -14 4 -30 12 -43c20 -31 63 -37 88 -42zM404 238v-183c7 1 15 2 22 4c26 6 45 19 55 27c2 3 4 5 10 12c2 4 7 11 8 14c3 5 8 19 8 35c0 15 -7 36 -18 50c-2 3 -6 8 -14 14c-16 13 -34 20 -71 27z" />
    <glyph glyph-name="percent" unicode="%" horiz-adv-x="958" 
d="M200 687c14 1 64 4 111 -33c12 -9 25 -21 39 -41c21 -31 43 -88 43 -166c0 -10 0 -77 -24 -126c-4 -8 -8 -16 -21 -31c-18 -21 -39 -38 -80 -50c-12 -3 -36 -9 -66 -9c-79 0 -126 47 -147 81c-15 26 -32 78 -32 145c0 22 0 84 39 147c15 25 28 37 38 45
c13 12 26 21 52 29c8 3 26 8 48 9zM645 683l-278 -683h-42l277 682zM202 659c-8 -1 -21 -4 -29 -25c-11 -29 -10 -178 -10 -208c0 -29 1 -58 2 -87c0 -17 0 -40 8 -57c10 -19 32 -19 36 -19c6 0 15 2 22 7c17 14 16 40 18 75c1 27 2 54 2 81c0 45 -1 90 -3 134
c-2 38 -4 68 -12 82c-13 20 -28 17 -34 17zM751 449c14 0 67 1 115 -45c20 -19 28 -32 40 -56c13 -29 28 -72 28 -139c0 -11 3 -85 -32 -140c-9 -16 -26 -34 -39 -44c-23 -16 -46 -22 -54 -24c-32 -9 -44 -10 -63 -10c-11 0 -58 1 -100 29c-8 6 -11 9 -19 16
c-4 3 -13 12 -21 23c-21 29 -41 82 -41 158c0 12 0 56 15 98c3 9 7 17 11 26c21 45 63 105 160 108zM742 419c-11 -1 -19 -6 -25 -19c-12 -25 -12 -119 -12 -208c0 -30 0 -59 1 -90c0 -17 0 -42 8 -58c9 -20 31 -21 36 -21c15 0 26 9 30 16c9 14 10 57 11 100
c1 21 1 42 1 64c0 42 -1 84 -3 125c-2 39 -3 64 -15 80c-12 15 -26 12 -32 11z" />
    <glyph glyph-name="ampersand" unicode="&#x26;" horiz-adv-x="812" 
d="M516 465l94 -159c9 9 17 19 25 29c15 20 37 51 66 102c23 39 30 56 35 72l70 3c-11 -26 -22 -52 -36 -78c-47 -89 -96 -150 -125 -187l146 -247h-271l-50 87c-22 -17 -44 -33 -66 -46c-21 -12 -99 -55 -173 -55c-8 0 -49 2 -83 16c-9 4 -17 8 -34 20
c-37 26 -85 82 -85 168c0 12 1 52 23 91c46 81 147 131 214 165c-8 17 -31 58 -31 107c0 11 2 52 33 89c12 15 25 25 41 36c31 20 85 44 163 44c72 0 110 -17 141 -52c20 -23 30 -54 30 -80c0 -6 0 -38 -20 -65c-4 -7 -11 -13 -13 -15c-8 -7 -19 -16 -27 -20
c-9 -5 -18 -8 -27 -12c-7 -3 -22 -9 -40 -13zM486 514c25 3 45 6 69 23c8 6 33 23 33 55c0 28 -20 50 -31 59c-8 6 -27 19 -51 19c-4 0 -26 0 -44 -15c-11 -10 -18 -20 -18 -42c0 -27 11 -47 42 -99zM439 142l-146 252c-3 -1 -16 -5 -27 -12c-17 -10 -37 -29 -37 -62
c0 -25 17 -80 61 -144c21 -32 41 -62 83 -62c30 0 56 20 66 28z" />
    <glyph glyph-name="quoteright" unicode="&#x2019;" horiz-adv-x="271" 
d="M87 394l-22 29c5 4 9 8 13 12c9 8 43 42 59 78c6 11 9 23 12 34c-7 -2 -22 -10 -41 -10c-26 0 -42 14 -51 24c-19 21 -23 41 -23 62c0 15 2 30 8 45c2 3 7 13 15 22c26 28 53 28 63 28c5 0 23 0 40 -8c56 -28 55 -100 55 -105c0 -10 0 -24 -5 -46
c-5 -21 -18 -73 -80 -131c-13 -11 -20 -17 -43 -34z" />
    <glyph glyph-name="parenleft" unicode="(" horiz-adv-x="354" 
d="M325 787l15 -18c-18 -16 -41 -37 -67 -82c-62 -104 -71 -228 -71 -349c0 -191 31 -297 81 -371c26 -39 50 -58 63 -69l-20 -15c-72 35 -139 81 -188 158c-53 84 -78 197 -78 295c0 54 6 208 109 334c19 24 41 45 65 63c43 35 80 49 91 54z" />
    <glyph glyph-name="parenright" unicode=")" horiz-adv-x="354" 
d="M26 -123l-14 17c11 12 23 23 33 34c30 35 55 83 69 126c38 111 36 275 36 297c0 114 -9 224 -68 323c-18 32 -32 48 -42 59c-11 12 -22 21 -33 31l19 17c36 -18 67 -34 110 -70c41 -35 99 -95 133 -218c8 -29 23 -89 23 -167c0 -43 -5 -159 -66 -269
c-8 -15 -23 -39 -48 -69c-65 -76 -128 -101 -152 -111z" />
    <glyph glyph-name="asterisk" unicode="*" horiz-adv-x="333" 
d="M211 707l-8 -81l72 33l26 -84l-79 -17l52 -59l-72 -51l-38 66l-41 -65l-69 50l55 61l-79 20l27 79l71 -30l-5 78h88z" />
    <glyph glyph-name="plus" unicode="+" horiz-adv-x="667" 
d="M398 0h-128v228h-228v127h228v227h128v-227h227v-127h-227v-228z" />
    <glyph glyph-name="comma" unicode="," horiz-adv-x="271" 
d="M57 -163l-14 31c49 32 69 53 86 75c9 11 14 19 16 24c3 8 5 15 7 22c-14 -4 -20 -6 -34 -6c-10 0 -22 3 -32 7c-47 22 -47 73 -47 82c0 7 0 42 20 71c1 2 5 7 11 12c1 1 10 9 15 12c8 5 27 11 48 11c9 0 35 1 62 -21c11 -9 20 -20 25 -31c5 -9 5 -12 9 -26
c3 -11 4 -23 4 -34c0 -13 -1 -27 -4 -40c-8 -35 -23 -61 -31 -74c-12 -19 -19 -29 -27 -38c-15 -16 -29 -30 -64 -51c-9 -6 -18 -12 -27 -17c-8 -4 -16 -7 -23 -9z" />
    <glyph glyph-name="hyphen" unicode="-" horiz-adv-x="354" 
d="M313 348v-147h-272v147h272z" />
    <glyph glyph-name="period" unicode="." horiz-adv-x="271" 
d="M133 194c5 1 19 1 34 -5c46 -17 62 -61 62 -98c0 -4 0 -47 -29 -76c-13 -13 -34 -27 -65 -27c-7 0 -21 1 -38 8c-29 13 -54 46 -54 98c0 10 0 39 23 66c12 14 31 32 67 34z" />
    <glyph glyph-name="slash" unicode="/" horiz-adv-x="292" 
d="M273 706l-167 -706h-87l166 706h88z" />
    <glyph glyph-name="zero" unicode="0" 
d="M35 332v27c4 85 21 126 39 167c4 8 23 50 54 84c6 8 13 13 20 20c69 63 147 63 167 63c91 1 151 -34 189 -71c13 -13 38 -42 59 -84c7 -15 28 -61 37 -109c6 -34 9 -67 9 -101c0 -17 0 -141 -60 -231c-22 -32 -55 -60 -85 -77c-29 -16 -76 -34 -145 -34
c-20 0 -58 1 -108 20c-11 5 -22 9 -33 15c-6 3 -27 16 -42 30c-11 9 -36 33 -54 65c-23 41 -47 114 -47 216zM253 436v-47c-1 -34 -2 -68 -2 -103c0 -43 1 -86 3 -129c1 -39 1 -57 7 -76c1 -1 8 -21 16 -29c18 -18 42 -18 45 -18c4 0 22 1 38 13c5 3 11 9 17 21
c11 24 11 51 13 100c1 32 1 64 1 97c0 13 1 25 1 38c0 25 -1 50 -1 75c-1 43 -2 86 -4 129c-3 61 -5 109 -27 131c-15 14 -42 13 -44 13c-27 -2 -41 -17 -50 -45c-7 -24 -7 -44 -10 -93c-1 -26 -3 -52 -3 -77z" />
    <glyph glyph-name="one" unicode="1" 
d="M365 697h113v-697h-209v525c-24 -10 -47 -20 -96 -31c-31 -7 -52 -11 -111 -12l1 90c28 0 47 3 75 10c87 20 161 65 192 87c12 8 23 18 35 28z" />
    <glyph glyph-name="two" unicode="2" 
d="M248 166l338 4v-170h-519v112c23 18 46 37 71 56c22 18 98 78 163 145c10 11 19 21 28 33c19 25 53 79 52 165c0 66 -18 95 -43 114c-17 14 -37 22 -59 22c-39 0 -73 -23 -92 -57c-12 -22 -22 -62 -22 -107c0 -28 5 -51 10 -79l-121 33c-4 19 -9 39 -9 63c0 7 0 57 24 98
c4 9 13 22 30 37c78 67 203 65 225 65c26 0 105 1 175 -38c26 -14 43 -30 52 -38c27 -28 39 -62 42 -74c4 -13 10 -36 10 -68c0 -20 -2 -62 -29 -106c-16 -26 -38 -46 -44 -52c-39 -34 -91 -56 -129 -74c-33 -16 -67 -32 -101 -52c-17 -10 -34 -21 -52 -32z" />
    <glyph glyph-name="three" unicode="3" 
d="M52 232l105 34c-4 -25 -8 -49 -8 -74c0 -4 1 -70 28 -110c6 -8 21 -21 30 -26c9 -6 28 -13 51 -13c6 0 27 0 48 10c31 14 48 44 55 96c2 14 3 28 3 42c0 25 -5 73 -21 97c-8 11 -21 25 -47 33c-20 7 -70 10 -90 10c-14 0 -27 -1 -40 -2v62c16 -2 33 -3 50 -3
c51 0 91 7 111 30c14 16 22 51 22 93c0 6 -1 33 -6 56c-5 22 -12 35 -22 45c-4 5 -7 7 -16 13c-12 6 -26 12 -50 12c-54 0 -81 -34 -90 -62c-7 -21 -7 -54 -7 -57c0 -24 3 -39 9 -64l-98 19c-9 21 -11 30 -11 60c0 39 12 64 23 81c3 5 10 15 20 25c27 25 68 39 71 40
c49 17 114 17 125 17c21 0 69 0 126 -17c8 -3 68 -19 109 -65c6 -6 11 -12 15 -19c9 -13 24 -42 24 -78c0 -8 -1 -37 -15 -64c-3 -6 -11 -19 -24 -32c-20 -19 -44 -29 -49 -31c-26 -11 -70 -19 -72 -20l-45 -9c15 -2 30 -4 45 -5c48 -6 109 -17 155 -65
c17 -16 30 -42 34 -63c2 -8 4 -15 4 -32c0 -8 0 -17 -2 -26c-2 -15 -18 -81 -88 -127c-43 -28 -124 -57 -231 -57c-13 0 -25 0 -37 1c-75 5 -117 23 -150 50c-32 26 -56 63 -56 125c0 21 2 32 12 70z" />
    <glyph glyph-name="four" unicode="4" 
d="M348 694h173v-468h89v-93h-90v-133h-203v133h-283v153zM321 519l-222 -293h222v293z" />
    <glyph glyph-name="five" unicode="5" 
d="M149 678h405l-23 -165h-330l-29 -117c7 5 15 10 23 14c33 18 77 38 151 38c24 0 71 0 131 -29c4 -2 23 -11 40 -23s34 -31 44 -44c6 -7 14 -20 19 -31c13 -27 20 -67 20 -95c0 -15 -3 -71 -37 -123c-10 -14 -23 -29 -37 -42c-40 -37 -81 -51 -93 -55
c-33 -12 -73 -24 -146 -24c-22 0 -73 0 -133 22c-11 4 -22 8 -33 14c-6 3 -25 14 -42 31c-22 22 -38 47 -38 95c0 23 2 40 13 84l109 7c-2 -7 -15 -49 -15 -81c0 -29 10 -51 17 -63c6 -9 11 -13 15 -17c6 -6 14 -13 22 -17c16 -8 41 -13 58 -13c46 0 76 30 89 52
c33 53 33 145 33 149c0 52 -12 87 -32 106c-5 5 -12 11 -24 17c-9 3 -28 10 -51 10c-6 0 -21 0 -39 -7c-14 -4 -43 -15 -70 -55c-5 -6 -8 -13 -12 -19l-80 21z" />
    <glyph glyph-name="six" unicode="6" 
d="M576 514l-108 -26c3 40 11 109 -42 141c-22 13 -42 13 -49 13c-69 0 -88 -46 -99 -78c-22 -65 -22 -123 -23 -188c8 9 16 18 24 25c29 25 66 39 130 39c42 0 78 -11 93 -18c1 -1 24 -14 38 -25c35 -29 70 -87 70 -171c0 -57 -21 -105 -34 -125c-5 -8 -29 -42 -61 -64
c-9 -5 -18 -12 -26 -16c-9 -5 -17 -8 -26 -11c-50 -21 -85 -26 -135 -26c-22 0 -85 -2 -150 40c-11 8 -27 18 -51 46c-14 16 -24 30 -33 46c-23 41 -50 116 -50 221c0 16 2 107 32 178c6 14 10 23 27 48c7 11 19 28 42 49c6 6 12 11 18 16s13 9 20 14c11 7 24 14 35 20
c27 13 85 32 158 32c10 0 100 2 161 -51c17 -14 45 -43 45 -90c0 -9 -2 -20 -6 -39zM335 378c-31 -3 -52 -25 -61 -56c-3 -12 -10 -53 -10 -94c0 -17 1 -35 1 -53c1 -17 2 -34 4 -52c4 -36 8 -52 20 -67c14 -17 31 -25 47 -25c9 0 31 2 48 27c12 19 21 79 21 141
c0 71 -6 130 -25 156c-7 10 -19 24 -45 23z" />
    <glyph glyph-name="seven" unicode="7" 
d="M600 681v-104c-16 -21 -105 -133 -159 -260c-8 -19 -27 -66 -42 -126c-28 -109 -28 -165 -29 -191h-243c1 16 2 31 6 49c5 26 22 99 66 179c24 43 65 107 143 193c12 13 24 25 36 38c17 16 35 34 49 48h-372l27 174h518z" />
    <glyph glyph-name="eight" unicode="8" 
d="M459 408c8 -4 28 -15 50 -31c14 -11 17 -13 24 -20c6 -7 13 -13 19 -19c9 -10 26 -35 33 -49c18 -36 20 -70 20 -83c0 -12 -2 -24 -4 -36c-10 -60 -38 -91 -68 -116c-47 -40 -116 -71 -225 -71c-9 0 -114 6 -183 49c-5 3 -20 13 -36 30c-28 30 -37 66 -37 96
c0 41 18 70 34 88c25 30 64 43 91 53c-29 20 -36 25 -52 40c-5 5 -13 12 -18 18s-8 11 -12 17c-6 9 -10 15 -14 23c-15 32 -16 76 -16 82c0 10 0 52 19 90c46 89 161 127 251 127c17 0 95 0 163 -48c6 -4 20 -14 32 -27c13 -14 21 -31 23 -36c4 -9 11 -25 11 -45
c0 -8 -1 -15 -2 -23c-3 -14 -9 -52 -58 -85c-13 -9 -20 -13 -45 -24zM426 425c20 27 37 52 37 107c0 25 -4 34 -9 47c-4 9 -6 13 -9 17c-4 7 -8 10 -11 12c-32 34 -75 43 -112 43c-4 0 -31 0 -51 -8c-7 -3 -29 -13 -40 -37c-6 -14 -6 -32 -6 -34c0 -9 1 -30 18 -52
c4 -5 8 -10 20 -19c24 -19 52 -31 106 -52c20 -7 37 -15 57 -24zM290 250l-78 30c-8 -9 -15 -18 -22 -27c-9 -13 -31 -48 -31 -87c0 -10 1 -19 3 -28c3 -12 9 -43 40 -70c4 -4 11 -10 22 -15c14 -8 48 -20 87 -20c7 0 49 -1 82 21c27 18 40 45 40 70c0 31 -15 51 -27 63
c-32 33 -78 48 -116 63z" />
    <glyph glyph-name="nine" unicode="9" 
d="M70 166l107 25c-5 -59 -1 -98 21 -122c1 -1 12 -13 20 -18c5 -3 9 -4 14 -6c8 -3 19 -8 36 -8c19 0 30 4 39 7c31 12 49 31 64 83c22 77 19 151 19 176c-8 -9 -18 -20 -26 -27c-28 -22 -66 -37 -126 -37c-15 0 -61 -1 -106 25c-21 12 -34 24 -42 33c-10 11 -28 37 -40 69
c-5 14 -13 48 -13 87c0 13 1 61 22 106c5 10 11 21 26 40c29 36 65 56 76 62c8 4 17 8 26 11c25 10 68 24 129 24c55 0 98 -13 120 -23c7 -4 26 -13 48 -29c13 -11 39 -36 60 -68c8 -14 17 -31 23 -46c16 -37 34 -94 34 -181c0 -26 -2 -53 -5 -79c-1 -14 -3 -28 -6 -41
c-4 -16 -9 -31 -14 -47c-5 -12 -10 -25 -16 -37s-27 -49 -66 -84c-31 -27 -68 -51 -135 -66c-14 -3 -49 -10 -90 -10c-11 0 -58 0 -99 16c-9 3 -17 7 -26 12c-6 3 -12 6 -18 10c-21 14 -62 47 -62 103c0 17 5 35 6 40zM302 648c-24 -2 -39 -24 -43 -32
c-7 -14 -15 -64 -16 -79c-1 -8 0 -16 -1 -24c0 -9 -1 -18 -1 -27c0 -18 0 -36 1 -54c1 -15 3 -31 5 -46c4 -36 12 -58 27 -72c7 -6 18 -13 35 -13c8 0 15 3 18 5c13 5 32 15 44 48c6 18 11 54 11 103c0 29 -2 57 -4 86c-1 6 -1 46 -18 75c-8 15 -30 33 -58 30z" />
    <glyph glyph-name="colon" unicode=":" horiz-adv-x="313" 
d="M174 525c5 1 12 1 23 -2c7 -1 24 -4 43 -23c23 -24 29 -55 29 -81c0 -9 2 -36 -21 -64c-31 -36 -60 -36 -71 -36c-9 0 -44 1 -70 33c-24 30 -23 60 -23 70c0 27 6 43 12 54c24 46 68 49 78 49zM174 194c4 0 24 0 41 -8c54 -25 55 -87 55 -94c0 -17 -6 -42 -15 -59
c-5 -9 -13 -18 -22 -25c-12 -9 -31 -19 -59 -19c-9 0 -41 1 -66 30c-25 32 -24 68 -24 75c0 19 3 28 6 37c7 19 34 62 84 63z" />
    <glyph glyph-name="semicolon" unicode=";" horiz-adv-x="313" 
d="M176 526c30 0 51 -14 64 -27c14 -15 28 -41 28 -81c0 -7 -1 -32 -16 -55c-12 -20 -39 -43 -77 -43c-17 0 -38 6 -53 16c-18 13 -39 45 -39 86c0 29 8 62 39 86c11 8 28 18 54 18zM100 -162l-15 32c36 22 62 46 73 58c3 3 21 26 28 41c3 7 5 15 7 22c-4 -2 -18 -7 -33 -7
c-5 0 -16 1 -30 7c-28 12 -49 36 -49 86c0 18 2 35 11 53c17 37 49 50 80 50c6 0 33 0 57 -16c3 -2 9 -6 15 -13c2 -2 10 -10 15 -18c7 -12 15 -37 15 -69c0 -22 -2 -46 -24 -91l-9 -18c-3 -5 -7 -10 -10 -15c-6 -8 -11 -17 -19 -25c-18 -21 -38 -35 -57 -48
c-30 -19 -38 -22 -55 -29z" />
    <glyph glyph-name="equal" unicode="=" horiz-adv-x="667" 
d="M667 123h-667v128h667v-128zM667 333h-667v126h667v-126z" />
    <glyph glyph-name="question" unicode="?" horiz-adv-x="625" 
d="M190 336v-73h-75l-3 190h98c5 -45 11 -62 25 -84c1 -3 10 -17 20 -26c7 -6 16 -12 30 -17c9 -3 17 -5 26 -5c7 0 44 2 63 37c9 18 16 54 16 100c0 28 -2 56 -6 83c-4 37 -7 48 -15 68c-3 7 -5 12 -9 18c-5 9 -17 20 -18 21c-10 8 -30 19 -56 19c-8 0 -37 1 -64 -22
c-20 -17 -35 -39 -35 -80c0 -9 1 -18 3 -27l-91 -1c-5 23 -6 32 -6 45c0 32 11 54 22 68c3 4 5 6 12 12c13 14 19 20 44 31c24 10 63 23 122 23c25 0 51 -2 76 -6c77 -13 125 -40 157 -68c24 -20 23 -21 34 -34c31 -42 39 -86 39 -130c0 -19 0 -73 -45 -130
c-34 -43 -102 -88 -196 -88c-12 0 -77 -1 -129 34c-8 6 -23 18 -39 42zM155 194c9 0 21 -1 30 -4c27 -7 68 -36 68 -97c0 -8 1 -43 -23 -72c-14 -16 -34 -33 -68 -33c-41 0 -66 26 -75 41c-7 10 -11 23 -13 33c-2 7 -4 16 -4 31c0 31 14 56 24 69c21 27 55 31 61 32z" />
    <glyph glyph-name="A" unicode="A" horiz-adv-x="604" 
d="M229 709h192c13 -49 26 -97 38 -145c7 -27 13 -53 20 -80c10 -37 21 -73 30 -110c31 -124 62 -248 94 -374h-238l-28 121h-209l-38 -120l-90 -1zM249 504l-92 -291h160z" />
    <glyph glyph-name="B" unicode="B" horiz-adv-x="750" 
d="M63 709h356c17 0 34 0 53 -2c11 -1 81 -8 135 -43c21 -14 75 -56 75 -133c0 -46 -18 -83 -55 -107c-38 -24 -87 -33 -156 -42v-5c23 0 84 2 146 -26c7 -2 28 -12 46 -26c11 -9 19 -18 28 -29c30 -40 33 -74 33 -95c0 -12 -2 -43 -16 -74c-17 -40 -49 -81 -136 -108
c-52 -17 -89 -17 -162 -19h-347v709zM301 658v-253c41 -1 111 -6 143 39c19 27 19 81 19 84c0 27 -5 63 -19 88c-7 12 -16 19 -20 23c-29 22 -75 22 -123 19zM301 348l1 -294c46 -1 93 0 122 15c5 2 24 13 35 30c9 14 22 48 22 94c0 39 -13 103 -44 130s-82 29 -136 25z" />
    <glyph glyph-name="C" unicode="C" horiz-adv-x="708" 
d="M651 484l-110 -18c5 26 7 40 7 56c0 11 0 86 -49 127c-17 14 -37 21 -60 21c-16 0 -32 -5 -36 -6c-32 -11 -63 -38 -80 -105c-14 -59 -18 -182 -18 -242c0 -10 0 -82 10 -137c1 -7 10 -60 38 -89c20 -20 56 -29 84 -29c55 0 91 29 104 42c22 22 55 74 55 158
c0 16 -1 27 -5 47l89 -22c1 -10 2 -19 2 -30c0 -22 -1 -109 -46 -172c-30 -43 -108 -105 -242 -105c-33 0 -146 4 -234 68c-23 17 -37 33 -45 42c-25 27 -41 54 -54 89c-12 31 -24 74 -24 149c0 35 1 142 61 236c33 52 68 79 88 94c23 16 42 27 52 31c26 13 89 38 169 38
c125 0 195 -56 222 -100c12 -19 25 -55 25 -104c0 -15 -1 -27 -3 -39z" />
    <glyph glyph-name="D" unicode="D" horiz-adv-x="792" 
d="M270 0h-207l1 706c75 0 149 -1 224 0c86 0 155 3 240 -21c11 -4 22 -6 33 -11c12 -4 24 -11 36 -18c43 -24 94 -64 129 -149c18 -45 22 -77 25 -94c3 -26 5 -52 5 -78c0 -15 0 -97 -30 -162c-11 -22 -24 -40 -30 -49c-13 -18 -22 -28 -31 -37c-18 -18 -57 -47 -106 -65
c-50 -17 -101 -23 -203 -23c-28 0 -57 1 -86 1zM310 654v-598c13 -1 26 -2 40 -2c2 0 59 -1 92 23c20 15 30 39 31 42c12 31 18 94 19 123c1 14 1 29 1 43c0 13 1 26 1 39c0 8 -3 135 -19 212c-14 62 -31 92 -68 107c-23 9 -50 11 -97 11z" />
    <glyph glyph-name="E" unicode="E" 
d="M591 707l1 -91h-280v-192h260v-93h-259v-233h315v-98h-562v707h525z" />
    <glyph glyph-name="F" unicode="F" horiz-adv-x="562" 
d="M557 710v-91h-248v-229h233v-94h-231v-296h-246v710h492z" />
    <glyph glyph-name="G" unicode="G" horiz-adv-x="750" 
d="M663 501l-105 -25c1 9 1 18 2 28c0 7 3 69 -27 113c-16 24 -42 50 -96 50c-43 0 -72 -25 -85 -43c-11 -14 -23 -38 -31 -73c-19 -84 -17 -228 -17 -233c0 -39 0 -77 2 -115c0 -1 4 -54 13 -82c2 -7 5 -14 9 -20c2 -5 4 -10 8 -14c8 -14 35 -37 71 -37c5 0 31 2 53 18
c5 4 9 6 15 15c22 30 28 83 28 161c0 22 0 43 -1 64h-121v83h312v-391h-61l-42 79c-4 -6 -25 -32 -52 -51c-32 -23 -92 -47 -172 -47c-22 0 -101 0 -174 44c-29 18 -47 35 -56 43c-5 6 -20 21 -34 41c-30 43 -63 117 -63 221c0 142 57 238 110 291c11 11 23 22 36 32
c8 5 16 12 25 17c8 6 17 9 25 14c14 7 28 14 42 19c22 8 80 24 144 24c20 0 56 0 107 -18c84 -30 115 -81 127 -117c9 -26 11 -44 8 -91z" />
    <glyph glyph-name="H" unicode="H" horiz-adv-x="771" 
d="M66 706h244v-282h153v282h245v-706h-246v333h-152v-333h-244v706z" />
    <glyph glyph-name="I" unicode="I" horiz-adv-x="375" 
d="M64 707h247v-707h-247v707z" />
    <glyph glyph-name="J" unicode="J" horiz-adv-x="583" 
d="M275 710h243v-570c-1 -5 -3 -24 -10 -38c-11 -23 -43 -57 -69 -74c-36 -25 -98 -50 -186 -50c-15 0 -71 -1 -126 27c-14 7 -30 18 -42 29c-8 7 -11 11 -23 27c-20 30 -39 64 -39 127c0 11 1 48 11 84c2 8 5 16 9 24l126 21c-10 -29 -21 -62 -21 -124
c0 -74 24 -135 72 -135c5 0 16 0 28 11c21 18 23 39 27 102v539z" />
    <glyph glyph-name="K" unicode="K" horiz-adv-x="729" 
d="M65 706h246v-366l257 366h114l-140 -201c25 -62 52 -124 76 -185c18 -47 35 -93 53 -140c23 -60 46 -120 70 -180h-242l-106 303l-82 -112v-191h-246v706z" />
    <glyph glyph-name="L" unicode="L" horiz-adv-x="604" 
d="M311 707v-605h278v-102h-524v707h246z" />
    <glyph glyph-name="M" unicode="M" horiz-adv-x="896" 
d="M542 706h285v-706h-236v560l-157 -560h-102l-164 552v-552h-105v706h275l105 -365z" />
    <glyph glyph-name="N" unicode="N" horiz-adv-x="729" 
d="M270 706l292 -397v397h99v-706h-182l-309 441v-441h-103v706h203z" />
    <glyph glyph-name="O" unicode="O" horiz-adv-x="812" 
d="M401 726c19 1 37 0 55 -3c33 -4 85 -19 119 -37c40 -21 112 -73 157 -166c8 -16 13 -32 18 -47c4 -12 12 -39 16 -71c2 -12 2 -23 3 -35c0 -12 1 -24 1 -37c0 -63 -21 -149 -67 -211c-25 -35 -61 -66 -93 -85c-85 -49 -191 -50 -210 -50c-98 0 -162 26 -204 51
c-10 6 -19 12 -28 19c-21 16 -42 39 -60 63c-21 28 -35 57 -39 66c-11 27 -29 83 -29 153c0 23 2 99 36 173c5 12 11 24 18 35c9 17 20 34 32 49c11 14 33 39 66 64c10 7 20 13 30 19c11 7 22 13 33 18c62 28 129 32 146 32zM401 669c-57 -4 -69 -66 -71 -77
c-11 -48 -18 -158 -18 -289c0 -43 1 -86 5 -129c0 -2 3 -59 23 -92c22 -35 56 -34 64 -34c3 0 25 0 39 8c8 4 12 8 16 12c13 14 22 31 29 60c12 48 16 141 16 185c0 31 -1 63 -2 95c-1 36 -3 72 -6 108c-6 63 -15 108 -39 132c-10 10 -28 23 -56 21z" />
    <glyph glyph-name="P" unicode="P" horiz-adv-x="729" 
d="M63 706h327c86 2 113 -2 160 -16c81 -25 118 -64 141 -101s32 -72 32 -110c0 -10 -1 -24 -5 -46c-5 -22 -17 -77 -88 -114c-12 -6 -24 -12 -36 -16c-22 -8 -45 -11 -52 -12c-31 -5 -63 -9 -94 -11c-46 -2 -92 -1 -138 -2v-278h-247v706zM309 650l1 -309
c61 0 102 6 126 33c11 12 14 20 18 32c9 26 10 43 10 92c0 20 -2 40 -6 60c-1 9 -9 74 -67 90c-16 4 -43 3 -82 2z" />
    <glyph glyph-name="Q" unicode="Q" horiz-adv-x="812" 
d="M654 3l60 -9c0 -10 -1 -20 -1 -31c-3 -51 -15 -78 -45 -100c-23 -18 -55 -31 -107 -31c-50 0 -87 18 -105 33c-21 17 -38 47 -44 66c-6 21 -6 42 -7 48c-22 0 -44 1 -67 3c-25 4 -148 18 -228 126c-10 14 -34 50 -49 90c-4 11 -12 39 -17 71c-3 22 -5 44 -5 67
c0 31 3 110 50 199c43 77 102 130 181 161c44 18 99 27 143 27c19 0 48 -1 93 -14c19 -6 57 -16 107 -51c17 -12 36 -29 52 -45c23 -24 50 -62 64 -92c17 -34 41 -100 41 -187c0 -26 -1 -107 -48 -191c-17 -29 -31 -46 -42 -58c-60 -63 -130 -83 -146 -88c0 -5 -1 -12 2 -23
c6 -24 30 -40 52 -40c44 1 61 35 65 53c1 7 1 6 1 16zM318 168c19 18 40 39 82 40c13 0 24 -2 36 -6c34 -13 51 -41 56 -49c3 24 6 48 7 72c3 34 3 68 3 103c0 60 -2 120 -6 181c-5 58 -12 98 -30 124c-10 14 -27 32 -57 32c-33 0 -50 -15 -61 -32
c-22 -31 -29 -103 -33 -188c-2 -47 -3 -95 -3 -142c0 -27 1 -55 2 -82c1 -18 2 -35 4 -53zM407 47c1 4 4 16 4 29c0 40 -21 60 -43 60c-4 0 -11 0 -20 -4c-10 -6 -22 -18 -22 -37c0 -3 1 -13 5 -22c13 -28 47 -29 51 -29c8 0 16 1 25 3z" />
    <glyph glyph-name="R" unicode="R" horiz-adv-x="750" 
d="M64 706h358c57 0 119 0 175 -25c21 -10 36 -19 57 -38c5 -4 17 -16 26 -27c12 -17 34 -57 34 -107c0 -9 1 -61 -40 -102c-18 -18 -44 -30 -48 -32c-49 -23 -93 -27 -111 -29c9 -1 17 -3 24 -5c10 -2 46 -9 77 -37c5 -4 9 -9 16 -18c10 -15 9 -9 21 -34
c26 -51 33 -89 43 -140c6 -28 12 -55 20 -82l9 -30h-257c-14 37 -17 41 -24 99c-5 42 -7 83 -12 124c-3 23 -9 41 -14 50c-25 40 -80 36 -112 34v-307h-242v706zM304 650l1 -275c9 -1 19 -1 29 -1c12 0 23 1 36 2c19 3 26 5 36 9c20 8 37 28 45 49c5 13 11 48 11 85
c0 30 -4 48 -7 62c-5 19 -11 35 -28 49c-26 22 -62 22 -123 20z" />
    <glyph glyph-name="S" unicode="S" horiz-adv-x="688" 
d="M608 531l-95 -23c2 6 5 17 5 32c0 22 -3 75 -72 103c-34 14 -62 18 -96 18c-31 0 -83 -3 -113 -33c-3 -2 -5 -5 -7 -8c-8 -11 -15 -21 -15 -42s11 -40 16 -46c18 -23 53 -34 56 -35c34 -12 69 -17 104 -24c91 -19 135 -36 178 -67c44 -32 60 -59 71 -82
c11 -25 19 -50 19 -95c0 -15 0 -55 -19 -100c-2 -5 -9 -20 -18 -35c-13 -19 -29 -33 -33 -37c-16 -14 -35 -31 -82 -50c-34 -13 -86 -27 -164 -27c-12 0 -81 1 -136 14c-18 5 -36 11 -53 17c-9 4 -70 29 -103 74c-29 40 -31 90 -31 100c0 16 3 30 6 45l111 14
c-7 -20 -11 -33 -11 -54c0 -47 22 -73 42 -90c46 -39 113 -48 161 -48c7 0 51 1 84 14c7 3 6 2 16 9c38 25 37 54 37 65c0 23 -6 47 -33 66c-3 2 -7 4 -11 7c-22 12 -28 14 -64 22c-21 6 -43 10 -65 15c-34 8 -68 17 -101 28c-60 20 -95 48 -113 69c-9 10 -23 27 -32 50
c-5 11 -9 23 -13 46c-2 15 -4 29 -4 44c0 14 2 28 4 42c1 8 7 59 51 108c31 33 74 54 81 57c30 14 88 34 167 34c18 0 110 -1 185 -41c8 -4 26 -14 47 -34c24 -21 46 -51 46 -102c0 -9 -2 -17 -3 -20z" />
    <glyph glyph-name="T" unicode="T" 
d="M645 706v-96h-201v-610h-247v610h-199v96h647z" />
    <glyph glyph-name="U" unicode="U" horiz-adv-x="750" 
d="M65 706h248v-481c1 -50 1 -74 11 -99c12 -31 43 -54 96 -54c12 0 67 2 114 37c7 6 29 25 41 48c10 20 10 30 15 79v470h100v-486c-2 -28 -4 -60 -26 -99c-7 -13 -14 -23 -24 -36c-11 -13 -19 -19 -32 -30c-96 -76 -223 -76 -243 -76c-73 0 -120 18 -152 31
c-15 6 -31 13 -46 22c-8 5 -29 19 -47 34c-4 3 -18 16 -29 33c-7 9 -12 18 -15 27c-5 14 -7 26 -11 63v517z" />
    <glyph glyph-name="V" unicode="V" horiz-adv-x="667" 
d="M-2 709l267 -1c20 -67 40 -134 61 -201c13 -46 27 -91 41 -136c14 -49 27 -98 41 -147c7 26 15 53 23 80c17 57 36 114 55 170c26 78 51 156 77 234h103l-234 -707h-192z" />
    <glyph glyph-name="W" unicode="W" horiz-adv-x="1042" 
d="M-6 706h257l124 -476l128 476h184l106 -478l143 478h101l-224 -706h-188l-113 408l-108 -408h-193z" />
    <glyph glyph-name="X" unicode="X" horiz-adv-x="708" 
d="M35 706h287l104 -194l127 194h117l-188 -298l221 -408h-277l-145 263l-161 -263h-117l221 365z" />
    <glyph glyph-name="Y" unicode="Y" 
d="M-3 706h274l133 -345l136 346h105l-190 -474v-233h-249l2 208z" />
    <glyph glyph-name="Z" unicode="Z" 
d="M69 706h574v-161l-393 -444h371v-101h-614v179l372 436h-310v91z" />
    <glyph glyph-name="bracketleft" unicode="[" horiz-adv-x="354" 
d="M64 768h262v-61h-124v-751h124v-59h-262v871z" />
    <glyph glyph-name="backslash" unicode="\" horiz-adv-x="354" 
d="M230 -18l-228 724h128l228 -724h-128z" />
    <glyph glyph-name="bracketright" unicode="]" horiz-adv-x="354" 
d="M287 -103h-262v61h124v751h-124v59h262v-871z" />
    <glyph glyph-name="underscore" unicode="_" horiz-adv-x="500" 
d="M510 -240h-520v127h520v-127z" />
    <glyph glyph-name="quoteleft" unicode="&#x2018;" horiz-adv-x="271" 
d="M161 716l22 -28c-11 -10 -21 -19 -30 -29c-41 -44 -50 -78 -54 -96c5 3 22 11 39 11c26 0 38 -9 49 -21c13 -12 27 -33 27 -67c0 -4 -1 -26 -9 -44c-10 -22 -37 -49 -79 -49c-16 0 -31 3 -45 12c-27 15 -49 50 -49 102c0 6 1 25 5 43c12 52 39 86 57 107
c12 14 28 33 67 59z" />
    <glyph glyph-name="a" unicode="a" horiz-adv-x="604" 
d="M623 66l-1 -62c-62 -16 -84 -18 -118 -18c-10 0 -64 -1 -107 29c-5 4 -20 16 -36 35c-9 -10 -28 -31 -57 -44c-16 -8 -62 -25 -110 -25c-8 0 -52 1 -87 17c-5 2 -14 7 -25 15c-6 4 -23 17 -38 38c-11 16 -27 44 -27 85c0 49 20 81 38 102c12 14 26 29 59 44
c30 13 47 15 78 22c21 5 43 12 64 19c2 1 35 12 56 29c12 10 28 29 28 59c0 4 -1 25 -10 40c-3 6 -3 7 -10 14c-13 15 -32 24 -66 24c-44 0 -68 -11 -88 -32c-6 -7 -10 -12 -11 -13c-7 -10 -16 -30 -16 -55c0 -11 2 -23 4 -35l-89 14c-7 20 -8 26 -8 45c0 11 -1 34 20 61
c7 9 14 15 17 18c4 3 12 8 21 14c18 10 26 14 56 23c27 8 59 15 117 15c22 0 69 -3 127 -18c2 0 70 -16 108 -57c26 -29 25 -56 26 -88c1 -22 1 -45 1 -67c0 -55 1 -109 1 -164c0 -15 0 -30 2 -45c1 -12 1 -21 11 -33c9 -10 19 -13 29 -13c11 0 20 2 41 7zM340 178v130
c-6 -4 -11 -8 -17 -11c-14 -9 -29 -17 -43 -25c-3 -2 -40 -20 -57 -49c-12 -20 -18 -48 -18 -93c1 -33 8 -58 20 -70c5 -5 17 -13 33 -13c8 0 41 4 65 37c18 24 17 46 17 94z" />
    <glyph glyph-name="b" unicode="b" 
d="M256 713v-233c5 6 12 12 25 22c21 16 55 38 107 38c18 0 73 -1 130 -49c22 -19 34 -35 39 -41c27 -37 57 -104 57 -197c0 -9 2 -136 -89 -214c-31 -27 -91 -57 -169 -57c-21 0 -86 0 -146 50c-20 17 -35 39 -42 48l-52 -81h-62v690c50 0 99 3 149 12c17 4 35 8 53 12z
M322 482c-19 -3 -41 -23 -52 -59c-9 -28 -10 -52 -12 -107c-1 -26 -2 -52 -2 -77c0 -29 1 -59 3 -88c0 -7 2 -48 14 -78c2 -6 16 -42 50 -42c13 0 24 5 34 18c19 24 24 64 27 123c3 33 3 67 3 101c0 81 -4 142 -18 174c-9 22 -26 37 -47 35z" />
    <glyph glyph-name="c" unicode="c" horiz-adv-x="583" 
d="M534 356l-87 -18c2 9 5 17 5 36c0 6 -1 11 -1 17c-2 27 -6 39 -18 58c-23 37 -53 42 -67 42c-33 0 -58 -16 -70 -31c-33 -41 -38 -123 -39 -164c-1 -18 -2 -36 -2 -54c0 -29 2 -58 6 -85c5 -35 18 -63 36 -79c12 -12 40 -27 70 -27c12 0 16 1 22 3c7 1 38 8 63 33
c37 38 36 99 36 103c0 16 -1 23 -7 50l72 -17c3 -15 4 -30 4 -46c0 -54 -18 -97 -34 -118c-20 -26 -44 -40 -66 -50c-28 -13 -70 -28 -135 -28c-16 0 -121 0 -197 55c-73 53 -92 142 -92 206c0 88 29 146 56 184c84 119 225 116 240 116c14 0 58 0 100 -14
c17 -5 35 -15 41 -18c9 -5 36 -21 50 -46c5 -9 19 -37 19 -65c0 -15 -3 -29 -5 -43z" />
    <glyph glyph-name="d" unicode="d" 
d="M596 714v-714h-202v81c-5 -7 -24 -43 -58 -66c-17 -11 -51 -27 -96 -27c-14 0 -59 2 -103 34c-6 5 -22 17 -40 39c-63 75 -64 175 -64 191c0 17 0 125 68 208c27 33 82 80 159 80c13 0 52 0 93 -32c4 -3 13 -11 22 -21c7 -7 16 -22 21 -30l2 233c39 2 79 4 119 9
c27 3 53 9 79 15zM311 474c-17 -1 -27 -12 -32 -20c-17 -30 -25 -123 -25 -218c0 -33 1 -66 4 -99c3 -30 5 -46 15 -62c6 -9 17 -21 39 -21c6 0 15 0 29 15c34 34 47 109 47 199c0 20 0 39 -1 59c-1 62 -11 108 -36 131c-7 7 -20 18 -40 16z" />
    <glyph glyph-name="e" unicode="e" horiz-adv-x="604" 
d="M570 241l-315 -1c0 -15 0 -29 1 -44c1 -19 3 -74 27 -107c23 -30 65 -40 93 -40c16 0 109 -1 128 94c2 11 2 23 2 47l63 -17c1 -9 7 -85 -44 -134c-6 -5 -19 -17 -34 -25c-45 -26 -106 -32 -151 -32c-240 0 -304 149 -304 264c1 71 24 127 39 153c18 33 36 53 48 64
c34 33 105 76 199 76c9 0 57 -2 93 -17c6 -2 26 -11 45 -23c31 -21 55 -51 59 -56c9 -12 20 -31 30 -59c25 -68 21 -116 21 -143zM256 301h132c1 37 2 74 -3 110c0 1 -4 39 -16 59c-8 13 -21 26 -48 26c-7 0 -21 0 -36 -17c-4 -5 -8 -10 -8 -11c-17 -31 -20 -135 -21 -167z
" />
    <glyph glyph-name="f" unicode="f" horiz-adv-x="437" 
d="M457 587l-102 -19c3 12 5 21 5 33c0 46 -20 71 -47 72c-16 -1 -39 -15 -39 -50c0 -23 11 -49 23 -97h143v-80h-136v-445h-205v445h-99l1 79h96c-4 18 -7 35 -7 53c0 11 0 25 9 49c2 4 3 9 9 17c8 14 27 36 61 51c21 9 76 25 137 25c64 0 109 -13 134 -41
c14 -17 21 -42 21 -61c0 -12 -1 -19 -4 -31z" />
    <glyph glyph-name="g" unicode="g" horiz-adv-x="625" 
d="M428 523c6 -2 13 -4 19 -6c17 -5 91 -27 121 -96c7 -15 14 -31 14 -64c0 -10 2 -72 -55 -114c-17 -14 -35 -22 -70 -33c-28 -8 -68 -17 -129 -17c-22 0 -43 1 -65 3c-15 2 -31 5 -47 7c-26 -10 -32 -27 -32 -38c0 -4 0 -15 10 -24c16 -14 35 -15 71 -15c40 0 81 0 122 1
c57 2 119 4 176 -42c13 -11 26 -22 40 -49c14 -28 14 -47 14 -58c0 -54 -28 -83 -54 -102c-6 -5 -13 -11 -20 -15c-24 -13 -62 -26 -85 -31c-26 -6 -75 -14 -140 -14c-62 0 -203 8 -262 49c-10 7 -16 16 -20 21c-3 5 -9 15 -9 28c0 4 1 17 10 28c18 24 51 32 76 36
c-25 10 -43 20 -62 42c-12 13 -25 33 -25 65c0 13 2 49 42 84c32 28 87 48 91 50c-10 5 -43 18 -67 45c-17 19 -37 50 -37 97c0 8 0 38 15 65c28 49 99 93 200 106c19 2 38 4 57 4s38 -2 57 -3c1 10 2 19 4 29c5 27 14 58 32 83c7 10 13 17 20 23c7 7 10 9 21 16
c16 10 33 19 65 19c42 0 91 -23 91 -75c0 -5 2 -51 -42 -71c-4 -1 -17 -7 -30 -7c-25 0 -49 18 -74 18c-6 0 -25 -1 -37 -23c-3 -7 -5 -15 -6 -22zM319 485c-30 1 -48 -21 -55 -35c-12 -25 -14 -71 -14 -96c0 -16 1 -32 3 -48c1 -7 3 -29 19 -48c2 -3 6 -8 13 -13
c14 -9 32 -10 35 -10c8 0 22 3 29 6c13 6 24 20 28 29c7 15 12 46 12 86c0 45 -8 81 -17 98c-8 14 -23 31 -53 31zM283 -37c-19 1 -39 0 -58 1c-14 0 -28 2 -42 -2c-17 -4 -33 -20 -33 -36c0 -4 0 -21 18 -35c32 -24 127 -28 158 -28c25 0 50 2 75 7c22 4 41 12 48 16
c8 5 19 19 19 34c0 22 -24 31 -29 32c-20 6 -52 7 -98 9c-19 1 -38 2 -58 2z" />
    <glyph glyph-name="h" unicode="h" 
d="M257 714v-278c13 23 25 40 46 58c24 20 61 42 118 42c38 0 86 -11 124 -41c19 -16 31 -33 39 -54c6 -17 7 -32 6 -66v-375h-203v377c-1 15 -3 23 -5 30c-3 10 -14 38 -45 38c-8 0 -26 -3 -46 -30c-9 -12 -17 -32 -17 -34c-15 -41 -16 -91 -17 -100v-281h-203v690
c47 2 93 4 140 11c21 3 42 8 63 13z" />
    <glyph glyph-name="i" unicode="i" horiz-adv-x="313" 
d="M147 724c10 1 78 4 110 -40c12 -16 13 -32 13 -40c0 -37 -28 -57 -38 -62c-13 -6 -25 -9 -39 -12c-7 -1 -22 -4 -41 -4c-28 0 -69 9 -90 29c-13 13 -21 34 -21 52c0 51 52 69 62 72c9 2 23 5 44 5zM258 537v-537h-205v508c43 3 108 5 205 29z" />
    <glyph glyph-name="j" unicode="j" horiz-adv-x="313" 
d="M154 723c40 2 67 -5 84 -15c14 -8 37 -26 37 -60c0 -3 0 -18 -6 -31c-5 -10 -16 -25 -39 -35c-30 -15 -70 -15 -77 -15c-20 0 -28 2 -39 4c-38 8 -69 34 -69 75c0 33 27 54 39 61c9 5 20 7 22 8c16 5 19 8 48 8zM259 538v-390c-3 -78 3 -78 15 -128c1 -6 6 -29 6 -51
c0 -27 -8 -62 -26 -89c-7 -10 -11 -14 -16 -19c-54 -51 -152 -49 -154 -49c-69 0 -119 21 -143 48c-21 25 -20 44 -20 54c0 24 4 32 8 44l92 17c-2 -11 -4 -22 -4 -33c0 -30 8 -48 23 -57c3 -2 13 -7 23 -7c18 0 43 15 43 53c0 14 -5 37 -22 72c-7 14 -14 28 -19 42
c-9 26 -12 48 -12 99l1 368c21 1 43 2 65 4c47 4 94 11 140 22z" />
    <glyph glyph-name="k" unicode="k" 
d="M258 714v-462l231 272h130l-143 -158l145 -366h-209l-72 216l-84 -94v-122h-203l1 689c28 1 57 3 86 6c39 5 78 12 118 19z" />
    <glyph glyph-name="l" unicode="l" horiz-adv-x="313" 
d="M260 716v-716h-208v689c39 1 77 4 116 9c18 2 36 4 54 8c13 2 26 6 38 10z" />
    <glyph glyph-name="m" unicode="m" horiz-adv-x="979" 
d="M258 535l-3 -91c6 10 27 43 58 64c18 12 56 28 103 28c9 0 48 -1 82 -16c15 -6 29 -17 34 -21c19 -17 37 -36 47 -79c3 8 24 51 57 78c22 17 60 37 112 37c57 -1 95 -21 119 -41c21 -17 31 -31 36 -39c10 -16 14 -32 15 -38c2 -10 4 -20 5 -30v-387h-204v381
c0 5 2 28 -17 46c-6 6 -13 11 -27 11c-33 0 -48 -23 -56 -36c-6 -12 -11 -22 -14 -33c-8 -24 -11 -52 -16 -103v-266h-203v328c-1 30 -3 74 -14 92c-8 14 -23 19 -36 19c-10 -1 -33 -3 -52 -37c-22 -39 -25 -100 -28 -140v-262h-203v512c47 2 93 4 139 10c22 4 44 8 66 13z
" />
    <glyph glyph-name="n" unicode="n" 
d="M256 537v-92c19 32 29 41 47 54c8 6 20 13 27 17c17 8 50 20 92 20c13 0 46 -2 82 -18c47 -22 70 -59 75 -72c7 -19 9 -41 9 -80v-366h-206v371c0 25 -1 38 -8 50c-5 10 -15 22 -36 22c-8 0 -22 -2 -42 -20c-39 -36 -39 -96 -41 -133v-290h-203v514c110 4 144 8 204 23z
" />
    <glyph glyph-name="o" unicode="o" horiz-adv-x="667" 
d="M341 542c22 0 142 1 226 -100c6 -7 25 -30 39 -61c10 -20 29 -73 29 -132c0 -19 -3 -82 -40 -143c-5 -10 -34 -52 -73 -79c-39 -26 -101 -47 -193 -47c-15 0 -115 -1 -190 51c-28 19 -57 53 -74 84c-30 56 -33 125 -33 138c0 15 3 63 22 112c5 12 12 25 19 38
c11 19 13 22 28 39c5 7 10 12 14 17c12 12 20 19 46 36c38 24 93 47 180 47zM333 492c-23 0 -51 -12 -62 -60c-9 -37 -15 -119 -15 -219c0 -34 1 -67 7 -101c0 -4 4 -38 21 -61c7 -9 23 -21 47 -21c10 0 39 1 58 32c16 25 22 93 22 167c0 35 -1 70 -3 105c-1 31 -3 61 -9 92
c-3 15 -6 28 -18 43c-9 10 -23 22 -48 23z" />
    <glyph glyph-name="p" unicode="p" 
d="M255 540v-84c3 6 21 34 46 53c23 17 53 32 100 32c15 0 42 -1 80 -20c48 -25 81 -66 100 -101c16 -31 37 -87 37 -165c0 -69 -15 -181 -107 -240c-23 -15 -64 -35 -120 -35c-48 0 -77 13 -98 28c-15 11 -27 26 -40 44v-233h-202v694l60 3c34 3 66 7 99 13
c15 3 30 7 45 11zM338 469c-4 -1 -15 -3 -27 -15c-21 -19 -29 -46 -30 -49c-21 -58 -21 -118 -21 -135c-1 -12 -1 -24 -1 -35c0 -1 -1 -99 31 -155c6 -12 22 -36 49 -36c25 0 39 24 42 33c9 21 13 96 13 167c0 45 -1 91 -4 136c-3 37 -8 65 -21 78c-12 12 -27 11 -31 11z
" />
    <glyph glyph-name="q" unicode="q" 
d="M473 455l52 72h67v-706h-205v232c-25 -41 -67 -72 -140 -72c-59 0 -96 20 -120 38c-16 12 -32 27 -46 48c-23 33 -48 94 -48 176c0 25 1 89 40 161c4 8 9 16 15 25c5 7 12 15 18 21c83 92 182 93 208 93c13 0 26 -1 39 -3c11 -2 58 -8 95 -47c7 -9 15 -19 25 -38z
M320 492c-40 -1 -51 -41 -57 -94c-7 -54 -9 -109 -9 -163c0 -29 1 -58 3 -86c0 -1 1 -43 15 -66c4 -9 17 -26 40 -26c10 0 33 2 49 31c23 39 31 117 31 217c0 26 -2 52 -4 78c-4 42 -2 35 -13 65c-6 15 -16 46 -55 44z" />
    <glyph glyph-name="r" unicode="r" horiz-adv-x="542" 
d="M526 295l-168 1c1 7 9 34 9 60c0 27 -6 47 -16 56c-5 5 -11 7 -18 7c-12 0 -20 -7 -25 -10c-27 -23 -35 -59 -36 -63c-13 -45 -15 -74 -17 -159c-1 -62 -1 -125 -1 -187h-201v513c37 2 75 4 112 8c30 4 60 9 90 16l-7 -129c17 31 20 35 33 53c17 22 50 62 104 77
c17 4 32 5 38 5c10 0 44 -1 76 -30c48 -44 46 -106 46 -117c0 -48 -13 -81 -19 -101z" />
    <glyph glyph-name="s" unicode="s" horiz-adv-x="542" 
d="M481 386l-84 -10c1 6 7 38 -6 63c-23 43 -90 52 -122 52c-4 0 -38 1 -63 -14c-6 -5 -6 -5 -10 -8c-20 -19 -20 -34 -20 -43c0 -26 27 -42 34 -47c19 -10 39 -13 78 -22c31 -7 63 -14 94 -24c13 -4 84 -22 120 -85c11 -19 22 -41 22 -81c0 -61 -26 -102 -51 -126
c-11 -10 -34 -25 -44 -30c-12 -6 -18 -8 -39 -14c-55 -15 -94 -15 -117 -15c-3 0 -129 -4 -197 54c-9 8 -29 30 -38 54c-7 19 -7 35 -7 42c0 11 2 20 8 40l98 8c-3 -15 -6 -30 -6 -46c0 -6 0 -31 15 -52c15 -22 47 -40 95 -46c10 -2 21 -3 31 -3c20 0 76 7 93 38
c6 10 6 21 6 24c-1 23 -9 46 -51 64c-14 6 -64 19 -113 31c-13 2 -26 5 -38 8c-11 3 -22 7 -33 11c-15 6 -49 18 -76 54c-7 10 -14 22 -18 32c-2 6 -6 17 -8 32c-2 12 -3 24 -3 36c0 89 59 133 103 154c26 11 71 25 136 25c84 0 153 -25 185 -55c3 -4 6 -7 9 -11
c8 -10 22 -29 22 -57c0 -15 -4 -28 -5 -33z" />
    <glyph glyph-name="t" unicode="t" horiz-adv-x="458" 
d="M301 716v-191h141v-81h-141v-292c1 -18 3 -29 7 -37c9 -16 32 -31 64 -31c17 0 31 2 64 12v-75c-13 -5 -25 -11 -38 -15c-19 -5 -60 -17 -110 -17c-8 0 -103 0 -159 50c-32 28 -32 52 -32 70v335h-98v81h98l1 164c110 6 142 12 203 27z" />
    <glyph glyph-name="u" unicode="u" 
d="M589 536v-536h-203l5 99c-5 -10 -14 -29 -36 -53c-18 -19 -33 -29 -40 -34c-43 -26 -92 -26 -104 -26c-80 0 -133 36 -151 82c-9 21 -9 41 -8 63l1 383c29 1 57 2 85 5c40 4 80 10 121 17l-6 -387c3 -23 4 -67 44 -67c31 0 49 32 55 42c16 26 24 52 31 106l5 283
c36 2 72 4 108 9c31 4 62 9 93 14z" />
    <glyph glyph-name="v" unicode="v" horiz-adv-x="542" 
d="M459 525h87l-179 -525h-172l-196 525l216 -1c16 -46 33 -92 50 -138c17 -45 34 -90 49 -134c10 -29 19 -58 29 -86c9 32 18 64 29 95c13 41 27 81 40 121c16 48 31 95 47 143z" />
    <glyph glyph-name="w" unicode="w" horiz-adv-x="854" 
d="M-6 523h203l94 -323l36 123c12 37 24 74 37 111c9 30 19 60 28 90h167l97 -320l112 321h86l-191 -525h-137l-111 328l-113 -328h-140z" />
    <glyph glyph-name="x" unicode="x" horiz-adv-x="604" 
d="M6 523h232l99 -143l105 144h123l-172 -224l210 -300h-235l-119 176l-132 -176h-122l197 256z" />
    <glyph glyph-name="y" unicode="y" horiz-adv-x="542" 
d="M-5 524h230l129 -306l100 306h88c-27 -75 -55 -149 -81 -224c-27 -77 -54 -154 -83 -230c-13 -32 -25 -65 -39 -96c-27 -59 -53 -94 -82 -117c-22 -18 -58 -38 -113 -38c-35 0 -62 9 -76 16c-1 1 -12 7 -18 11c-8 7 -12 11 -15 15c-15 17 -29 41 -29 82c0 11 2 22 3 33
l100 20c-1 -5 -8 -24 -8 -43c0 -29 10 -44 25 -54c8 -5 20 -11 38 -11c17 1 29 7 36 12c27 18 42 49 54 74z" />
    <glyph glyph-name="z" unicode="z" horiz-adv-x="542" 
d="M512 524v-152l-278 -287h278v-85h-493v148l285 289h-247v87h455z" />
    <glyph glyph-name="braceleft" unicode="{" horiz-adv-x="354" 
d="M112 414v177c2 61 17 112 77 139c42 19 79 17 165 18v-8c-12 -2 -23 -5 -35 -9c-17 -5 -54 -21 -67 -69c-7 -23 -6 -44 -7 -90v-95c-1 -93 2 -138 -25 -179c-20 -29 -47 -40 -80 -49c29 -8 52 -17 73 -41c34 -38 33 -81 33 -176v-107c0 -40 -3 -81 20 -117
c22 -35 51 -40 88 -51v-7h-46c-50 1 -104 2 -147 35c-51 39 -48 106 -49 163v126c0 47 5 94 -24 134c-4 6 -13 18 -29 27c-11 7 -21 10 -25 11v7c17 4 26 9 32 13c49 32 46 100 46 148z" />
    <glyph glyph-name="braceright" unicode="}" horiz-adv-x="354" 
d="M242 83v-175c-2 -62 -18 -115 -80 -142c-40 -17 -77 -16 -162 -16v7c36 8 65 15 88 47c22 31 20 55 21 122v95c0 92 -2 139 27 179c20 29 46 40 78 48c-29 8 -52 18 -72 41c-35 39 -34 82 -34 176v108c0 41 3 86 -23 122c-22 30 -51 36 -85 45v8c15 0 30 -1 46 -1
c50 0 104 -2 147 -34c51 -40 48 -107 49 -163v-127c0 -46 -5 -94 24 -134c4 -6 13 -17 29 -27c11 -7 21 -9 25 -10v-8c-11 -2 -22 -6 -32 -13c-48 -31 -46 -100 -46 -148z" />
    <glyph glyph-name="exclamdown" unicode="&#xa1;" horiz-adv-x="333" 
d="M141 719c9 1 34 1 60 -20s36 -57 36 -84c0 -10 1 -42 -25 -72c-4 -4 -9 -10 -19 -17c-9 -5 -27 -14 -50 -14c-7 0 -16 0 -31 6c-27 9 -63 36 -63 95c0 3 1 29 8 47c9 25 35 57 84 59zM182 374l18 -57c18 -59 37 -117 55 -175c12 -37 17 -55 17 -73c0 -16 -5 -25 -10 -32
c-29 -37 -90 -46 -120 -46c-9 0 -43 1 -75 18c-39 21 -47 48 -47 63c0 11 4 25 7 35c2 9 4 18 7 26l45 180c5 20 10 39 15 58c7 28 10 43 20 54c5 5 11 9 22 9c3 0 12 1 20 -5c18 -13 20 -36 26 -55z" />
    <glyph glyph-name="sterling" unicode="&#xa3;" horiz-adv-x="604" 
d="M605 455l-128 -51c2 6 3 12 5 17c2 10 6 42 6 74c0 8 0 31 -6 55c-3 9 -23 81 -83 100c-7 2 -16 4 -32 4c-9 0 -27 0 -50 -19c-31 -28 -36 -70 -36 -100c0 -57 22 -98 49 -154c9 -18 17 -37 25 -56h110v-73h-93c1 -9 2 -18 2 -26c0 -6 0 -55 -15 -88
c-4 -9 -8 -16 -20 -34c22 -18 44 -36 68 -36c18 0 34 10 47 28c23 33 26 76 26 83c0 10 -1 20 -2 31l112 -40c-10 -45 -21 -81 -68 -125c-26 -23 -76 -58 -142 -58c-13 0 -51 2 -90 21c-11 5 -21 11 -32 18c-19 -9 -61 -33 -112 -33c-7 0 -17 -1 -33 4c-9 2 -54 17 -73 60
c-4 8 -10 25 -10 47c0 24 9 53 29 76c16 19 47 42 91 42h9c30 -2 49 -10 79 -27c4 -3 19 -11 32 -23c5 -4 6 -5 13 -13c1 7 1 13 1 19c-1 35 -20 61 -29 75h-154v73h80c-15 12 -30 25 -42 37c-23 23 -67 75 -67 145c0 54 30 118 87 159c39 27 95 50 184 50
c57 0 100 -12 122 -21c31 -11 61 -35 70 -44c22 -21 52 -61 64 -126c5 -23 5 -47 6 -71zM204 70c-32 26 -64 32 -75 32c-13 0 -34 -9 -34 -27c0 -1 0 -6 2 -10c5 -9 19 -20 39 -20c6 0 28 2 49 13c7 3 13 8 19 12z" />
    <glyph glyph-name="fraction" unicode="&#x2044;" horiz-adv-x="125" 
d="M178 677h40l-275 -678h-40z" />
    <glyph glyph-name="section" unicode="&#xa7;" 
d="M572 531l-95 -23c1 13 3 26 3 39c0 37 -15 55 -33 70c-13 12 -26 18 -33 22c-13 6 -56 21 -97 21c-7 0 -33 -1 -55 -11c-23 -11 -36 -30 -39 -38c-3 -9 -3 -15 -3 -19c0 -32 18 -48 32 -58c15 -11 22 -16 52 -27c18 -8 35 -14 53 -20c36 -12 73 -25 109 -39
c6 -2 11 -4 17 -6c4 -2 9 -5 13 -7c5 -2 10 -4 14 -6c7 -3 39 -20 60 -45c15 -18 33 -48 33 -96c0 -12 -1 -49 -30 -84c-4 -4 -12 -14 -23 -23c-10 -6 -17 -10 -35 -16c6 -5 14 -12 21 -18c15 -14 31 -27 44 -66c7 -23 8 -37 8 -48c0 -82 -59 -134 -97 -155
c-34 -20 -96 -42 -181 -42c-94 0 -159 24 -198 51c-18 12 -38 32 -52 53c-18 27 -26 57 -26 84c0 14 2 27 4 41l116 18c-9 -25 -12 -35 -12 -60c0 -23 6 -40 21 -60c14 -18 39 -35 58 -42c15 -6 51 -15 93 -15c7 0 53 1 87 22c12 7 37 29 37 58c0 38 -29 56 -42 63
c-23 13 -41 19 -85 34c-37 13 -73 26 -109 39c-4 1 -69 20 -105 49c-7 5 -12 10 -19 18c-16 20 -31 44 -31 90c0 10 0 71 52 113c7 5 25 19 45 25c-7 6 -14 10 -20 15c-4 4 -20 20 -31 37c-24 36 -26 76 -26 87c0 10 2 54 32 92c5 5 14 16 30 27c39 28 94 50 184 50
c110 0 183 -28 224 -77c11 -13 27 -35 33 -72c2 -11 3 -22 2 -45zM429 205l45 -18c6 8 21 24 21 47c0 17 -5 26 -13 33c-12 13 -18 15 -32 21c-25 11 -49 21 -74 30c-29 10 -57 21 -86 32c-18 6 -35 12 -52 19c-18 7 -37 15 -55 23c-7 -10 -18 -24 -18 -48
c0 -42 47 -59 112 -84c30 -11 60 -23 90 -33c21 -7 42 -14 62 -22z" />
    <glyph glyph-name="quotedblleft" unicode="&#x201c;" horiz-adv-x="500" 
d="M162 720l21 -30c-8 -7 -15 -13 -23 -20c-4 -5 -8 -9 -12 -14c-38 -43 -44 -70 -50 -89c15 6 25 10 40 10c5 0 16 0 30 -7c19 -10 45 -36 45 -80c0 -5 -1 -25 -9 -43c-10 -24 -37 -51 -80 -51c-14 0 -35 5 -49 15c-24 17 -44 49 -44 99c0 22 5 81 55 141c5 6 11 14 17 20
c11 11 30 29 59 49zM415 718l22 -28c-50 -45 -71 -74 -85 -124c15 6 25 10 40 10c4 0 23 -1 37 -11c5 -3 9 -7 15 -14c1 -1 8 -8 11 -14c6 -10 12 -26 12 -49c0 -6 0 -35 -20 -60c-14 -18 -35 -33 -71 -33c-39 0 -64 28 -73 42c-7 12 -18 39 -18 72c0 22 6 96 75 163
c7 7 13 14 21 21c10 9 22 17 34 25z" />
    <glyph glyph-name="guillemotleft" unicode="&#xab;" horiz-adv-x="604" 
d="M130 416h182l-118 -141l118 -140h-180l-118 140zM402 415h176l-114 -140l122 -140h-183l-117 141z" />
    <glyph glyph-name="fi" unicode="&#xfb01;" horiz-adv-x="750" 
d="M457 587l-102 -19c3 12 5 21 5 33c0 46 -20 71 -47 72c-16 -1 -39 -15 -39 -50c0 -23 11 -49 23 -97h143v-80h-136v-445h-205v445h-99l1 79h96c-4 18 -7 35 -7 53c0 11 0 25 9 49c2 4 3 9 9 17c8 14 27 36 61 51c21 9 76 25 137 25c64 0 109 -13 134 -41
c14 -17 21 -42 21 -61c0 -12 -1 -19 -4 -31zM584 724c10 1 78 4 110 -40c12 -16 13 -32 13 -40c0 -37 -28 -57 -38 -62c-13 -6 -25 -9 -39 -12c-7 -1 -22 -4 -41 -4c-28 0 -69 9 -90 29c-13 13 -21 34 -21 52c0 51 52 69 62 72c9 2 23 5 44 5zM695 537v-537h-205v508
c43 3 108 5 205 29z" />
    <glyph glyph-name="fl" unicode="&#xfb02;" horiz-adv-x="750" 
d="M457 587l-102 -19c3 12 5 21 5 33c0 46 -20 71 -47 72c-16 -1 -39 -15 -39 -50c0 -23 11 -49 23 -97h143v-80h-136v-445h-205v445h-99l1 79h96c-4 18 -7 35 -7 53c0 11 0 25 9 49c2 4 3 9 9 17c8 14 27 36 61 51c21 9 76 25 137 25c64 0 109 -13 134 -41
c14 -17 21 -42 21 -61c0 -12 -1 -19 -4 -31zM697 716v-716h-208v689c39 1 77 4 116 9c18 2 36 4 54 8c13 2 26 6 38 10z" />
    <glyph glyph-name="endash" unicode="&#x2013;" 
d="M42 346h563v-145h-563v145z" />
    <glyph glyph-name="dagger" unicode="&#x2020;" horiz-adv-x="625" 
d="M425 707v-221h158v-97h-159v-390h-223v390h-158v97h160v221h222z" />
    <glyph glyph-name="periodcentered" unicode="&#xb7;" horiz-adv-x="187" 
d="M91 201c-47 1 -87 40 -86 88c0 6 1 20 7 34c7 18 31 56 84 56c51 0 87 -39 87 -89c0 -14 -3 -27 -9 -39c-7 -14 -34 -51 -83 -50z" />
    <glyph glyph-name="bullet" unicode="&#x2022;" horiz-adv-x="333" 
d="M322 352c0 -12 -1 -38 -13 -65c-24 -58 -78 -90 -139 -90c-33 0 -57 9 -68 14c-54 25 -90 82 -90 142c0 87 72 155 157 155c32 0 55 -9 66 -14c29 -14 87 -54 87 -142z" />
    <glyph glyph-name="quotesinglbase" unicode="&#x201a;" horiz-adv-x="271" 
d="M57 -163l-14 31c49 32 69 53 86 75c9 11 14 19 16 24c3 8 5 15 7 22c-14 -4 -20 -6 -34 -6c-10 0 -22 3 -32 7c-47 22 -47 73 -47 82c0 7 0 42 20 71c1 2 5 7 11 12c1 1 10 9 15 12c8 5 27 11 48 11c9 0 35 1 62 -21c11 -9 20 -20 25 -31c5 -9 5 -12 9 -26
c3 -11 4 -23 4 -34c0 -13 -1 -27 -4 -40c-8 -35 -23 -61 -31 -74c-12 -19 -19 -29 -27 -38c-15 -16 -29 -30 -64 -51c-9 -6 -18 -12 -27 -17c-8 -4 -16 -7 -23 -9z" />
    <glyph glyph-name="quotedblbase" unicode="&#x201e;" horiz-adv-x="500" 
d="M85 -162l-21 28c9 8 20 18 29 28c43 45 51 78 56 96c-15 -6 -25 -10 -40 -10c-48 0 -75 46 -75 87c0 51 33 94 89 94c8 0 31 0 55 -20c5 -4 11 -9 18 -19c8 -13 19 -41 19 -75c0 -54 -22 -111 -73 -163c-20 -21 -27 -25 -38 -33c-6 -4 -12 -9 -19 -13zM339 -163l-21 28
c11 10 21 20 31 30c42 44 49 77 54 94c-5 -1 -23 -10 -40 -10c-5 0 -22 1 -38 11c-17 12 -37 39 -37 76c0 54 34 94 91 94c8 0 28 0 50 -18c4 -2 13 -10 18 -17c23 -31 23 -70 23 -77c0 -22 -4 -83 -58 -147c-7 -9 -26 -31 -55 -51c-6 -4 -12 -9 -18 -13z" />
    <glyph glyph-name="quotedblright" unicode="&#x201d;" horiz-adv-x="500" 
d="M338 395l-22 29c5 4 10 8 15 13c11 10 41 41 58 76c6 14 8 21 11 35c-22 -9 -27 -11 -41 -11c-19 0 -36 7 -52 26c-12 14 -21 32 -21 62c0 34 12 53 26 68c18 20 43 25 62 25s30 -4 38 -8c43 -22 55 -71 55 -104c0 -11 -1 -26 -7 -51c-5 -20 -19 -70 -77 -125
c-17 -15 -28 -23 -45 -35zM84 394l-22 29c5 4 10 8 14 12c10 9 42 41 59 77c5 12 8 24 11 35c-22 -9 -27 -10 -41 -10c-9 0 -33 1 -55 28c-15 20 -19 38 -19 59c0 36 15 58 29 71c25 23 49 23 59 23c8 0 26 1 49 -15c10 -7 15 -12 19 -16c12 -15 26 -44 26 -83
c0 -23 -5 -90 -70 -160c-20 -22 -38 -35 -59 -50z" />
    <glyph glyph-name="guillemotright" unicode="&#xbb;" horiz-adv-x="604" 
d="M16 417h184l117 -142l-116 -139h-176c9 10 14 18 22 27c9 11 17 21 27 32c4 6 9 13 15 19c18 23 32 39 50 62zM291 416h179l120 -141l-117 -140h-182l118 141z" />
    <glyph glyph-name="ellipsis" unicode="&#x2026;" horiz-adv-x="1000" 
d="M913 75c0 -45 -34 -81 -79 -81c-6 0 -15 0 -28 5c-16 6 -52 26 -52 75c0 44 36 80 80 80s79 -35 79 -79zM580 75c0 -45 -34 -81 -79 -81c-13 0 -22 3 -27 5c-33 11 -53 39 -53 75c0 16 4 28 7 34c13 29 43 46 73 46c44 0 78 -35 79 -79zM246 75c0 -45 -33 -81 -79 -81
c-5 0 -15 0 -28 5c-15 6 -52 26 -52 75c0 44 36 80 81 80c44 0 78 -35 78 -79z" />
    <glyph glyph-name="questiondown" unicode="&#xbf;" horiz-adv-x="625" 
d="M458 721c4 0 13 0 25 -2c8 -2 36 -8 55 -37c11 -17 19 -46 19 -65c0 -4 -2 -34 -16 -58c-4 -7 -10 -14 -17 -21c-7 -6 -15 -13 -29 -19c-8 -2 -15 -4 -30 -4c-36 0 -57 18 -69 33c-12 14 -23 35 -23 67c0 46 19 72 39 88c21 16 38 17 46 18zM437 373l-1 73h76l2 -190h-98
c0 16 0 33 -14 66c-24 58 -68 65 -86 65c-23 0 -52 -11 -65 -41c-8 -17 -14 -50 -14 -93c0 -31 3 -63 7 -94c1 -5 5 -49 25 -80c24 -38 71 -37 75 -37c22 0 39 4 60 20s36 38 36 80c0 9 -1 19 -3 29l91 1c5 -23 7 -33 7 -45c0 -20 -3 -72 -74 -109c-41 -21 -86 -26 -127 -26
c-13 0 -66 1 -112 14c-12 3 -24 7 -36 11c-13 5 -25 10 -38 17c-66 35 -95 84 -106 112c-7 17 -14 42 -14 82c0 16 -1 43 15 82c7 15 14 27 17 33c10 15 23 28 27 32c56 56 123 73 181 73c10 0 67 -1 112 -23c4 -2 15 -8 28 -19c14 -11 21 -22 29 -33z" />
    <glyph glyph-name="grave" unicode="`" horiz-adv-x="292" 
d="M1 734l114 -158h-110l-200 158h196z" />
    <glyph glyph-name="acute" unicode="&#xb4;" horiz-adv-x="292" 
d="M301 733l-197 -157h-111l113 157h195z" />
    <glyph glyph-name="circumflex" unicode="&#x2c6;" horiz-adv-x="292" 
d="M98 734l149 -158h-137l-57 63l-55 -62h-133c30 31 54 60 83 92c20 23 39 44 58 65h92z" />
    <glyph glyph-name="tilde" unicode="&#x2dc;" horiz-adv-x="292" 
d="M225 733l40 -1c-1 -7 -4 -53 -24 -86c-8 -15 -16 -23 -27 -31c-13 -10 -32 -20 -62 -20c-40 0 -95 19 -134 30c-33 10 -49 13 -66 13c-7 0 -18 -2 -28 -11c-1 -1 -4 -5 -6 -9c-7 -13 -6 -11 -8 -21h-40c1 5 4 55 25 89c6 10 18 22 22 25c19 18 45 23 68 23
c27 0 63 -7 123 -26c4 -1 46 -17 74 -17s36 16 43 42z" />
    <glyph glyph-name="dieresis" unicode="&#xa8;" horiz-adv-x="292" 
d="M181 735c16 0 39 -3 55 -10c4 -2 17 -8 29 -21c18 -21 17 -38 17 -47c0 -4 1 -29 -19 -49c-24 -25 -59 -28 -84 -28c-6 0 -52 -1 -80 26c-23 22 -23 44 -23 52c0 41 35 78 105 77zM-76 733c38 1 63 -9 80 -21c3 -2 6 -5 11 -10c1 -2 4 -5 6 -10c11 -18 10 -25 10 -34
c0 -18 -2 -34 -19 -51c-17 -18 -43 -28 -83 -28c-45 0 -72 13 -88 32c-7 9 -16 22 -16 44c0 20 7 33 14 42c16 21 41 35 85 36z" />
    <glyph glyph-name="cedilla" unicode="&#xb8;" horiz-adv-x="292" 
d="M40 17h46l-10 -59c34 -4 48 -7 66 -22c9 -7 13 -13 15 -16c11 -17 12 -35 12 -40c0 -39 -29 -83 -102 -83c-45 1 -71 12 -91 19v42c6 -2 31 -11 53 -11c1 0 10 0 17 3c6 2 25 11 25 31c0 2 0 10 -6 17c-12 17 -29 16 -43 16z" />
    <glyph glyph-name="caron" unicode="&#x2c7;" horiz-adv-x="292" 
d="M-4 734l58 -63l56 63h132l-139 -157h-92l-150 157h135z" />
    <glyph glyph-name="emdash" unicode="&#x2014;" horiz-adv-x="667" 
d="M667 227h-667v127h667v-127z" />
    <glyph glyph-name="AE" unicode="&#xc6;" horiz-adv-x="812" 
d="M223 708h533v-90h-312l46 -194h249v-91h-228l60 -237h223v-96h-434l-28 122h-209l-38 -122h-89zM244 510l-94 -300h162z" />
    <glyph glyph-name="Oslash" unicode="&#xd8;" horiz-adv-x="812" 
d="M701 731l51 -43l-74 -86c13 -16 32 -37 52 -81c18 -38 39 -94 39 -182c0 -130 -56 -223 -116 -275c-24 -21 -60 -39 -63 -41c-35 -17 -101 -41 -189 -41c-19 0 -97 0 -168 32c-15 7 -29 15 -44 24l-73 -83l-50 43l71 83c-9 9 -18 19 -26 29c-71 92 -73 201 -73 224
c0 27 3 55 8 82c4 22 24 136 122 224c16 14 43 31 44 32c42 26 101 53 196 53c24 0 97 0 172 -42c17 -10 34 -22 50 -34zM302 270l194 225c0 18 0 49 -9 93c-1 1 -7 43 -30 65c-10 10 -28 20 -54 20c-46 0 -67 -29 -76 -52c-8 -23 -18 -74 -22 -136c-2 -31 -3 -63 -3 -94
c-1 -40 0 -81 0 -121zM505 403l-192 -221c5 -50 9 -75 23 -99c3 -4 8 -14 18 -22c15 -12 28 -17 58 -17c33 0 68 19 83 85c7 28 12 78 12 148c0 42 -1 84 -2 126z" />
    <glyph glyph-name="OE" unicode="&#x152;" horiz-adv-x="1083" 
d="M508 706h517l2 -90h-282v-193h261v-91h-260v-236h317v-96h-540c-6 -4 -15 -6 -31 -11c-51 -12 -81 -13 -103 -13c-24 0 -181 -3 -277 120c-14 19 -27 41 -36 60c-16 31 -39 91 -39 172c0 148 71 256 131 308c15 13 56 42 100 60c42 16 96 25 138 25c33 0 69 -6 78 -8
c8 -2 16 -4 24 -7zM403 666c-3 0 -30 0 -49 -19c-38 -38 -41 -141 -44 -253c-1 -35 -2 -70 -2 -104c0 -47 1 -92 6 -138c3 -28 7 -63 27 -89c10 -15 30 -29 62 -29c17 0 40 5 57 20c12 11 23 29 31 58c9 32 13 92 13 174c0 27 -1 53 -1 79c0 44 -1 88 -4 132
c-4 69 -12 109 -33 139c-10 14 -28 31 -63 30z" />
    <glyph glyph-name="ae" unicode="&#xe6;" horiz-adv-x="896" 
d="M857 243h-315c0 -28 0 -55 5 -83c1 -9 3 -30 17 -56c5 -9 13 -25 40 -39c14 -7 32 -14 63 -14c34 0 72 7 102 41c15 18 22 38 23 43c4 15 5 29 3 60l62 -16c0 -10 3 -53 -13 -91c-28 -67 -106 -104 -214 -104c-10 0 -97 1 -157 23c-7 2 -33 13 -56 29c-9 7 -15 12 -31 29
c-13 -11 -26 -22 -40 -31c-29 -19 -84 -49 -159 -49c-29 0 -57 5 -85 19c-8 3 -17 8 -24 13c-15 11 -32 30 -37 37c-12 16 -25 43 -25 84c0 14 1 43 23 80c4 6 8 12 13 18c35 43 89 54 135 65c49 13 69 21 94 35c17 8 34 18 45 39c2 6 4 15 5 15c1 5 2 10 2 21
c0 16 -5 38 -20 54c-14 16 -33 24 -69 24c-21 0 -44 -4 -65 -16c-22 -13 -49 -42 -49 -86c0 -10 1 -17 6 -35l-89 14c-6 24 -7 31 -7 45c0 12 1 23 6 36c13 35 44 52 54 57c16 9 30 15 35 17c23 8 74 21 135 21c18 0 87 -2 151 -24c13 -5 27 -11 40 -17c10 5 19 10 28 14
c22 11 61 25 116 25c13 0 119 2 188 -81c24 -28 38 -58 47 -89c7 -21 11 -42 14 -62c3 -22 3 -43 3 -65zM541 300l135 1c1 39 0 78 -6 117c-3 22 -5 50 -28 70c-14 12 -29 12 -34 12c-13 0 -25 -2 -37 -14c-3 -3 -8 -9 -12 -16c-14 -27 -17 -94 -18 -170zM334 150v159
c-18 -12 -36 -24 -54 -34c-52 -29 -79 -54 -79 -138c0 -20 1 -55 20 -73c6 -6 18 -13 34 -13c6 0 23 1 43 15c25 18 36 39 36 84z" />
    <glyph glyph-name="dotlessi" unicode="&#x131;" horiz-adv-x="313" 
d="M258 537v-537h-205v509c17 0 37 2 56 3c49 5 65 6 149 25z" />
    <glyph glyph-name="oslash" unicode="&#xf8;" horiz-adv-x="667" 
d="M590 581l50 -46l-78 -87c12 -13 19 -19 35 -49c17 -31 37 -80 37 -153c0 -14 -1 -28 -3 -43c-2 -14 -13 -63 -44 -109c-8 -11 -36 -48 -73 -71c-26 -16 -61 -30 -120 -38c-22 -3 -44 -4 -66 -4c-54 0 -107 13 -125 19c-12 4 -24 10 -35 15l-66 -72l-51 46l59 67
c-6 7 -23 24 -36 44c-28 44 -42 107 -42 150c0 23 2 92 47 163c4 6 14 23 31 41c25 27 66 52 95 64c60 25 113 24 135 24c15 0 31 0 47 -2c58 -8 100 -33 123 -47zM247 205l162 178c-6 43 -11 69 -27 88c-10 13 -25 22 -51 22c-7 0 -24 2 -45 -16c-10 -9 -14 -15 -16 -19
c-12 -23 -16 -62 -20 -117c-3 -45 -3 -91 -3 -136zM421 296l-161 -178c7 -32 10 -45 21 -61c4 -7 12 -18 29 -24c6 -2 15 -5 29 -5c32 0 52 19 60 34c16 28 18 92 20 120c2 38 2 76 2 114z" />
    <glyph glyph-name="oe" unicode="&#x153;" horiz-adv-x="979" 
d="M943 245h-317c0 -60 3 -99 14 -125c8 -19 22 -41 46 -54c15 -9 33 -12 37 -12c10 -2 21 -3 31 -3c23 0 57 6 81 23c12 9 31 28 40 56c6 17 7 31 6 62l62 -16c0 -12 8 -79 -42 -131c-21 -22 -42 -32 -49 -35c-29 -14 -73 -26 -141 -26c-16 0 -93 1 -157 29
c-14 6 -28 14 -42 23c-12 -7 -24 -14 -35 -20c-32 -16 -80 -32 -153 -32c-20 0 -75 1 -133 25c-25 11 -40 21 -48 26c-8 6 -47 34 -72 77c-17 27 -37 76 -37 144c0 61 16 126 64 186c7 8 14 15 19 21c3 3 5 6 8 8c6 5 13 11 20 16c32 24 93 57 176 57c18 0 86 -3 149 -35
c17 -8 26 -14 42 -26c13 9 26 17 38 24c25 14 77 37 143 37c72 0 119 -25 149 -48c8 -5 20 -14 34 -29c7 -7 16 -19 29 -41c43 -78 38 -158 38 -181zM626 303l137 1c0 37 0 74 -4 111c-3 34 -9 53 -21 68c-18 20 -36 19 -43 19c-14 0 -26 -2 -39 -15c-5 -5 -9 -10 -13 -22
c-13 -36 -16 -126 -17 -162zM325 494c-2 0 -23 -1 -37 -14c-10 -9 -18 -31 -20 -40c-7 -24 -13 -84 -13 -152c0 -31 1 -61 2 -91c1 -28 3 -55 6 -83c1 -6 2 -28 15 -49c12 -20 34 -31 51 -31c21 0 32 8 40 14c5 5 9 10 12 15c20 34 19 113 20 146c0 26 1 52 1 79
c0 33 -1 66 -3 98c-2 31 -4 92 -54 105c-10 3 -16 3 -20 3z" />
    <glyph glyph-name="germandbls" unicode="&#xdf;" horiz-adv-x="667" 
d="M288 71l60 38c3 -12 6 -23 19 -30c1 -1 6 -3 11 -3c12 0 24 13 28 26c6 16 8 60 8 109c0 22 0 45 -2 67c-1 7 -2 30 -12 53c-4 10 -5 14 -15 23c-25 20 -53 19 -77 19v63c10 1 19 2 30 10c1 1 7 7 10 12c10 16 14 49 14 91c0 17 -1 34 -3 51c-3 20 -5 29 -12 39
c-9 13 -21 19 -44 19c-4 0 -23 2 -37 -14c-2 -2 -6 -7 -8 -13c-3 -12 -2 -32 -3 -60v-26c0 -25 0 -49 -1 -74v-472h-202v541c0 10 -1 61 31 103c13 16 25 26 32 31c18 13 44 22 47 24c59 21 108 20 129 20c15 0 102 3 169 -28c3 -1 37 -18 56 -37c15 -16 41 -53 41 -103
c0 -38 -13 -60 -26 -77c-4 -5 -12 -14 -24 -23c-40 -29 -110 -40 -112 -41c17 0 33 -1 50 -3c69 -9 110 -32 139 -61c7 -8 13 -14 24 -32c10 -17 15 -32 16 -39c8 -28 8 -58 8 -66s3 -112 -80 -173c-22 -16 -73 -44 -133 -44c-9 0 -78 -1 -116 53c-5 7 -9 14 -15 27z" />
    <glyph glyph-name="Grave" unicode="&#xf6ce;" horiz-adv-x="292" 
d="M56 892l75 -136h-139l-156 136h220z" />
    <glyph glyph-name="Acute" unicode="&#xf6c9;" horiz-adv-x="292" 
d="M54 891h224l-159 -136h-136z" />
    <glyph glyph-name="Circumflex" horiz-adv-x="292" 
d="M121 892l138 -138h-148l-57 57l-54 -58h-145l132 139h134z" />
    <glyph glyph-name="Tilde" horiz-adv-x="292" 
d="M224 891h40c0 -1 -2 -73 -43 -111c-15 -14 -36 -27 -71 -27c-34 1 -63 11 -131 31c-2 0 -42 12 -66 12c-5 0 -26 0 -38 -24c-4 -8 -5 -14 -5 -17l-40 1c1 11 3 46 21 81c15 29 39 43 48 47s23 8 45 8c36 0 85 -14 122 -25c40 -12 57 -17 77 -18c6 0 24 1 35 23
c5 8 6 17 6 19z" />
    <glyph glyph-name="Dieresis" unicode="&#xf6cb;" horiz-adv-x="292" 
d="M-76 894c4 0 24 1 40 -3c40 -10 67 -36 67 -75c0 -14 -3 -29 -15 -44c-8 -9 -16 -16 -19 -17c-11 -7 -38 -16 -69 -16c-6 0 -45 1 -72 19c-12 8 -31 28 -31 57c0 6 0 21 8 36c14 26 45 42 91 43zM172 894c4 1 40 1 65 -11c18 -8 45 -27 45 -67c0 -5 1 -24 -14 -43
c-2 -3 -13 -14 -24 -20c-12 -6 -35 -14 -66 -14c-8 0 -40 1 -67 17c-5 2 -12 6 -20 17c-9 11 -15 22 -15 44c0 15 4 28 14 42c16 22 39 32 82 35z" />
    <glyph glyph-name="Caron" unicode="&#xf6ca;" horiz-adv-x="292" 
d="M-151 892h148l57 -58l54 58h146l-132 -138h-134z" />
    <glyph glyph-name="Adieresis" unicode="&#xc4;" horiz-adv-x="604" 
d="M188 896c4 0 45 2 74 -13c3 -2 16 -11 24 -20c5 -7 15 -23 15 -44c0 0 -1 -25 -10 -40c-4 -5 -9 -10 -14 -14c-30 -25 -74 -24 -79 -24c-4 0 -59 0 -87 33c-7 9 -16 21 -16 43c0 54 46 77 93 79zM444 897c35 0 64 -10 77 -19c12 -8 31 -28 31 -58c0 -11 -3 -26 -9 -37
c-3 -6 -11 -13 -11 -14c-18 -17 -43 -27 -83 -27c-26 0 -49 7 -58 11c-15 6 -24 16 -29 21c-16 20 -16 36 -16 45s-1 22 14 42c21 28 56 35 84 36zM229 709l191 -1c18 -62 33 -124 49 -186c12 -44 24 -90 36 -134c13 -52 26 -103 39 -155c20 -78 40 -156 59 -233h-238
l-27 120h-210l-38 -120l-90 -1zM249 504l-93 -291h160z" />
    <glyph glyph-name="Aring" unicode="&#xc5;" horiz-adv-x="604" 
d="M316 930c4 0 28 2 52 -10c20 -10 52 -39 52 -87c0 -21 -6 -40 -24 -60c-23 -26 -48 -34 -73 -34c-12 0 -49 3 -75 38c-15 21 -19 37 -19 59c0 44 35 90 87 94zM321 880c-24 -1 -42 -19 -42 -44c0 -5 1 -15 7 -25c13 -21 35 -21 40 -21c2 0 10 0 18 4c8 3 26 18 26 41
s-18 45 -49 45zM229 709h191c10 -37 20 -75 30 -112c8 -30 15 -59 23 -89c13 -50 27 -100 40 -151c15 -58 29 -116 43 -174c16 -61 31 -122 47 -183h-238l-28 120h-209l-38 -120h-90zM249 504l-93 -291h160z" />
    <glyph glyph-name="Ccedilla" unicode="&#xc7;" horiz-adv-x="708" 
d="M399 -20l-3 -22c11 -2 56 -3 81 -38c11 -16 12 -34 12 -41c0 -34 -25 -81 -103 -82c-45 1 -73 13 -90 19v42c18 -6 33 -11 51 -11c32 0 44 19 43 34c0 3 0 9 -4 16c-10 16 -28 17 -44 17l11 67c-37 4 -153 16 -235 105c-15 17 -41 47 -60 99c-10 29 -21 72 -21 143
c0 56 4 227 153 333c10 6 22 15 45 27c70 36 147 39 173 39c15 0 57 -1 100 -14c41 -13 146 -53 146 -185c0 -15 -1 -29 -3 -44l-110 -18c4 24 7 39 7 64c0 14 -1 54 -25 91c-19 30 -47 49 -84 49c-8 0 -25 -1 -44 -10c-31 -13 -58 -41 -73 -108c-9 -38 -17 -129 -17 -235
c0 -11 0 -82 10 -136c8 -48 24 -75 38 -90c20 -21 55 -29 84 -29c20 0 66 4 105 42c37 38 54 105 54 157c0 21 -1 28 -5 48l89 -22c0 -7 3 -29 2 -50c-1 -16 -6 -91 -41 -145c-8 -12 -25 -34 -55 -56c-58 -41 -117 -55 -187 -56z" />
    <glyph glyph-name="Odieresis" unicode="&#xd6;" horiz-adv-x="812" 
d="M268 899c26 1 48 -3 57 -6s38 -15 49 -42c6 -13 6 -25 6 -30c0 -44 -33 -76 -102 -76c-24 0 -61 6 -82 26c-17 16 -21 35 -21 51c0 8 -2 31 23 53c27 24 63 24 70 24zM519 899c32 1 57 -7 67 -11c20 -9 45 -28 45 -68c0 -6 0 -27 -14 -44c-2 -2 -9 -10 -18 -15
c-14 -8 -36 -17 -69 -17c-7 0 -48 0 -78 22c-28 21 -26 53 -26 58c0 6 -1 21 13 39c15 20 38 33 80 36zM401 726c21 1 90 -1 157 -33c12 -5 49 -24 82 -54c15 -13 28 -25 40 -39c9 -11 15 -20 23 -31c7 -11 14 -22 20 -32c19 -36 47 -106 47 -198c0 -19 2 -158 -100 -258
c-51 -51 -141 -97 -268 -97c-128 0 -206 41 -255 88c-10 9 -20 19 -28 30c-7 7 -33 43 -48 75c-12 28 -32 88 -32 161c0 120 50 209 87 256c12 16 22 24 30 32c15 15 23 23 53 43c28 17 63 37 122 49c23 5 47 8 70 8zM401 669c-7 0 -22 -1 -40 -16c-31 -27 -38 -79 -43 -151
c-4 -47 -5 -93 -6 -140c0 -19 -1 -39 -1 -58c0 -29 2 -59 3 -88c1 -25 2 -49 6 -74c4 -23 9 -39 13 -48c21 -44 55 -46 70 -46c14 0 23 2 29 4c13 4 32 15 45 42c18 42 26 117 26 221c0 12 0 24 -1 36c0 36 -1 72 -3 108c-2 38 -5 76 -11 114c-1 6 -4 35 -20 60
c-11 16 -30 38 -67 36z" />
    <glyph glyph-name="Udieresis" unicode="&#xdc;" horiz-adv-x="750" 
d="M269 900c47 2 110 -14 110 -79c0 -15 -2 -28 -15 -44c-18 -21 -45 -32 -89 -32c-5 0 -55 0 -84 31c-5 6 -10 14 -11 15c-3 6 -6 18 -6 33c0 7 0 22 13 40c15 21 40 34 82 36zM519 900c2 0 54 4 85 -21c14 -11 26 -26 26 -58c0 -6 1 -24 -14 -42c-10 -13 -22 -19 -25 -21
c-13 -6 -34 -12 -64 -12c-2 0 -70 -2 -95 44c-4 7 -7 19 -7 35c0 19 7 31 13 40c15 21 39 33 81 35zM65 706h248v-481c1 -50 1 -74 11 -99c12 -31 43 -54 96 -54c12 0 67 2 114 37c7 6 29 25 41 48c10 20 10 30 15 79v470h100v-486c-2 -28 -4 -60 -26 -99
c-7 -13 -14 -23 -24 -36c-11 -13 -19 -19 -32 -30c-96 -76 -223 -76 -243 -76c-73 0 -120 18 -152 31c-15 6 -31 13 -46 22c-8 5 -29 19 -47 34c-4 3 -18 16 -29 33c-7 9 -12 18 -15 27c-5 14 -7 26 -11 63v517z" />
    <glyph glyph-name="adieresis" unicode="&#xe4;" horiz-adv-x="604" 
d="M430 738c4 0 47 0 75 -17c7 -4 17 -15 21 -19c5 -6 13 -23 13 -42c0 -5 0 -25 -15 -44c-17 -20 -45 -33 -88 -33c-22 0 -52 4 -74 20c-29 22 -29 47 -29 57c0 6 -1 26 16 46c16 18 41 30 81 32zM177 738c24 0 64 -4 88 -26c23 -21 23 -46 23 -53c0 -6 1 -32 -27 -55
c-15 -12 -40 -21 -76 -21c-6 0 -40 0 -67 16c-27 15 -33 35 -35 46c-1 5 -1 11 -1 17c0 29 16 46 28 56c12 9 35 18 67 20zM623 66l-1 -61c-21 -6 -64 -19 -119 -19c-14 0 -66 -2 -113 35c-9 7 -20 19 -29 29c-7 -7 -19 -20 -38 -33c-54 -35 -121 -36 -134 -36
c-46 0 -72 12 -93 24c-23 13 -33 22 -43 34c-36 44 -36 83 -36 98c0 14 1 50 28 89c8 11 18 23 29 32c13 11 20 14 27 18c31 17 60 21 90 28c46 11 91 29 106 38c17 10 43 32 43 71c0 34 -19 55 -34 64c-10 7 -29 12 -55 12c-7 0 -42 0 -70 -19c-12 -8 -20 -18 -23 -22
c-19 -25 -20 -53 -20 -59c0 -12 3 -24 5 -35l-89 14c-8 25 -8 32 -8 46c0 17 1 58 57 92c35 21 89 38 170 38c22 0 75 -2 138 -20c31 -9 66 -22 97 -52c25 -24 29 -47 30 -99c1 -15 1 -30 1 -44c0 -41 1 -81 1 -121c0 -55 -2 -110 7 -126c4 -10 15 -23 35 -23c9 0 21 2 41 7
zM311 289l-33 -18c-8 -4 -15 -9 -22 -14c-12 -8 -15 -9 -25 -22c-19 -25 -26 -53 -26 -106c0 -29 5 -82 54 -82c6 0 24 3 43 16c36 26 38 61 38 91v154c-10 -7 -20 -13 -29 -19z" />
    <glyph glyph-name="aring" unicode="&#xe5;" horiz-adv-x="604" 
d="M307 786c35 1 59 -13 73 -25c10 -8 17 -16 19 -19c9 -11 22 -35 22 -65c0 -8 1 -43 -26 -73c-26 -28 -58 -37 -84 -37c-11 0 -46 3 -74 31c-14 14 -33 40 -33 78c0 12 0 37 24 69c2 2 6 7 10 11c10 10 38 29 69 30zM311 733c-11 0 -22 -3 -33 -13c-11 -8 -21 -23 -21 -45
c0 -31 27 -55 56 -55c5 0 12 0 22 5c14 6 34 22 34 52c0 7 0 20 -13 36c-18 21 -38 20 -45 20zM622 66v-62c-24 -6 -62 -18 -119 -18c-15 0 -40 -1 -77 14c-3 1 -19 7 -29 15c-8 5 -20 16 -36 35c-40 -39 -48 -40 -72 -50c-47 -18 -74 -19 -95 -19c-12 0 -72 0 -118 35
c-11 9 -20 18 -29 31c-14 19 -30 46 -30 91c0 59 33 99 57 120c42 34 84 38 126 48c18 5 36 10 54 17c6 2 34 10 57 30c13 11 29 28 29 58c0 29 -15 78 -85 78c-26 0 -42 -4 -54 -9c-44 -16 -63 -56 -63 -91c0 -11 1 -16 5 -36l-89 15c-6 19 -8 25 -8 43c0 26 4 46 25 68
c3 4 7 8 11 11c10 9 23 16 25 18c34 19 85 35 162 35c21 0 74 -1 132 -16c5 -1 68 -16 107 -55c5 -4 11 -12 14 -16c16 -26 16 -56 17 -112c0 -30 1 -55 1 -85c0 -80 -4 -153 7 -177c11 -25 36 -23 38 -23c17 0 32 5 37 7zM339 308c-14 -11 -18 -13 -33 -21
c-12 -6 -24 -13 -36 -20c-5 -4 -11 -8 -17 -12c-29 -22 -43 -45 -47 -95c-1 -9 -1 -18 -1 -27c0 -28 4 -86 53 -86c4 0 26 3 44 16c35 25 38 60 38 88c0 41 0 99 -1 157z" />
    <glyph glyph-name="ccedilla" unicode="&#xe7;" horiz-adv-x="583" 
d="M320 -19l-4 -23c11 -2 56 -3 80 -38c12 -16 13 -34 13 -41c0 -34 -25 -81 -103 -82c-45 1 -73 13 -90 19v42c17 -6 33 -11 51 -11c32 0 44 19 43 34c0 3 0 9 -4 16c-10 16 -28 17 -44 17l11 70c-133 16 -187 78 -213 132c-11 23 -27 64 -27 126c0 29 2 98 46 168
c15 25 32 45 53 64c31 26 96 68 199 68s167 -40 189 -78c3 -6 19 -36 19 -65c0 -8 -2 -22 -5 -43l-87 -18c2 9 5 18 5 37c0 2 -1 30 -6 46c-3 11 -26 70 -82 70c-9 0 -26 -1 -46 -12c-25 -15 -41 -40 -53 -96c-10 -53 -10 -137 -10 -143c0 -36 3 -60 5 -75
c5 -40 16 -79 55 -100c17 -9 33 -13 51 -13c17 0 64 4 94 45c19 26 28 62 28 93c0 25 -5 41 -7 50l72 -17c1 -9 4 -24 4 -45c0 -60 -21 -102 -35 -121c-19 -24 -43 -37 -53 -42c-48 -25 -95 -32 -149 -34z" />
    <glyph glyph-name="odieresis" unicode="&#xf6;" horiz-adv-x="667" 
d="M450 737c24 0 44 -4 52 -6c19 -6 58 -25 58 -72c0 -7 2 -29 -21 -51c-17 -17 -41 -26 -81 -26c-6 0 -55 -2 -85 29c-20 21 -19 41 -19 49c0 15 3 28 15 44c15 18 41 32 81 33zM199 737c43 1 110 -14 110 -78c0 -4 0 -7 -1 -11c0 -6 -2 -29 -30 -48
c-21 -15 -49 -18 -71 -18c-3 0 -52 0 -79 24c-15 13 -25 26 -25 56c0 4 0 12 4 22c4 11 19 35 49 46c8 2 23 6 43 7zM334 542c100 1 168 -36 209 -73c10 -10 23 -23 32 -34c57 -75 60 -164 60 -186c0 -21 -1 -66 -28 -122c-5 -10 -11 -21 -18 -31c-1 -2 -13 -19 -25 -32
c-3 -4 -26 -27 -46 -40c-64 -39 -136 -41 -153 -42c-14 -1 -27 -2 -41 -2c-17 0 -106 1 -180 48c-9 6 -45 33 -71 74c-17 27 -41 80 -41 150c0 26 4 104 61 181c17 22 27 32 48 48c40 29 100 60 193 61zM330 492c-25 -2 -50 -18 -60 -64c-7 -34 -14 -118 -14 -215
c0 -35 1 -70 7 -105c6 -32 15 -53 29 -64c16 -13 37 -14 40 -14c1 0 24 1 39 11c22 17 28 45 29 47c7 30 11 83 11 157c0 41 -1 82 -4 124c0 0 -2 59 -18 89c-8 15 -26 35 -59 34z" />
    <glyph glyph-name="udieresis" unicode="&#xfc;" 
d="M443 736c6 0 22 0 39 -3c59 -13 68 -53 68 -75s-6 -34 -15 -44c-16 -20 -44 -32 -86 -32c-45 0 -73 14 -88 32c-10 11 -16 22 -16 46c0 6 -1 24 14 43c22 27 61 33 84 33zM187 737c6 0 44 2 72 -13c41 -21 40 -58 40 -67c0 -5 2 -31 -26 -53c-22 -18 -54 -22 -76 -22
c-6 0 -49 -1 -79 24c-1 1 -13 11 -18 22c-2 4 -6 20 -6 34c0 4 0 23 12 39c26 36 80 36 81 36zM589 536v-536h-203l5 99c-5 -10 -14 -29 -36 -53c-18 -19 -33 -29 -40 -34c-43 -26 -92 -26 -104 -26c-80 0 -133 36 -151 82c-9 21 -9 41 -8 63l1 383c29 1 57 2 85 5
c40 4 80 10 121 17l-6 -387c2 -12 2 -23 5 -34c8 -31 28 -33 40 -33c9 0 25 4 42 24c37 46 42 117 43 124l5 283c36 2 72 4 108 9c31 4 62 9 93 14z" />
    <glyph glyph-name="registered" unicode="&#xae;" horiz-adv-x="833" 
d="M612 128l-126 1c-18 39 -20 77 -27 119c-6 32 -8 48 -21 59c-17 14 -39 12 -59 13h-19v-192h-110v458h164c13 0 27 0 40 -1c72 -3 101 -19 123 -48c17 -22 25 -46 25 -74c0 -74 -58 -96 -79 -107c5 -3 10 -6 15 -10c29 -22 33 -63 34 -71c3 -13 11 -92 40 -147zM360 407
h49c44 0 64 0 77 24c2 3 7 13 7 26c0 3 -1 14 -6 23c-9 15 -25 22 -58 22h-69v-95zM773 351c0 -43 -9 -140 -85 -229c-94 -112 -221 -125 -271 -125c-79 0 -156 26 -218 73c-46 36 -138 126 -138 284c0 118 52 193 81 228c37 43 125 127 276 127c113 0 217 -50 286 -143
c47 -63 70 -137 69 -215zM741 352c0 35 -5 116 -63 195c-32 43 -114 130 -260 130c-34 0 -115 -5 -192 -62c-43 -31 -133 -115 -133 -262c0 -43 8 -84 24 -123c49 -122 169 -201 301 -201c20 0 60 2 109 19c130 46 213 168 214 304z" />
    <glyph glyph-name="copyright" unicode="&#xa9;" horiz-adv-x="833" 
d="M773 351c0 -43 -9 -140 -85 -229c-94 -112 -221 -125 -271 -125c-79 0 -156 26 -218 73c-46 36 -138 126 -138 284c0 118 52 193 81 228c37 43 125 127 276 127c113 0 217 -50 286 -143c47 -63 70 -137 69 -215zM741 352c0 35 -5 116 -63 195c-32 43 -114 130 -260 130
c-34 0 -115 -5 -192 -62c-43 -31 -133 -115 -133 -262c0 -43 8 -84 24 -123c49 -122 169 -201 301 -201c20 0 60 2 109 19c130 46 213 168 214 304zM620 519l-87 -84c-15 15 -51 50 -110 49c-9 0 -36 -1 -60 -12c-44 -22 -65 -70 -65 -118c1 -78 50 -129 128 -129
c59 1 91 30 107 46l87 -81c-54 -58 -115 -84 -195 -84c-18 0 -63 1 -109 20c-94 39 -141 130 -141 228c0 52 13 90 21 108c22 50 85 142 229 142c110 0 166 -54 195 -85z" />
    <glyph glyph-name="trademark" unicode="&#x2122;" horiz-adv-x="688" 
d="M674 374h-82l4 177c1 23 3 45 6 67c-5 -17 -9 -35 -14 -53l-56 -191h-75l-59 192c-2 8 -5 15 -7 22c-2 10 -4 20 -7 29c3 -22 6 -44 7 -66l5 -177h-82v332h106l76 -239l71 239h107v-332zM187 374h-85v265h-102v67h287v-67h-100v-265z" />
    <glyph glyph-name="minus" unicode="&#x2212;" horiz-adv-x="667" 
d="M667 227h-667v127h667v-127z" />
    <glyph glyph-name="onefitted" unicode="&#xf6dc;" horiz-adv-x="542" 
d="M312 697h114v-697h-209l-1 525c-18 -7 -36 -15 -54 -20c-69 -21 -127 -23 -152 -23v89c17 1 34 3 52 6c16 2 64 13 115 36c21 9 76 34 135 84z" />
    <glyph glyph-name="Eacute" unicode="&#xc9;" 
d="M591 707l1 -91h-280v-192h260v-93h-259v-233h315v-98h-562v707h525zM324 891h225l-159 -136h-137z" />
    <glyph glyph-name="Ntilde" unicode="&#xd1;" horiz-adv-x="729" 
d="M270 706l292 -397v397h99v-706h-182l-309 441v-441h-103v706h203zM537 891h40c-1 -1 -2 -73 -43 -111c-15 -14 -36 -27 -71 -27c-34 1 -64 11 -131 31c-2 0 -43 12 -66 12c-5 0 -27 0 -39 -24c-3 -8 -4 -14 -5 -17l-39 1c1 11 2 46 21 81c15 29 38 43 48 47
c8 4 23 8 44 8c37 0 86 -14 122 -25c41 -12 57 -17 78 -18c6 0 24 1 35 23c4 8 6 17 6 19z" />
    <glyph glyph-name="aacute" unicode="&#xe1;" horiz-adv-x="604" 
d="M623 66l-1 -62c-62 -16 -84 -18 -118 -18c-10 0 -64 -1 -107 29c-5 4 -20 16 -36 35c-9 -10 -28 -31 -57 -44c-16 -8 -62 -25 -110 -25c-8 0 -52 1 -87 17c-5 2 -14 7 -25 15c-6 4 -23 17 -38 38c-11 16 -27 44 -27 85c0 49 20 81 38 102c12 14 26 29 59 44
c30 13 47 15 78 22c21 5 43 12 64 19c2 1 35 12 56 29c12 10 28 29 28 59c0 4 -1 25 -10 40c-3 6 -3 7 -10 14c-13 15 -32 24 -66 24c-44 0 -68 -11 -88 -32c-6 -7 -10 -12 -11 -13c-7 -10 -16 -30 -16 -55c0 -11 2 -23 4 -35l-89 14c-7 20 -8 26 -8 45c0 11 -1 34 20 61
c7 9 14 15 17 18c4 3 12 8 21 14c18 10 26 14 56 23c27 8 59 15 117 15c22 0 69 -3 127 -18c2 0 70 -16 108 -57c26 -29 25 -56 26 -88c1 -22 1 -45 1 -67c0 -55 1 -109 1 -164c0 -15 0 -30 2 -45c1 -12 1 -21 11 -33c9 -10 19 -13 29 -13c11 0 20 2 41 7zM340 178v130
c-6 -4 -11 -8 -17 -11c-14 -9 -29 -17 -43 -25c-3 -2 -40 -20 -57 -49c-12 -20 -18 -48 -18 -93c1 -33 8 -58 20 -70c5 -5 17 -13 33 -13c8 0 41 4 65 37c18 24 17 46 17 94zM551 733l-197 -157h-111l113 157h195z" />
    <glyph glyph-name="agrave" unicode="&#xe0;" horiz-adv-x="604" 
d="M623 66l-1 -62c-62 -16 -84 -18 -118 -18c-10 0 -64 -1 -107 29c-5 4 -20 16 -36 35c-9 -10 -28 -31 -57 -44c-16 -8 -62 -25 -110 -25c-8 0 -52 1 -87 17c-5 2 -14 7 -25 15c-6 4 -23 17 -38 38c-11 16 -27 44 -27 85c0 49 20 81 38 102c12 14 26 29 59 44
c30 13 47 15 78 22c21 5 43 12 64 19c2 1 35 12 56 29c12 10 28 29 28 59c0 4 -1 25 -10 40c-3 6 -3 7 -10 14c-13 15 -32 24 -66 24c-44 0 -68 -11 -88 -32c-6 -7 -10 -12 -11 -13c-7 -10 -16 -30 -16 -55c0 -11 2 -23 4 -35l-89 14c-7 20 -8 26 -8 45c0 11 -1 34 20 61
c7 9 14 15 17 18c4 3 12 8 21 14c18 10 26 14 56 23c27 8 59 15 117 15c22 0 69 -3 127 -18c2 0 70 -16 108 -57c26 -29 25 -56 26 -88c1 -22 1 -45 1 -67c0 -55 1 -109 1 -164c0 -15 0 -30 2 -45c1 -12 1 -21 11 -33c9 -10 19 -13 29 -13c11 0 20 2 41 7zM340 178v130
c-6 -4 -11 -8 -17 -11c-14 -9 -29 -17 -43 -25c-3 -2 -40 -20 -57 -49c-12 -20 -18 -48 -18 -93c1 -33 8 -58 20 -70c5 -5 17 -13 33 -13c8 0 41 4 65 37c18 24 17 46 17 94zM251 734l114 -158h-110l-200 158h196z" />
    <glyph glyph-name="acircumflex" unicode="&#xe2;" horiz-adv-x="604" 
d="M623 66l-1 -62c-62 -16 -84 -18 -118 -18c-10 0 -64 -1 -107 29c-5 4 -20 16 -36 35c-9 -10 -28 -31 -57 -44c-16 -8 -62 -25 -110 -25c-8 0 -52 1 -87 17c-5 2 -14 7 -25 15c-6 4 -23 17 -38 38c-11 16 -27 44 -27 85c0 49 20 81 38 102c12 14 26 29 59 44
c30 13 47 15 78 22c21 5 43 12 64 19c2 1 35 12 56 29c12 10 28 29 28 59c0 4 -1 25 -10 40c-3 6 -3 7 -10 14c-13 15 -32 24 -66 24c-44 0 -68 -11 -88 -32c-6 -7 -10 -12 -11 -13c-7 -10 -16 -30 -16 -55c0 -11 2 -23 4 -35l-89 14c-7 20 -8 26 -8 45c0 11 -1 34 20 61
c7 9 14 15 17 18c4 3 12 8 21 14c18 10 26 14 56 23c27 8 59 15 117 15c22 0 69 -3 127 -18c2 0 70 -16 108 -57c26 -29 25 -56 26 -88c1 -22 1 -45 1 -67c0 -55 1 -109 1 -164c0 -15 0 -30 2 -45c1 -12 1 -21 11 -33c9 -10 19 -13 29 -13c11 0 20 2 41 7zM340 178v130
c-6 -4 -11 -8 -17 -11c-14 -9 -29 -17 -43 -25c-3 -2 -40 -20 -57 -49c-12 -20 -18 -48 -18 -93c1 -33 8 -58 20 -70c5 -5 17 -13 33 -13c8 0 41 4 65 37c18 24 17 46 17 94zM348 734l149 -158h-137l-57 63l-55 -62h-133c30 31 54 60 83 92c20 23 39 44 58 65h92z" />
    <glyph glyph-name="atilde" unicode="&#xe3;" horiz-adv-x="604" 
d="M623 66l-1 -62c-62 -16 -84 -18 -118 -18c-10 0 -64 -1 -107 29c-5 4 -20 16 -36 35c-9 -10 -28 -31 -57 -44c-16 -8 -62 -25 -110 -25c-8 0 -52 1 -87 17c-5 2 -14 7 -25 15c-6 4 -23 17 -38 38c-11 16 -27 44 -27 85c0 49 20 81 38 102c12 14 26 29 59 44
c30 13 47 15 78 22c21 5 43 12 64 19c2 1 35 12 56 29c12 10 28 29 28 59c0 4 -1 25 -10 40c-3 6 -3 7 -10 14c-13 15 -32 24 -66 24c-44 0 -68 -11 -88 -32c-6 -7 -10 -12 -11 -13c-7 -10 -16 -30 -16 -55c0 -11 2 -23 4 -35l-89 14c-7 20 -8 26 -8 45c0 11 -1 34 20 61
c7 9 14 15 17 18c4 3 12 8 21 14c18 10 26 14 56 23c27 8 59 15 117 15c22 0 69 -3 127 -18c2 0 70 -16 108 -57c26 -29 25 -56 26 -88c1 -22 1 -45 1 -67c0 -55 1 -109 1 -164c0 -15 0 -30 2 -45c1 -12 1 -21 11 -33c9 -10 19 -13 29 -13c11 0 20 2 41 7zM340 178v130
c-6 -4 -11 -8 -17 -11c-14 -9 -29 -17 -43 -25c-3 -2 -40 -20 -57 -49c-12 -20 -18 -48 -18 -93c1 -33 8 -58 20 -70c5 -5 17 -13 33 -13c8 0 41 4 65 37c18 24 17 46 17 94zM475 733l40 -1c-1 -7 -4 -53 -24 -86c-8 -15 -16 -23 -27 -31c-13 -10 -32 -20 -62 -20
c-39 0 -95 19 -134 30c-33 10 -49 13 -66 13c-7 0 -18 -2 -28 -11c-1 -1 -4 -5 -6 -9c-7 -13 -6 -11 -8 -21h-39c0 5 3 55 24 89c6 10 18 22 22 25c19 18 45 23 68 23c27 0 63 -7 123 -26c4 -1 46 -17 74 -17s36 16 43 42z" />
    <glyph glyph-name="eacute" unicode="&#xe9;" horiz-adv-x="604" 
d="M570 241l-315 -1c0 -15 0 -29 1 -44c1 -19 3 -74 27 -107c23 -30 65 -40 93 -40c16 0 109 -1 128 94c2 11 2 23 2 47l63 -17c1 -9 7 -85 -44 -134c-6 -5 -19 -17 -34 -25c-45 -26 -106 -32 -151 -32c-240 0 -304 149 -304 264c1 71 24 127 39 153c18 33 36 53 48 64
c34 33 105 76 199 76c9 0 57 -2 93 -17c6 -2 26 -11 45 -23c31 -21 55 -51 59 -56c9 -12 20 -31 30 -59c25 -68 21 -116 21 -143zM256 301h132c1 37 2 74 -3 110c0 1 -4 39 -16 59c-8 13 -21 26 -48 26c-7 0 -21 0 -36 -17c-4 -5 -8 -10 -8 -11c-17 -31 -20 -135 -21 -167z
M562 733l-198 -157h-111l113 157h196z" />
    <glyph glyph-name="egrave" unicode="&#xe8;" horiz-adv-x="604" 
d="M570 241l-315 -1c0 -15 0 -29 1 -44c1 -19 3 -74 27 -107c23 -30 65 -40 93 -40c16 0 109 -1 128 94c2 11 2 23 2 47l63 -17c1 -9 7 -85 -44 -134c-6 -5 -19 -17 -34 -25c-45 -26 -106 -32 -151 -32c-240 0 -304 149 -304 264c1 71 24 127 39 153c18 33 36 53 48 64
c34 33 105 76 199 76c9 0 57 -2 93 -17c6 -2 26 -11 45 -23c31 -21 55 -51 59 -56c9 -12 20 -31 30 -59c25 -68 21 -116 21 -143zM256 301h132c1 37 2 74 -3 110c0 1 -4 39 -16 59c-8 13 -21 26 -48 26c-7 0 -21 0 -36 -17c-4 -5 -8 -10 -8 -11c-17 -31 -20 -135 -21 -167z
M262 734l113 -158h-110l-199 158h196z" />
    <glyph glyph-name="ecircumflex" unicode="&#xea;" horiz-adv-x="604" 
d="M570 241l-315 -1c0 -15 0 -29 1 -44c1 -19 3 -74 27 -107c23 -30 65 -40 93 -40c16 0 109 -1 128 94c2 11 2 23 2 47l63 -17c1 -9 7 -85 -44 -134c-6 -5 -19 -17 -34 -25c-45 -26 -106 -32 -151 -32c-240 0 -304 149 -304 264c1 71 24 127 39 153c18 33 36 53 48 64
c34 33 105 76 199 76c9 0 57 -2 93 -17c6 -2 26 -11 45 -23c31 -21 55 -51 59 -56c9 -12 20 -31 30 -59c25 -68 21 -116 21 -143zM256 301h132c1 37 2 74 -3 110c0 1 -4 39 -16 59c-8 13 -21 26 -48 26c-7 0 -21 0 -36 -17c-4 -5 -8 -10 -8 -11c-17 -31 -20 -135 -21 -167z
M358 734l149 -158h-136l-57 63l-56 -62h-132c29 31 54 60 82 92c21 23 40 44 58 65h92z" />
    <glyph glyph-name="edieresis" unicode="&#xeb;" horiz-adv-x="604" 
d="M570 241l-315 -1c0 -15 0 -29 1 -44c1 -19 3 -74 27 -107c23 -30 65 -40 93 -40c16 0 109 -1 128 94c2 11 2 23 2 47l63 -17c1 -9 7 -85 -44 -134c-6 -5 -19 -17 -34 -25c-45 -26 -106 -32 -151 -32c-240 0 -304 149 -304 264c1 71 24 127 39 153c18 33 36 53 48 64
c34 33 105 76 199 76c9 0 57 -2 93 -17c6 -2 26 -11 45 -23c31 -21 55 -51 59 -56c9 -12 20 -31 30 -59c25 -68 21 -116 21 -143zM256 301h132c1 37 2 74 -3 110c0 1 -4 39 -16 59c-8 13 -21 26 -48 26c-7 0 -21 0 -36 -17c-4 -5 -8 -10 -8 -11c-17 -31 -20 -135 -21 -167z
M442 735c15 0 38 -3 54 -10c5 -2 18 -8 29 -21c19 -21 17 -38 17 -47c0 -4 1 -29 -18 -49c-25 -25 -60 -28 -85 -28c-6 0 -52 -1 -80 26c-23 22 -23 44 -23 52c0 41 36 78 106 77zM184 733c39 1 64 -9 80 -21c3 -2 7 -5 11 -10c2 -2 4 -5 7 -10c10 -18 9 -25 9 -34
c0 -18 -1 -34 -18 -51c-18 -18 -43 -28 -84 -28c-45 0 -72 13 -88 32c-7 9 -16 22 -16 44c0 20 7 33 14 42c16 21 42 35 85 36z" />
    <glyph glyph-name="iacute" unicode="&#xed;" horiz-adv-x="313" 
d="M258 537v-537h-205v509c17 0 37 2 56 3c49 5 65 6 149 25zM406 733l-198 -157h-111l113 157h196z" />
    <glyph glyph-name="igrave" unicode="&#xec;" horiz-adv-x="313" 
d="M258 537v-537h-205v509c17 0 37 2 56 3c49 5 65 6 149 25zM105 734l114 -158h-110l-200 158h196z" />
    <glyph glyph-name="icircumflex" unicode="&#xee;" horiz-adv-x="313" 
d="M258 537v-537h-205v509c17 0 37 2 56 3c49 5 65 6 149 25zM202 734l149 -158h-136l-58 63l-55 -62h-132c29 31 53 60 82 92c20 23 39 44 58 65h92z" />
    <glyph glyph-name="idieresis" unicode="&#xef;" horiz-adv-x="313" 
d="M258 537v-537h-205v509c17 0 37 2 56 3c49 5 65 6 149 25zM286 735c15 0 38 -3 54 -10c4 -2 17 -8 29 -21c18 -21 17 -38 17 -47c0 -4 1 -29 -19 -49c-24 -25 -59 -28 -84 -28c-6 0 -52 -1 -80 26c-23 22 -23 44 -23 52c0 41 35 78 106 77zM28 733c39 1 63 -9 80 -21
c3 -2 6 -5 11 -10c2 -2 4 -5 6 -10c11 -18 10 -25 10 -34c0 -18 -2 -34 -18 -51c-18 -18 -44 -28 -84 -28c-45 0 -72 13 -88 32c-7 9 -16 22 -16 44c0 20 7 33 14 42c16 21 42 35 85 36z" />
    <glyph glyph-name="ntilde" unicode="&#xf1;" 
d="M256 537v-92c19 32 29 41 47 54c8 6 20 13 27 17c17 8 50 20 92 20c13 0 46 -2 82 -18c47 -22 70 -59 75 -72c7 -19 9 -41 9 -80v-366h-206v371c0 25 -1 38 -8 50c-5 10 -15 22 -36 22c-8 0 -22 -2 -42 -20c-39 -36 -39 -96 -41 -133v-290h-203v514c110 4 144 8 204 23z
M495 733l40 -1c0 -7 -3 -53 -23 -86c-8 -15 -16 -23 -27 -31c-13 -10 -32 -20 -63 -20c-39 0 -94 19 -133 30c-33 10 -50 13 -66 13c-7 0 -19 -2 -28 -11c-1 -1 -4 -5 -6 -9c-7 -13 -6 -11 -8 -21h-40c1 5 4 55 24 89c7 10 19 22 23 25c19 18 44 23 68 23
c27 0 63 -7 123 -26c4 -1 46 -17 74 -17s36 16 42 42z" />
    <glyph glyph-name="oacute" unicode="&#xf3;" horiz-adv-x="667" 
d="M341 542c22 0 142 1 226 -100c6 -7 25 -30 39 -61c10 -20 29 -73 29 -132c0 -19 -3 -82 -40 -143c-5 -10 -34 -52 -73 -79c-39 -26 -101 -47 -193 -47c-15 0 -115 -1 -190 51c-28 19 -57 53 -74 84c-30 56 -33 125 -33 138c0 15 3 63 22 112c5 12 12 25 19 38
c11 19 13 22 28 39c5 7 10 12 14 17c12 12 20 19 46 36c38 24 93 47 180 47zM333 492c-23 0 -51 -12 -62 -60c-9 -37 -15 -119 -15 -219c0 -34 1 -67 7 -101c0 -4 4 -38 21 -61c7 -9 23 -21 47 -21c10 0 39 1 58 32c16 25 22 93 22 167c0 35 -1 70 -3 105c-1 31 -3 61 -9 92
c-3 15 -6 28 -18 43c-9 10 -23 22 -48 23zM583 733l-198 -157h-111l113 157h196z" />
    <glyph glyph-name="ograve" unicode="&#xf2;" horiz-adv-x="667" 
d="M341 542c22 0 142 1 226 -100c6 -7 25 -30 39 -61c10 -20 29 -73 29 -132c0 -19 -3 -82 -40 -143c-5 -10 -34 -52 -73 -79c-39 -26 -101 -47 -193 -47c-15 0 -115 -1 -190 51c-28 19 -57 53 -74 84c-30 56 -33 125 -33 138c0 15 3 63 22 112c5 12 12 25 19 38
c11 19 13 22 28 39c5 7 10 12 14 17c12 12 20 19 46 36c38 24 93 47 180 47zM333 492c-23 0 -51 -12 -62 -60c-9 -37 -15 -119 -15 -219c0 -34 1 -67 7 -101c0 -4 4 -38 21 -61c7 -9 23 -21 47 -21c10 0 39 1 58 32c16 25 22 93 22 167c0 35 -1 70 -3 105c-1 31 -3 61 -9 92
c-3 15 -6 28 -18 43c-9 10 -23 22 -48 23zM282 734l114 -158h-110l-200 158h196z" />
    <glyph glyph-name="ocircumflex" unicode="&#xf4;" horiz-adv-x="667" 
d="M341 542c22 0 142 1 226 -100c6 -7 25 -30 39 -61c10 -20 29 -73 29 -132c0 -19 -3 -82 -40 -143c-5 -10 -34 -52 -73 -79c-39 -26 -101 -47 -193 -47c-15 0 -115 -1 -190 51c-28 19 -57 53 -74 84c-30 56 -33 125 -33 138c0 15 3 63 22 112c5 12 12 25 19 38
c11 19 13 22 28 39c5 7 10 12 14 17c12 12 20 19 46 36c38 24 93 47 180 47zM333 492c-23 0 -51 -12 -62 -60c-9 -37 -15 -119 -15 -219c0 -34 1 -67 7 -101c0 -4 4 -38 21 -61c7 -9 23 -21 47 -21c10 0 39 1 58 32c16 25 22 93 22 167c0 35 -1 70 -3 105c-1 31 -3 61 -9 92
c-3 15 -6 28 -18 43c-9 10 -23 22 -48 23zM379 734l149 -158h-136l-57 63l-56 -62h-132c29 31 53 60 82 92c21 23 40 44 58 65h92z" />
    <glyph glyph-name="otilde" unicode="&#xf5;" horiz-adv-x="667" 
d="M341 542c22 0 142 1 226 -100c6 -7 25 -30 39 -61c10 -20 29 -73 29 -132c0 -19 -3 -82 -40 -143c-5 -10 -34 -52 -73 -79c-39 -26 -101 -47 -193 -47c-15 0 -115 -1 -190 51c-28 19 -57 53 -74 84c-30 56 -33 125 -33 138c0 15 3 63 22 112c5 12 12 25 19 38
c11 19 13 22 28 39c5 7 10 12 14 17c12 12 20 19 46 36c38 24 93 47 180 47zM333 492c-23 0 -51 -12 -62 -60c-9 -37 -15 -119 -15 -219c0 -34 1 -67 7 -101c0 -4 4 -38 21 -61c7 -9 23 -21 47 -21c10 0 39 1 58 32c16 25 22 93 22 167c0 35 -1 70 -3 105c-1 31 -3 61 -9 92
c-3 15 -6 28 -18 43c-9 10 -23 22 -48 23zM506 733l40 -1c-1 -7 -4 -53 -23 -86c-9 -15 -17 -23 -28 -31c-13 -10 -32 -20 -62 -20c-39 0 -95 19 -134 30c-33 10 -49 13 -65 13c-8 0 -19 -2 -28 -11c-2 -1 -5 -5 -7 -9c-7 -13 -6 -11 -8 -21h-39c0 5 3 55 24 89
c6 10 19 22 22 25c19 18 45 23 68 23c27 0 63 -7 123 -26c4 -1 46 -17 74 -17c29 0 37 16 43 42z" />
    <glyph glyph-name="uacute" unicode="&#xfa;" 
d="M589 536v-536h-203l5 99c-5 -10 -14 -29 -36 -53c-18 -19 -33 -29 -40 -34c-43 -26 -92 -26 -104 -26c-80 0 -133 36 -151 82c-9 21 -9 41 -8 63l1 383c29 1 57 2 85 5c40 4 80 10 121 17l-6 -387c3 -23 4 -67 44 -67c31 0 49 32 55 42c16 26 24 52 31 106l5 283
c36 2 72 4 108 9c31 4 62 9 93 14zM572 733l-197 -157h-112l114 157h195z" />
    <glyph glyph-name="ugrave" unicode="&#xf9;" 
d="M589 536v-536h-203l5 99c-5 -10 -14 -29 -36 -53c-18 -19 -33 -29 -40 -34c-43 -26 -92 -26 -104 -26c-80 0 -133 36 -151 82c-9 21 -9 41 -8 63l1 383c29 1 57 2 85 5c40 4 80 10 121 17l-6 -387c3 -23 4 -67 44 -67c31 0 49 32 55 42c16 26 24 52 31 106l5 283
c36 2 72 4 108 9c31 4 62 9 93 14zM272 734l114 -158h-110l-200 158h196z" />
    <glyph glyph-name="ucircumflex" unicode="&#xfb;" 
d="M589 536v-536h-203l5 99c-5 -10 -14 -29 -36 -53c-18 -19 -33 -29 -40 -34c-43 -26 -92 -26 -104 -26c-80 0 -133 36 -151 82c-9 21 -9 41 -8 63l1 383c29 1 57 2 85 5c40 4 80 10 121 17l-6 -387c3 -23 4 -67 44 -67c31 0 49 32 55 42c16 26 24 52 31 106l5 283
c36 2 72 4 108 9c31 4 62 9 93 14zM369 734l148 -158h-136l-57 63l-55 -62h-133c29 31 54 60 83 92c20 23 39 44 57 65h93z" />
    <glyph glyph-name="Agrave" unicode="&#xc0;" horiz-adv-x="604" 
d="M229 709h192c13 -49 26 -97 38 -145c7 -27 13 -53 20 -80c10 -37 21 -73 30 -110c31 -124 62 -248 94 -374h-238l-28 121h-209l-38 -120l-90 -1zM249 504l-92 -291h160zM317 892l75 -136h-140l-155 136h220z" />
    <glyph glyph-name="Atilde" unicode="&#xc3;" horiz-adv-x="604" 
d="M229 709h192c13 -49 26 -97 38 -145c7 -27 13 -53 20 -80c10 -37 21 -73 30 -110c31 -124 62 -248 94 -374h-238l-28 121h-209l-38 -120l-90 -1zM249 504l-92 -291h160zM485 891h39c0 -1 -1 -73 -43 -111c-14 -14 -35 -27 -70 -27c-34 1 -64 11 -131 31
c-2 0 -43 12 -66 12c-5 0 -27 0 -39 -24c-3 -8 -4 -14 -5 -17l-39 1c1 11 2 46 21 81c14 29 38 43 47 47s23 8 45 8c37 0 85 -14 122 -25c41 -12 57 -17 78 -18c6 0 24 1 35 23c4 8 5 17 6 19z" />
    <glyph glyph-name="Otilde" unicode="&#xd5;" horiz-adv-x="812" 
d="M401 726c19 1 37 0 55 -3c33 -4 85 -19 119 -37c40 -21 112 -73 157 -166c8 -16 13 -32 18 -47c4 -12 12 -39 16 -71c2 -12 2 -23 3 -35c0 -12 1 -24 1 -37c0 -63 -21 -149 -67 -211c-25 -35 -61 -66 -93 -85c-85 -49 -191 -50 -210 -50c-98 0 -162 26 -204 51
c-10 6 -19 12 -28 19c-21 16 -42 39 -60 63c-21 28 -35 57 -39 66c-11 27 -29 83 -29 153c0 23 2 99 36 173c5 12 11 24 18 35c9 17 20 34 32 49c11 14 33 39 66 64c10 7 20 13 30 19c11 7 22 13 33 18c62 28 129 32 146 32zM401 669c-57 -4 -69 -66 -71 -77
c-11 -48 -18 -158 -18 -289c0 -43 1 -86 5 -129c0 -2 3 -59 23 -92c22 -35 56 -34 64 -34c3 0 25 0 39 8c8 4 12 8 16 12c13 14 22 31 29 60c12 48 16 141 16 185c0 31 -1 63 -2 95c-1 36 -3 72 -6 108c-6 63 -15 108 -39 132c-10 10 -28 23 -56 21zM578 891h40
c0 -1 -1 -73 -43 -111c-15 -14 -36 -27 -71 -27c-34 1 -63 11 -131 31c-1 0 -42 12 -66 12c-5 0 -26 0 -38 -24c-4 -8 -4 -14 -5 -17l-40 1c1 11 3 46 21 81c15 29 39 43 48 47s23 8 45 8c37 0 85 -14 122 -25c40 -12 57 -17 77 -18c7 0 25 1 36 23c4 8 5 17 5 19z" />
    <glyph glyph-name="ydieresis" unicode="&#xff;" horiz-adv-x="542" 
d="M-5 524h230l129 -306l100 306h88c-27 -75 -55 -149 -81 -224c-27 -77 -54 -154 -83 -230c-13 -32 -25 -65 -39 -96c-27 -59 -53 -94 -82 -117c-22 -18 -58 -38 -113 -38c-35 0 -62 9 -76 16c-1 1 -12 7 -18 11c-8 7 -12 11 -15 15c-15 17 -29 41 -29 82c0 11 2 22 3 33
l100 20c-1 -5 -8 -24 -8 -43c0 -29 10 -44 25 -54c8 -5 20 -11 38 -11c17 1 29 7 36 12c27 18 42 49 54 74zM410 735c16 0 39 -3 55 -10c4 -2 17 -8 29 -21c18 -21 17 -38 17 -47c0 -4 1 -29 -19 -49c-24 -25 -59 -28 -84 -28c-6 0 -52 -1 -80 26c-23 22 -23 44 -23 52
c0 41 35 78 105 77zM153 733c39 1 63 -9 80 -21c3 -2 6 -5 11 -10c2 -2 4 -5 6 -10c11 -18 10 -25 10 -34c0 -18 -2 -34 -18 -51c-18 -18 -44 -28 -84 -28c-45 0 -72 13 -88 32c-7 9 -16 22 -16 44c0 20 7 33 14 42c16 21 41 35 85 36z" />
    <glyph glyph-name="Ydieresis" unicode="&#x178;" 
d="M-3 706h274l133 -345l136 346h105l-190 -474v-233h-249l2 208zM216 894c4 0 23 1 40 -3c40 -10 66 -36 66 -75c0 -14 -2 -29 -14 -44c-8 -9 -17 -16 -19 -17c-12 -7 -39 -16 -69 -16c-6 0 -45 1 -73 19c-11 8 -30 28 -30 57c0 6 0 21 8 36c14 26 44 42 91 43zM463 894
c5 1 40 1 65 -11c19 -8 46 -27 46 -67c0 -5 0 -24 -14 -43c-3 -3 -13 -14 -24 -20c-12 -6 -36 -14 -67 -14c-7 0 -39 1 -66 17c-5 2 -12 6 -20 17c-9 11 -15 22 -15 44c0 15 4 28 14 42c16 22 39 32 81 35z" />
    <glyph glyph-name="Acircumflex" unicode="&#xc2;" horiz-adv-x="604" 
d="M229 709h192c13 -49 26 -97 38 -145c7 -27 13 -53 20 -80c10 -37 21 -73 30 -110c31 -124 62 -248 94 -374h-238l-28 121h-209l-38 -120l-90 -1zM249 504l-92 -291h160zM381 892l138 -138h-148l-56 57l-55 -58h-145l133 139h133z" />
    <glyph glyph-name="Ecircumflex" unicode="&#xca;" 
d="M591 707l1 -91h-280v-192h260v-93h-259v-233h315v-98h-562v707h525zM392 892l138 -138h-148l-57 57l-54 -58h-146l133 139h134z" />
    <glyph glyph-name="Aacute" unicode="&#xc1;" horiz-adv-x="604" 
d="M229 709h192c13 -49 26 -97 38 -145c7 -27 13 -53 20 -80c10 -37 21 -73 30 -110c31 -124 62 -248 94 -374h-238l-28 121h-209l-38 -120l-90 -1zM249 504l-92 -291h160zM314 891h225l-159 -136h-137z" />
    <glyph glyph-name="Edieresis" unicode="&#xcb;" 
d="M591 707l1 -91h-280v-192h260v-93h-259v-233h315v-98h-562v707h525zM195 894c4 0 24 1 40 -3c40 -10 66 -36 66 -75c0 -14 -2 -29 -14 -44c-8 -9 -17 -16 -19 -17c-12 -7 -38 -16 -69 -16c-6 0 -45 1 -72 19c-12 8 -31 28 -31 57c0 6 0 21 8 36c14 26 45 42 91 43z
M442 894c5 1 40 1 65 -11c19 -8 46 -27 46 -67c0 -5 1 -24 -14 -43c-3 -3 -13 -14 -24 -20c-12 -6 -36 -14 -66 -14c-8 0 -40 1 -67 17c-5 2 -12 6 -20 17c-9 11 -15 22 -15 44c0 15 4 28 14 42c16 22 39 32 81 35z" />
    <glyph glyph-name="Egrave" unicode="&#xc8;" 
d="M591 707l1 -91h-280v-192h260v-93h-259v-233h315v-98h-562v707h525zM327 892l75 -136h-139l-156 136h220z" />
    <glyph glyph-name="Iacute" unicode="&#xcd;" horiz-adv-x="375" 
d="M64 707h247v-707h-247v707zM189 891h225l-159 -136h-137z" />
    <glyph glyph-name="Icircumflex" unicode="&#xce;" horiz-adv-x="375" 
d="M64 707h247v-707h-247v707zM256 892l138 -138h-148l-56 57l-55 -58h-145l133 139h133z" />
    <glyph glyph-name="Idieresis" unicode="&#xcf;" horiz-adv-x="375" 
d="M64 707h247v-707h-247v707zM59 894c4 0 24 1 40 -3c41 -10 67 -36 67 -75c0 -14 -2 -29 -15 -44c-7 -9 -16 -16 -19 -17c-11 -7 -38 -16 -69 -16c-6 0 -44 1 -72 19c-12 8 -30 28 -30 57c0 6 0 21 8 36c14 26 44 42 90 43zM307 894c5 1 40 1 65 -11c19 -8 45 -27 45 -67
c0 -5 1 -24 -13 -43c-3 -3 -13 -14 -25 -20c-11 -6 -35 -14 -66 -14c-8 0 -40 1 -67 17c-4 2 -11 6 -20 17c-8 11 -14 22 -14 44c0 15 4 28 14 42c16 22 38 32 81 35z" />
    <glyph glyph-name="Igrave" unicode="&#xcc;" horiz-adv-x="375" 
d="M64 707h247v-707h-247v707zM192 892l75 -136h-140l-155 136h220z" />
    <glyph glyph-name="Oacute" unicode="&#xd3;" horiz-adv-x="812" 
d="M401 726c19 1 37 0 55 -3c33 -4 85 -19 119 -37c40 -21 112 -73 157 -166c8 -16 13 -32 18 -47c4 -12 12 -39 16 -71c2 -12 2 -23 3 -35c0 -12 1 -24 1 -37c0 -63 -21 -149 -67 -211c-25 -35 -61 -66 -93 -85c-85 -49 -191 -50 -210 -50c-98 0 -162 26 -204 51
c-10 6 -19 12 -28 19c-21 16 -42 39 -60 63c-21 28 -35 57 -39 66c-11 27 -29 83 -29 153c0 23 2 99 36 173c5 12 11 24 18 35c9 17 20 34 32 49c11 14 33 39 66 64c10 7 20 13 30 19c11 7 22 13 33 18c62 28 129 32 146 32zM401 669c-57 -4 -69 -66 -71 -77
c-11 -48 -18 -158 -18 -289c0 -43 1 -86 5 -129c0 -2 3 -59 23 -92c22 -35 56 -34 64 -34c3 0 25 0 39 8c8 4 12 8 16 12c13 14 22 31 29 60c12 48 16 141 16 185c0 31 -1 63 -2 95c-1 36 -3 72 -6 108c-6 63 -15 108 -39 132c-10 10 -28 23 -56 21zM408 891h224l-159 -136
h-136z" />
    <glyph glyph-name="Ocircumflex" unicode="&#xd4;" horiz-adv-x="812" 
d="M401 726c19 1 37 0 55 -3c33 -4 85 -19 119 -37c40 -21 112 -73 157 -166c8 -16 13 -32 18 -47c4 -12 12 -39 16 -71c2 -12 2 -23 3 -35c0 -12 1 -24 1 -37c0 -63 -21 -149 -67 -211c-25 -35 -61 -66 -93 -85c-85 -49 -191 -50 -210 -50c-98 0 -162 26 -204 51
c-10 6 -19 12 -28 19c-21 16 -42 39 -60 63c-21 28 -35 57 -39 66c-11 27 -29 83 -29 153c0 23 2 99 36 173c5 12 11 24 18 35c9 17 20 34 32 49c11 14 33 39 66 64c10 7 20 13 30 19c11 7 22 13 33 18c62 28 129 32 146 32zM401 669c-57 -4 -69 -66 -71 -77
c-11 -48 -18 -158 -18 -289c0 -43 1 -86 5 -129c0 -2 3 -59 23 -92c22 -35 56 -34 64 -34c3 0 25 0 39 8c8 4 12 8 16 12c13 14 22 31 29 60c12 48 16 141 16 185c0 31 -1 63 -2 95c-1 36 -3 72 -6 108c-6 63 -15 108 -39 132c-10 10 -28 23 -56 21zM475 892l138 -138h-148
l-57 57l-54 -58h-145l132 139h134z" />
    <glyph glyph-name="Ograve" unicode="&#xd2;" horiz-adv-x="812" 
d="M401 726c19 1 37 0 55 -3c33 -4 85 -19 119 -37c40 -21 112 -73 157 -166c8 -16 13 -32 18 -47c4 -12 12 -39 16 -71c2 -12 2 -23 3 -35c0 -12 1 -24 1 -37c0 -63 -21 -149 -67 -211c-25 -35 -61 -66 -93 -85c-85 -49 -191 -50 -210 -50c-98 0 -162 26 -204 51
c-10 6 -19 12 -28 19c-21 16 -42 39 -60 63c-21 28 -35 57 -39 66c-11 27 -29 83 -29 153c0 23 2 99 36 173c5 12 11 24 18 35c9 17 20 34 32 49c11 14 33 39 66 64c10 7 20 13 30 19c11 7 22 13 33 18c62 28 129 32 146 32zM401 669c-57 -4 -69 -66 -71 -77
c-11 -48 -18 -158 -18 -289c0 -43 1 -86 5 -129c0 -2 3 -59 23 -92c22 -35 56 -34 64 -34c3 0 25 0 39 8c8 4 12 8 16 12c13 14 22 31 29 60c12 48 16 141 16 185c0 31 -1 63 -2 95c-1 36 -3 72 -6 108c-6 63 -15 108 -39 132c-10 10 -28 23 -56 21zM410 892l75 -136h-139
l-156 136h220z" />
    <glyph glyph-name="Uacute" unicode="&#xda;" horiz-adv-x="750" 
d="M65 706h248v-481c1 -50 1 -74 11 -99c12 -31 43 -54 96 -54c12 0 67 2 114 37c7 6 29 25 41 48c10 20 10 30 15 79v470h100v-486c-2 -28 -4 -60 -26 -99c-7 -13 -14 -23 -24 -36c-11 -13 -19 -19 -32 -30c-96 -76 -223 -76 -243 -76c-73 0 -120 18 -152 31
c-15 6 -31 13 -46 22c-8 5 -29 19 -47 34c-4 3 -18 16 -29 33c-7 9 -12 18 -15 27c-5 14 -7 26 -11 63v517zM397 891h225l-159 -136h-137z" />
    <glyph glyph-name="Ucircumflex" unicode="&#xdb;" horiz-adv-x="750" 
d="M65 706h248v-481c1 -50 1 -74 11 -99c12 -31 43 -54 96 -54c12 0 67 2 114 37c7 6 29 25 41 48c10 20 10 30 15 79v470h100v-486c-2 -28 -4 -60 -26 -99c-7 -13 -14 -23 -24 -36c-11 -13 -19 -19 -32 -30c-96 -76 -223 -76 -243 -76c-73 0 -120 18 -152 31
c-15 6 -31 13 -46 22c-8 5 -29 19 -47 34c-4 3 -18 16 -29 33c-7 9 -12 18 -15 27c-5 14 -7 26 -11 63v517zM464 892l139 -138h-148l-57 57l-54 -58h-146l133 139h133z" />
    <glyph glyph-name="Ugrave" unicode="&#xd9;" horiz-adv-x="750" 
d="M65 706h248v-481c1 -50 1 -74 11 -99c12 -31 43 -54 96 -54c12 0 67 2 114 37c7 6 29 25 41 48c10 20 10 30 15 79v470h100v-486c-2 -28 -4 -60 -26 -99c-7 -13 -14 -23 -24 -36c-11 -13 -19 -19 -32 -30c-96 -76 -223 -76 -243 -76c-73 0 -120 18 -152 31
c-15 6 -31 13 -46 22c-8 5 -29 19 -47 34c-4 3 -18 16 -29 33c-7 9 -12 18 -15 27c-5 14 -7 26 -11 63v517zM400 892l75 -136h-139l-156 136h220z" />
    </font>
</defs>
</svg>
