<?xml version="1.0" standalone="no"?>
<!DOCTYPE svg PUBLIC "-//W3C//DTD SVG 1.1//EN" "http://www.w3.org/Graphics/SVG/1.1/DTD/svg11.dtd" >
<svg xmlns="http://www.w3.org/2000/svg" xmlns:xlink="http://www.w3.org/1999/xlink" version="1.1">
<metadata>
Created by FontForge 20161003 at Wed Mar 20 16:42:19 2019
 By www-data
\(c\) Alexander Pompeev, 1994-98.
</metadata>
<defs>
<font id="FucoExtraAPBold" horiz-adv-x="508" >
  <font-face 
    font-family="FucoExtraAPBold"
    font-weight="700"
    font-stretch="normal"
    units-per-em="1000"
    panose-1="0 0 8 0 0 0 0 0 0 0"
    ascent="764"
    descent="-236"
    x-height="500"
    cap-height="713"
    bbox="-31 -236 1054 905"
    underline-thickness="120"
    underline-position="-228"
    unicode-range="U+0020-2122"
  />
<missing-glyph horiz-adv-x="280" 
 />
    <glyph glyph-name=".notdef" horiz-adv-x="280" 
 />
    <glyph glyph-name=".null" horiz-adv-x="0" 
 />
    <glyph glyph-name="nonmarkingreturn" horiz-adv-x="333" 
 />
    <glyph glyph-name="space" unicode=" " horiz-adv-x="247" 
 />
    <glyph glyph-name="space" unicode="&#xa0;" horiz-adv-x="247" 
 />
    <glyph glyph-name="exclam" unicode="!" horiz-adv-x="311" 
d="M251 750l-12 -481h-168l-12 481h192zM266 95q0 -47 -32 -79t-79 -32t-79 32t-32 79t32 79t79 32t79 -32t32 -79z" />
    <glyph glyph-name="quotedbl" unicode="&#x22;" horiz-adv-x="363" 
d="M319 428h-109v274h109v-274zM151 428h-107v274h107v-274z" />
    <glyph glyph-name="numbersign" unicode="#" horiz-adv-x="784" 
d="M765 523l-42 -112h-131l-39 -112h135l-41 -113h-134l-69 -192h-122l68 192h-115l-69 -192h-122l68 192h-134l42 113h132l40 112h-138l42 112h136l69 193h122l-68 -193h115l69 193h122l-68 -193h132zM472 411h-120l-40 -113h120z" />
    <glyph glyph-name="dollar" unicode="$" 
d="M486 216q0 -82 -49.5 -139.5t-131.5 -76.5v-112h-121v106q-90 7 -179 88l88 148q60 -68 123 -68q23 0 40 13t17 35t-26 46.5t-63.5 50t-75 55t-63.5 72.5t-26 91q0 72 45.5 120t119.5 65v103h121v-94q82 -3 162 -62l-67 -136q-57 51 -110 51q-22 0 -37.5 -10t-15.5 -31
q0 -23 25.5 -45.5t62 -45.5t73.5 -51t62.5 -73t25.5 -100z" />
    <glyph glyph-name="percent" unicode="%" horiz-adv-x="749" 
d="M717 177q0 -82 -37.5 -136t-115.5 -54t-115 54t-37 136t37 136t115 54t115.5 -54t37.5 -136zM588 727l-337 -741h-92l337 741h92zM336 534q0 -82 -37.5 -136t-115.5 -54t-115.5 54t-37.5 136t37.5 135.5t115.5 53.5t115.5 -53.5t37.5 -135.5zM596 180v9v12.5t-0.5 14
t-1 15t-2 14t-4 13.5t-6 10t-8 7.5t-10.5 2.5q-7 0 -13 -4t-9 -12t-5 -15t-3 -19.5t-1 -18v-17.5v-12v-12.5v-17t0.5 -18t2.5 -19t5.5 -15.5t9 -12t13.5 -4q6 0 10.5 2.5t8 7.5t6 10t4 13.5t2 14t1 15t0.5 14v12.5v9zM214 537v12v17.5t-1 18t-3 19.5t-5 15t-9 12t-13 4
t-13 -4t-9 -12t-5 -15t-3 -19.5t-1 -18v-17.5v-12v-12.5v-17.5t0.5 -18.5t2.5 -19t5.5 -15.5t9 -12t13.5 -4q7 0 13 4t9 12t5 15.5t3 20t1 18v17.5v12z" />
    <glyph glyph-name="ampersand" unicode="&#x26;" horiz-adv-x="652" 
d="M652 0h-207l-22 38q-81 -53 -174 -53q-96 0 -153 56t-57 151q0 116 127 221q-56 73 -56 146q0 79 60 122.5t141 43.5q77 0 131.5 -44.5t54.5 -119.5q0 -88 -106 -168l72 -107q31 28 55 68l90 -138q-31 -42 -55 -66zM352 563q0 16 -9.5 27.5t-24.5 11.5q-16 0 -26.5 -11.5
t-10.5 -27.5q0 -28 32 -66q39 39 39 66zM321 179l-70 101q-39 -39 -39 -69q0 -23 16.5 -39.5t38.5 -16.5q24 0 54 24z" />
    <glyph glyph-name="quotesingle" unicode="'" horiz-adv-x="196" 
d="M151 428h-107v274h107v-274z" />
    <glyph glyph-name="parenleft" unicode="(" horiz-adv-x="346" 
d="M327 -91l-114 -74q-169 210 -169 468q0 259 169 469l114 -74q-129 -189 -129 -395q0 -202 129 -394z" />
    <glyph glyph-name="parenright" unicode=")" horiz-adv-x="346" 
d="M301 303q0 -258 -169 -468l-114 74q129 192 129 394q0 206 -129 395l114 74q169 -210 169 -469z" />
    <glyph glyph-name="asterisk" unicode="*" horiz-adv-x="531" 
d="M435 489l-41 -70l-88 50v-102h-82v102l-88 -50l-41 70l88 51l-88 51l41 71l88 -51v102h82v-102l88 51l41 -71l-88 -51z" />
    <glyph glyph-name="plus" unicode="+" horiz-adv-x="848" 
d="M716 242h-234v-242h-116v242h-235v113h235v241h116v-241h234v-113z" />
    <glyph glyph-name="comma" unicode="," horiz-adv-x="262" 
d="M254 185l-151 -351h-131l96 351h186z" />
    <glyph glyph-name="hyphen" unicode="-" horiz-adv-x="367" 
d="M323 169h-280v162h280v-162z" />
    <glyph glyph-name="hyphen" unicode="&#xad;" horiz-adv-x="367" 
d="M323 169h-280v162h280v-162z" />
    <glyph glyph-name="period" unicode="." horiz-adv-x="262" 
d="M241 100q0 -47 -32.5 -79.5t-78.5 -32.5t-78.5 32.5t-32.5 79.5q0 46 32.5 78.5t78.5 32.5t78.5 -32.5t32.5 -78.5z" />
    <glyph glyph-name="slash" unicode="/" horiz-adv-x="446" 
d="M427 727l-340 -820h-99l339 820h100z" />
    <glyph glyph-name="zero" unicode="0" 
d="M482 356q0 -63 -9.5 -121t-33 -117.5t-71 -95.5t-114.5 -36q-54 0 -96 25t-66.5 62.5t-40 89t-21 98t-5.5 95.5t5.5 95.5t21 98t40 89.5t66.5 63t96 25t95.5 -25t66 -63t40 -89.5t21 -98t5.5 -95.5zM300 362q0 1 0.5 20t0 32.5t-1.5 36t-4 38.5t-8 32t-13.5 24.5
t-19.5 8.5q-9 0 -16 -5.5t-12 -15.5t-8.5 -21.5t-5.5 -27t-3.5 -29t-1.5 -30v-26.5v-22.5v-14.5v-14.5v-22.5v-26.5t1.5 -30t3.5 -29t5.5 -27t8.5 -21.5t12 -15.5t16 -5.5q11 0 19.5 8.5t13.5 24.5t8 32t4 38.5t1.5 36t0 32.5t-0.5 20z" />
    <glyph glyph-name="one" unicode="1" 
d="M358 0h-187v547h-66v166h253v-713z" />
    <glyph glyph-name="two" unicode="2" 
d="M475 529q0 -84 -43.5 -171.5t-114.5 -188.5h144v-169h-454q275 392 275 519q0 60 -46 60q-8 0 -15 -3t-11.5 -9.5t-8 -13t-5.5 -17.5t-3.5 -17.5t-2 -20t-0.5 -18v-16.5v-13h-167q0 5 -0.5 14t-0.5 13q0 117 55.5 183t170.5 66q99 0 163 -51t64 -147z" />
    <glyph glyph-name="three" unicode="3" 
d="M489 202q0 -107 -66.5 -161.5t-176.5 -54.5q-223 0 -223 234h174q0 -84 43 -84q48 0 48 66q0 58 -27.5 80.5t-84.5 15.5v133q8 -1 23 -1q47 0 67.5 19.5t20.5 66.5q0 65 -44 65q-40 0 -43 -66h-167q0 99 57.5 155.5t156.5 56.5q95 0 160 -50t65 -143q0 -60 -31.5 -105
t-88.5 -57q63 -9 100 -57t37 -113z" />
    <glyph glyph-name="four" unicode="4" 
d="M487 145h-49v-145h-169v145h-248v149l188 419h229v-423h49v-145zM269 290v229l-95 -229h95z" />
    <glyph glyph-name="five" unicode="5" 
d="M488 244q0 -120 -82 -189t-204 -69q-96 0 -198 46l29 167q72 -43 132 -43q42 0 75 20t33 59q0 51 -37.5 72.5t-92.5 21.5q-44 0 -106 -20l61 404h356v-157h-222l-17 -102q35 7 61 7q92 0 152 -62.5t60 -154.5z" />
    <glyph glyph-name="six" unicode="6" 
d="M487 265q0 -115 -57.5 -197t-167.5 -82q-112 0 -174.5 77t-62.5 191q0 202 176 459h212q-97 -119 -160 -250q38 19 71 19q54 0 92.5 -34.5t54.5 -82t16 -100.5zM298 243q0 18 -0.5 28t-4 28t-13 27t-24.5 9q-44 0 -44 -92q0 -97 42 -97q44 0 44 97z" />
    <glyph glyph-name="seven" unicode="7" 
d="M533 713l-282 -713h-224l259 547h-230v166h477z" />
    <glyph glyph-name="eight" unicode="8" 
d="M491 199q0 -98 -68.5 -155t-168.5 -57q-103 0 -170.5 57.5t-67.5 158.5q0 61 31 109.5t88 65.5q-49 19 -77 59.5t-28 93.5q0 89 66 140.5t158 51.5q90 0 156.5 -51.5t66.5 -138.5q0 -55 -27.5 -95.5t-77.5 -59.5q59 -19 89 -67t30 -112zM295 508q0 76 -43 76
q-40 0 -40 -76q0 -75 44 -75q39 0 39 75zM296 227q0 89 -43 89t-43 -89q0 -88 44 -88q15 0 24.5 8.5t13 25.5t4 26.5t0.5 27.5z" />
    <glyph glyph-name="nine" unicode="9" 
d="M486 458q0 -201 -176 -458h-213q101 123 161 249q-36 -18 -72 -18q-79 0 -120.5 66.5t-41.5 150.5q0 114 57.5 196.5t166.5 82.5q112 0 175 -77.5t63 -191.5zM299 473q0 94 -43 94t-43 -97q0 -93 41 -93q45 0 45 96z" />
    <glyph glyph-name="colon" unicode=":" horiz-adv-x="311" 
d="M266 389q0 -47 -32 -79t-79 -32t-79 32t-32 79t32 79t79 32t79 -32t32 -79zM266 100q0 -47 -32.5 -79.5t-78.5 -32.5t-78.5 32.5t-32.5 79.5q0 46 32 78.5t79 32.5t79 -32.5t32 -78.5z" />
    <glyph glyph-name="semicolon" unicode=";" horiz-adv-x="311" 
d="M277 389q0 -47 -32.5 -79t-78.5 -32t-78.5 32t-32.5 79t32.5 79t78.5 32t78.5 -32t32.5 -79zM251 185l-151 -351h-131l96 351h186z" />
    <glyph glyph-name="less" unicode="&#x3c;" horiz-adv-x="848" 
d="M711 4l-575 237v114l575 238v-124l-417 -171l417 -170v-124z" />
    <glyph glyph-name="equal" unicode="=" horiz-adv-x="848" 
d="M716 351h-585v113h585v-113zM716 133h-585v112h585v-112z" />
    <glyph glyph-name="greater" unicode="&#x3e;" horiz-adv-x="848" 
d="M711 241l-575 -237v124l417 170l-417 171v124l575 -238v-114z" />
    <glyph glyph-name="question" unicode="?" horiz-adv-x="513" 
d="M481 565q0 -77 -35 -136.5t-107 -64.5l-9 -94h-170v178q26 -4 40 -4q91 0 91 108q0 28 -11 51.5t-36 23.5q-22 0 -33.5 -16t-13 -31.5t-1.5 -39.5h-171q6 113 67 172.5t174 59.5q94 0 154.5 -57t60.5 -150zM353 95q0 -46 -32.5 -78.5t-79.5 -32.5t-79 32t-32 79t32 79
t79 32t79.5 -32.5t32.5 -78.5z" />
    <glyph glyph-name="at" unicode="@" horiz-adv-x="865" 
d="M824 421q0 -106 -69.5 -190t-173.5 -84q-88 0 -92 66q-43 -66 -122 -66q-138 0 -138 143q0 94 56 165t148 71q63 0 95 -51l21 38h86q-2 -8 -20 -76t-31.5 -123t-13.5 -68q0 -25 26 -25q64 0 103.5 65t39.5 134q0 107 -79 166t-190 59q-144 0 -243.5 -90t-99.5 -233
q0 -132 87.5 -203t222.5 -71q138 0 247 77l40 -56q-129 -97 -287 -97q-168 0 -282 92.5t-114 255.5q0 116 59.5 209t157.5 143.5t213 50.5q95 0 173.5 -33t129 -103t50.5 -166zM504 393q-3 30 -20 47.5t-46 17.5q-35 0 -61 -31t-36.5 -68.5t-10.5 -70.5q0 -72 55 -72
q22 0 40 9.5t28 20.5t20 35t13.5 35.5t10 41.5t7.5 35z" />
    <glyph glyph-name="A" unicode="A" horiz-adv-x="530" 
d="M532 0h-194l-15 105h-118l-15 -105h-194l156 713h224zM304 249l-40 264l-39 -264h79z" />
    <glyph glyph-name="B" unicode="B" horiz-adv-x="559" 
d="M528 201q0 -201 -257 -201h-222v713h222q242 0 242 -179q0 -129 -137 -159q152 -32 152 -174zM325 503q0 30 -20 44t-51 14h-11v-123q82 4 82 65zM327 234q0 36 -23.5 53.5t-60.5 17.5v-144h10q35 0 54.5 19t19.5 54z" />
    <glyph glyph-name="C" unicode="C" horiz-adv-x="453" 
d="M426 11q-58 -25 -112 -25q-74 0 -132 33.5t-91 89t-50 120t-17 133.5q0 67 17 130t50.5 116t89.5 85.5t127 32.5q60 0 118 -20v-171q-38 21 -73 21q-121 0 -121 -197q0 -33 5 -63t16.5 -61t36 -49.5t59.5 -18.5q42 0 77 23v-179z" />
    <glyph glyph-name="D" unicode="D" horiz-adv-x="563" 
d="M541 356q0 -356 -300 -356h-192v713h148q185 0 264.5 -85t79.5 -272zM340 360q0 91 -10 122q-19 60 -82 60v-362h9q24 0 40.5 12.5t25 28t12.5 43.5t4.5 43.5t0.5 43.5v9z" />
    <glyph glyph-name="E" unicode="E" horiz-adv-x="437" 
d="M401 0h-354v713h354v-173h-154v-91h139v-167h-139v-98h154v-184z" />
    <glyph glyph-name="F" unicode="F" horiz-adv-x="419" 
d="M399 540h-154v-103h135v-168h-135v-269h-199v713h353v-173z" />
    <glyph glyph-name="G" unicode="G" horiz-adv-x="566" 
d="M542 352q0 -58 -5 -106t-21.5 -98t-43 -84t-72.5 -56t-108 -22q-75 0 -129 32.5t-83 88t-42 117t-13 132.5q0 72 13 134t42.5 117.5t84.5 87.5t131 32q93 0 150.5 -42.5t86.5 -131.5l-173 -59q-21 70 -67 70q-12 0 -22 -5t-17 -15t-12 -20.5t-8 -27t-5 -28.5t-2.5 -30.5
t-0.5 -28v-25.5v-19v-19v-25.5t0.5 -27.5t2.5 -30t4.5 -28t8 -26.5t12 -20.5t16.5 -15t22 -5q55 0 55 103h-59v145h252q2 -42 2 -64z" />
    <glyph glyph-name="H" unicode="H" horiz-adv-x="582" 
d="M532 0h-199v279h-85v-279h-199v713h199v-256h85v256h199v-713z" />
    <glyph glyph-name="I" unicode="I" horiz-adv-x="309" 
d="M253 0h-199v713h199v-713z" />
    <glyph glyph-name="J" unicode="J" horiz-adv-x="385" 
d="M335 221q0 -101 -51.5 -168t-149.5 -67q-65 0 -118 31v175q42 -35 67 -35q18 0 30 7.5t16.5 23t5.5 27t1 31.5v467h199v-492z" />
    <glyph glyph-name="K" unicode="K" horiz-adv-x="565" 
d="M565 0h-215l-102 324v-324h-200v713h200v-298l109 298h204l-147 -329z" />
    <glyph glyph-name="L" unicode="L" horiz-adv-x="418" 
d="M394 0h-346v713h200v-536h146v-177z" />
    <glyph glyph-name="M" unicode="M" horiz-adv-x="749" 
d="M724 0h-182l-15 505l-79 -505h-148l-79 505l-16 -505h-181l51 713h237l62 -376l62 376h237z" />
    <glyph glyph-name="N" unicode="N" horiz-adv-x="588" 
d="M538 0h-196l-111 357v-357h-182v713h198l110 -375v375h181v-713z" />
    <glyph glyph-name="O" unicode="O" horiz-adv-x="584" 
d="M558 356q0 -71 -13 -132.5t-41.5 -117t-82.5 -88t-129 -32.5t-129 32.5t-83 88t-42 117t-13 132.5t13 133t42 117.5t83 88t129 32.5q60 0 107 -22t76.5 -58t48.5 -85.5t26.5 -100t7.5 -105.5zM357 361v18.5v25t-0.5 27t-2.5 29.5t-4.5 27.5t-7.5 26t-12 20t-16.5 14.5
t-21.5 5t-22 -5t-16.5 -14.5t-12 -20t-8 -26t-4.5 -27.5t-2.5 -29.5t-0.5 -27v-25v-18.5v-18.5v-25t0.5 -27t2.5 -29.5t4.5 -27.5t8 -26t12 -20t16.5 -14.5t22 -5t21.5 5t16.5 14.5t12 20t7.5 26t4.5 27.5t2.5 29.5t0.5 27v25v18.5z" />
    <glyph glyph-name="P" unicode="P" horiz-adv-x="543" 
d="M526 462q0 -128 -74 -181t-205 -53v-228h-199v713h212q266 0 266 -251zM336 476q0 85 -89 85v-168q89 2 89 83z" />
    <glyph glyph-name="Q" unicode="Q" horiz-adv-x="584" 
d="M558 356q0 -202 -95 -304l88 -91l-159 -76l-77 102q-3 0 -10 -0.5t-11 -0.5q-61 0 -108.5 22t-77 57t-49 84.5t-27 100t-7.5 106.5q0 71 13 133t42 117.5t83 88t129 32.5q60 0 107 -22t76.5 -58t48.5 -85.5t26.5 -100t7.5 -105.5zM357 361v18.5v25t-0.5 27t-2.5 29.5
t-4.5 27.5t-7.5 26t-12 20t-16.5 14.5t-21.5 5t-22 -5t-16.5 -14.5t-12 -20t-8 -26t-4.5 -27.5t-2.5 -29.5t-0.5 -27v-25v-18.5v-18.5v-25t0.5 -27t2.5 -29.5t4.5 -27.5t8 -26t12 -20t16.5 -14.5t22 -5t21.5 5t16.5 14.5t12 20t7.5 26t4.5 27.5t2.5 29.5t0.5 27v25v18.5z
" />
    <glyph glyph-name="R" unicode="R" horiz-adv-x="560" 
d="M551 0h-206l-78 277l-20 -1v-276h-199v713h229q110 0 180 -56.5t70 -163.5q0 -59 -26.5 -107t-77.5 -70zM325 480q0 85 -70 85h-8v-170q78 1 78 85z" />
    <glyph glyph-name="S" unicode="S" horiz-adv-x="450" 
d="M431 217q0 -106 -67 -168.5t-174 -62.5q-82 0 -166 54v197q86 -69 141 -69q23 0 39 14t16 36q0 19 -20 42t-48.5 48.5t-57 55t-48.5 71t-20 85.5q0 93 62.5 150t156.5 57q76 0 161 -41v-185q-70 57 -124 57q-21 0 -35.5 -11.5t-14.5 -31.5t20.5 -41t50 -43t58.5 -49
t49.5 -70t20.5 -95z" />
    <glyph glyph-name="T" unicode="T" horiz-adv-x="457" 
d="M446 532h-118v-532h-200v532h-118v181h436v-181z" />
    <glyph glyph-name="U" unicode="U" horiz-adv-x="577" 
d="M534 255q0 -135 -57 -202t-189 -67q-131 0 -188 67.5t-57 201.5v458h199v-477q0 -61 46 -61t46 61v477h200v-458z" />
    <glyph glyph-name="V" unicode="V" horiz-adv-x="547" 
d="M546 713l-163 -713h-220l-163 713h199l74 -466l75 466h198z" />
    <glyph glyph-name="W" unicode="W" horiz-adv-x="779" 
d="M779 713l-139 -713h-183l-68 446l-69 -446h-182l-139 713h198l47 -422l65 422h160l64 -422l48 422h198z" />
    <glyph glyph-name="X" unicode="X" horiz-adv-x="545" 
d="M544 0h-211l-61 188l-62 -188h-211l165 361l-151 352h206l53 -189l52 189h206l-151 -352z" />
    <glyph glyph-name="Y" unicode="Y" horiz-adv-x="522" 
d="M525 713l-165 -427v-286h-198v286l-165 427h210l54 -219l54 219h210z" />
    <glyph glyph-name="Z" unicode="Z" horiz-adv-x="492" 
d="M495 713l-221 -530h190v-183h-467l222 534h-186v179h462z" />
    <glyph glyph-name="bracketleft" unicode="[" horiz-adv-x="346" 
d="M308 -149h-222v910h222v-120h-88v-671h88v-119z" />
    <glyph glyph-name="backslash" unicode="\" horiz-adv-x="321" 
d="M324 -93h-95l-219 820h95z" />
    <glyph glyph-name="bracketright" unicode="]" horiz-adv-x="346" 
d="M259 -149h-222v119h88v671h-88v120h222v-910z" />
    <glyph glyph-name="asciicircum" unicode="^" horiz-adv-x="1015" 
d="M804 439h-129l-168 167l-169 -167h-129l227 275h141z" />
    <glyph glyph-name="underscore" unicode="_" horiz-adv-x="515" 
d="M507 -236h-500v117h500v-117z" />
    <glyph glyph-name="grave" unicode="`" horiz-adv-x="515" 
d="M314 568h-77l-84 152h127z" />
    <glyph glyph-name="a" unicode="a" horiz-adv-x="531" 
d="M490 0h-181v55q-53 -69 -118 -69q-47 0 -80.5 26t-49.5 69t-22.5 84t-6.5 85q0 45 6.5 86t22.5 83.5t49.5 68.5t80.5 26q67 0 118 -68v54h181v-500zM305 250q0 108 -45 108q-44 0 -44 -108q0 -107 44 -107q45 0 45 107z" />
    <glyph glyph-name="b" unicode="b" horiz-adv-x="531" 
d="M498 250q0 -44 -6.5 -85.5t-22.5 -84t-49.5 -68t-80.5 -25.5q-69 0 -118 68v-55h-181v778h181v-333q49 68 117 68q47 0 80.5 -25.5t49.5 -68t23 -84t7 -85.5zM314 250q0 107 -45 107q-48 0 -48 -107t48 -107q45 0 45 107z" />
    <glyph glyph-name="c" unicode="c" horiz-adv-x="348" 
d="M323 8q-40 -22 -94 -22q-72 0 -120.5 39.5t-68 96.5t-19.5 128q0 109 53 186.5t157 77.5q51 0 92 -20v-153q-19 11 -40 11q-33 0 -47.5 -32t-14.5 -70q0 -96 62 -96q18 0 40 10v-156z" />
    <glyph glyph-name="d" unicode="d" horiz-adv-x="531" 
d="M490 0h-181v55q-49 -68 -118 -68q-47 0 -80.5 25.5t-49.5 68t-22.5 84t-6.5 85.5t6.5 85t22.5 83.5t49.5 68.5t80.5 26q67 0 118 -68v333h181v-778zM309 250q0 22 -2.5 42.5t-14.5 42.5t-32 22q-44 0 -44 -107t44 -107q20 0 32 22t14.5 42.5t2.5 42.5z" />
    <glyph glyph-name="e" unicode="e" horiz-adv-x="490" 
d="M464 265q0 -24 -1 -36h-265v-7q0 -103 53 -103q41 0 53 56h152q-10 -88 -68 -138.5t-147 -50.5q-113 0 -166.5 72.5t-53.5 189.5q0 116 54 191t165 75q224 0 224 -249zM305 313q0 85 -54 85q-41 0 -53 -85h107z" />
    <glyph glyph-name="f" unicode="f" horiz-adv-x="325" 
d="M316 340h-70v-340h-183v340h-55v160h55q0 12 -0.5 43.5t0 45.5t1.5 42.5t5.5 42.5t11.5 35.5t18.5 32.5t27.5 23t39 17t52 5q53 0 98 -16v-151q-15 5 -27 5q-16 0 -26 -8.5t-13.5 -26.5t-4.5 -30t0 -34.5t1 -25.5h70v-160z" />
    <glyph glyph-name="g" unicode="g" 
d="M462 23q0 -101 -60 -152.5t-163 -51.5q-184 0 -198 164h152q2 -20 14 -32t32 -12q51 0 51 66v85q-45 -66 -112 -66q-44 0 -76 24t-47.5 63t-22 78t-6.5 80q0 42 6.5 80t21.5 77.5t46.5 63.5t76.5 24q64 0 113 -63v50h172v-478zM290 267q0 104 -41 104q-43 0 -43 -104
q0 -102 43 -102q41 0 41 102z" />
    <glyph glyph-name="h" unicode="h" horiz-adv-x="510" 
d="M470 0h-180v292q0 45 -35 45q-18 0 -26.5 -14.5t-8.5 -33.5v-289h-180v778h180v-342q47 75 134 75q116 0 116 -134v-377z" />
    <glyph glyph-name="i" unicode="i" horiz-adv-x="277" 
d="M245 671q0 -45 -31 -76.5t-76 -31.5q-46 0 -77 31t-31 77t31 77t77 31q45 0 76 -31.5t31 -76.5zM228 0h-181v500h181v-500z" />
    <glyph glyph-name="j" unicode="j" horiz-adv-x="277" 
d="M245 671q0 -45 -31 -76.5t-76 -31.5q-46 0 -77 31t-31 77t31 77t77 31q45 0 76 -31.5t31 -76.5zM228 -171h-181v671h181v-671z" />
    <glyph glyph-name="k" unicode="k" horiz-adv-x="509" 
d="M510 0h-195l-92 249v-249h-181v778h181v-490l84 212h184l-108 -220z" />
    <glyph glyph-name="l" unicode="l" horiz-adv-x="277" 
d="M228 0h-181v778h181v-778z" />
    <glyph glyph-name="m" unicode="m" horiz-adv-x="756" 
d="M716 0h-181v291q0 46 -34 46q-33 0 -33 -49v-288h-180v291q0 46 -34 46t-34 -49v-288h-180v500h174v-74q50 84 140 84q86 0 112 -84q40 83 133 83q60 0 88.5 -35.5t28.5 -97.5v-376z" />
    <glyph glyph-name="n" unicode="n" horiz-adv-x="510" 
d="M470 0h-180v291q0 46 -35 46q-18 0 -26.5 -15t-8.5 -34v-288h-180v500h174v-74q49 83 140 83q116 0 116 -133v-376z" />
    <glyph glyph-name="o" unicode="o" horiz-adv-x="513" 
d="M487 250q0 -119 -57.5 -191.5t-173.5 -72.5t-174 72t-58 192q0 119 58 191.5t174 72.5t173.5 -72.5t57.5 -191.5zM301 253q0 110 -45 110t-45 -110q0 -112 45 -112t45 112z" />
    <glyph glyph-name="p" unicode="p" horiz-adv-x="531" 
d="M498 250q0 -45 -6.5 -86t-22.5 -83.5t-49.5 -68.5t-80.5 -26q-69 0 -118 68v-225h-181v671h181v-55q50 69 118 69q47 0 80.5 -26t49.5 -68.5t22.5 -83.5t6.5 -86zM314 250q0 108 -45 108q-44 0 -44 -108t44 -108q45 0 45 108z" />
    <glyph glyph-name="q" unicode="q" horiz-adv-x="531" 
d="M490 -172h-181v226q-50 -69 -118 -69q-47 0 -80.5 26t-49.5 69t-22.5 84.5t-6.5 85.5t6.5 85t22.5 84t49.5 69t80.5 26q68 0 118 -69v55h181v-672zM305 250q0 107 -45 107q-44 0 -44 -107q0 -108 44 -108q45 0 45 108z" />
    <glyph glyph-name="r" unicode="r" horiz-adv-x="365" 
d="M346 338q-68 0 -96 -24.5t-28 -90.5v-223h-182v500h170v-70q47 76 136 84v-176z" />
    <glyph glyph-name="s" unicode="s" horiz-adv-x="418" 
d="M394 157q0 -75 -54 -123t-130 -48q-100 0 -200 71l77 118q56 -48 100 -48q14 0 24.5 8t10.5 21q0 15 -29.5 31.5t-65 31.5t-65 50.5t-29.5 84.5q0 73 54.5 116.5t129.5 43.5q78 0 170 -53l-73 -106q-48 33 -77 33q-36 0 -36 -25q0 -13 20 -26.5t48.5 -27.5t56.5 -32.5
t48 -49.5t20 -70z" />
    <glyph glyph-name="t" unicode="t" horiz-adv-x="327" 
d="M317 342h-65v-342h-182v342h-60v158h60v147h182v-147h65v-158z" />
    <glyph glyph-name="u" unicode="u" horiz-adv-x="507" 
d="M469 200q0 -214 -216 -214t-216 214v300h180v-317q0 -17 9.5 -27.5t26.5 -10.5q35 0 35 38v317h181v-300z" />
    <glyph glyph-name="v" unicode="v" horiz-adv-x="471" 
d="M473 500l-142 -500h-192l-142 500h179l59 -305l59 305h179z" />
    <glyph glyph-name="w" unicode="w" horiz-adv-x="670" 
d="M669 500l-124 -500h-161l-50 293l-49 -293h-161l-124 500h167l49 -309l44 309h148l44 -309l49 309h168z" />
    <glyph glyph-name="x" unicode="x" horiz-adv-x="455" 
d="M463 0h-175l-61 129l-61 -129h-175l140 262l-128 238h175l49 -114l49 114h175l-128 -238z" />
    <glyph glyph-name="y" unicode="y" horiz-adv-x="471" 
d="M479 500l-228 -671h-172l63 181l-151 490h188l55 -273l62 273h183z" />
    <glyph glyph-name="z" unicode="z" horiz-adv-x="437" 
d="M421 500l-160 -335h145v-165h-413l165 342h-128v158h391z" />
    <glyph glyph-name="braceleft" unicode="{" horiz-adv-x="515" 
d="M443 -202q-7 0 -20 -0.5t-20 -0.5q-57 0 -88.5 4.5t-59.5 20.5t-39 48.5t-11 87.5q0 21 1.5 55t1.5 53t-2 44.5t-9.5 39t-21 27t-37.5 19t-57 4.5v118q3 0 9 -0.5t9 -0.5q60 0 83 28.5t23 90.5v124q0 55 11 88t39 49t60 20.5t89 4.5q6 0 19 -0.5t20 -0.5v-118
q-4 0 -10.5 0.5t-9.5 0.5q-50 0 -65.5 -18.5t-15.5 -70.5q0 -18 1.5 -47.5t1.5 -47.5t-1 -43t-7.5 -41.5t-18 -33t-31.5 -27t-48 -16.5q52 -10 78 -41t26.5 -68.5t-1 -79.5t-3.5 -76t18 -56.5t65 -22.5q4 0 11 0.5t10 0.5v-118z" />
    <glyph glyph-name="bar" unicode="|" horiz-adv-x="515" 
d="M316 -236h-117v1000h117v-1000z" />
    <glyph glyph-name="braceright" unicode="}" horiz-adv-x="515" 
d="M434 200q-3 0 -9 0.5t-9 0.5q-60 0 -83 -28.5t-23 -89.5v-125q0 -55 -10.5 -87.5t-37.5 -48.5t-58.5 -20.5t-87.5 -4.5q-8 0 -22 0.5t-22 0.5v118l21 -1q53 -2 70.5 28t13.5 77t-7 95.5t21 90t85 53.5q-61 12 -85 52.5t-21.5 88.5t7 95t-13 78t-68.5 31q-4 0 -11.5 -0.5
t-11.5 -0.5v118q6 0 19.5 0.5t19.5 0.5q57 0 89 -4.5t60 -20.5t39 -49t11 -88q0 -21 -2 -62.5t-1.5 -60.5t6 -47.5t18.5 -41t38.5 -22t64.5 -8.5v-118z" />
    <glyph glyph-name="asciitilde" unicode="~" horiz-adv-x="848" 
d="M754 276q-98 -67 -184 -67q-49 0 -143.5 32t-145.5 32q-78 0 -187 -77v124q109 70 189 70q52 0 146.5 -32t143.5 -32q78 0 181 74v-124z" />
    <glyph glyph-name="currency" unicode="&#xa4;" horiz-adv-x="621" 
d="M585 217l-58 -58l-98 99q-50 -36 -118 -36q-66 0 -118 36l-99 -99l-57 58l98 99q-35 52 -35 116q0 66 35 116l-98 100l57 57l99 -98q53 36 117 36q69 0 119 -36l98 98l58 -57l-98 -100q34 -52 34 -116q0 -66 -34 -116zM438 432q0 52 -37.5 89.5t-89.5 37.5t-89.5 -37.5
t-37.5 -89.5t37 -89.5t90 -37.5t90 37.5t37 89.5z" />
    <glyph glyph-name="brokenbar" unicode="&#xa6;" horiz-adv-x="515" 
d="M316 329h-117v370h117v-370zM316 -171h-117v370h117v-370z" />
    <glyph glyph-name="section" unicode="&#xa7;" horiz-adv-x="531" 
d="M497 296q0 -57 -37 -95t-95 -48q50 -22 75 -56.5t25 -87.5q0 -91 -56 -135.5t-149 -44.5q-92 0 -145.5 48.5t-58.5 140.5h140q0 -71 53 -71t53 67q0 22 -6 37t-21 24t-25.5 13t-35.5 9.5t-34 8.5q-71 20 -109 58.5t-38 107.5q0 59 34 99t93 51q-91 38 -91 133
q0 79 56 125.5t137 46.5q90 0 142 -47t56 -137h-138q-1 21 -4.5 34.5t-15 25t-31.5 11.5q-25 0 -38 -18.5t-13 -45.5q0 -35 28.5 -53.5t69 -27.5t81.5 -22t69.5 -50.5t28.5 -100.5zM314 288q0 73 -49 73q-27 0 -39.5 -22t-12.5 -51q0 -30 12 -52.5t39 -22.5t38.5 22.5
t11.5 52.5z" />
    <glyph glyph-name="copyright" unicode="&#xa9;" horiz-adv-x="848" 
d="M788 360q0 -152 -106.5 -258.5t-258.5 -106.5q-150 0 -257 107.5t-107 257.5q0 151 106.5 258t257.5 107q153 0 259 -105.5t106 -259.5zM722 360q0 125 -87 212t-211 87q-123 0 -211 -88t-88 -211q0 -121 88.5 -209.5t210.5 -88.5q124 0 211 87t87 211zM607 298
q-3 -74 -54 -114.5t-127 -40.5q-95 0 -148 59t-53 155q0 97 52.5 158.5t147.5 61.5q71 0 122.5 -37t55.5 -105h-104q-3 33 -23 51t-53 18q-25 0 -43.5 -14t-27 -37.5t-12 -45.5t-3.5 -46q0 -139 91 -139q34 0 53 20.5t21 55.5h105z" />
    <glyph glyph-name="guillemotleft" unicode="&#xab;" horiz-adv-x="436" 
d="M399 82l-86 -46l-122 219l122 209l86 -46l-105 -163zM244 82l-86 -46l-123 219l123 209l86 -46l-105 -163z" />
    <glyph glyph-name="logicalnot" unicode="&#xac;" horiz-adv-x="848" 
d="M716 178h-112v134h-473v111h585v-245z" />
    <glyph glyph-name="registered" unicode="&#xae;" horiz-adv-x="723" 
d="M671 418q0 -124 -92.5 -217t-217.5 -93q-124 0 -217 93t-93 217q0 125 92.5 217.5t217.5 92.5t217.5 -92.5t92.5 -217.5zM615 418q0 104 -75.5 179t-178.5 75q-102 0 -177.5 -76t-75.5 -178q0 -100 76 -176.5t177 -76.5q102 0 178 75.5t76 177.5zM514 255h-93l-71 135
h-27v-135h-82v340h126q130 0 130 -102q0 -32 -17.5 -56t-48.5 -33zM418 489q0 47 -67 47h-28v-91h33q62 0 62 44z" />
    <glyph glyph-name="degree" unicode="&#xb0;" horiz-adv-x="344" 
d="M324 564q0 -63 -45 -107.5t-108 -44.5t-107 44.5t-44 107.5q0 64 44 108t108 44q63 0 107.5 -44.5t44.5 -107.5zM252 565q0 33 -23.5 56.5t-56.5 23.5t-57 -23.5t-24 -56.5q0 -34 23.5 -57.5t57.5 -23.5q33 0 56.5 24t23.5 57z" />
    <glyph glyph-name="plusminus" unicode="&#xb1;" horiz-adv-x="848" 
d="M716 337h-234v-156h-116v156h-235v113h235v156h116v-156h234v-113zM716 -9h-585v113h585v-113z" />
    <glyph glyph-name="mu" unicode="&#xb5;" horiz-adv-x="635" 
d="M618 532l-85 -532h-157l9 61q-17 -31 -48 -50t-66 -19q-43 0 -74 59l-40 -260h-172l116 741h175q-3 -19 -17 -97t-21 -132.5t-7 -98.5q0 -83 54 -83q49 0 78 43t38 98l43 270h174z" />
    <glyph glyph-name="mu" unicode="&#x3bc;" horiz-adv-x="635" 
d="M618 532l-85 -532h-157l9 61q-17 -31 -48 -50t-66 -19q-43 0 -74 59l-40 -260h-172l116 741h175q-3 -19 -17 -97t-21 -132.5t-7 -98.5q0 -83 54 -83q49 0 78 43t38 98l43 270h174z" />
    <glyph glyph-name="paragraph" unicode="&#xb6;" horiz-adv-x="515" 
d="M494 662h-52v-662h-85v662h-74v-662h-85v383q-78 3 -127.5 48t-49.5 121q0 80 54 125t136 45h283v-60z" />
    <glyph glyph-name="periodcentered" unicode="&#xb7;" horiz-adv-x="262" 
d="M241 356q0 -46 -32.5 -78.5t-78.5 -32.5t-78.5 32.5t-32.5 78.5t32.5 78.5t78.5 32.5t78.5 -32.5t32.5 -78.5z" />
    <glyph glyph-name="periodcentered" unicode="&#x2219;" horiz-adv-x="262" 
d="M241 356q0 -46 -32.5 -78.5t-78.5 -32.5t-78.5 32.5t-32.5 78.5t32.5 78.5t78.5 32.5t78.5 -32.5t32.5 -78.5z" />
    <glyph glyph-name="guillemotright" unicode="&#xbb;" horiz-adv-x="436" 
d="M399 255l-123 -219l-86 46l105 173l-105 163l86 46zM244 255l-123 -219l-86 46l105 173l-105 163l86 46z" />
    <glyph glyph-name="afii10023" unicode="&#x401;" horiz-adv-x="437" 
d="M377 811q0 -27 -20 -47.5t-47 -20.5q-28 0 -48 20t-20 48q0 27 20.5 47t47.5 20q28 0 47.5 -19.5t19.5 -47.5zM216 811q0 -27 -20 -47.5t-47 -20.5q-28 0 -48 20t-20 48q0 27 20.5 47t47.5 20q28 0 47.5 -19.5t19.5 -47.5zM401 0h-354v713h354v-173h-154v-91h139v-167
h-139v-98h154v-184z" />
    <glyph glyph-name="afii10056" unicode="&#x407;" horiz-adv-x="515" 
d="M383 612h-252v93h252v-93z" />
    <glyph glyph-name="afii10057" unicode="&#x408;" 
d="M521 36q-53 -42 -159 -42q-38 0 -111.5 15.5t-110.5 15.5q-43 0 -91 -34l-46 140q42 35 104 37q23 40 23 86q0 16 -3 32h-106v117h70q-32 62 -32 124q0 94 74.5 147t172.5 53q104 0 198 -64l-77 -138q-71 49 -109 49q-20 0 -33.5 -11.5t-13.5 -31.5q0 -17 24.5 -68
t27.5 -60h102v-117h-88q-5 -61 -58 -124q43 -9 72 -9q75 0 135 30z" />
    <glyph glyph-name="afii10017" unicode="&#x410;" horiz-adv-x="530" 
d="M532 0h-194l-15 105h-118l-15 -105h-194l156 713h224zM304 249l-40 264l-39 -264h79z" />
    <glyph glyph-name="afii10018" unicode="&#x411;" horiz-adv-x="559" 
d="M526 229q0 -124 -69 -176.5t-197 -52.5h-212v713h391v-171h-192v-79q131 0 205 -53t74 -181zM336 237q0 81 -89 83v-168h8q39 0 60 22.5t21 62.5z" />
    <glyph glyph-name="afii10019" unicode="&#x412;" horiz-adv-x="559" 
d="M528 201q0 -201 -257 -201h-222v713h222q242 0 242 -179q0 -129 -137 -159q152 -32 152 -174zM325 503q0 30 -20 44t-51 14h-11v-123q82 4 82 65zM327 234q0 36 -23.5 53.5t-60.5 17.5v-144h10q35 0 54.5 19t19.5 54z" />
    <glyph glyph-name="afii10020" unicode="&#x413;" horiz-adv-x="419" 
d="M399 540h-154v-540h-199v713h353v-173z" />
    <glyph glyph-name="afii10021" unicode="&#x414;" horiz-adv-x="631" 
d="M595 -134h-199v134h-170v-134h-199v312h20q73 0 73 535h445v-535h30v-312zM366 178v362h-70q-6 -242 -47 -362h117z" />
    <glyph glyph-name="afii10022" unicode="&#x415;" horiz-adv-x="437" 
d="M401 0h-354v713h354v-173h-154v-91h139v-167h-139v-98h154v-184z" />
    <glyph glyph-name="afii10024" unicode="&#x416;" horiz-adv-x="828" 
d="M829 0h-215l-102 324v-324h-200v324l-102 -324h-215l151 384l-147 329h204l109 -298v298h200v-298l109 298h204l-147 -329z" />
    <glyph glyph-name="afii10025" unicode="&#x417;" horiz-adv-x="451" 
d="M429 207q0 -106 -67 -163.5t-174 -57.5q-82 0 -166 54v197q91 -73 143 -73q34 0 58.5 19t24.5 52q0 23 -15 39.5t-40 23.5t-46.5 10t-43.5 3v110q45 6 75 28.5t30 63.5q0 20 -19.5 32.5t-40.5 12.5q-41 0 -112 -57v185q84 41 149 41q94 0 156.5 -51.5t62.5 -143.5
q0 -44 -29.5 -86t-71.5 -53q126 -48 126 -186z" />
    <glyph glyph-name="afii10026" unicode="&#x418;" horiz-adv-x="588" 
d="M537 0h-182v357l-111 -357h-196v713h181v-375l110 375h198v-713z" />
    <glyph glyph-name="afii10027" unicode="&#x419;" horiz-adv-x="588" 
d="M463 877q-10 -62 -55.5 -102t-108.5 -40t-110.5 40t-59.5 103l59 27q16 -25 45.5 -41t59.5 -16t60 14.5t45 38.5zM537 0h-182v357l-111 -357h-196v713h181v-375l110 375h198v-713z" />
    <glyph glyph-name="afii10028" unicode="&#x41a;" horiz-adv-x="565" 
d="M565 0h-215l-102 324v-324h-200v713h200v-298l109 298h204l-147 -329z" />
    <glyph glyph-name="afii10029" unicode="&#x41b;" horiz-adv-x="593" 
d="M544 0h-199v540h-71l-1 -61q-1 -100 -12.5 -223t-36.5 -167q-26 -46 -73.5 -71t-101.5 -25q-29 0 -43 1v167h3q28 0 49 25q9 10 16 41t11 76.5t6 92.5t3 103t1 93.5t-0.5 78t-0.5 43.5h450v-714z" />
    <glyph glyph-name="afii10030" unicode="&#x41c;" horiz-adv-x="749" 
d="M724 0h-182l-15 505l-79 -505h-148l-79 505l-16 -505h-181l51 713h237l62 -376l62 376h237z" />
    <glyph glyph-name="afii10031" unicode="&#x41d;" horiz-adv-x="582" 
d="M532 0h-199v279h-85v-279h-199v713h199v-256h85v256h199v-713z" />
    <glyph glyph-name="afii10032" unicode="&#x41e;" horiz-adv-x="584" 
d="M558 356q0 -71 -13 -132.5t-41.5 -117t-82.5 -88t-129 -32.5t-129 32.5t-83 88t-42 117t-13 132.5t13 133t42 117.5t83 88t129 32.5q60 0 107 -22t76.5 -58t48.5 -85.5t26.5 -100t7.5 -105.5zM357 361v18.5v25t-0.5 27t-2.5 29.5t-4.5 27.5t-7.5 26t-12 20t-16.5 14.5
t-21.5 5t-22 -5t-16.5 -14.5t-12 -20t-8 -26t-4.5 -27.5t-2.5 -29.5t-0.5 -27v-25v-18.5v-18.5v-25t0.5 -27t2.5 -29.5t4.5 -27.5t8 -26t12 -20t16.5 -14.5t22 -5t21.5 5t16.5 14.5t12 20t7.5 26t4.5 27.5t2.5 29.5t0.5 27v25v18.5z" />
    <glyph glyph-name="afii10033" unicode="&#x41f;" horiz-adv-x="582" 
d="M532 0h-199v540h-85v-540h-199v713h483v-713z" />
    <glyph glyph-name="afii10034" unicode="&#x420;" horiz-adv-x="543" 
d="M526 462q0 -128 -74 -181t-205 -53v-228h-199v713h212q266 0 266 -251zM336 476q0 85 -89 85v-168q89 2 89 83z" />
    <glyph glyph-name="afii10035" unicode="&#x421;" horiz-adv-x="453" 
d="M426 11q-58 -25 -112 -25q-74 0 -132 33.5t-91 89t-50 120t-17 133.5q0 67 17 130t50.5 116t89.5 85.5t127 32.5q60 0 118 -20v-171q-38 21 -73 21q-121 0 -121 -197q0 -33 5 -63t16.5 -61t36 -49.5t59.5 -18.5q42 0 77 23v-179z" />
    <glyph glyph-name="afii10036" unicode="&#x422;" horiz-adv-x="457" 
d="M446 532h-118v-532h-200v532h-118v181h436v-181z" />
    <glyph glyph-name="afii10037" unicode="&#x423;" horiz-adv-x="522" 
d="M516 713l-215 -620q-34 -99 -162 -99q-20 0 -76 9v155q30 -2 45 -2q9 0 16 3t11 6.5t8.5 11t6 12l5 15l4.5 13.5l-163 496h201l54 -213l63 213h202z" />
    <glyph glyph-name="afii10038" unicode="&#x424;" horiz-adv-x="762" 
d="M743 362q0 -136 -66 -209.5t-196 -73.5v-79h-198v79h-27q-114 0 -174.5 81.5t-60.5 201.5q0 139 62.5 211.5t199.5 71.5v68h198v-68q137 1 199.5 -71.5t62.5 -211.5zM567 362q0 20 -2 39.5t-8 44.5t-20 40.5t-34 15.5h-22v-286h22q20 0 34 16.5t20 42.5t8 47t2 40z
M283 216v286h-22q-20 0 -33.5 -15.5t-19 -41t-7.5 -45t-2 -38.5t2 -39.5t7.5 -47t19 -43t33.5 -16.5h22z" />
    <glyph glyph-name="afii10039" unicode="&#x425;" horiz-adv-x="545" 
d="M544 0h-211l-61 188l-62 -188h-211l165 361l-151 352h206l53 -189l52 189h206l-151 -352z" />
    <glyph glyph-name="afii10040" unicode="&#x426;" horiz-adv-x="591" 
d="M562 -134h-199v134h-314v713h199v-535h85v535h199v-535h30v-312z" />
    <glyph glyph-name="afii10041" unicode="&#x427;" horiz-adv-x="582" 
d="M532 0h-199v299q-16 -14 -50 -24.5t-58 -10.5q-81 0 -128.5 43t-47.5 122v284h200v-277q0 -16 11.5 -29.5t28.5 -13.5q25 0 44 15v305h199v-713z" />
    <glyph glyph-name="afii10042" unicode="&#x428;" horiz-adv-x="871" 
d="M822 0h-767v713h199v-535h85v535h199v-535h85v535h199v-713z" />
    <glyph glyph-name="afii10043" unicode="&#x429;" horiz-adv-x="881" 
d="M852 -134h-199v134h-598v713h199v-535h85v535h199v-535h85v535h199v-535h30v-312z" />
    <glyph glyph-name="afii10044" unicode="&#x42a;" horiz-adv-x="600" 
d="M566 251q0 -251 -266 -251h-212v540h-96v173h295v-228q131 0 205 -53t74 -181zM376 237q0 81 -89 83v-168h8q39 0 60 22.5t21 62.5z" />
    <glyph glyph-name="afii10045" unicode="&#x42b;" horiz-adv-x="835" 
d="M777 0h-199v713h199v-713zM526 251q0 -251 -266 -251h-212v713h199v-228q131 0 205 -53t74 -181zM336 237q0 81 -89 83v-168h8q39 0 60 22.5t21 62.5z" />
    <glyph glyph-name="afii10046" unicode="&#x42c;" horiz-adv-x="559" 
d="M526 251q0 -251 -266 -251h-212v713h199v-228q131 0 205 -53t74 -181zM336 237q0 81 -89 83v-168h8q39 0 60 22.5t21 62.5z" />
    <glyph glyph-name="afii10047" unicode="&#x42d;" horiz-adv-x="462" 
d="M439 362q0 -69 -17 -133.5t-50 -120t-91 -89t-132 -33.5q-54 0 -112 25v179q35 -23 77 -23q29 0 50 11.5t33.5 34.5t19 43t12.5 51h-112v174h96q-27 75 -103 75q-32 0 -69 -21v171q57 20 114 20q71 0 127 -32.5t89.5 -85.5t50.5 -116t17 -130z" />
    <glyph glyph-name="afii10048" unicode="&#x42e;" horiz-adv-x="852" 
d="M826 356q0 -71 -13 -132.5t-41.5 -117t-82.5 -88t-129 -32.5q-64 0 -112.5 23.5t-78.5 65.5t-47.5 92t-24.5 112h-47v-279h-199v713h199v-256h49q17 121 81.5 195.5t179.5 74.5q60 0 107 -22t76.5 -58t48.5 -85.5t26.5 -100t7.5 -105.5zM625 361v18.5v25t-0.5 27
t-2.5 29.5t-4.5 27.5t-7.5 26t-12 20t-16.5 14.5t-21.5 5t-22 -5t-16.5 -14.5t-12 -20t-8 -26t-4.5 -27.5t-2.5 -29.5t-0.5 -27v-25v-18.5v-18.5v-25t0.5 -27t2.5 -29.5t4.5 -27.5t8 -26t12 -20t16.5 -14.5t22 -5t21.5 5t16.5 14.5t12 20t7.5 26t4.5 27.5t2.5 29.5t0.5 27
v25v18.5z" />
    <glyph glyph-name="afii10049" unicode="&#x42f;" horiz-adv-x="567" 
d="M514 0h-199v276l-20 1l-78 -277h-206l128 316q-51 22 -77.5 70t-26.5 107q0 107 70 163.5t180 56.5h229v-713zM315 395v170h-8q-70 0 -70 -85q0 -84 78 -85z" />
    <glyph glyph-name="afii10065" unicode="&#x430;" horiz-adv-x="531" 
d="M490 0h-181v55q-53 -69 -118 -69q-47 0 -80.5 26t-49.5 69t-22.5 84t-6.5 85q0 45 6.5 86t22.5 83.5t49.5 68.5t80.5 26q67 0 118 -68v54h181v-500zM305 250q0 108 -45 108q-44 0 -44 -108q0 -107 44 -107q45 0 45 107z" />
    <glyph glyph-name="afii10066" unicode="&#x431;" horiz-adv-x="528" 
d="M502 250q0 -119 -57.5 -191.5t-173.5 -72.5t-174 72t-58 192q0 57 1 93.5t4 80.5t8.5 71t15 58t24 49t35 37.5t47.5 29.5t62.5 19t79 12.5t97.5 3.5v-152q-10 0 -38 0.5t-40.5 0t-36 -2t-37 -7t-31.5 -14t-31.5 -23t-24.5 -34.5q58 42 97 42q116 0 173.5 -72.5
t57.5 -191.5zM316 253q0 110 -45 110t-45 -110q0 -112 45 -112t45 112z" />
    <glyph glyph-name="afii10067" unicode="&#x432;" horiz-adv-x="478" 
d="M448 147q0 -68 -48.5 -107.5t-118.5 -39.5h-239v500h228q59 0 103.5 -32.5t44.5 -89.5q0 -72 -41 -95q42 -18 56.5 -51t14.5 -85zM279 355q0 19 -11.5 29.5t-30.5 10.5h-20v-78h23q17 0 28 10.5t11 27.5zM298 158q0 25 -17 40t-42 15h-22v-113h25q56 0 56 58z" />
    <glyph glyph-name="afii10068" unicode="&#x433;" horiz-adv-x="358" 
d="M344 340h-117v-340h-187v500h304v-160z" />
    <glyph glyph-name="afii10069" unicode="&#x434;" horiz-adv-x="562" 
d="M532 -125h-180v125h-152v-125h-180v281h20q15 0 26.5 16.5t18 43.5t11 60.5t6 68t2.5 66.5t0 55t0 34h403v-344h25v-281zM327 156v192h-65q0 -164 -33 -192h98z" />
    <glyph glyph-name="afii10070" unicode="&#x435;" horiz-adv-x="490" 
d="M464 265q0 -24 -1 -36h-265v-7q0 -103 53 -103q41 0 53 56h152q-10 -88 -68 -138.5t-147 -50.5q-113 0 -166.5 72.5t-53.5 189.5q0 116 54 191t165 75q224 0 224 -249zM305 313q0 85 -54 85q-41 0 -53 -85h107z" />
    <glyph glyph-name="afii10072" unicode="&#x436;" horiz-adv-x="744" 
d="M750 0h-195l-92 249v-249h-181v249l-92 -249h-195l127 280l-108 220h184l84 -212v212h181v-212l84 212h184l-108 -220z" />
    <glyph glyph-name="afii10073" unicode="&#x437;" horiz-adv-x="409" 
d="M386 147q0 -72 -55 -116.5t-129 -44.5q-100 0 -200 71l77 118q56 -48 100 -48q14 0 29.5 12.5t15.5 26.5q0 26 -26 40t-55 14v80q28 0 50.5 13t22.5 38q0 37 -49 37q-29 0 -77 -33l-73 106q92 53 170 53t127 -39.5t49 -114.5q0 -29 -19 -53.5t-47 -38.5q89 -24 89 -121z
" />
    <glyph glyph-name="afii10074" unicode="&#x438;" horiz-adv-x="510" 
d="M470 0h-175v218l-90 -218h-165v500h175v-218l90 218h165v-500z" />
    <glyph glyph-name="afii10075" unicode="&#x439;" horiz-adv-x="510" 
d="M399 648q-8 -54 -48 -88.5t-95 -34.5t-96 35t-51 89l51 24q14 -22 39.5 -36t51.5 -14t52.5 12.5t39.5 33.5zM470 0h-175v218l-90 -218h-165v500h175v-218l90 218h165v-500z" />
    <glyph glyph-name="afii10076" unicode="&#x43a;" horiz-adv-x="509" 
d="M510 0h-195l-92 249v-249h-181v500h181v-212l84 212h184l-108 -220z" />
    <glyph glyph-name="afii10077" unicode="&#x43b;" horiz-adv-x="517" 
d="M475 0h-180v340h-62v-10q0 -41 -0.5 -63.5t-4 -63t-10 -64.5t-20.5 -54.5t-33.5 -47t-50 -28.5t-69.5 -12h-45v145q17 0 29.5 8t19.5 26.5t11.5 32t6 40.5t1.5 34.5v30.5q0 31 0.5 93t0.5 93h406v-500z" />
    <glyph glyph-name="afii10078" unicode="&#x43c;" horiz-adv-x="620" 
d="M600 0h-169l-39 309l-34 -309h-112l-30 309l-39 -309h-169l79 500h171l46 -293l46 293h171z" />
    <glyph glyph-name="afii10079" unicode="&#x43d;" horiz-adv-x="510" 
d="M470 0h-180v172h-70v-172h-180v500h180v-168h70v168h180v-500z" />
    <glyph glyph-name="afii10080" unicode="&#x43e;" horiz-adv-x="513" 
d="M487 250q0 -119 -57.5 -191.5t-173.5 -72.5t-174 72t-58 192q0 119 58 191.5t174 72.5t173.5 -72.5t57.5 -191.5zM301 253q0 110 -45 110t-45 -110q0 -112 45 -112t45 112z" />
    <glyph glyph-name="afii10081" unicode="&#x43f;" horiz-adv-x="510" 
d="M470 0h-180v340h-70v-340h-180v500h430v-500z" />
    <glyph glyph-name="afii10082" unicode="&#x440;" horiz-adv-x="531" 
d="M498 250q0 -45 -6.5 -86t-22.5 -83.5t-49.5 -68.5t-80.5 -26q-69 0 -118 68v-225h-181v671h181v-55q50 69 118 69q47 0 80.5 -26t49.5 -68.5t22.5 -83.5t6.5 -86zM314 250q0 108 -45 108q-44 0 -44 -108t44 -108q45 0 45 108z" />
    <glyph glyph-name="afii10083" unicode="&#x441;" horiz-adv-x="348" 
d="M323 8q-40 -22 -94 -22q-72 0 -120.5 39.5t-68 96.5t-19.5 128q0 109 53 186.5t157 77.5q51 0 92 -20v-153q-19 11 -40 11q-33 0 -47.5 -32t-14.5 -70q0 -96 62 -96q18 0 40 10v-156z" />
    <glyph glyph-name="afii10084" unicode="&#x442;" horiz-adv-x="427" 
d="M410 340h-105v-340h-187v340h-105v160h397v-160z" />
    <glyph glyph-name="afii10085" unicode="&#x443;" horiz-adv-x="471" 
d="M479 500l-228 -671h-172l63 181l-151 490h188l55 -273l62 273h183z" />
    <glyph glyph-name="afii10086" unicode="&#x444;" horiz-adv-x="747" 
d="M717 250q0 -45 -6.5 -86t-22.5 -83.5t-49.5 -68.5t-80.5 -26q-9 0 -17.5 1.5t-14.5 3.5t-13 7l-10.5 7.5t-10.5 11t-9 11t-9.5 13.5t-9.5 13v-225h-181v225q-2 -2 -9.5 -13t-9.5 -13.5t-9 -11t-10.5 -11l-10.5 -7.5t-13 -7t-14.5 -3.5t-17.5 -1.5q-47 0 -80.5 26
t-49.5 68.5t-22.5 83.5t-6.5 86t6.5 86t22.5 83.5t49.5 68.5t80.5 26q10 0 19 -1.5t17 -6.5t13 -7t13 -11.5t10 -12t11.5 -15.5t10.5 -15v202h181v-202q2 3 9.5 13t10 13.5t9 11.5t10 11t10.5 8t13 7t14.5 3.5t17.5 1.5q47 0 80.5 -26t49.5 -68.5t22.5 -83.5t6.5 -86z
M533 250q0 108 -37 108q-6 0 -10.5 -3t-8 -8.5t-6 -11.5t-4 -15t-2 -15.5t-1 -16.5t-0.5 -15v-13.5v-9.5v-9.5v-13.5t0.5 -15t1 -16.5t2 -15.5t4 -15t6 -11.5t8 -8.5t10.5 -3q37 0 37 108zM283 250v9.5v13.5t-0.5 15t-1 16.5t-2 15.5t-4 15t-6 11.5t-8 8.5t-10.5 3
q-37 0 -37 -108t37 -108q6 0 10.5 3t8 8.5t6 11.5t4 15t2 15.5t1 16.5t0.5 15v13.5v9.5z" />
    <glyph glyph-name="afii10087" unicode="&#x445;" horiz-adv-x="455" 
d="M463 0h-175l-61 129l-61 -129h-175l140 262l-128 238h175l49 -114l49 114h175l-128 -238z" />
    <glyph glyph-name="afii10088" unicode="&#x446;" horiz-adv-x="519" 
d="M495 -125h-180v125h-275v500h180v-340h70v340h180v-344h25v-281z" />
    <glyph glyph-name="afii10089" unicode="&#x447;" horiz-adv-x="503" 
d="M453 0h-180v196q-52 -36 -106 -36q-50 0 -93 35t-43 84v221h172v-209q0 -9 6.5 -16.5t15.5 -7.5q15 0 31.5 7.5t16.5 20.5v205h180v-500z" />
    <glyph glyph-name="afii10090" unicode="&#x448;" horiz-adv-x="727" 
d="M682 0h-640v500h180v-344h50v344h180v-344h50v344h180v-500z" />
    <glyph glyph-name="afii10091" unicode="&#x449;" horiz-adv-x="741" 
d="M707 -125h-180v125h-485v500h180v-344h50v344h180v-344h50v344h180v-340h25v-285z" />
    <glyph glyph-name="afii10092" unicode="&#x44a;" horiz-adv-x="503" 
d="M473 147q0 -68 -48.5 -107.5t-118.5 -39.5h-239v348h-74v152h255v-194h19q97 3 151.5 -32t54.5 -127zM323 158q0 25 -17 40t-42 15h-20v-113h23q56 0 56 58z" />
    <glyph glyph-name="afii10093" unicode="&#x44b;" horiz-adv-x="711" 
d="M660 0h-181v500h181v-500zM448 147q0 -68 -48.5 -107.5t-118.5 -39.5h-239v500h181v-194h19q97 3 151.5 -32t54.5 -127zM298 158q0 25 -17 40t-42 15h-20v-113h23q56 0 56 58z" />
    <glyph glyph-name="afii10094" unicode="&#x44c;" horiz-adv-x="483" 
d="M448 147q0 -68 -48.5 -107.5t-118.5 -39.5h-239v500h181v-194h19q97 3 151.5 -32t54.5 -127zM298 158q0 25 -17 40t-42 15h-20v-113h23q56 0 56 58z" />
    <glyph glyph-name="afii10095" unicode="&#x44d;" horiz-adv-x="366" 
d="M337 250q0 -71 -19.5 -128t-68 -96.5t-120.5 -39.5q-54 0 -94 22v156q3 -2 10 -7.5t11 -8t10.5 -6t12.5 -5t12 -1.5q54 0 64 58h-58v115h60q0 25 -18 43t-44 18q-27 0 -60 -29v153q41 20 92 20q104 0 157 -77.5t53 -186.5z" />
    <glyph glyph-name="afii10096" unicode="&#x44e;" horiz-adv-x="742" 
d="M716 250q0 -119 -57.5 -191.5t-173.5 -72.5q-91 0 -149.5 48.5t-73.5 137.5h-38v-172h-180v500h180v-168h38q15 87 74.5 134.5t148.5 47.5q116 0 173.5 -72.5t57.5 -191.5zM530 253q0 110 -45 110t-45 -110q0 -112 45 -112t45 112z" />
    <glyph glyph-name="afii10097" unicode="&#x44f;" horiz-adv-x="473" 
d="M428 0h-180v170h-10l-52 -170h-181l90 205q-44 25 -58.5 58t-14.5 90q0 68 48.5 107.5t118.5 39.5h239v-500zM253 273v113h-25q-30 0 -43 -14t-13 -44q0 -26 15.5 -40.5t41.5 -14.5h24z" />
    <glyph glyph-name="afii10071" unicode="&#x451;" horiz-adv-x="490" 
d="M397 607q0 -27 -20 -47.5t-47 -20.5q-28 0 -48 20t-20 48q0 27 20.5 47t47.5 20q28 0 47.5 -19.5t19.5 -47.5zM236 607q0 -27 -20 -47.5t-47 -20.5q-28 0 -48 20t-20 48q0 27 20.5 47t47.5 20q28 0 47.5 -19.5t19.5 -47.5zM464 265q0 -24 -1 -36h-265v-7q0 -103 53 -103
q41 0 53 56h152q-10 -88 -68 -138.5t-147 -50.5q-113 0 -166.5 72.5t-53.5 189.5q0 116 54 191t165 75q224 0 224 -249zM305 313q0 85 -54 85q-41 0 -53 -85h107z" />
    <glyph glyph-name="afii10100" unicode="&#x453;" 
d="M468 708l-21 -148q-18 2 -28 2q-15 0 -26 -6t-17 -14t-9.5 -23t-4.5 -24.5t-1.5 -27.5t-1.5 -25h73l-14 -119h-74l-30 -277q-4 -33 -5.5 -49t-7.5 -44.5t-12.5 -43.5t-18.5 -35t-27.5 -29.5t-39 -17t-52.5 -7.5q-66 0 -128 28l18 154q22 -8 35 -8q10 0 17.5 2.5t13 9
t8.5 11.5t5.5 16t3 16t2 18t1.5 16l28 240h-77l15 119h79q2 22 4.5 58t4 55t6 47t11.5 43t20.5 33.5t32 27t46 15t63.5 6.5q53 0 108 -19z" />
    <glyph glyph-name="afii10101" unicode="&#x454;" horiz-adv-x="389" 
d="M367 538q0 -86 -44 -135.5t-129 -49.5t-129.5 49.5t-44.5 135.5t44.5 135.5t129.5 49.5t129 -49.5t44 -135.5zM228 540q0 77 -34 77t-34 -77q0 -78 34 -78t34 78z" />
    <glyph glyph-name="afii10103" unicode="&#x456;" horiz-adv-x="340" 
d="M325 406q0 -66 -45.5 -97.5t-114.5 -31.5q-147 0 -147 140h114q0 -50 29 -50q31 0 31 39q0 37 -17 48t-56 10v80q5 -1 15 -1q30 0 44 11.5t14 40.5q0 39 -29 39q-27 0 -29 -40h-110q0 61 39.5 94t101.5 33q61 0 105 -29t44 -87q0 -37 -21.5 -63t-57.5 -34q40 -4 65 -32.5
t25 -69.5z" />
    <glyph glyph-name="afii10104" unicode="&#x457;" horiz-adv-x="848" 
d="M726 83l-79 -79l-215 215l-215 -215l-79 79l215 215l-215 216l79 79l215 -215l215 215l79 -79l-215 -216z" />
    <glyph glyph-name="afii10110" unicode="&#x45e;" 
d="M390 113q-31 -20 -71 -22v-62h-86v71q-77 27 -111 96t-34 159q0 202 145 256v70h86v-59q40 -3 71 -20v-154q-21 12 -39 12q-34 0 -48.5 -32t-14.5 -71q0 -97 62 -97q20 0 40 10v-157z" />
    <glyph glyph-name="afii10193" unicode="&#x45f;" horiz-adv-x="848" 
d="M504 496q0 -33 -24 -56.5t-57 -23.5t-56.5 23.5t-23.5 56.5t24 57t57 24t56.5 -24t23.5 -57zM716 242h-585v113h585v-113zM504 100q0 -33 -23.5 -56.5t-56.5 -23.5t-57 23.5t-24 56.5t24 57t57 24t56.5 -24t23.5 -57z" />
    <glyph glyph-name="afii10050" unicode="&#x490;" horiz-adv-x="560" 
d="M536 310h-159l-9 -24v-286h-176v286l-9 24h-160v57h138l-24 62h-114v57h92l-89 227h184l70 -235l69 235h184l-87 -227h90v-57h-112l-24 -62h136v-57z" />
    <glyph glyph-name="afii10098" unicode="&#x491;" horiz-adv-x="515" 
d="M361 720l-84 -152h-77l34 152h127z" />
    <glyph glyph-name="endash" unicode="&#x2013;" horiz-adv-x="515" 
d="M507 190h-500v120h500v-120z" />
    <glyph glyph-name="emdash" unicode="&#x2014;" horiz-adv-x="1015" 
d="M1007 190h-1000v120h1000v-120z" />
    <glyph glyph-name="quoteleft" unicode="&#x2018;" horiz-adv-x="285" 
d="M283 713l-97 -351h-185l150 351h132z" />
    <glyph glyph-name="quoteright" unicode="&#x2019;" horiz-adv-x="285" 
d="M284 713l-151 -351h-131l96 351h186z" />
    <glyph glyph-name="quotesinglbase" unicode="&#x201a;" horiz-adv-x="285" 
d="M266 185l-150 -351h-131l96 351h185z" />
    <glyph glyph-name="quotedblleft" unicode="&#x201c;" horiz-adv-x="507" 
d="M506 713l-97 -351h-185l150 351h132zM285 713l-97 -351h-185l150 351h132z" />
    <glyph glyph-name="quotedblright" unicode="&#x201d;" horiz-adv-x="507" 
d="M506 713l-150 -351h-132l97 351h185zM284 713l-151 -351h-131l96 351h186z" />
    <glyph glyph-name="quotedblbase" unicode="&#x201e;" horiz-adv-x="507" 
d="M489 185l-151 -351h-131l97 351h185zM266 185l-150 -351h-131l96 351h185z" />
    <glyph glyph-name="dagger" unicode="&#x2020;" horiz-adv-x="531" 
d="M501 358h-145v-515h-182v515h-145v167h145v188h182v-188h145v-167z" />
    <glyph glyph-name="daggerdbl" unicode="&#x2021;" horiz-adv-x="531" 
d="M501 0h-149v-157h-173v157h-150v159h150v240h-150v159h150v155h173v-155h149v-159h-149v-240h149v-159z" />
    <glyph glyph-name="bullet" unicode="&#x2022;" horiz-adv-x="605" 
d="M446 372q0 -59 -43 -102t-102 -43q-60 0 -102 42.5t-42 102.5t42.5 102t102.5 42q59 0 101.5 -42.5t42.5 -101.5z" />
    <glyph glyph-name="ellipsis" unicode="&#x2026;" horiz-adv-x="1015" 
d="M951 100q0 -47 -32.5 -79.5t-78.5 -32.5t-78.5 32.5t-32.5 79.5q0 46 32.5 78.5t78.5 32.5t78.5 -32.5t32.5 -78.5zM617 100q0 -47 -32.5 -79.5t-78.5 -32.5t-78.5 32.5t-32.5 79.5q0 46 32.5 78.5t78.5 32.5t78.5 -32.5t32.5 -78.5zM284 100q0 -47 -32.5 -79.5
t-78.5 -32.5t-78.5 32.5t-32.5 79.5q0 46 32 78.5t79 32.5t79 -32.5t32 -78.5z" />
    <glyph glyph-name="perthousand" unicode="&#x2030;" horiz-adv-x="1084" 
d="M1054 177q0 -82 -37.5 -136t-115.5 -54t-115.5 54t-37.5 136t37.5 136t115.5 54t115.5 -54t37.5 -136zM717 177q0 -82 -37.5 -136t-115.5 -54t-115 54t-37 136t37 136t115 54t115.5 -54t37.5 -136zM588 727l-337 -741h-92l337 741h92zM336 534q0 -82 -37.5 -136
t-115.5 -54t-115.5 54t-37.5 136t37.5 135.5t115.5 53.5t115.5 -53.5t37.5 -135.5zM932 180v12v17.5t-1 18t-3 19.5t-5 15t-9 12t-13 4q-6 0 -10.5 -2.5t-8 -7.5t-6 -10t-4 -13.5t-2 -14t-1 -15t-0.5 -14v-12.5v-9v-9.5v-12.5v-13.5t1 -15t2.5 -14t4 -13t5.5 -10.5t8 -7.5
t11 -2.5q7 0 13 4t9 12t5 15t3 19.5t1 18v17.5v12zM596 180v9v12.5t-0.5 14t-1 15t-2 14t-4 13.5t-6 10t-8 7.5t-10.5 2.5q-7 0 -13 -4t-9 -12t-5 -15t-3 -19.5t-1 -18v-17.5v-12v-12.5v-17t0.5 -18t2.5 -19t5.5 -15.5t9 -12t13.5 -4q6 0 10.5 2.5t8 7.5t6 10t4 13.5t2 14
t1 15t0.5 14v12.5v9zM214 537v12v17.5t-1 18t-3 19.5t-5 15t-9 12t-13 4t-13 -4t-9 -12t-5 -15t-3 -19.5t-1 -18v-17.5v-12v-12.5v-17.5t0.5 -18.5t2.5 -19t5.5 -15.5t9 -12t13.5 -4q7 0 13 4t9 12t5 15.5t3 20t1 18v17.5v12z" />
    <glyph glyph-name="guilsinglleft" unicode="&#x2039;" horiz-adv-x="290" 
d="M249 82l-86 -46l-123 219l123 209l86 -46l-105 -163z" />
    <glyph glyph-name="guilsinglright" unicode="&#x203a;" horiz-adv-x="290" 
d="M249 255l-123 -219l-86 46l105 173l-105 163l86 46z" />
    <glyph glyph-name="Euro" unicode="&#x20ac;" horiz-adv-x="515" 
d="M392 568h-80l-55 78l-56 -78h-80l74 153h124z" />
    <glyph glyph-name="afii61352" unicode="&#x2116;" horiz-adv-x="959" 
d="M927 538q0 -86 -44 -135.5t-129 -49.5t-129.5 49.5t-44.5 135.5t44.5 135.5t129.5 49.5t129 -49.5t44 -135.5zM538 0h-196l-111 357v-357h-182v713h198l110 -375v375h181v-713zM788 540q0 77 -34 77t-34 -77q0 -78 34 -78t34 78z" />
    <glyph glyph-name="trademark" unicode="&#x2122;" horiz-adv-x="848" 
d="M724 446h-76v190l-71 -190h-32l-73 190v-190h-76v269h109l55 -148l56 148h108v-269zM344 653h-80v-207h-85v207h-80v62h245v-62z" />
    <glyph glyph-name="_0152" horiz-adv-x="515" 
d="M387 733q-1 -31 -7 -58.5t-25 -53t-49 -25.5q-17 0 -49 14t-49 14q-29 0 -33 -40h-46q8 133 82 133q18 0 49.5 -13.5t45.5 -13.5q32 0 34 43h47z" />
    <glyph glyph-name="nbspace" horiz-adv-x="247" 
 />
    <glyph glyph-name="hyphen_" horiz-adv-x="848" 
d="M716 241h-585v115h585v-115z" />
    <glyph glyph-name="Icyril" horiz-adv-x="340" 
d="M316 602q0 -79 -104 -216h95v-101h-300q182 237 182 311q0 36 -31 36t-30 -71v-5h-110q0 2 -0.5 8t-0.5 8q0 73 38 111t111 38q63 0 106.5 -29.5t43.5 -89.5z" />
    </font>
</defs>
</svg>
