<svg width="15" height="16" viewBox="0 0 15 16" fill="none" xmlns="http://www.w3.org/2000/svg">
<g clip-path="url(#clip0)">
<path d="M6.05497 7.62227L11.6664 1.92149C11.8209 1.76489 11.9059 1.55552 11.9059 1.33228C11.9059 1.10891 11.8209 0.899667 11.6664 0.742826L11.1747 0.243562C11.0205 0.0864731 10.8142 0 10.5945 0C10.3747 0 10.1688 0.0864731 10.0144 0.243562L3.33302 7.03083C3.17802 7.18817 3.09314 7.39841 3.09375 7.6219C3.09314 7.84638 3.1779 8.05637 3.33302 8.21383L10.0081 14.9945C10.1625 15.1516 10.3685 15.2381 10.5884 15.2381C10.8081 15.2381 11.0141 15.1516 11.1686 14.9945L11.6602 14.4953C11.9801 14.1703 11.9801 13.6413 11.6602 13.3165L6.05497 7.62227Z" fill="white"/>
</g>
<defs>
<clipPath id="clip0">
<rect width="15" height="15.2381" fill="white"/>
</clipPath>
</defs>
</svg>
