<svg width="301" height="65" viewBox="0 0 301 65" fill="none" xmlns="http://www.w3.org/2000/svg">
<path d="M125.715 16.4396V43.5167H120.416V25.9553L112.796 38.5268H112.177L104.556 25.994V43.5167H99.2183V16.4396H104.711L112.486 29.2432L120.222 16.4396H125.715Z" fill="white"/>
<path d="M134.745 35.8965C135.415 38.3205 137.233 39.5325 140.199 39.5325C142.107 39.5325 143.551 38.8878 144.531 37.5985L148.554 39.9193C146.646 42.6786 143.835 44.0583 140.121 44.0583C136.924 44.0583 134.358 43.0912 132.424 41.1572C130.49 39.2231 129.523 36.7861 129.523 33.8463C129.523 30.9323 130.477 28.5083 132.385 26.5742C134.293 24.6143 136.743 23.6344 139.735 23.6344C142.571 23.6344 144.905 24.6143 146.736 26.5742C148.593 28.5341 149.521 30.9581 149.521 33.8463C149.521 34.491 149.457 35.1744 149.328 35.8965H134.745ZM134.667 32.0283H144.531C144.247 30.7131 143.654 29.7332 142.752 29.0885C141.875 28.4438 140.869 28.1215 139.735 28.1215C138.394 28.1215 137.285 28.4696 136.408 29.1659C135.531 29.8363 134.951 30.7905 134.667 32.0283Z" fill="white"/>
<path d="M163.501 28.9725H159.13V37.0182C159.13 37.6887 159.297 38.1787 159.633 38.4881C159.968 38.7976 160.458 38.9781 161.103 39.0297C161.747 39.0555 162.547 39.0426 163.501 38.991V43.5167C160.071 43.9036 157.647 43.5812 156.229 42.5497C154.836 41.5182 154.14 39.6744 154.14 37.0182V28.9725H150.775V24.1759H154.14V20.2691L159.13 18.7605V24.1759H163.501V28.9725Z" fill="white"/>
<path d="M181.114 24.1759H186.104V43.5167H181.114V41.2345C179.618 43.117 177.516 44.0583 174.808 44.0583C172.23 44.0583 170.012 43.0784 168.155 41.1185C166.324 39.1328 165.409 36.7088 165.409 33.8463C165.409 30.9839 166.324 28.5727 168.155 26.6129C170.012 24.6272 172.23 23.6344 174.808 23.6344C177.516 23.6344 179.618 24.5756 181.114 26.4581V24.1759ZM171.907 37.7919C172.913 38.7976 174.19 39.3004 175.737 39.3004C177.284 39.3004 178.561 38.7976 179.566 37.7919C180.598 36.7604 181.114 35.4452 181.114 33.8463C181.114 32.2475 180.598 30.9452 179.566 29.9395C178.561 28.908 177.284 28.3922 175.737 28.3922C174.19 28.3922 172.913 28.908 171.907 29.9395C170.902 30.9452 170.399 32.2475 170.399 33.8463C170.399 35.4452 170.902 36.7604 171.907 37.7919Z" fill="white"/>
<path d="M201.691 28.9725H197.32V37.0182C197.32 37.6887 197.488 38.1787 197.823 38.4881C198.158 38.7976 198.648 38.9781 199.293 39.0297C199.938 39.0555 200.737 39.0426 201.691 38.991V43.5167C198.262 43.9036 195.837 43.5812 194.419 42.5497C193.027 41.5182 192.33 39.6744 192.33 37.0182V28.9725H188.965V24.1759H192.33V20.2691L197.32 18.7605V24.1759H201.691V28.9725Z" fill="white"/>
<path d="M210.502 27.5025C210.966 26.2647 211.727 25.3364 212.784 24.7175C213.867 24.0986 215.066 23.7891 216.381 23.7891V29.3593C214.86 29.1788 213.493 29.4882 212.281 30.2876C211.095 31.087 210.502 32.4151 210.502 34.2718V43.5167H205.512V24.1759H210.502V27.5025Z" fill="white"/>
<path d="M233.281 24.1759H238.271V43.5167H233.281V41.2345C231.785 43.117 229.684 44.0583 226.976 44.0583C224.397 44.0583 222.179 43.0784 220.323 41.1185C218.492 39.1328 217.576 36.7088 217.576 33.8463C217.576 30.9839 218.492 28.5727 220.323 26.6129C222.179 24.6272 224.397 23.6344 226.976 23.6344C229.684 23.6344 231.785 24.5756 233.281 26.4581V24.1759ZM224.075 37.7919C225.08 38.7976 226.357 39.3004 227.904 39.3004C229.451 39.3004 230.728 38.7976 231.734 37.7919C232.765 36.7604 233.281 35.4452 233.281 33.8463C233.281 32.2475 232.765 30.9452 231.734 29.9395C230.728 28.908 229.451 28.3922 227.904 28.3922C226.357 28.3922 225.08 28.908 224.075 29.9395C223.069 30.9452 222.566 32.2475 222.566 33.8463C222.566 35.4452 223.069 36.7604 224.075 37.7919Z" fill="white"/>
<path d="M257.456 16.4396H262.446V43.5167H257.456V41.2345C255.986 43.117 253.897 44.0583 251.19 44.0583C248.585 44.0583 246.354 43.0784 244.498 41.1185C242.667 39.1328 241.751 36.7088 241.751 33.8463C241.751 30.9839 242.667 28.5727 244.498 26.6129C246.354 24.6272 248.585 23.6344 251.19 23.6344C253.897 23.6344 255.986 24.5756 257.456 26.4581V16.4396ZM248.25 37.7919C249.281 38.7976 250.571 39.3004 252.118 39.3004C253.665 39.3004 254.942 38.7976 255.947 37.7919C256.953 36.7604 257.456 35.4452 257.456 33.8463C257.456 32.2475 256.953 30.9452 255.947 29.9395C254.942 28.908 253.665 28.3922 252.118 28.3922C250.571 28.3922 249.281 28.908 248.25 29.9395C247.244 30.9452 246.741 32.2475 246.741 33.8463C246.741 35.4452 247.244 36.7604 248.25 37.7919Z" fill="white"/>
<path d="M271.226 35.8965C271.896 38.3205 273.714 39.5325 276.68 39.5325C278.588 39.5325 280.032 38.8878 281.012 37.5985L285.035 39.9193C283.127 42.6786 280.316 44.0583 276.602 44.0583C273.405 44.0583 270.839 43.0912 268.905 41.1572C266.971 39.2231 266.004 36.7861 266.004 33.8463C266.004 30.9323 266.958 28.5083 268.866 26.5742C270.774 24.6143 273.224 23.6344 276.216 23.6344C279.052 23.6344 281.386 24.6143 283.217 26.5742C285.074 28.5341 286.002 30.9581 286.002 33.8463C286.002 34.491 285.938 35.1744 285.809 35.8965H271.226ZM271.148 32.0283H281.012C280.729 30.7131 280.135 29.7332 279.233 29.0885C278.356 28.4438 277.35 28.1215 276.216 28.1215C274.875 28.1215 273.766 28.4696 272.889 29.1659C272.012 29.8363 271.432 30.7905 271.148 32.0283Z" fill="white"/>
<path d="M294.476 27.5025C294.94 26.2647 295.7 25.3364 296.758 24.7175C297.841 24.0986 299.04 23.7891 300.355 23.7891V29.3593C298.834 29.1788 297.467 29.4882 296.255 30.2876C295.069 31.087 294.476 32.4151 294.476 34.2718V43.5167H289.486V24.1759H294.476V27.5025Z" fill="white"/>
<circle cx="32.2347" cy="32.2347" r="32.2347" fill="url(#paint0_linear)"/>
<defs>
<linearGradient id="paint0_linear" x1="32.2347" y1="0" x2="32.2347" y2="64.4694" gradientUnits="userSpaceOnUse">
<stop stop-color="#4761F2" stop-opacity="0.74"/>
<stop offset="1" stop-color="#4761F2" stop-opacity="0"/>
</linearGradient>
</defs>
</svg>
