<svg width="202" height="29" viewBox="0 0 202 29" fill="none" xmlns="http://www.w3.org/2000/svg">
<path d="M26.7152 0.439606V27.5167H21.4158V9.95529L13.7955 22.5268H13.1766L5.55633 9.99397V27.5167H0.218262V0.439606H5.71105L13.4861 13.2432L21.2224 0.439606H26.7152Z" fill="white"/>
<path d="M35.7446 19.8965C36.4151 22.3205 38.2331 23.5325 41.1987 23.5325C43.107 23.5325 44.5511 22.8878 45.5311 21.5985L49.5539 23.9193C47.6457 26.6786 44.8348 28.0583 41.1214 28.0583C37.9237 28.0583 35.3578 27.0912 33.4237 25.1572C31.4896 23.2231 30.5226 20.7861 30.5226 17.8463C30.5226 14.9323 31.4767 12.5083 33.385 10.5742C35.2933 8.61432 37.7432 7.63439 40.7345 7.63439C43.5712 7.63439 45.905 8.61432 47.7359 10.5742C49.5926 12.5341 50.521 14.9581 50.521 17.8463C50.521 18.491 50.4565 19.1744 50.3276 19.8965H35.7446ZM35.6672 16.0283H45.5311C45.2474 14.7131 44.6543 13.7332 43.7517 13.0885C42.8749 12.4438 41.8692 12.1215 40.7345 12.1215C39.3936 12.1215 38.2847 12.4696 37.4079 13.1659C36.5311 13.8363 35.9509 14.7905 35.6672 16.0283Z" fill="white"/>
<path d="M64.5008 12.9725H60.1297V21.0182C60.1297 21.6887 60.2974 22.1787 60.6326 22.4881C60.9678 22.7976 61.4578 22.9781 62.1025 23.0297C62.7472 23.0555 63.5466 23.0426 64.5008 22.991V27.5167C61.071 27.9036 58.6469 27.5812 57.2286 26.5497C55.8361 25.5182 55.1398 23.6744 55.1398 21.0182V12.9725H51.7745V8.17593H55.1398V4.26909L60.1297 2.7605V8.17593H64.5008V12.9725Z" fill="white"/>
<path d="M82.1136 8.17593H87.1035V27.5167H82.1136V25.2345C80.6179 27.117 78.5162 28.0583 75.8085 28.0583C73.2297 28.0583 71.012 27.0784 69.1553 25.1185C67.3243 23.1328 66.4089 20.7088 66.4089 17.8463C66.4089 14.9839 67.3243 12.5727 69.1553 10.6129C71.012 8.62722 73.2297 7.63439 75.8085 7.63439C78.5162 7.63439 80.6179 8.57564 82.1136 10.4581V8.17593ZM72.9074 21.7919C73.9131 22.7976 75.1896 23.3004 76.7368 23.3004C78.2841 23.3004 79.5606 22.7976 80.5663 21.7919C81.5978 20.7604 82.1136 19.4452 82.1136 17.8463C82.1136 16.2475 81.5978 14.9452 80.5663 13.9395C79.5606 12.908 78.2841 12.3922 76.7368 12.3922C75.1896 12.3922 73.9131 12.908 72.9074 13.9395C71.9016 14.9452 71.3988 16.2475 71.3988 17.8463C71.3988 19.4452 71.9016 20.7604 72.9074 21.7919Z" fill="white"/>
<path d="M102.691 12.9725H98.3203V21.0182C98.3203 21.6887 98.4879 22.1787 98.8232 22.4881C99.1584 22.7976 99.6484 22.9781 100.293 23.0297C100.938 23.0555 101.737 23.0426 102.691 22.991V27.5167C99.2615 27.9036 96.8375 27.5812 95.4192 26.5497C94.0266 25.5182 93.3304 23.6744 93.3304 21.0182V12.9725H89.9651V8.17593H93.3304V4.26909L98.3203 2.7605V8.17593H102.691V12.9725Z" fill="white"/>
<path d="M111.502 11.5025C111.966 10.2647 112.727 9.33638 113.784 8.71747C114.867 8.09857 116.066 7.78911 117.381 7.78911V13.3593C115.86 13.1788 114.493 13.4882 113.281 14.2876C112.095 15.087 111.502 16.4151 111.502 18.2718V27.5167H106.512V8.17593H111.502V11.5025Z" fill="white"/>
<path d="M134.281 8.17593H139.271V27.5167H134.281V25.2345C132.785 27.117 130.684 28.0583 127.976 28.0583C125.397 28.0583 123.179 27.0784 121.323 25.1185C119.492 23.1328 118.576 20.7088 118.576 17.8463C118.576 14.9839 119.492 12.5727 121.323 10.6129C123.179 8.62722 125.397 7.63439 127.976 7.63439C130.684 7.63439 132.785 8.57564 134.281 10.4581V8.17593ZM125.075 21.7919C126.08 22.7976 127.357 23.3004 128.904 23.3004C130.451 23.3004 131.728 22.7976 132.734 21.7919C133.765 20.7604 134.281 19.4452 134.281 17.8463C134.281 16.2475 133.765 14.9452 132.734 13.9395C131.728 12.908 130.451 12.3922 128.904 12.3922C127.357 12.3922 126.08 12.908 125.075 13.9395C124.069 14.9452 123.566 16.2475 123.566 17.8463C123.566 19.4452 124.069 20.7604 125.075 21.7919Z" fill="white"/>
<path d="M158.456 0.439606H163.446V27.5167H158.456V25.2345C156.986 27.117 154.897 28.0583 152.19 28.0583C149.585 28.0583 147.354 27.0784 145.498 25.1185C143.667 23.1328 142.751 20.7088 142.751 17.8463C142.751 14.9839 143.667 12.5727 145.498 10.6129C147.354 8.62722 149.585 7.63439 152.19 7.63439C154.897 7.63439 156.986 8.57564 158.456 10.4581V0.439606ZM149.25 21.7919C150.281 22.7976 151.571 23.3004 153.118 23.3004C154.665 23.3004 155.942 22.7976 156.947 21.7919C157.953 20.7604 158.456 19.4452 158.456 17.8463C158.456 16.2475 157.953 14.9452 156.947 13.9395C155.942 12.908 154.665 12.3922 153.118 12.3922C151.571 12.3922 150.281 12.908 149.25 13.9395C148.244 14.9452 147.741 16.2475 147.741 17.8463C147.741 19.4452 148.244 20.7604 149.25 21.7919Z" fill="white"/>
<path d="M172.226 19.8965C172.896 22.3205 174.714 23.5325 177.68 23.5325C179.588 23.5325 181.032 22.8878 182.012 21.5985L186.035 23.9193C184.127 26.6786 181.316 28.0583 177.602 28.0583C174.405 28.0583 171.839 27.0912 169.905 25.1572C167.971 23.2231 167.004 20.7861 167.004 17.8463C167.004 14.9323 167.958 12.5083 169.866 10.5742C171.774 8.61432 174.224 7.63439 177.216 7.63439C180.052 7.63439 182.386 8.61432 184.217 10.5742C186.074 12.5341 187.002 14.9581 187.002 17.8463C187.002 18.491 186.938 19.1744 186.809 19.8965H172.226ZM172.148 16.0283H182.012C181.729 14.7131 181.135 13.7332 180.233 13.0885C179.356 12.4438 178.35 12.1215 177.216 12.1215C175.875 12.1215 174.766 12.4696 173.889 13.1659C173.012 13.8363 172.432 14.7905 172.148 16.0283Z" fill="white"/>
<path d="M195.476 11.5025C195.94 10.2647 196.7 9.33638 197.758 8.71747C198.841 8.09857 200.04 7.78911 201.355 7.78911V13.3593C199.834 13.1788 198.467 13.4882 197.255 14.2876C196.069 15.087 195.476 16.4151 195.476 18.2718V27.5167H190.486V8.17593H195.476V11.5025Z" fill="white"/>
</svg>
