<svg width="26" height="26" viewBox="0 0 26 26" fill="none" xmlns="http://www.w3.org/2000/svg">
<path d="M26 19.1445V2.28516C26 1.02512 24.9749 0 23.7148 0H2.28516C1.02512 0 0 1.02512 0 2.28516V23.7148C0 24.9749 1.02512 26 2.28516 26H19.1445C19.3508 26 19.5467 25.9133 19.6833 25.7768L25.7768 19.6833C25.9172 19.543 26 19.3488 26 19.1445ZM1.52344 23.7148V2.28516C1.52344 1.86514 1.86514 1.52344 2.28516 1.52344H23.7148C24.1349 1.52344 24.4766 1.86514 24.4766 2.28516V18.3828H19.1445C18.7239 18.3828 18.3828 18.7239 18.3828 19.1445V24.4766H2.28516C1.86514 24.4766 1.52344 24.1349 1.52344 23.7148ZM23.3993 19.9062L19.9062 23.3993V19.9062H23.3993Z" fill="#4761F2"/>
<path d="M19.0939 10.7148C19.0939 8.8497 18.2566 7.11232 16.7969 5.94821C15.3368 4.78384 13.4332 4.35931 11.5743 4.78369C10.4866 5.03201 9.48459 5.59137 8.67666 6.40128C7.86893 7.21104 7.31191 8.21432 7.06593 9.30267C6.46082 11.9794 7.63996 14.6611 9.9533 15.9937V19.0938C9.9533 20.3538 10.9784 21.3789 12.2385 21.3789V22.1406C12.2385 22.5613 12.5795 22.9023 13.0002 22.9023C13.4208 22.9023 13.7619 22.5613 13.7619 22.1406V21.3789C15.0219 21.3789 16.047 20.3538 16.047 19.0938V15.9934C16.8844 15.5095 17.5965 14.8324 18.1244 14.0139C18.7586 13.0305 19.0939 11.8897 19.0939 10.7148ZM13.7618 19.8555H12.2384C11.8184 19.8555 11.4767 19.5138 11.4767 19.0938V18.332H14.5236V19.0938C14.5236 19.5138 14.1819 19.8555 13.7618 19.8555ZM14.9584 14.8457C14.6928 14.9719 14.5236 15.2397 14.5236 15.5338V16.8086H11.4767V15.5338C11.4767 15.2397 11.3074 14.9719 11.0418 14.8457C9.09205 13.9195 8.06815 11.7783 8.55184 9.63864C8.92285 7.99744 10.2737 6.64325 11.9134 6.26899C12.2721 6.18708 12.6328 6.14681 12.9893 6.14681C14.0281 6.14681 15.0314 6.48888 15.8471 7.13933C16.9423 8.01272 17.5704 9.31592 17.5704 10.7148C17.5704 12.4705 16.5452 14.0919 14.9584 14.8457Z" fill="#4761F2"/>
</svg>
