<svg width="26" height="31" viewBox="0 0 26 31" fill="none" xmlns="http://www.w3.org/2000/svg">
<path d="M15.8501 2.14276V0.906233C15.8501 0.405751 15.4444 0 14.9439 0H11.0773C10.5768 0 10.171 0.405751 10.171 0.906233V2.64952C5.00697 4.49636 1.72502 9.96868 2.84373 15.6518L0.614159 17.8814C-0.232564 18.728 -0.200303 20.1163 0.689437 20.9241C1.29842 21.4768 1.89871 21.8478 2.48305 22.0334C2.68708 23.8206 3.54546 25.6291 4.28041 26.8995C4.85346 27.89 5.95797 28.4381 7.09415 28.2958L8.87368 28.0735L9.21636 30.1724C9.29726 30.6681 9.76451 31.0013 10.2568 30.9208C10.7507 30.8401 11.0858 30.3743 11.0051 29.8804L10.5218 26.92C10.4433 26.439 9.9982 26.1067 9.51512 26.1667L6.86922 26.4973C6.457 26.5489 6.05681 26.3505 5.84928 25.9918C5.2522 24.9597 4.25045 22.9733 4.25045 21.2661C4.25045 20.7657 3.8447 20.3599 3.34421 20.3599C2.97598 20.3599 2.45236 20.0764 1.90778 19.5821C1.78725 19.4726 1.77643 19.2822 1.89581 19.1629L4.46831 16.5904C4.68254 16.3762 4.77558 16.069 4.71613 15.7719L4.62792 15.3309C3.73396 10.8605 6.12683 6.3768 10.1711 4.59901V10.6661C8.99899 11.5366 8.23781 12.9307 8.23781 14.4997C8.23781 16.4959 9.47023 18.2089 11.2138 18.9201C10.8579 19.5149 10.3962 20.05 9.82946 20.5227C8.67256 21.4877 7.48304 21.834 7.45295 21.8426C6.97174 21.9754 6.68833 22.4727 6.8198 22.9546C6.9515 23.4375 7.44975 23.7222 7.93253 23.5904C7.9944 23.5736 9.46461 23.1634 10.9262 21.9676C11.6675 21.3611 12.4855 20.483 13.0785 19.2707C15.6789 19.2341 17.7835 17.1086 17.7835 14.4996C17.7835 12.9307 17.0223 11.5365 15.8502 10.666V3.98301C20.5394 4.87154 24.1979 8.9827 24.1875 13.5668C24.1845 14.9635 23.3186 16.4026 22.3836 17.7496C21.6755 18.7687 21.0568 19.8023 20.5942 20.7384C17.9305 26.1266 18.8564 30.0774 18.8972 30.243C18.999 30.6566 19.37 30.9349 19.7779 30.9349C20.3633 30.9349 20.799 30.3863 20.6582 29.8141C20.65 29.7795 19.8682 26.2966 22.219 21.5415C22.6427 20.6842 23.2143 19.7304 23.8722 18.7834C24.9749 17.195 25.9959 15.4643 26 13.5708C26.0131 7.80514 21.4313 3.03105 15.8501 2.14276ZM13.7254 17.3723C13.8469 16.7903 13.9168 16.1567 13.9168 15.4664C13.9168 14.9659 13.5111 14.5601 13.0106 14.5601C12.5101 14.5601 12.1043 14.9659 12.1043 15.4664C12.1043 16.0943 12.0351 16.6866 11.8983 17.2424C10.8157 16.8017 10.0502 15.7387 10.0502 14.4997C10.0502 12.8674 11.3782 11.5394 13.0106 11.5394C14.6429 11.5394 15.9709 12.8674 15.9709 14.4997C15.9709 15.8856 15.0135 17.0517 13.7254 17.3723ZM11.9835 9.83939C11.9835 8.33396 11.9835 11.4557 11.9835 1.81247H14.0376V9.83939C13.3635 9.69089 12.6713 9.68793 11.9835 9.83939Z" fill="#4761F2"/>
</svg>
