<svg width="26" height="26" viewBox="0 0 26 26" fill="none" xmlns="http://www.w3.org/2000/svg">
<path d="M26 20.6172V0.8125H0V20.6172H10.4197L9.40408 23.6641H6.14453V25.1875H19.8555V23.6641H16.5959L15.5803 20.6172H26ZM1.52344 2.33594H24.4766V19.0938H1.52344V2.33594ZM14.99 23.6641H11.0099L12.0256 20.6172H13.9744L14.99 23.6641Z" fill="#4761F2"/>
<path d="M3.33203 9.19141L7.66819 10.9258V14.3246L13.0002 16.4574L18.3323 14.3246V10.9258L19.8557 10.3165V16.0469H21.3791V8.67572L13.0002 5.32416L3.33203 9.19141ZM16.8088 13.2932L13.0002 14.8166L9.19163 13.2932V11.5352L13.0002 13.0587L16.8088 11.5352V13.2932ZM13.0002 11.4179L7.43404 9.19141L13.0002 6.9649L18.5664 9.19141L13.0002 11.4179Z" fill="#4761F2"/>
</svg>
