<svg width="26" height="26" viewBox="0 0 26 26" fill="none" xmlns="http://www.w3.org/2000/svg">
<path d="M23.4 1.30001C21.967 1.29742 20.8031 2.45706 20.8005 3.89016C20.7993 4.5656 21.0615 5.21494 21.5315 5.7001L16.7813 15.1988C16.6772 15.1815 16.5721 15.1708 16.4667 15.1667C16.131 15.1674 15.7987 15.2334 15.4882 15.3609L11.8005 11.2139C12.0158 10.8333 12.1304 10.404 12.1334 9.96674C12.1334 8.5308 10.9693 7.36674 9.53337 7.36674C8.09743 7.36674 6.93337 8.5308 6.93337 9.96674C6.93591 10.5874 7.16244 11.1863 7.57123 11.6533L3.06455 19.5468C2.91139 19.5174 2.75595 19.5017 2.6 19.5C1.16406 19.5 0 20.6641 0 22.1C0 23.536 1.16406 24.7 2.6 24.7C4.03594 24.7 5.2 23.536 5.2 22.1C5.19746 21.4794 4.97093 20.8805 4.56214 20.4135L9.06882 12.5199C9.55261 12.6154 10.0539 12.5642 10.5084 12.3726L14.1961 16.5196C13.982 16.9005 13.8686 17.3297 13.8667 17.7667C13.8624 19.2026 15.0229 20.3702 16.4589 20.3745C17.8948 20.3788 19.0624 19.2183 19.0667 17.7824C19.0687 17.105 18.8063 16.4535 18.3352 15.9667L23.0854 6.46797C23.1895 6.48523 23.2946 6.49595 23.4 6.50001C24.8359 6.50001 26 5.33595 26 3.90001C26 2.46407 24.8359 1.30001 23.4 1.30001ZM2.6 22.9667C2.12134 22.9667 1.73332 22.5787 1.73332 22.1C1.73332 21.6213 2.12134 21.2333 2.6 21.2333C3.07866 21.2333 3.46668 21.6213 3.46668 22.1C3.46668 22.5787 3.07866 22.9667 2.6 22.9667ZM9.53332 10.8333C9.05465 10.8333 8.66663 10.4453 8.66663 9.96664C8.66663 9.48798 9.05465 9.09996 9.53332 9.09996C10.012 9.09996 10.4 9.48798 10.4 9.96664C10.4 10.4453 10.012 10.8333 9.53332 10.8333ZM16.4667 18.6333C15.988 18.6333 15.6 18.2453 15.6 17.7666C15.6 17.288 15.988 16.9 16.4667 16.9C16.9453 16.9 17.3334 17.288 17.3334 17.7666C17.3333 18.2453 16.9453 18.6333 16.4667 18.6333ZM23.4 4.76669C22.9213 4.76669 22.5333 4.37867 22.5333 3.90001C22.5333 3.42134 22.9213 3.03332 23.4 3.03332C23.8787 3.03332 24.2667 3.42134 24.2667 3.90001C24.2667 4.37867 23.8787 4.76669 23.4 4.76669Z" fill="#4761F2"/>
</svg>
