<svg width="26" height="26" viewBox="0 0 26 26" fill="none" xmlns="http://www.w3.org/2000/svg">
<g clip-path="url(#clip0)">
<path d="M18.4165 20.5833H7.58317C7.3665 20.5833 7.25817 20.475 7.14984 20.3667C7.0415 20.2583 7.0415 20.0417 7.0415 19.9333L7.58317 18.0917C8.6665 14.7333 8.77484 11.2667 8.12484 7.8V7.15C8.12484 7.04167 8.12484 6.825 8.23317 6.71667C8.3415 6.60833 8.55817 6.5 8.6665 6.5H17.3332C17.4415 6.5 17.6582 6.60833 17.7665 6.71667C17.8748 6.825 17.8748 7.04167 17.8748 7.15L17.7665 7.90833C17.1165 11.2667 17.3332 14.7333 18.3082 17.875L18.9582 19.825C18.9582 20.0417 18.9582 20.15 18.8498 20.2583C18.7415 20.475 18.6332 20.5833 18.4165 20.5833ZM8.3415 19.5H17.6582L17.3332 18.2C16.2498 14.8417 16.0332 11.1583 16.6832 7.69167V7.58333H9.3165C9.9665 11.1583 9.74983 14.8417 8.6665 18.3083L8.3415 19.5Z" fill="#4761F2"/>
<path d="M18.9582 7.58333H7.0415C6.17484 7.58333 5.4165 6.82499 5.4165 5.95833V0.541659C5.4165 0.216659 5.63317 -7.62939e-06 5.95817 -7.62939e-06H9.20817C9.53317 -7.62939e-06 9.74984 0.216659 9.74984 0.541659V3.24999H10.8332V0.541659C10.8332 0.216659 11.0498 -7.62939e-06 11.3748 -7.62939e-06H14.6248C14.9498 -7.62939e-06 15.1665 0.216659 15.1665 0.541659V3.24999H16.2498V0.541659C16.2498 0.216659 16.4665 -7.62939e-06 16.7915 -7.62939e-06H20.0415C20.3665 -7.62939e-06 20.5832 0.216659 20.5832 0.541659V5.95833C20.5832 6.82499 19.8248 7.58333 18.9582 7.58333ZM6.49984 1.08333V5.95833C6.49984 6.28333 6.7165 6.49999 7.0415 6.49999H18.9582C19.2832 6.49999 19.4998 6.28333 19.4998 5.95833V1.08333H17.3332V3.79166C17.3332 4.11666 17.1165 4.33333 16.7915 4.33333H14.6248C14.2998 4.33333 14.0832 4.11666 14.0832 3.79166V1.08333H11.9165V3.79166C11.9165 4.11666 11.6998 4.33333 11.3748 4.33333H9.20817C8.88317 4.33333 8.6665 4.11666 8.6665 3.79166V1.08333H6.49984Z" fill="#4761F2"/>
<path d="M23.2915 26H2.70817C2.38317 26 2.1665 25.7834 2.1665 25.4584V23.2917C2.1665 22.425 2.92484 21.6667 3.7915 21.6667H22.2082C23.0748 21.6667 23.8332 22.425 23.8332 23.2917V25.4584C23.8332 25.7834 23.6165 26 23.2915 26ZM3.24984 24.9167H22.7498V23.2917C22.7498 22.9667 22.5332 22.75 22.2082 22.75H3.7915C3.4665 22.75 3.24984 22.9667 3.24984 23.2917V24.9167Z" fill="#4761F2"/>
<path d="M21.1252 22.75H4.87516C4.55016 22.75 4.3335 22.5333 4.3335 22.2083V21.125C4.3335 20.2583 5.09183 19.5 5.9585 19.5H20.0418C20.9085 19.5 21.6668 20.2583 21.6668 21.125V22.2083C21.6668 22.5333 21.4502 22.75 21.1252 22.75ZM5.41683 21.6667H20.5835V21.125C20.5835 20.8 20.3668 20.5833 20.0418 20.5833H5.9585C5.6335 20.5833 5.41683 20.8 5.41683 21.125V21.6667Z" fill="#4761F2"/>
</g>
<defs>
<clipPath id="clip0">
<rect width="26" height="26" fill="white"/>
</clipPath>
</defs>
</svg>
