<svg width="26" height="26" viewBox="0 0 26 26" fill="none" xmlns="http://www.w3.org/2000/svg">
<g clip-path="url(#clip0)">
<path d="M2.30188 14.3721L0.286067 16.4501C-0.10368 16.8519 -0.0939804 17.4937 0.307852 17.8835C0.504782 18.0745 0.759248 18.1696 1.01356 18.1696C1.27813 18.1696 1.5425 18.0666 1.74121 17.8617L3.75702 15.7837C4.14677 15.3819 4.13707 14.7402 3.73524 14.3504C3.33341 13.9605 2.69168 13.9703 2.30188 14.3721Z" fill="#4761F2"/>
<path d="M6.99411 15.0272C6.43435 15.0272 5.98047 15.481 5.98047 16.0409V24.961C5.98047 25.5208 6.4343 25.9746 6.99411 25.9746H6.99416C7.55392 25.9746 8.00781 25.5208 8.00781 24.961L8.00771 16.0408C8.00771 15.481 7.55393 15.0272 6.99411 15.0272Z" fill="#4761F2"/>
<path d="M10.9472 12.7972C10.3875 12.7972 9.93359 13.2511 9.93359 13.8109V24.961C9.93359 25.5208 10.3874 25.9746 10.9472 25.9746C11.5071 25.9746 11.9609 25.5208 11.9609 24.961V13.8108C11.9608 13.2511 11.5071 12.7972 10.9472 12.7972Z" fill="#4761F2"/>
<path d="M22.959 0.02528H19.9181C19.3582 0.02528 18.9044 0.479113 18.9044 1.03893C18.9044 1.59874 19.3582 2.05257 19.9181 2.05257H22.5897L15.1466 9.49402C14.947 9.69374 14.6856 9.80734 14.4272 9.80734C14.4218 9.80734 14.4163 9.80729 14.4108 9.80719C14.1619 9.80252 13.9076 9.68841 13.7132 9.49397L12.5215 8.30223C11.938 7.71881 11.1635 7.3806 10.3964 7.37431C10.3889 7.37426 10.3815 7.37426 10.3741 7.37426C9.58004 7.37426 8.78714 7.72135 8.19458 8.32889L6.02235 10.5109C5.62738 10.9077 5.6288 11.5494 6.02555 11.9444C6.22329 12.1413 6.48198 12.2397 6.74066 12.2397C7.00081 12.2397 7.26096 12.1401 7.45901 11.9412L9.63519 9.75524C9.63819 9.7523 9.64108 9.7493 9.64403 9.7463C9.85568 9.5283 10.1315 9.39901 10.3797 9.4015C10.6159 9.40343 10.8807 9.52835 11.088 9.73569L12.2798 10.9274C12.8499 11.4975 13.5933 11.8196 14.3731 11.8341C15.1841 11.8493 15.9891 11.5188 16.5803 10.9275L23.9726 3.53661V6.05648C23.9726 6.61629 24.4265 7.07013 24.9863 7.07013C25.5461 7.07013 25.9999 6.61629 25.9999 6.05648V3.06622C25.9999 1.38947 24.6358 0.02528 22.959 0.02528Z" fill="#4761F2"/>
<path d="M2.99366 19.5887C2.43253 19.5868 1.97656 20.0412 1.97656 20.6023V24.961C1.97656 25.5208 2.4304 25.9747 2.99021 25.9747H2.99026C3.55007 25.9747 4.0039 25.5208 4.0039 24.961V20.6023C4.00385 20.0439 3.55221 19.5906 2.99366 19.5887Z" fill="#4761F2"/>
<path d="M22.9082 8.69198C22.3484 8.69198 21.8945 9.14582 21.8945 9.70563V24.9611C21.8945 25.5208 22.3484 25.9747 22.9082 25.9747H22.9082C23.468 25.9747 23.9219 25.5209 23.9219 24.9611V9.70563C23.9218 9.14577 23.468 8.69198 22.9082 8.69198Z" fill="#4761F2"/>
<path d="M14.9004 14.0643C14.3406 14.0643 13.8867 14.5181 13.8867 15.0779V24.961C13.8867 25.5208 14.3406 25.9747 14.9004 25.9747H14.9004C15.4602 25.9747 15.9141 25.5208 15.9141 24.961V15.0779C15.914 14.5181 15.4602 14.0643 14.9004 14.0643Z" fill="#4761F2"/>
<path d="M18.9006 12.1384C18.3422 12.1404 17.8906 12.5937 17.8906 13.152V24.961C17.8906 25.5208 18.3445 25.9747 18.9043 25.9747H18.9043C19.4641 25.9747 19.918 25.5209 19.918 24.961V13.152C19.9179 12.5907 19.4618 12.1363 18.9006 12.1384Z" fill="#4761F2"/>
</g>
<defs>
<clipPath id="clip0">
<rect width="26" height="26" fill="white"/>
</clipPath>
</defs>
</svg>
