<svg width="26" height="26" viewBox="0 0 26 26" fill="none" xmlns="http://www.w3.org/2000/svg">
<g clip-path="url(#clip0)">
<path d="M25.2885 11.4598C25.2042 10.9316 24.7077 10.5717 24.1795 10.656C23.6513 10.7403 23.2915 11.2368 23.3757 11.765C23.3766 11.7708 23.3776 11.7765 23.3786 11.7822C24.3649 17.5879 20.4579 23.0938 14.6522 24.0801C8.84656 25.0663 3.34065 21.1594 2.35442 15.3537C1.36818 9.548 5.27517 4.0421 11.0808 3.05586C14.6512 2.44936 18.2853 3.69652 20.7309 6.36758L16.4406 7.797C15.9331 7.96588 15.6586 8.51415 15.8274 9.02168C15.8275 9.0218 15.8276 9.02197 15.8276 9.02208C15.9965 9.52961 16.5448 9.80409 17.0523 9.63527C17.0525 9.63521 17.0526 9.63516 17.0527 9.63516L22.8634 7.69826C23.2591 7.5665 23.5259 7.19624 23.5259 6.77921V0.968475C23.5259 0.433592 23.0923 0 22.5574 0C22.0225 0 21.5889 0.433592 21.5889 0.968475V4.50622C16.6015 -0.23748 8.71275 -0.0398351 3.96905 4.94764C-0.774644 9.93511 -0.577056 17.8238 4.41048 22.5676C9.39801 27.3113 17.2867 27.1137 22.0304 22.1261C24.7354 19.2821 25.9426 15.3299 25.2885 11.4598Z" fill="#4761F2"/>
</g>
<defs>
<clipPath id="clip0">
<rect width="26" height="26" fill="white"/>
</clipPath>
</defs>
</svg>
