<svg width="27" height="27" viewBox="0 0 27 27" fill="none" xmlns="http://www.w3.org/2000/svg">
<path d="M23.8238 5.10301L19.0024 0.281545C18.821 0.102323 18.5766 0.00129952 18.3216 0H3.85737C3.32479 0 2.89307 0.431725 2.89307 0.964304V26.0357C2.89307 26.5683 3.32479 27 3.85737 27H23.1431C23.6756 27 24.1074 26.5683 24.1074 26.0357V5.78571C24.106 5.52976 24.0042 5.2846 23.8238 5.10301ZM19.2859 3.29209L20.8153 4.82146H19.2859V3.29209ZM22.1787 25.0714H4.82162V1.92855H17.3573V5.78571C17.3573 6.31829 17.7891 6.75001 18.3216 6.75001H22.1788V25.0714H22.1787Z" fill="#4761F2"/>
<path d="M19.2857 8.67859H7.7143C7.18172 8.67859 6.75 9.11031 6.75 9.64289C6.75 10.1755 7.18172 10.6072 7.7143 10.6072H19.2857C19.8183 10.6072 20.25 10.1755 20.25 9.64289C20.25 9.11031 19.8183 8.67859 19.2857 8.67859Z" fill="#4761F2"/>
<path d="M19.2857 12.5357H7.7143C7.18172 12.5357 6.75 12.9674 6.75 13.5C6.75 14.0326 7.18178 14.4643 7.7143 14.4643H19.2857C19.8183 14.4643 20.25 14.0325 20.25 13.5C20.25 12.9674 19.8183 12.5357 19.2857 12.5357Z" fill="#4761F2"/>
<path d="M19.2857 16.3928H7.7143C7.18172 16.3928 6.75 16.8245 6.75 17.3571C6.75 17.8897 7.18172 18.3214 7.7143 18.3214H19.2857C19.8183 18.3214 20.25 17.8897 20.25 17.3571C20.25 16.8245 19.8183 16.3928 19.2857 16.3928Z" fill="#4761F2"/>
<path d="M19.2857 20.25H7.7143C7.18172 20.25 6.75 20.6817 6.75 21.2143C6.75 21.7469 7.18172 22.1786 7.7143 22.1786H19.2857C19.8183 22.1786 20.25 21.7469 20.25 21.2143C20.25 20.6817 19.8183 20.25 19.2857 20.25Z" fill="#4761F2"/>
</svg>
