<svg width="50" height="42" viewBox="0 0 50 42" fill="none" xmlns="http://www.w3.org/2000/svg">
<path d="M47.5 0.00301798H42.5C41.8536 0.0038218 41.2327 0.25468 40.7671 0.703057C40.3015 1.15143 40.0275 1.76255 40.0024 2.40843L38.4834 10.003H27.07C27.4705 8.87169 27.5937 7.66078 27.4292 6.47198C27.2647 5.28319 26.8174 4.15122 26.1247 3.17118C25.432 2.19113 24.5142 1.39163 23.4485 0.839813C22.3827 0.288001 21.2001 0 20 0C18.7999 0 17.6173 0.288001 16.5516 0.839813C15.4858 1.39163 14.5681 2.19113 13.8754 3.17118C13.1827 4.15122 12.7353 5.28319 12.5708 6.47198C12.4063 7.66078 12.5295 8.87169 12.93 10.003H0.833371C0.710074 10.003 0.588312 10.0304 0.476864 10.0831C0.365417 10.1358 0.267062 10.2127 0.188891 10.308C0.11072 10.4034 0.0546817 10.5149 0.0248162 10.6345C-0.00504928 10.7541 -0.00799737 10.8789 0.0161843 10.9998L3.34952 27.6664C3.3873 27.8553 3.48937 28.0253 3.63836 28.1475C3.78735 28.2696 3.97405 28.3363 4.1667 28.3363H35.8333C36.2754 28.3363 36.6993 28.5119 37.0119 28.8245C37.3244 29.137 37.5 29.561 37.5 30.003C37.5 30.445 37.3244 30.8689 37.0119 31.1815C36.6993 31.4941 36.2754 31.6697 35.8333 31.6697H4.1667C3.94569 31.6697 3.73373 31.7575 3.57745 31.9137C3.42117 32.07 3.33337 32.282 3.33337 32.503V35.8363C3.33337 36.0573 3.42117 36.2693 3.57745 36.4256C3.73373 36.5819 3.94569 36.6697 4.1667 36.6697H5.44847C5.15519 37.1763 5.00052 37.7513 5.00004 38.3368C4.99955 38.9222 5.15325 39.4974 5.44569 40.0046C5.73813 40.5118 6.15898 40.933 6.6659 41.2258C7.17282 41.5187 7.74793 41.6729 8.33337 41.6729C8.9188 41.6729 9.49391 41.5187 10.0008 41.2258C10.5078 40.933 10.9286 40.5118 11.221 40.0046C11.5135 39.4974 11.6672 38.9222 11.6667 38.3368C11.6662 37.7513 11.5115 37.1763 11.2183 36.6697H28.7818C28.4885 37.1763 28.3338 37.7513 28.3334 38.3368C28.3329 38.9222 28.4866 39.4974 28.779 40.0046C29.0714 40.5118 29.4923 40.933 29.9992 41.2258C30.5061 41.5187 31.0812 41.6729 31.6667 41.6729C32.2521 41.6729 32.8272 41.5187 33.3341 41.2258C33.8411 40.933 34.2619 40.5118 34.5544 40.0046C34.8468 39.4974 35.0005 38.9222 35 38.3368C34.9995 37.7513 34.8449 37.1763 34.5516 36.6697H35.8333C36.0544 36.6697 36.2663 36.5819 36.4226 36.4256C36.5789 36.2693 36.6667 36.0573 36.6667 35.8363V33.2308C37.3692 33.0496 37.9934 32.6442 38.4446 32.0761C38.8958 31.5079 39.1493 30.8081 39.1667 30.0828C39.184 29.3575 38.9642 28.6463 38.5407 28.0572C38.1172 27.4682 37.5131 27.0334 36.82 26.8188L39.9839 10.9998L41.25 4.66687C41.6296 4.88744 42.061 5.00343 42.5 5.00301H47.5C48.163 5.00301 48.7989 4.73962 49.2678 4.27078C49.7366 3.80194 50 3.16606 50 2.50302C50 1.83998 49.7366 1.20409 49.2678 0.735251C48.7989 0.26641 48.163 0.00301798 47.5 0.00301798ZM10 38.3363C10 38.666 9.90228 38.9882 9.71915 39.2623C9.53601 39.5364 9.27571 39.75 8.97117 39.8761C8.66663 40.0023 8.33152 40.0353 8.00821 39.971C7.68491 39.9067 7.38794 39.7479 7.15486 39.5148C6.92177 39.2817 6.76303 38.9848 6.69872 38.6615C6.63442 38.3382 6.66742 38.0031 6.79357 37.6985C6.91971 37.394 7.13333 37.1337 7.40742 36.9505C7.6815 36.7674 8.00373 36.6697 8.33337 36.6697C8.77523 36.6702 9.19885 36.8459 9.5113 37.1584C9.82374 37.4708 9.99951 37.8945 10 38.3363ZM33.3333 38.3363C33.3333 38.666 33.2356 38.9882 33.0525 39.2623C32.8693 39.5364 32.609 39.75 32.3045 39.8761C31.9999 40.0023 31.6648 40.0353 31.3415 39.971C31.0182 39.9067 30.7213 39.7479 30.4882 39.5148C30.2551 39.2817 30.0963 38.9848 30.032 38.6615C29.9677 38.3382 30.0007 38.0031 30.1269 37.6985C30.253 37.394 30.4667 37.1337 30.7407 36.9505C31.0148 36.7674 31.337 36.6697 31.6667 36.6697C32.1085 36.6702 32.5322 36.8459 32.8446 37.1584C33.1571 37.4708 33.3328 37.8945 33.3333 38.3363ZM35 35.003H5.00003V33.3363H35V35.003ZM31.5324 11.6697L30.5324 18.3363H24.6262L24.8836 13.1881C25.3996 12.745 25.8533 12.2342 26.2326 11.6697H31.5324ZM17.1262 20.003H22.8741L22.5408 26.6697H17.4594L17.1262 20.003ZM15.7908 26.6697H10.7178L9.71784 20.003H15.4574L15.7908 26.6697ZM17.0428 18.3363L16.8412 14.3029C17.8304 14.764 18.9087 15.003 20.0001 15.003C21.0916 15.003 22.1698 14.764 23.1591 14.3029L22.9573 18.3363H17.0428ZM24.5428 20.003H30.2824L29.2824 26.6697H24.2095L24.5428 20.003ZM20 1.66968C21.1537 1.66968 22.2816 2.0118 23.2408 2.65278C24.2001 3.29375 24.9478 4.20479 25.3893 5.27069C25.8308 6.3366 25.9463 7.50948 25.7213 8.64104C25.4962 9.77259 24.9406 10.812 24.1248 11.6278C23.309 12.4436 22.2696 12.9992 21.1381 13.2243C20.0065 13.4493 18.8336 13.3338 17.7677 12.8923C16.7018 12.4508 15.7908 11.7031 15.1498 10.7438C14.5088 9.78455 14.1667 8.65674 14.1667 7.50301C14.1684 5.95645 14.7836 4.47373 15.8772 3.38014C16.9707 2.28656 18.4535 1.67142 20 1.66968ZM15.1166 13.1881L15.374 18.3363H9.46774L8.46774 11.6697H13.7675C14.1468 12.2342 14.6006 12.745 15.1166 13.1881ZM6.78243 11.6697L7.78243 18.3363H3.18326L1.84993 11.6697H6.78243ZM3.5166 20.003H8.03243L9.03243 26.6697H4.84993L3.5166 20.003ZM35.1501 26.6697H30.9676L31.9676 20.003H36.4834L35.1501 26.6697ZM36.8168 18.3363H32.2176L33.2176 11.6697H38.1501L36.8168 18.3363ZM47.5 3.33635H42.5C42.279 3.33635 42.067 3.24855 41.9108 3.09227C41.7545 2.93599 41.6667 2.72403 41.6667 2.50302C41.6667 2.282 41.7545 2.07004 41.9108 1.91376C42.067 1.75748 42.279 1.66968 42.5 1.66968H47.5C47.721 1.66968 47.933 1.75748 48.0893 1.91376C48.2455 2.07004 48.3333 2.282 48.3333 2.50302C48.3333 2.72403 48.2455 2.93599 48.0893 3.09227C47.933 3.24855 47.721 3.33635 47.5 3.33635Z" fill="black"/>
<mask id="mask0" mask-type="alpha" maskUnits="userSpaceOnUse" x="0" y="0" width="50" height="42">
<path d="M47.5 0.00301798H42.5C41.8536 0.0038218 41.2327 0.25468 40.7671 0.703057C40.3015 1.15143 40.0275 1.76255 40.0024 2.40843L38.4834 10.003H27.07C27.4705 8.87169 27.5937 7.66078 27.4292 6.47198C27.2647 5.28319 26.8174 4.15122 26.1247 3.17118C25.432 2.19113 24.5142 1.39163 23.4485 0.839813C22.3827 0.288001 21.2001 0 20 0C18.7999 0 17.6173 0.288001 16.5516 0.839813C15.4858 1.39163 14.5681 2.19113 13.8754 3.17118C13.1827 4.15122 12.7353 5.28319 12.5708 6.47198C12.4063 7.66078 12.5295 8.87169 12.93 10.003H0.833371C0.710074 10.003 0.588312 10.0304 0.476864 10.0831C0.365417 10.1358 0.267062 10.2127 0.188891 10.308C0.11072 10.4034 0.0546817 10.5149 0.0248162 10.6345C-0.00504928 10.7541 -0.00799737 10.8789 0.0161843 10.9998L3.34952 27.6664C3.3873 27.8553 3.48937 28.0253 3.63836 28.1475C3.78735 28.2696 3.97405 28.3363 4.1667 28.3363H35.8333C36.2754 28.3363 36.6993 28.5119 37.0119 28.8245C37.3244 29.137 37.5 29.561 37.5 30.003C37.5 30.445 37.3244 30.8689 37.0119 31.1815C36.6993 31.4941 36.2754 31.6697 35.8333 31.6697H4.1667C3.94569 31.6697 3.73373 31.7575 3.57745 31.9137C3.42117 32.07 3.33337 32.282 3.33337 32.503V35.8363C3.33337 36.0573 3.42117 36.2693 3.57745 36.4256C3.73373 36.5819 3.94569 36.6697 4.1667 36.6697H5.44847C5.15519 37.1763 5.00052 37.7513 5.00004 38.3368C4.99955 38.9222 5.15325 39.4974 5.44569 40.0046C5.73813 40.5118 6.15898 40.933 6.6659 41.2258C7.17282 41.5187 7.74793 41.6729 8.33337 41.6729C8.9188 41.6729 9.49391 41.5187 10.0008 41.2258C10.5078 40.933 10.9286 40.5118 11.221 40.0046C11.5135 39.4974 11.6672 38.9222 11.6667 38.3368C11.6662 37.7513 11.5115 37.1763 11.2183 36.6697H28.7818C28.4885 37.1763 28.3338 37.7513 28.3334 38.3368C28.3329 38.9222 28.4866 39.4974 28.779 40.0046C29.0714 40.5118 29.4923 40.933 29.9992 41.2258C30.5061 41.5187 31.0812 41.6729 31.6667 41.6729C32.2521 41.6729 32.8272 41.5187 33.3341 41.2258C33.8411 40.933 34.2619 40.5118 34.5544 40.0046C34.8468 39.4974 35.0005 38.9222 35 38.3368C34.9995 37.7513 34.8449 37.1763 34.5516 36.6697H35.8333C36.0544 36.6697 36.2663 36.5819 36.4226 36.4256C36.5789 36.2693 36.6667 36.0573 36.6667 35.8363V33.2308C37.3692 33.0496 37.9934 32.6442 38.4446 32.0761C38.8958 31.5079 39.1493 30.8081 39.1667 30.0828C39.184 29.3575 38.9642 28.6463 38.5407 28.0572C38.1172 27.4682 37.5131 27.0334 36.82 26.8188L39.9839 10.9998L41.25 4.66687C41.6296 4.88744 42.061 5.00343 42.5 5.00301H47.5C48.163 5.00301 48.7989 4.73962 49.2678 4.27078C49.7366 3.80194 50 3.16606 50 2.50302C50 1.83998 49.7366 1.20409 49.2678 0.735251C48.7989 0.26641 48.163 0.00301798 47.5 0.00301798ZM10 38.3363C10 38.666 9.90228 38.9882 9.71915 39.2623C9.53601 39.5364 9.27571 39.75 8.97117 39.8761C8.66663 40.0023 8.33152 40.0353 8.00821 39.971C7.68491 39.9067 7.38794 39.7479 7.15486 39.5148C6.92177 39.2817 6.76303 38.9848 6.69872 38.6615C6.63442 38.3382 6.66742 38.0031 6.79357 37.6985C6.91971 37.394 7.13333 37.1337 7.40742 36.9505C7.6815 36.7674 8.00373 36.6697 8.33337 36.6697C8.77523 36.6702 9.19885 36.8459 9.5113 37.1584C9.82374 37.4708 9.99951 37.8945 10 38.3363ZM33.3333 38.3363C33.3333 38.666 33.2356 38.9882 33.0525 39.2623C32.8693 39.5364 32.609 39.75 32.3045 39.8761C31.9999 40.0023 31.6648 40.0353 31.3415 39.971C31.0182 39.9067 30.7213 39.7479 30.4882 39.5148C30.2551 39.2817 30.0963 38.9848 30.032 38.6615C29.9677 38.3382 30.0007 38.0031 30.1269 37.6985C30.253 37.394 30.4667 37.1337 30.7407 36.9505C31.0148 36.7674 31.337 36.6697 31.6667 36.6697C32.1085 36.6702 32.5322 36.8459 32.8446 37.1584C33.1571 37.4708 33.3328 37.8945 33.3333 38.3363ZM35 35.003H5.00003V33.3363H35V35.003ZM31.5324 11.6697L30.5324 18.3363H24.6262L24.8836 13.1881C25.3996 12.745 25.8533 12.2342 26.2326 11.6697H31.5324ZM17.1262 20.003H22.8741L22.5408 26.6697H17.4594L17.1262 20.003ZM15.7908 26.6697H10.7178L9.71784 20.003H15.4574L15.7908 26.6697ZM17.0428 18.3363L16.8412 14.3029C17.8304 14.764 18.9087 15.003 20.0001 15.003C21.0916 15.003 22.1698 14.764 23.1591 14.3029L22.9573 18.3363H17.0428ZM24.5428 20.003H30.2824L29.2824 26.6697H24.2095L24.5428 20.003ZM20 1.66968C21.1537 1.66968 22.2816 2.0118 23.2408 2.65278C24.2001 3.29375 24.9478 4.20479 25.3893 5.27069C25.8308 6.3366 25.9463 7.50948 25.7213 8.64104C25.4962 9.77259 24.9406 10.812 24.1248 11.6278C23.309 12.4436 22.2696 12.9992 21.1381 13.2243C20.0065 13.4493 18.8336 13.3338 17.7677 12.8923C16.7018 12.4508 15.7908 11.7031 15.1498 10.7438C14.5088 9.78455 14.1667 8.65674 14.1667 7.50301C14.1684 5.95645 14.7836 4.47373 15.8772 3.38014C16.9707 2.28656 18.4535 1.67142 20 1.66968ZM15.1166 13.1881L15.374 18.3363H9.46774L8.46774 11.6697H13.7675C14.1468 12.2342 14.6006 12.745 15.1166 13.1881ZM6.78243 11.6697L7.78243 18.3363H3.18326L1.84993 11.6697H6.78243ZM3.5166 20.003H8.03243L9.03243 26.6697H4.84993L3.5166 20.003ZM35.1501 26.6697H30.9676L31.9676 20.003H36.4834L35.1501 26.6697ZM36.8168 18.3363H32.2176L33.2176 11.6697H38.1501L36.8168 18.3363ZM47.5 3.33635H42.5C42.279 3.33635 42.067 3.24855 41.9108 3.09227C41.7545 2.93599 41.6667 2.72403 41.6667 2.50302C41.6667 2.282 41.7545 2.07004 41.9108 1.91376C42.067 1.75748 42.279 1.66968 42.5 1.66968H47.5C47.721 1.66968 47.933 1.75748 48.0893 1.91376C48.2455 2.07004 48.3333 2.282 48.3333 2.50302C48.3333 2.72403 48.2455 2.93599 48.0893 3.09227C47.933 3.24855 47.721 3.33635 47.5 3.33635Z" fill="black"/>
</mask>
<g mask="url(#mask0)">
<circle cx="20.5" cy="7.5" r="7.5" fill="#CB4335"/>
</g>
<path d="M17.8482 10.5922C17.9256 10.6696 18.0175 10.731 18.1186 10.7728C18.2197 10.8147 18.3281 10.8363 18.4375 10.8363C18.45 10.8363 18.4626 10.8363 18.4752 10.8354C18.5909 10.8302 18.7043 10.8009 18.808 10.7494C18.9117 10.6979 19.0036 10.6253 19.0777 10.5364L23.2444 5.53637C23.3844 5.36641 23.4514 5.14794 23.4309 4.92871C23.4103 4.70947 23.3038 4.50729 23.1346 4.36633C22.9654 4.22538 22.7474 4.15711 22.528 4.17644C22.3087 4.19577 22.1059 4.30113 21.964 4.4695L18.3816 8.76834L17.3601 7.74699C17.2038 7.59071 16.9919 7.50291 16.7709 7.50291C16.5498 7.50291 16.3379 7.59071 16.1816 7.74699C16.0253 7.90328 15.9375 8.11524 15.9375 8.33626C15.9375 8.55728 16.0253 8.76925 16.1816 8.92553L17.8482 10.5922Z" fill="#CB4335"/>
</svg>
