<svg width="50" height="51" viewBox="0 0 50 51" fill="none" xmlns="http://www.w3.org/2000/svg">
<path d="M33.3939 32.5662C32.2092 32.5662 31.2454 31.732 31.2454 30.7068C31.2454 29.6814 32.2092 28.8472 33.3939 28.8472C34.5785 28.8472 35.5423 29.6814 35.5423 30.7068C35.5423 31.246 35.9796 31.6833 36.5189 31.6833C37.0581 31.6833 37.4954 31.246 37.4954 30.7068C37.4954 28.9172 36.162 27.4125 34.3704 27.0041V26.4962C34.3704 25.957 33.9331 25.5197 33.3939 25.5197C32.8546 25.5197 32.4173 25.957 32.4173 26.4962V27.0041C30.6257 27.4125 29.2923 28.9172 29.2923 30.7068C29.2923 32.809 31.1323 34.5193 33.3939 34.5193C34.5785 34.5193 35.5423 35.3535 35.5423 36.3789C35.5423 37.4043 34.5785 38.2385 33.3939 38.2385C32.2092 38.2385 31.2454 37.4043 31.2454 36.3789C31.2454 35.8397 30.8081 35.4023 30.2689 35.4023C29.7296 35.4023 29.2923 35.8397 29.2923 36.3789C29.2923 38.1685 30.6257 39.6731 32.4173 40.0815V40.5034C32.4173 41.0427 32.8546 41.48 33.3939 41.48C33.9331 41.48 34.3704 41.0427 34.3704 40.5034V40.0815C36.162 39.6731 37.4954 38.1685 37.4954 36.3789C37.4954 34.2766 35.6555 32.5662 33.3939 32.5662Z" fill="#CB4335"/>
<path d="M44.09 26.7573C42.8143 24.7695 41.017 23.1789 38.8925 22.1576C38.4063 21.9238 37.8228 22.1285 37.5892 22.6146C37.3555 23.1008 37.5601 23.6842 38.0462 23.9179C41.7485 25.6976 44.1405 29.5002 44.1405 33.6055C44.1405 35.3621 43.7075 37.1042 42.8885 38.6436C42.6352 39.1197 42.8157 39.7111 43.2919 39.9644C43.438 40.0422 43.595 40.0791 43.7497 40.0791C44.0991 40.0791 44.4371 39.891 44.6127 39.561C45.5816 37.7403 46.0937 35.6808 46.0937 33.6055C46.0937 31.168 45.4008 28.7999 44.09 26.7573Z" fill="#CB4335"/>
<path d="M34.9289 20.9104L34.8632 20.9103C34.324 20.9103 33.8867 21.3475 33.8867 21.8868C33.8867 22.4262 34.324 22.8634 34.8632 22.8634L34.9198 22.8635C34.9213 22.8635 34.9228 22.8635 34.9245 22.8635C35.4617 22.8635 35.8984 22.4293 35.9009 21.8915C35.9034 21.3522 35.4682 20.9129 34.9289 20.9104Z" fill="#CB4335"/>
<path d="M28.7506 43.2931C25.0485 41.5134 22.6564 37.7107 22.6564 33.6056C22.6564 31.8489 23.0894 30.1068 23.9084 28.5674C24.1618 28.0913 23.9812 27.4999 23.505 27.2466C23.0291 26.9933 22.4375 27.1738 22.1842 27.65C21.2154 29.4708 20.7033 31.5302 20.7033 33.6056C20.7033 36.0431 21.3961 38.411 22.707 40.4537C23.9827 42.4415 25.7799 44.0321 27.9044 45.0535C28.0409 45.1191 28.185 45.1501 28.3269 45.1501C28.6906 45.1501 29.0396 44.9461 29.2078 44.5965C29.4413 44.1103 29.2368 43.5268 28.7506 43.2931Z" fill="#CB4335"/>
<path d="M31.9337 44.3476L31.8772 44.3474C31.3354 44.3464 30.8987 44.7799 30.8962 45.3194C30.8937 45.8588 31.329 46.298 31.8683 46.3006L31.9337 46.3007C32.473 46.3007 32.9103 45.8634 32.9103 45.3242C32.9103 44.7849 32.473 44.3476 31.9337 44.3476Z" fill="#CB4335"/>
<path d="M37.8328 17.6062C37.714 17.323 37.5684 17.0561 37.399 16.8086H39.9413C42.4183 16.8086 44.4335 14.7933 44.4335 12.3164C44.4335 9.83944 42.4183 7.82421 39.9413 7.82421H32.121C32.6182 7.10136 32.9101 6.22685 32.9101 5.28515C32.9101 2.8082 30.8949 0.792969 28.4179 0.792969H4.49218C2.01523 0.792969 0 2.8082 0 5.28515C0 7.7621 2.01523 9.77733 4.49218 9.77733H12.3125C11.8153 10.5002 11.5234 11.3747 11.5234 12.3164C11.5234 13.2581 11.8152 14.1326 12.3125 14.8554H9.76561C7.28866 14.8554 5.27343 16.8707 5.27343 19.3476C5.27343 20.7702 5.93886 22.0396 6.97411 22.8632C5.93886 23.6869 5.27343 24.9563 5.27343 26.3789C5.27343 27.8014 5.93886 29.0708 6.97411 29.8945C5.93886 30.7181 5.27343 31.9875 5.27343 33.4101C5.27343 34.8326 5.93886 36.1021 6.97411 36.9257C5.93886 37.7493 5.27343 39.0188 5.27343 40.4413C5.27343 42.9183 7.28866 44.9335 9.76561 44.9335H21.2744C24.3062 48.1764 28.6193 50.207 33.3985 50.207C42.5526 50.207 50 42.7596 50 33.6055C50 25.9867 44.8408 19.551 37.8328 17.6062ZM39.9413 9.77733C41.3414 9.77733 42.4804 10.9164 42.4804 12.3164C42.4804 13.7164 41.3414 14.8554 39.9413 14.8554H33.6913H16.0156C14.6155 14.8554 13.4765 13.7164 13.4765 12.3164C13.4765 10.9164 14.6155 9.77733 16.0156 9.77733H39.9413ZM4.49218 7.82421C3.09208 7.82421 1.95312 6.68514 1.95312 5.28515C1.95312 3.88515 3.09208 2.74609 4.49218 2.74609H28.4179C29.818 2.74609 30.957 3.88515 30.957 5.28515C30.957 6.68514 29.818 7.82421 28.4179 7.82421H4.49218ZM9.76561 16.8086H33.6913C34.0847 16.8086 34.4614 16.9 34.7993 17.0636C34.3373 17.0249 33.8703 17.004 33.3985 17.004C28.814 17.004 24.6578 18.872 21.6505 21.8867H9.76561C8.36561 21.8867 7.22655 20.7476 7.22655 19.3476C7.22655 17.9476 8.36561 16.8086 9.76561 16.8086ZM9.76561 23.8398H19.9819C18.8733 25.3586 18.0162 27.0717 17.4718 28.9179H9.76561C8.36551 28.9179 7.22655 27.779 7.22655 26.3789C7.22655 24.9789 8.36551 23.8398 9.76561 23.8398ZM9.76561 30.871H17.0234C16.8753 31.761 16.7969 32.6742 16.7969 33.6055C16.7969 34.401 16.8545 35.1832 16.9632 35.9492H9.76561C8.36551 35.9492 7.22655 34.8102 7.22655 33.4101C7.22655 32.01 8.36551 30.871 9.76561 30.871ZM9.76561 42.9804C8.36551 42.9804 7.22655 41.8414 7.22655 40.4413C7.22655 39.0412 8.36551 37.9023 9.76561 37.9023H17.3619C17.8547 39.7395 18.6551 41.4517 19.7049 42.9804H9.76561ZM33.3985 48.2539C25.3213 48.2539 18.7501 41.6826 18.7501 33.6055C18.7501 25.5284 25.3213 18.9571 33.3985 18.9571C41.4756 18.9571 48.0469 25.5284 48.0469 33.6055C48.0469 41.6826 41.4756 48.2539 33.3985 48.2539Z" fill="#CB4335"/>
</svg>
