<svg width="40" height="53" viewBox="0 0 40 53" fill="none" xmlns="http://www.w3.org/2000/svg">
<path d="M20.8695 4.08699C21.3498 4.08699 21.739 3.69762 21.739 3.21746V1.47829C21.739 0.99803 21.3498 0.608765 20.8695 0.608765C20.3892 0.608765 20 0.998132 20 1.47829V3.21746C20 3.69772 20.3894 4.08699 20.8695 4.08699Z" fill="#CB4335"/>
<path d="M26.0869 4.95668C26.5672 4.95668 26.9564 4.56731 26.9564 4.08715V2.34798C26.9564 1.86772 26.5671 1.47845 26.0869 1.47845C25.6067 1.47845 25.2174 1.86782 25.2174 2.34798V4.08715C25.2174 4.56731 25.6068 4.95668 26.0869 4.95668Z" fill="#CB4335"/>
<path d="M15.6521 4.95668C16.1324 4.95668 16.5217 4.56731 16.5217 4.08715V2.34798C16.5217 1.86772 16.1323 1.47845 15.6521 1.47845C15.172 1.47845 14.7826 1.86782 14.7826 2.34798V4.08715C14.7826 4.56731 15.172 4.95668 15.6521 4.95668Z" fill="#CB4335"/>
<path d="M1.73916 43.0573V48.4347C1.74202 50.8347 3.68692 52.7796 6.08701 52.7826H35.6521C38.0521 52.7797 39.997 50.8348 40 48.4347V18.8696C39.9972 16.4696 38.0522 14.5247 35.6521 14.5217H31.8592C30.6544 9.42631 26.1051 5.82733 20.8691 5.82733C15.6332 5.82733 11.084 9.42631 9.87909 14.5217H6.08691C3.68692 14.5247 1.74202 16.4696 1.73916 18.8696V31.2035C0.700576 31.5706 0.00458559 32.5506 0 33.6522V40.6087C0.00458559 41.7102 0.700576 42.6902 1.73916 43.0573ZM38.2608 18.8696C38.2623 19.5619 37.9879 20.2262 37.4983 20.7157C37.0088 21.2053 36.3445 21.4797 35.6521 21.4783H31.3104C31.8812 20.0998 32.1746 18.6223 32.1739 17.1304C32.1739 16.8417 32.16 16.5513 32.1375 16.2609H35.6521C37.0928 16.2609 38.2608 17.4289 38.2608 18.8696ZM11.44 15.5348C12.0517 11.8061 14.8012 8.78697 18.4565 7.83001C22.1118 6.87305 25.988 8.15752 28.3483 11.1081C30.7087 14.0587 31.111 18.1222 29.3748 21.4783H26.0496L25.6331 18.9565C25.625 18.9055 25.6385 18.8535 25.6705 18.813L27.7149 16.7426C28.2177 16.2315 28.3904 15.4812 28.1618 14.8017C27.9506 14.1423 27.3858 13.6583 26.7019 13.5505L23.8688 13.127C23.8348 13.1191 23.8069 13.0951 23.794 13.0627L22.5087 10.3618C22.2156 9.7204 21.5752 9.30902 20.87 9.30902C20.1649 9.30902 19.5245 9.7204 19.2314 10.3618L17.9444 13.0696C17.9332 13.095 17.9136 13.1156 17.8888 13.1279L15.0323 13.5549C14.3502 13.6638 13.7876 14.1474 13.5775 14.8053C13.349 15.4851 13.5218 16.2356 14.0245 16.747L16.061 18.8079C16.0975 18.8494 16.1143 18.9045 16.107 18.9592L15.6896 21.481H12.3645C11.4172 19.6534 11.0926 17.5664 11.4401 15.5376L11.44 15.5348ZM17.3044 17.5887L15.2609 15.5199C15.2172 15.4733 15.2041 15.4057 15.227 15.346C15.2374 15.3138 15.2583 15.2739 15.2922 15.2687L18.1618 14.84C18.7532 14.7366 19.2573 14.3518 19.5131 13.8086L20.8 11.1042L20.8696 11.0434L22.2227 13.8034C22.4815 14.3536 22.9942 14.7414 23.594 14.8408L26.4401 15.266C26.4792 15.2721 26.5001 15.3121 26.5105 15.3443C26.5339 15.4039 26.5207 15.4716 26.4766 15.5182L24.4253 17.5965C24.0077 18.0331 23.8194 18.6403 23.9166 19.2365L24.2879 21.4783H17.4522L17.8236 19.2357C17.9189 18.6356 17.7267 18.0256 17.3044 17.5887ZM6.08701 16.2609H9.60182C9.5792 16.5513 9.56534 16.8417 9.56534 17.1304C9.56442 18.6225 9.8582 20.0999 10.4297 21.4783H6.08712C5.1432 21.4814 4.22659 21.795 3.47842 22.3704V18.8696C3.47832 17.4289 4.64622 16.2609 6.08701 16.2609ZM6.08701 23.2174H35.6521C36.5958 23.2123 37.5118 22.8991 38.2608 22.3253V48.4348C38.2608 49.8755 37.0928 51.0435 35.6521 51.0435H6.08701C4.64632 51.0435 3.47832 49.8755 3.47832 48.4348V43.2174H11.3044C14.6661 43.2174 17.3913 40.4921 17.3913 37.1305C17.3913 33.7689 14.666 31.0436 11.3044 31.0436H3.47832V25.8262C3.47832 24.3853 4.64622 23.2174 6.08701 23.2174ZM1.73916 33.6522C1.73916 33.1719 2.12853 32.7827 2.60869 32.7827H11.3043C13.7055 32.7827 15.6521 34.7293 15.6521 37.1305C15.6521 39.5317 13.7055 41.4784 11.3043 41.4784H2.60869C2.12843 41.4784 1.73916 41.0891 1.73916 40.6088V33.6522Z" fill="black"/>
<path d="M11.3044 39.7391C12.7452 39.7391 13.9131 38.5711 13.9131 37.1304C13.9131 35.6897 12.7451 34.5217 11.3044 34.5217C9.86368 34.5217 8.69568 35.6897 8.69568 37.1304C8.69568 38.5711 9.86358 39.7391 11.3044 39.7391ZM11.3044 36.2609C11.7846 36.2609 12.1739 36.6502 12.1739 37.1304C12.1739 37.6107 11.7845 38 11.3044 38C10.8241 38 10.4348 37.6107 10.4348 37.1304C10.4348 36.6502 10.8241 36.2609 11.3044 36.2609Z" fill="black"/>
<mask id="mask0" mask-type="alpha" maskUnits="userSpaceOnUse" x="0" y="5" width="40" height="48">
<path d="M1.73916 43.0573V48.4347C1.74202 50.8347 3.68692 52.7796 6.08701 52.7826H35.6521C38.0521 52.7797 39.997 50.8348 40 48.4347V18.8696C39.9972 16.4696 38.0522 14.5247 35.6521 14.5217H31.8592C30.6544 9.42631 26.1051 5.82733 20.8691 5.82733C15.6332 5.82733 11.084 9.42631 9.87909 14.5217H6.08691C3.68692 14.5247 1.74202 16.4696 1.73916 18.8696V31.2035C0.700576 31.5706 0.00458559 32.5506 0 33.6522V40.6087C0.00458559 41.7102 0.700576 42.6902 1.73916 43.0573ZM38.2608 18.8696C38.2623 19.5619 37.9879 20.2262 37.4983 20.7157C37.0088 21.2053 36.3445 21.4797 35.6521 21.4783H31.3104C31.8812 20.0998 32.1746 18.6223 32.1739 17.1304C32.1739 16.8417 32.16 16.5513 32.1375 16.2609H35.6521C37.0928 16.2609 38.2608 17.4289 38.2608 18.8696ZM11.44 15.5348C12.0517 11.8061 14.8012 8.78697 18.4565 7.83001C22.1118 6.87305 25.988 8.15752 28.3483 11.1081C30.7087 14.0587 31.111 18.1222 29.3748 21.4783H26.0496L25.6331 18.9565C25.625 18.9055 25.6385 18.8535 25.6705 18.813L27.7149 16.7426C28.2177 16.2315 28.3904 15.4812 28.1618 14.8017C27.9506 14.1423 27.3858 13.6583 26.7019 13.5505L23.8688 13.127C23.8348 13.1191 23.8069 13.0951 23.794 13.0627L22.5087 10.3618C22.2156 9.7204 21.5752 9.30902 20.87 9.30902C20.1649 9.30902 19.5245 9.7204 19.2314 10.3618L17.9444 13.0696C17.9332 13.095 17.9136 13.1156 17.8888 13.1279L15.0323 13.5549C14.3502 13.6638 13.7876 14.1474 13.5775 14.8053C13.349 15.4851 13.5218 16.2356 14.0245 16.747L16.061 18.8079C16.0975 18.8494 16.1143 18.9045 16.107 18.9592L15.6896 21.481H12.3645C11.4172 19.6534 11.0926 17.5664 11.4401 15.5376L11.44 15.5348ZM17.3044 17.5887L15.2609 15.5199C15.2172 15.4733 15.2041 15.4057 15.227 15.346C15.2374 15.3138 15.2583 15.2739 15.2922 15.2687L18.1618 14.84C18.7532 14.7366 19.2573 14.3518 19.5131 13.8086L20.8 11.1042L20.8696 11.0434L22.2227 13.8034C22.4815 14.3536 22.9942 14.7414 23.594 14.8408L26.4401 15.266C26.4792 15.2721 26.5001 15.3121 26.5105 15.3443C26.5339 15.4039 26.5207 15.4716 26.4766 15.5182L24.4253 17.5965C24.0077 18.0331 23.8194 18.6403 23.9166 19.2365L24.2879 21.4783H17.4522L17.8236 19.2357C17.9189 18.6356 17.7267 18.0256 17.3044 17.5887ZM6.08701 16.2609H9.60182C9.5792 16.5513 9.56534 16.8417 9.56534 17.1304C9.56442 18.6225 9.8582 20.0999 10.4297 21.4783H6.08712C5.1432 21.4814 4.22659 21.795 3.47842 22.3704V18.8696C3.47832 17.4289 4.64622 16.2609 6.08701 16.2609ZM6.08701 23.2174H35.6521C36.5958 23.2123 37.5118 22.8991 38.2608 22.3253V48.4348C38.2608 49.8755 37.0928 51.0435 35.6521 51.0435H6.08701C4.64632 51.0435 3.47832 49.8755 3.47832 48.4348V43.2174H11.3044C14.6661 43.2174 17.3913 40.4921 17.3913 37.1305C17.3913 33.7689 14.666 31.0436 11.3044 31.0436H3.47832V25.8262C3.47832 24.3853 4.64622 23.2174 6.08701 23.2174ZM1.73916 33.6522C1.73916 33.1719 2.12853 32.7827 2.60869 32.7827H11.3043C13.7055 32.7827 15.6521 34.7293 15.6521 37.1305C15.6521 39.5317 13.7055 41.4784 11.3043 41.4784H2.60869C2.12843 41.4784 1.73916 41.0891 1.73916 40.6088V33.6522Z" fill="black"/>
</mask>
<g mask="url(#mask0)">
<path d="M20.8695 5.82611C14.5303 5.82611 9.39128 10.9651 9.39128 17.3044C9.39128 18.9036 9.71835 20.2937 10.3092 21.4783H31.4298C32.0207 20.2937 32.3478 18.9036 32.3478 17.3044C32.3478 10.9651 27.2088 5.82611 20.8695 5.82611Z" fill="#CB4335"/>
</g>
</svg>
