<svg width="50" height="50" viewBox="0 0 50 50" fill="none" xmlns="http://www.w3.org/2000/svg">
<path d="M10.8333 20.8333C8.53231 20.8333 6.66667 22.699 6.66667 25C6.66667 27.301 8.53231 29.1666 10.8333 29.1666C13.1344 29.1666 15 27.301 15 25C14.9972 22.6998 13.1335 20.8362 10.8333 20.8333ZM10.8333 27.5C9.45272 27.5 8.33333 26.3806 8.33333 25C8.33333 23.6194 9.45272 22.5 10.8333 22.5C12.214 22.5 13.3333 23.6194 13.3333 25C13.3333 26.3806 12.214 27.5 10.8333 27.5Z" fill="#CB4335"/>
<path d="M27.5 11.6666C29.801 11.6666 31.6667 9.80101 31.6667 7.49998C31.6667 5.19895 29.801 3.33331 27.5 3.33331C25.199 3.33331 23.3333 5.19895 23.3333 7.49998C23.3362 9.80019 25.1998 11.6638 27.5 11.6666ZM27.5 4.99998C28.8806 4.99998 30 6.11936 30 7.49998C30 8.8806 28.8806 9.99998 27.5 9.99998C26.1194 9.99998 25 8.8806 25 7.49998C25 6.11936 26.1194 4.99998 27.5 4.99998Z" fill="#CB4335"/>
<path d="M47.5 25.3532V22.5C47.4935 20.4061 45.931 18.6438 43.8534 18.3858L34.9548 8.3077C34.9841 8.03914 34.9992 7.76978 35 7.5C35 3.35775 31.6423 0 27.5 0C23.3577 0 20 3.35775 20 7.5C20 7.63265 20.0134 7.76164 20.0199 7.89185L10.389 17.5224C7.36816 17.6945 4.74854 19.6696 3.75122 22.5264C2.75391 25.3833 3.57585 28.5596 5.83333 30.5741V43.3333H0.833333C0.373128 43.3333 0 43.7065 0 44.1667V49.1667C0 49.6269 0.373128 50 0.833333 50H32.5C32.9602 50 33.3333 49.6269 33.3333 49.1667V44.1667C33.3333 43.7065 32.9602 43.3333 32.5 43.3333H15.8333V30.5741C17.7462 28.8904 18.6532 26.3375 18.2316 23.8241L27.0752 14.9784C27.2168 14.9866 27.3568 15 27.5 15C27.924 14.9976 28.3468 14.9589 28.7642 14.8848L39.1667 23.0835V25.3548C37.6506 26.0168 36.6695 27.5126 36.6667 29.1667V37.5C36.665 37.7897 36.814 38.0591 37.0597 38.2121C37.3059 38.3651 37.6135 38.3793 37.8723 38.2499L41.2056 36.5833C41.4897 36.4417 41.6683 36.1507 41.6667 35.8333V30H45V35.8333C44.9984 36.1507 45.177 36.4417 45.461 36.5833L48.7943 38.2499C49.0531 38.3793 49.3608 38.3651 49.6069 38.2121C49.8527 38.0591 50.0016 37.7897 50 37.5V29.1667C49.998 27.5118 49.0165 26.0152 47.5 25.3532ZM27.5 1.66667C30.7218 1.66667 33.3333 4.27816 33.3333 7.5C33.3333 10.7218 30.7218 13.3333 27.5 13.3333C24.2782 13.3333 21.6667 10.7218 21.6667 7.5C21.6703 4.27979 24.2798 1.67033 27.5 1.66667ZM31.6667 48.3333H1.66667V45H31.6667V48.3333ZM14.1667 43.3333H7.5V31.7082C9.59717 32.7633 12.0695 32.7633 14.1667 31.7082V43.3333ZM10.8333 30.8333C7.61149 30.8333 5 28.2218 5 25C5 21.7782 7.61149 19.1667 10.8333 19.1667C14.0552 19.1667 16.6667 21.7782 16.6667 25C16.663 28.2202 14.0535 30.8297 10.8333 30.8333ZM17.701 21.9999C16.7525 19.8454 14.8499 18.2589 12.5598 17.7124L20.3935 9.87915C21.1414 12.1 22.8809 13.8456 25.0993 14.6008L17.701 21.9999ZM34.4641 10.2694L41.8392 18.6226C40.697 19.067 39.8083 19.9919 39.41 21.1507L30.6885 14.2782C32.4076 13.4664 33.7565 12.0341 34.4641 10.2694ZM40.8333 22.5C40.8333 21.1194 41.9527 20 43.3333 20C44.7139 20 45.8333 21.1194 45.8333 22.5V25H40.8333V22.5ZM48.3333 36.1515L46.6667 35.3182V29.1667C46.6667 28.7065 46.2935 28.3333 45.8333 28.3333H40.8333C40.3731 28.3333 40 28.7065 40 29.1667V35.3182L38.3333 36.1515V29.1667C38.3333 27.7861 39.4527 26.6667 40.8333 26.6667H45.8333C47.2139 26.6667 48.3333 27.7861 48.3333 29.1667V36.1515Z" fill="black"/>
<path d="M10 35C9.5398 35 9.16667 35.3731 9.16667 35.8333V40.8333C9.16667 41.2935 9.5398 41.6667 10 41.6667C10.4602 41.6667 10.8333 41.2935 10.8333 40.8333V35.8333C10.8333 35.3731 10.4602 35 10 35Z" fill="#CB4335"/>
<path d="M19.4108 13.5775L16.0775 16.9108C15.861 17.1199 15.7739 17.43 15.8504 17.7213C15.9265 18.0127 16.154 18.2401 16.4453 18.3162C16.7367 18.3927 17.0467 18.3057 17.2559 18.0892L20.5892 14.7559C20.9049 14.4287 20.9005 13.9091 20.579 13.5876C20.2576 13.2662 19.738 13.2617 19.4108 13.5775Z" fill="#CB4335"/>
</svg>
