<svg width="50" height="48" viewBox="0 0 50 48" fill="none" xmlns="http://www.w3.org/2000/svg">
<path d="M38.3118 7.09652C38.3335 7.0981 38.3553 7.09968 38.3774 7.09968C38.415 7.09968 38.4526 7.09652 38.4894 7.09138C39.4739 7.11155 40.2618 7.91451 40.263 8.89902C40.263 9.34638 40.6257 9.7091 41.0731 9.7091C41.5204 9.7091 41.8831 9.34638 41.8831 8.89902C41.8812 7.28875 40.7602 5.89564 39.1875 5.54914V4.77071C39.1875 4.32335 38.8248 3.96063 38.3774 3.96063C37.9301 3.96063 37.5673 4.32335 37.5673 4.77071V5.58593C35.9045 6.03052 34.8286 7.63921 35.0529 9.34598C35.2771 11.0528 36.7319 12.3288 38.4534 12.3288C39.4529 12.3288 40.263 13.1393 40.263 14.1388C40.263 15.138 39.4529 15.9484 38.4534 15.9484C37.4538 15.9484 36.6437 15.138 36.6437 14.1388C36.6437 13.6914 36.281 13.3287 35.8337 13.3287C35.3863 13.3287 35.0236 13.6914 35.0236 14.1388C35.0256 15.6909 36.0682 17.0488 37.5673 17.4519V18.3395C37.5673 18.7869 37.9301 19.1496 38.3774 19.1496C38.8248 19.1496 39.1875 18.7869 39.1875 18.3395V17.4891C40.8982 17.1145 42.052 15.511 41.8634 13.7698C41.6751 12.0286 40.2048 10.709 38.4534 10.7094C37.4815 10.7098 36.6829 9.94247 36.6445 8.9714C36.6066 8.00034 37.3427 7.17246 38.3118 7.09691V7.09652Z" fill="#CB4335"/>
<path d="M38.4997 0C33.5162 0 29.2633 3.25178 27.67 7.60595H7.56402C7.11864 7.60595 6.75711 8.00742 6.75394 8.45241L6.5625 36.87H0.831437C0.384075 36.87 0 37.1939 0 37.6421V41.2483C0.0102841 44.6432 2.68417 47.4322 6.07558 47.5857V47.6035H31.0867V47.5798C31.2893 47.5873 31.3727 47.6035 31.5009 47.6035H31.5183C35.0284 47.598 37.8711 44.7508 37.8711 41.2408V23.0077C38.0737 23.0188 38.288 23.0247 38.4977 23.0247C44.8395 23.0247 50.0002 17.8541 50.0002 11.512C50.0002 5.17018 44.8418 0 38.4997 0ZM6.38371 45.9834H6.37857C3.75808 45.9798 1.63202 43.8609 1.62016 41.24V38.4901H25.1124V41.2285C25.1136 42.9191 25.7888 44.5396 26.9881 45.7314C27.0731 45.8164 27.1787 45.8821 27.2677 45.9834H6.38371ZM36.251 41.24C36.2514 43.8561 34.1332 45.9782 31.5175 45.9834H31.5021C28.8756 45.9786 26.7456 43.8553 26.7326 41.2293V37.6421C26.7393 37.4348 26.6602 37.2343 26.5134 37.0879C26.3667 36.9416 26.1661 36.8629 25.9593 36.87H8.18266L8.36856 9.2261H27.2203C27.0767 9.96775 27.0023 10.7209 26.9984 11.476C26.9968 13.0728 27.3298 14.6518 27.9762 16.1118H20.3247C19.877 16.1118 19.5146 16.4745 19.5146 16.9218C19.5146 17.3692 19.877 17.7319 20.3247 17.7319H28.8551C30.5262 20.3599 33.1978 22.1921 36.251 22.8052V41.24ZM38.4997 21.4049C33.0427 21.4049 28.6185 16.9812 28.6189 11.5238C28.6189 6.06648 33.0427 1.6427 38.5001 1.6427C43.957 1.6427 48.3808 6.06688 48.3808 11.5238C48.3749 16.9784 43.9546 21.399 38.4997 21.4049Z" fill="black"/>
<path d="M15.1249 21.5031C13.695 21.5031 12.5321 22.6292 12.5321 24.0136C12.5321 25.398 13.695 26.5241 15.1249 26.5241C16.5548 26.5241 17.7181 25.398 17.7181 24.0136C17.7181 22.6292 16.5548 21.5031 15.1249 21.5031ZM15.1249 24.904C14.5881 24.904 14.1522 24.5045 14.1522 24.0136C14.1522 23.5223 14.5885 23.1232 15.1249 23.1232C15.6612 23.1232 16.0979 23.5227 16.0979 24.0136C16.0979 24.5045 15.6612 24.904 15.1249 24.904Z" fill="#CB4335"/>
<path d="M19.5146 24.01C19.5146 24.4574 19.877 24.8201 20.3247 24.8201H31.1247C31.5721 24.8201 31.9348 24.4574 31.9348 24.01C31.9348 23.5627 31.5721 23.2 31.1247 23.2H20.3247C19.877 23.2 19.5146 23.5627 19.5146 24.01Z" fill="#CB4335"/>
<path d="M15.1249 14.4612C13.695 14.4612 12.5321 15.5877 12.5321 16.9721C12.5321 18.3565 13.695 19.4826 15.1249 19.4826C16.5548 19.4826 17.7181 18.3565 17.7181 16.9721C17.7181 15.5877 16.5548 14.4612 15.1249 14.4612ZM15.1249 17.8625C14.5881 17.8625 14.1522 17.463 14.1522 16.9721C14.1522 16.4812 14.5885 16.0813 15.1249 16.0813C15.6612 16.0813 16.0979 16.4808 16.0979 16.9721C16.0979 17.463 15.6612 17.8629 15.1249 17.8629V17.8625Z" fill="black"/>
<path d="M15.1249 28.5441C13.695 28.5441 12.5321 29.6702 12.5321 31.0546C12.5321 32.4391 13.695 33.5652 15.1249 33.5652C16.5548 33.5652 17.7181 32.4391 17.7181 31.0546C17.7181 29.6702 16.5548 28.5441 15.1249 28.5441ZM15.1249 31.945C14.5881 31.945 14.1522 31.5459 14.1522 31.0546C14.1522 30.5638 14.5885 30.1643 15.1249 30.1643C15.6612 30.1643 16.0979 30.5638 16.0979 31.0546C16.0979 31.5455 15.6612 31.945 15.1249 31.945Z" fill="#CB4335"/>
<path d="M31.1247 30.2881H20.3247C19.877 30.2881 19.5146 30.6508 19.5146 31.0982C19.5146 31.5455 19.877 31.9082 20.3247 31.9082H31.1247C31.5721 31.9082 31.9348 31.5455 31.9348 31.0982C31.9348 30.6508 31.5721 30.2881 31.1247 30.2881Z" fill="#CB4335"/>
</svg>
