<svg width="50" height="50" viewBox="0 0 50 50" fill="none" xmlns="http://www.w3.org/2000/svg">
<path d="M40.9199 33.2971H35.9093V34.9673H40.9199V33.2971Z" fill="black"/>
<path d="M34.2391 33.2971H29.2285V34.9673H34.2391V33.2971Z" fill="black"/>
<path d="M27.5583 33.2971H22.5477V34.9673H27.5583V33.2971Z" fill="black"/>
<path d="M49.2601 17.2657L32.7359 0.739066C32.2667 0.265355 31.6273 -0.000833142 30.9605 1.95903e-06H30.953C30.2906 0.000315122 29.6561 0.266608 29.1918 0.739066L11.663 18.2653H2.5053C1.12164 18.2653 0 19.387 0 20.7706V44.1535C0 45.5371 1.12164 46.6588 2.5053 46.6588H14.8781L17.3701 49.1532C17.8393 49.6269 18.4787 49.8931 19.1455 49.8923H19.1522C19.8148 49.8921 20.4497 49.6258 20.9143 49.1532L23.4112 46.6588H42.5901C43.9738 46.6588 45.0954 45.5371 45.0954 44.1535V24.9745L49.2559 20.8141C49.7308 20.3492 49.9988 19.7131 50 19.0487C50.0025 18.3791 49.7359 17.7367 49.2601 17.2657ZM38.6368 9.00406L29.3755 18.2653H22.2838L35.0909 5.45822L38.6368 9.00406ZM30.3743 1.91656C30.6919 1.59118 31.2132 1.58492 31.5387 1.90268C31.5434 1.90727 31.5481 1.91186 31.5526 1.91656L33.9101 4.27739L19.9213 18.2653H14.0247L30.3743 1.91656ZM19.7318 47.9757C19.579 48.1352 19.368 48.2256 19.1472 48.2262C18.9234 48.2257 18.7092 48.1355 18.5526 47.9757L17.2407 46.6588H21.0495L19.7318 47.9757ZM43.4252 44.1535C43.4252 44.6146 43.0513 44.9886 42.5901 44.9886H2.5053C2.04412 44.9886 1.6702 44.6146 1.6702 44.1535V32.462H43.4252V44.1535ZM43.4252 30.7918H1.6702V25.7812H43.4252V30.7918ZM43.4252 24.111H1.6702V20.7706C1.6702 20.3095 2.04412 19.9355 2.5053 19.9355H42.5901C43.0513 19.9355 43.4252 20.3095 43.4252 20.7706V24.111ZM48.0792 19.6291L45.0954 22.6129V20.7706C45.0954 19.387 43.9738 18.2653 42.5901 18.2653H31.7338L39.8142 10.1849L48.0759 18.4465C48.2363 18.6038 48.3266 18.819 48.3264 19.0436C48.3262 19.2641 48.2371 19.4752 48.0792 19.6291Z" fill="black"/>
<mask id="mask0" mask-type="alpha" maskUnits="userSpaceOnUse" x="0" y="0" width="50" height="50">
<path d="M49.2601 17.2657L32.7359 0.739066C32.2667 0.265355 31.6273 -0.000833142 30.9605 1.95903e-06H30.953C30.2906 0.000315122 29.6561 0.266608 29.1918 0.739066L11.663 18.2653H2.5053C1.12164 18.2653 0 19.387 0 20.7706V44.1535C0 45.5371 1.12164 46.6588 2.5053 46.6588H14.8781L17.3701 49.1532C17.8393 49.6269 18.4787 49.8931 19.1455 49.8923H19.1522C19.8148 49.8921 20.4497 49.6258 20.9143 49.1532L23.4112 46.6588H42.5901C43.9738 46.6588 45.0954 45.5371 45.0954 44.1535V24.9745L49.2559 20.8141C49.7308 20.3492 49.9988 19.7131 50 19.0487C50.0025 18.3791 49.7359 17.7367 49.2601 17.2657ZM38.6368 9.00406L29.3755 18.2653H22.2838L35.0909 5.45822L38.6368 9.00406ZM30.3743 1.91656C30.6919 1.59118 31.2132 1.58492 31.5387 1.90268C31.5434 1.90727 31.5481 1.91186 31.5526 1.91656L33.9101 4.27739L19.9213 18.2653H14.0247L30.3743 1.91656ZM19.7318 47.9757C19.579 48.1352 19.368 48.2256 19.1472 48.2262C18.9234 48.2257 18.7092 48.1355 18.5526 47.9757L17.2407 46.6588H21.0495L19.7318 47.9757ZM43.4252 44.1535C43.4252 44.6146 43.0513 44.9886 42.5901 44.9886H2.5053C2.04412 44.9886 1.6702 44.6146 1.6702 44.1535V32.462H43.4252V44.1535ZM43.4252 30.7918H1.6702V25.7812H43.4252V30.7918ZM43.4252 24.111H1.6702V20.7706C1.6702 20.3095 2.04412 19.9355 2.5053 19.9355H42.5901C43.0513 19.9355 43.4252 20.3095 43.4252 20.7706V24.111ZM48.0792 19.6291L45.0954 22.6129V20.7706C45.0954 19.387 43.9738 18.2653 42.5901 18.2653H31.7338L39.8142 10.1849L48.0759 18.4465C48.2363 18.6038 48.3266 18.819 48.3264 19.0436C48.3262 19.2641 48.2371 19.4752 48.0792 19.6291Z" fill="black"/>
</mask>
<g mask="url(#mask0)">
<path d="M7 -5H54V18.2482L45.0977 24.9957V22.043C45.0977 22.043 45.4077 21.2686 45.2866 20.7598C44.6465 18.0698 42.6985 18.2482 42.6985 18.2482H7V-5Z" fill="#CB4335"/>
<rect x="14" y="47" width="11" height="4" fill="#CB4335"/>
</g>
<path d="M8.00945 43.3409C8.13138 43.2355 8.24558 43.1213 8.35101 42.9993C9.45533 44.2856 11.3528 44.53 12.747 43.5655C13.6468 42.9364 14.1869 41.911 14.1967 40.8131C14.1967 38.9682 12.7012 37.4727 10.8563 37.4727C10.6905 37.4704 10.525 37.4843 10.3619 37.5144L10.3402 37.5203C10.3319 37.5203 10.3235 37.5203 10.316 37.5203C9.55094 37.6474 8.8552 38.04 8.35101 38.6293C7.14429 37.2338 5.03472 37.0809 3.63937 38.2877C2.24392 39.4944 2.09099 41.604 3.29781 42.9993C4.50453 44.3948 6.614 44.5477 8.00945 43.3409ZM10.645 39.1604C10.7147 39.1471 10.7854 39.1413 10.8563 39.1429C11.7788 39.1429 12.5265 39.8906 12.5265 40.8131C12.5257 41.1664 12.4105 41.51 12.1983 41.7926C12.1683 41.8335 12.1449 41.8761 12.1106 41.9187C12.1048 41.9254 12.0964 41.9296 12.0898 41.9363C11.7743 42.2846 11.3263 42.4834 10.8563 42.4832C9.93405 42.4675 9.19905 41.7071 9.21482 40.7849C9.22881 39.9659 9.83446 39.2779 10.645 39.1604ZM5.84571 39.1429C6.76818 39.1429 7.51591 39.8906 7.51591 40.8131C7.51591 41.7355 6.76818 42.4832 5.84571 42.4832C4.92323 42.4832 4.1755 41.7355 4.1755 40.8131C4.1755 39.8906 4.92323 39.1429 5.84571 39.1429Z" fill="black"/>
</svg>
