<svg width="22" height="24" viewBox="0 0 22 24" fill="none" xmlns="http://www.w3.org/2000/svg">
<g clip-path="url(#clip0)">
<path d="M21.7669 21.4269L19.308 18.7444L18.177 19.9723L20.6413 22.6548C20.7968 22.8242 21.0004 22.9091 21.2041 22.9091C21.4078 22.9091 21.6114 22.8243 21.7669 22.6548C22.0777 22.3157 22.0777 21.766 21.7669 21.4269Z" fill="#66BF01"/>
<path d="M12.5231 18.4681C12.0936 18.4681 11.7454 18.0883 11.7454 17.6198C11.7454 17.1513 12.0936 16.7715 12.5231 16.7715L15.2576 16.7716L9.12639 10.083H4.83668C4.4072 10.083 4.05905 9.7032 4.05905 9.23468C4.05905 8.76615 4.4072 8.38635 4.83668 8.38635H7.57113L5.82424 6.48066C5.52061 6.14926 5.52061 5.61221 5.82424 5.28082C6.12801 4.94967 6.62031 4.94967 6.92409 5.28082L12.5143 11.3792V8.39646C12.5143 7.92793 12.8625 7.54813 13.2919 7.54813C13.7214 7.54813 14.0696 7.92793 14.0696 8.39646V13.0759L19.3087 18.7447C19.8033 16.6776 21.3482 8.95492 17.8796 5.17092C14.0865 1.03314 1.44646 -0.997322 0.910237 -1.08177C0.661719 -1.12072 0.411274 -1.03005 0.233793 -0.836353C0.0564595 -0.642817 -0.0269479 -0.369363 0.00890395 -0.0984131C0.0863114 0.486637 1.9475 14.2756 5.74046 18.4135C7.44994 20.2784 10.0357 20.8148 12.4465 20.8148C14.9276 20.8148 17.2165 20.2464 18.1777 19.9727L16.8129 18.4685L12.5231 18.4681Z" fill="#66BF01"/>
</g>
<defs>
<clipPath id="clip0">
<rect width="22" height="24" fill="white"/>
</clipPath>
</defs>
</svg>
