<svg width="14" height="21" viewBox="0 0 14 21" fill="none" xmlns="http://www.w3.org/2000/svg">
<path d="M12.643 4.08105H1.32441C1.10128 4.08105 0.920166 4.26159 0.920166 4.48401C0.920166 4.70643 1.10128 4.88696 1.32441 4.88696H12.643C12.8661 4.88696 13.0472 4.70643 13.0472 4.48401C13.0472 4.26159 12.8661 4.08105 12.643 4.08105Z" fill="white"/>
<path d="M6.98376 16.9761C6.53828 16.9761 6.17529 17.338 6.17529 17.782C6.17529 18.2262 6.53831 18.588 6.98376 18.588C7.42925 18.588 7.79224 18.2261 7.79224 17.782C7.79224 17.3379 7.42925 16.9761 6.98376 16.9761Z" fill="white"/>
<path d="M7.79207 2.46924H6.17522C5.95209 2.46924 5.771 2.64978 5.771 2.87221C5.771 3.09465 5.95213 3.27515 6.17526 3.27515H7.79211C8.01519 3.27515 8.19629 3.09461 8.19629 2.87217C8.19629 2.64974 8.01519 2.46924 7.79207 2.46924Z" fill="white"/>
<path d="M11.026 0.857178H2.94131C1.82726 0.857178 0.920166 1.76145 0.920166 2.87204V18.1851C0.920166 19.2957 1.82726 20.1999 2.94131 20.1999H11.0259C12.14 20.1999 13.0471 19.2957 13.0471 18.1851V2.87204C13.0471 1.76145 12.14 0.857178 11.026 0.857178ZM12.2387 18.1851C12.2387 18.8516 11.6946 19.394 11.026 19.394C10.3574 19.394 2.94131 19.394 2.94131 19.394C2.2727 19.394 1.72862 18.8516 1.72862 18.1851V2.87204C1.72862 2.20551 2.2727 1.66311 2.94131 1.66311C3.60992 1.66311 10.3573 1.66311 11.0259 1.66311C11.6945 1.66311 12.2386 2.20551 12.2386 2.87204C12.2386 3.53857 12.2387 17.5186 12.2387 18.1851Z" fill="white"/>
<path d="M12.643 15.3643H1.32441C1.10128 15.3643 0.920166 15.5448 0.920166 15.7672C0.920166 15.9896 1.10128 16.1702 1.32441 16.1702H12.643C12.8661 16.1702 13.0472 15.9896 13.0472 15.7672C13.0472 15.5448 12.8661 15.3643 12.643 15.3643Z" fill="white"/>
</svg>
