<svg width="18" height="18" viewBox="0 0 18 18" fill="none" xmlns="http://www.w3.org/2000/svg">
<path d="M16.5051 2.59046H12.76V1.97985C12.76 0.888158 11.8718 0 10.7801 0H7.22011C6.12842 0 5.24026 0.888158 5.24026 1.97985V2.59046H1.49519C1.21765 2.59046 0.995605 2.8125 0.995605 3.09005C0.995605 3.3676 1.21765 3.58964 1.49519 3.58964H2.39815V15.3281C2.39815 16.801 3.59717 18 5.07003 18H12.9302C14.4031 18 15.6021 16.801 15.6021 15.3281V3.58964H16.5051C16.7826 3.58964 17.0047 3.3676 17.0047 3.09005C17.0047 2.8125 16.7826 2.59046 16.5051 2.59046ZM6.23944 1.97985C6.23944 1.43956 6.67982 0.999178 7.22011 0.999178H10.7801C11.3204 0.999178 11.7608 1.43956 11.7608 1.97985V2.59046H6.23944V1.97985ZM14.6029 15.3281C14.6029 16.2496 13.8517 17.0008 12.9302 17.0008H5.07003C4.14857 17.0008 3.39733 16.2496 3.39733 15.3281V3.58964H14.6066V15.3281H14.6029Z" fill="black"/>
<path d="M9.00008 15.2097C9.27763 15.2097 9.49967 14.9877 9.49967 14.7101V5.88036C9.49967 5.60281 9.27763 5.38077 9.00008 5.38077C8.72253 5.38077 8.50049 5.60281 8.50049 5.88036V14.7064C8.50049 14.984 8.72253 15.2097 9.00008 15.2097Z" fill="black"/>
<path d="M5.73982 14.6583C6.01737 14.6583 6.23941 14.4363 6.23941 14.1587V6.42806C6.23941 6.15051 6.01737 5.92847 5.73982 5.92847C5.46227 5.92847 5.24023 6.15051 5.24023 6.42806V14.1587C5.24023 14.4363 5.46597 14.6583 5.73982 14.6583Z" fill="black"/>
<path d="M12.2603 14.6583C12.5379 14.6583 12.7599 14.4363 12.7599 14.1587V6.42806C12.7599 6.15051 12.5379 5.92847 12.2603 5.92847C11.9828 5.92847 11.7607 6.15051 11.7607 6.42806V14.1587C11.7607 14.4363 11.9828 14.6583 12.2603 14.6583Z" fill="black"/>
</svg>
