<svg width="17" height="17" viewBox="0 0 17 17" fill="none" xmlns="http://www.w3.org/2000/svg">
<g clip-path="url(#clip0)">
<path d="M6.67857 0H0.607143C0.271558 0 0 0.271558 0 0.607143V6.67857C0 7.01416 0.271558 7.28571 0.607143 7.28571H6.67857C7.01416 7.28571 7.28571 7.01416 7.28571 6.67857V4.85714V0.607143C7.28571 0.271558 7.01416 0 6.67857 0ZM6.07143 6.07143H1.21429V1.21429H6.07143V6.07143Z" fill="#272A2F"/>
<path d="M6.67857 9.71426H0.607143C0.271558 9.71426 0 9.98582 0 10.3214V16.3928C0 16.7284 0.271558 17 0.607143 17H6.67857C7.01416 17 7.28571 16.7284 7.28571 16.3928V10.3214C7.28571 9.98582 7.01416 9.71426 6.67857 9.71426ZM6.07143 15.7857H1.21429V10.9285H6.07143V15.7857Z" fill="#272A2F"/>
<path d="M16.3929 9.71426H12.1429H10.3215C9.98591 9.71426 9.71436 9.98582 9.71436 10.3214V16.3928C9.71436 16.7284 9.98591 17 10.3215 17H16.3929C16.7285 17 17.0001 16.7284 17.0001 16.3928V10.3214C17.0001 9.98582 16.7285 9.71426 16.3929 9.71426ZM15.7858 15.7857H10.9286V10.9285H15.7858V15.7857Z" fill="#272A2F"/>
<path d="M16.8221 5.2864C17.0592 5.04925 17.0592 4.66502 16.8221 4.42787L12.5721 0.177865C12.3349 -0.0592884 11.9507 -0.0592884 11.7135 0.177865L7.46352 4.42787C7.34492 4.54646 7.28564 4.70178 7.28564 4.85713C7.28564 5.01249 7.34492 5.16781 7.46352 5.2864L11.7135 9.5364C11.8321 9.655 11.9874 9.71428 12.1428 9.71428C12.2981 9.71428 12.4535 9.655 12.5721 9.5364L16.8221 5.2864ZM8.75132 4.85713L12.1428 1.46567L15.5343 4.85713L12.1428 8.2486L8.75132 4.85713Z" fill="#272A2F"/>
</g>
<defs>
<clipPath id="clip0">
<rect width="17" height="17" fill="white"/>
</clipPath>
</defs>
</svg>
