<svg width="13" height="13" viewBox="0 0 13 13" fill="none" xmlns="http://www.w3.org/2000/svg">
<path d="M10.1113 5.99274L4.32616 0.207681C4.19236 0.0737718 4.01374 0 3.82329 0C3.63283 0 3.45422 0.0737718 3.32041 0.207681L2.89438 0.633613C2.61715 0.911155 2.61715 1.36224 2.89438 1.63936L7.75232 6.4973L2.88899 11.3606C2.75518 11.4945 2.6813 11.6731 2.6813 11.8634C2.6813 12.054 2.75518 12.2325 2.88899 12.3665L3.31502 12.7923C3.44893 12.9262 3.62744 13 3.8179 13C4.00835 13 4.18697 12.9262 4.32077 12.7923L10.1113 7.00198C10.2454 6.86764 10.3191 6.68829 10.3187 6.49762C10.3191 6.30622 10.2454 6.12697 10.1113 5.99274Z" fill="#66BF01"/>
</svg>
