<svg xmlns="http://www.w3.org/2000/svg" width="9" height="9" viewBox="0 0 9 9"><g><g><path fill="#bd9543" d="M8.823 4.07l-.974-.973a.606.606 0 0 0-.91.796H5.107V2.06a.604.604 0 0 0 .796-.91L4.928.177a.606.606 0 0 0-.857 0l-.973.973a.606.606 0 0 0 .796.91v1.833H2.06a.606.606 0 0 0-.91-.796l-.973.974a.606.606 0 0 0 0 .857l.974.973a.606.606 0 0 0 .909-.796h1.834V6.94a.605.605 0 0 0-.796.91l.973.973a.605.605 0 0 0 .857 0l.974-.974a.605.605 0 0 0-.796-.909V5.105h1.833a.606.606 0 0 0 .91.796l.973-.973a.606.606 0 0 0 0-.857z"/></g></g></svg>